<?xml version="1.0" encoding="UTF-8" standalone="no"?>
<!DOCTYPE svg PUBLIC "-//W3C//DTD SVG 1.1//EN"
 "http://www.w3.org/Graphics/SVG/1.1/DTD/svg11.dtd">
<!-- Generated by graphviz version 2.40.1 (20161225.0304)
 -->
<!-- Title: orphans Pages: 1 -->
<svg width="266pt" height="548pt"
 viewBox="0.00 0.00 266.00 548.00" xmlns="http://www.w3.org/2000/svg" xmlns:xlink="http://www.w3.org/1999/xlink">
<g id="graph0" class="graph" transform="scale(1 1) rotate(0) translate(4 544)">
<title>orphans</title>
<polygon fill="#ffffff" stroke="transparent" points="-4,4 -4,-544 262,-544 262,4 -4,4"/>
<!-- calendar_dates -->
<g id="node1" class="node">
<title>calendar_dates</title>
<g id="a_node1"><a xlink:href="../../tables/calendar_dates.html" xlink:title="calendar_dates" target="_top">
<polygon fill="#ffffff" stroke="transparent" points="41,-4 41,-116 217,-116 217,-4 41,-4"/>
<polygon fill="#f5f5f5" stroke="transparent" points="43,-91 43,-114 215,-114 215,-91 43,-91"/>
<polygon fill="none" stroke="#000000" points="43,-91 43,-114 215,-114 215,-91 43,-91"/>
<text text-anchor="start" x="48" y="-99.6" font-family="Helvetica,sans-Serif" font-weight="bold" font-size="11.00" fill="#000000">calendar_dates</text>
<text text-anchor="start" x="180.0437" y="-99.1" font-family="Helvetica,sans-Serif" font-size="11.00" fill="#000000">[table]</text>
<polygon fill="none" stroke="#000000" points="43,-69 43,-91 154,-91 154,-69 43,-69"/>
<image xlink:href="../../images/primaryKeys.png" width="11px" height="12px" preserveAspectRatio="xMinYMin meet" x="48" y="-86"/>
<text text-anchor="start" x="63" y="-76.1" font-family="Helvetica,sans-Serif" font-size="11.00" fill="#000000">service_id</text>
<polygon fill="none" stroke="#000000" points="154,-69 154,-91 215,-91 215,-69 154,-69"/>
<text text-anchor="start" x="156.994" y="-76.7" font-family="Helvetica,sans-Serif" font-size="11.00" fill="#000000">varchar[64]</text>
<polygon fill="none" stroke="#000000" points="43,-47 43,-69 154,-69 154,-47 43,-47"/>
<text text-anchor="start" x="63" y="-54.1" font-family="Helvetica,sans-Serif" font-size="11.00" fill="#000000">date</text>
<polygon fill="none" stroke="#000000" points="154,-47 154,-69 215,-69 215,-47 154,-47"/>
<text text-anchor="start" x="157" y="-54.7" font-family="Helvetica,sans-Serif" font-size="11.00" fill="#000000">varchar[8]</text>
<polygon fill="none" stroke="#000000" points="43,-25 43,-47 154,-47 154,-25 43,-25"/>
<text text-anchor="start" x="63" y="-32.1" font-family="Helvetica,sans-Serif" font-size="11.00" fill="#000000">exception_type</text>
<polygon fill="none" stroke="#000000" points="154,-25 154,-47 215,-47 215,-25 154,-25"/>
<text text-anchor="start" x="157" y="-32.7" font-family="Helvetica,sans-Serif" font-size="11.00" fill="#000000">int2[5]</text>
<polygon fill="#ffffff" stroke="transparent" points="43,-6 43,-25 103,-25 103,-6 43,-6"/>
<polygon fill="none" stroke="#000000" points="43,-6 43,-25 103,-25 103,-6 43,-6"/>
<text text-anchor="start" x="46" y="-12.1" font-family="Helvetica,sans-Serif" font-size="11.00" fill="#000000">&lt; 0</text>
<polygon fill="#ffffff" stroke="transparent" points="103,-6 103,-25 154,-25 154,-6 103,-6"/>
<polygon fill="none" stroke="#000000" points="103,-6 103,-25 154,-25 154,-6 103,-6"/>
<text text-anchor="start" x="144.8862" y="-12.1" font-family="Helvetica,sans-Serif" font-size="11.00" fill="#000000"> &#160;</text>
<polygon fill="#ffffff" stroke="transparent" points="154,-6 154,-25 215,-25 215,-6 154,-6"/>
<polygon fill="none" stroke="#000000" points="154,-6 154,-25 215,-25 215,-6 154,-6"/>
<text text-anchor="start" x="196.4053" y="-12.1" font-family="Helvetica,sans-Serif" font-size="11.00" fill="#000000">0 &gt;</text>
<polygon fill="none" stroke="#000000" stroke-width="2" points="42,-5 42,-115 216,-115 216,-5 42,-5"/>
</a>
</g>
</g>
<!-- feed_info -->
<g id="node2" class="node">
<title>feed_info</title>
<g id="a_node2"><a xlink:href="../../tables/feed_info.html" xlink:title="feed_info" target="_top">
<polygon fill="#ffffff" stroke="transparent" points="8,-137 8,-315 250,-315 250,-137 8,-137"/>
<polygon fill="#f5f5f5" stroke="transparent" points="10,-290 10,-313 248,-313 248,-290 10,-290"/>
<polygon fill="none" stroke="#000000" points="10,-290 10,-313 248,-313 248,-290 10,-290"/>
<text text-anchor="start" x="15" y="-298.6" font-family="Helvetica,sans-Serif" font-weight="bold" font-size="11.00" fill="#000000">feed_info</text>
<text text-anchor="start" x="213.0437" y="-298.1" font-family="Helvetica,sans-Serif" font-size="11.00" fill="#000000">[table]</text>
<polygon fill="none" stroke="#000000" points="10,-268 10,-290 158,-290 158,-268 10,-268"/>
<text text-anchor="start" x="30" y="-275.1" font-family="Helvetica,sans-Serif" font-size="11.00" fill="#000000">feed_publisher_name</text>
<polygon fill="none" stroke="#000000" points="158,-268 158,-290 248,-290 248,-268 158,-268"/>
<text text-anchor="start" x="160.5042" y="-275.7" font-family="Helvetica,sans-Serif" font-size="11.00" fill="#000000">text[2147483647]</text>
<polygon fill="none" stroke="#000000" points="10,-246 10,-268 158,-268 158,-246 10,-246"/>
<text text-anchor="start" x="30" y="-253.1" font-family="Helvetica,sans-Serif" font-size="11.00" fill="#000000">feed_publisher_url</text>
<polygon fill="none" stroke="#000000" points="158,-246 158,-268 248,-268 248,-246 158,-246"/>
<text text-anchor="start" x="160.5042" y="-253.7" font-family="Helvetica,sans-Serif" font-size="11.00" fill="#000000">text[2147483647]</text>
<polygon fill="none" stroke="#000000" points="10,-224 10,-246 158,-246 158,-224 10,-224"/>
<text text-anchor="start" x="30" y="-231.1" font-family="Helvetica,sans-Serif" font-size="11.00" fill="#000000">feed_lang</text>
<polygon fill="none" stroke="#000000" points="158,-224 158,-246 248,-246 248,-224 158,-224"/>
<text text-anchor="start" x="161" y="-231.7" font-family="Helvetica,sans-Serif" font-size="11.00" fill="#000000">varchar[8]</text>
<polygon fill="none" stroke="#000000" points="10,-202 10,-224 158,-224 158,-202 10,-202"/>
<text text-anchor="start" x="30" y="-209.1" font-family="Helvetica,sans-Serif" font-size="11.00" fill="#000000">feed_start_date</text>
<polygon fill="none" stroke="#000000" points="158,-202 158,-224 248,-224 248,-202 158,-202"/>
<text text-anchor="start" x="161" y="-209.7" font-family="Helvetica,sans-Serif" font-size="11.00" fill="#000000">varchar[8]</text>
<polygon fill="none" stroke="#000000" points="10,-180 10,-202 158,-202 158,-180 10,-180"/>
<text text-anchor="start" x="30" y="-187.1" font-family="Helvetica,sans-Serif" font-size="11.00" fill="#000000">feed_end_date</text>
<polygon fill="none" stroke="#000000" points="158,-180 158,-202 248,-202 248,-180 158,-180"/>
<text text-anchor="start" x="161" y="-187.7" font-family="Helvetica,sans-Serif" font-size="11.00" fill="#000000">varchar[8]</text>
<polygon fill="none" stroke="#000000" points="10,-158 10,-180 158,-180 158,-158 10,-158"/>
<text text-anchor="start" x="30" y="-165.1" font-family="Helvetica,sans-Serif" font-size="11.00" fill="#000000">feed_version</text>
<polygon fill="none" stroke="#000000" points="158,-158 158,-180 248,-180 248,-158 158,-158"/>
<text text-anchor="start" x="161" y="-165.7" font-family="Helvetica,sans-Serif" font-size="11.00" fill="#000000">varchar[32]</text>
<polygon fill="#ffffff" stroke="transparent" points="10,-139 10,-158 88,-158 88,-139 10,-139"/>
<polygon fill="none" stroke="#000000" points="10,-139 10,-158 88,-158 88,-139 10,-139"/>
<text text-anchor="start" x="13" y="-145.1" font-family="Helvetica,sans-Serif" font-size="11.00" fill="#000000">&lt; 0</text>
<polygon fill="#ffffff" stroke="transparent" points="88,-139 88,-158 158,-158 158,-139 88,-139"/>
<polygon fill="none" stroke="#000000" points="88,-139 88,-158 158,-158 158,-139 88,-139"/>
<text text-anchor="start" x="148.8862" y="-145.1" font-family="Helvetica,sans-Serif" font-size="11.00" fill="#000000"> &#160;</text>
<polygon fill="#ffffff" stroke="transparent" points="158,-139 158,-158 248,-158 248,-139 158,-139"/>
<polygon fill="none" stroke="#000000" points="158,-139 158,-158 248,-158 248,-139 158,-139"/>
<text text-anchor="start" x="229.4053" y="-145.1" font-family="Helvetica,sans-Serif" font-size="11.00" fill="#000000">0 &gt;</text>
<polygon fill="none" stroke="#000000" stroke-width="2" points="9,-138 9,-314 249,-314 249,-138 9,-138"/>
</a>
</g>
</g>
<!-- translations -->
<g id="node3" class="node">
<title>translations</title>
<g id="a_node3"><a xlink:href="../../tables/translations.html" xlink:title="translations" target="_top">
<polygon fill="#ffffff" stroke="transparent" points="42.5,-336 42.5,-536 215.5,-536 215.5,-336 42.5,-336"/>
<polygon fill="#f5f5f5" stroke="transparent" points="45,-511 45,-534 214,-534 214,-511 45,-511"/>
<polygon fill="none" stroke="#000000" points="45,-511 45,-534 214,-534 214,-511 45,-511"/>
<text text-anchor="start" x="50" y="-519.6" font-family="Helvetica,sans-Serif" font-weight="bold" font-size="11.00" fill="#000000">translations</text>
<text text-anchor="start" x="179.0437" y="-519.1" font-family="Helvetica,sans-Serif" font-size="11.00" fill="#000000">[table]</text>
<polygon fill="none" stroke="#000000" points="45,-489 45,-511 147,-511 147,-489 45,-489"/>
<text text-anchor="start" x="65" y="-496.1" font-family="Helvetica,sans-Serif" font-size="11.00" fill="#000000">table_name</text>
<polygon fill="none" stroke="#000000" points="147,-489 147,-511 214,-511 214,-489 147,-489"/>
<text text-anchor="start" x="150" y="-496.7" font-family="Helvetica,sans-Serif" font-size="11.00" fill="#000000">varchar[64]</text>
<polygon fill="none" stroke="#000000" points="45,-467 45,-489 147,-489 147,-467 45,-467"/>
<text text-anchor="start" x="65" y="-474.1" font-family="Helvetica,sans-Serif" font-size="11.00" fill="#000000">field_name</text>
<polygon fill="none" stroke="#000000" points="147,-467 147,-489 214,-489 214,-467 147,-467"/>
<text text-anchor="start" x="150" y="-474.7" font-family="Helvetica,sans-Serif" font-size="11.00" fill="#000000">varchar[64]</text>
<polygon fill="none" stroke="#000000" points="45,-445 45,-467 147,-467 147,-445 45,-445"/>
<text text-anchor="start" x="65" y="-452.1" font-family="Helvetica,sans-Serif" font-size="11.00" fill="#000000">language</text>
<polygon fill="none" stroke="#000000" points="147,-445 147,-467 214,-467 214,-445 147,-445"/>
<text text-anchor="start" x="150" y="-452.7" font-family="Helvetica,sans-Serif" font-size="11.00" fill="#000000">varchar[8]</text>
<polygon fill="none" stroke="#000000" points="45,-423 45,-445 147,-445 147,-423 45,-423"/>
<text text-anchor="start" x="65" y="-430.1" font-family="Helvetica,sans-Serif" font-size="11.00" fill="#000000">translation</text>
<polygon fill="none" stroke="#000000" points="147,-423 147,-445 214,-445 214,-423 147,-423"/>
<text text-anchor="start" x="149.9365" y="-430.7" font-family="Helvetica,sans-Serif" font-size="11.00" fill="#000000">varchar[128]</text>
<polygon fill="none" stroke="#000000" points="45,-401 45,-423 147,-423 147,-401 45,-401"/>
<text text-anchor="start" x="65" y="-408.1" font-family="Helvetica,sans-Serif" font-size="11.00" fill="#000000">record_id</text>
<polygon fill="none" stroke="#000000" points="147,-401 147,-423 214,-423 214,-401 147,-401"/>
<text text-anchor="start" x="150" y="-408.7" font-family="Helvetica,sans-Serif" font-size="11.00" fill="#000000">varchar[64]</text>
<polygon fill="none" stroke="#000000" points="45,-379 45,-401 147,-401 147,-379 45,-379"/>
<text text-anchor="start" x="65" y="-386.1" font-family="Helvetica,sans-Serif" font-size="11.00" fill="#000000">record_sub_id</text>
<polygon fill="none" stroke="#000000" points="147,-379 147,-401 214,-401 214,-379 147,-379"/>
<text text-anchor="start" x="150" y="-386.7" font-family="Helvetica,sans-Serif" font-size="11.00" fill="#000000">varchar[64]</text>
<polygon fill="none" stroke="#000000" points="45,-357 45,-379 147,-379 147,-357 45,-357"/>
<text text-anchor="start" x="65" y="-364.1" font-family="Helvetica,sans-Serif" font-size="11.00" fill="#000000">field_value</text>
<polygon fill="none" stroke="#000000" points="147,-357 147,-379 214,-379 214,-357 147,-357"/>
<text text-anchor="start" x="149.9365" y="-364.7" font-family="Helvetica,sans-Serif" font-size="11.00" fill="#000000">varchar[128]</text>
<polygon fill="#ffffff" stroke="transparent" points="45,-338 45,-357 100,-357 100,-338 45,-338"/>
<polygon fill="none" stroke="#000000" points="45,-338 45,-357 100,-357 100,-338 45,-338"/>
<text text-anchor="start" x="48" y="-344.1" font-family="Helvetica,sans-Serif" font-size="11.00" fill="#000000">&lt; 0</text>
<polygon fill="#ffffff" stroke="transparent" points="100,-338 100,-357 147,-357 147,-338 100,-338"/>
<polygon fill="none" stroke="#000000" points="100,-338 100,-357 147,-357 147,-338 100,-338"/>
<text text-anchor="start" x="137.8862" y="-344.1" font-family="Helvetica,sans-Serif" font-size="11.00" fill="#000000"> &#160;</text>
<polygon fill="#ffffff" stroke="transparent" points="147,-338 147,-357 214,-357 214,-338 147,-338"/>
<polygon fill="none" stroke="#000000" points="147,-338 147,-357 214,-357 214,-338 147,-338"/>
<text text-anchor="start" x="195.4053" y="-344.1" font-family="Helvetica,sans-Serif" font-size="11.00" fill="#000000">0 &gt;</text>
<polygon fill="none" stroke="#000000" stroke-width="2" points="43.5,-337 43.5,-535 214.5,-535 214.5,-337 43.5,-337"/>
</a>
</g>
</g>
</g>
</svg>
