<?xml version="1.0" encoding="UTF-8" standalone="no"?>
<!DOCTYPE svg PUBLIC "-//W3C//DTD SVG 1.1//EN"
 "http://www.w3.org/Graphics/SVG/1.1/DTD/svg11.dtd">
<!-- Generated by graphviz version 2.40.1 (20161225.0304)
 -->
<!-- Title: twoDegreesRelationshipsDiagram Pages: 1 -->
<svg width="454pt" height="311pt"
 viewBox="0.00 0.00 454.00 310.70" xmlns="http://www.w3.org/2000/svg" xmlns:xlink="http://www.w3.org/1999/xlink">
<g id="graph0" class="graph" transform="scale(1 1) rotate(0) translate(4 306.7)">
<title>twoDegreesRelationshipsDiagram</title>
<polygon fill="#ffffff" stroke="transparent" points="-4,4 -4,-306.7 450,-306.7 450,4 -4,4"/>
<text text-anchor="middle" x="72.4936" y="-7.3" font-family="Helvetica,sans-Serif" font-size="11.00" fill="#000000">Generated by SchemaSpy</text>
<!-- agency_jp -->
<g id="node1" class="node">
<title>agency_jp</title>
<g id="a_node1"><a xlink:href="../../tables/agency_jp.html" xlink:title="agency_jp" target="_top">
<polygon fill="#ffffff" stroke="transparent" points="180,-120.7 180,-298.7 438,-298.7 438,-120.7 180,-120.7"/>
<polygon fill="#f5f5f5" stroke="transparent" points="182,-273.7 182,-296.7 436,-296.7 436,-273.7 182,-273.7"/>
<polygon fill="none" stroke="#000000" points="182,-273.7 182,-296.7 436,-296.7 436,-273.7 182,-273.7"/>
<text text-anchor="start" x="187" y="-282.3" font-family="Helvetica,sans-Serif" font-weight="bold" font-size="11.00" fill="#000000">agency_jp</text>
<text text-anchor="start" x="401.0437" y="-281.8" font-family="Helvetica,sans-Serif" font-size="11.00" fill="#000000">[table]</text>
<polygon fill="none" stroke="#000000" points="182,-251.7 182,-273.7 346,-273.7 346,-251.7 182,-251.7"/>
<image xlink:href="../../images/primaryKeys.png" width="11px" height="12px" preserveAspectRatio="xMinYMin meet" x="187" y="-268.7"/>
<text text-anchor="start" x="202" y="-258.8" font-family="Helvetica,sans-Serif" font-size="11.00" fill="#000000">agency_id</text>
<polygon fill="none" stroke="#000000" points="346,-251.7 346,-273.7 436,-273.7 436,-251.7 346,-251.7"/>
<text text-anchor="start" x="349" y="-259.4" font-family="Helvetica,sans-Serif" font-size="11.00" fill="#000000">varchar[64]</text>
<polygon fill="none" stroke="#000000" points="182,-229.7 182,-251.7 346,-251.7 346,-229.7 182,-229.7"/>
<text text-anchor="start" x="202" y="-236.8" font-family="Helvetica,sans-Serif" font-size="11.00" fill="#000000">agency_official_name</text>
<polygon fill="none" stroke="#000000" points="346,-229.7 346,-251.7 436,-251.7 436,-229.7 346,-229.7"/>
<text text-anchor="start" x="348.5043" y="-237.4" font-family="Helvetica,sans-Serif" font-size="11.00" fill="#000000">text[2147483647]</text>
<polygon fill="none" stroke="#000000" points="182,-207.7 182,-229.7 346,-229.7 346,-207.7 182,-207.7"/>
<text text-anchor="start" x="202" y="-214.8" font-family="Helvetica,sans-Serif" font-size="11.00" fill="#000000">agency_zip_number</text>
<polygon fill="none" stroke="#000000" points="346,-207.7 346,-229.7 436,-229.7 436,-207.7 346,-207.7"/>
<text text-anchor="start" x="348.5043" y="-215.4" font-family="Helvetica,sans-Serif" font-size="11.00" fill="#000000">text[2147483647]</text>
<polygon fill="none" stroke="#000000" points="182,-185.7 182,-207.7 346,-207.7 346,-185.7 182,-185.7"/>
<text text-anchor="start" x="202" y="-192.8" font-family="Helvetica,sans-Serif" font-size="11.00" fill="#000000">agency_address</text>
<polygon fill="none" stroke="#000000" points="346,-185.7 346,-207.7 436,-207.7 436,-185.7 346,-185.7"/>
<text text-anchor="start" x="348.5043" y="-193.4" font-family="Helvetica,sans-Serif" font-size="11.00" fill="#000000">text[2147483647]</text>
<polygon fill="none" stroke="#000000" points="182,-163.7 182,-185.7 346,-185.7 346,-163.7 182,-163.7"/>
<text text-anchor="start" x="202" y="-170.8" font-family="Helvetica,sans-Serif" font-size="11.00" fill="#000000">agency_president_pos</text>
<polygon fill="none" stroke="#000000" points="346,-163.7 346,-185.7 436,-185.7 436,-163.7 346,-163.7"/>
<text text-anchor="start" x="348.5043" y="-171.4" font-family="Helvetica,sans-Serif" font-size="11.00" fill="#000000">text[2147483647]</text>
<polygon fill="none" stroke="#000000" points="182,-141.7 182,-163.7 346,-163.7 346,-141.7 182,-141.7"/>
<text text-anchor="start" x="202" y="-148.8" font-family="Helvetica,sans-Serif" font-size="11.00" fill="#000000">agency_president_name</text>
<polygon fill="none" stroke="#000000" points="346,-141.7 346,-163.7 436,-163.7 436,-141.7 346,-141.7"/>
<text text-anchor="start" x="348.5043" y="-149.4" font-family="Helvetica,sans-Serif" font-size="11.00" fill="#000000">text[2147483647]</text>
<polygon fill="#ffffff" stroke="transparent" points="182,-122.7 182,-141.7 268,-141.7 268,-122.7 182,-122.7"/>
<polygon fill="none" stroke="#000000" points="182,-122.7 182,-141.7 268,-141.7 268,-122.7 182,-122.7"/>
<text text-anchor="start" x="185" y="-128.8" font-family="Helvetica,sans-Serif" font-size="11.00" fill="#000000">&lt; 1</text>
<polygon fill="#ffffff" stroke="transparent" points="268,-122.7 268,-141.7 346,-141.7 346,-122.7 268,-122.7"/>
<polygon fill="none" stroke="#000000" points="268,-122.7 268,-141.7 346,-141.7 346,-122.7 268,-122.7"/>
<text text-anchor="start" x="336.8862" y="-128.8" font-family="Helvetica,sans-Serif" font-size="11.00" fill="#000000"> &#160;</text>
<polygon fill="#ffffff" stroke="transparent" points="346,-122.7 346,-141.7 436,-141.7 436,-122.7 346,-122.7"/>
<polygon fill="none" stroke="#000000" points="346,-122.7 346,-141.7 436,-141.7 436,-122.7 346,-122.7"/>
<text text-anchor="start" x="417.4053" y="-128.8" font-family="Helvetica,sans-Serif" font-size="11.00" fill="#000000">0 &gt;</text>
<polygon fill="none" stroke="#000000" stroke-width="2" points="181,-121.7 181,-297.7 437,-297.7 437,-121.7 181,-121.7"/>
</a>
</g>
</g>
<!-- agency -->
<g id="node2" class="node">
<title>agency</title>
<g id="a_node2"><a xlink:href="../../tables/agency.html" xlink:title="agency" target="_top">
<polygon fill="#ffffff" stroke="transparent" points="8,-115.2 8,-198.2 131,-198.2 131,-115.2 8,-115.2"/>
<polygon fill="#f5f5f5" stroke="transparent" points="8.5,-174.7 8.5,-197.7 131.5,-197.7 131.5,-174.7 8.5,-174.7"/>
<polygon fill="none" stroke="#000000" points="8.5,-174.7 8.5,-197.7 131.5,-197.7 131.5,-174.7 8.5,-174.7"/>
<text text-anchor="start" x="13.5" y="-183.3" font-family="Helvetica,sans-Serif" font-weight="bold" font-size="11.00" fill="#000000">agency</text>
<text text-anchor="start" x="96.5437" y="-182.8" font-family="Helvetica,sans-Serif" font-size="11.00" fill="#000000">[table]</text>
<polygon fill="none" stroke="#000000" points="8.5,-152.7 8.5,-174.7 131.5,-174.7 131.5,-152.7 8.5,-152.7"/>
<image xlink:href="../../images/primaryKeys.png" width="11px" height="12px" preserveAspectRatio="xMinYMin meet" x="13.5" y="-169.7"/>
<text text-anchor="start" x="28.5" y="-159.8" font-family="Helvetica,sans-Serif" font-size="11.00" fill="#000000">agency_id</text>
<polygon fill="none" stroke="#000000" points="8.5,-133.7 8.5,-152.7 131.5,-152.7 131.5,-133.7 8.5,-133.7"/>
<text text-anchor="start" x="11.5" y="-139.8" font-family="Helvetica,sans-Serif" font-size="11.00" fill="#000000">...</text>
<polygon fill="#ffffff" stroke="transparent" points="8.5,-114.7 8.5,-133.7 59.5,-133.7 59.5,-114.7 8.5,-114.7"/>
<polygon fill="none" stroke="#000000" points="8.5,-114.7 8.5,-133.7 59.5,-133.7 59.5,-114.7 8.5,-114.7"/>
<text text-anchor="start" x="11.5" y="-120.8" font-family="Helvetica,sans-Serif" font-size="11.00" fill="#000000"> &#160;</text>
<polygon fill="#ffffff" stroke="transparent" points="59.5,-114.7 59.5,-133.7 90.5,-133.7 90.5,-114.7 59.5,-114.7"/>
<polygon fill="none" stroke="#000000" points="59.5,-114.7 59.5,-133.7 90.5,-133.7 90.5,-114.7 59.5,-114.7"/>
<text text-anchor="start" x="81.3862" y="-120.8" font-family="Helvetica,sans-Serif" font-size="11.00" fill="#000000"> &#160;</text>
<polygon fill="#ffffff" stroke="transparent" points="90.5,-114.7 90.5,-133.7 131.5,-133.7 131.5,-114.7 90.5,-114.7"/>
<polygon fill="none" stroke="#000000" points="90.5,-114.7 90.5,-133.7 131.5,-133.7 131.5,-114.7 90.5,-114.7"/>
<text text-anchor="start" x="112.9053" y="-120.8" font-family="Helvetica,sans-Serif" font-size="11.00" fill="#000000">2 &gt;</text>
</a>
</g>
</g>
<!-- agency_jp&#45;&gt;agency -->
<g id="edge1" class="edge">
<title>agency_jp:w&#45;&gt;agency:e</title>
<path fill="none" stroke="#000000" d="M171.7086,-260.8107C139.871,-247.124 176.842,-163.7 131.5,-163.7"/>
<polygon fill="#000000" stroke="#000000" points="181.9354,-258.6213 180.4909,-266.4898 178.9172,-266.2009 180.3617,-258.3324 181.9354,-258.6213"/>
<polyline fill="none" stroke="#000000" points="182,-262.7 178.0657,-261.9777 "/>
<ellipse fill="none" stroke="#000000" cx="174.9183" cy="-261.3999" rx="3.2" ry="3.2"/>
</g>
<!-- routes -->
<g id="node3" class="node">
<title>routes</title>
<g id="a_node3"><a xlink:href="../../tables/routes.html" xlink:title="routes" target="_top">
<polygon fill="#ffffff" stroke="transparent" points="270,-38.2 270,-99.2 348,-99.2 348,-38.2 270,-38.2"/>
<polygon fill="#f5f5f5" stroke="transparent" points="270,-75.7 270,-98.7 348,-98.7 348,-75.7 270,-75.7"/>
<polygon fill="none" stroke="#000000" points="270,-75.7 270,-98.7 348,-98.7 348,-75.7 270,-75.7"/>
<text text-anchor="start" x="275" y="-84.3" font-family="Helvetica,sans-Serif" font-weight="bold" font-size="11.00" fill="#000000">routes</text>
<text text-anchor="start" x="313.5219" y="-83.8" font-family="Helvetica,sans-Serif" font-size="11.00" fill="#000000">[table]</text>
<polygon fill="none" stroke="#000000" points="270,-56.7 270,-75.7 348,-75.7 348,-56.7 270,-56.7"/>
<text text-anchor="start" x="273" y="-62.8" font-family="Helvetica,sans-Serif" font-size="11.00" fill="#000000">...</text>
<polygon fill="#ffffff" stroke="transparent" points="270,-37.7 270,-56.7 303,-56.7 303,-37.7 270,-37.7"/>
<polygon fill="none" stroke="#000000" points="270,-37.7 270,-56.7 303,-56.7 303,-37.7 270,-37.7"/>
<text text-anchor="start" x="273" y="-43.8" font-family="Helvetica,sans-Serif" font-size="11.00" fill="#000000">&lt; 1</text>
<polygon fill="#ffffff" stroke="transparent" points="303,-37.7 303,-56.7 321,-56.7 321,-37.7 303,-37.7"/>
<polygon fill="none" stroke="#000000" points="303,-37.7 303,-56.7 321,-56.7 321,-37.7 303,-37.7"/>
<text text-anchor="start" x="311.8862" y="-43.8" font-family="Helvetica,sans-Serif" font-size="11.00" fill="#000000"> &#160;</text>
<polygon fill="#ffffff" stroke="transparent" points="321,-37.7 321,-56.7 348,-56.7 348,-37.7 321,-37.7"/>
<polygon fill="none" stroke="#000000" points="321,-37.7 321,-56.7 348,-56.7 348,-37.7 321,-37.7"/>
<text text-anchor="start" x="329.4053" y="-43.8" font-family="Helvetica,sans-Serif" font-size="11.00" fill="#000000">2 &gt;</text>
</a>
</g>
</g>
<!-- routes&#45;&gt;agency -->
<g id="edge2" class="edge">
<title>routes:w&#45;&gt;agency:e</title>
<path fill="none" stroke="#000000" d="M255.4616,-66.2407C219.0113,-69.1749 205.3416,-84.0463 172,-110.7 148.844,-129.2112 161.1456,-163.7 131.5,-163.7"/>
<polygon fill="#000000" stroke="#000000" points="262.0055,-65.9974 270.1338,-69.2975 266.0028,-65.8487 270,-65.7 270,-65.7 270,-65.7 266.0028,-65.8487 269.8662,-62.1025 262.0055,-65.9974 262.0055,-65.9974"/>
<ellipse fill="none" stroke="#000000" cx="258.8077" cy="-66.1163" rx="3.2" ry="3.2"/>
</g>
</g>
</svg>
