<?xml version="1.0" encoding="UTF-8" standalone="no"?>
<!DOCTYPE svg PUBLIC "-//W3C//DTD SVG 1.1//EN"
 "http://www.w3.org/Graphics/SVG/1.1/DTD/svg11.dtd">
<!-- Generated by graphviz version 2.40.1 (20161225.0304)
 -->
<!-- Title: oneDegreeRelationshipsDiagram Pages: 1 -->
<svg width="454pt" height="334pt"
 viewBox="0.00 0.00 454.00 333.70" xmlns="http://www.w3.org/2000/svg" xmlns:xlink="http://www.w3.org/1999/xlink">
<g id="graph0" class="graph" transform="scale(1 1) rotate(0) translate(4 329.7)">
<title>oneDegreeRelationshipsDiagram</title>
<polygon fill="#ffffff" stroke="transparent" points="-4,4 -4,-329.7 450,-329.7 450,4 -4,4"/>
<text text-anchor="middle" x="72.4936" y="-7.3" font-family="Helvetica,sans-Serif" font-size="11.00" fill="#000000">Generated by SchemaSpy</text>
<!-- agency_jp -->
<g id="node1" class="node">
<title>agency_jp</title>
<g id="a_node1"><a xlink:href="../../tables/agency_jp.html" xlink:title="agency_jp" target="_top">
<polygon fill="#ffffff" stroke="transparent" points="274,-238.7 274,-321.7 438,-321.7 438,-238.7 274,-238.7"/>
<polygon fill="#f5f5f5" stroke="transparent" points="274,-298.2 274,-321.2 438,-321.2 438,-298.2 274,-298.2"/>
<polygon fill="none" stroke="#000000" points="274,-298.2 274,-321.2 438,-321.2 438,-298.2 274,-298.2"/>
<text text-anchor="start" x="279" y="-306.8" font-family="Helvetica,sans-Serif" font-weight="bold" font-size="11.00" fill="#000000">agency_jp</text>
<text text-anchor="start" x="403.0437" y="-306.3" font-family="Helvetica,sans-Serif" font-size="11.00" fill="#000000">[table]</text>
<polygon fill="none" stroke="#000000" points="274,-276.2 274,-298.2 438,-298.2 438,-276.2 274,-276.2"/>
<image xlink:href="../../images/primaryKeys.png" width="11px" height="12px" preserveAspectRatio="xMinYMin meet" x="279" y="-293.2"/>
<text text-anchor="start" x="294" y="-283.3" font-family="Helvetica,sans-Serif" font-size="11.00" fill="#000000">agency_id</text>
<polygon fill="none" stroke="#000000" points="274,-257.2 274,-276.2 438,-276.2 438,-257.2 274,-257.2"/>
<text text-anchor="start" x="277" y="-263.3" font-family="Helvetica,sans-Serif" font-size="11.00" fill="#000000">...</text>
<polygon fill="#ffffff" stroke="transparent" points="274,-238.2 274,-257.2 354,-257.2 354,-238.2 274,-238.2"/>
<polygon fill="none" stroke="#000000" points="274,-238.2 274,-257.2 354,-257.2 354,-238.2 274,-238.2"/>
<text text-anchor="start" x="277" y="-244.3" font-family="Helvetica,sans-Serif" font-size="11.00" fill="#000000">&lt; 1</text>
<polygon fill="#ffffff" stroke="transparent" points="354,-238.2 354,-257.2 396,-257.2 396,-238.2 354,-238.2"/>
<polygon fill="none" stroke="#000000" points="354,-238.2 354,-257.2 396,-257.2 396,-238.2 354,-238.2"/>
<text text-anchor="start" x="386.8862" y="-244.3" font-family="Helvetica,sans-Serif" font-size="11.00" fill="#000000"> &#160;</text>
<polygon fill="#ffffff" stroke="transparent" points="396,-238.2 396,-257.2 438,-257.2 438,-238.2 396,-238.2"/>
<polygon fill="none" stroke="#000000" points="396,-238.2 396,-257.2 438,-257.2 438,-238.2 396,-238.2"/>
<text text-anchor="start" x="428.8862" y="-244.3" font-family="Helvetica,sans-Serif" font-size="11.00" fill="#000000"> &#160;</text>
</a>
</g>
</g>
<!-- agency -->
<g id="node2" class="node">
<title>agency</title>
<g id="a_node2"><a xlink:href="../../tables/agency.html" xlink:title="agency" target="_top">
<polygon fill="#ffffff" stroke="transparent" points="8,-38.2 8,-260.2 225,-260.2 225,-38.2 8,-38.2"/>
<polygon fill="#f5f5f5" stroke="transparent" points="10.5,-235.2 10.5,-258.2 223.5,-258.2 223.5,-235.2 10.5,-235.2"/>
<polygon fill="none" stroke="#000000" points="10.5,-235.2 10.5,-258.2 223.5,-258.2 223.5,-235.2 10.5,-235.2"/>
<text text-anchor="start" x="15.5" y="-243.8" font-family="Helvetica,sans-Serif" font-weight="bold" font-size="11.00" fill="#000000">agency</text>
<text text-anchor="start" x="188.5437" y="-243.3" font-family="Helvetica,sans-Serif" font-size="11.00" fill="#000000">[table]</text>
<polygon fill="none" stroke="#000000" points="10.5,-213.2 10.5,-235.2 133.5,-235.2 133.5,-213.2 10.5,-213.2"/>
<image xlink:href="../../images/primaryKeys.png" width="11px" height="12px" preserveAspectRatio="xMinYMin meet" x="15.5" y="-230.2"/>
<text text-anchor="start" x="30.5" y="-220.3" font-family="Helvetica,sans-Serif" font-size="11.00" fill="#000000">agency_id</text>
<polygon fill="none" stroke="#000000" points="133.5,-213.2 133.5,-235.2 223.5,-235.2 223.5,-213.2 133.5,-213.2"/>
<text text-anchor="start" x="136.5" y="-220.9" font-family="Helvetica,sans-Serif" font-size="11.00" fill="#000000">varchar[64]</text>
<polygon fill="none" stroke="#000000" points="10.5,-191.2 10.5,-213.2 133.5,-213.2 133.5,-191.2 10.5,-191.2"/>
<text text-anchor="start" x="30.5" y="-198.3" font-family="Helvetica,sans-Serif" font-size="11.00" fill="#000000">agency_name</text>
<polygon fill="none" stroke="#000000" points="133.5,-191.2 133.5,-213.2 223.5,-213.2 223.5,-191.2 133.5,-191.2"/>
<text text-anchor="start" x="136.0042" y="-198.9" font-family="Helvetica,sans-Serif" font-size="11.00" fill="#000000">text[2147483647]</text>
<polygon fill="none" stroke="#000000" points="10.5,-169.2 10.5,-191.2 133.5,-191.2 133.5,-169.2 10.5,-169.2"/>
<text text-anchor="start" x="30.5" y="-176.3" font-family="Helvetica,sans-Serif" font-size="11.00" fill="#000000">agency_url</text>
<polygon fill="none" stroke="#000000" points="133.5,-169.2 133.5,-191.2 223.5,-191.2 223.5,-169.2 133.5,-169.2"/>
<text text-anchor="start" x="136.0042" y="-176.9" font-family="Helvetica,sans-Serif" font-size="11.00" fill="#000000">text[2147483647]</text>
<polygon fill="none" stroke="#000000" points="10.5,-147.2 10.5,-169.2 133.5,-169.2 133.5,-147.2 10.5,-147.2"/>
<text text-anchor="start" x="30.5" y="-154.3" font-family="Helvetica,sans-Serif" font-size="11.00" fill="#000000">agency_timezone</text>
<polygon fill="none" stroke="#000000" points="133.5,-147.2 133.5,-169.2 223.5,-169.2 223.5,-147.2 133.5,-147.2"/>
<text text-anchor="start" x="136.5" y="-154.9" font-family="Helvetica,sans-Serif" font-size="11.00" fill="#000000">varchar[32]</text>
<polygon fill="none" stroke="#000000" points="10.5,-125.2 10.5,-147.2 133.5,-147.2 133.5,-125.2 10.5,-125.2"/>
<text text-anchor="start" x="30.5" y="-132.3" font-family="Helvetica,sans-Serif" font-size="11.00" fill="#000000">agency_lang</text>
<polygon fill="none" stroke="#000000" points="133.5,-125.2 133.5,-147.2 223.5,-147.2 223.5,-125.2 133.5,-125.2"/>
<text text-anchor="start" x="136.5" y="-132.9" font-family="Helvetica,sans-Serif" font-size="11.00" fill="#000000">varchar[8]</text>
<polygon fill="none" stroke="#000000" points="10.5,-103.2 10.5,-125.2 133.5,-125.2 133.5,-103.2 10.5,-103.2"/>
<text text-anchor="start" x="30.5" y="-110.3" font-family="Helvetica,sans-Serif" font-size="11.00" fill="#000000">agency_phone</text>
<polygon fill="none" stroke="#000000" points="133.5,-103.2 133.5,-125.2 223.5,-125.2 223.5,-103.2 133.5,-103.2"/>
<text text-anchor="start" x="136.5" y="-110.9" font-family="Helvetica,sans-Serif" font-size="11.00" fill="#000000">varchar[32]</text>
<polygon fill="none" stroke="#000000" points="10.5,-81.2 10.5,-103.2 133.5,-103.2 133.5,-81.2 10.5,-81.2"/>
<text text-anchor="start" x="30.5" y="-88.3" font-family="Helvetica,sans-Serif" font-size="11.00" fill="#000000">agency_fare_url</text>
<polygon fill="none" stroke="#000000" points="133.5,-81.2 133.5,-103.2 223.5,-103.2 223.5,-81.2 133.5,-81.2"/>
<text text-anchor="start" x="136.0042" y="-88.9" font-family="Helvetica,sans-Serif" font-size="11.00" fill="#000000">text[2147483647]</text>
<polygon fill="none" stroke="#000000" points="10.5,-59.2 10.5,-81.2 133.5,-81.2 133.5,-59.2 10.5,-59.2"/>
<text text-anchor="start" x="30.5" y="-66.3" font-family="Helvetica,sans-Serif" font-size="11.00" fill="#000000">agency_email</text>
<polygon fill="none" stroke="#000000" points="133.5,-59.2 133.5,-81.2 223.5,-81.2 223.5,-59.2 133.5,-59.2"/>
<text text-anchor="start" x="136.0042" y="-66.9" font-family="Helvetica,sans-Serif" font-size="11.00" fill="#000000">text[2147483647]</text>
<polygon fill="#ffffff" stroke="transparent" points="10.5,-40.2 10.5,-59.2 76.5,-59.2 76.5,-40.2 10.5,-40.2"/>
<polygon fill="none" stroke="#000000" points="10.5,-40.2 10.5,-59.2 76.5,-59.2 76.5,-40.2 10.5,-40.2"/>
<text text-anchor="start" x="13.5" y="-46.3" font-family="Helvetica,sans-Serif" font-size="11.00" fill="#000000">&lt; 0</text>
<polygon fill="#ffffff" stroke="transparent" points="76.5,-40.2 76.5,-59.2 133.5,-59.2 133.5,-40.2 76.5,-40.2"/>
<polygon fill="none" stroke="#000000" points="76.5,-40.2 76.5,-59.2 133.5,-59.2 133.5,-40.2 76.5,-40.2"/>
<text text-anchor="start" x="124.3862" y="-46.3" font-family="Helvetica,sans-Serif" font-size="11.00" fill="#000000"> &#160;</text>
<polygon fill="#ffffff" stroke="transparent" points="133.5,-40.2 133.5,-59.2 223.5,-59.2 223.5,-40.2 133.5,-40.2"/>
<polygon fill="none" stroke="#000000" points="133.5,-40.2 133.5,-59.2 223.5,-59.2 223.5,-40.2 133.5,-40.2"/>
<text text-anchor="start" x="204.9053" y="-46.3" font-family="Helvetica,sans-Serif" font-size="11.00" fill="#000000">2 &gt;</text>
<polygon fill="none" stroke="#000000" stroke-width="2" points="9,-39.2 9,-259.2 224,-259.2 224,-39.2 9,-39.2"/>
</a>
</g>
</g>
<!-- agency_jp&#45;&gt;agency -->
<g id="edge1" class="edge">
<title>agency_jp:w&#45;&gt;agency:e</title>
<path fill="none" stroke="#000000" d="M263.8388,-284.9578C242.2004,-273.735 255.3201,-224.2 223.5,-224.2"/>
<polygon fill="#000000" stroke="#000000" points="274.0807,-283.1216 272.3568,-290.9336 270.7944,-290.5889 272.5183,-282.7768 274.0807,-283.1216"/>
<polyline fill="none" stroke="#000000" points="274,-287.2 270.094,-286.3381 "/>
<ellipse fill="none" stroke="#000000" cx="266.9691" cy="-285.6485" rx="3.2" ry="3.2"/>
</g>
<!-- routes -->
<g id="node3" class="node">
<title>routes</title>
<g id="a_node3"><a xlink:href="../../tables/routes.html" xlink:title="routes" target="_top">
<polygon fill="#ffffff" stroke="transparent" points="290.5,-112.7 290.5,-217.7 421.5,-217.7 421.5,-112.7 290.5,-112.7"/>
<polygon fill="#f5f5f5" stroke="transparent" points="291,-194.2 291,-217.2 422,-217.2 422,-194.2 291,-194.2"/>
<polygon fill="none" stroke="#000000" points="291,-194.2 291,-217.2 422,-217.2 422,-194.2 291,-194.2"/>
<text text-anchor="start" x="296" y="-202.8" font-family="Helvetica,sans-Serif" font-weight="bold" font-size="11.00" fill="#000000">routes</text>
<text text-anchor="start" x="387.0437" y="-202.3" font-family="Helvetica,sans-Serif" font-size="11.00" fill="#000000">[table]</text>
<polygon fill="none" stroke="#000000" points="291,-172.2 291,-194.2 422,-194.2 422,-172.2 291,-172.2"/>
<image xlink:href="../../images/primaryKeys.png" width="11px" height="12px" preserveAspectRatio="xMinYMin meet" x="296" y="-189.2"/>
<text text-anchor="start" x="311" y="-179.3" font-family="Helvetica,sans-Serif" font-size="11.00" fill="#000000">route_id</text>
<polygon fill="none" stroke="#000000" points="291,-150.2 291,-172.2 422,-172.2 422,-150.2 291,-150.2"/>
<image xlink:href="../../images/foreignKeys.png" width="11px" height="12px" preserveAspectRatio="xMinYMin meet" x="296" y="-167.2"/>
<text text-anchor="start" x="311" y="-157.3" font-family="Helvetica,sans-Serif" font-size="11.00" fill="#000000">agency_id</text>
<polygon fill="none" stroke="#000000" points="291,-131.2 291,-150.2 422,-150.2 422,-131.2 291,-131.2"/>
<text text-anchor="start" x="294" y="-137.3" font-family="Helvetica,sans-Serif" font-size="11.00" fill="#000000">...</text>
<polygon fill="#ffffff" stroke="transparent" points="291,-112.2 291,-131.2 350,-131.2 350,-112.2 291,-112.2"/>
<polygon fill="none" stroke="#000000" points="291,-112.2 291,-131.2 350,-131.2 350,-112.2 291,-112.2"/>
<text text-anchor="start" x="294" y="-118.3" font-family="Helvetica,sans-Serif" font-size="11.00" fill="#000000">&lt; 1</text>
<polygon fill="#ffffff" stroke="transparent" points="350,-112.2 350,-131.2 381,-131.2 381,-112.2 350,-112.2"/>
<polygon fill="none" stroke="#000000" points="350,-112.2 350,-131.2 381,-131.2 381,-112.2 350,-112.2"/>
<text text-anchor="start" x="371.8862" y="-118.3" font-family="Helvetica,sans-Serif" font-size="11.00" fill="#000000"> &#160;</text>
<polygon fill="#ffffff" stroke="transparent" points="381,-112.2 381,-131.2 422,-131.2 422,-112.2 381,-112.2"/>
<polygon fill="none" stroke="#000000" points="381,-112.2 381,-131.2 422,-131.2 422,-112.2 381,-112.2"/>
<text text-anchor="start" x="403.4053" y="-118.3" font-family="Helvetica,sans-Serif" font-size="11.00" fill="#000000">2 &gt;</text>
</a>
</g>
</g>
<!-- routes&#45;&gt;agency -->
<g id="edge2" class="edge">
<title>routes:w&#45;&gt;agency:e</title>
<path fill="none" stroke="#000000" d="M276.6775,-164.5872C252.9624,-177.6729 258.7658,-224.2 223.5,-224.2"/>
<polygon fill="#000000" stroke="#000000" points="283.2147,-163.0412 291.8285,-164.7034 287.1074,-162.1206 291,-161.2 291,-161.2 291,-161.2 287.1074,-162.1206 290.1715,-157.6966 283.2147,-163.0412 283.2147,-163.0412"/>
<ellipse fill="none" stroke="#000000" cx="280.1006" cy="-163.7777" rx="3.2" ry="3.2"/>
</g>
</g>
</svg>
