<?xml version="1.0" encoding="UTF-8" standalone="no"?>
<!DOCTYPE svg PUBLIC "-//W3C//DTD SVG 1.1//EN"
 "http://www.w3.org/Graphics/SVG/1.1/DTD/svg11.dtd">
<!-- Generated by graphviz version 2.40.1 (20161225.0304)
 -->
<!-- Title: oneDegreeRelationshipsDiagram Pages: 1 -->
<svg width="454pt" height="228pt"
 viewBox="0.00 0.00 454.00 228.20" xmlns="http://www.w3.org/2000/svg" xmlns:xlink="http://www.w3.org/1999/xlink">
<g id="graph0" class="graph" transform="scale(1 1) rotate(0) translate(4 224.2)">
<title>oneDegreeRelationshipsDiagram</title>
<polygon fill="#ffffff" stroke="transparent" points="-4,4 -4,-224.2 450,-224.2 450,4 -4,4"/>
<text text-anchor="middle" x="72.4936" y="-7.3" font-family="Helvetica,sans-Serif" font-size="11.00" fill="#000000">Generated by SchemaSpy</text>
<!-- agency_jp -->
<g id="node1" class="node">
<title>agency_jp</title>
<g id="a_node1"><a xlink:href="../../tables/agency_jp.html" xlink:title="agency_jp" target="_top">
<polygon fill="#ffffff" stroke="transparent" points="180,-38.2 180,-216.2 438,-216.2 438,-38.2 180,-38.2"/>
<polygon fill="#f5f5f5" stroke="transparent" points="182,-191.2 182,-214.2 436,-214.2 436,-191.2 182,-191.2"/>
<polygon fill="none" stroke="#000000" points="182,-191.2 182,-214.2 436,-214.2 436,-191.2 182,-191.2"/>
<text text-anchor="start" x="187" y="-199.8" font-family="Helvetica,sans-Serif" font-weight="bold" font-size="11.00" fill="#000000">agency_jp</text>
<text text-anchor="start" x="401.0437" y="-199.3" font-family="Helvetica,sans-Serif" font-size="11.00" fill="#000000">[table]</text>
<polygon fill="none" stroke="#000000" points="182,-169.2 182,-191.2 346,-191.2 346,-169.2 182,-169.2"/>
<image xlink:href="../../images/primaryKeys.png" width="11px" height="12px" preserveAspectRatio="xMinYMin meet" x="187" y="-186.2"/>
<text text-anchor="start" x="202" y="-176.3" font-family="Helvetica,sans-Serif" font-size="11.00" fill="#000000">agency_id</text>
<polygon fill="none" stroke="#000000" points="346,-169.2 346,-191.2 436,-191.2 436,-169.2 346,-169.2"/>
<text text-anchor="start" x="349" y="-176.9" font-family="Helvetica,sans-Serif" font-size="11.00" fill="#000000">varchar[64]</text>
<polygon fill="none" stroke="#000000" points="182,-147.2 182,-169.2 346,-169.2 346,-147.2 182,-147.2"/>
<text text-anchor="start" x="202" y="-154.3" font-family="Helvetica,sans-Serif" font-size="11.00" fill="#000000">agency_official_name</text>
<polygon fill="none" stroke="#000000" points="346,-147.2 346,-169.2 436,-169.2 436,-147.2 346,-147.2"/>
<text text-anchor="start" x="348.5043" y="-154.9" font-family="Helvetica,sans-Serif" font-size="11.00" fill="#000000">text[2147483647]</text>
<polygon fill="none" stroke="#000000" points="182,-125.2 182,-147.2 346,-147.2 346,-125.2 182,-125.2"/>
<text text-anchor="start" x="202" y="-132.3" font-family="Helvetica,sans-Serif" font-size="11.00" fill="#000000">agency_zip_number</text>
<polygon fill="none" stroke="#000000" points="346,-125.2 346,-147.2 436,-147.2 436,-125.2 346,-125.2"/>
<text text-anchor="start" x="349" y="-132.9" font-family="Helvetica,sans-Serif" font-size="11.00" fill="#000000">varchar[7]</text>
<polygon fill="none" stroke="#000000" points="182,-103.2 182,-125.2 346,-125.2 346,-103.2 182,-103.2"/>
<text text-anchor="start" x="202" y="-110.3" font-family="Helvetica,sans-Serif" font-size="11.00" fill="#000000">agency_address</text>
<polygon fill="none" stroke="#000000" points="346,-103.2 346,-125.2 436,-125.2 436,-103.2 346,-103.2"/>
<text text-anchor="start" x="348.5043" y="-110.9" font-family="Helvetica,sans-Serif" font-size="11.00" fill="#000000">text[2147483647]</text>
<polygon fill="none" stroke="#000000" points="182,-81.2 182,-103.2 346,-103.2 346,-81.2 182,-81.2"/>
<text text-anchor="start" x="202" y="-88.3" font-family="Helvetica,sans-Serif" font-size="11.00" fill="#000000">agency_president_pos</text>
<polygon fill="none" stroke="#000000" points="346,-81.2 346,-103.2 436,-103.2 436,-81.2 346,-81.2"/>
<text text-anchor="start" x="348.5043" y="-88.9" font-family="Helvetica,sans-Serif" font-size="11.00" fill="#000000">text[2147483647]</text>
<polygon fill="none" stroke="#000000" points="182,-59.2 182,-81.2 346,-81.2 346,-59.2 182,-59.2"/>
<text text-anchor="start" x="202" y="-66.3" font-family="Helvetica,sans-Serif" font-size="11.00" fill="#000000">agency_president_name</text>
<polygon fill="none" stroke="#000000" points="346,-59.2 346,-81.2 436,-81.2 436,-59.2 346,-59.2"/>
<text text-anchor="start" x="348.5043" y="-66.9" font-family="Helvetica,sans-Serif" font-size="11.00" fill="#000000">text[2147483647]</text>
<polygon fill="#ffffff" stroke="transparent" points="182,-40.2 182,-59.2 268,-59.2 268,-40.2 182,-40.2"/>
<polygon fill="none" stroke="#000000" points="182,-40.2 182,-59.2 268,-59.2 268,-40.2 182,-40.2"/>
<text text-anchor="start" x="185" y="-46.3" font-family="Helvetica,sans-Serif" font-size="11.00" fill="#000000">&lt; 1</text>
<polygon fill="#ffffff" stroke="transparent" points="268,-40.2 268,-59.2 346,-59.2 346,-40.2 268,-40.2"/>
<polygon fill="none" stroke="#000000" points="268,-40.2 268,-59.2 346,-59.2 346,-40.2 268,-40.2"/>
<text text-anchor="start" x="336.8862" y="-46.3" font-family="Helvetica,sans-Serif" font-size="11.00" fill="#000000"> &#160;</text>
<polygon fill="#ffffff" stroke="transparent" points="346,-40.2 346,-59.2 436,-59.2 436,-40.2 346,-40.2"/>
<polygon fill="none" stroke="#000000" points="346,-40.2 346,-59.2 436,-59.2 436,-40.2 346,-40.2"/>
<text text-anchor="start" x="417.4053" y="-46.3" font-family="Helvetica,sans-Serif" font-size="11.00" fill="#000000">0 &gt;</text>
<polygon fill="none" stroke="#000000" stroke-width="2" points="181,-39.2 181,-215.2 437,-215.2 437,-39.2 181,-39.2"/>
</a>
</g>
</g>
<!-- agency -->
<g id="node2" class="node">
<title>agency</title>
<g id="a_node2"><a xlink:href="../../tables/agency.html" xlink:title="agency" target="_top">
<polygon fill="#ffffff" stroke="transparent" points="8,-131.7 8,-214.7 131,-214.7 131,-131.7 8,-131.7"/>
<polygon fill="#f5f5f5" stroke="transparent" points="8.5,-191.2 8.5,-214.2 131.5,-214.2 131.5,-191.2 8.5,-191.2"/>
<polygon fill="none" stroke="#000000" points="8.5,-191.2 8.5,-214.2 131.5,-214.2 131.5,-191.2 8.5,-191.2"/>
<text text-anchor="start" x="13.5" y="-199.8" font-family="Helvetica,sans-Serif" font-weight="bold" font-size="11.00" fill="#000000">agency</text>
<text text-anchor="start" x="96.5437" y="-199.3" font-family="Helvetica,sans-Serif" font-size="11.00" fill="#000000">[table]</text>
<polygon fill="none" stroke="#000000" points="8.5,-169.2 8.5,-191.2 131.5,-191.2 131.5,-169.2 8.5,-169.2"/>
<image xlink:href="../../images/primaryKeys.png" width="11px" height="12px" preserveAspectRatio="xMinYMin meet" x="13.5" y="-186.2"/>
<text text-anchor="start" x="28.5" y="-176.3" font-family="Helvetica,sans-Serif" font-size="11.00" fill="#000000">agency_id</text>
<polygon fill="none" stroke="#000000" points="8.5,-150.2 8.5,-169.2 131.5,-169.2 131.5,-150.2 8.5,-150.2"/>
<text text-anchor="start" x="11.5" y="-156.3" font-family="Helvetica,sans-Serif" font-size="11.00" fill="#000000">...</text>
<polygon fill="#ffffff" stroke="transparent" points="8.5,-131.2 8.5,-150.2 59.5,-150.2 59.5,-131.2 8.5,-131.2"/>
<polygon fill="none" stroke="#000000" points="8.5,-131.2 8.5,-150.2 59.5,-150.2 59.5,-131.2 8.5,-131.2"/>
<text text-anchor="start" x="11.5" y="-137.3" font-family="Helvetica,sans-Serif" font-size="11.00" fill="#000000"> &#160;</text>
<polygon fill="#ffffff" stroke="transparent" points="59.5,-131.2 59.5,-150.2 90.5,-150.2 90.5,-131.2 59.5,-131.2"/>
<polygon fill="none" stroke="#000000" points="59.5,-131.2 59.5,-150.2 90.5,-150.2 90.5,-131.2 59.5,-131.2"/>
<text text-anchor="start" x="81.3862" y="-137.3" font-family="Helvetica,sans-Serif" font-size="11.00" fill="#000000"> &#160;</text>
<polygon fill="#ffffff" stroke="transparent" points="90.5,-131.2 90.5,-150.2 131.5,-150.2 131.5,-131.2 90.5,-131.2"/>
<polygon fill="none" stroke="#000000" points="90.5,-131.2 90.5,-150.2 131.5,-150.2 131.5,-131.2 90.5,-131.2"/>
<text text-anchor="start" x="112.9053" y="-137.3" font-family="Helvetica,sans-Serif" font-size="11.00" fill="#000000">2 &gt;</text>
</a>
</g>
</g>
<!-- agency_jp&#45;&gt;agency -->
<g id="edge1" class="edge">
<title>agency_jp:w&#45;&gt;agency:e</title>
<path fill="none" stroke="#000000" d="M171.3362,-180.2C156.9956,-180.2 149.9115,-180.2 131.5,-180.2"/>
<polygon fill="#000000" stroke="#000000" points="181.2,-176.2 181.2,-184.2 179.6,-184.2 179.6,-176.2 181.2,-176.2"/>
<polyline fill="none" stroke="#000000" points="182,-180.2 178,-180.2 "/>
<ellipse fill="none" stroke="#000000" cx="174.8" cy="-180.2001" rx="3.2" ry="3.2"/>
</g>
</g>
</svg>
