<?xml version="1.0" encoding="UTF-8" standalone="no"?>
<!DOCTYPE svg PUBLIC "-//W3C//DTD SVG 1.1//EN"
 "http://www.w3.org/Graphics/SVG/1.1/DTD/svg11.dtd">
<!-- Generated by graphviz version 2.40.1 (20161225.0304)
 -->
<!-- Title: twoDegreesRelationshipsDiagram Pages: 1 -->
<svg width="536pt" height="645pt"
 viewBox="0.00 0.00 536.00 645.20" xmlns="http://www.w3.org/2000/svg" xmlns:xlink="http://www.w3.org/1999/xlink">
<g id="graph0" class="graph" transform="scale(1 1) rotate(0) translate(4 641.2)">
<title>twoDegreesRelationshipsDiagram</title>
<polygon fill="#ffffff" stroke="transparent" points="-4,4 -4,-641.2 532,-641.2 532,4 -4,4"/>
<text text-anchor="middle" x="72.4936" y="-7.3" font-family="Helvetica,sans-Serif" font-size="11.00" fill="#000000">Generated by SchemaSpy</text>
<!-- frequencies -->
<g id="node1" class="node">
<title>frequencies</title>
<g id="a_node1"><a xlink:href="../../tables/frequencies.html" xlink:title="frequencies" target="_top">
<polygon fill="#ffffff" stroke="transparent" points="411,-309.2 411,-370.2 520,-370.2 520,-309.2 411,-309.2"/>
<polygon fill="#f5f5f5" stroke="transparent" points="411.5,-346.7 411.5,-369.7 520.5,-369.7 520.5,-346.7 411.5,-346.7"/>
<polygon fill="none" stroke="#000000" points="411.5,-346.7 411.5,-369.7 520.5,-369.7 520.5,-346.7 411.5,-346.7"/>
<text text-anchor="start" x="416.5" y="-355.3" font-family="Helvetica,sans-Serif" font-weight="bold" font-size="11.00" fill="#000000">frequencies</text>
<text text-anchor="start" x="486.0219" y="-354.8" font-family="Helvetica,sans-Serif" font-size="11.00" fill="#000000">[table]</text>
<polygon fill="none" stroke="#000000" points="411.5,-327.7 411.5,-346.7 520.5,-346.7 520.5,-327.7 411.5,-327.7"/>
<text text-anchor="start" x="414.5" y="-333.8" font-family="Helvetica,sans-Serif" font-size="11.00" fill="#000000">...</text>
<polygon fill="#ffffff" stroke="transparent" points="411.5,-308.7 411.5,-327.7 464.5,-327.7 464.5,-308.7 411.5,-308.7"/>
<polygon fill="none" stroke="#000000" points="411.5,-308.7 411.5,-327.7 464.5,-327.7 464.5,-308.7 411.5,-308.7"/>
<text text-anchor="start" x="414.5" y="-314.8" font-family="Helvetica,sans-Serif" font-size="11.00" fill="#000000">&lt; 1</text>
<polygon fill="#ffffff" stroke="transparent" points="464.5,-308.7 464.5,-327.7 492.5,-327.7 492.5,-308.7 464.5,-308.7"/>
<polygon fill="none" stroke="#000000" points="464.5,-308.7 464.5,-327.7 492.5,-327.7 492.5,-308.7 464.5,-308.7"/>
<text text-anchor="start" x="483.3862" y="-314.8" font-family="Helvetica,sans-Serif" font-size="11.00" fill="#000000"> &#160;</text>
<polygon fill="#ffffff" stroke="transparent" points="492.5,-308.7 492.5,-327.7 520.5,-327.7 520.5,-308.7 492.5,-308.7"/>
<polygon fill="none" stroke="#000000" points="492.5,-308.7 492.5,-327.7 520.5,-327.7 520.5,-308.7 492.5,-308.7"/>
<text text-anchor="start" x="511.3862" y="-314.8" font-family="Helvetica,sans-Serif" font-size="11.00" fill="#000000"> &#160;</text>
</a>
</g>
</g>
<!-- trips -->
<g id="node2" class="node">
<title>trips</title>
<g id="a_node2"><a xlink:href="../../tables/trips.html" xlink:title="trips" target="_top">
<polygon fill="#ffffff" stroke="transparent" points="210,-137.2 210,-330.2 362,-330.2 362,-137.2 210,-137.2"/>
<polygon fill="#f5f5f5" stroke="transparent" points="210,-306.7 210,-329.7 362,-329.7 362,-306.7 210,-306.7"/>
<polygon fill="none" stroke="#000000" points="210,-306.7 210,-329.7 362,-329.7 362,-306.7 210,-306.7"/>
<text text-anchor="start" x="215" y="-315.3" font-family="Helvetica,sans-Serif" font-weight="bold" font-size="11.00" fill="#000000">trips</text>
<text text-anchor="start" x="327.0437" y="-314.8" font-family="Helvetica,sans-Serif" font-size="11.00" fill="#000000">[table]</text>
<polygon fill="none" stroke="#000000" points="210,-284.7 210,-306.7 362,-306.7 362,-284.7 210,-284.7"/>
<image xlink:href="../../images/primaryKeys.png" width="11px" height="12px" preserveAspectRatio="xMinYMin meet" x="215" y="-301.7"/>
<text text-anchor="start" x="230" y="-291.8" font-family="Helvetica,sans-Serif" font-size="11.00" fill="#000000">trip_id</text>
<polygon fill="none" stroke="#000000" points="210,-262.7 210,-284.7 362,-284.7 362,-262.7 210,-262.7"/>
<image xlink:href="../../images/foreignKeys.png" width="11px" height="12px" preserveAspectRatio="xMinYMin meet" x="215" y="-279.7"/>
<text text-anchor="start" x="230" y="-269.8" font-family="Helvetica,sans-Serif" font-size="11.00" fill="#000000">route_id</text>
<polygon fill="none" stroke="#000000" points="210,-240.7 210,-262.7 362,-262.7 362,-240.7 210,-240.7"/>
<image xlink:href="../../images/foreignKeys.png" width="11px" height="12px" preserveAspectRatio="xMinYMin meet" x="215" y="-257.7"/>
<text text-anchor="start" x="230" y="-247.8" font-family="Helvetica,sans-Serif" font-size="11.00" fill="#000000">service_id</text>
<polygon fill="none" stroke="#000000" points="210,-218.7 210,-240.7 362,-240.7 362,-218.7 210,-218.7"/>
<image xlink:href="../../images/foreignKeys.png" width="11px" height="12px" preserveAspectRatio="xMinYMin meet" x="215" y="-235.7"/>
<text text-anchor="start" x="230" y="-225.8" font-family="Helvetica,sans-Serif" font-size="11.00" fill="#000000">shape_id</text>
<polygon fill="none" stroke="#000000" points="210,-196.7 210,-218.7 362,-218.7 362,-196.7 210,-196.7"/>
<image xlink:href="../../images/foreignKeys.png" width="11px" height="12px" preserveAspectRatio="xMinYMin meet" x="215" y="-213.7"/>
<text text-anchor="start" x="230" y="-203.8" font-family="Helvetica,sans-Serif" font-size="11.00" fill="#000000">jp_office_id</text>
<polygon fill="none" stroke="#000000" points="210,-174.7 210,-196.7 362,-196.7 362,-174.7 210,-174.7"/>
<image xlink:href="../../images/foreignKeys.png" width="11px" height="12px" preserveAspectRatio="xMinYMin meet" x="215" y="-191.7"/>
<text text-anchor="start" x="230" y="-181.8" font-family="Helvetica,sans-Serif" font-size="11.00" fill="#000000">jp_pattern_id</text>
<polygon fill="none" stroke="#000000" points="210,-155.7 210,-174.7 362,-174.7 362,-155.7 210,-155.7"/>
<text text-anchor="start" x="213" y="-161.8" font-family="Helvetica,sans-Serif" font-size="11.00" fill="#000000">...</text>
<polygon fill="#ffffff" stroke="transparent" points="210,-136.7 210,-155.7 280,-155.7 280,-136.7 210,-136.7"/>
<polygon fill="none" stroke="#000000" points="210,-136.7 210,-155.7 280,-155.7 280,-136.7 210,-136.7"/>
<text text-anchor="start" x="213" y="-142.8" font-family="Helvetica,sans-Serif" font-size="11.00" fill="#000000">&lt; 5</text>
<polygon fill="#ffffff" stroke="transparent" points="280,-136.7 280,-155.7 316,-155.7 316,-136.7 280,-136.7"/>
<polygon fill="none" stroke="#000000" points="280,-136.7 280,-155.7 316,-155.7 316,-136.7 280,-136.7"/>
<text text-anchor="start" x="306.8862" y="-142.8" font-family="Helvetica,sans-Serif" font-size="11.00" fill="#000000"> &#160;</text>
<polygon fill="#ffffff" stroke="transparent" points="316,-136.7 316,-155.7 362,-155.7 362,-136.7 316,-136.7"/>
<polygon fill="none" stroke="#000000" points="316,-136.7 316,-155.7 362,-155.7 362,-136.7 316,-136.7"/>
<text text-anchor="start" x="343.4053" y="-142.8" font-family="Helvetica,sans-Serif" font-size="11.00" fill="#000000">2 &gt;</text>
</a>
</g>
</g>
<!-- frequencies&#45;&gt;trips -->
<g id="edge1" class="edge">
<title>frequencies:w&#45;&gt;trips:e</title>
<path fill="none" stroke="#000000" d="M397.5753,-331.9968C384.543,-321.2274 384.5408,-295.7 362,-295.7"/>
<polygon fill="#000000" stroke="#000000" points="403.9207,-334.14 410.348,-340.1107 407.7103,-335.42 411.5,-336.7 411.5,-336.7 411.5,-336.7 407.7103,-335.42 412.652,-333.2893 403.9207,-334.14 403.9207,-334.14"/>
<ellipse fill="none" stroke="#000000" cx="400.8889" cy="-333.1159" rx="3.2" ry="3.2"/>
</g>
<!-- office_jp -->
<g id="node4" class="node">
<title>office_jp</title>
<g id="a_node4"><a xlink:href="../../tables/office_jp.html" xlink:title="office_jp" target="_top">
<polygon fill="#ffffff" stroke="transparent" points="40.5,-120.2 40.5,-181.2 128.5,-181.2 128.5,-120.2 40.5,-120.2"/>
<polygon fill="#f5f5f5" stroke="transparent" points="40.5,-157.7 40.5,-180.7 128.5,-180.7 128.5,-157.7 40.5,-157.7"/>
<polygon fill="none" stroke="#000000" points="40.5,-157.7 40.5,-180.7 128.5,-180.7 128.5,-157.7 40.5,-157.7"/>
<text text-anchor="start" x="45.5" y="-166.3" font-family="Helvetica,sans-Serif" font-weight="bold" font-size="11.00" fill="#000000">office_jp</text>
<text text-anchor="start" x="94.0219" y="-165.8" font-family="Helvetica,sans-Serif" font-size="11.00" fill="#000000">[table]</text>
<polygon fill="none" stroke="#000000" points="40.5,-138.7 40.5,-157.7 128.5,-157.7 128.5,-138.7 40.5,-138.7"/>
<text text-anchor="start" x="43.5" y="-144.8" font-family="Helvetica,sans-Serif" font-size="11.00" fill="#000000">...</text>
<polygon fill="#ffffff" stroke="transparent" points="40.5,-119.7 40.5,-138.7 73.5,-138.7 73.5,-119.7 40.5,-119.7"/>
<polygon fill="none" stroke="#000000" points="40.5,-119.7 40.5,-138.7 73.5,-138.7 73.5,-119.7 40.5,-119.7"/>
<text text-anchor="start" x="43.5" y="-125.8" font-family="Helvetica,sans-Serif" font-size="11.00" fill="#000000"> &#160;</text>
<polygon fill="#ffffff" stroke="transparent" points="73.5,-119.7 73.5,-138.7 96.5,-138.7 96.5,-119.7 73.5,-119.7"/>
<polygon fill="none" stroke="#000000" points="73.5,-119.7 73.5,-138.7 96.5,-138.7 96.5,-119.7 73.5,-119.7"/>
<text text-anchor="start" x="87.3862" y="-125.8" font-family="Helvetica,sans-Serif" font-size="11.00" fill="#000000"> &#160;</text>
<polygon fill="#ffffff" stroke="transparent" points="96.5,-119.7 96.5,-138.7 128.5,-138.7 128.5,-119.7 96.5,-119.7"/>
<polygon fill="none" stroke="#000000" points="96.5,-119.7 96.5,-138.7 128.5,-138.7 128.5,-119.7 96.5,-119.7"/>
<text text-anchor="start" x="109.9053" y="-125.8" font-family="Helvetica,sans-Serif" font-size="11.00" fill="#000000">1 &gt;</text>
</a>
</g>
</g>
<!-- trips&#45;&gt;office_jp -->
<g id="edge3" class="edge">
<title>trips:w&#45;&gt;office_jp:e</title>
<path fill="none" stroke="#000000" d="M195.4289,-205.1219C166.3002,-193.6375 167.8571,-147.7 128.5,-147.7"/>
<polygon fill="#000000" stroke="#000000" points="202.1224,-206.3061 209.3728,-211.2449 206.0612,-207.0031 210,-207.7 210,-207.7 210,-207.7 206.0612,-207.0031 210.6272,-204.1551 202.1224,-206.3061 202.1224,-206.3061"/>
<ellipse fill="none" stroke="#000000" cx="198.9713" cy="-205.7486" rx="3.2" ry="3.2"/>
</g>
<!-- pattern_jp -->
<g id="node5" class="node">
<title>pattern_jp</title>
<g id="a_node5"><a xlink:href="../../tables/pattern_jp.html" xlink:title="pattern_jp" target="_top">
<polygon fill="#ffffff" stroke="transparent" points="34.5,-38.2 34.5,-99.2 134.5,-99.2 134.5,-38.2 34.5,-38.2"/>
<polygon fill="#f5f5f5" stroke="transparent" points="34.5,-75.7 34.5,-98.7 134.5,-98.7 134.5,-75.7 34.5,-75.7"/>
<polygon fill="none" stroke="#000000" points="34.5,-75.7 34.5,-98.7 134.5,-98.7 134.5,-75.7 34.5,-75.7"/>
<text text-anchor="start" x="39.5" y="-84.3" font-family="Helvetica,sans-Serif" font-weight="bold" font-size="11.00" fill="#000000">pattern_jp</text>
<text text-anchor="start" x="100.0219" y="-83.8" font-family="Helvetica,sans-Serif" font-size="11.00" fill="#000000">[table]</text>
<polygon fill="none" stroke="#000000" points="34.5,-56.7 34.5,-75.7 134.5,-75.7 134.5,-56.7 34.5,-56.7"/>
<text text-anchor="start" x="37.5" y="-62.8" font-family="Helvetica,sans-Serif" font-size="11.00" fill="#000000">...</text>
<polygon fill="#ffffff" stroke="transparent" points="34.5,-37.7 34.5,-56.7 73.5,-56.7 73.5,-37.7 34.5,-37.7"/>
<polygon fill="none" stroke="#000000" points="34.5,-37.7 34.5,-56.7 73.5,-56.7 73.5,-37.7 34.5,-37.7"/>
<text text-anchor="start" x="37.5" y="-43.8" font-family="Helvetica,sans-Serif" font-size="11.00" fill="#000000"> &#160;</text>
<polygon fill="#ffffff" stroke="transparent" points="73.5,-37.7 73.5,-56.7 99.5,-56.7 99.5,-37.7 73.5,-37.7"/>
<polygon fill="none" stroke="#000000" points="73.5,-37.7 73.5,-56.7 99.5,-56.7 99.5,-37.7 73.5,-37.7"/>
<text text-anchor="start" x="90.3862" y="-43.8" font-family="Helvetica,sans-Serif" font-size="11.00" fill="#000000"> &#160;</text>
<polygon fill="#ffffff" stroke="transparent" points="99.5,-37.7 99.5,-56.7 134.5,-56.7 134.5,-37.7 99.5,-37.7"/>
<polygon fill="none" stroke="#000000" points="99.5,-37.7 99.5,-56.7 134.5,-56.7 134.5,-37.7 99.5,-37.7"/>
<text text-anchor="start" x="115.9053" y="-43.8" font-family="Helvetica,sans-Serif" font-size="11.00" fill="#000000">1 &gt;</text>
</a>
</g>
</g>
<!-- trips&#45;&gt;pattern_jp -->
<g id="edge4" class="edge">
<title>trips:w&#45;&gt;pattern_jp:e</title>
<path fill="none" stroke="#000000" d="M195.6011,-182.9682C155.1506,-165.1061 191.8501,-65.7 134.5,-65.7"/>
<polygon fill="#000000" stroke="#000000" points="202.1402,-184.2088 209.3289,-189.2369 206.0701,-184.9544 210,-185.7 210,-185.7 210,-185.7 206.0701,-184.9544 210.6711,-182.1631 202.1402,-184.2088 202.1402,-184.2088"/>
<ellipse fill="none" stroke="#000000" cx="198.9963" cy="-183.6123" rx="3.2" ry="3.2"/>
</g>
<!-- routes -->
<g id="node6" class="node">
<title>routes</title>
<g id="a_node6"><a xlink:href="../../tables/routes.html" xlink:title="routes" target="_top">
<polygon fill="#ffffff" stroke="transparent" points="45.5,-572.2 45.5,-633.2 123.5,-633.2 123.5,-572.2 45.5,-572.2"/>
<polygon fill="#f5f5f5" stroke="transparent" points="45.5,-609.7 45.5,-632.7 123.5,-632.7 123.5,-609.7 45.5,-609.7"/>
<polygon fill="none" stroke="#000000" points="45.5,-609.7 45.5,-632.7 123.5,-632.7 123.5,-609.7 45.5,-609.7"/>
<text text-anchor="start" x="50.5" y="-618.3" font-family="Helvetica,sans-Serif" font-weight="bold" font-size="11.00" fill="#000000">routes</text>
<text text-anchor="start" x="89.0219" y="-617.8" font-family="Helvetica,sans-Serif" font-size="11.00" fill="#000000">[table]</text>
<polygon fill="none" stroke="#000000" points="45.5,-590.7 45.5,-609.7 123.5,-609.7 123.5,-590.7 45.5,-590.7"/>
<text text-anchor="start" x="48.5" y="-596.8" font-family="Helvetica,sans-Serif" font-size="11.00" fill="#000000">...</text>
<polygon fill="#ffffff" stroke="transparent" points="45.5,-571.7 45.5,-590.7 78.5,-590.7 78.5,-571.7 45.5,-571.7"/>
<polygon fill="none" stroke="#000000" points="45.5,-571.7 45.5,-590.7 78.5,-590.7 78.5,-571.7 45.5,-571.7"/>
<text text-anchor="start" x="48.5" y="-577.8" font-family="Helvetica,sans-Serif" font-size="11.00" fill="#000000">&lt; 1</text>
<polygon fill="#ffffff" stroke="transparent" points="78.5,-571.7 78.5,-590.7 96.5,-590.7 96.5,-571.7 78.5,-571.7"/>
<polygon fill="none" stroke="#000000" points="78.5,-571.7 78.5,-590.7 96.5,-590.7 96.5,-571.7 78.5,-571.7"/>
<text text-anchor="start" x="87.3862" y="-577.8" font-family="Helvetica,sans-Serif" font-size="11.00" fill="#000000"> &#160;</text>
<polygon fill="#ffffff" stroke="transparent" points="96.5,-571.7 96.5,-590.7 123.5,-590.7 123.5,-571.7 96.5,-571.7"/>
<polygon fill="none" stroke="#000000" points="96.5,-571.7 96.5,-590.7 123.5,-590.7 123.5,-571.7 96.5,-571.7"/>
<text text-anchor="start" x="104.9053" y="-577.8" font-family="Helvetica,sans-Serif" font-size="11.00" fill="#000000">2 &gt;</text>
</a>
</g>
</g>
<!-- trips&#45;&gt;routes -->
<g id="edge5" class="edge">
<title>trips:w&#45;&gt;routes:e</title>
<path fill="none" stroke="#000000" d="M196.1241,-278.3582C153.9996,-311.3542 197.8146,-509.9674 169,-561.7 156.1795,-584.7175 149.8472,-599.7 123.5,-599.7"/>
<polygon fill="#000000" stroke="#000000" points="202.4159,-276.2461 211.1457,-277.1128 206.208,-274.973 210,-273.7 210,-273.7 210,-273.7 206.208,-274.973 208.8543,-270.2872 202.4159,-276.2461 202.4159,-276.2461"/>
<ellipse fill="none" stroke="#000000" cx="199.3823" cy="-277.2645" rx="3.2" ry="3.2"/>
</g>
<!-- calendar -->
<g id="node7" class="node">
<title>calendar</title>
<g id="a_node7"><a xlink:href="../../tables/calendar.html" xlink:title="calendar" target="_top">
<polygon fill="#ffffff" stroke="transparent" points="8,-284.7 8,-550.7 161,-550.7 161,-284.7 8,-284.7"/>
<polygon fill="#f5f5f5" stroke="transparent" points="10.5,-525.7 10.5,-548.7 159.5,-548.7 159.5,-525.7 10.5,-525.7"/>
<polygon fill="none" stroke="#000000" points="10.5,-525.7 10.5,-548.7 159.5,-548.7 159.5,-525.7 10.5,-525.7"/>
<text text-anchor="start" x="15.5" y="-534.3" font-family="Helvetica,sans-Serif" font-weight="bold" font-size="11.00" fill="#000000">calendar</text>
<text text-anchor="start" x="124.5437" y="-533.8" font-family="Helvetica,sans-Serif" font-size="11.00" fill="#000000">[table]</text>
<polygon fill="none" stroke="#000000" points="10.5,-503.7 10.5,-525.7 98.5,-525.7 98.5,-503.7 10.5,-503.7"/>
<image xlink:href="../../images/primaryKeys.png" width="11px" height="12px" preserveAspectRatio="xMinYMin meet" x="15.5" y="-520.7"/>
<text text-anchor="start" x="30.5" y="-510.8" font-family="Helvetica,sans-Serif" font-size="11.00" fill="#000000">service_id</text>
<polygon fill="none" stroke="#000000" points="98.5,-503.7 98.5,-525.7 159.5,-525.7 159.5,-503.7 98.5,-503.7"/>
<text text-anchor="start" x="101.494" y="-511.4" font-family="Helvetica,sans-Serif" font-size="11.00" fill="#000000">varchar[64]</text>
<polygon fill="none" stroke="#000000" points="10.5,-481.7 10.5,-503.7 98.5,-503.7 98.5,-481.7 10.5,-481.7"/>
<text text-anchor="start" x="30.5" y="-488.8" font-family="Helvetica,sans-Serif" font-size="11.00" fill="#000000">monday</text>
<polygon fill="none" stroke="#000000" points="98.5,-481.7 98.5,-503.7 159.5,-503.7 159.5,-481.7 98.5,-481.7"/>
<text text-anchor="start" x="101.5" y="-489.4" font-family="Helvetica,sans-Serif" font-size="11.00" fill="#000000">int2[5]</text>
<polygon fill="none" stroke="#000000" points="10.5,-459.7 10.5,-481.7 98.5,-481.7 98.5,-459.7 10.5,-459.7"/>
<text text-anchor="start" x="30.5" y="-466.8" font-family="Helvetica,sans-Serif" font-size="11.00" fill="#000000">tuesday</text>
<polygon fill="none" stroke="#000000" points="98.5,-459.7 98.5,-481.7 159.5,-481.7 159.5,-459.7 98.5,-459.7"/>
<text text-anchor="start" x="101.5" y="-467.4" font-family="Helvetica,sans-Serif" font-size="11.00" fill="#000000">int2[5]</text>
<polygon fill="none" stroke="#000000" points="10.5,-437.7 10.5,-459.7 98.5,-459.7 98.5,-437.7 10.5,-437.7"/>
<text text-anchor="start" x="30.5" y="-444.8" font-family="Helvetica,sans-Serif" font-size="11.00" fill="#000000">wednesday</text>
<polygon fill="none" stroke="#000000" points="98.5,-437.7 98.5,-459.7 159.5,-459.7 159.5,-437.7 98.5,-437.7"/>
<text text-anchor="start" x="101.5" y="-445.4" font-family="Helvetica,sans-Serif" font-size="11.00" fill="#000000">int2[5]</text>
<polygon fill="none" stroke="#000000" points="10.5,-415.7 10.5,-437.7 98.5,-437.7 98.5,-415.7 10.5,-415.7"/>
<text text-anchor="start" x="30.5" y="-422.8" font-family="Helvetica,sans-Serif" font-size="11.00" fill="#000000">thursday</text>
<polygon fill="none" stroke="#000000" points="98.5,-415.7 98.5,-437.7 159.5,-437.7 159.5,-415.7 98.5,-415.7"/>
<text text-anchor="start" x="101.5" y="-423.4" font-family="Helvetica,sans-Serif" font-size="11.00" fill="#000000">int2[5]</text>
<polygon fill="none" stroke="#000000" points="10.5,-393.7 10.5,-415.7 98.5,-415.7 98.5,-393.7 10.5,-393.7"/>
<text text-anchor="start" x="30.5" y="-400.8" font-family="Helvetica,sans-Serif" font-size="11.00" fill="#000000">friday</text>
<polygon fill="none" stroke="#000000" points="98.5,-393.7 98.5,-415.7 159.5,-415.7 159.5,-393.7 98.5,-393.7"/>
<text text-anchor="start" x="101.5" y="-401.4" font-family="Helvetica,sans-Serif" font-size="11.00" fill="#000000">int2[5]</text>
<polygon fill="none" stroke="#000000" points="10.5,-371.7 10.5,-393.7 98.5,-393.7 98.5,-371.7 10.5,-371.7"/>
<text text-anchor="start" x="30.5" y="-378.8" font-family="Helvetica,sans-Serif" font-size="11.00" fill="#000000">saturday</text>
<polygon fill="none" stroke="#000000" points="98.5,-371.7 98.5,-393.7 159.5,-393.7 159.5,-371.7 98.5,-371.7"/>
<text text-anchor="start" x="101.5" y="-379.4" font-family="Helvetica,sans-Serif" font-size="11.00" fill="#000000">int2[5]</text>
<polygon fill="none" stroke="#000000" points="10.5,-349.7 10.5,-371.7 98.5,-371.7 98.5,-349.7 10.5,-349.7"/>
<text text-anchor="start" x="30.5" y="-356.8" font-family="Helvetica,sans-Serif" font-size="11.00" fill="#000000">sunday</text>
<polygon fill="none" stroke="#000000" points="98.5,-349.7 98.5,-371.7 159.5,-371.7 159.5,-349.7 98.5,-349.7"/>
<text text-anchor="start" x="101.5" y="-357.4" font-family="Helvetica,sans-Serif" font-size="11.00" fill="#000000">int2[5]</text>
<polygon fill="none" stroke="#000000" points="10.5,-327.7 10.5,-349.7 98.5,-349.7 98.5,-327.7 10.5,-327.7"/>
<text text-anchor="start" x="30.5" y="-334.8" font-family="Helvetica,sans-Serif" font-size="11.00" fill="#000000">start_date</text>
<polygon fill="none" stroke="#000000" points="98.5,-327.7 98.5,-349.7 159.5,-349.7 159.5,-327.7 98.5,-327.7"/>
<text text-anchor="start" x="101.5" y="-335.4" font-family="Helvetica,sans-Serif" font-size="11.00" fill="#000000">varchar[8]</text>
<polygon fill="none" stroke="#000000" points="10.5,-305.7 10.5,-327.7 98.5,-327.7 98.5,-305.7 10.5,-305.7"/>
<text text-anchor="start" x="30.5" y="-312.8" font-family="Helvetica,sans-Serif" font-size="11.00" fill="#000000">end_date</text>
<polygon fill="none" stroke="#000000" points="98.5,-305.7 98.5,-327.7 159.5,-327.7 159.5,-305.7 98.5,-305.7"/>
<text text-anchor="start" x="101.5" y="-313.4" font-family="Helvetica,sans-Serif" font-size="11.00" fill="#000000">varchar[8]</text>
<polygon fill="#ffffff" stroke="transparent" points="10.5,-286.7 10.5,-305.7 58.5,-305.7 58.5,-286.7 10.5,-286.7"/>
<polygon fill="none" stroke="#000000" points="10.5,-286.7 10.5,-305.7 58.5,-305.7 58.5,-286.7 10.5,-286.7"/>
<text text-anchor="start" x="13.5" y="-292.8" font-family="Helvetica,sans-Serif" font-size="11.00" fill="#000000">&lt; 0</text>
<polygon fill="#ffffff" stroke="transparent" points="58.5,-286.7 58.5,-305.7 98.5,-305.7 98.5,-286.7 58.5,-286.7"/>
<polygon fill="none" stroke="#000000" points="58.5,-286.7 58.5,-305.7 98.5,-305.7 98.5,-286.7 58.5,-286.7"/>
<text text-anchor="start" x="89.3862" y="-292.8" font-family="Helvetica,sans-Serif" font-size="11.00" fill="#000000"> &#160;</text>
<polygon fill="#ffffff" stroke="transparent" points="98.5,-286.7 98.5,-305.7 159.5,-305.7 159.5,-286.7 98.5,-286.7"/>
<polygon fill="none" stroke="#000000" points="98.5,-286.7 98.5,-305.7 159.5,-305.7 159.5,-286.7 98.5,-286.7"/>
<text text-anchor="start" x="140.9053" y="-292.8" font-family="Helvetica,sans-Serif" font-size="11.00" fill="#000000">1 &gt;</text>
<polygon fill="none" stroke="#000000" stroke-width="2" points="9,-285.7 9,-549.7 160,-549.7 160,-285.7 9,-285.7"/>
</a>
</g>
</g>
<!-- trips&#45;&gt;calendar -->
<g id="edge6" class="edge">
<title>trips:w&#45;&gt;calendar:e</title>
<path fill="none" stroke="#000000" d="M195.4892,-253.3113C107.5463,-275.2885 273.0612,-514.7 159.5,-514.7"/>
<polygon fill="#000000" stroke="#000000" points="202.0489,-252.583 210.3973,-255.278 206.0244,-252.1415 210,-251.7 210,-251.7 210,-251.7 206.0244,-252.1415 209.6027,-248.122 202.0489,-252.583 202.0489,-252.583"/>
<ellipse fill="none" stroke="#000000" cx="198.8684" cy="-252.9361" rx="3.2" ry="3.2"/>
</g>
<!-- shapes -->
<g id="node8" class="node">
<title>shapes</title>
<g id="a_node8"><a xlink:href="../../tables/shapes.html" xlink:title="shapes" target="_top">
<polygon fill="#ffffff" stroke="transparent" points="44.5,-202.2 44.5,-263.2 124.5,-263.2 124.5,-202.2 44.5,-202.2"/>
<polygon fill="#f5f5f5" stroke="transparent" points="44.5,-239.7 44.5,-262.7 124.5,-262.7 124.5,-239.7 44.5,-239.7"/>
<polygon fill="none" stroke="#000000" points="44.5,-239.7 44.5,-262.7 124.5,-262.7 124.5,-239.7 44.5,-239.7"/>
<text text-anchor="start" x="49.5" y="-248.3" font-family="Helvetica,sans-Serif" font-weight="bold" font-size="11.00" fill="#000000">shapes</text>
<text text-anchor="start" x="90.0219" y="-247.8" font-family="Helvetica,sans-Serif" font-size="11.00" fill="#000000">[table]</text>
<polygon fill="none" stroke="#000000" points="44.5,-220.7 44.5,-239.7 124.5,-239.7 124.5,-220.7 44.5,-220.7"/>
<text text-anchor="start" x="47.5" y="-226.8" font-family="Helvetica,sans-Serif" font-size="11.00" fill="#000000">...</text>
<polygon fill="#ffffff" stroke="transparent" points="44.5,-201.7 44.5,-220.7 73.5,-220.7 73.5,-201.7 44.5,-201.7"/>
<polygon fill="none" stroke="#000000" points="44.5,-201.7 44.5,-220.7 73.5,-220.7 73.5,-201.7 44.5,-201.7"/>
<text text-anchor="start" x="47.5" y="-207.8" font-family="Helvetica,sans-Serif" font-size="11.00" fill="#000000"> &#160;</text>
<polygon fill="#ffffff" stroke="transparent" points="73.5,-201.7 73.5,-220.7 94.5,-220.7 94.5,-201.7 73.5,-201.7"/>
<polygon fill="none" stroke="#000000" points="73.5,-201.7 73.5,-220.7 94.5,-220.7 94.5,-201.7 73.5,-201.7"/>
<text text-anchor="start" x="85.3862" y="-207.8" font-family="Helvetica,sans-Serif" font-size="11.00" fill="#000000"> &#160;</text>
<polygon fill="#ffffff" stroke="transparent" points="94.5,-201.7 94.5,-220.7 124.5,-220.7 124.5,-201.7 94.5,-201.7"/>
<polygon fill="none" stroke="#000000" points="94.5,-201.7 94.5,-220.7 124.5,-220.7 124.5,-201.7 94.5,-201.7"/>
<text text-anchor="start" x="105.9053" y="-207.8" font-family="Helvetica,sans-Serif" font-size="11.00" fill="#000000">1 &gt;</text>
</a>
</g>
</g>
<!-- trips&#45;&gt;shapes -->
<g id="edge7" class="edge">
<title>trips:w&#45;&gt;shapes:e</title>
<path fill="none" stroke="#000000" d="M195.501,-229.7C168.7645,-229.7 157.1563,-229.7 124.5,-229.7"/>
<polygon fill="#000000" stroke="#000000" points="202,-229.7001 210,-233.3 206,-229.7 210,-229.7 210,-229.7 210,-229.7 206,-229.7 210,-226.1 202,-229.7001 202,-229.7001"/>
<ellipse fill="none" stroke="#000000" cx="198.8" cy="-229.7001" rx="3.2" ry="3.2"/>
</g>
<!-- stop_times -->
<g id="node3" class="node">
<title>stop_times</title>
<g id="a_node3"><a xlink:href="../../tables/stop_times.html" xlink:title="stop_times" target="_top">
<polygon fill="#ffffff" stroke="transparent" points="414,-227.2 414,-288.2 517,-288.2 517,-227.2 414,-227.2"/>
<polygon fill="#f5f5f5" stroke="transparent" points="414.5,-264.7 414.5,-287.7 517.5,-287.7 517.5,-264.7 414.5,-264.7"/>
<polygon fill="none" stroke="#000000" points="414.5,-264.7 414.5,-287.7 517.5,-287.7 517.5,-264.7 414.5,-264.7"/>
<text text-anchor="start" x="419.5" y="-273.3" font-family="Helvetica,sans-Serif" font-weight="bold" font-size="11.00" fill="#000000">stop_times</text>
<text text-anchor="start" x="483.0219" y="-272.8" font-family="Helvetica,sans-Serif" font-size="11.00" fill="#000000">[table]</text>
<polygon fill="none" stroke="#000000" points="414.5,-245.7 414.5,-264.7 517.5,-264.7 517.5,-245.7 414.5,-245.7"/>
<text text-anchor="start" x="417.5" y="-251.8" font-family="Helvetica,sans-Serif" font-size="11.00" fill="#000000">...</text>
<polygon fill="#ffffff" stroke="transparent" points="414.5,-226.7 414.5,-245.7 464.5,-245.7 464.5,-226.7 414.5,-226.7"/>
<polygon fill="none" stroke="#000000" points="414.5,-226.7 414.5,-245.7 464.5,-245.7 464.5,-226.7 414.5,-226.7"/>
<text text-anchor="start" x="417.5" y="-232.8" font-family="Helvetica,sans-Serif" font-size="11.00" fill="#000000">&lt; 2</text>
<polygon fill="#ffffff" stroke="transparent" points="464.5,-226.7 464.5,-245.7 490.5,-245.7 490.5,-226.7 464.5,-226.7"/>
<polygon fill="none" stroke="#000000" points="464.5,-226.7 464.5,-245.7 490.5,-245.7 490.5,-226.7 464.5,-226.7"/>
<text text-anchor="start" x="481.3862" y="-232.8" font-family="Helvetica,sans-Serif" font-size="11.00" fill="#000000"> &#160;</text>
<polygon fill="#ffffff" stroke="transparent" points="490.5,-226.7 490.5,-245.7 517.5,-245.7 517.5,-226.7 490.5,-226.7"/>
<polygon fill="none" stroke="#000000" points="490.5,-226.7 490.5,-245.7 517.5,-245.7 517.5,-226.7 490.5,-226.7"/>
<text text-anchor="start" x="508.3862" y="-232.8" font-family="Helvetica,sans-Serif" font-size="11.00" fill="#000000"> &#160;</text>
</a>
</g>
</g>
<!-- stop_times&#45;&gt;trips -->
<g id="edge2" class="edge">
<title>stop_times:w&#45;&gt;trips:e</title>
<path fill="none" stroke="#000000" d="M400.3456,-259.0877C386.1224,-269.6646 385.592,-295.7 362,-295.7"/>
<polygon fill="#000000" stroke="#000000" points="406.8587,-257.0688 415.5659,-258.1386 410.6794,-255.8844 414.5,-254.7 414.5,-254.7 414.5,-254.7 410.6794,-255.8844 413.4341,-251.2614 406.8587,-257.0688 406.8587,-257.0688"/>
<ellipse fill="none" stroke="#000000" cx="403.8022" cy="-258.0163" rx="3.2" ry="3.2"/>
</g>
</g>
</svg>
