<?xml version="1.0" encoding="UTF-8" standalone="no"?>
<!DOCTYPE svg PUBLIC "-//W3C//DTD SVG 1.1//EN"
 "http://www.w3.org/Graphics/SVG/1.1/DTD/svg11.dtd">
<!-- Generated by graphviz version 2.40.1 (20161225.0304)
 -->
<!-- Title: oneDegreeRelationshipsDiagram Pages: 1 -->
<svg width="378pt" height="359pt"
 viewBox="0.00 0.00 378.00 358.70" xmlns="http://www.w3.org/2000/svg" xmlns:xlink="http://www.w3.org/1999/xlink">
<g id="graph0" class="graph" transform="scale(1 1) rotate(0) translate(4 354.7)">
<title>oneDegreeRelationshipsDiagram</title>
<polygon fill="#ffffff" stroke="transparent" points="-4,4 -4,-354.7 374,-354.7 374,4 -4,4"/>
<text text-anchor="middle" x="72.4936" y="-7.3" font-family="Helvetica,sans-Serif" font-size="11.00" fill="#000000">Generated by SchemaSpy</text>
<!-- trips -->
<g id="node1" class="node">
<title>trips</title>
<g id="a_node1"><a xlink:href="../../tables/trips.html" xlink:title="trips" target="_top">
<polygon fill="#ffffff" stroke="transparent" points="210,-153.7 210,-346.7 362,-346.7 362,-153.7 210,-153.7"/>
<polygon fill="#f5f5f5" stroke="transparent" points="210,-323.2 210,-346.2 362,-346.2 362,-323.2 210,-323.2"/>
<polygon fill="none" stroke="#000000" points="210,-323.2 210,-346.2 362,-346.2 362,-323.2 210,-323.2"/>
<text text-anchor="start" x="215" y="-331.8" font-family="Helvetica,sans-Serif" font-weight="bold" font-size="11.00" fill="#000000">trips</text>
<text text-anchor="start" x="327.0437" y="-331.3" font-family="Helvetica,sans-Serif" font-size="11.00" fill="#000000">[table]</text>
<polygon fill="none" stroke="#000000" points="210,-301.2 210,-323.2 362,-323.2 362,-301.2 210,-301.2"/>
<image xlink:href="../../images/primaryKeys.png" width="11px" height="12px" preserveAspectRatio="xMinYMin meet" x="215" y="-318.2"/>
<text text-anchor="start" x="230" y="-308.3" font-family="Helvetica,sans-Serif" font-size="11.00" fill="#000000">trip_id</text>
<polygon fill="none" stroke="#000000" points="210,-279.2 210,-301.2 362,-301.2 362,-279.2 210,-279.2"/>
<image xlink:href="../../images/foreignKeys.png" width="11px" height="12px" preserveAspectRatio="xMinYMin meet" x="215" y="-296.2"/>
<text text-anchor="start" x="230" y="-286.3" font-family="Helvetica,sans-Serif" font-size="11.00" fill="#000000">route_id</text>
<polygon fill="none" stroke="#000000" points="210,-257.2 210,-279.2 362,-279.2 362,-257.2 210,-257.2"/>
<image xlink:href="../../images/foreignKeys.png" width="11px" height="12px" preserveAspectRatio="xMinYMin meet" x="215" y="-274.2"/>
<text text-anchor="start" x="230" y="-264.3" font-family="Helvetica,sans-Serif" font-size="11.00" fill="#000000">service_id</text>
<polygon fill="none" stroke="#000000" points="210,-235.2 210,-257.2 362,-257.2 362,-235.2 210,-235.2"/>
<image xlink:href="../../images/foreignKeys.png" width="11px" height="12px" preserveAspectRatio="xMinYMin meet" x="215" y="-252.2"/>
<text text-anchor="start" x="230" y="-242.3" font-family="Helvetica,sans-Serif" font-size="11.00" fill="#000000">shape_id</text>
<polygon fill="none" stroke="#000000" points="210,-213.2 210,-235.2 362,-235.2 362,-213.2 210,-213.2"/>
<image xlink:href="../../images/foreignKeys.png" width="11px" height="12px" preserveAspectRatio="xMinYMin meet" x="215" y="-230.2"/>
<text text-anchor="start" x="230" y="-220.3" font-family="Helvetica,sans-Serif" font-size="11.00" fill="#000000">jp_office_id</text>
<polygon fill="none" stroke="#000000" points="210,-191.2 210,-213.2 362,-213.2 362,-191.2 210,-191.2"/>
<image xlink:href="../../images/foreignKeys.png" width="11px" height="12px" preserveAspectRatio="xMinYMin meet" x="215" y="-208.2"/>
<text text-anchor="start" x="230" y="-198.3" font-family="Helvetica,sans-Serif" font-size="11.00" fill="#000000">jp_pattern_id</text>
<polygon fill="none" stroke="#000000" points="210,-172.2 210,-191.2 362,-191.2 362,-172.2 210,-172.2"/>
<text text-anchor="start" x="213" y="-178.3" font-family="Helvetica,sans-Serif" font-size="11.00" fill="#000000">...</text>
<polygon fill="#ffffff" stroke="transparent" points="210,-153.2 210,-172.2 280,-172.2 280,-153.2 210,-153.2"/>
<polygon fill="none" stroke="#000000" points="210,-153.2 210,-172.2 280,-172.2 280,-153.2 210,-153.2"/>
<text text-anchor="start" x="213" y="-159.3" font-family="Helvetica,sans-Serif" font-size="11.00" fill="#000000">&lt; 5</text>
<polygon fill="#ffffff" stroke="transparent" points="280,-153.2 280,-172.2 316,-172.2 316,-153.2 280,-153.2"/>
<polygon fill="none" stroke="#000000" points="280,-153.2 280,-172.2 316,-172.2 316,-153.2 280,-153.2"/>
<text text-anchor="start" x="306.8862" y="-159.3" font-family="Helvetica,sans-Serif" font-size="11.00" fill="#000000"> &#160;</text>
<polygon fill="#ffffff" stroke="transparent" points="316,-153.2 316,-172.2 362,-172.2 362,-153.2 316,-153.2"/>
<polygon fill="none" stroke="#000000" points="316,-153.2 316,-172.2 362,-172.2 362,-153.2 316,-153.2"/>
<text text-anchor="start" x="343.4053" y="-159.3" font-family="Helvetica,sans-Serif" font-size="11.00" fill="#000000">2 &gt;</text>
</a>
</g>
</g>
<!-- calendar -->
<g id="node2" class="node">
<title>calendar</title>
<g id="a_node2"><a xlink:href="../../tables/calendar.html" xlink:title="calendar" target="_top">
<polygon fill="#ffffff" stroke="transparent" points="8,-38.2 8,-304.2 161,-304.2 161,-38.2 8,-38.2"/>
<polygon fill="#f5f5f5" stroke="transparent" points="10.5,-279.2 10.5,-302.2 159.5,-302.2 159.5,-279.2 10.5,-279.2"/>
<polygon fill="none" stroke="#000000" points="10.5,-279.2 10.5,-302.2 159.5,-302.2 159.5,-279.2 10.5,-279.2"/>
<text text-anchor="start" x="15.5" y="-287.8" font-family="Helvetica,sans-Serif" font-weight="bold" font-size="11.00" fill="#000000">calendar</text>
<text text-anchor="start" x="124.5437" y="-287.3" font-family="Helvetica,sans-Serif" font-size="11.00" fill="#000000">[table]</text>
<polygon fill="none" stroke="#000000" points="10.5,-257.2 10.5,-279.2 98.5,-279.2 98.5,-257.2 10.5,-257.2"/>
<image xlink:href="../../images/primaryKeys.png" width="11px" height="12px" preserveAspectRatio="xMinYMin meet" x="15.5" y="-274.2"/>
<text text-anchor="start" x="30.5" y="-264.3" font-family="Helvetica,sans-Serif" font-size="11.00" fill="#000000">service_id</text>
<polygon fill="none" stroke="#000000" points="98.5,-257.2 98.5,-279.2 159.5,-279.2 159.5,-257.2 98.5,-257.2"/>
<text text-anchor="start" x="101.494" y="-264.9" font-family="Helvetica,sans-Serif" font-size="11.00" fill="#000000">varchar[64]</text>
<polygon fill="none" stroke="#000000" points="10.5,-235.2 10.5,-257.2 98.5,-257.2 98.5,-235.2 10.5,-235.2"/>
<text text-anchor="start" x="30.5" y="-242.3" font-family="Helvetica,sans-Serif" font-size="11.00" fill="#000000">monday</text>
<polygon fill="none" stroke="#000000" points="98.5,-235.2 98.5,-257.2 159.5,-257.2 159.5,-235.2 98.5,-235.2"/>
<text text-anchor="start" x="101.5" y="-242.9" font-family="Helvetica,sans-Serif" font-size="11.00" fill="#000000">int2[5]</text>
<polygon fill="none" stroke="#000000" points="10.5,-213.2 10.5,-235.2 98.5,-235.2 98.5,-213.2 10.5,-213.2"/>
<text text-anchor="start" x="30.5" y="-220.3" font-family="Helvetica,sans-Serif" font-size="11.00" fill="#000000">tuesday</text>
<polygon fill="none" stroke="#000000" points="98.5,-213.2 98.5,-235.2 159.5,-235.2 159.5,-213.2 98.5,-213.2"/>
<text text-anchor="start" x="101.5" y="-220.9" font-family="Helvetica,sans-Serif" font-size="11.00" fill="#000000">int2[5]</text>
<polygon fill="none" stroke="#000000" points="10.5,-191.2 10.5,-213.2 98.5,-213.2 98.5,-191.2 10.5,-191.2"/>
<text text-anchor="start" x="30.5" y="-198.3" font-family="Helvetica,sans-Serif" font-size="11.00" fill="#000000">wednesday</text>
<polygon fill="none" stroke="#000000" points="98.5,-191.2 98.5,-213.2 159.5,-213.2 159.5,-191.2 98.5,-191.2"/>
<text text-anchor="start" x="101.5" y="-198.9" font-family="Helvetica,sans-Serif" font-size="11.00" fill="#000000">int2[5]</text>
<polygon fill="none" stroke="#000000" points="10.5,-169.2 10.5,-191.2 98.5,-191.2 98.5,-169.2 10.5,-169.2"/>
<text text-anchor="start" x="30.5" y="-176.3" font-family="Helvetica,sans-Serif" font-size="11.00" fill="#000000">thursday</text>
<polygon fill="none" stroke="#000000" points="98.5,-169.2 98.5,-191.2 159.5,-191.2 159.5,-169.2 98.5,-169.2"/>
<text text-anchor="start" x="101.5" y="-176.9" font-family="Helvetica,sans-Serif" font-size="11.00" fill="#000000">int2[5]</text>
<polygon fill="none" stroke="#000000" points="10.5,-147.2 10.5,-169.2 98.5,-169.2 98.5,-147.2 10.5,-147.2"/>
<text text-anchor="start" x="30.5" y="-154.3" font-family="Helvetica,sans-Serif" font-size="11.00" fill="#000000">friday</text>
<polygon fill="none" stroke="#000000" points="98.5,-147.2 98.5,-169.2 159.5,-169.2 159.5,-147.2 98.5,-147.2"/>
<text text-anchor="start" x="101.5" y="-154.9" font-family="Helvetica,sans-Serif" font-size="11.00" fill="#000000">int2[5]</text>
<polygon fill="none" stroke="#000000" points="10.5,-125.2 10.5,-147.2 98.5,-147.2 98.5,-125.2 10.5,-125.2"/>
<text text-anchor="start" x="30.5" y="-132.3" font-family="Helvetica,sans-Serif" font-size="11.00" fill="#000000">saturday</text>
<polygon fill="none" stroke="#000000" points="98.5,-125.2 98.5,-147.2 159.5,-147.2 159.5,-125.2 98.5,-125.2"/>
<text text-anchor="start" x="101.5" y="-132.9" font-family="Helvetica,sans-Serif" font-size="11.00" fill="#000000">int2[5]</text>
<polygon fill="none" stroke="#000000" points="10.5,-103.2 10.5,-125.2 98.5,-125.2 98.5,-103.2 10.5,-103.2"/>
<text text-anchor="start" x="30.5" y="-110.3" font-family="Helvetica,sans-Serif" font-size="11.00" fill="#000000">sunday</text>
<polygon fill="none" stroke="#000000" points="98.5,-103.2 98.5,-125.2 159.5,-125.2 159.5,-103.2 98.5,-103.2"/>
<text text-anchor="start" x="101.5" y="-110.9" font-family="Helvetica,sans-Serif" font-size="11.00" fill="#000000">int2[5]</text>
<polygon fill="none" stroke="#000000" points="10.5,-81.2 10.5,-103.2 98.5,-103.2 98.5,-81.2 10.5,-81.2"/>
<text text-anchor="start" x="30.5" y="-88.3" font-family="Helvetica,sans-Serif" font-size="11.00" fill="#000000">start_date</text>
<polygon fill="none" stroke="#000000" points="98.5,-81.2 98.5,-103.2 159.5,-103.2 159.5,-81.2 98.5,-81.2"/>
<text text-anchor="start" x="101.5" y="-88.9" font-family="Helvetica,sans-Serif" font-size="11.00" fill="#000000">varchar[8]</text>
<polygon fill="none" stroke="#000000" points="10.5,-59.2 10.5,-81.2 98.5,-81.2 98.5,-59.2 10.5,-59.2"/>
<text text-anchor="start" x="30.5" y="-66.3" font-family="Helvetica,sans-Serif" font-size="11.00" fill="#000000">end_date</text>
<polygon fill="none" stroke="#000000" points="98.5,-59.2 98.5,-81.2 159.5,-81.2 159.5,-59.2 98.5,-59.2"/>
<text text-anchor="start" x="101.5" y="-66.9" font-family="Helvetica,sans-Serif" font-size="11.00" fill="#000000">varchar[8]</text>
<polygon fill="#ffffff" stroke="transparent" points="10.5,-40.2 10.5,-59.2 58.5,-59.2 58.5,-40.2 10.5,-40.2"/>
<polygon fill="none" stroke="#000000" points="10.5,-40.2 10.5,-59.2 58.5,-59.2 58.5,-40.2 10.5,-40.2"/>
<text text-anchor="start" x="13.5" y="-46.3" font-family="Helvetica,sans-Serif" font-size="11.00" fill="#000000">&lt; 0</text>
<polygon fill="#ffffff" stroke="transparent" points="58.5,-40.2 58.5,-59.2 98.5,-59.2 98.5,-40.2 58.5,-40.2"/>
<polygon fill="none" stroke="#000000" points="58.5,-40.2 58.5,-59.2 98.5,-59.2 98.5,-40.2 58.5,-40.2"/>
<text text-anchor="start" x="89.3862" y="-46.3" font-family="Helvetica,sans-Serif" font-size="11.00" fill="#000000"> &#160;</text>
<polygon fill="#ffffff" stroke="transparent" points="98.5,-40.2 98.5,-59.2 159.5,-59.2 159.5,-40.2 98.5,-40.2"/>
<polygon fill="none" stroke="#000000" points="98.5,-40.2 98.5,-59.2 159.5,-59.2 159.5,-40.2 98.5,-40.2"/>
<text text-anchor="start" x="140.9053" y="-46.3" font-family="Helvetica,sans-Serif" font-size="11.00" fill="#000000">1 &gt;</text>
<polygon fill="none" stroke="#000000" stroke-width="2" points="9,-39.2 9,-303.2 160,-303.2 160,-39.2 9,-39.2"/>
</a>
</g>
</g>
<!-- trips&#45;&gt;calendar -->
<g id="edge1" class="edge">
<title>trips:w&#45;&gt;calendar:e</title>
<path fill="none" stroke="#000000" d="M195.4203,-268.2C183.5435,-268.2 176.158,-268.2 159.5,-268.2"/>
<polygon fill="#000000" stroke="#000000" points="202,-268.2001 210,-271.8 206,-268.2 210,-268.2 210,-268.2 210,-268.2 206,-268.2 210,-264.6 202,-268.2001 202,-268.2001"/>
<ellipse fill="none" stroke="#000000" cx="198.8" cy="-268.2001" rx="3.2" ry="3.2"/>
</g>
</g>
</svg>
