<?xml version="1.0" encoding="UTF-8" standalone="no"?>
<!DOCTYPE svg PUBLIC "-//W3C//DTD SVG 1.1//EN"
 "http://www.w3.org/Graphics/SVG/1.1/DTD/svg11.dtd">
<!-- Generated by graphviz version 2.40.1 (20161225.0304)
 -->
<!-- Title: oneDegreeRelationshipsDiagram Pages: 1 -->
<svg width="382pt" height="228pt"
 viewBox="0.00 0.00 382.00 228.20" xmlns="http://www.w3.org/2000/svg" xmlns:xlink="http://www.w3.org/1999/xlink">
<g id="graph0" class="graph" transform="scale(1 1) rotate(0) translate(4 224.2)">
<title>oneDegreeRelationshipsDiagram</title>
<polygon fill="#ffffff" stroke="transparent" points="-4,4 -4,-224.2 378,-224.2 378,4 -4,4"/>
<text text-anchor="middle" x="72.4936" y="-7.3" font-family="Helvetica,sans-Serif" font-size="11.00" fill="#000000">Generated by SchemaSpy</text>
<!-- fare_rules -->
<g id="node1" class="node">
<title>fare_rules</title>
<g id="a_node1"><a xlink:href="../../tables/fare_rules.html" xlink:title="fare_rules" target="_top">
<polygon fill="#ffffff" stroke="transparent" points="260,-65.7 260,-214.7 366,-214.7 366,-65.7 260,-65.7"/>
<polygon fill="#f5f5f5" stroke="transparent" points="260,-191.2 260,-214.2 366,-214.2 366,-191.2 260,-191.2"/>
<polygon fill="none" stroke="#000000" points="260,-191.2 260,-214.2 366,-214.2 366,-191.2 260,-191.2"/>
<text text-anchor="start" x="265" y="-199.8" font-family="Helvetica,sans-Serif" font-weight="bold" font-size="11.00" fill="#000000">fare_rules</text>
<text text-anchor="start" x="331.0437" y="-199.3" font-family="Helvetica,sans-Serif" font-size="11.00" fill="#000000">[table]</text>
<polygon fill="none" stroke="#000000" points="260,-169.2 260,-191.2 366,-191.2 366,-169.2 260,-169.2"/>
<image xlink:href="../../images/primaryKeys.png" width="11px" height="12px" preserveAspectRatio="xMinYMin meet" x="265" y="-186.2"/>
<text text-anchor="start" x="280" y="-176.3" font-family="Helvetica,sans-Serif" font-size="11.00" fill="#000000">fare_id</text>
<polygon fill="none" stroke="#000000" points="260,-147.2 260,-169.2 366,-169.2 366,-147.2 260,-147.2"/>
<image xlink:href="../../images/foreignKeys.png" width="11px" height="12px" preserveAspectRatio="xMinYMin meet" x="265" y="-164.2"/>
<text text-anchor="start" x="280" y="-154.3" font-family="Helvetica,sans-Serif" font-size="11.00" fill="#000000">route_id</text>
<polygon fill="none" stroke="#000000" points="260,-125.2 260,-147.2 366,-147.2 366,-125.2 260,-125.2"/>
<image xlink:href="../../images/foreignKeys.png" width="11px" height="12px" preserveAspectRatio="xMinYMin meet" x="265" y="-142.2"/>
<text text-anchor="start" x="280" y="-132.3" font-family="Helvetica,sans-Serif" font-size="11.00" fill="#000000">origin_id</text>
<polygon fill="none" stroke="#000000" points="260,-103.2 260,-125.2 366,-125.2 366,-103.2 260,-103.2"/>
<image xlink:href="../../images/foreignKeys.png" width="11px" height="12px" preserveAspectRatio="xMinYMin meet" x="265" y="-120.2"/>
<text text-anchor="start" x="280" y="-110.3" font-family="Helvetica,sans-Serif" font-size="11.00" fill="#000000">destination_id</text>
<polygon fill="none" stroke="#000000" points="260,-84.2 260,-103.2 366,-103.2 366,-84.2 260,-84.2"/>
<text text-anchor="start" x="263" y="-90.3" font-family="Helvetica,sans-Serif" font-size="11.00" fill="#000000">...</text>
<polygon fill="#ffffff" stroke="transparent" points="260,-65.2 260,-84.2 311,-84.2 311,-65.2 260,-65.2"/>
<polygon fill="none" stroke="#000000" points="260,-65.2 260,-84.2 311,-84.2 311,-65.2 260,-65.2"/>
<text text-anchor="start" x="263" y="-71.3" font-family="Helvetica,sans-Serif" font-size="11.00" fill="#000000">&lt; 4</text>
<polygon fill="#ffffff" stroke="transparent" points="311,-65.2 311,-84.2 338,-84.2 338,-65.2 311,-65.2"/>
<polygon fill="none" stroke="#000000" points="311,-65.2 311,-84.2 338,-84.2 338,-65.2 311,-65.2"/>
<text text-anchor="start" x="328.8862" y="-71.3" font-family="Helvetica,sans-Serif" font-size="11.00" fill="#000000"> &#160;</text>
<polygon fill="#ffffff" stroke="transparent" points="338,-65.2 338,-84.2 366,-84.2 366,-65.2 338,-65.2"/>
<polygon fill="none" stroke="#000000" points="338,-65.2 338,-84.2 366,-84.2 366,-65.2 338,-65.2"/>
<text text-anchor="start" x="356.8862" y="-71.3" font-family="Helvetica,sans-Serif" font-size="11.00" fill="#000000"> &#160;</text>
</a>
</g>
</g>
<!-- fare_attributes -->
<g id="node2" class="node">
<title>fare_attributes</title>
<g id="a_node2"><a xlink:href="../../tables/fare_attributes.html" xlink:title="fare_attributes" target="_top">
<polygon fill="#ffffff" stroke="transparent" points="8,-38.2 8,-216.2 211,-216.2 211,-38.2 8,-38.2"/>
<polygon fill="#f5f5f5" stroke="transparent" points="10.5,-191.2 10.5,-214.2 209.5,-214.2 209.5,-191.2 10.5,-191.2"/>
<polygon fill="none" stroke="#000000" points="10.5,-191.2 10.5,-214.2 209.5,-214.2 209.5,-191.2 10.5,-191.2"/>
<text text-anchor="start" x="15.5" y="-199.8" font-family="Helvetica,sans-Serif" font-weight="bold" font-size="11.00" fill="#000000">fare_attributes</text>
<text text-anchor="start" x="174.5437" y="-199.3" font-family="Helvetica,sans-Serif" font-size="11.00" fill="#000000">[table]</text>
<polygon fill="none" stroke="#000000" points="10.5,-169.2 10.5,-191.2 137.5,-191.2 137.5,-169.2 10.5,-169.2"/>
<image xlink:href="../../images/primaryKeys.png" width="11px" height="12px" preserveAspectRatio="xMinYMin meet" x="15.5" y="-186.2"/>
<text text-anchor="start" x="30.5" y="-176.3" font-family="Helvetica,sans-Serif" font-size="11.00" fill="#000000">fare_id</text>
<polygon fill="none" stroke="#000000" points="137.5,-169.2 137.5,-191.2 209.5,-191.2 209.5,-169.2 137.5,-169.2"/>
<text text-anchor="start" x="140.5" y="-176.9" font-family="Helvetica,sans-Serif" font-size="11.00" fill="#000000">varchar[64]</text>
<polygon fill="none" stroke="#000000" points="10.5,-147.2 10.5,-169.2 137.5,-169.2 137.5,-147.2 10.5,-147.2"/>
<text text-anchor="start" x="30.5" y="-154.3" font-family="Helvetica,sans-Serif" font-size="11.00" fill="#000000">price</text>
<polygon fill="none" stroke="#000000" points="137.5,-147.2 137.5,-169.2 209.5,-169.2 209.5,-147.2 137.5,-147.2"/>
<text text-anchor="start" x="140.1876" y="-154.9" font-family="Helvetica,sans-Serif" font-size="11.00" fill="#000000">numeric[10,2]</text>
<polygon fill="none" stroke="#000000" points="10.5,-125.2 10.5,-147.2 137.5,-147.2 137.5,-125.2 10.5,-125.2"/>
<text text-anchor="start" x="30.5" y="-132.3" font-family="Helvetica,sans-Serif" font-size="11.00" fill="#000000">currency_type</text>
<polygon fill="none" stroke="#000000" points="137.5,-125.2 137.5,-147.2 209.5,-147.2 209.5,-125.2 137.5,-125.2"/>
<text text-anchor="start" x="140.5" y="-132.9" font-family="Helvetica,sans-Serif" font-size="11.00" fill="#000000">varchar[3]</text>
<polygon fill="none" stroke="#000000" points="10.5,-103.2 10.5,-125.2 137.5,-125.2 137.5,-103.2 10.5,-103.2"/>
<text text-anchor="start" x="30.5" y="-110.3" font-family="Helvetica,sans-Serif" font-size="11.00" fill="#000000">payment_method</text>
<polygon fill="none" stroke="#000000" points="137.5,-103.2 137.5,-125.2 209.5,-125.2 209.5,-103.2 137.5,-103.2"/>
<text text-anchor="start" x="140.5" y="-110.9" font-family="Helvetica,sans-Serif" font-size="11.00" fill="#000000">int2[5]</text>
<polygon fill="none" stroke="#000000" points="10.5,-81.2 10.5,-103.2 137.5,-103.2 137.5,-81.2 10.5,-81.2"/>
<text text-anchor="start" x="30.5" y="-88.3" font-family="Helvetica,sans-Serif" font-size="11.00" fill="#000000">transfers</text>
<polygon fill="none" stroke="#000000" points="137.5,-81.2 137.5,-103.2 209.5,-103.2 209.5,-81.2 137.5,-81.2"/>
<text text-anchor="start" x="140.5" y="-88.9" font-family="Helvetica,sans-Serif" font-size="11.00" fill="#000000">int2[5]</text>
<polygon fill="none" stroke="#000000" points="10.5,-59.2 10.5,-81.2 137.5,-81.2 137.5,-59.2 10.5,-59.2"/>
<text text-anchor="start" x="30.5" y="-66.3" font-family="Helvetica,sans-Serif" font-size="11.00" fill="#000000">transfer_duration</text>
<polygon fill="none" stroke="#000000" points="137.5,-59.2 137.5,-81.2 209.5,-81.2 209.5,-59.2 137.5,-59.2"/>
<text text-anchor="start" x="140.5" y="-66.9" font-family="Helvetica,sans-Serif" font-size="11.00" fill="#000000">int4[10]</text>
<polygon fill="#ffffff" stroke="transparent" points="10.5,-40.2 10.5,-59.2 78.5,-59.2 78.5,-40.2 10.5,-40.2"/>
<polygon fill="none" stroke="#000000" points="10.5,-40.2 10.5,-59.2 78.5,-59.2 78.5,-40.2 10.5,-40.2"/>
<text text-anchor="start" x="13.5" y="-46.3" font-family="Helvetica,sans-Serif" font-size="11.00" fill="#000000">&lt; 0</text>
<polygon fill="#ffffff" stroke="transparent" points="78.5,-40.2 78.5,-59.2 137.5,-59.2 137.5,-40.2 78.5,-40.2"/>
<polygon fill="none" stroke="#000000" points="78.5,-40.2 78.5,-59.2 137.5,-59.2 137.5,-40.2 78.5,-40.2"/>
<text text-anchor="start" x="128.3862" y="-46.3" font-family="Helvetica,sans-Serif" font-size="11.00" fill="#000000"> &#160;</text>
<polygon fill="#ffffff" stroke="transparent" points="137.5,-40.2 137.5,-59.2 209.5,-59.2 209.5,-40.2 137.5,-40.2"/>
<polygon fill="none" stroke="#000000" points="137.5,-40.2 137.5,-59.2 209.5,-59.2 209.5,-40.2 137.5,-40.2"/>
<text text-anchor="start" x="190.9053" y="-46.3" font-family="Helvetica,sans-Serif" font-size="11.00" fill="#000000">1 &gt;</text>
<polygon fill="none" stroke="#000000" stroke-width="2" points="9,-39.2 9,-215.2 210,-215.2 210,-39.2 9,-39.2"/>
</a>
</g>
</g>
<!-- fare_rules&#45;&gt;fare_attributes -->
<g id="edge1" class="edge">
<title>fare_rules:w&#45;&gt;fare_attributes:e</title>
<path fill="none" stroke="#000000" d="M249.3362,-180.2C234.9956,-180.2 227.9115,-180.2 209.5,-180.2"/>
<polygon fill="#000000" stroke="#000000" points="259.2,-176.2 259.2,-184.2 257.6,-184.2 257.6,-176.2 259.2,-176.2"/>
<polyline fill="none" stroke="#000000" points="260,-180.2 256,-180.2 "/>
<ellipse fill="none" stroke="#000000" cx="252.8" cy="-180.2001" rx="3.2" ry="3.2"/>
</g>
</g>
</svg>
