<?xml version="1.0" encoding="UTF-8" standalone="no"?>
<!DOCTYPE svg PUBLIC "-//W3C//DTD SVG 1.1//EN"
 "http://www.w3.org/Graphics/SVG/1.1/DTD/svg11.dtd">
<!-- Generated by graphviz version 2.40.1 (20161225.0304)
 -->
<!-- Title: twoDegreesRelationshipsDiagram Pages: 1 -->
<svg width="382pt" height="395pt"
 viewBox="0.00 0.00 382.00 394.70" xmlns="http://www.w3.org/2000/svg" xmlns:xlink="http://www.w3.org/1999/xlink">
<g id="graph0" class="graph" transform="scale(1 1) rotate(0) translate(4 390.7)">
<title>twoDegreesRelationshipsDiagram</title>
<polygon fill="#ffffff" stroke="transparent" points="-4,4 -4,-390.7 378,-390.7 378,4 -4,4"/>
<text text-anchor="middle" x="72.4936" y="-7.3" font-family="Helvetica,sans-Serif" font-size="11.00" fill="#000000">Generated by SchemaSpy</text>
<!-- fare_rules -->
<g id="node1" class="node">
<title>fare_rules</title>
<g id="a_node1"><a xlink:href="../../tables/fare_rules.html" xlink:title="fare_rules" target="_top">
<polygon fill="#ffffff" stroke="transparent" points="260,-38.2 260,-187.2 366,-187.2 366,-38.2 260,-38.2"/>
<polygon fill="#f5f5f5" stroke="transparent" points="260,-163.7 260,-186.7 366,-186.7 366,-163.7 260,-163.7"/>
<polygon fill="none" stroke="#000000" points="260,-163.7 260,-186.7 366,-186.7 366,-163.7 260,-163.7"/>
<text text-anchor="start" x="265" y="-172.3" font-family="Helvetica,sans-Serif" font-weight="bold" font-size="11.00" fill="#000000">fare_rules</text>
<text text-anchor="start" x="331.0437" y="-171.8" font-family="Helvetica,sans-Serif" font-size="11.00" fill="#000000">[table]</text>
<polygon fill="none" stroke="#000000" points="260,-141.7 260,-163.7 366,-163.7 366,-141.7 260,-141.7"/>
<image xlink:href="../../images/foreignKeys.png" width="11px" height="12px" preserveAspectRatio="xMinYMin meet" x="265" y="-158.7"/>
<text text-anchor="start" x="280" y="-148.8" font-family="Helvetica,sans-Serif" font-size="11.00" fill="#000000">fare_id</text>
<polygon fill="none" stroke="#000000" points="260,-119.7 260,-141.7 366,-141.7 366,-119.7 260,-119.7"/>
<image xlink:href="../../images/foreignKeys.png" width="11px" height="12px" preserveAspectRatio="xMinYMin meet" x="265" y="-136.7"/>
<text text-anchor="start" x="280" y="-126.8" font-family="Helvetica,sans-Serif" font-size="11.00" fill="#000000">route_id</text>
<polygon fill="none" stroke="#000000" points="260,-97.7 260,-119.7 366,-119.7 366,-97.7 260,-97.7"/>
<image xlink:href="../../images/foreignKeys.png" width="11px" height="12px" preserveAspectRatio="xMinYMin meet" x="265" y="-114.7"/>
<text text-anchor="start" x="280" y="-104.8" font-family="Helvetica,sans-Serif" font-size="11.00" fill="#000000">origin_id</text>
<polygon fill="none" stroke="#000000" points="260,-75.7 260,-97.7 366,-97.7 366,-75.7 260,-75.7"/>
<image xlink:href="../../images/foreignKeys.png" width="11px" height="12px" preserveAspectRatio="xMinYMin meet" x="265" y="-92.7"/>
<text text-anchor="start" x="280" y="-82.8" font-family="Helvetica,sans-Serif" font-size="11.00" fill="#000000">destination_id</text>
<polygon fill="none" stroke="#000000" points="260,-56.7 260,-75.7 366,-75.7 366,-56.7 260,-56.7"/>
<text text-anchor="start" x="263" y="-62.8" font-family="Helvetica,sans-Serif" font-size="11.00" fill="#000000">...</text>
<polygon fill="#ffffff" stroke="transparent" points="260,-37.7 260,-56.7 311,-56.7 311,-37.7 260,-37.7"/>
<polygon fill="none" stroke="#000000" points="260,-37.7 260,-56.7 311,-56.7 311,-37.7 260,-37.7"/>
<text text-anchor="start" x="263" y="-43.8" font-family="Helvetica,sans-Serif" font-size="11.00" fill="#000000">&lt; 4</text>
<polygon fill="#ffffff" stroke="transparent" points="311,-37.7 311,-56.7 338,-56.7 338,-37.7 311,-37.7"/>
<polygon fill="none" stroke="#000000" points="311,-37.7 311,-56.7 338,-56.7 338,-37.7 311,-37.7"/>
<text text-anchor="start" x="328.8862" y="-43.8" font-family="Helvetica,sans-Serif" font-size="11.00" fill="#000000"> &#160;</text>
<polygon fill="#ffffff" stroke="transparent" points="338,-37.7 338,-56.7 366,-56.7 366,-37.7 338,-37.7"/>
<polygon fill="none" stroke="#000000" points="338,-37.7 338,-56.7 366,-56.7 366,-37.7 338,-37.7"/>
<text text-anchor="start" x="356.8862" y="-43.8" font-family="Helvetica,sans-Serif" font-size="11.00" fill="#000000"> &#160;</text>
</a>
</g>
</g>
<!-- stops -->
<g id="node2" class="node">
<title>stops</title>
<g id="a_node2"><a xlink:href="../../tables/stops.html" xlink:title="stops" target="_top">
<polygon fill="#ffffff" stroke="transparent" points="74,-40.2 74,-101.2 145,-101.2 145,-40.2 74,-40.2"/>
<polygon fill="#f5f5f5" stroke="transparent" points="74.5,-77.7 74.5,-100.7 145.5,-100.7 145.5,-77.7 74.5,-77.7"/>
<polygon fill="none" stroke="#000000" points="74.5,-77.7 74.5,-100.7 145.5,-100.7 145.5,-77.7 74.5,-77.7"/>
<text text-anchor="start" x="79.5" y="-86.3" font-family="Helvetica,sans-Serif" font-weight="bold" font-size="11.00" fill="#000000">stops</text>
<text text-anchor="start" x="111.0219" y="-85.8" font-family="Helvetica,sans-Serif" font-size="11.00" fill="#000000">[table]</text>
<polygon fill="none" stroke="#000000" points="74.5,-58.7 74.5,-77.7 145.5,-77.7 145.5,-58.7 74.5,-58.7"/>
<text text-anchor="start" x="77.5" y="-64.8" font-family="Helvetica,sans-Serif" font-size="11.00" fill="#000000">...</text>
<polygon fill="#ffffff" stroke="transparent" points="74.5,-39.7 74.5,-58.7 99.5,-58.7 99.5,-39.7 74.5,-39.7"/>
<polygon fill="none" stroke="#000000" points="74.5,-39.7 74.5,-58.7 99.5,-58.7 99.5,-39.7 74.5,-39.7"/>
<text text-anchor="start" x="77.5" y="-45.8" font-family="Helvetica,sans-Serif" font-size="11.00" fill="#000000"> &#160;</text>
<polygon fill="#ffffff" stroke="transparent" points="99.5,-39.7 99.5,-58.7 117.5,-58.7 117.5,-39.7 99.5,-39.7"/>
<polygon fill="none" stroke="#000000" points="99.5,-39.7 99.5,-58.7 117.5,-58.7 117.5,-39.7 99.5,-39.7"/>
<text text-anchor="start" x="108.3862" y="-45.8" font-family="Helvetica,sans-Serif" font-size="11.00" fill="#000000"> &#160;</text>
<polygon fill="#ffffff" stroke="transparent" points="117.5,-39.7 117.5,-58.7 145.5,-58.7 145.5,-39.7 117.5,-39.7"/>
<polygon fill="none" stroke="#000000" points="117.5,-39.7 117.5,-58.7 145.5,-58.7 145.5,-39.7 117.5,-39.7"/>
<text text-anchor="start" x="126.9053" y="-45.8" font-family="Helvetica,sans-Serif" font-size="11.00" fill="#000000">5 &gt;</text>
</a>
</g>
</g>
<!-- fare_rules&#45;&gt;stops -->
<g id="edge1" class="edge">
<title>fare_rules:w&#45;&gt;stops:e</title>
<path fill="none" stroke="#000000" d="M245.4441,-86.1519C205.6985,-83.0366 191.8457,-67.7 145.5,-67.7"/>
<polygon fill="#000000" stroke="#000000" points="252.0057,-86.3989 259.8645,-90.2975 256.0028,-86.5494 260,-86.7 260,-86.7 260,-86.7 256.0028,-86.5494 260.1355,-83.1025 252.0057,-86.3989 252.0057,-86.3989"/>
<ellipse fill="none" stroke="#000000" cx="248.8079" cy="-86.2785" rx="3.2" ry="3.2"/>
</g>
<!-- fare_rules&#45;&gt;stops -->
<g id="edge3" class="edge">
<title>fare_rules:w&#45;&gt;stops:e</title>
<path fill="none" stroke="#000000" d="M245.4389,-107.6033C204.2437,-101.0832 194.2744,-67.7 145.5,-67.7"/>
<polygon fill="#000000" stroke="#000000" points="252.0226,-108.0991 259.7296,-112.2898 256.0113,-108.3996 260,-108.7 260,-108.7 260,-108.7 256.0113,-108.3996 260.2704,-105.1102 252.0226,-108.0991 252.0226,-108.0991"/>
<ellipse fill="none" stroke="#000000" cx="248.8316" cy="-107.8588" rx="3.2" ry="3.2"/>
</g>
<!-- fare_attributes -->
<g id="node3" class="node">
<title>fare_attributes</title>
<g id="a_node3"><a xlink:href="../../tables/fare_attributes.html" xlink:title="fare_attributes" target="_top">
<polygon fill="#ffffff" stroke="transparent" points="8,-204.7 8,-382.7 211,-382.7 211,-204.7 8,-204.7"/>
<polygon fill="#f5f5f5" stroke="transparent" points="10.5,-357.7 10.5,-380.7 209.5,-380.7 209.5,-357.7 10.5,-357.7"/>
<polygon fill="none" stroke="#000000" points="10.5,-357.7 10.5,-380.7 209.5,-380.7 209.5,-357.7 10.5,-357.7"/>
<text text-anchor="start" x="15.5" y="-366.3" font-family="Helvetica,sans-Serif" font-weight="bold" font-size="11.00" fill="#000000">fare_attributes</text>
<text text-anchor="start" x="174.5437" y="-365.8" font-family="Helvetica,sans-Serif" font-size="11.00" fill="#000000">[table]</text>
<polygon fill="none" stroke="#000000" points="10.5,-335.7 10.5,-357.7 137.5,-357.7 137.5,-335.7 10.5,-335.7"/>
<image xlink:href="../../images/primaryKeys.png" width="11px" height="12px" preserveAspectRatio="xMinYMin meet" x="15.5" y="-352.7"/>
<text text-anchor="start" x="30.5" y="-342.8" font-family="Helvetica,sans-Serif" font-size="11.00" fill="#000000">fare_id</text>
<polygon fill="none" stroke="#000000" points="137.5,-335.7 137.5,-357.7 209.5,-357.7 209.5,-335.7 137.5,-335.7"/>
<text text-anchor="start" x="140.5" y="-343.4" font-family="Helvetica,sans-Serif" font-size="11.00" fill="#000000">varchar[64]</text>
<polygon fill="none" stroke="#000000" points="10.5,-313.7 10.5,-335.7 137.5,-335.7 137.5,-313.7 10.5,-313.7"/>
<text text-anchor="start" x="30.5" y="-320.8" font-family="Helvetica,sans-Serif" font-size="11.00" fill="#000000">price</text>
<polygon fill="none" stroke="#000000" points="137.5,-313.7 137.5,-335.7 209.5,-335.7 209.5,-313.7 137.5,-313.7"/>
<text text-anchor="start" x="140.1876" y="-321.4" font-family="Helvetica,sans-Serif" font-size="11.00" fill="#000000">numeric[10,2]</text>
<polygon fill="none" stroke="#000000" points="10.5,-291.7 10.5,-313.7 137.5,-313.7 137.5,-291.7 10.5,-291.7"/>
<text text-anchor="start" x="30.5" y="-298.8" font-family="Helvetica,sans-Serif" font-size="11.00" fill="#000000">currency_type</text>
<polygon fill="none" stroke="#000000" points="137.5,-291.7 137.5,-313.7 209.5,-313.7 209.5,-291.7 137.5,-291.7"/>
<text text-anchor="start" x="140.5" y="-299.4" font-family="Helvetica,sans-Serif" font-size="11.00" fill="#000000">varchar[3]</text>
<polygon fill="none" stroke="#000000" points="10.5,-269.7 10.5,-291.7 137.5,-291.7 137.5,-269.7 10.5,-269.7"/>
<text text-anchor="start" x="30.5" y="-276.8" font-family="Helvetica,sans-Serif" font-size="11.00" fill="#000000">payment_method</text>
<polygon fill="none" stroke="#000000" points="137.5,-269.7 137.5,-291.7 209.5,-291.7 209.5,-269.7 137.5,-269.7"/>
<text text-anchor="start" x="140.5" y="-277.4" font-family="Helvetica,sans-Serif" font-size="11.00" fill="#000000">int2[5]</text>
<polygon fill="none" stroke="#000000" points="10.5,-247.7 10.5,-269.7 137.5,-269.7 137.5,-247.7 10.5,-247.7"/>
<text text-anchor="start" x="30.5" y="-254.8" font-family="Helvetica,sans-Serif" font-size="11.00" fill="#000000">transfers</text>
<polygon fill="none" stroke="#000000" points="137.5,-247.7 137.5,-269.7 209.5,-269.7 209.5,-247.7 137.5,-247.7"/>
<text text-anchor="start" x="140.5" y="-255.4" font-family="Helvetica,sans-Serif" font-size="11.00" fill="#000000">int2[5]</text>
<polygon fill="none" stroke="#000000" points="10.5,-225.7 10.5,-247.7 137.5,-247.7 137.5,-225.7 10.5,-225.7"/>
<text text-anchor="start" x="30.5" y="-232.8" font-family="Helvetica,sans-Serif" font-size="11.00" fill="#000000">transfer_duration</text>
<polygon fill="none" stroke="#000000" points="137.5,-225.7 137.5,-247.7 209.5,-247.7 209.5,-225.7 137.5,-225.7"/>
<text text-anchor="start" x="140.5" y="-233.4" font-family="Helvetica,sans-Serif" font-size="11.00" fill="#000000">int4[10]</text>
<polygon fill="#ffffff" stroke="transparent" points="10.5,-206.7 10.5,-225.7 78.5,-225.7 78.5,-206.7 10.5,-206.7"/>
<polygon fill="none" stroke="#000000" points="10.5,-206.7 10.5,-225.7 78.5,-225.7 78.5,-206.7 10.5,-206.7"/>
<text text-anchor="start" x="13.5" y="-212.8" font-family="Helvetica,sans-Serif" font-size="11.00" fill="#000000">&lt; 0</text>
<polygon fill="#ffffff" stroke="transparent" points="78.5,-206.7 78.5,-225.7 137.5,-225.7 137.5,-206.7 78.5,-206.7"/>
<polygon fill="none" stroke="#000000" points="78.5,-206.7 78.5,-225.7 137.5,-225.7 137.5,-206.7 78.5,-206.7"/>
<text text-anchor="start" x="128.3862" y="-212.8" font-family="Helvetica,sans-Serif" font-size="11.00" fill="#000000"> &#160;</text>
<polygon fill="#ffffff" stroke="transparent" points="137.5,-206.7 137.5,-225.7 209.5,-225.7 209.5,-206.7 137.5,-206.7"/>
<polygon fill="none" stroke="#000000" points="137.5,-206.7 137.5,-225.7 209.5,-225.7 209.5,-206.7 137.5,-206.7"/>
<text text-anchor="start" x="190.9053" y="-212.8" font-family="Helvetica,sans-Serif" font-size="11.00" fill="#000000">1 &gt;</text>
<polygon fill="none" stroke="#000000" stroke-width="2" points="9,-205.7 9,-381.7 210,-381.7 210,-205.7 9,-205.7"/>
</a>
</g>
</g>
<!-- fare_rules&#45;&gt;fare_attributes -->
<g id="edge2" class="edge">
<title>fare_rules:w&#45;&gt;fare_attributes:e</title>
<path fill="none" stroke="#000000" d="M245.7292,-154.8787C186.019,-176.1922 293.0271,-346.7 209.5,-346.7"/>
<polygon fill="#000000" stroke="#000000" points="252.0916,-153.9074 260.5433,-156.2588 256.0458,-153.3037 260,-152.7 260,-152.7 260,-152.7 256.0458,-153.3037 259.4567,-149.1412 252.0916,-153.9074 252.0916,-153.9074"/>
<ellipse fill="none" stroke="#000000" cx="248.9283" cy="-154.3904" rx="3.2" ry="3.2"/>
</g>
<!-- routes -->
<g id="node4" class="node">
<title>routes</title>
<g id="a_node4"><a xlink:href="../../tables/routes.html" xlink:title="routes" target="_top">
<polygon fill="#ffffff" stroke="transparent" points="70.5,-122.2 70.5,-183.2 148.5,-183.2 148.5,-122.2 70.5,-122.2"/>
<polygon fill="#f5f5f5" stroke="transparent" points="70.5,-159.7 70.5,-182.7 148.5,-182.7 148.5,-159.7 70.5,-159.7"/>
<polygon fill="none" stroke="#000000" points="70.5,-159.7 70.5,-182.7 148.5,-182.7 148.5,-159.7 70.5,-159.7"/>
<text text-anchor="start" x="75.5" y="-168.3" font-family="Helvetica,sans-Serif" font-weight="bold" font-size="11.00" fill="#000000">routes</text>
<text text-anchor="start" x="114.0219" y="-167.8" font-family="Helvetica,sans-Serif" font-size="11.00" fill="#000000">[table]</text>
<polygon fill="none" stroke="#000000" points="70.5,-140.7 70.5,-159.7 148.5,-159.7 148.5,-140.7 70.5,-140.7"/>
<text text-anchor="start" x="73.5" y="-146.8" font-family="Helvetica,sans-Serif" font-size="11.00" fill="#000000">...</text>
<polygon fill="#ffffff" stroke="transparent" points="70.5,-121.7 70.5,-140.7 103.5,-140.7 103.5,-121.7 70.5,-121.7"/>
<polygon fill="none" stroke="#000000" points="70.5,-121.7 70.5,-140.7 103.5,-140.7 103.5,-121.7 70.5,-121.7"/>
<text text-anchor="start" x="73.5" y="-127.8" font-family="Helvetica,sans-Serif" font-size="11.00" fill="#000000">&lt; 1</text>
<polygon fill="#ffffff" stroke="transparent" points="103.5,-121.7 103.5,-140.7 121.5,-140.7 121.5,-121.7 103.5,-121.7"/>
<polygon fill="none" stroke="#000000" points="103.5,-121.7 103.5,-140.7 121.5,-140.7 121.5,-121.7 103.5,-121.7"/>
<text text-anchor="start" x="112.3862" y="-127.8" font-family="Helvetica,sans-Serif" font-size="11.00" fill="#000000"> &#160;</text>
<polygon fill="#ffffff" stroke="transparent" points="121.5,-121.7 121.5,-140.7 148.5,-140.7 148.5,-121.7 121.5,-121.7"/>
<polygon fill="none" stroke="#000000" points="121.5,-121.7 121.5,-140.7 148.5,-140.7 148.5,-121.7 121.5,-121.7"/>
<text text-anchor="start" x="129.9053" y="-127.8" font-family="Helvetica,sans-Serif" font-size="11.00" fill="#000000">2 &gt;</text>
</a>
</g>
</g>
<!-- fare_rules&#45;&gt;routes -->
<g id="edge4" class="edge">
<title>fare_rules:w&#45;&gt;routes:e</title>
<path fill="none" stroke="#000000" d="M245.5653,-131.2686C207.0398,-134.43 193.5662,-149.7 148.5,-149.7"/>
<polygon fill="#000000" stroke="#000000" points="252.0062,-131.015 260.1417,-134.2972 256.0031,-130.8575 260,-130.7 260,-130.7 260,-130.7 256.0031,-130.8575 259.8583,-127.1028 252.0062,-131.015 252.0062,-131.015"/>
<ellipse fill="none" stroke="#000000" cx="248.8087" cy="-131.1409" rx="3.2" ry="3.2"/>
</g>
</g>
</svg>
