<?xml version="1.0" encoding="UTF-8" standalone="no"?>
<!DOCTYPE svg PUBLIC "-//W3C//DTD SVG 1.1//EN"
 "http://www.w3.org/Graphics/SVG/1.1/DTD/svg11.dtd">
<!-- Generated by graphviz version 2.40.1 (20161225.0304)
 -->
<!-- Title: oneDegreeRelationshipsDiagram Pages: 1 -->
<svg width="389pt" height="363pt"
 viewBox="0.00 0.00 389.00 363.20" xmlns="http://www.w3.org/2000/svg" xmlns:xlink="http://www.w3.org/1999/xlink">
<g id="graph0" class="graph" transform="scale(1 1) rotate(0) translate(4 359.2)">
<title>oneDegreeRelationshipsDiagram</title>
<polygon fill="#ffffff" stroke="transparent" points="-4,4 -4,-359.2 385,-359.2 385,4 -4,4"/>
<text text-anchor="middle" x="72.4936" y="-7.3" font-family="Helvetica,sans-Serif" font-size="11.00" fill="#000000">Generated by SchemaSpy</text>
<!-- fare_rules -->
<g id="node1" class="node">
<title>fare_rules</title>
<g id="a_node1"><a xlink:href="../../tables/fare_rules.html" xlink:title="fare_rules" target="_top">
<polygon fill="#ffffff" stroke="transparent" points="202,-73.7 202,-229.7 373,-229.7 373,-73.7 202,-73.7"/>
<polygon fill="#f5f5f5" stroke="transparent" points="204.5,-204.7 204.5,-227.7 371.5,-227.7 371.5,-204.7 204.5,-204.7"/>
<polygon fill="none" stroke="#000000" points="204.5,-204.7 204.5,-227.7 371.5,-227.7 371.5,-204.7 204.5,-204.7"/>
<text text-anchor="start" x="209.5" y="-213.3" font-family="Helvetica,sans-Serif" font-weight="bold" font-size="11.00" fill="#000000">fare_rules</text>
<text text-anchor="start" x="336.5437" y="-212.8" font-family="Helvetica,sans-Serif" font-size="11.00" fill="#000000">[table]</text>
<polygon fill="none" stroke="#000000" points="204.5,-182.7 204.5,-204.7 310.5,-204.7 310.5,-182.7 204.5,-182.7"/>
<image xlink:href="../../images/primaryKeys.png" width="11px" height="12px" preserveAspectRatio="xMinYMin meet" x="209.5" y="-199.7"/>
<text text-anchor="start" x="224.5" y="-189.8" font-family="Helvetica,sans-Serif" font-size="11.00" fill="#000000">fare_id</text>
<polygon fill="none" stroke="#000000" points="310.5,-182.7 310.5,-204.7 371.5,-204.7 371.5,-182.7 310.5,-182.7"/>
<text text-anchor="start" x="313.494" y="-190.4" font-family="Helvetica,sans-Serif" font-size="11.00" fill="#000000">varchar[64]</text>
<polygon fill="none" stroke="#000000" points="204.5,-160.7 204.5,-182.7 310.5,-182.7 310.5,-160.7 204.5,-160.7"/>
<image xlink:href="../../images/foreignKeys.png" width="11px" height="12px" preserveAspectRatio="xMinYMin meet" x="209.5" y="-177.7"/>
<text text-anchor="start" x="224.5" y="-167.8" font-family="Helvetica,sans-Serif" font-size="11.00" fill="#000000">route_id</text>
<polygon fill="none" stroke="#000000" points="310.5,-160.7 310.5,-182.7 371.5,-182.7 371.5,-160.7 310.5,-160.7"/>
<text text-anchor="start" x="313.494" y="-168.4" font-family="Helvetica,sans-Serif" font-size="11.00" fill="#000000">varchar[64]</text>
<polygon fill="none" stroke="#000000" points="204.5,-138.7 204.5,-160.7 310.5,-160.7 310.5,-138.7 204.5,-138.7"/>
<image xlink:href="../../images/foreignKeys.png" width="11px" height="12px" preserveAspectRatio="xMinYMin meet" x="209.5" y="-155.7"/>
<text text-anchor="start" x="224.5" y="-145.8" font-family="Helvetica,sans-Serif" font-size="11.00" fill="#000000">origin_id</text>
<polygon fill="none" stroke="#000000" points="310.5,-138.7 310.5,-160.7 371.5,-160.7 371.5,-138.7 310.5,-138.7"/>
<text text-anchor="start" x="313.494" y="-146.4" font-family="Helvetica,sans-Serif" font-size="11.00" fill="#000000">varchar[64]</text>
<polygon fill="none" stroke="#000000" points="204.5,-116.7 204.5,-138.7 310.5,-138.7 310.5,-116.7 204.5,-116.7"/>
<image xlink:href="../../images/foreignKeys.png" width="11px" height="12px" preserveAspectRatio="xMinYMin meet" x="209.5" y="-133.7"/>
<text text-anchor="start" x="224.5" y="-123.8" font-family="Helvetica,sans-Serif" font-size="11.00" fill="#000000">destination_id</text>
<polygon fill="none" stroke="#000000" points="310.5,-116.7 310.5,-138.7 371.5,-138.7 371.5,-116.7 310.5,-116.7"/>
<text text-anchor="start" x="313.494" y="-124.4" font-family="Helvetica,sans-Serif" font-size="11.00" fill="#000000">varchar[64]</text>
<polygon fill="none" stroke="#000000" points="204.5,-94.7 204.5,-116.7 310.5,-116.7 310.5,-94.7 204.5,-94.7"/>
<text text-anchor="start" x="224.5" y="-101.8" font-family="Helvetica,sans-Serif" font-size="11.00" fill="#000000">contains_id</text>
<polygon fill="none" stroke="#000000" points="310.5,-94.7 310.5,-116.7 371.5,-116.7 371.5,-94.7 310.5,-94.7"/>
<text text-anchor="start" x="313.494" y="-102.4" font-family="Helvetica,sans-Serif" font-size="11.00" fill="#000000">varchar[64]</text>
<polygon fill="#ffffff" stroke="transparent" points="204.5,-75.7 204.5,-94.7 261.5,-94.7 261.5,-75.7 204.5,-75.7"/>
<polygon fill="none" stroke="#000000" points="204.5,-75.7 204.5,-94.7 261.5,-94.7 261.5,-75.7 204.5,-75.7"/>
<text text-anchor="start" x="207.5" y="-81.8" font-family="Helvetica,sans-Serif" font-size="11.00" fill="#000000">&lt; 4</text>
<polygon fill="#ffffff" stroke="transparent" points="261.5,-75.7 261.5,-94.7 310.5,-94.7 310.5,-75.7 261.5,-75.7"/>
<polygon fill="none" stroke="#000000" points="261.5,-75.7 261.5,-94.7 310.5,-94.7 310.5,-75.7 261.5,-75.7"/>
<text text-anchor="start" x="301.3862" y="-81.8" font-family="Helvetica,sans-Serif" font-size="11.00" fill="#000000"> &#160;</text>
<polygon fill="#ffffff" stroke="transparent" points="310.5,-75.7 310.5,-94.7 371.5,-94.7 371.5,-75.7 310.5,-75.7"/>
<polygon fill="none" stroke="#000000" points="310.5,-75.7 310.5,-94.7 371.5,-94.7 371.5,-75.7 310.5,-75.7"/>
<text text-anchor="start" x="352.9053" y="-81.8" font-family="Helvetica,sans-Serif" font-size="11.00" fill="#000000">0 &gt;</text>
<polygon fill="none" stroke="#000000" stroke-width="2" points="203,-74.7 203,-228.7 372,-228.7 372,-74.7 203,-74.7"/>
</a>
</g>
</g>
<!-- stops -->
<g id="node2" class="node">
<title>stops</title>
<g id="a_node2"><a xlink:href="../../tables/stops.html" xlink:title="stops" target="_top">
<polygon fill="#ffffff" stroke="transparent" points="8,-38.2 8,-121.2 153,-121.2 153,-38.2 8,-38.2"/>
<polygon fill="#f5f5f5" stroke="transparent" points="8.5,-97.7 8.5,-120.7 153.5,-120.7 153.5,-97.7 8.5,-97.7"/>
<polygon fill="none" stroke="#000000" points="8.5,-97.7 8.5,-120.7 153.5,-120.7 153.5,-97.7 8.5,-97.7"/>
<text text-anchor="start" x="13.5" y="-106.3" font-family="Helvetica,sans-Serif" font-weight="bold" font-size="11.00" fill="#000000">stops</text>
<text text-anchor="start" x="118.5437" y="-105.8" font-family="Helvetica,sans-Serif" font-size="11.00" fill="#000000">[table]</text>
<polygon fill="none" stroke="#000000" points="8.5,-75.7 8.5,-97.7 153.5,-97.7 153.5,-75.7 8.5,-75.7"/>
<image xlink:href="../../images/primaryKeys.png" width="11px" height="12px" preserveAspectRatio="xMinYMin meet" x="13.5" y="-92.7"/>
<text text-anchor="start" x="28.5" y="-82.8" font-family="Helvetica,sans-Serif" font-size="11.00" fill="#000000">stop_id</text>
<polygon fill="none" stroke="#000000" points="8.5,-56.7 8.5,-75.7 153.5,-75.7 153.5,-56.7 8.5,-56.7"/>
<text text-anchor="start" x="11.5" y="-62.8" font-family="Helvetica,sans-Serif" font-size="11.00" fill="#000000">...</text>
<polygon fill="#ffffff" stroke="transparent" points="8.5,-37.7 8.5,-56.7 70.5,-56.7 70.5,-37.7 8.5,-37.7"/>
<polygon fill="none" stroke="#000000" points="8.5,-37.7 8.5,-56.7 70.5,-56.7 70.5,-37.7 8.5,-37.7"/>
<text text-anchor="start" x="11.5" y="-43.8" font-family="Helvetica,sans-Serif" font-size="11.00" fill="#000000"> &#160;</text>
<polygon fill="#ffffff" stroke="transparent" points="70.5,-37.7 70.5,-56.7 107.5,-56.7 107.5,-37.7 70.5,-37.7"/>
<polygon fill="none" stroke="#000000" points="70.5,-37.7 70.5,-56.7 107.5,-56.7 107.5,-37.7 70.5,-37.7"/>
<text text-anchor="start" x="98.3862" y="-43.8" font-family="Helvetica,sans-Serif" font-size="11.00" fill="#000000"> &#160;</text>
<polygon fill="#ffffff" stroke="transparent" points="107.5,-37.7 107.5,-56.7 153.5,-56.7 153.5,-37.7 107.5,-37.7"/>
<polygon fill="none" stroke="#000000" points="107.5,-37.7 107.5,-56.7 153.5,-56.7 153.5,-37.7 107.5,-37.7"/>
<text text-anchor="start" x="134.9053" y="-43.8" font-family="Helvetica,sans-Serif" font-size="11.00" fill="#000000">5 &gt;</text>
</a>
</g>
</g>
<!-- fare_rules&#45;&gt;stops -->
<g id="edge1" class="edge">
<title>fare_rules:w&#45;&gt;stops:e</title>
<path fill="none" stroke="#000000" d="M190.6568,-123.3123C176.8325,-112.7354 176.6756,-86.7 153.5,-86.7"/>
<polygon fill="#000000" stroke="#000000" points="196.8739,-125.2828 203.4123,-131.1317 200.6869,-126.4914 204.5,-127.7 204.5,-127.7 204.5,-127.7 200.6869,-126.4914 205.5877,-124.2683 196.8739,-125.2828 196.8739,-125.2828"/>
<ellipse fill="none" stroke="#000000" cx="193.8235" cy="-124.3159" rx="3.2" ry="3.2"/>
</g>
<!-- fare_rules&#45;&gt;stops -->
<g id="edge3" class="edge">
<title>fare_rules:w&#45;&gt;stops:e</title>
<path fill="none" stroke="#000000" d="M190.4033,-144.7565C174.025,-129.9048 183.3329,-86.7 153.5,-86.7"/>
<polygon fill="#000000" stroke="#000000" points="196.9507,-147.0526 203.3087,-153.0972 200.7254,-148.3763 204.5,-149.7 204.5,-149.7 204.5,-149.7 200.7254,-148.3763 205.6913,-146.3028 196.9507,-147.0526 196.9507,-147.0526"/>
<ellipse fill="none" stroke="#000000" cx="193.931" cy="-145.9936" rx="3.2" ry="3.2"/>
</g>
<!-- fare_attributes -->
<g id="node3" class="node">
<title>fare_attributes</title>
<g id="a_node3"><a xlink:href="../../tables/fare_attributes.html" xlink:title="fare_attributes" target="_top">
<polygon fill="#ffffff" stroke="transparent" points="16.5,-268.2 16.5,-351.2 144.5,-351.2 144.5,-268.2 16.5,-268.2"/>
<polygon fill="#f5f5f5" stroke="transparent" points="16.5,-327.7 16.5,-350.7 144.5,-350.7 144.5,-327.7 16.5,-327.7"/>
<polygon fill="none" stroke="#000000" points="16.5,-327.7 16.5,-350.7 144.5,-350.7 144.5,-327.7 16.5,-327.7"/>
<text text-anchor="start" x="21.5" y="-336.3" font-family="Helvetica,sans-Serif" font-weight="bold" font-size="11.00" fill="#000000">fare_attributes</text>
<text text-anchor="start" x="110.0219" y="-335.8" font-family="Helvetica,sans-Serif" font-size="11.00" fill="#000000">[table]</text>
<polygon fill="none" stroke="#000000" points="16.5,-305.7 16.5,-327.7 144.5,-327.7 144.5,-305.7 16.5,-305.7"/>
<image xlink:href="../../images/primaryKeys.png" width="11px" height="12px" preserveAspectRatio="xMinYMin meet" x="21.5" y="-322.7"/>
<text text-anchor="start" x="37.5" y="-312.8" font-family="Helvetica,sans-Serif" font-size="11.00" fill="#000000">fare_id</text>
<polygon fill="none" stroke="#000000" points="16.5,-286.7 16.5,-305.7 144.5,-305.7 144.5,-286.7 16.5,-286.7"/>
<text text-anchor="start" x="19.5" y="-292.8" font-family="Helvetica,sans-Serif" font-size="11.00" fill="#000000">...</text>
<polygon fill="#ffffff" stroke="transparent" points="16.5,-267.7 16.5,-286.7 69.5,-286.7 69.5,-267.7 16.5,-267.7"/>
<polygon fill="none" stroke="#000000" points="16.5,-267.7 16.5,-286.7 69.5,-286.7 69.5,-267.7 16.5,-267.7"/>
<text text-anchor="start" x="19.5" y="-273.8" font-family="Helvetica,sans-Serif" font-size="11.00" fill="#000000"> &#160;</text>
<polygon fill="#ffffff" stroke="transparent" points="69.5,-267.7 69.5,-286.7 102.5,-286.7 102.5,-267.7 69.5,-267.7"/>
<polygon fill="none" stroke="#000000" points="69.5,-267.7 69.5,-286.7 102.5,-286.7 102.5,-267.7 69.5,-267.7"/>
<text text-anchor="start" x="93.3862" y="-273.8" font-family="Helvetica,sans-Serif" font-size="11.00" fill="#000000"> &#160;</text>
<polygon fill="#ffffff" stroke="transparent" points="102.5,-267.7 102.5,-286.7 144.5,-286.7 144.5,-267.7 102.5,-267.7"/>
<polygon fill="none" stroke="#000000" points="102.5,-267.7 102.5,-286.7 144.5,-286.7 144.5,-267.7 102.5,-267.7"/>
<text text-anchor="start" x="125.9053" y="-273.8" font-family="Helvetica,sans-Serif" font-size="11.00" fill="#000000">1 &gt;</text>
</a>
</g>
</g>
<!-- fare_rules&#45;&gt;fare_attributes -->
<g id="edge2" class="edge">
<title>fare_rules:w&#45;&gt;fare_attributes:e</title>
<path fill="none" stroke="#000000" d="M194.1999,-195.167C151.1141,-209.0445 201.4037,-316.7 144.5,-316.7"/>
<polygon fill="#000000" stroke="#000000" points="203.1439,-189.8528 204.272,-197.7728 202.688,-197.9985 201.5599,-190.0784 203.1439,-189.8528"/>
<polyline fill="none" stroke="#000000" points="204.5,-193.7 200.54,-194.2641 "/>
<ellipse fill="none" stroke="#000000" cx="197.3719" cy="-194.7153" rx="3.2" ry="3.2"/>
</g>
<!-- routes -->
<g id="node4" class="node">
<title>routes</title>
<g id="a_node4"><a xlink:href="../../tables/routes.html" xlink:title="routes" target="_top">
<polygon fill="#ffffff" stroke="transparent" points="15,-142.2 15,-247.2 146,-247.2 146,-142.2 15,-142.2"/>
<polygon fill="#f5f5f5" stroke="transparent" points="15.5,-223.7 15.5,-246.7 146.5,-246.7 146.5,-223.7 15.5,-223.7"/>
<polygon fill="none" stroke="#000000" points="15.5,-223.7 15.5,-246.7 146.5,-246.7 146.5,-223.7 15.5,-223.7"/>
<text text-anchor="start" x="20.5" y="-232.3" font-family="Helvetica,sans-Serif" font-weight="bold" font-size="11.00" fill="#000000">routes</text>
<text text-anchor="start" x="111.5437" y="-231.8" font-family="Helvetica,sans-Serif" font-size="11.00" fill="#000000">[table]</text>
<polygon fill="none" stroke="#000000" points="15.5,-201.7 15.5,-223.7 146.5,-223.7 146.5,-201.7 15.5,-201.7"/>
<image xlink:href="../../images/primaryKeys.png" width="11px" height="12px" preserveAspectRatio="xMinYMin meet" x="20.5" y="-218.7"/>
<text text-anchor="start" x="35.5" y="-208.8" font-family="Helvetica,sans-Serif" font-size="11.00" fill="#000000">route_id</text>
<polygon fill="none" stroke="#000000" points="15.5,-179.7 15.5,-201.7 146.5,-201.7 146.5,-179.7 15.5,-179.7"/>
<image xlink:href="../../images/foreignKeys.png" width="11px" height="12px" preserveAspectRatio="xMinYMin meet" x="20.5" y="-196.7"/>
<text text-anchor="start" x="35.5" y="-186.8" font-family="Helvetica,sans-Serif" font-size="11.00" fill="#000000">agency_id</text>
<polygon fill="none" stroke="#000000" points="15.5,-160.7 15.5,-179.7 146.5,-179.7 146.5,-160.7 15.5,-160.7"/>
<text text-anchor="start" x="18.5" y="-166.8" font-family="Helvetica,sans-Serif" font-size="11.00" fill="#000000">...</text>
<polygon fill="#ffffff" stroke="transparent" points="15.5,-141.7 15.5,-160.7 74.5,-160.7 74.5,-141.7 15.5,-141.7"/>
<polygon fill="none" stroke="#000000" points="15.5,-141.7 15.5,-160.7 74.5,-160.7 74.5,-141.7 15.5,-141.7"/>
<text text-anchor="start" x="18.5" y="-147.8" font-family="Helvetica,sans-Serif" font-size="11.00" fill="#000000">&lt; 1</text>
<polygon fill="#ffffff" stroke="transparent" points="74.5,-141.7 74.5,-160.7 105.5,-160.7 105.5,-141.7 74.5,-141.7"/>
<polygon fill="none" stroke="#000000" points="74.5,-141.7 74.5,-160.7 105.5,-160.7 105.5,-141.7 74.5,-141.7"/>
<text text-anchor="start" x="96.3862" y="-147.8" font-family="Helvetica,sans-Serif" font-size="11.00" fill="#000000"> &#160;</text>
<polygon fill="#ffffff" stroke="transparent" points="105.5,-141.7 105.5,-160.7 146.5,-160.7 146.5,-141.7 105.5,-141.7"/>
<polygon fill="none" stroke="#000000" points="105.5,-141.7 105.5,-160.7 146.5,-160.7 146.5,-141.7 105.5,-141.7"/>
<text text-anchor="start" x="127.9053" y="-147.8" font-family="Helvetica,sans-Serif" font-size="11.00" fill="#000000">2 &gt;</text>
</a>
</g>
</g>
<!-- fare_rules&#45;&gt;routes -->
<g id="edge4" class="edge">
<title>fare_rules:w&#45;&gt;routes:e</title>
<path fill="none" stroke="#000000" d="M190.1302,-175.4837C173.5676,-185.6336 172.1491,-212.7 146.5,-212.7"/>
<polygon fill="#000000" stroke="#000000" points="196.7637,-173.7371 205.4167,-175.1813 200.6318,-172.7185 204.5,-171.7 204.5,-171.7 204.5,-171.7 200.6318,-172.7185 203.5833,-168.2187 196.7637,-173.7371 196.7637,-173.7371"/>
<ellipse fill="none" stroke="#000000" cx="193.6692" cy="-174.5519" rx="3.2" ry="3.2"/>
</g>
</g>
</svg>
