<?xml version="1.0" encoding="UTF-8" standalone="no"?>
<!DOCTYPE svg PUBLIC "-//W3C//DTD SVG 1.1//EN"
 "http://www.w3.org/Graphics/SVG/1.1/DTD/svg11.dtd">
<!-- Generated by graphviz version 2.40.1 (20161225.0304)
 -->
<!-- Title: twoDegreesRelationshipsDiagram Pages: 1 -->
<svg width="699pt" height="371pt"
 viewBox="0.00 0.00 699.00 370.70" xmlns="http://www.w3.org/2000/svg" xmlns:xlink="http://www.w3.org/1999/xlink">
<g id="graph0" class="graph" transform="scale(1 1) rotate(0) translate(4 366.7)">
<title>twoDegreesRelationshipsDiagram</title>
<polygon fill="#ffffff" stroke="transparent" points="-4,4 -4,-366.7 695,-366.7 695,4 -4,4"/>
<text text-anchor="middle" x="72.4936" y="-7.3" font-family="Helvetica,sans-Serif" font-size="11.00" fill="#000000">Generated by SchemaSpy</text>
<!-- fare_rules -->
<g id="node1" class="node">
<title>fare_rules</title>
<g id="a_node1"><a xlink:href="../../tables/fare_rules.html" xlink:title="fare_rules" target="_top">
<polygon fill="#ffffff" stroke="transparent" points="512,-202.7 512,-358.7 683,-358.7 683,-202.7 512,-202.7"/>
<polygon fill="#f5f5f5" stroke="transparent" points="514.5,-333.7 514.5,-356.7 681.5,-356.7 681.5,-333.7 514.5,-333.7"/>
<polygon fill="none" stroke="#000000" points="514.5,-333.7 514.5,-356.7 681.5,-356.7 681.5,-333.7 514.5,-333.7"/>
<text text-anchor="start" x="519.5" y="-342.3" font-family="Helvetica,sans-Serif" font-weight="bold" font-size="11.00" fill="#000000">fare_rules</text>
<text text-anchor="start" x="646.5437" y="-341.8" font-family="Helvetica,sans-Serif" font-size="11.00" fill="#000000">[table]</text>
<polygon fill="none" stroke="#000000" points="514.5,-311.7 514.5,-333.7 620.5,-333.7 620.5,-311.7 514.5,-311.7"/>
<image xlink:href="../../images/primaryKeys.png" width="11px" height="12px" preserveAspectRatio="xMinYMin meet" x="519.5" y="-328.7"/>
<text text-anchor="start" x="534.5" y="-318.8" font-family="Helvetica,sans-Serif" font-size="11.00" fill="#000000">fare_id</text>
<polygon fill="none" stroke="#000000" points="620.5,-311.7 620.5,-333.7 681.5,-333.7 681.5,-311.7 620.5,-311.7"/>
<text text-anchor="start" x="623.494" y="-319.4" font-family="Helvetica,sans-Serif" font-size="11.00" fill="#000000">varchar[64]</text>
<polygon fill="none" stroke="#000000" points="514.5,-289.7 514.5,-311.7 620.5,-311.7 620.5,-289.7 514.5,-289.7"/>
<image xlink:href="../../images/foreignKeys.png" width="11px" height="12px" preserveAspectRatio="xMinYMin meet" x="519.5" y="-306.7"/>
<text text-anchor="start" x="534.5" y="-296.8" font-family="Helvetica,sans-Serif" font-size="11.00" fill="#000000">route_id</text>
<polygon fill="none" stroke="#000000" points="620.5,-289.7 620.5,-311.7 681.5,-311.7 681.5,-289.7 620.5,-289.7"/>
<text text-anchor="start" x="623.494" y="-297.4" font-family="Helvetica,sans-Serif" font-size="11.00" fill="#000000">varchar[64]</text>
<polygon fill="none" stroke="#000000" points="514.5,-267.7 514.5,-289.7 620.5,-289.7 620.5,-267.7 514.5,-267.7"/>
<image xlink:href="../../images/foreignKeys.png" width="11px" height="12px" preserveAspectRatio="xMinYMin meet" x="519.5" y="-284.7"/>
<text text-anchor="start" x="534.5" y="-274.8" font-family="Helvetica,sans-Serif" font-size="11.00" fill="#000000">origin_id</text>
<polygon fill="none" stroke="#000000" points="620.5,-267.7 620.5,-289.7 681.5,-289.7 681.5,-267.7 620.5,-267.7"/>
<text text-anchor="start" x="623.494" y="-275.4" font-family="Helvetica,sans-Serif" font-size="11.00" fill="#000000">varchar[64]</text>
<polygon fill="none" stroke="#000000" points="514.5,-245.7 514.5,-267.7 620.5,-267.7 620.5,-245.7 514.5,-245.7"/>
<image xlink:href="../../images/foreignKeys.png" width="11px" height="12px" preserveAspectRatio="xMinYMin meet" x="519.5" y="-262.7"/>
<text text-anchor="start" x="534.5" y="-252.8" font-family="Helvetica,sans-Serif" font-size="11.00" fill="#000000">destination_id</text>
<polygon fill="none" stroke="#000000" points="620.5,-245.7 620.5,-267.7 681.5,-267.7 681.5,-245.7 620.5,-245.7"/>
<text text-anchor="start" x="623.494" y="-253.4" font-family="Helvetica,sans-Serif" font-size="11.00" fill="#000000">varchar[64]</text>
<polygon fill="none" stroke="#000000" points="514.5,-223.7 514.5,-245.7 620.5,-245.7 620.5,-223.7 514.5,-223.7"/>
<text text-anchor="start" x="534.5" y="-230.8" font-family="Helvetica,sans-Serif" font-size="11.00" fill="#000000">contains_id</text>
<polygon fill="none" stroke="#000000" points="620.5,-223.7 620.5,-245.7 681.5,-245.7 681.5,-223.7 620.5,-223.7"/>
<text text-anchor="start" x="623.494" y="-231.4" font-family="Helvetica,sans-Serif" font-size="11.00" fill="#000000">varchar[64]</text>
<polygon fill="#ffffff" stroke="transparent" points="514.5,-204.7 514.5,-223.7 571.5,-223.7 571.5,-204.7 514.5,-204.7"/>
<polygon fill="none" stroke="#000000" points="514.5,-204.7 514.5,-223.7 571.5,-223.7 571.5,-204.7 514.5,-204.7"/>
<text text-anchor="start" x="517.5" y="-210.8" font-family="Helvetica,sans-Serif" font-size="11.00" fill="#000000">&lt; 4</text>
<polygon fill="#ffffff" stroke="transparent" points="571.5,-204.7 571.5,-223.7 620.5,-223.7 620.5,-204.7 571.5,-204.7"/>
<polygon fill="none" stroke="#000000" points="571.5,-204.7 571.5,-223.7 620.5,-223.7 620.5,-204.7 571.5,-204.7"/>
<text text-anchor="start" x="611.3862" y="-210.8" font-family="Helvetica,sans-Serif" font-size="11.00" fill="#000000"> &#160;</text>
<polygon fill="#ffffff" stroke="transparent" points="620.5,-204.7 620.5,-223.7 681.5,-223.7 681.5,-204.7 620.5,-204.7"/>
<polygon fill="none" stroke="#000000" points="620.5,-204.7 620.5,-223.7 681.5,-223.7 681.5,-204.7 620.5,-204.7"/>
<text text-anchor="start" x="662.9053" y="-210.8" font-family="Helvetica,sans-Serif" font-size="11.00" fill="#000000">0 &gt;</text>
<polygon fill="none" stroke="#000000" stroke-width="2" points="513,-203.7 513,-357.7 682,-357.7 682,-203.7 513,-203.7"/>
</a>
</g>
</g>
<!-- stops -->
<g id="node2" class="node">
<title>stops</title>
<g id="a_node2"><a xlink:href="../../tables/stops.html" xlink:title="stops" target="_top">
<polygon fill="#ffffff" stroke="transparent" points="318,-120.2 318,-203.2 463,-203.2 463,-120.2 318,-120.2"/>
<polygon fill="#f5f5f5" stroke="transparent" points="318.5,-179.7 318.5,-202.7 463.5,-202.7 463.5,-179.7 318.5,-179.7"/>
<polygon fill="none" stroke="#000000" points="318.5,-179.7 318.5,-202.7 463.5,-202.7 463.5,-179.7 318.5,-179.7"/>
<text text-anchor="start" x="323.5" y="-188.3" font-family="Helvetica,sans-Serif" font-weight="bold" font-size="11.00" fill="#000000">stops</text>
<text text-anchor="start" x="428.5437" y="-187.8" font-family="Helvetica,sans-Serif" font-size="11.00" fill="#000000">[table]</text>
<polygon fill="none" stroke="#000000" points="318.5,-157.7 318.5,-179.7 463.5,-179.7 463.5,-157.7 318.5,-157.7"/>
<image xlink:href="../../images/primaryKeys.png" width="11px" height="12px" preserveAspectRatio="xMinYMin meet" x="323.5" y="-174.7"/>
<text text-anchor="start" x="338.5" y="-164.8" font-family="Helvetica,sans-Serif" font-size="11.00" fill="#000000">stop_id</text>
<polygon fill="none" stroke="#000000" points="318.5,-138.7 318.5,-157.7 463.5,-157.7 463.5,-138.7 318.5,-138.7"/>
<text text-anchor="start" x="321.5" y="-144.8" font-family="Helvetica,sans-Serif" font-size="11.00" fill="#000000">...</text>
<polygon fill="#ffffff" stroke="transparent" points="318.5,-119.7 318.5,-138.7 380.5,-138.7 380.5,-119.7 318.5,-119.7"/>
<polygon fill="none" stroke="#000000" points="318.5,-119.7 318.5,-138.7 380.5,-138.7 380.5,-119.7 318.5,-119.7"/>
<text text-anchor="start" x="321.5" y="-125.8" font-family="Helvetica,sans-Serif" font-size="11.00" fill="#000000"> &#160;</text>
<polygon fill="#ffffff" stroke="transparent" points="380.5,-119.7 380.5,-138.7 417.5,-138.7 417.5,-119.7 380.5,-119.7"/>
<polygon fill="none" stroke="#000000" points="380.5,-119.7 380.5,-138.7 417.5,-138.7 417.5,-119.7 380.5,-119.7"/>
<text text-anchor="start" x="408.3862" y="-125.8" font-family="Helvetica,sans-Serif" font-size="11.00" fill="#000000"> &#160;</text>
<polygon fill="#ffffff" stroke="transparent" points="417.5,-119.7 417.5,-138.7 463.5,-138.7 463.5,-119.7 417.5,-119.7"/>
<polygon fill="none" stroke="#000000" points="417.5,-119.7 417.5,-138.7 463.5,-138.7 463.5,-119.7 417.5,-119.7"/>
<text text-anchor="start" x="444.9053" y="-125.8" font-family="Helvetica,sans-Serif" font-size="11.00" fill="#000000">5 &gt;</text>
</a>
</g>
</g>
<!-- fare_rules&#45;&gt;stops -->
<g id="edge1" class="edge">
<title>fare_rules:w&#45;&gt;stops:e</title>
<path fill="none" stroke="#000000" d="M500.5699,-252.4556C478.2709,-234.8772 502.7009,-168.7 463.5,-168.7"/>
<polygon fill="#000000" stroke="#000000" points="506.8473,-254.3682 513.4507,-260.1437 510.6737,-255.5341 514.5,-256.7 514.5,-256.7 514.5,-256.7 510.6737,-255.5341 515.5493,-253.2563 506.8473,-254.3682 506.8473,-254.3682"/>
<ellipse fill="none" stroke="#000000" cx="503.7863" cy="-253.4355" rx="3.2" ry="3.2"/>
</g>
<!-- fare_rules&#45;&gt;stops -->
<g id="edge3" class="edge">
<title>fare_rules:w&#45;&gt;stops:e</title>
<path fill="none" stroke="#000000" d="M500.5,-275.0401C471.708,-255.9534 511.4939,-168.7 463.5,-168.7"/>
<polygon fill="#000000" stroke="#000000" points="506.7601,-276.6766 513.5895,-282.183 510.6301,-277.6883 514.5,-278.7 514.5,-278.7 514.5,-278.7 510.6301,-277.6883 515.4105,-275.217 506.7601,-276.6766 506.7601,-276.6766"/>
<ellipse fill="none" stroke="#000000" cx="503.6641" cy="-275.8672" rx="3.2" ry="3.2"/>
</g>
<!-- fare_attributes -->
<g id="node3" class="node">
<title>fare_attributes</title>
<g id="a_node3"><a xlink:href="../../tables/fare_attributes.html" xlink:title="fare_attributes" target="_top">
<polygon fill="#ffffff" stroke="transparent" points="326.5,-274.2 326.5,-357.2 454.5,-357.2 454.5,-274.2 326.5,-274.2"/>
<polygon fill="#f5f5f5" stroke="transparent" points="326.5,-333.7 326.5,-356.7 454.5,-356.7 454.5,-333.7 326.5,-333.7"/>
<polygon fill="none" stroke="#000000" points="326.5,-333.7 326.5,-356.7 454.5,-356.7 454.5,-333.7 326.5,-333.7"/>
<text text-anchor="start" x="331.5" y="-342.3" font-family="Helvetica,sans-Serif" font-weight="bold" font-size="11.00" fill="#000000">fare_attributes</text>
<text text-anchor="start" x="420.0219" y="-341.8" font-family="Helvetica,sans-Serif" font-size="11.00" fill="#000000">[table]</text>
<polygon fill="none" stroke="#000000" points="326.5,-311.7 326.5,-333.7 454.5,-333.7 454.5,-311.7 326.5,-311.7"/>
<image xlink:href="../../images/primaryKeys.png" width="11px" height="12px" preserveAspectRatio="xMinYMin meet" x="331.5" y="-328.7"/>
<text text-anchor="start" x="347.5" y="-318.8" font-family="Helvetica,sans-Serif" font-size="11.00" fill="#000000">fare_id</text>
<polygon fill="none" stroke="#000000" points="326.5,-292.7 326.5,-311.7 454.5,-311.7 454.5,-292.7 326.5,-292.7"/>
<text text-anchor="start" x="329.5" y="-298.8" font-family="Helvetica,sans-Serif" font-size="11.00" fill="#000000">...</text>
<polygon fill="#ffffff" stroke="transparent" points="326.5,-273.7 326.5,-292.7 379.5,-292.7 379.5,-273.7 326.5,-273.7"/>
<polygon fill="none" stroke="#000000" points="326.5,-273.7 326.5,-292.7 379.5,-292.7 379.5,-273.7 326.5,-273.7"/>
<text text-anchor="start" x="329.5" y="-279.8" font-family="Helvetica,sans-Serif" font-size="11.00" fill="#000000"> &#160;</text>
<polygon fill="#ffffff" stroke="transparent" points="379.5,-273.7 379.5,-292.7 412.5,-292.7 412.5,-273.7 379.5,-273.7"/>
<polygon fill="none" stroke="#000000" points="379.5,-273.7 379.5,-292.7 412.5,-292.7 412.5,-273.7 379.5,-273.7"/>
<text text-anchor="start" x="403.3862" y="-279.8" font-family="Helvetica,sans-Serif" font-size="11.00" fill="#000000"> &#160;</text>
<polygon fill="#ffffff" stroke="transparent" points="412.5,-273.7 412.5,-292.7 454.5,-292.7 454.5,-273.7 412.5,-273.7"/>
<polygon fill="none" stroke="#000000" points="412.5,-273.7 412.5,-292.7 454.5,-292.7 454.5,-273.7 412.5,-273.7"/>
<text text-anchor="start" x="435.9053" y="-279.8" font-family="Helvetica,sans-Serif" font-size="11.00" fill="#000000">1 &gt;</text>
</a>
</g>
</g>
<!-- fare_rules&#45;&gt;fare_attributes -->
<g id="edge2" class="edge">
<title>fare_rules:w&#45;&gt;fare_attributes:e</title>
<path fill="none" stroke="#000000" d="M504.0701,-322.7C485.4885,-322.7 477.3125,-322.7 454.5,-322.7"/>
<polygon fill="#000000" stroke="#000000" points="513.7,-318.7 513.7,-326.7 512.1,-326.7 512.1,-318.7 513.7,-318.7"/>
<polyline fill="none" stroke="#000000" points="514.5,-322.7 510.5,-322.7 "/>
<ellipse fill="none" stroke="#000000" cx="507.3" cy="-322.7001" rx="3.2" ry="3.2"/>
</g>
<!-- routes -->
<g id="node4" class="node">
<title>routes</title>
<g id="a_node4"><a xlink:href="../../tables/routes.html" xlink:title="routes" target="_top">
<polygon fill="#ffffff" stroke="transparent" points="138,-81.2 138,-186.2 269,-186.2 269,-81.2 138,-81.2"/>
<polygon fill="#f5f5f5" stroke="transparent" points="138.5,-162.7 138.5,-185.7 269.5,-185.7 269.5,-162.7 138.5,-162.7"/>
<polygon fill="none" stroke="#000000" points="138.5,-162.7 138.5,-185.7 269.5,-185.7 269.5,-162.7 138.5,-162.7"/>
<text text-anchor="start" x="143.5" y="-171.3" font-family="Helvetica,sans-Serif" font-weight="bold" font-size="11.00" fill="#000000">routes</text>
<text text-anchor="start" x="234.5437" y="-170.8" font-family="Helvetica,sans-Serif" font-size="11.00" fill="#000000">[table]</text>
<polygon fill="none" stroke="#000000" points="138.5,-140.7 138.5,-162.7 269.5,-162.7 269.5,-140.7 138.5,-140.7"/>
<image xlink:href="../../images/primaryKeys.png" width="11px" height="12px" preserveAspectRatio="xMinYMin meet" x="143.5" y="-157.7"/>
<text text-anchor="start" x="158.5" y="-147.8" font-family="Helvetica,sans-Serif" font-size="11.00" fill="#000000">route_id</text>
<polygon fill="none" stroke="#000000" points="138.5,-118.7 138.5,-140.7 269.5,-140.7 269.5,-118.7 138.5,-118.7"/>
<image xlink:href="../../images/foreignKeys.png" width="11px" height="12px" preserveAspectRatio="xMinYMin meet" x="143.5" y="-135.7"/>
<text text-anchor="start" x="158.5" y="-125.8" font-family="Helvetica,sans-Serif" font-size="11.00" fill="#000000">agency_id</text>
<polygon fill="none" stroke="#000000" points="138.5,-99.7 138.5,-118.7 269.5,-118.7 269.5,-99.7 138.5,-99.7"/>
<text text-anchor="start" x="141.5" y="-105.8" font-family="Helvetica,sans-Serif" font-size="11.00" fill="#000000">...</text>
<polygon fill="#ffffff" stroke="transparent" points="138.5,-80.7 138.5,-99.7 197.5,-99.7 197.5,-80.7 138.5,-80.7"/>
<polygon fill="none" stroke="#000000" points="138.5,-80.7 138.5,-99.7 197.5,-99.7 197.5,-80.7 138.5,-80.7"/>
<text text-anchor="start" x="141.5" y="-86.8" font-family="Helvetica,sans-Serif" font-size="11.00" fill="#000000">&lt; 1</text>
<polygon fill="#ffffff" stroke="transparent" points="197.5,-80.7 197.5,-99.7 228.5,-99.7 228.5,-80.7 197.5,-80.7"/>
<polygon fill="none" stroke="#000000" points="197.5,-80.7 197.5,-99.7 228.5,-99.7 228.5,-80.7 197.5,-80.7"/>
<text text-anchor="start" x="219.3862" y="-86.8" font-family="Helvetica,sans-Serif" font-size="11.00" fill="#000000"> &#160;</text>
<polygon fill="#ffffff" stroke="transparent" points="228.5,-80.7 228.5,-99.7 269.5,-99.7 269.5,-80.7 228.5,-80.7"/>
<polygon fill="none" stroke="#000000" points="228.5,-80.7 228.5,-99.7 269.5,-99.7 269.5,-80.7 228.5,-80.7"/>
<text text-anchor="start" x="250.9053" y="-86.8" font-family="Helvetica,sans-Serif" font-size="11.00" fill="#000000">2 &gt;</text>
</a>
</g>
</g>
<!-- fare_rules&#45;&gt;routes -->
<g id="edge4" class="edge">
<title>fare_rules:w&#45;&gt;routes:e</title>
<path fill="none" stroke="#000000" d="M500.4565,-296.872C489.568,-289.4392 487.852,-272.9714 471,-263.7 405.3526,-227.5829 369.8002,-258.8438 310,-213.7 283.7311,-193.8694 302.4137,-151.7 269.5,-151.7"/>
<polygon fill="#000000" stroke="#000000" points="506.7816,-298.596 513.5532,-304.1733 510.6408,-299.648 514.5,-300.7 514.5,-300.7 514.5,-300.7 510.6408,-299.648 515.4468,-297.2267 506.7816,-298.596 506.7816,-298.596"/>
<ellipse fill="none" stroke="#000000" cx="503.6943" cy="-297.7545" rx="3.2" ry="3.2"/>
</g>
<!-- agency -->
<g id="node5" class="node">
<title>agency</title>
<g id="a_node5"><a xlink:href="../../tables/agency.html" xlink:title="agency" target="_top">
<polygon fill="#ffffff" stroke="transparent" points="8,-102.2 8,-163.2 89,-163.2 89,-102.2 8,-102.2"/>
<polygon fill="#f5f5f5" stroke="transparent" points="8.5,-139.7 8.5,-162.7 89.5,-162.7 89.5,-139.7 8.5,-139.7"/>
<polygon fill="none" stroke="#000000" points="8.5,-139.7 8.5,-162.7 89.5,-162.7 89.5,-139.7 8.5,-139.7"/>
<text text-anchor="start" x="13.5" y="-148.3" font-family="Helvetica,sans-Serif" font-weight="bold" font-size="11.00" fill="#000000">agency</text>
<text text-anchor="start" x="55.0219" y="-147.8" font-family="Helvetica,sans-Serif" font-size="11.00" fill="#000000">[table]</text>
<polygon fill="none" stroke="#000000" points="8.5,-120.7 8.5,-139.7 89.5,-139.7 89.5,-120.7 8.5,-120.7"/>
<text text-anchor="start" x="11.5" y="-126.8" font-family="Helvetica,sans-Serif" font-size="11.00" fill="#000000">...</text>
<polygon fill="#ffffff" stroke="transparent" points="8.5,-101.7 8.5,-120.7 38.5,-120.7 38.5,-101.7 8.5,-101.7"/>
<polygon fill="none" stroke="#000000" points="8.5,-101.7 8.5,-120.7 38.5,-120.7 38.5,-101.7 8.5,-101.7"/>
<text text-anchor="start" x="11.5" y="-107.8" font-family="Helvetica,sans-Serif" font-size="11.00" fill="#000000"> &#160;</text>
<polygon fill="#ffffff" stroke="transparent" points="38.5,-101.7 38.5,-120.7 59.5,-120.7 59.5,-101.7 38.5,-101.7"/>
<polygon fill="none" stroke="#000000" points="38.5,-101.7 38.5,-120.7 59.5,-120.7 59.5,-101.7 38.5,-101.7"/>
<text text-anchor="start" x="50.3862" y="-107.8" font-family="Helvetica,sans-Serif" font-size="11.00" fill="#000000"> &#160;</text>
<polygon fill="#ffffff" stroke="transparent" points="59.5,-101.7 59.5,-120.7 89.5,-120.7 89.5,-101.7 59.5,-101.7"/>
<polygon fill="none" stroke="#000000" points="59.5,-101.7 59.5,-120.7 89.5,-120.7 89.5,-101.7 59.5,-101.7"/>
<text text-anchor="start" x="70.9053" y="-107.8" font-family="Helvetica,sans-Serif" font-size="11.00" fill="#000000">2 &gt;</text>
</a>
</g>
</g>
<!-- routes&#45;&gt;agency -->
<g id="edge5" class="edge">
<title>routes:w&#45;&gt;agency:e</title>
<path fill="none" stroke="#000000" d="M123.9909,-129.7C112.6774,-129.7 105.4931,-129.7 89.5,-129.7"/>
<polygon fill="#000000" stroke="#000000" points="130.5,-129.7001 138.5,-133.3 134.5,-129.7 138.5,-129.7 138.5,-129.7 138.5,-129.7 134.5,-129.7 138.5,-126.1 130.5,-129.7001 130.5,-129.7001"/>
<ellipse fill="none" stroke="#000000" cx="127.3" cy="-129.7001" rx="3.2" ry="3.2"/>
</g>
<!-- stop_times -->
<g id="node6" class="node">
<title>stop_times</title>
<g id="a_node6"><a xlink:href="../../tables/stop_times.html" xlink:title="stop_times" target="_top">
<polygon fill="#ffffff" stroke="transparent" points="546,-38.2 546,-99.2 649,-99.2 649,-38.2 546,-38.2"/>
<polygon fill="#f5f5f5" stroke="transparent" points="546.5,-75.7 546.5,-98.7 649.5,-98.7 649.5,-75.7 546.5,-75.7"/>
<polygon fill="none" stroke="#000000" points="546.5,-75.7 546.5,-98.7 649.5,-98.7 649.5,-75.7 546.5,-75.7"/>
<text text-anchor="start" x="551.5" y="-84.3" font-family="Helvetica,sans-Serif" font-weight="bold" font-size="11.00" fill="#000000">stop_times</text>
<text text-anchor="start" x="615.0219" y="-83.8" font-family="Helvetica,sans-Serif" font-size="11.00" fill="#000000">[table]</text>
<polygon fill="none" stroke="#000000" points="546.5,-56.7 546.5,-75.7 649.5,-75.7 649.5,-56.7 546.5,-56.7"/>
<text text-anchor="start" x="549.5" y="-62.8" font-family="Helvetica,sans-Serif" font-size="11.00" fill="#000000">...</text>
<polygon fill="#ffffff" stroke="transparent" points="546.5,-37.7 546.5,-56.7 596.5,-56.7 596.5,-37.7 546.5,-37.7"/>
<polygon fill="none" stroke="#000000" points="546.5,-37.7 546.5,-56.7 596.5,-56.7 596.5,-37.7 546.5,-37.7"/>
<text text-anchor="start" x="549.5" y="-43.8" font-family="Helvetica,sans-Serif" font-size="11.00" fill="#000000">&lt; 2</text>
<polygon fill="#ffffff" stroke="transparent" points="596.5,-37.7 596.5,-56.7 622.5,-56.7 622.5,-37.7 596.5,-37.7"/>
<polygon fill="none" stroke="#000000" points="596.5,-37.7 596.5,-56.7 622.5,-56.7 622.5,-37.7 596.5,-37.7"/>
<text text-anchor="start" x="613.3862" y="-43.8" font-family="Helvetica,sans-Serif" font-size="11.00" fill="#000000"> &#160;</text>
<polygon fill="#ffffff" stroke="transparent" points="622.5,-37.7 622.5,-56.7 649.5,-56.7 649.5,-37.7 622.5,-37.7"/>
<polygon fill="none" stroke="#000000" points="622.5,-37.7 622.5,-56.7 649.5,-56.7 649.5,-37.7 622.5,-37.7"/>
<text text-anchor="start" x="640.3862" y="-43.8" font-family="Helvetica,sans-Serif" font-size="11.00" fill="#000000"> &#160;</text>
</a>
</g>
</g>
<!-- stop_times&#45;&gt;stops -->
<g id="edge6" class="edge">
<title>stop_times:w&#45;&gt;stops:e</title>
<path fill="none" stroke="#000000" d="M532.3273,-68.7335C519.2235,-75.6468 517.4355,-93.2481 504,-109.7 483.882,-134.3347 495.3057,-168.7 463.5,-168.7"/>
<polygon fill="#000000" stroke="#000000" points="538.6772,-67.3744 547.2535,-69.2203 542.5886,-66.5372 546.5,-65.7 546.5,-65.7 546.5,-65.7 542.5886,-66.5372 545.7465,-62.1797 538.6772,-67.3744 538.6772,-67.3744"/>
<ellipse fill="none" stroke="#000000" cx="535.5481" cy="-68.0442" rx="3.2" ry="3.2"/>
</g>
<!-- trips -->
<g id="node7" class="node">
<title>trips</title>
<g id="a_node7"><a xlink:href="../../tables/trips.html" xlink:title="trips" target="_top">
<polygon fill="#ffffff" stroke="transparent" points="357.5,-38.2 357.5,-99.2 423.5,-99.2 423.5,-38.2 357.5,-38.2"/>
<polygon fill="#f5f5f5" stroke="transparent" points="357.5,-75.7 357.5,-98.7 423.5,-98.7 423.5,-75.7 357.5,-75.7"/>
<polygon fill="none" stroke="#000000" points="357.5,-75.7 357.5,-98.7 423.5,-98.7 423.5,-75.7 357.5,-75.7"/>
<text text-anchor="start" x="362.5" y="-84.3" font-family="Helvetica,sans-Serif" font-weight="bold" font-size="11.00" fill="#000000">trips</text>
<text text-anchor="start" x="389.0219" y="-83.8" font-family="Helvetica,sans-Serif" font-size="11.00" fill="#000000">[table]</text>
<polygon fill="none" stroke="#000000" points="357.5,-56.7 357.5,-75.7 423.5,-75.7 423.5,-56.7 357.5,-56.7"/>
<text text-anchor="start" x="360.5" y="-62.8" font-family="Helvetica,sans-Serif" font-size="11.00" fill="#000000">...</text>
<polygon fill="#ffffff" stroke="transparent" points="357.5,-37.7 357.5,-56.7 384.5,-56.7 384.5,-37.7 357.5,-37.7"/>
<polygon fill="none" stroke="#000000" points="357.5,-37.7 357.5,-56.7 384.5,-56.7 384.5,-37.7 357.5,-37.7"/>
<text text-anchor="start" x="360.5" y="-43.8" font-family="Helvetica,sans-Serif" font-size="11.00" fill="#000000">&lt; 5</text>
<polygon fill="#ffffff" stroke="transparent" points="384.5,-37.7 384.5,-56.7 399.5,-56.7 399.5,-37.7 384.5,-37.7"/>
<polygon fill="none" stroke="#000000" points="384.5,-37.7 384.5,-56.7 399.5,-56.7 399.5,-37.7 384.5,-37.7"/>
<text text-anchor="start" x="390.3862" y="-43.8" font-family="Helvetica,sans-Serif" font-size="11.00" fill="#000000"> &#160;</text>
<polygon fill="#ffffff" stroke="transparent" points="399.5,-37.7 399.5,-56.7 423.5,-56.7 423.5,-37.7 399.5,-37.7"/>
<polygon fill="none" stroke="#000000" points="399.5,-37.7 399.5,-56.7 423.5,-56.7 423.5,-37.7 399.5,-37.7"/>
<text text-anchor="start" x="404.9053" y="-43.8" font-family="Helvetica,sans-Serif" font-size="11.00" fill="#000000">2 &gt;</text>
</a>
</g>
</g>
<!-- stop_times&#45;&gt;trips -->
<g id="edge7" class="edge">
<title>stop_times:w&#45;&gt;trips:e</title>
<path fill="none" stroke="#000000" d="M531.8594,-65.7C488.8419,-65.7 472.9349,-65.7 423.5,-65.7"/>
<polygon fill="#000000" stroke="#000000" points="538.5,-65.7001 546.5,-69.3 542.5,-65.7 546.5,-65.7 546.5,-65.7 546.5,-65.7 542.5,-65.7 546.5,-62.1 538.5,-65.7001 538.5,-65.7001"/>
<ellipse fill="none" stroke="#000000" cx="535.3" cy="-65.7001" rx="3.2" ry="3.2"/>
</g>
<!-- trips&#45;&gt;routes -->
<g id="edge10" class="edge">
<title>trips:w&#45;&gt;routes:e</title>
<path fill="none" stroke="#000000" d="M343.3084,-68.4219C328.5425,-75.2386 326.3767,-93.6484 310,-109.7 291.4807,-127.8516 295.4315,-151.7 269.5,-151.7"/>
<polygon fill="#000000" stroke="#000000" points="349.6432,-67.207 358.1781,-69.2356 353.5716,-66.4535 357.5,-65.7 357.5,-65.7 357.5,-65.7 353.5716,-66.4535 356.8219,-62.1644 349.6432,-67.207 349.6432,-67.207"/>
<ellipse fill="none" stroke="#000000" cx="346.5005" cy="-67.8097" rx="3.2" ry="3.2"/>
</g>
<!-- transfers -->
<g id="node8" class="node">
<title>transfers</title>
<g id="a_node8"><a xlink:href="../../tables/transfers.html" xlink:title="transfers" target="_top">
<polygon fill="#ffffff" stroke="transparent" points="551,-120.2 551,-181.2 644,-181.2 644,-120.2 551,-120.2"/>
<polygon fill="#f5f5f5" stroke="transparent" points="551.5,-157.7 551.5,-180.7 644.5,-180.7 644.5,-157.7 551.5,-157.7"/>
<polygon fill="none" stroke="#000000" points="551.5,-157.7 551.5,-180.7 644.5,-180.7 644.5,-157.7 551.5,-157.7"/>
<text text-anchor="start" x="556.5" y="-166.3" font-family="Helvetica,sans-Serif" font-weight="bold" font-size="11.00" fill="#000000">transfers</text>
<text text-anchor="start" x="610.0219" y="-165.8" font-family="Helvetica,sans-Serif" font-size="11.00" fill="#000000">[table]</text>
<polygon fill="none" stroke="#000000" points="551.5,-138.7 551.5,-157.7 644.5,-157.7 644.5,-138.7 551.5,-138.7"/>
<text text-anchor="start" x="554.5" y="-144.8" font-family="Helvetica,sans-Serif" font-size="11.00" fill="#000000">...</text>
<polygon fill="#ffffff" stroke="transparent" points="551.5,-119.7 551.5,-138.7 596.5,-138.7 596.5,-119.7 551.5,-119.7"/>
<polygon fill="none" stroke="#000000" points="551.5,-119.7 551.5,-138.7 596.5,-138.7 596.5,-119.7 551.5,-119.7"/>
<text text-anchor="start" x="554.5" y="-125.8" font-family="Helvetica,sans-Serif" font-size="11.00" fill="#000000">&lt; 2</text>
<polygon fill="#ffffff" stroke="transparent" points="596.5,-119.7 596.5,-138.7 620.5,-138.7 620.5,-119.7 596.5,-119.7"/>
<polygon fill="none" stroke="#000000" points="596.5,-119.7 596.5,-138.7 620.5,-138.7 620.5,-119.7 596.5,-119.7"/>
<text text-anchor="start" x="611.3862" y="-125.8" font-family="Helvetica,sans-Serif" font-size="11.00" fill="#000000"> &#160;</text>
<polygon fill="#ffffff" stroke="transparent" points="620.5,-119.7 620.5,-138.7 644.5,-138.7 644.5,-119.7 620.5,-119.7"/>
<polygon fill="none" stroke="#000000" points="620.5,-119.7 620.5,-138.7 644.5,-138.7 644.5,-119.7 620.5,-119.7"/>
<text text-anchor="start" x="635.3862" y="-125.8" font-family="Helvetica,sans-Serif" font-size="11.00" fill="#000000"> &#160;</text>
</a>
</g>
</g>
<!-- transfers&#45;&gt;stops -->
<g id="edge8" class="edge">
<title>transfers:w&#45;&gt;stops:e</title>
<path fill="none" stroke="#000000" d="M537.0528,-146.6398C508.7013,-147.0135 498.369,-163.4969 463.5,-168.7"/>
<polygon fill="#000000" stroke="#000000" points="543.5215,-147.1144 551.2365,-151.2903 547.5107,-147.4072 551.5,-147.7 551.5,-147.7 551.5,-147.7 547.5107,-147.4072 551.7635,-144.1097 543.5215,-147.1144 543.5215,-147.1144"/>
<ellipse fill="none" stroke="#000000" cx="540.33" cy="-146.8802" rx="3.2" ry="3.2"/>
</g>
<!-- transfers&#45;&gt;stops -->
<g id="edge9" class="edge">
<title>transfers:w&#45;&gt;stops:e</title>
<path fill="none" stroke="#000000" d="M537.437,-151.015C508.7939,-159.6488 498.5261,-174.7977 463.5,-168.7"/>
<polygon fill="#000000" stroke="#000000" points="543.7134,-149.5355 552.326,-151.204 547.6067,-148.6178 551.5,-147.7 551.5,-147.7 551.5,-147.7 547.6067,-148.6178 550.674,-144.196 543.7134,-149.5355 543.7134,-149.5355"/>
<ellipse fill="none" stroke="#000000" cx="540.5988" cy="-150.2697" rx="3.2" ry="3.2"/>
</g>
</g>
</svg>
