<?xml version="1.0" encoding="UTF-8" standalone="no"?>
<!DOCTYPE svg PUBLIC "-//W3C//DTD SVG 1.1//EN"
 "http://www.w3.org/Graphics/SVG/1.1/DTD/svg11.dtd">
<!-- Generated by graphviz version 2.40.1 (20161225.0304)
 -->
<!-- Title: oneDegreeRelationshipsDiagram Pages: 1 -->
<svg width="266pt" height="228pt"
 viewBox="0.00 0.00 266.00 228.20" xmlns="http://www.w3.org/2000/svg" xmlns:xlink="http://www.w3.org/1999/xlink">
<g id="graph0" class="graph" transform="scale(1 1) rotate(0) translate(4 224.2)">
<title>oneDegreeRelationshipsDiagram</title>
<polygon fill="#ffffff" stroke="transparent" points="-4,4 -4,-224.2 262,-224.2 262,4 -4,4"/>
<text text-anchor="middle" x="72.4936" y="-7.3" font-family="Helvetica,sans-Serif" font-size="11.00" fill="#000000">Generated by SchemaSpy</text>
<!-- feed_info -->
<g id="node1" class="node">
<title>feed_info</title>
<g id="a_node1"><a xlink:href="../../tables/feed_info.html" xlink:title="feed_info" target="_top">
<polygon fill="#ffffff" stroke="transparent" points="8,-38.2 8,-216.2 250,-216.2 250,-38.2 8,-38.2"/>
<polygon fill="#f5f5f5" stroke="transparent" points="10,-191.2 10,-214.2 248,-214.2 248,-191.2 10,-191.2"/>
<polygon fill="none" stroke="#000000" points="10,-191.2 10,-214.2 248,-214.2 248,-191.2 10,-191.2"/>
<text text-anchor="start" x="15" y="-199.8" font-family="Helvetica,sans-Serif" font-weight="bold" font-size="11.00" fill="#000000">feed_info</text>
<text text-anchor="start" x="213.0437" y="-199.3" font-family="Helvetica,sans-Serif" font-size="11.00" fill="#000000">[table]</text>
<polygon fill="none" stroke="#000000" points="10,-169.2 10,-191.2 158,-191.2 158,-169.2 10,-169.2"/>
<text text-anchor="start" x="30" y="-176.3" font-family="Helvetica,sans-Serif" font-size="11.00" fill="#000000">feed_publisher_name</text>
<polygon fill="none" stroke="#000000" points="158,-169.2 158,-191.2 248,-191.2 248,-169.2 158,-169.2"/>
<text text-anchor="start" x="160.5042" y="-176.9" font-family="Helvetica,sans-Serif" font-size="11.00" fill="#000000">text[2147483647]</text>
<polygon fill="none" stroke="#000000" points="10,-147.2 10,-169.2 158,-169.2 158,-147.2 10,-147.2"/>
<text text-anchor="start" x="30" y="-154.3" font-family="Helvetica,sans-Serif" font-size="11.00" fill="#000000">feed_publisher_url</text>
<polygon fill="none" stroke="#000000" points="158,-147.2 158,-169.2 248,-169.2 248,-147.2 158,-147.2"/>
<text text-anchor="start" x="160.5042" y="-154.9" font-family="Helvetica,sans-Serif" font-size="11.00" fill="#000000">text[2147483647]</text>
<polygon fill="none" stroke="#000000" points="10,-125.2 10,-147.2 158,-147.2 158,-125.2 10,-125.2"/>
<text text-anchor="start" x="30" y="-132.3" font-family="Helvetica,sans-Serif" font-size="11.00" fill="#000000">feed_lang</text>
<polygon fill="none" stroke="#000000" points="158,-125.2 158,-147.2 248,-147.2 248,-125.2 158,-125.2"/>
<text text-anchor="start" x="161" y="-132.9" font-family="Helvetica,sans-Serif" font-size="11.00" fill="#000000">varchar[8]</text>
<polygon fill="none" stroke="#000000" points="10,-103.2 10,-125.2 158,-125.2 158,-103.2 10,-103.2"/>
<text text-anchor="start" x="30" y="-110.3" font-family="Helvetica,sans-Serif" font-size="11.00" fill="#000000">feed_start_date</text>
<polygon fill="none" stroke="#000000" points="158,-103.2 158,-125.2 248,-125.2 248,-103.2 158,-103.2"/>
<text text-anchor="start" x="161" y="-110.9" font-family="Helvetica,sans-Serif" font-size="11.00" fill="#000000">varchar[8]</text>
<polygon fill="none" stroke="#000000" points="10,-81.2 10,-103.2 158,-103.2 158,-81.2 10,-81.2"/>
<text text-anchor="start" x="30" y="-88.3" font-family="Helvetica,sans-Serif" font-size="11.00" fill="#000000">feed_end_date</text>
<polygon fill="none" stroke="#000000" points="158,-81.2 158,-103.2 248,-103.2 248,-81.2 158,-81.2"/>
<text text-anchor="start" x="161" y="-88.9" font-family="Helvetica,sans-Serif" font-size="11.00" fill="#000000">varchar[8]</text>
<polygon fill="none" stroke="#000000" points="10,-59.2 10,-81.2 158,-81.2 158,-59.2 10,-59.2"/>
<text text-anchor="start" x="30" y="-66.3" font-family="Helvetica,sans-Serif" font-size="11.00" fill="#000000">feed_version</text>
<polygon fill="none" stroke="#000000" points="158,-59.2 158,-81.2 248,-81.2 248,-59.2 158,-59.2"/>
<text text-anchor="start" x="161" y="-66.9" font-family="Helvetica,sans-Serif" font-size="11.00" fill="#000000">varchar[32]</text>
<polygon fill="#ffffff" stroke="transparent" points="10,-40.2 10,-59.2 88,-59.2 88,-40.2 10,-40.2"/>
<polygon fill="none" stroke="#000000" points="10,-40.2 10,-59.2 88,-59.2 88,-40.2 10,-40.2"/>
<text text-anchor="start" x="13" y="-46.3" font-family="Helvetica,sans-Serif" font-size="11.00" fill="#000000">&lt; 0</text>
<polygon fill="#ffffff" stroke="transparent" points="88,-40.2 88,-59.2 158,-59.2 158,-40.2 88,-40.2"/>
<polygon fill="none" stroke="#000000" points="88,-40.2 88,-59.2 158,-59.2 158,-40.2 88,-40.2"/>
<text text-anchor="start" x="148.8862" y="-46.3" font-family="Helvetica,sans-Serif" font-size="11.00" fill="#000000"> &#160;</text>
<polygon fill="#ffffff" stroke="transparent" points="158,-40.2 158,-59.2 248,-59.2 248,-40.2 158,-40.2"/>
<polygon fill="none" stroke="#000000" points="158,-40.2 158,-59.2 248,-59.2 248,-40.2 158,-40.2"/>
<text text-anchor="start" x="229.4053" y="-46.3" font-family="Helvetica,sans-Serif" font-size="11.00" fill="#000000">0 &gt;</text>
<polygon fill="none" stroke="#000000" stroke-width="2" points="9,-39.2 9,-215.2 249,-215.2 249,-39.2 9,-39.2"/>
</a>
</g>
</g>
</g>
</svg>
