<?xml version="1.0" encoding="UTF-8" standalone="no"?>
<!DOCTYPE svg PUBLIC "-//W3C//DTD SVG 1.1//EN"
 "http://www.w3.org/Graphics/SVG/1.1/DTD/svg11.dtd">
<!-- Generated by graphviz version 2.40.1 (20161225.0304)
 -->
<!-- Title: oneDegreeRelationshipsDiagram Pages: 1 -->
<svg width="395pt" height="245pt"
 viewBox="0.00 0.00 395.00 244.70" xmlns="http://www.w3.org/2000/svg" xmlns:xlink="http://www.w3.org/1999/xlink">
<g id="graph0" class="graph" transform="scale(1 1) rotate(0) translate(4 240.7)">
<title>oneDegreeRelationshipsDiagram</title>
<polygon fill="#ffffff" stroke="transparent" points="-4,4 -4,-240.7 391,-240.7 391,4 -4,4"/>
<text text-anchor="middle" x="72.4936" y="-7.3" font-family="Helvetica,sans-Serif" font-size="11.00" fill="#000000">Generated by SchemaSpy</text>
<!-- frequencies -->
<g id="node1" class="node">
<title>frequencies</title>
<g id="a_node1"><a xlink:href="../../tables/frequencies.html" xlink:title="frequencies" target="_top">
<polygon fill="#ffffff" stroke="transparent" points="209,-76.7 209,-232.7 379,-232.7 379,-76.7 209,-76.7"/>
<polygon fill="#f5f5f5" stroke="transparent" points="211,-207.7 211,-230.7 377,-230.7 377,-207.7 211,-207.7"/>
<polygon fill="none" stroke="#000000" points="211,-207.7 211,-230.7 377,-230.7 377,-207.7 211,-207.7"/>
<text text-anchor="start" x="216" y="-216.3" font-family="Helvetica,sans-Serif" font-weight="bold" font-size="11.00" fill="#000000">frequencies</text>
<text text-anchor="start" x="342.0437" y="-215.8" font-family="Helvetica,sans-Serif" font-size="11.00" fill="#000000">[table]</text>
<polygon fill="none" stroke="#000000" points="211,-185.7 211,-207.7 316,-207.7 316,-185.7 211,-185.7"/>
<image xlink:href="../../images/foreignKeys.png" width="11px" height="12px" preserveAspectRatio="xMinYMin meet" x="216" y="-202.7"/>
<text text-anchor="start" x="231" y="-192.8" font-family="Helvetica,sans-Serif" font-size="11.00" fill="#000000">trip_id</text>
<polygon fill="none" stroke="#000000" points="316,-185.7 316,-207.7 377,-207.7 377,-185.7 316,-185.7"/>
<text text-anchor="start" x="318.994" y="-193.4" font-family="Helvetica,sans-Serif" font-size="11.00" fill="#000000">varchar[64]</text>
<polygon fill="none" stroke="#000000" points="211,-163.7 211,-185.7 316,-185.7 316,-163.7 211,-163.7"/>
<text text-anchor="start" x="231" y="-170.8" font-family="Helvetica,sans-Serif" font-size="11.00" fill="#000000">start_time</text>
<polygon fill="none" stroke="#000000" points="316,-163.7 316,-185.7 377,-185.7 377,-163.7 316,-163.7"/>
<text text-anchor="start" x="318.994" y="-171.4" font-family="Helvetica,sans-Serif" font-size="11.00" fill="#000000">varchar[16]</text>
<polygon fill="none" stroke="#000000" points="211,-141.7 211,-163.7 316,-163.7 316,-141.7 211,-141.7"/>
<text text-anchor="start" x="231" y="-148.8" font-family="Helvetica,sans-Serif" font-size="11.00" fill="#000000">end_time</text>
<polygon fill="none" stroke="#000000" points="316,-141.7 316,-163.7 377,-163.7 377,-141.7 316,-141.7"/>
<text text-anchor="start" x="318.994" y="-149.4" font-family="Helvetica,sans-Serif" font-size="11.00" fill="#000000">varchar[16]</text>
<polygon fill="none" stroke="#000000" points="211,-119.7 211,-141.7 316,-141.7 316,-119.7 211,-119.7"/>
<text text-anchor="start" x="231" y="-126.8" font-family="Helvetica,sans-Serif" font-size="11.00" fill="#000000">headway_secs</text>
<polygon fill="none" stroke="#000000" points="316,-119.7 316,-141.7 377,-141.7 377,-119.7 316,-119.7"/>
<text text-anchor="start" x="319" y="-127.4" font-family="Helvetica,sans-Serif" font-size="11.00" fill="#000000">int4[10]</text>
<polygon fill="none" stroke="#000000" points="211,-97.7 211,-119.7 316,-119.7 316,-97.7 211,-97.7"/>
<text text-anchor="start" x="231" y="-104.8" font-family="Helvetica,sans-Serif" font-size="11.00" fill="#000000">exact_times</text>
<polygon fill="none" stroke="#000000" points="316,-97.7 316,-119.7 377,-119.7 377,-97.7 316,-97.7"/>
<text text-anchor="start" x="319" y="-105.4" font-family="Helvetica,sans-Serif" font-size="11.00" fill="#000000">int2[5]</text>
<polygon fill="#ffffff" stroke="transparent" points="211,-78.7 211,-97.7 268,-97.7 268,-78.7 211,-78.7"/>
<polygon fill="none" stroke="#000000" points="211,-78.7 211,-97.7 268,-97.7 268,-78.7 211,-78.7"/>
<text text-anchor="start" x="214" y="-84.8" font-family="Helvetica,sans-Serif" font-size="11.00" fill="#000000">&lt; 1</text>
<polygon fill="#ffffff" stroke="transparent" points="268,-78.7 268,-97.7 316,-97.7 316,-78.7 268,-78.7"/>
<polygon fill="none" stroke="#000000" points="268,-78.7 268,-97.7 316,-97.7 316,-78.7 268,-78.7"/>
<text text-anchor="start" x="306.8862" y="-84.8" font-family="Helvetica,sans-Serif" font-size="11.00" fill="#000000"> &#160;</text>
<polygon fill="#ffffff" stroke="transparent" points="316,-78.7 316,-97.7 377,-97.7 377,-78.7 316,-78.7"/>
<polygon fill="none" stroke="#000000" points="316,-78.7 316,-97.7 377,-97.7 377,-78.7 316,-78.7"/>
<text text-anchor="start" x="358.4053" y="-84.8" font-family="Helvetica,sans-Serif" font-size="11.00" fill="#000000">0 &gt;</text>
<polygon fill="none" stroke="#000000" stroke-width="2" points="210,-77.7 210,-231.7 378,-231.7 378,-77.7 210,-77.7"/>
</a>
</g>
</g>
<!-- trips -->
<g id="node2" class="node">
<title>trips</title>
<g id="a_node2"><a xlink:href="../../tables/trips.html" xlink:title="trips" target="_top">
<polygon fill="#ffffff" stroke="transparent" points="8,-38.2 8,-231.2 160,-231.2 160,-38.2 8,-38.2"/>
<polygon fill="#f5f5f5" stroke="transparent" points="8,-207.7 8,-230.7 160,-230.7 160,-207.7 8,-207.7"/>
<polygon fill="none" stroke="#000000" points="8,-207.7 8,-230.7 160,-230.7 160,-207.7 8,-207.7"/>
<text text-anchor="start" x="13" y="-216.3" font-family="Helvetica,sans-Serif" font-weight="bold" font-size="11.00" fill="#000000">trips</text>
<text text-anchor="start" x="125.0437" y="-215.8" font-family="Helvetica,sans-Serif" font-size="11.00" fill="#000000">[table]</text>
<polygon fill="none" stroke="#000000" points="8,-185.7 8,-207.7 160,-207.7 160,-185.7 8,-185.7"/>
<image xlink:href="../../images/primaryKeys.png" width="11px" height="12px" preserveAspectRatio="xMinYMin meet" x="13" y="-202.7"/>
<text text-anchor="start" x="28" y="-192.8" font-family="Helvetica,sans-Serif" font-size="11.00" fill="#000000">trip_id</text>
<polygon fill="none" stroke="#000000" points="8,-163.7 8,-185.7 160,-185.7 160,-163.7 8,-163.7"/>
<image xlink:href="../../images/foreignKeys.png" width="11px" height="12px" preserveAspectRatio="xMinYMin meet" x="13" y="-180.7"/>
<text text-anchor="start" x="28" y="-170.8" font-family="Helvetica,sans-Serif" font-size="11.00" fill="#000000">route_id</text>
<polygon fill="none" stroke="#000000" points="8,-141.7 8,-163.7 160,-163.7 160,-141.7 8,-141.7"/>
<image xlink:href="../../images/foreignKeys.png" width="11px" height="12px" preserveAspectRatio="xMinYMin meet" x="13" y="-158.7"/>
<text text-anchor="start" x="28" y="-148.8" font-family="Helvetica,sans-Serif" font-size="11.00" fill="#000000">service_id</text>
<polygon fill="none" stroke="#000000" points="8,-119.7 8,-141.7 160,-141.7 160,-119.7 8,-119.7"/>
<image xlink:href="../../images/foreignKeys.png" width="11px" height="12px" preserveAspectRatio="xMinYMin meet" x="13" y="-136.7"/>
<text text-anchor="start" x="28" y="-126.8" font-family="Helvetica,sans-Serif" font-size="11.00" fill="#000000">shape_id</text>
<polygon fill="none" stroke="#000000" points="8,-97.7 8,-119.7 160,-119.7 160,-97.7 8,-97.7"/>
<image xlink:href="../../images/foreignKeys.png" width="11px" height="12px" preserveAspectRatio="xMinYMin meet" x="13" y="-114.7"/>
<text text-anchor="start" x="28" y="-104.8" font-family="Helvetica,sans-Serif" font-size="11.00" fill="#000000">jp_office_id</text>
<polygon fill="none" stroke="#000000" points="8,-75.7 8,-97.7 160,-97.7 160,-75.7 8,-75.7"/>
<image xlink:href="../../images/foreignKeys.png" width="11px" height="12px" preserveAspectRatio="xMinYMin meet" x="13" y="-92.7"/>
<text text-anchor="start" x="28" y="-82.8" font-family="Helvetica,sans-Serif" font-size="11.00" fill="#000000">jp_pattern_id</text>
<polygon fill="none" stroke="#000000" points="8,-56.7 8,-75.7 160,-75.7 160,-56.7 8,-56.7"/>
<text text-anchor="start" x="11" y="-62.8" font-family="Helvetica,sans-Serif" font-size="11.00" fill="#000000">...</text>
<polygon fill="#ffffff" stroke="transparent" points="8,-37.7 8,-56.7 78,-56.7 78,-37.7 8,-37.7"/>
<polygon fill="none" stroke="#000000" points="8,-37.7 8,-56.7 78,-56.7 78,-37.7 8,-37.7"/>
<text text-anchor="start" x="11" y="-43.8" font-family="Helvetica,sans-Serif" font-size="11.00" fill="#000000">&lt; 5</text>
<polygon fill="#ffffff" stroke="transparent" points="78,-37.7 78,-56.7 114,-56.7 114,-37.7 78,-37.7"/>
<polygon fill="none" stroke="#000000" points="78,-37.7 78,-56.7 114,-56.7 114,-37.7 78,-37.7"/>
<text text-anchor="start" x="104.8862" y="-43.8" font-family="Helvetica,sans-Serif" font-size="11.00" fill="#000000"> &#160;</text>
<polygon fill="#ffffff" stroke="transparent" points="114,-37.7 114,-56.7 160,-56.7 160,-37.7 114,-37.7"/>
<polygon fill="none" stroke="#000000" points="114,-37.7 114,-56.7 160,-56.7 160,-37.7 114,-37.7"/>
<text text-anchor="start" x="141.4053" y="-43.8" font-family="Helvetica,sans-Serif" font-size="11.00" fill="#000000">2 &gt;</text>
</a>
</g>
</g>
<!-- frequencies&#45;&gt;trips -->
<g id="edge1" class="edge">
<title>frequencies:w&#45;&gt;trips:e</title>
<path fill="none" stroke="#000000" d="M196.276,-196.7C184.2815,-196.7 176.8229,-196.7 160,-196.7"/>
<polygon fill="#000000" stroke="#000000" points="203,-196.7001 211,-200.3 207,-196.7 211,-196.7 211,-196.7 211,-196.7 207,-196.7 211,-193.1 203,-196.7001 203,-196.7001"/>
<ellipse fill="none" stroke="#000000" cx="199.8" cy="-196.7001" rx="3.2" ry="3.2"/>
</g>
</g>
</svg>
