<?xml version="1.0" encoding="UTF-8" standalone="no"?>
<!DOCTYPE svg PUBLIC "-//W3C//DTD SVG 1.1//EN"
 "http://www.w3.org/Graphics/SVG/1.1/DTD/svg11.dtd">
<!-- Generated by graphviz version 2.40.1 (20161225.0304)
 -->
<!-- Title: twoDegreesRelationshipsDiagram Pages: 1 -->
<svg width="544pt" height="439pt"
 viewBox="0.00 0.00 544.00 439.20" xmlns="http://www.w3.org/2000/svg" xmlns:xlink="http://www.w3.org/1999/xlink">
<g id="graph0" class="graph" transform="scale(1 1) rotate(0) translate(4 435.2)">
<title>twoDegreesRelationshipsDiagram</title>
<polygon fill="#ffffff" stroke="transparent" points="-4,4 -4,-435.2 540,-435.2 540,4 -4,4"/>
<text text-anchor="middle" x="72.4936" y="-7.3" font-family="Helvetica,sans-Serif" font-size="11.00" fill="#000000">Generated by SchemaSpy</text>
<!-- frequencies -->
<g id="node1" class="node">
<title>frequencies</title>
<g id="a_node1"><a xlink:href="../../tables/frequencies.html" xlink:title="frequencies" target="_top">
<polygon fill="#ffffff" stroke="transparent" points="358,-263.7 358,-419.7 528,-419.7 528,-263.7 358,-263.7"/>
<polygon fill="#f5f5f5" stroke="transparent" points="360,-394.7 360,-417.7 526,-417.7 526,-394.7 360,-394.7"/>
<polygon fill="none" stroke="#000000" points="360,-394.7 360,-417.7 526,-417.7 526,-394.7 360,-394.7"/>
<text text-anchor="start" x="365" y="-403.3" font-family="Helvetica,sans-Serif" font-weight="bold" font-size="11.00" fill="#000000">frequencies</text>
<text text-anchor="start" x="491.0437" y="-402.8" font-family="Helvetica,sans-Serif" font-size="11.00" fill="#000000">[table]</text>
<polygon fill="none" stroke="#000000" points="360,-372.7 360,-394.7 465,-394.7 465,-372.7 360,-372.7"/>
<image xlink:href="../../images/foreignKeys.png" width="11px" height="12px" preserveAspectRatio="xMinYMin meet" x="365" y="-389.7"/>
<text text-anchor="start" x="380" y="-379.8" font-family="Helvetica,sans-Serif" font-size="11.00" fill="#000000">trip_id</text>
<polygon fill="none" stroke="#000000" points="465,-372.7 465,-394.7 526,-394.7 526,-372.7 465,-372.7"/>
<text text-anchor="start" x="467.994" y="-380.4" font-family="Helvetica,sans-Serif" font-size="11.00" fill="#000000">varchar[64]</text>
<polygon fill="none" stroke="#000000" points="360,-350.7 360,-372.7 465,-372.7 465,-350.7 360,-350.7"/>
<text text-anchor="start" x="380" y="-357.8" font-family="Helvetica,sans-Serif" font-size="11.00" fill="#000000">start_time</text>
<polygon fill="none" stroke="#000000" points="465,-350.7 465,-372.7 526,-372.7 526,-350.7 465,-350.7"/>
<text text-anchor="start" x="468" y="-358.4" font-family="Helvetica,sans-Serif" font-size="11.00" fill="#000000">varchar[8]</text>
<polygon fill="none" stroke="#000000" points="360,-328.7 360,-350.7 465,-350.7 465,-328.7 360,-328.7"/>
<text text-anchor="start" x="380" y="-335.8" font-family="Helvetica,sans-Serif" font-size="11.00" fill="#000000">end_time</text>
<polygon fill="none" stroke="#000000" points="465,-328.7 465,-350.7 526,-350.7 526,-328.7 465,-328.7"/>
<text text-anchor="start" x="468" y="-336.4" font-family="Helvetica,sans-Serif" font-size="11.00" fill="#000000">varchar[8]</text>
<polygon fill="none" stroke="#000000" points="360,-306.7 360,-328.7 465,-328.7 465,-306.7 360,-306.7"/>
<text text-anchor="start" x="380" y="-313.8" font-family="Helvetica,sans-Serif" font-size="11.00" fill="#000000">headway_secs</text>
<polygon fill="none" stroke="#000000" points="465,-306.7 465,-328.7 526,-328.7 526,-306.7 465,-306.7"/>
<text text-anchor="start" x="468" y="-314.4" font-family="Helvetica,sans-Serif" font-size="11.00" fill="#000000">int4[10]</text>
<polygon fill="none" stroke="#000000" points="360,-284.7 360,-306.7 465,-306.7 465,-284.7 360,-284.7"/>
<text text-anchor="start" x="380" y="-291.8" font-family="Helvetica,sans-Serif" font-size="11.00" fill="#000000">exact_times</text>
<polygon fill="none" stroke="#000000" points="465,-284.7 465,-306.7 526,-306.7 526,-284.7 465,-284.7"/>
<text text-anchor="start" x="468" y="-292.4" font-family="Helvetica,sans-Serif" font-size="11.00" fill="#000000">int2[5]</text>
<polygon fill="#ffffff" stroke="transparent" points="360,-265.7 360,-284.7 417,-284.7 417,-265.7 360,-265.7"/>
<polygon fill="none" stroke="#000000" points="360,-265.7 360,-284.7 417,-284.7 417,-265.7 360,-265.7"/>
<text text-anchor="start" x="363" y="-271.8" font-family="Helvetica,sans-Serif" font-size="11.00" fill="#000000">&lt; 1</text>
<polygon fill="#ffffff" stroke="transparent" points="417,-265.7 417,-284.7 465,-284.7 465,-265.7 417,-265.7"/>
<polygon fill="none" stroke="#000000" points="417,-265.7 417,-284.7 465,-284.7 465,-265.7 417,-265.7"/>
<text text-anchor="start" x="455.8862" y="-271.8" font-family="Helvetica,sans-Serif" font-size="11.00" fill="#000000"> &#160;</text>
<polygon fill="#ffffff" stroke="transparent" points="465,-265.7 465,-284.7 526,-284.7 526,-265.7 465,-265.7"/>
<polygon fill="none" stroke="#000000" points="465,-265.7 465,-284.7 526,-284.7 526,-265.7 465,-265.7"/>
<text text-anchor="start" x="507.4053" y="-271.8" font-family="Helvetica,sans-Serif" font-size="11.00" fill="#000000">0 &gt;</text>
<polygon fill="none" stroke="#000000" stroke-width="2" points="359,-264.7 359,-418.7 527,-418.7 527,-264.7 359,-264.7"/>
</a>
</g>
</g>
<!-- trips -->
<g id="node2" class="node">
<title>trips</title>
<g id="a_node2"><a xlink:href="../../tables/trips.html" xlink:title="trips" target="_top">
<polygon fill="#ffffff" stroke="transparent" points="157,-137.2 157,-330.2 309,-330.2 309,-137.2 157,-137.2"/>
<polygon fill="#f5f5f5" stroke="transparent" points="157,-306.7 157,-329.7 309,-329.7 309,-306.7 157,-306.7"/>
<polygon fill="none" stroke="#000000" points="157,-306.7 157,-329.7 309,-329.7 309,-306.7 157,-306.7"/>
<text text-anchor="start" x="162" y="-315.3" font-family="Helvetica,sans-Serif" font-weight="bold" font-size="11.00" fill="#000000">trips</text>
<text text-anchor="start" x="274.0437" y="-314.8" font-family="Helvetica,sans-Serif" font-size="11.00" fill="#000000">[table]</text>
<polygon fill="none" stroke="#000000" points="157,-284.7 157,-306.7 309,-306.7 309,-284.7 157,-284.7"/>
<image xlink:href="../../images/primaryKeys.png" width="11px" height="12px" preserveAspectRatio="xMinYMin meet" x="162" y="-301.7"/>
<text text-anchor="start" x="177" y="-291.8" font-family="Helvetica,sans-Serif" font-size="11.00" fill="#000000">trip_id</text>
<polygon fill="none" stroke="#000000" points="157,-262.7 157,-284.7 309,-284.7 309,-262.7 157,-262.7"/>
<image xlink:href="../../images/foreignKeys.png" width="11px" height="12px" preserveAspectRatio="xMinYMin meet" x="162" y="-279.7"/>
<text text-anchor="start" x="177" y="-269.8" font-family="Helvetica,sans-Serif" font-size="11.00" fill="#000000">route_id</text>
<polygon fill="none" stroke="#000000" points="157,-240.7 157,-262.7 309,-262.7 309,-240.7 157,-240.7"/>
<image xlink:href="../../images/foreignKeys.png" width="11px" height="12px" preserveAspectRatio="xMinYMin meet" x="162" y="-257.7"/>
<text text-anchor="start" x="177" y="-247.8" font-family="Helvetica,sans-Serif" font-size="11.00" fill="#000000">service_id</text>
<polygon fill="none" stroke="#000000" points="157,-218.7 157,-240.7 309,-240.7 309,-218.7 157,-218.7"/>
<image xlink:href="../../images/foreignKeys.png" width="11px" height="12px" preserveAspectRatio="xMinYMin meet" x="162" y="-235.7"/>
<text text-anchor="start" x="177" y="-225.8" font-family="Helvetica,sans-Serif" font-size="11.00" fill="#000000">shape_id</text>
<polygon fill="none" stroke="#000000" points="157,-196.7 157,-218.7 309,-218.7 309,-196.7 157,-196.7"/>
<image xlink:href="../../images/foreignKeys.png" width="11px" height="12px" preserveAspectRatio="xMinYMin meet" x="162" y="-213.7"/>
<text text-anchor="start" x="177" y="-203.8" font-family="Helvetica,sans-Serif" font-size="11.00" fill="#000000">jp_office_id</text>
<polygon fill="none" stroke="#000000" points="157,-174.7 157,-196.7 309,-196.7 309,-174.7 157,-174.7"/>
<image xlink:href="../../images/foreignKeys.png" width="11px" height="12px" preserveAspectRatio="xMinYMin meet" x="162" y="-191.7"/>
<text text-anchor="start" x="177" y="-181.8" font-family="Helvetica,sans-Serif" font-size="11.00" fill="#000000">jp_pattern_id</text>
<polygon fill="none" stroke="#000000" points="157,-155.7 157,-174.7 309,-174.7 309,-155.7 157,-155.7"/>
<text text-anchor="start" x="160" y="-161.8" font-family="Helvetica,sans-Serif" font-size="11.00" fill="#000000">...</text>
<polygon fill="#ffffff" stroke="transparent" points="157,-136.7 157,-155.7 227,-155.7 227,-136.7 157,-136.7"/>
<polygon fill="none" stroke="#000000" points="157,-136.7 157,-155.7 227,-155.7 227,-136.7 157,-136.7"/>
<text text-anchor="start" x="160" y="-142.8" font-family="Helvetica,sans-Serif" font-size="11.00" fill="#000000">&lt; 5</text>
<polygon fill="#ffffff" stroke="transparent" points="227,-136.7 227,-155.7 263,-155.7 263,-136.7 227,-136.7"/>
<polygon fill="none" stroke="#000000" points="227,-136.7 227,-155.7 263,-155.7 263,-136.7 227,-136.7"/>
<text text-anchor="start" x="253.8862" y="-142.8" font-family="Helvetica,sans-Serif" font-size="11.00" fill="#000000"> &#160;</text>
<polygon fill="#ffffff" stroke="transparent" points="263,-136.7 263,-155.7 309,-155.7 309,-136.7 263,-136.7"/>
<polygon fill="none" stroke="#000000" points="263,-136.7 263,-155.7 309,-155.7 309,-136.7 263,-136.7"/>
<text text-anchor="start" x="290.4053" y="-142.8" font-family="Helvetica,sans-Serif" font-size="11.00" fill="#000000">2 &gt;</text>
</a>
</g>
</g>
<!-- frequencies&#45;&gt;trips -->
<g id="edge1" class="edge">
<title>frequencies:w&#45;&gt;trips:e</title>
<path fill="none" stroke="#000000" d="M346.0699,-379.4556C323.7709,-361.8772 348.2009,-295.7 309,-295.7"/>
<polygon fill="#000000" stroke="#000000" points="352.3473,-381.3682 358.9507,-387.1437 356.1737,-382.5341 360,-383.7 360,-383.7 360,-383.7 356.1737,-382.5341 361.0493,-380.2563 352.3473,-381.3682 352.3473,-381.3682"/>
<ellipse fill="none" stroke="#000000" cx="349.2863" cy="-380.4355" rx="3.2" ry="3.2"/>
</g>
<!-- office_jp -->
<g id="node4" class="node">
<title>office_jp</title>
<g id="a_node4"><a xlink:href="../../tables/office_jp.html" xlink:title="office_jp" target="_top">
<polygon fill="#ffffff" stroke="transparent" points="14,-120.2 14,-181.2 102,-181.2 102,-120.2 14,-120.2"/>
<polygon fill="#f5f5f5" stroke="transparent" points="14,-157.7 14,-180.7 102,-180.7 102,-157.7 14,-157.7"/>
<polygon fill="none" stroke="#000000" points="14,-157.7 14,-180.7 102,-180.7 102,-157.7 14,-157.7"/>
<text text-anchor="start" x="19" y="-166.3" font-family="Helvetica,sans-Serif" font-weight="bold" font-size="11.00" fill="#000000">office_jp</text>
<text text-anchor="start" x="67.5219" y="-165.8" font-family="Helvetica,sans-Serif" font-size="11.00" fill="#000000">[table]</text>
<polygon fill="none" stroke="#000000" points="14,-138.7 14,-157.7 102,-157.7 102,-138.7 14,-138.7"/>
<text text-anchor="start" x="17" y="-144.8" font-family="Helvetica,sans-Serif" font-size="11.00" fill="#000000">...</text>
<polygon fill="#ffffff" stroke="transparent" points="14,-119.7 14,-138.7 47,-138.7 47,-119.7 14,-119.7"/>
<polygon fill="none" stroke="#000000" points="14,-119.7 14,-138.7 47,-138.7 47,-119.7 14,-119.7"/>
<text text-anchor="start" x="17" y="-125.8" font-family="Helvetica,sans-Serif" font-size="11.00" fill="#000000"> &#160;</text>
<polygon fill="#ffffff" stroke="transparent" points="47,-119.7 47,-138.7 70,-138.7 70,-119.7 47,-119.7"/>
<polygon fill="none" stroke="#000000" points="47,-119.7 47,-138.7 70,-138.7 70,-119.7 47,-119.7"/>
<text text-anchor="start" x="60.8862" y="-125.8" font-family="Helvetica,sans-Serif" font-size="11.00" fill="#000000"> &#160;</text>
<polygon fill="#ffffff" stroke="transparent" points="70,-119.7 70,-138.7 102,-138.7 102,-119.7 70,-119.7"/>
<polygon fill="none" stroke="#000000" points="70,-119.7 70,-138.7 102,-138.7 102,-119.7 70,-119.7"/>
<text text-anchor="start" x="83.4053" y="-125.8" font-family="Helvetica,sans-Serif" font-size="11.00" fill="#000000">1 &gt;</text>
</a>
</g>
</g>
<!-- trips&#45;&gt;office_jp -->
<g id="edge3" class="edge">
<title>trips:w&#45;&gt;office_jp:e</title>
<path fill="none" stroke="#000000" d="M143.0445,-203.3849C125.0772,-189.6275 132.2402,-147.7 102,-147.7"/>
<polygon fill="#000000" stroke="#000000" points="149.357,-205.3368 155.9365,-211.1393 153.1785,-206.5184 157,-207.7 157,-207.7 157,-207.7 153.1785,-206.5184 158.0635,-204.2607 149.357,-205.3368 149.357,-205.3368"/>
<ellipse fill="none" stroke="#000000" cx="146.2998" cy="-204.3915" rx="3.2" ry="3.2"/>
</g>
<!-- pattern_jp -->
<g id="node5" class="node">
<title>pattern_jp</title>
<g id="a_node5"><a xlink:href="../../tables/pattern_jp.html" xlink:title="pattern_jp" target="_top">
<polygon fill="#ffffff" stroke="transparent" points="8,-38.2 8,-99.2 108,-99.2 108,-38.2 8,-38.2"/>
<polygon fill="#f5f5f5" stroke="transparent" points="8,-75.7 8,-98.7 108,-98.7 108,-75.7 8,-75.7"/>
<polygon fill="none" stroke="#000000" points="8,-75.7 8,-98.7 108,-98.7 108,-75.7 8,-75.7"/>
<text text-anchor="start" x="13" y="-84.3" font-family="Helvetica,sans-Serif" font-weight="bold" font-size="11.00" fill="#000000">pattern_jp</text>
<text text-anchor="start" x="73.5219" y="-83.8" font-family="Helvetica,sans-Serif" font-size="11.00" fill="#000000">[table]</text>
<polygon fill="none" stroke="#000000" points="8,-56.7 8,-75.7 108,-75.7 108,-56.7 8,-56.7"/>
<text text-anchor="start" x="11" y="-62.8" font-family="Helvetica,sans-Serif" font-size="11.00" fill="#000000">...</text>
<polygon fill="#ffffff" stroke="transparent" points="8,-37.7 8,-56.7 47,-56.7 47,-37.7 8,-37.7"/>
<polygon fill="none" stroke="#000000" points="8,-37.7 8,-56.7 47,-56.7 47,-37.7 8,-37.7"/>
<text text-anchor="start" x="11" y="-43.8" font-family="Helvetica,sans-Serif" font-size="11.00" fill="#000000"> &#160;</text>
<polygon fill="#ffffff" stroke="transparent" points="47,-37.7 47,-56.7 73,-56.7 73,-37.7 47,-37.7"/>
<polygon fill="none" stroke="#000000" points="47,-37.7 47,-56.7 73,-56.7 73,-37.7 47,-37.7"/>
<text text-anchor="start" x="63.8862" y="-43.8" font-family="Helvetica,sans-Serif" font-size="11.00" fill="#000000"> &#160;</text>
<polygon fill="#ffffff" stroke="transparent" points="73,-37.7 73,-56.7 108,-56.7 108,-37.7 73,-37.7"/>
<polygon fill="none" stroke="#000000" points="73,-37.7 73,-56.7 108,-56.7 108,-37.7 73,-37.7"/>
<text text-anchor="start" x="89.4053" y="-43.8" font-family="Helvetica,sans-Serif" font-size="11.00" fill="#000000">1 &gt;</text>
</a>
</g>
</g>
<!-- trips&#45;&gt;pattern_jp -->
<g id="edge4" class="edge">
<title>trips:w&#45;&gt;pattern_jp:e</title>
<path fill="none" stroke="#000000" d="M143.0198,-182.238C111.5647,-162.5628 159.7575,-65.7 108,-65.7"/>
<polygon fill="#000000" stroke="#000000" points="149.2346,-183.777 156.1346,-189.1945 153.1173,-184.7385 157,-185.7 157,-185.7 157,-185.7 153.1173,-184.7385 157.8654,-182.2055 149.2346,-183.777 149.2346,-183.777"/>
<ellipse fill="none" stroke="#000000" cx="146.1284" cy="-183.0078" rx="3.2" ry="3.2"/>
</g>
<!-- routes -->
<g id="node6" class="node">
<title>routes</title>
<g id="a_node6"><a xlink:href="../../tables/routes.html" xlink:title="routes" target="_top">
<polygon fill="#ffffff" stroke="transparent" points="19,-366.2 19,-427.2 97,-427.2 97,-366.2 19,-366.2"/>
<polygon fill="#f5f5f5" stroke="transparent" points="19,-403.7 19,-426.7 97,-426.7 97,-403.7 19,-403.7"/>
<polygon fill="none" stroke="#000000" points="19,-403.7 19,-426.7 97,-426.7 97,-403.7 19,-403.7"/>
<text text-anchor="start" x="24" y="-412.3" font-family="Helvetica,sans-Serif" font-weight="bold" font-size="11.00" fill="#000000">routes</text>
<text text-anchor="start" x="62.5219" y="-411.8" font-family="Helvetica,sans-Serif" font-size="11.00" fill="#000000">[table]</text>
<polygon fill="none" stroke="#000000" points="19,-384.7 19,-403.7 97,-403.7 97,-384.7 19,-384.7"/>
<text text-anchor="start" x="22" y="-390.8" font-family="Helvetica,sans-Serif" font-size="11.00" fill="#000000">...</text>
<polygon fill="#ffffff" stroke="transparent" points="19,-365.7 19,-384.7 52,-384.7 52,-365.7 19,-365.7"/>
<polygon fill="none" stroke="#000000" points="19,-365.7 19,-384.7 52,-384.7 52,-365.7 19,-365.7"/>
<text text-anchor="start" x="22" y="-371.8" font-family="Helvetica,sans-Serif" font-size="11.00" fill="#000000">&lt; 1</text>
<polygon fill="#ffffff" stroke="transparent" points="52,-365.7 52,-384.7 70,-384.7 70,-365.7 52,-365.7"/>
<polygon fill="none" stroke="#000000" points="52,-365.7 52,-384.7 70,-384.7 70,-365.7 52,-365.7"/>
<text text-anchor="start" x="60.8862" y="-371.8" font-family="Helvetica,sans-Serif" font-size="11.00" fill="#000000"> &#160;</text>
<polygon fill="#ffffff" stroke="transparent" points="70,-365.7 70,-384.7 97,-384.7 97,-365.7 70,-365.7"/>
<polygon fill="none" stroke="#000000" points="70,-365.7 70,-384.7 97,-384.7 97,-365.7 70,-365.7"/>
<text text-anchor="start" x="78.4053" y="-371.8" font-family="Helvetica,sans-Serif" font-size="11.00" fill="#000000">2 &gt;</text>
</a>
</g>
</g>
<!-- trips&#45;&gt;routes -->
<g id="edge5" class="edge">
<title>trips:w&#45;&gt;routes:e</title>
<path fill="none" stroke="#000000" d="M142.7106,-276.9097C107.8114,-295.9931 150.8054,-393.7 97,-393.7"/>
<polygon fill="#000000" stroke="#000000" points="149.1945,-275.4533 157.789,-277.2125 153.0972,-274.5767 157,-273.7 157,-273.7 157,-273.7 153.0972,-274.5767 156.211,-270.1875 149.1945,-275.4533 149.1945,-275.4533"/>
<ellipse fill="none" stroke="#000000" cx="146.0723" cy="-276.1547" rx="3.2" ry="3.2"/>
</g>
<!-- calendar -->
<g id="node7" class="node">
<title>calendar</title>
<g id="a_node7"><a xlink:href="../../tables/calendar.html" xlink:title="calendar" target="_top">
<polygon fill="#ffffff" stroke="transparent" points="12.5,-284.2 12.5,-345.2 103.5,-345.2 103.5,-284.2 12.5,-284.2"/>
<polygon fill="#f5f5f5" stroke="transparent" points="13,-321.7 13,-344.7 104,-344.7 104,-321.7 13,-321.7"/>
<polygon fill="none" stroke="#000000" points="13,-321.7 13,-344.7 104,-344.7 104,-321.7 13,-321.7"/>
<text text-anchor="start" x="18" y="-330.3" font-family="Helvetica,sans-Serif" font-weight="bold" font-size="11.00" fill="#000000">calendar</text>
<text text-anchor="start" x="69.5219" y="-329.8" font-family="Helvetica,sans-Serif" font-size="11.00" fill="#000000">[table]</text>
<polygon fill="none" stroke="#000000" points="13,-302.7 13,-321.7 104,-321.7 104,-302.7 13,-302.7"/>
<text text-anchor="start" x="16" y="-308.8" font-family="Helvetica,sans-Serif" font-size="11.00" fill="#000000">...</text>
<polygon fill="#ffffff" stroke="transparent" points="13,-283.7 13,-302.7 48,-302.7 48,-283.7 13,-283.7"/>
<polygon fill="none" stroke="#000000" points="13,-283.7 13,-302.7 48,-302.7 48,-283.7 13,-283.7"/>
<text text-anchor="start" x="16" y="-289.8" font-family="Helvetica,sans-Serif" font-size="11.00" fill="#000000"> &#160;</text>
<polygon fill="#ffffff" stroke="transparent" points="48,-283.7 48,-302.7 71,-302.7 71,-283.7 48,-283.7"/>
<polygon fill="none" stroke="#000000" points="48,-283.7 48,-302.7 71,-302.7 71,-283.7 48,-283.7"/>
<text text-anchor="start" x="61.8862" y="-289.8" font-family="Helvetica,sans-Serif" font-size="11.00" fill="#000000"> &#160;</text>
<polygon fill="#ffffff" stroke="transparent" points="71,-283.7 71,-302.7 104,-302.7 104,-283.7 71,-283.7"/>
<polygon fill="none" stroke="#000000" points="71,-283.7 71,-302.7 104,-302.7 104,-283.7 71,-283.7"/>
<text text-anchor="start" x="85.4053" y="-289.8" font-family="Helvetica,sans-Serif" font-size="11.00" fill="#000000">1 &gt;</text>
</a>
</g>
</g>
<!-- trips&#45;&gt;calendar -->
<g id="edge6" class="edge">
<title>trips:w&#45;&gt;calendar:e</title>
<path fill="none" stroke="#000000" d="M142.8708,-256.4081C126.0747,-270.5525 133.4651,-311.7 104,-311.7"/>
<polygon fill="#000000" stroke="#000000" points="149.4103,-254.2291 158.1381,-255.1154 153.2051,-252.9645 157,-251.7 157,-251.7 157,-251.7 153.2051,-252.9645 155.8619,-248.2846 149.4103,-254.2291 149.4103,-254.2291"/>
<ellipse fill="none" stroke="#000000" cx="146.3744" cy="-255.2407" rx="3.2" ry="3.2"/>
</g>
<!-- shapes -->
<g id="node8" class="node">
<title>shapes</title>
<g id="a_node8"><a xlink:href="../../tables/shapes.html" xlink:title="shapes" target="_top">
<polygon fill="#ffffff" stroke="transparent" points="18,-202.2 18,-263.2 98,-263.2 98,-202.2 18,-202.2"/>
<polygon fill="#f5f5f5" stroke="transparent" points="18,-239.7 18,-262.7 98,-262.7 98,-239.7 18,-239.7"/>
<polygon fill="none" stroke="#000000" points="18,-239.7 18,-262.7 98,-262.7 98,-239.7 18,-239.7"/>
<text text-anchor="start" x="23" y="-248.3" font-family="Helvetica,sans-Serif" font-weight="bold" font-size="11.00" fill="#000000">shapes</text>
<text text-anchor="start" x="63.5219" y="-247.8" font-family="Helvetica,sans-Serif" font-size="11.00" fill="#000000">[table]</text>
<polygon fill="none" stroke="#000000" points="18,-220.7 18,-239.7 98,-239.7 98,-220.7 18,-220.7"/>
<text text-anchor="start" x="21" y="-226.8" font-family="Helvetica,sans-Serif" font-size="11.00" fill="#000000">...</text>
<polygon fill="#ffffff" stroke="transparent" points="18,-201.7 18,-220.7 47,-220.7 47,-201.7 18,-201.7"/>
<polygon fill="none" stroke="#000000" points="18,-201.7 18,-220.7 47,-220.7 47,-201.7 18,-201.7"/>
<text text-anchor="start" x="21" y="-207.8" font-family="Helvetica,sans-Serif" font-size="11.00" fill="#000000"> &#160;</text>
<polygon fill="#ffffff" stroke="transparent" points="47,-201.7 47,-220.7 68,-220.7 68,-201.7 47,-201.7"/>
<polygon fill="none" stroke="#000000" points="47,-201.7 47,-220.7 68,-220.7 68,-201.7 47,-201.7"/>
<text text-anchor="start" x="58.8862" y="-207.8" font-family="Helvetica,sans-Serif" font-size="11.00" fill="#000000"> &#160;</text>
<polygon fill="#ffffff" stroke="transparent" points="68,-201.7 68,-220.7 98,-220.7 98,-201.7 68,-201.7"/>
<polygon fill="none" stroke="#000000" points="68,-201.7 68,-220.7 98,-220.7 98,-201.7 68,-201.7"/>
<text text-anchor="start" x="79.4053" y="-207.8" font-family="Helvetica,sans-Serif" font-size="11.00" fill="#000000">1 &gt;</text>
</a>
</g>
</g>
<!-- trips&#45;&gt;shapes -->
<g id="edge7" class="edge">
<title>trips:w&#45;&gt;shapes:e</title>
<path fill="none" stroke="#000000" d="M142.2032,-229.7C126.9686,-229.7 118.4861,-229.7 98,-229.7"/>
<polygon fill="#000000" stroke="#000000" points="149,-229.7001 157,-233.3 153,-229.7 157,-229.7 157,-229.7 157,-229.7 153,-229.7 157,-226.1 149,-229.7001 149,-229.7001"/>
<ellipse fill="none" stroke="#000000" cx="145.8" cy="-229.7001" rx="3.2" ry="3.2"/>
</g>
<!-- stop_times -->
<g id="node3" class="node">
<title>stop_times</title>
<g id="a_node3"><a xlink:href="../../tables/stop_times.html" xlink:title="stop_times" target="_top">
<polygon fill="#ffffff" stroke="transparent" points="391.5,-181.2 391.5,-242.2 494.5,-242.2 494.5,-181.2 391.5,-181.2"/>
<polygon fill="#f5f5f5" stroke="transparent" points="392,-218.7 392,-241.7 495,-241.7 495,-218.7 392,-218.7"/>
<polygon fill="none" stroke="#000000" points="392,-218.7 392,-241.7 495,-241.7 495,-218.7 392,-218.7"/>
<text text-anchor="start" x="397" y="-227.3" font-family="Helvetica,sans-Serif" font-weight="bold" font-size="11.00" fill="#000000">stop_times</text>
<text text-anchor="start" x="460.5219" y="-226.8" font-family="Helvetica,sans-Serif" font-size="11.00" fill="#000000">[table]</text>
<polygon fill="none" stroke="#000000" points="392,-199.7 392,-218.7 495,-218.7 495,-199.7 392,-199.7"/>
<text text-anchor="start" x="395" y="-205.8" font-family="Helvetica,sans-Serif" font-size="11.00" fill="#000000">...</text>
<polygon fill="#ffffff" stroke="transparent" points="392,-180.7 392,-199.7 442,-199.7 442,-180.7 392,-180.7"/>
<polygon fill="none" stroke="#000000" points="392,-180.7 392,-199.7 442,-199.7 442,-180.7 392,-180.7"/>
<text text-anchor="start" x="395" y="-186.8" font-family="Helvetica,sans-Serif" font-size="11.00" fill="#000000">&lt; 2</text>
<polygon fill="#ffffff" stroke="transparent" points="442,-180.7 442,-199.7 468,-199.7 468,-180.7 442,-180.7"/>
<polygon fill="none" stroke="#000000" points="442,-180.7 442,-199.7 468,-199.7 468,-180.7 442,-180.7"/>
<text text-anchor="start" x="458.8862" y="-186.8" font-family="Helvetica,sans-Serif" font-size="11.00" fill="#000000"> &#160;</text>
<polygon fill="#ffffff" stroke="transparent" points="468,-180.7 468,-199.7 495,-199.7 495,-180.7 468,-180.7"/>
<polygon fill="none" stroke="#000000" points="468,-180.7 468,-199.7 495,-199.7 495,-180.7 468,-180.7"/>
<text text-anchor="start" x="485.8862" y="-186.8" font-family="Helvetica,sans-Serif" font-size="11.00" fill="#000000"> &#160;</text>
</a>
</g>
</g>
<!-- stop_times&#45;&gt;trips -->
<g id="edge2" class="edge">
<title>stop_times:w&#45;&gt;trips:e</title>
<path fill="none" stroke="#000000" d="M377.4899,-211.3991C342.7367,-226.0838 356.8043,-295.7 309,-295.7"/>
<polygon fill="#000000" stroke="#000000" points="384.1349,-210.1631 392.6584,-212.2393 388.0675,-209.4315 392,-208.7 392,-208.7 392,-208.7 388.0675,-209.4315 391.3416,-205.1607 384.1349,-210.1631 384.1349,-210.1631"/>
<ellipse fill="none" stroke="#000000" cx="380.9889" cy="-210.7483" rx="3.2" ry="3.2"/>
</g>
</g>
</svg>
