<?xml version="1.0" encoding="UTF-8" standalone="no"?>
<!DOCTYPE svg PUBLIC "-//W3C//DTD SVG 1.1//EN"
 "http://www.w3.org/Graphics/SVG/1.1/DTD/svg11.dtd">
<!-- Generated by graphviz version 2.40.1 (20161225.0304)
 -->
<!-- Title: oneDegreeRelationshipsDiagram Pages: 1 -->
<svg width="416pt" height="271pt"
 viewBox="0.00 0.00 416.00 270.70" xmlns="http://www.w3.org/2000/svg" xmlns:xlink="http://www.w3.org/1999/xlink">
<g id="graph0" class="graph" transform="scale(1 1) rotate(0) translate(4 266.7)">
<title>oneDegreeRelationshipsDiagram</title>
<polygon fill="#ffffff" stroke="transparent" points="-4,4 -4,-266.7 412,-266.7 412,4 -4,4"/>
<text text-anchor="middle" x="72.4936" y="-7.3" font-family="Helvetica,sans-Serif" font-size="11.00" fill="#000000">Generated by SchemaSpy</text>
<!-- trips -->
<g id="node1" class="node">
<title>trips</title>
<g id="a_node1"><a xlink:href="../../tables/trips.html" xlink:title="trips" target="_top">
<polygon fill="#ffffff" stroke="transparent" points="248,-65.7 248,-258.7 400,-258.7 400,-65.7 248,-65.7"/>
<polygon fill="#f5f5f5" stroke="transparent" points="248,-235.2 248,-258.2 400,-258.2 400,-235.2 248,-235.2"/>
<polygon fill="none" stroke="#000000" points="248,-235.2 248,-258.2 400,-258.2 400,-235.2 248,-235.2"/>
<text text-anchor="start" x="253" y="-243.8" font-family="Helvetica,sans-Serif" font-weight="bold" font-size="11.00" fill="#000000">trips</text>
<text text-anchor="start" x="365.0437" y="-243.3" font-family="Helvetica,sans-Serif" font-size="11.00" fill="#000000">[table]</text>
<polygon fill="none" stroke="#000000" points="248,-213.2 248,-235.2 400,-235.2 400,-213.2 248,-213.2"/>
<image xlink:href="../../images/primaryKeys.png" width="11px" height="12px" preserveAspectRatio="xMinYMin meet" x="253" y="-230.2"/>
<text text-anchor="start" x="268" y="-220.3" font-family="Helvetica,sans-Serif" font-size="11.00" fill="#000000">trip_id</text>
<polygon fill="none" stroke="#000000" points="248,-191.2 248,-213.2 400,-213.2 400,-191.2 248,-191.2"/>
<image xlink:href="../../images/foreignKeys.png" width="11px" height="12px" preserveAspectRatio="xMinYMin meet" x="253" y="-208.2"/>
<text text-anchor="start" x="268" y="-198.3" font-family="Helvetica,sans-Serif" font-size="11.00" fill="#000000">route_id</text>
<polygon fill="none" stroke="#000000" points="248,-169.2 248,-191.2 400,-191.2 400,-169.2 248,-169.2"/>
<image xlink:href="../../images/foreignKeys.png" width="11px" height="12px" preserveAspectRatio="xMinYMin meet" x="253" y="-186.2"/>
<text text-anchor="start" x="268" y="-176.3" font-family="Helvetica,sans-Serif" font-size="11.00" fill="#000000">service_id</text>
<polygon fill="none" stroke="#000000" points="248,-147.2 248,-169.2 400,-169.2 400,-147.2 248,-147.2"/>
<image xlink:href="../../images/foreignKeys.png" width="11px" height="12px" preserveAspectRatio="xMinYMin meet" x="253" y="-164.2"/>
<text text-anchor="start" x="268" y="-154.3" font-family="Helvetica,sans-Serif" font-size="11.00" fill="#000000">shape_id</text>
<polygon fill="none" stroke="#000000" points="248,-125.2 248,-147.2 400,-147.2 400,-125.2 248,-125.2"/>
<image xlink:href="../../images/foreignKeys.png" width="11px" height="12px" preserveAspectRatio="xMinYMin meet" x="253" y="-142.2"/>
<text text-anchor="start" x="268" y="-132.3" font-family="Helvetica,sans-Serif" font-size="11.00" fill="#000000">jp_office_id</text>
<polygon fill="none" stroke="#000000" points="248,-103.2 248,-125.2 400,-125.2 400,-103.2 248,-103.2"/>
<image xlink:href="../../images/foreignKeys.png" width="11px" height="12px" preserveAspectRatio="xMinYMin meet" x="253" y="-120.2"/>
<text text-anchor="start" x="268" y="-110.3" font-family="Helvetica,sans-Serif" font-size="11.00" fill="#000000">jp_pattern_id</text>
<polygon fill="none" stroke="#000000" points="248,-84.2 248,-103.2 400,-103.2 400,-84.2 248,-84.2"/>
<text text-anchor="start" x="251" y="-90.3" font-family="Helvetica,sans-Serif" font-size="11.00" fill="#000000">...</text>
<polygon fill="#ffffff" stroke="transparent" points="248,-65.2 248,-84.2 318,-84.2 318,-65.2 248,-65.2"/>
<polygon fill="none" stroke="#000000" points="248,-65.2 248,-84.2 318,-84.2 318,-65.2 248,-65.2"/>
<text text-anchor="start" x="251" y="-71.3" font-family="Helvetica,sans-Serif" font-size="11.00" fill="#000000">&lt; 5</text>
<polygon fill="#ffffff" stroke="transparent" points="318,-65.2 318,-84.2 354,-84.2 354,-65.2 318,-65.2"/>
<polygon fill="none" stroke="#000000" points="318,-65.2 318,-84.2 354,-84.2 354,-65.2 318,-65.2"/>
<text text-anchor="start" x="344.8862" y="-71.3" font-family="Helvetica,sans-Serif" font-size="11.00" fill="#000000"> &#160;</text>
<polygon fill="#ffffff" stroke="transparent" points="354,-65.2 354,-84.2 400,-84.2 400,-65.2 354,-65.2"/>
<polygon fill="none" stroke="#000000" points="354,-65.2 354,-84.2 400,-84.2 400,-65.2 354,-65.2"/>
<text text-anchor="start" x="381.4053" y="-71.3" font-family="Helvetica,sans-Serif" font-size="11.00" fill="#000000">2 &gt;</text>
</a>
</g>
</g>
<!-- office_jp -->
<g id="node2" class="node">
<title>office_jp</title>
<g id="a_node2"><a xlink:href="../../tables/office_jp.html" xlink:title="office_jp" target="_top">
<polygon fill="#ffffff" stroke="transparent" points="8,-38.2 8,-172.2 199,-172.2 199,-38.2 8,-38.2"/>
<polygon fill="#f5f5f5" stroke="transparent" points="10.5,-147.2 10.5,-170.2 197.5,-170.2 197.5,-147.2 10.5,-147.2"/>
<polygon fill="none" stroke="#000000" points="10.5,-147.2 10.5,-170.2 197.5,-170.2 197.5,-147.2 10.5,-147.2"/>
<text text-anchor="start" x="15.5" y="-155.8" font-family="Helvetica,sans-Serif" font-weight="bold" font-size="11.00" fill="#000000">office_jp</text>
<text text-anchor="start" x="162.5437" y="-155.3" font-family="Helvetica,sans-Serif" font-size="11.00" fill="#000000">[table]</text>
<polygon fill="none" stroke="#000000" points="10.5,-125.2 10.5,-147.2 107.5,-147.2 107.5,-125.2 10.5,-125.2"/>
<image xlink:href="../../images/primaryKeys.png" width="11px" height="12px" preserveAspectRatio="xMinYMin meet" x="15.5" y="-142.2"/>
<text text-anchor="start" x="30.5" y="-132.3" font-family="Helvetica,sans-Serif" font-size="11.00" fill="#000000">office_id</text>
<polygon fill="none" stroke="#000000" points="107.5,-125.2 107.5,-147.2 197.5,-147.2 197.5,-125.2 107.5,-125.2"/>
<text text-anchor="start" x="110.5" y="-132.9" font-family="Helvetica,sans-Serif" font-size="11.00" fill="#000000">varchar[64]</text>
<polygon fill="none" stroke="#000000" points="10.5,-103.2 10.5,-125.2 107.5,-125.2 107.5,-103.2 10.5,-103.2"/>
<text text-anchor="start" x="30.5" y="-110.3" font-family="Helvetica,sans-Serif" font-size="11.00" fill="#000000">office_name</text>
<polygon fill="none" stroke="#000000" points="107.5,-103.2 107.5,-125.2 197.5,-125.2 197.5,-103.2 107.5,-103.2"/>
<text text-anchor="start" x="110.0042" y="-110.9" font-family="Helvetica,sans-Serif" font-size="11.00" fill="#000000">text[2147483647]</text>
<polygon fill="none" stroke="#000000" points="10.5,-81.2 10.5,-103.2 107.5,-103.2 107.5,-81.2 10.5,-81.2"/>
<text text-anchor="start" x="30.5" y="-88.3" font-family="Helvetica,sans-Serif" font-size="11.00" fill="#000000">office_url</text>
<polygon fill="none" stroke="#000000" points="107.5,-81.2 107.5,-103.2 197.5,-103.2 197.5,-81.2 107.5,-81.2"/>
<text text-anchor="start" x="110.0042" y="-88.9" font-family="Helvetica,sans-Serif" font-size="11.00" fill="#000000">text[2147483647]</text>
<polygon fill="none" stroke="#000000" points="10.5,-59.2 10.5,-81.2 107.5,-81.2 107.5,-59.2 10.5,-59.2"/>
<text text-anchor="start" x="30.5" y="-66.3" font-family="Helvetica,sans-Serif" font-size="11.00" fill="#000000">office_phone</text>
<polygon fill="none" stroke="#000000" points="107.5,-59.2 107.5,-81.2 197.5,-81.2 197.5,-59.2 107.5,-59.2"/>
<text text-anchor="start" x="110.5" y="-66.9" font-family="Helvetica,sans-Serif" font-size="11.00" fill="#000000">varchar[32]</text>
<polygon fill="#ffffff" stroke="transparent" points="10.5,-40.2 10.5,-59.2 63.5,-59.2 63.5,-40.2 10.5,-40.2"/>
<polygon fill="none" stroke="#000000" points="10.5,-40.2 10.5,-59.2 63.5,-59.2 63.5,-40.2 10.5,-40.2"/>
<text text-anchor="start" x="13.5" y="-46.3" font-family="Helvetica,sans-Serif" font-size="11.00" fill="#000000">&lt; 0</text>
<polygon fill="#ffffff" stroke="transparent" points="63.5,-40.2 63.5,-59.2 107.5,-59.2 107.5,-40.2 63.5,-40.2"/>
<polygon fill="none" stroke="#000000" points="63.5,-40.2 63.5,-59.2 107.5,-59.2 107.5,-40.2 63.5,-40.2"/>
<text text-anchor="start" x="98.3862" y="-46.3" font-family="Helvetica,sans-Serif" font-size="11.00" fill="#000000"> &#160;</text>
<polygon fill="#ffffff" stroke="transparent" points="107.5,-40.2 107.5,-59.2 197.5,-59.2 197.5,-40.2 107.5,-40.2"/>
<polygon fill="none" stroke="#000000" points="107.5,-40.2 107.5,-59.2 197.5,-59.2 197.5,-40.2 107.5,-40.2"/>
<text text-anchor="start" x="178.9053" y="-46.3" font-family="Helvetica,sans-Serif" font-size="11.00" fill="#000000">1 &gt;</text>
<polygon fill="none" stroke="#000000" stroke-width="2" points="9,-39.2 9,-171.2 198,-171.2 198,-39.2 9,-39.2"/>
</a>
</g>
</g>
<!-- trips&#45;&gt;office_jp -->
<g id="edge1" class="edge">
<title>trips:w&#45;&gt;office_jp:e</title>
<path fill="none" stroke="#000000" d="M233.4203,-136.2C221.5435,-136.2 214.158,-136.2 197.5,-136.2"/>
<polygon fill="#000000" stroke="#000000" points="240,-136.2001 248,-139.8 244,-136.2 248,-136.2 248,-136.2 248,-136.2 244,-136.2 248,-132.6 240,-136.2001 240,-136.2001"/>
<ellipse fill="none" stroke="#000000" cx="236.8" cy="-136.2001" rx="3.2" ry="3.2"/>
</g>
</g>
</svg>
