<?xml version="1.0" encoding="UTF-8" standalone="no"?>
<!DOCTYPE svg PUBLIC "-//W3C//DTD SVG 1.1//EN"
 "http://www.w3.org/Graphics/SVG/1.1/DTD/svg11.dtd">
<!-- Generated by graphviz version 2.40.1 (20161225.0304)
 -->
<!-- Title: twoDegreesRelationshipsDiagram Pages: 1 -->
<svg width="574pt" height="513pt"
 viewBox="0.00 0.00 574.00 513.20" xmlns="http://www.w3.org/2000/svg" xmlns:xlink="http://www.w3.org/1999/xlink">
<g id="graph0" class="graph" transform="scale(1 1) rotate(0) translate(4 509.2)">
<title>twoDegreesRelationshipsDiagram</title>
<polygon fill="#ffffff" stroke="transparent" points="-4,4 -4,-509.2 570,-509.2 570,4 -4,4"/>
<text text-anchor="middle" x="72.4936" y="-7.3" font-family="Helvetica,sans-Serif" font-size="11.00" fill="#000000">Generated by SchemaSpy</text>
<!-- frequencies -->
<g id="node1" class="node">
<title>frequencies</title>
<g id="a_node1"><a xlink:href="../../tables/frequencies.html" xlink:title="frequencies" target="_top">
<polygon fill="#ffffff" stroke="transparent" points="449,-383.2 449,-444.2 558,-444.2 558,-383.2 449,-383.2"/>
<polygon fill="#f5f5f5" stroke="transparent" points="449.5,-420.7 449.5,-443.7 558.5,-443.7 558.5,-420.7 449.5,-420.7"/>
<polygon fill="none" stroke="#000000" points="449.5,-420.7 449.5,-443.7 558.5,-443.7 558.5,-420.7 449.5,-420.7"/>
<text text-anchor="start" x="454.5" y="-429.3" font-family="Helvetica,sans-Serif" font-weight="bold" font-size="11.00" fill="#000000">frequencies</text>
<text text-anchor="start" x="524.0219" y="-428.8" font-family="Helvetica,sans-Serif" font-size="11.00" fill="#000000">[table]</text>
<polygon fill="none" stroke="#000000" points="449.5,-401.7 449.5,-420.7 558.5,-420.7 558.5,-401.7 449.5,-401.7"/>
<text text-anchor="start" x="452.5" y="-407.8" font-family="Helvetica,sans-Serif" font-size="11.00" fill="#000000">...</text>
<polygon fill="#ffffff" stroke="transparent" points="449.5,-382.7 449.5,-401.7 502.5,-401.7 502.5,-382.7 449.5,-382.7"/>
<polygon fill="none" stroke="#000000" points="449.5,-382.7 449.5,-401.7 502.5,-401.7 502.5,-382.7 449.5,-382.7"/>
<text text-anchor="start" x="452.5" y="-388.8" font-family="Helvetica,sans-Serif" font-size="11.00" fill="#000000">&lt; 1</text>
<polygon fill="#ffffff" stroke="transparent" points="502.5,-382.7 502.5,-401.7 530.5,-401.7 530.5,-382.7 502.5,-382.7"/>
<polygon fill="none" stroke="#000000" points="502.5,-382.7 502.5,-401.7 530.5,-401.7 530.5,-382.7 502.5,-382.7"/>
<text text-anchor="start" x="521.3862" y="-388.8" font-family="Helvetica,sans-Serif" font-size="11.00" fill="#000000"> &#160;</text>
<polygon fill="#ffffff" stroke="transparent" points="530.5,-382.7 530.5,-401.7 558.5,-401.7 558.5,-382.7 530.5,-382.7"/>
<polygon fill="none" stroke="#000000" points="530.5,-382.7 530.5,-401.7 558.5,-401.7 558.5,-382.7 530.5,-382.7"/>
<text text-anchor="start" x="549.3862" y="-388.8" font-family="Helvetica,sans-Serif" font-size="11.00" fill="#000000"> &#160;</text>
</a>
</g>
</g>
<!-- trips -->
<g id="node2" class="node">
<title>trips</title>
<g id="a_node2"><a xlink:href="../../tables/trips.html" xlink:title="trips" target="_top">
<polygon fill="#ffffff" stroke="transparent" points="248,-211.2 248,-404.2 400,-404.2 400,-211.2 248,-211.2"/>
<polygon fill="#f5f5f5" stroke="transparent" points="248,-380.7 248,-403.7 400,-403.7 400,-380.7 248,-380.7"/>
<polygon fill="none" stroke="#000000" points="248,-380.7 248,-403.7 400,-403.7 400,-380.7 248,-380.7"/>
<text text-anchor="start" x="253" y="-389.3" font-family="Helvetica,sans-Serif" font-weight="bold" font-size="11.00" fill="#000000">trips</text>
<text text-anchor="start" x="365.0437" y="-388.8" font-family="Helvetica,sans-Serif" font-size="11.00" fill="#000000">[table]</text>
<polygon fill="none" stroke="#000000" points="248,-358.7 248,-380.7 400,-380.7 400,-358.7 248,-358.7"/>
<image xlink:href="../../images/primaryKeys.png" width="11px" height="12px" preserveAspectRatio="xMinYMin meet" x="253" y="-375.7"/>
<text text-anchor="start" x="268" y="-365.8" font-family="Helvetica,sans-Serif" font-size="11.00" fill="#000000">trip_id</text>
<polygon fill="none" stroke="#000000" points="248,-336.7 248,-358.7 400,-358.7 400,-336.7 248,-336.7"/>
<image xlink:href="../../images/foreignKeys.png" width="11px" height="12px" preserveAspectRatio="xMinYMin meet" x="253" y="-353.7"/>
<text text-anchor="start" x="268" y="-343.8" font-family="Helvetica,sans-Serif" font-size="11.00" fill="#000000">route_id</text>
<polygon fill="none" stroke="#000000" points="248,-314.7 248,-336.7 400,-336.7 400,-314.7 248,-314.7"/>
<image xlink:href="../../images/foreignKeys.png" width="11px" height="12px" preserveAspectRatio="xMinYMin meet" x="253" y="-331.7"/>
<text text-anchor="start" x="268" y="-321.8" font-family="Helvetica,sans-Serif" font-size="11.00" fill="#000000">service_id</text>
<polygon fill="none" stroke="#000000" points="248,-292.7 248,-314.7 400,-314.7 400,-292.7 248,-292.7"/>
<image xlink:href="../../images/foreignKeys.png" width="11px" height="12px" preserveAspectRatio="xMinYMin meet" x="253" y="-309.7"/>
<text text-anchor="start" x="268" y="-299.8" font-family="Helvetica,sans-Serif" font-size="11.00" fill="#000000">shape_id</text>
<polygon fill="none" stroke="#000000" points="248,-270.7 248,-292.7 400,-292.7 400,-270.7 248,-270.7"/>
<image xlink:href="../../images/foreignKeys.png" width="11px" height="12px" preserveAspectRatio="xMinYMin meet" x="253" y="-287.7"/>
<text text-anchor="start" x="268" y="-277.8" font-family="Helvetica,sans-Serif" font-size="11.00" fill="#000000">jp_office_id</text>
<polygon fill="none" stroke="#000000" points="248,-248.7 248,-270.7 400,-270.7 400,-248.7 248,-248.7"/>
<image xlink:href="../../images/foreignKeys.png" width="11px" height="12px" preserveAspectRatio="xMinYMin meet" x="253" y="-265.7"/>
<text text-anchor="start" x="268" y="-255.8" font-family="Helvetica,sans-Serif" font-size="11.00" fill="#000000">jp_pattern_id</text>
<polygon fill="none" stroke="#000000" points="248,-229.7 248,-248.7 400,-248.7 400,-229.7 248,-229.7"/>
<text text-anchor="start" x="251" y="-235.8" font-family="Helvetica,sans-Serif" font-size="11.00" fill="#000000">...</text>
<polygon fill="#ffffff" stroke="transparent" points="248,-210.7 248,-229.7 318,-229.7 318,-210.7 248,-210.7"/>
<polygon fill="none" stroke="#000000" points="248,-210.7 248,-229.7 318,-229.7 318,-210.7 248,-210.7"/>
<text text-anchor="start" x="251" y="-216.8" font-family="Helvetica,sans-Serif" font-size="11.00" fill="#000000">&lt; 5</text>
<polygon fill="#ffffff" stroke="transparent" points="318,-210.7 318,-229.7 354,-229.7 354,-210.7 318,-210.7"/>
<polygon fill="none" stroke="#000000" points="318,-210.7 318,-229.7 354,-229.7 354,-210.7 318,-210.7"/>
<text text-anchor="start" x="344.8862" y="-216.8" font-family="Helvetica,sans-Serif" font-size="11.00" fill="#000000"> &#160;</text>
<polygon fill="#ffffff" stroke="transparent" points="354,-210.7 354,-229.7 400,-229.7 400,-210.7 354,-210.7"/>
<polygon fill="none" stroke="#000000" points="354,-210.7 354,-229.7 400,-229.7 400,-210.7 354,-210.7"/>
<text text-anchor="start" x="381.4053" y="-216.8" font-family="Helvetica,sans-Serif" font-size="11.00" fill="#000000">2 &gt;</text>
</a>
</g>
</g>
<!-- frequencies&#45;&gt;trips -->
<g id="edge1" class="edge">
<title>frequencies:w&#45;&gt;trips:e</title>
<path fill="none" stroke="#000000" d="M435.5753,-405.9968C422.543,-395.2274 422.5408,-369.7 400,-369.7"/>
<polygon fill="#000000" stroke="#000000" points="441.9207,-408.14 448.348,-414.1107 445.7103,-409.42 449.5,-410.7 449.5,-410.7 449.5,-410.7 445.7103,-409.42 450.652,-407.2893 441.9207,-408.14 441.9207,-408.14"/>
<ellipse fill="none" stroke="#000000" cx="438.8889" cy="-407.1159" rx="3.2" ry="3.2"/>
</g>
<!-- office_jp -->
<g id="node4" class="node">
<title>office_jp</title>
<g id="a_node4"><a xlink:href="../../tables/office_jp.html" xlink:title="office_jp" target="_top">
<polygon fill="#ffffff" stroke="transparent" points="8,-120.7 8,-254.7 199,-254.7 199,-120.7 8,-120.7"/>
<polygon fill="#f5f5f5" stroke="transparent" points="10.5,-229.7 10.5,-252.7 197.5,-252.7 197.5,-229.7 10.5,-229.7"/>
<polygon fill="none" stroke="#000000" points="10.5,-229.7 10.5,-252.7 197.5,-252.7 197.5,-229.7 10.5,-229.7"/>
<text text-anchor="start" x="15.5" y="-238.3" font-family="Helvetica,sans-Serif" font-weight="bold" font-size="11.00" fill="#000000">office_jp</text>
<text text-anchor="start" x="162.5437" y="-237.8" font-family="Helvetica,sans-Serif" font-size="11.00" fill="#000000">[table]</text>
<polygon fill="none" stroke="#000000" points="10.5,-207.7 10.5,-229.7 107.5,-229.7 107.5,-207.7 10.5,-207.7"/>
<image xlink:href="../../images/primaryKeys.png" width="11px" height="12px" preserveAspectRatio="xMinYMin meet" x="15.5" y="-224.7"/>
<text text-anchor="start" x="30.5" y="-214.8" font-family="Helvetica,sans-Serif" font-size="11.00" fill="#000000">office_id</text>
<polygon fill="none" stroke="#000000" points="107.5,-207.7 107.5,-229.7 197.5,-229.7 197.5,-207.7 107.5,-207.7"/>
<text text-anchor="start" x="110.5" y="-215.4" font-family="Helvetica,sans-Serif" font-size="11.00" fill="#000000">varchar[64]</text>
<polygon fill="none" stroke="#000000" points="10.5,-185.7 10.5,-207.7 107.5,-207.7 107.5,-185.7 10.5,-185.7"/>
<text text-anchor="start" x="30.5" y="-192.8" font-family="Helvetica,sans-Serif" font-size="11.00" fill="#000000">office_name</text>
<polygon fill="none" stroke="#000000" points="107.5,-185.7 107.5,-207.7 197.5,-207.7 197.5,-185.7 107.5,-185.7"/>
<text text-anchor="start" x="110.0042" y="-193.4" font-family="Helvetica,sans-Serif" font-size="11.00" fill="#000000">text[2147483647]</text>
<polygon fill="none" stroke="#000000" points="10.5,-163.7 10.5,-185.7 107.5,-185.7 107.5,-163.7 10.5,-163.7"/>
<text text-anchor="start" x="30.5" y="-170.8" font-family="Helvetica,sans-Serif" font-size="11.00" fill="#000000">office_url</text>
<polygon fill="none" stroke="#000000" points="107.5,-163.7 107.5,-185.7 197.5,-185.7 197.5,-163.7 107.5,-163.7"/>
<text text-anchor="start" x="110.0042" y="-171.4" font-family="Helvetica,sans-Serif" font-size="11.00" fill="#000000">text[2147483647]</text>
<polygon fill="none" stroke="#000000" points="10.5,-141.7 10.5,-163.7 107.5,-163.7 107.5,-141.7 10.5,-141.7"/>
<text text-anchor="start" x="30.5" y="-148.8" font-family="Helvetica,sans-Serif" font-size="11.00" fill="#000000">office_phone</text>
<polygon fill="none" stroke="#000000" points="107.5,-141.7 107.5,-163.7 197.5,-163.7 197.5,-141.7 107.5,-141.7"/>
<text text-anchor="start" x="110.5" y="-149.4" font-family="Helvetica,sans-Serif" font-size="11.00" fill="#000000">varchar[32]</text>
<polygon fill="#ffffff" stroke="transparent" points="10.5,-122.7 10.5,-141.7 63.5,-141.7 63.5,-122.7 10.5,-122.7"/>
<polygon fill="none" stroke="#000000" points="10.5,-122.7 10.5,-141.7 63.5,-141.7 63.5,-122.7 10.5,-122.7"/>
<text text-anchor="start" x="13.5" y="-128.8" font-family="Helvetica,sans-Serif" font-size="11.00" fill="#000000">&lt; 0</text>
<polygon fill="#ffffff" stroke="transparent" points="63.5,-122.7 63.5,-141.7 107.5,-141.7 107.5,-122.7 63.5,-122.7"/>
<polygon fill="none" stroke="#000000" points="63.5,-122.7 63.5,-141.7 107.5,-141.7 107.5,-122.7 63.5,-122.7"/>
<text text-anchor="start" x="98.3862" y="-128.8" font-family="Helvetica,sans-Serif" font-size="11.00" fill="#000000"> &#160;</text>
<polygon fill="#ffffff" stroke="transparent" points="107.5,-122.7 107.5,-141.7 197.5,-141.7 197.5,-122.7 107.5,-122.7"/>
<polygon fill="none" stroke="#000000" points="107.5,-122.7 107.5,-141.7 197.5,-141.7 197.5,-122.7 107.5,-122.7"/>
<text text-anchor="start" x="178.9053" y="-128.8" font-family="Helvetica,sans-Serif" font-size="11.00" fill="#000000">1 &gt;</text>
<polygon fill="none" stroke="#000000" stroke-width="2" points="9,-121.7 9,-253.7 198,-253.7 198,-121.7 9,-121.7"/>
</a>
</g>
</g>
<!-- trips&#45;&gt;office_jp -->
<g id="edge3" class="edge">
<title>trips:w&#45;&gt;office_jp:e</title>
<path fill="none" stroke="#000000" d="M233.9816,-276.7565C217.738,-261.9048 227.2175,-218.7 197.5,-218.7"/>
<polygon fill="#000000" stroke="#000000" points="240.4554,-279.0394 246.8027,-285.0951 244.2277,-280.3697 248,-281.7 248,-281.7 248,-281.7 244.2277,-280.3697 249.1973,-278.3049 240.4554,-279.0394 240.4554,-279.0394"/>
<ellipse fill="none" stroke="#000000" cx="237.4375" cy="-277.9752" rx="3.2" ry="3.2"/>
</g>
<!-- pattern_jp -->
<g id="node5" class="node">
<title>pattern_jp</title>
<g id="a_node5"><a xlink:href="../../tables/pattern_jp.html" xlink:title="pattern_jp" target="_top">
<polygon fill="#ffffff" stroke="transparent" points="53.5,-38.2 53.5,-99.2 153.5,-99.2 153.5,-38.2 53.5,-38.2"/>
<polygon fill="#f5f5f5" stroke="transparent" points="53.5,-75.7 53.5,-98.7 153.5,-98.7 153.5,-75.7 53.5,-75.7"/>
<polygon fill="none" stroke="#000000" points="53.5,-75.7 53.5,-98.7 153.5,-98.7 153.5,-75.7 53.5,-75.7"/>
<text text-anchor="start" x="58.5" y="-84.3" font-family="Helvetica,sans-Serif" font-weight="bold" font-size="11.00" fill="#000000">pattern_jp</text>
<text text-anchor="start" x="119.0219" y="-83.8" font-family="Helvetica,sans-Serif" font-size="11.00" fill="#000000">[table]</text>
<polygon fill="none" stroke="#000000" points="53.5,-56.7 53.5,-75.7 153.5,-75.7 153.5,-56.7 53.5,-56.7"/>
<text text-anchor="start" x="56.5" y="-62.8" font-family="Helvetica,sans-Serif" font-size="11.00" fill="#000000">...</text>
<polygon fill="#ffffff" stroke="transparent" points="53.5,-37.7 53.5,-56.7 92.5,-56.7 92.5,-37.7 53.5,-37.7"/>
<polygon fill="none" stroke="#000000" points="53.5,-37.7 53.5,-56.7 92.5,-56.7 92.5,-37.7 53.5,-37.7"/>
<text text-anchor="start" x="56.5" y="-43.8" font-family="Helvetica,sans-Serif" font-size="11.00" fill="#000000"> &#160;</text>
<polygon fill="#ffffff" stroke="transparent" points="92.5,-37.7 92.5,-56.7 118.5,-56.7 118.5,-37.7 92.5,-37.7"/>
<polygon fill="none" stroke="#000000" points="92.5,-37.7 92.5,-56.7 118.5,-56.7 118.5,-37.7 92.5,-37.7"/>
<text text-anchor="start" x="109.3862" y="-43.8" font-family="Helvetica,sans-Serif" font-size="11.00" fill="#000000"> &#160;</text>
<polygon fill="#ffffff" stroke="transparent" points="118.5,-37.7 118.5,-56.7 153.5,-56.7 153.5,-37.7 118.5,-37.7"/>
<polygon fill="none" stroke="#000000" points="118.5,-37.7 118.5,-56.7 153.5,-56.7 153.5,-37.7 118.5,-37.7"/>
<text text-anchor="start" x="134.9053" y="-43.8" font-family="Helvetica,sans-Serif" font-size="11.00" fill="#000000">1 &gt;</text>
</a>
</g>
</g>
<!-- trips&#45;&gt;pattern_jp -->
<g id="edge4" class="edge">
<title>trips:w&#45;&gt;pattern_jp:e</title>
<path fill="none" stroke="#000000" d="M233.5816,-257.9125C188.9685,-244.8367 241.4849,-162.9521 207,-109.7 190.2658,-83.8588 184.2864,-65.7 153.5,-65.7"/>
<polygon fill="#000000" stroke="#000000" points="240.0608,-258.7157 247.5571,-263.2727 244.0304,-259.2079 248,-259.7 248,-259.7 248,-259.7 244.0304,-259.2079 248.4429,-256.1273 240.0608,-258.7157 240.0608,-258.7157"/>
<ellipse fill="none" stroke="#000000" cx="236.8851" cy="-258.322" rx="3.2" ry="3.2"/>
</g>
<!-- routes -->
<g id="node6" class="node">
<title>routes</title>
<g id="a_node6"><a xlink:href="../../tables/routes.html" xlink:title="routes" target="_top">
<polygon fill="#ffffff" stroke="transparent" points="64.5,-440.2 64.5,-501.2 142.5,-501.2 142.5,-440.2 64.5,-440.2"/>
<polygon fill="#f5f5f5" stroke="transparent" points="64.5,-477.7 64.5,-500.7 142.5,-500.7 142.5,-477.7 64.5,-477.7"/>
<polygon fill="none" stroke="#000000" points="64.5,-477.7 64.5,-500.7 142.5,-500.7 142.5,-477.7 64.5,-477.7"/>
<text text-anchor="start" x="69.5" y="-486.3" font-family="Helvetica,sans-Serif" font-weight="bold" font-size="11.00" fill="#000000">routes</text>
<text text-anchor="start" x="108.0219" y="-485.8" font-family="Helvetica,sans-Serif" font-size="11.00" fill="#000000">[table]</text>
<polygon fill="none" stroke="#000000" points="64.5,-458.7 64.5,-477.7 142.5,-477.7 142.5,-458.7 64.5,-458.7"/>
<text text-anchor="start" x="67.5" y="-464.8" font-family="Helvetica,sans-Serif" font-size="11.00" fill="#000000">...</text>
<polygon fill="#ffffff" stroke="transparent" points="64.5,-439.7 64.5,-458.7 97.5,-458.7 97.5,-439.7 64.5,-439.7"/>
<polygon fill="none" stroke="#000000" points="64.5,-439.7 64.5,-458.7 97.5,-458.7 97.5,-439.7 64.5,-439.7"/>
<text text-anchor="start" x="67.5" y="-445.8" font-family="Helvetica,sans-Serif" font-size="11.00" fill="#000000">&lt; 1</text>
<polygon fill="#ffffff" stroke="transparent" points="97.5,-439.7 97.5,-458.7 115.5,-458.7 115.5,-439.7 97.5,-439.7"/>
<polygon fill="none" stroke="#000000" points="97.5,-439.7 97.5,-458.7 115.5,-458.7 115.5,-439.7 97.5,-439.7"/>
<text text-anchor="start" x="106.3862" y="-445.8" font-family="Helvetica,sans-Serif" font-size="11.00" fill="#000000"> &#160;</text>
<polygon fill="#ffffff" stroke="transparent" points="115.5,-439.7 115.5,-458.7 142.5,-458.7 142.5,-439.7 115.5,-439.7"/>
<polygon fill="none" stroke="#000000" points="115.5,-439.7 115.5,-458.7 142.5,-458.7 142.5,-439.7 115.5,-439.7"/>
<text text-anchor="start" x="123.9053" y="-445.8" font-family="Helvetica,sans-Serif" font-size="11.00" fill="#000000">2 &gt;</text>
</a>
</g>
</g>
<!-- trips&#45;&gt;routes -->
<g id="edge5" class="edge">
<title>trips:w&#45;&gt;routes:e</title>
<path fill="none" stroke="#000000" d="M233.6958,-351.0716C214.3635,-363.0887 230.5687,-404.4525 207,-429.7 184.2958,-454.0214 175.7718,-467.7 142.5,-467.7"/>
<polygon fill="#000000" stroke="#000000" points="240.2134,-349.5354 248.8259,-351.204 244.1067,-348.6177 248,-347.7 248,-347.7 248,-347.7 244.1067,-348.6177 247.1741,-344.196 240.2134,-349.5354 240.2134,-349.5354"/>
<ellipse fill="none" stroke="#000000" cx="237.0987" cy="-350.2695" rx="3.2" ry="3.2"/>
</g>
<!-- calendar -->
<g id="node7" class="node">
<title>calendar</title>
<g id="a_node7"><a xlink:href="../../tables/calendar.html" xlink:title="calendar" target="_top">
<polygon fill="#ffffff" stroke="transparent" points="58,-358.2 58,-419.2 149,-419.2 149,-358.2 58,-358.2"/>
<polygon fill="#f5f5f5" stroke="transparent" points="58.5,-395.7 58.5,-418.7 149.5,-418.7 149.5,-395.7 58.5,-395.7"/>
<polygon fill="none" stroke="#000000" points="58.5,-395.7 58.5,-418.7 149.5,-418.7 149.5,-395.7 58.5,-395.7"/>
<text text-anchor="start" x="63.5" y="-404.3" font-family="Helvetica,sans-Serif" font-weight="bold" font-size="11.00" fill="#000000">calendar</text>
<text text-anchor="start" x="115.0219" y="-403.8" font-family="Helvetica,sans-Serif" font-size="11.00" fill="#000000">[table]</text>
<polygon fill="none" stroke="#000000" points="58.5,-376.7 58.5,-395.7 149.5,-395.7 149.5,-376.7 58.5,-376.7"/>
<text text-anchor="start" x="61.5" y="-382.8" font-family="Helvetica,sans-Serif" font-size="11.00" fill="#000000">...</text>
<polygon fill="#ffffff" stroke="transparent" points="58.5,-357.7 58.5,-376.7 93.5,-376.7 93.5,-357.7 58.5,-357.7"/>
<polygon fill="none" stroke="#000000" points="58.5,-357.7 58.5,-376.7 93.5,-376.7 93.5,-357.7 58.5,-357.7"/>
<text text-anchor="start" x="61.5" y="-363.8" font-family="Helvetica,sans-Serif" font-size="11.00" fill="#000000"> &#160;</text>
<polygon fill="#ffffff" stroke="transparent" points="93.5,-357.7 93.5,-376.7 116.5,-376.7 116.5,-357.7 93.5,-357.7"/>
<polygon fill="none" stroke="#000000" points="93.5,-357.7 93.5,-376.7 116.5,-376.7 116.5,-357.7 93.5,-357.7"/>
<text text-anchor="start" x="107.3862" y="-363.8" font-family="Helvetica,sans-Serif" font-size="11.00" fill="#000000"> &#160;</text>
<polygon fill="#ffffff" stroke="transparent" points="116.5,-357.7 116.5,-376.7 149.5,-376.7 149.5,-357.7 116.5,-357.7"/>
<polygon fill="none" stroke="#000000" points="116.5,-357.7 116.5,-376.7 149.5,-376.7 149.5,-357.7 116.5,-357.7"/>
<text text-anchor="start" x="130.9053" y="-363.8" font-family="Helvetica,sans-Serif" font-size="11.00" fill="#000000">1 &gt;</text>
</a>
</g>
</g>
<!-- trips&#45;&gt;calendar -->
<g id="edge6" class="edge">
<title>trips:w&#45;&gt;calendar:e</title>
<path fill="none" stroke="#000000" d="M234.2002,-329.824C207.7927,-343.3797 171.0253,-385.7 149.5,-385.7"/>
<polygon fill="#000000" stroke="#000000" points="240.335,-327.9907 249.0308,-329.1493 244.1675,-326.8454 248,-325.7 248,-325.7 248,-325.7 244.1675,-326.8454 246.9692,-322.2507 240.335,-327.9907 240.335,-327.9907"/>
<ellipse fill="none" stroke="#000000" cx="237.2689" cy="-328.907" rx="3.2" ry="3.2"/>
</g>
<!-- shapes -->
<g id="node8" class="node">
<title>shapes</title>
<g id="a_node8"><a xlink:href="../../tables/shapes.html" xlink:title="shapes" target="_top">
<polygon fill="#ffffff" stroke="transparent" points="63.5,-276.2 63.5,-337.2 143.5,-337.2 143.5,-276.2 63.5,-276.2"/>
<polygon fill="#f5f5f5" stroke="transparent" points="63.5,-313.7 63.5,-336.7 143.5,-336.7 143.5,-313.7 63.5,-313.7"/>
<polygon fill="none" stroke="#000000" points="63.5,-313.7 63.5,-336.7 143.5,-336.7 143.5,-313.7 63.5,-313.7"/>
<text text-anchor="start" x="68.5" y="-322.3" font-family="Helvetica,sans-Serif" font-weight="bold" font-size="11.00" fill="#000000">shapes</text>
<text text-anchor="start" x="109.0219" y="-321.8" font-family="Helvetica,sans-Serif" font-size="11.00" fill="#000000">[table]</text>
<polygon fill="none" stroke="#000000" points="63.5,-294.7 63.5,-313.7 143.5,-313.7 143.5,-294.7 63.5,-294.7"/>
<text text-anchor="start" x="66.5" y="-300.8" font-family="Helvetica,sans-Serif" font-size="11.00" fill="#000000">...</text>
<polygon fill="#ffffff" stroke="transparent" points="63.5,-275.7 63.5,-294.7 92.5,-294.7 92.5,-275.7 63.5,-275.7"/>
<polygon fill="none" stroke="#000000" points="63.5,-275.7 63.5,-294.7 92.5,-294.7 92.5,-275.7 63.5,-275.7"/>
<text text-anchor="start" x="66.5" y="-281.8" font-family="Helvetica,sans-Serif" font-size="11.00" fill="#000000"> &#160;</text>
<polygon fill="#ffffff" stroke="transparent" points="92.5,-275.7 92.5,-294.7 113.5,-294.7 113.5,-275.7 92.5,-275.7"/>
<polygon fill="none" stroke="#000000" points="92.5,-275.7 92.5,-294.7 113.5,-294.7 113.5,-275.7 92.5,-275.7"/>
<text text-anchor="start" x="104.3862" y="-281.8" font-family="Helvetica,sans-Serif" font-size="11.00" fill="#000000"> &#160;</text>
<polygon fill="#ffffff" stroke="transparent" points="113.5,-275.7 113.5,-294.7 143.5,-294.7 143.5,-275.7 113.5,-275.7"/>
<polygon fill="none" stroke="#000000" points="113.5,-275.7 113.5,-294.7 143.5,-294.7 143.5,-275.7 113.5,-275.7"/>
<text text-anchor="start" x="124.9053" y="-281.8" font-family="Helvetica,sans-Serif" font-size="11.00" fill="#000000">1 &gt;</text>
</a>
</g>
</g>
<!-- trips&#45;&gt;shapes -->
<g id="edge7" class="edge">
<title>trips:w&#45;&gt;shapes:e</title>
<path fill="none" stroke="#000000" d="M233.4559,-303.7C198.4779,-303.7 184.6832,-303.7 143.5,-303.7"/>
<polygon fill="#000000" stroke="#000000" points="240,-303.7001 248,-307.3 244,-303.7 248,-303.7 248,-303.7 248,-303.7 244,-303.7 248,-300.1 240,-303.7001 240,-303.7001"/>
<ellipse fill="none" stroke="#000000" cx="236.8" cy="-303.7001" rx="3.2" ry="3.2"/>
</g>
<!-- stop_times -->
<g id="node3" class="node">
<title>stop_times</title>
<g id="a_node3"><a xlink:href="../../tables/stop_times.html" xlink:title="stop_times" target="_top">
<polygon fill="#ffffff" stroke="transparent" points="452,-301.2 452,-362.2 555,-362.2 555,-301.2 452,-301.2"/>
<polygon fill="#f5f5f5" stroke="transparent" points="452.5,-338.7 452.5,-361.7 555.5,-361.7 555.5,-338.7 452.5,-338.7"/>
<polygon fill="none" stroke="#000000" points="452.5,-338.7 452.5,-361.7 555.5,-361.7 555.5,-338.7 452.5,-338.7"/>
<text text-anchor="start" x="457.5" y="-347.3" font-family="Helvetica,sans-Serif" font-weight="bold" font-size="11.00" fill="#000000">stop_times</text>
<text text-anchor="start" x="521.0219" y="-346.8" font-family="Helvetica,sans-Serif" font-size="11.00" fill="#000000">[table]</text>
<polygon fill="none" stroke="#000000" points="452.5,-319.7 452.5,-338.7 555.5,-338.7 555.5,-319.7 452.5,-319.7"/>
<text text-anchor="start" x="455.5" y="-325.8" font-family="Helvetica,sans-Serif" font-size="11.00" fill="#000000">...</text>
<polygon fill="#ffffff" stroke="transparent" points="452.5,-300.7 452.5,-319.7 502.5,-319.7 502.5,-300.7 452.5,-300.7"/>
<polygon fill="none" stroke="#000000" points="452.5,-300.7 452.5,-319.7 502.5,-319.7 502.5,-300.7 452.5,-300.7"/>
<text text-anchor="start" x="455.5" y="-306.8" font-family="Helvetica,sans-Serif" font-size="11.00" fill="#000000">&lt; 2</text>
<polygon fill="#ffffff" stroke="transparent" points="502.5,-300.7 502.5,-319.7 528.5,-319.7 528.5,-300.7 502.5,-300.7"/>
<polygon fill="none" stroke="#000000" points="502.5,-300.7 502.5,-319.7 528.5,-319.7 528.5,-300.7 502.5,-300.7"/>
<text text-anchor="start" x="519.3862" y="-306.8" font-family="Helvetica,sans-Serif" font-size="11.00" fill="#000000"> &#160;</text>
<polygon fill="#ffffff" stroke="transparent" points="528.5,-300.7 528.5,-319.7 555.5,-319.7 555.5,-300.7 528.5,-300.7"/>
<polygon fill="none" stroke="#000000" points="528.5,-300.7 528.5,-319.7 555.5,-319.7 555.5,-300.7 528.5,-300.7"/>
<text text-anchor="start" x="546.3862" y="-306.8" font-family="Helvetica,sans-Serif" font-size="11.00" fill="#000000"> &#160;</text>
</a>
</g>
</g>
<!-- stop_times&#45;&gt;trips -->
<g id="edge2" class="edge">
<title>stop_times:w&#45;&gt;trips:e</title>
<path fill="none" stroke="#000000" d="M438.3456,-333.0877C424.1224,-343.6646 423.592,-369.7 400,-369.7"/>
<polygon fill="#000000" stroke="#000000" points="444.8587,-331.0688 453.5659,-332.1386 448.6794,-329.8844 452.5,-328.7 452.5,-328.7 452.5,-328.7 448.6794,-329.8844 451.4341,-325.2614 444.8587,-331.0688 444.8587,-331.0688"/>
<ellipse fill="none" stroke="#000000" cx="441.8022" cy="-332.0163" rx="3.2" ry="3.2"/>
</g>
</g>
</svg>
