<?xml version="1.0" encoding="UTF-8" standalone="no"?>
<!DOCTYPE svg PUBLIC "-//W3C//DTD SVG 1.1//EN"
 "http://www.w3.org/Graphics/SVG/1.1/DTD/svg11.dtd">
<!-- Generated by graphviz version 2.40.1 (20161225.0304)
 -->
<!-- Title: twoDegreesRelationshipsDiagram Pages: 1 -->
<svg width="581pt" height="535pt"
 viewBox="0.00 0.00 581.00 534.70" xmlns="http://www.w3.org/2000/svg" xmlns:xlink="http://www.w3.org/1999/xlink">
<g id="graph0" class="graph" transform="scale(1 1) rotate(0) translate(4 530.7)">
<title>twoDegreesRelationshipsDiagram</title>
<polygon fill="#ffffff" stroke="transparent" points="-4,4 -4,-530.7 577,-530.7 577,4 -4,4"/>
<text text-anchor="middle" x="72.4936" y="-7.3" font-family="Helvetica,sans-Serif" font-size="11.00" fill="#000000">Generated by SchemaSpy</text>
<!-- frequencies -->
<g id="node1" class="node">
<title>frequencies</title>
<g id="a_node1"><a xlink:href="../../tables/frequencies.html" xlink:title="frequencies" target="_top">
<polygon fill="#ffffff" stroke="transparent" points="456,-404.7 456,-465.7 565,-465.7 565,-404.7 456,-404.7"/>
<polygon fill="#f5f5f5" stroke="transparent" points="456.5,-442.2 456.5,-465.2 565.5,-465.2 565.5,-442.2 456.5,-442.2"/>
<polygon fill="none" stroke="#000000" points="456.5,-442.2 456.5,-465.2 565.5,-465.2 565.5,-442.2 456.5,-442.2"/>
<text text-anchor="start" x="461.5" y="-450.8" font-family="Helvetica,sans-Serif" font-weight="bold" font-size="11.00" fill="#000000">frequencies</text>
<text text-anchor="start" x="531.0219" y="-450.3" font-family="Helvetica,sans-Serif" font-size="11.00" fill="#000000">[table]</text>
<polygon fill="none" stroke="#000000" points="456.5,-423.2 456.5,-442.2 565.5,-442.2 565.5,-423.2 456.5,-423.2"/>
<text text-anchor="start" x="459.5" y="-429.3" font-family="Helvetica,sans-Serif" font-size="11.00" fill="#000000">...</text>
<polygon fill="#ffffff" stroke="transparent" points="456.5,-404.2 456.5,-423.2 509.5,-423.2 509.5,-404.2 456.5,-404.2"/>
<polygon fill="none" stroke="#000000" points="456.5,-404.2 456.5,-423.2 509.5,-423.2 509.5,-404.2 456.5,-404.2"/>
<text text-anchor="start" x="459.5" y="-410.3" font-family="Helvetica,sans-Serif" font-size="11.00" fill="#000000">&lt; 1</text>
<polygon fill="#ffffff" stroke="transparent" points="509.5,-404.2 509.5,-423.2 537.5,-423.2 537.5,-404.2 509.5,-404.2"/>
<polygon fill="none" stroke="#000000" points="509.5,-404.2 509.5,-423.2 537.5,-423.2 537.5,-404.2 509.5,-404.2"/>
<text text-anchor="start" x="528.3862" y="-410.3" font-family="Helvetica,sans-Serif" font-size="11.00" fill="#000000"> &#160;</text>
<polygon fill="#ffffff" stroke="transparent" points="537.5,-404.2 537.5,-423.2 565.5,-423.2 565.5,-404.2 537.5,-404.2"/>
<polygon fill="none" stroke="#000000" points="537.5,-404.2 537.5,-423.2 565.5,-423.2 565.5,-404.2 537.5,-404.2"/>
<text text-anchor="start" x="556.3862" y="-410.3" font-family="Helvetica,sans-Serif" font-size="11.00" fill="#000000"> &#160;</text>
</a>
</g>
</g>
<!-- trips -->
<g id="node2" class="node">
<title>trips</title>
<g id="a_node2"><a xlink:href="../../tables/trips.html" xlink:title="trips" target="_top">
<polygon fill="#ffffff" stroke="transparent" points="255,-232.7 255,-425.7 407,-425.7 407,-232.7 255,-232.7"/>
<polygon fill="#f5f5f5" stroke="transparent" points="255,-402.2 255,-425.2 407,-425.2 407,-402.2 255,-402.2"/>
<polygon fill="none" stroke="#000000" points="255,-402.2 255,-425.2 407,-425.2 407,-402.2 255,-402.2"/>
<text text-anchor="start" x="260" y="-410.8" font-family="Helvetica,sans-Serif" font-weight="bold" font-size="11.00" fill="#000000">trips</text>
<text text-anchor="start" x="372.0437" y="-410.3" font-family="Helvetica,sans-Serif" font-size="11.00" fill="#000000">[table]</text>
<polygon fill="none" stroke="#000000" points="255,-380.2 255,-402.2 407,-402.2 407,-380.2 255,-380.2"/>
<image xlink:href="../../images/primaryKeys.png" width="11px" height="12px" preserveAspectRatio="xMinYMin meet" x="260" y="-397.2"/>
<text text-anchor="start" x="275" y="-387.3" font-family="Helvetica,sans-Serif" font-size="11.00" fill="#000000">trip_id</text>
<polygon fill="none" stroke="#000000" points="255,-358.2 255,-380.2 407,-380.2 407,-358.2 255,-358.2"/>
<image xlink:href="../../images/foreignKeys.png" width="11px" height="12px" preserveAspectRatio="xMinYMin meet" x="260" y="-375.2"/>
<text text-anchor="start" x="275" y="-365.3" font-family="Helvetica,sans-Serif" font-size="11.00" fill="#000000">route_id</text>
<polygon fill="none" stroke="#000000" points="255,-336.2 255,-358.2 407,-358.2 407,-336.2 255,-336.2"/>
<image xlink:href="../../images/foreignKeys.png" width="11px" height="12px" preserveAspectRatio="xMinYMin meet" x="260" y="-353.2"/>
<text text-anchor="start" x="275" y="-343.3" font-family="Helvetica,sans-Serif" font-size="11.00" fill="#000000">service_id</text>
<polygon fill="none" stroke="#000000" points="255,-314.2 255,-336.2 407,-336.2 407,-314.2 255,-314.2"/>
<image xlink:href="../../images/foreignKeys.png" width="11px" height="12px" preserveAspectRatio="xMinYMin meet" x="260" y="-331.2"/>
<text text-anchor="start" x="275" y="-321.3" font-family="Helvetica,sans-Serif" font-size="11.00" fill="#000000">shape_id</text>
<polygon fill="none" stroke="#000000" points="255,-292.2 255,-314.2 407,-314.2 407,-292.2 255,-292.2"/>
<image xlink:href="../../images/foreignKeys.png" width="11px" height="12px" preserveAspectRatio="xMinYMin meet" x="260" y="-309.2"/>
<text text-anchor="start" x="275" y="-299.3" font-family="Helvetica,sans-Serif" font-size="11.00" fill="#000000">jp_office_id</text>
<polygon fill="none" stroke="#000000" points="255,-270.2 255,-292.2 407,-292.2 407,-270.2 255,-270.2"/>
<image xlink:href="../../images/foreignKeys.png" width="11px" height="12px" preserveAspectRatio="xMinYMin meet" x="260" y="-287.2"/>
<text text-anchor="start" x="275" y="-277.3" font-family="Helvetica,sans-Serif" font-size="11.00" fill="#000000">jp_pattern_id</text>
<polygon fill="none" stroke="#000000" points="255,-251.2 255,-270.2 407,-270.2 407,-251.2 255,-251.2"/>
<text text-anchor="start" x="258" y="-257.3" font-family="Helvetica,sans-Serif" font-size="11.00" fill="#000000">...</text>
<polygon fill="#ffffff" stroke="transparent" points="255,-232.2 255,-251.2 325,-251.2 325,-232.2 255,-232.2"/>
<polygon fill="none" stroke="#000000" points="255,-232.2 255,-251.2 325,-251.2 325,-232.2 255,-232.2"/>
<text text-anchor="start" x="258" y="-238.3" font-family="Helvetica,sans-Serif" font-size="11.00" fill="#000000">&lt; 5</text>
<polygon fill="#ffffff" stroke="transparent" points="325,-232.2 325,-251.2 361,-251.2 361,-232.2 325,-232.2"/>
<polygon fill="none" stroke="#000000" points="325,-232.2 325,-251.2 361,-251.2 361,-232.2 325,-232.2"/>
<text text-anchor="start" x="351.8862" y="-238.3" font-family="Helvetica,sans-Serif" font-size="11.00" fill="#000000"> &#160;</text>
<polygon fill="#ffffff" stroke="transparent" points="361,-232.2 361,-251.2 407,-251.2 407,-232.2 361,-232.2"/>
<polygon fill="none" stroke="#000000" points="361,-232.2 361,-251.2 407,-251.2 407,-232.2 361,-232.2"/>
<text text-anchor="start" x="388.4053" y="-238.3" font-family="Helvetica,sans-Serif" font-size="11.00" fill="#000000">2 &gt;</text>
</a>
</g>
</g>
<!-- frequencies&#45;&gt;trips -->
<g id="edge1" class="edge">
<title>frequencies:w&#45;&gt;trips:e</title>
<path fill="none" stroke="#000000" d="M442.5753,-427.4968C429.543,-416.7274 429.5408,-391.2 407,-391.2"/>
<polygon fill="#000000" stroke="#000000" points="448.9207,-429.64 455.348,-435.6107 452.7103,-430.92 456.5,-432.2 456.5,-432.2 456.5,-432.2 452.7103,-430.92 457.652,-428.7893 448.9207,-429.64 448.9207,-429.64"/>
<ellipse fill="none" stroke="#000000" cx="445.8889" cy="-428.6159" rx="3.2" ry="3.2"/>
</g>
<!-- office_jp -->
<g id="node4" class="node">
<title>office_jp</title>
<g id="a_node4"><a xlink:href="../../tables/office_jp.html" xlink:title="office_jp" target="_top">
<polygon fill="#ffffff" stroke="transparent" points="63,-215.7 63,-276.7 151,-276.7 151,-215.7 63,-215.7"/>
<polygon fill="#f5f5f5" stroke="transparent" points="63,-253.2 63,-276.2 151,-276.2 151,-253.2 63,-253.2"/>
<polygon fill="none" stroke="#000000" points="63,-253.2 63,-276.2 151,-276.2 151,-253.2 63,-253.2"/>
<text text-anchor="start" x="68" y="-261.8" font-family="Helvetica,sans-Serif" font-weight="bold" font-size="11.00" fill="#000000">office_jp</text>
<text text-anchor="start" x="116.5219" y="-261.3" font-family="Helvetica,sans-Serif" font-size="11.00" fill="#000000">[table]</text>
<polygon fill="none" stroke="#000000" points="63,-234.2 63,-253.2 151,-253.2 151,-234.2 63,-234.2"/>
<text text-anchor="start" x="66" y="-240.3" font-family="Helvetica,sans-Serif" font-size="11.00" fill="#000000">...</text>
<polygon fill="#ffffff" stroke="transparent" points="63,-215.2 63,-234.2 96,-234.2 96,-215.2 63,-215.2"/>
<polygon fill="none" stroke="#000000" points="63,-215.2 63,-234.2 96,-234.2 96,-215.2 63,-215.2"/>
<text text-anchor="start" x="66" y="-221.3" font-family="Helvetica,sans-Serif" font-size="11.00" fill="#000000"> &#160;</text>
<polygon fill="#ffffff" stroke="transparent" points="96,-215.2 96,-234.2 119,-234.2 119,-215.2 96,-215.2"/>
<polygon fill="none" stroke="#000000" points="96,-215.2 96,-234.2 119,-234.2 119,-215.2 96,-215.2"/>
<text text-anchor="start" x="109.8862" y="-221.3" font-family="Helvetica,sans-Serif" font-size="11.00" fill="#000000"> &#160;</text>
<polygon fill="#ffffff" stroke="transparent" points="119,-215.2 119,-234.2 151,-234.2 151,-215.2 119,-215.2"/>
<polygon fill="none" stroke="#000000" points="119,-215.2 119,-234.2 151,-234.2 151,-215.2 119,-215.2"/>
<text text-anchor="start" x="132.4053" y="-221.3" font-family="Helvetica,sans-Serif" font-size="11.00" fill="#000000">1 &gt;</text>
</a>
</g>
</g>
<!-- trips&#45;&gt;office_jp -->
<g id="edge3" class="edge">
<title>trips:w&#45;&gt;office_jp:e</title>
<path fill="none" stroke="#000000" d="M240.6123,-301.5326C201.6236,-291.8422 199.0475,-243.2 151,-243.2"/>
<polygon fill="#000000" stroke="#000000" points="247.0532,-302.279 254.5856,-306.7761 251.0266,-302.7395 255,-303.2 255,-303.2 255,-303.2 251.0266,-302.7395 255.4144,-299.6239 247.0532,-302.279 247.0532,-302.279"/>
<ellipse fill="none" stroke="#000000" cx="243.8745" cy="-301.9106" rx="3.2" ry="3.2"/>
</g>
<!-- pattern_jp -->
<g id="node5" class="node">
<title>pattern_jp</title>
<g id="a_node5"><a xlink:href="../../tables/pattern_jp.html" xlink:title="pattern_jp" target="_top">
<polygon fill="#ffffff" stroke="transparent" points="8,-38.2 8,-194.2 206,-194.2 206,-38.2 8,-38.2"/>
<polygon fill="#f5f5f5" stroke="transparent" points="10,-169.2 10,-192.2 204,-192.2 204,-169.2 10,-169.2"/>
<polygon fill="none" stroke="#000000" points="10,-169.2 10,-192.2 204,-192.2 204,-169.2 10,-169.2"/>
<text text-anchor="start" x="15" y="-177.8" font-family="Helvetica,sans-Serif" font-weight="bold" font-size="11.00" fill="#000000">pattern_jp</text>
<text text-anchor="start" x="169.0437" y="-177.3" font-family="Helvetica,sans-Serif" font-size="11.00" fill="#000000">[table]</text>
<polygon fill="none" stroke="#000000" points="10,-147.2 10,-169.2 143,-169.2 143,-147.2 10,-147.2"/>
<image xlink:href="../../images/primaryKeys.png" width="11px" height="12px" preserveAspectRatio="xMinYMin meet" x="15" y="-164.2"/>
<text text-anchor="start" x="30" y="-154.3" font-family="Helvetica,sans-Serif" font-size="11.00" fill="#000000">jp_pattern_id</text>
<polygon fill="none" stroke="#000000" points="143,-147.2 143,-169.2 204,-169.2 204,-147.2 143,-147.2"/>
<text text-anchor="start" x="145.994" y="-154.9" font-family="Helvetica,sans-Serif" font-size="11.00" fill="#000000">varchar[64]</text>
<polygon fill="none" stroke="#000000" points="10,-125.2 10,-147.2 143,-147.2 143,-125.2 10,-125.2"/>
<text text-anchor="start" x="30" y="-132.3" font-family="Helvetica,sans-Serif" font-size="11.00" fill="#000000">route_update_date</text>
<polygon fill="none" stroke="#000000" points="143,-125.2 143,-147.2 204,-147.2 204,-125.2 143,-125.2"/>
<text text-anchor="start" x="146" y="-132.9" font-family="Helvetica,sans-Serif" font-size="11.00" fill="#000000">date[13]</text>
<polygon fill="none" stroke="#000000" points="10,-103.2 10,-125.2 143,-125.2 143,-103.2 10,-103.2"/>
<text text-anchor="start" x="30" y="-110.3" font-family="Helvetica,sans-Serif" font-size="11.00" fill="#000000">origin_stop</text>
<polygon fill="none" stroke="#000000" points="143,-103.2 143,-125.2 204,-125.2 204,-103.2 143,-103.2"/>
<text text-anchor="start" x="145.994" y="-110.9" font-family="Helvetica,sans-Serif" font-size="11.00" fill="#000000">varchar[64]</text>
<polygon fill="none" stroke="#000000" points="10,-81.2 10,-103.2 143,-103.2 143,-81.2 10,-81.2"/>
<text text-anchor="start" x="30" y="-88.3" font-family="Helvetica,sans-Serif" font-size="11.00" fill="#000000">via_stop</text>
<polygon fill="none" stroke="#000000" points="143,-81.2 143,-103.2 204,-103.2 204,-81.2 143,-81.2"/>
<text text-anchor="start" x="145.994" y="-88.9" font-family="Helvetica,sans-Serif" font-size="11.00" fill="#000000">varchar[64]</text>
<polygon fill="none" stroke="#000000" points="10,-59.2 10,-81.2 143,-81.2 143,-59.2 10,-59.2"/>
<text text-anchor="start" x="30" y="-66.3" font-family="Helvetica,sans-Serif" font-size="11.00" fill="#000000">destination_stop</text>
<polygon fill="none" stroke="#000000" points="143,-59.2 143,-81.2 204,-81.2 204,-59.2 143,-59.2"/>
<text text-anchor="start" x="145.994" y="-66.9" font-family="Helvetica,sans-Serif" font-size="11.00" fill="#000000">varchar[64]</text>
<polygon fill="#ffffff" stroke="transparent" points="10,-40.2 10,-59.2 81,-59.2 81,-40.2 10,-40.2"/>
<polygon fill="none" stroke="#000000" points="10,-40.2 10,-59.2 81,-59.2 81,-40.2 10,-40.2"/>
<text text-anchor="start" x="13" y="-46.3" font-family="Helvetica,sans-Serif" font-size="11.00" fill="#000000">&lt; 0</text>
<polygon fill="#ffffff" stroke="transparent" points="81,-40.2 81,-59.2 143,-59.2 143,-40.2 81,-40.2"/>
<polygon fill="none" stroke="#000000" points="81,-40.2 81,-59.2 143,-59.2 143,-40.2 81,-40.2"/>
<text text-anchor="start" x="133.8862" y="-46.3" font-family="Helvetica,sans-Serif" font-size="11.00" fill="#000000"> &#160;</text>
<polygon fill="#ffffff" stroke="transparent" points="143,-40.2 143,-59.2 204,-59.2 204,-40.2 143,-40.2"/>
<polygon fill="none" stroke="#000000" points="143,-40.2 143,-59.2 204,-59.2 204,-40.2 143,-40.2"/>
<text text-anchor="start" x="185.4053" y="-46.3" font-family="Helvetica,sans-Serif" font-size="11.00" fill="#000000">1 &gt;</text>
<polygon fill="none" stroke="#000000" stroke-width="2" points="9,-39.2 9,-193.2 205,-193.2 205,-39.2 9,-39.2"/>
</a>
</g>
</g>
<!-- trips&#45;&gt;pattern_jp -->
<g id="edge4" class="edge">
<title>trips:w&#45;&gt;pattern_jp:e</title>
<path fill="none" stroke="#000000" d="M240.6193,-277.6515C208.1975,-257.4844 257.1692,-158.2 204,-158.2"/>
<polygon fill="#000000" stroke="#000000" points="247.233,-279.2834 254.1375,-284.6952 251.1165,-280.2417 255,-281.2 255,-281.2 255,-281.2 251.1165,-280.2417 255.8625,-277.7048 247.233,-279.2834 247.233,-279.2834"/>
<ellipse fill="none" stroke="#000000" cx="244.1261" cy="-278.5168" rx="3.2" ry="3.2"/>
</g>
<!-- routes -->
<g id="node6" class="node">
<title>routes</title>
<g id="a_node6"><a xlink:href="../../tables/routes.html" xlink:title="routes" target="_top">
<polygon fill="#ffffff" stroke="transparent" points="68,-461.7 68,-522.7 146,-522.7 146,-461.7 68,-461.7"/>
<polygon fill="#f5f5f5" stroke="transparent" points="68,-499.2 68,-522.2 146,-522.2 146,-499.2 68,-499.2"/>
<polygon fill="none" stroke="#000000" points="68,-499.2 68,-522.2 146,-522.2 146,-499.2 68,-499.2"/>
<text text-anchor="start" x="73" y="-507.8" font-family="Helvetica,sans-Serif" font-weight="bold" font-size="11.00" fill="#000000">routes</text>
<text text-anchor="start" x="111.5219" y="-507.3" font-family="Helvetica,sans-Serif" font-size="11.00" fill="#000000">[table]</text>
<polygon fill="none" stroke="#000000" points="68,-480.2 68,-499.2 146,-499.2 146,-480.2 68,-480.2"/>
<text text-anchor="start" x="71" y="-486.3" font-family="Helvetica,sans-Serif" font-size="11.00" fill="#000000">...</text>
<polygon fill="#ffffff" stroke="transparent" points="68,-461.2 68,-480.2 101,-480.2 101,-461.2 68,-461.2"/>
<polygon fill="none" stroke="#000000" points="68,-461.2 68,-480.2 101,-480.2 101,-461.2 68,-461.2"/>
<text text-anchor="start" x="71" y="-467.3" font-family="Helvetica,sans-Serif" font-size="11.00" fill="#000000">&lt; 1</text>
<polygon fill="#ffffff" stroke="transparent" points="101,-461.2 101,-480.2 119,-480.2 119,-461.2 101,-461.2"/>
<polygon fill="none" stroke="#000000" points="101,-461.2 101,-480.2 119,-480.2 119,-461.2 101,-461.2"/>
<text text-anchor="start" x="109.8862" y="-467.3" font-family="Helvetica,sans-Serif" font-size="11.00" fill="#000000"> &#160;</text>
<polygon fill="#ffffff" stroke="transparent" points="119,-461.2 119,-480.2 146,-480.2 146,-461.2 119,-461.2"/>
<polygon fill="none" stroke="#000000" points="119,-461.2 119,-480.2 146,-480.2 146,-461.2 119,-461.2"/>
<text text-anchor="start" x="127.4053" y="-467.3" font-family="Helvetica,sans-Serif" font-size="11.00" fill="#000000">2 &gt;</text>
</a>
</g>
</g>
<!-- trips&#45;&gt;routes -->
<g id="edge5" class="edge">
<title>trips:w&#45;&gt;routes:e</title>
<path fill="none" stroke="#000000" d="M240.7157,-372.5904C221.4508,-384.6711 237.8551,-426.2229 214,-451.2 190.088,-476.2367 180.6211,-489.2 146,-489.2"/>
<polygon fill="#000000" stroke="#000000" points="247.2162,-371.0475 255.8314,-372.7027 251.1081,-370.1238 255,-369.2 255,-369.2 255,-369.2 251.1081,-370.1238 254.1686,-365.6973 247.2162,-371.0475 247.2162,-371.0475"/>
<ellipse fill="none" stroke="#000000" cx="244.1027" cy="-371.7866" rx="3.2" ry="3.2"/>
</g>
<!-- calendar -->
<g id="node7" class="node">
<title>calendar</title>
<g id="a_node7"><a xlink:href="../../tables/calendar.html" xlink:title="calendar" target="_top">
<polygon fill="#ffffff" stroke="transparent" points="61.5,-379.7 61.5,-440.7 152.5,-440.7 152.5,-379.7 61.5,-379.7"/>
<polygon fill="#f5f5f5" stroke="transparent" points="62,-417.2 62,-440.2 153,-440.2 153,-417.2 62,-417.2"/>
<polygon fill="none" stroke="#000000" points="62,-417.2 62,-440.2 153,-440.2 153,-417.2 62,-417.2"/>
<text text-anchor="start" x="67" y="-425.8" font-family="Helvetica,sans-Serif" font-weight="bold" font-size="11.00" fill="#000000">calendar</text>
<text text-anchor="start" x="118.5219" y="-425.3" font-family="Helvetica,sans-Serif" font-size="11.00" fill="#000000">[table]</text>
<polygon fill="none" stroke="#000000" points="62,-398.2 62,-417.2 153,-417.2 153,-398.2 62,-398.2"/>
<text text-anchor="start" x="65" y="-404.3" font-family="Helvetica,sans-Serif" font-size="11.00" fill="#000000">...</text>
<polygon fill="#ffffff" stroke="transparent" points="62,-379.2 62,-398.2 97,-398.2 97,-379.2 62,-379.2"/>
<polygon fill="none" stroke="#000000" points="62,-379.2 62,-398.2 97,-398.2 97,-379.2 62,-379.2"/>
<text text-anchor="start" x="65" y="-385.3" font-family="Helvetica,sans-Serif" font-size="11.00" fill="#000000"> &#160;</text>
<polygon fill="#ffffff" stroke="transparent" points="97,-379.2 97,-398.2 120,-398.2 120,-379.2 97,-379.2"/>
<polygon fill="none" stroke="#000000" points="97,-379.2 97,-398.2 120,-398.2 120,-379.2 97,-379.2"/>
<text text-anchor="start" x="110.8862" y="-385.3" font-family="Helvetica,sans-Serif" font-size="11.00" fill="#000000"> &#160;</text>
<polygon fill="#ffffff" stroke="transparent" points="120,-379.2 120,-398.2 153,-398.2 153,-379.2 120,-379.2"/>
<polygon fill="none" stroke="#000000" points="120,-379.2 120,-398.2 153,-398.2 153,-379.2 120,-379.2"/>
<text text-anchor="start" x="134.4053" y="-385.3" font-family="Helvetica,sans-Serif" font-size="11.00" fill="#000000">1 &gt;</text>
</a>
</g>
</g>
<!-- trips&#45;&gt;calendar -->
<g id="edge6" class="edge">
<title>trips:w&#45;&gt;calendar:e</title>
<path fill="none" stroke="#000000" d="M240.7766,-351.324C213.4702,-364.8797 175.0857,-407.2 153,-407.2"/>
<polygon fill="#000000" stroke="#000000" points="247.3165,-349.4279 256.0025,-350.6576 251.1582,-348.3139 255,-347.2 255,-347.2 255,-347.2 251.1582,-348.3139 253.9975,-343.7424 247.3165,-349.4279 247.3165,-349.4279"/>
<ellipse fill="none" stroke="#000000" cx="244.243" cy="-350.319" rx="3.2" ry="3.2"/>
</g>
<!-- shapes -->
<g id="node8" class="node">
<title>shapes</title>
<g id="a_node8"><a xlink:href="../../tables/shapes.html" xlink:title="shapes" target="_top">
<polygon fill="#ffffff" stroke="transparent" points="67,-297.7 67,-358.7 147,-358.7 147,-297.7 67,-297.7"/>
<polygon fill="#f5f5f5" stroke="transparent" points="67,-335.2 67,-358.2 147,-358.2 147,-335.2 67,-335.2"/>
<polygon fill="none" stroke="#000000" points="67,-335.2 67,-358.2 147,-358.2 147,-335.2 67,-335.2"/>
<text text-anchor="start" x="72" y="-343.8" font-family="Helvetica,sans-Serif" font-weight="bold" font-size="11.00" fill="#000000">shapes</text>
<text text-anchor="start" x="112.5219" y="-343.3" font-family="Helvetica,sans-Serif" font-size="11.00" fill="#000000">[table]</text>
<polygon fill="none" stroke="#000000" points="67,-316.2 67,-335.2 147,-335.2 147,-316.2 67,-316.2"/>
<text text-anchor="start" x="70" y="-322.3" font-family="Helvetica,sans-Serif" font-size="11.00" fill="#000000">...</text>
<polygon fill="#ffffff" stroke="transparent" points="67,-297.2 67,-316.2 96,-316.2 96,-297.2 67,-297.2"/>
<polygon fill="none" stroke="#000000" points="67,-297.2 67,-316.2 96,-316.2 96,-297.2 67,-297.2"/>
<text text-anchor="start" x="70" y="-303.3" font-family="Helvetica,sans-Serif" font-size="11.00" fill="#000000"> &#160;</text>
<polygon fill="#ffffff" stroke="transparent" points="96,-297.2 96,-316.2 117,-316.2 117,-297.2 96,-297.2"/>
<polygon fill="none" stroke="#000000" points="96,-297.2 96,-316.2 117,-316.2 117,-297.2 96,-297.2"/>
<text text-anchor="start" x="107.8862" y="-303.3" font-family="Helvetica,sans-Serif" font-size="11.00" fill="#000000"> &#160;</text>
<polygon fill="#ffffff" stroke="transparent" points="117,-297.2 117,-316.2 147,-316.2 147,-297.2 117,-297.2"/>
<polygon fill="none" stroke="#000000" points="117,-297.2 117,-316.2 147,-316.2 147,-297.2 117,-297.2"/>
<text text-anchor="start" x="128.4053" y="-303.3" font-family="Helvetica,sans-Serif" font-size="11.00" fill="#000000">1 &gt;</text>
</a>
</g>
</g>
<!-- trips&#45;&gt;shapes -->
<g id="edge7" class="edge">
<title>trips:w&#45;&gt;shapes:e</title>
<path fill="none" stroke="#000000" d="M240.4478,-325.2C203.9443,-325.2 189.75,-325.2 147,-325.2"/>
<polygon fill="#000000" stroke="#000000" points="247,-325.2001 255,-328.8 251,-325.2 255,-325.2 255,-325.2 255,-325.2 251,-325.2 255,-321.6 247,-325.2001 247,-325.2001"/>
<ellipse fill="none" stroke="#000000" cx="243.8" cy="-325.2001" rx="3.2" ry="3.2"/>
</g>
<!-- stop_times -->
<g id="node3" class="node">
<title>stop_times</title>
<g id="a_node3"><a xlink:href="../../tables/stop_times.html" xlink:title="stop_times" target="_top">
<polygon fill="#ffffff" stroke="transparent" points="459,-322.7 459,-383.7 562,-383.7 562,-322.7 459,-322.7"/>
<polygon fill="#f5f5f5" stroke="transparent" points="459.5,-360.2 459.5,-383.2 562.5,-383.2 562.5,-360.2 459.5,-360.2"/>
<polygon fill="none" stroke="#000000" points="459.5,-360.2 459.5,-383.2 562.5,-383.2 562.5,-360.2 459.5,-360.2"/>
<text text-anchor="start" x="464.5" y="-368.8" font-family="Helvetica,sans-Serif" font-weight="bold" font-size="11.00" fill="#000000">stop_times</text>
<text text-anchor="start" x="528.0219" y="-368.3" font-family="Helvetica,sans-Serif" font-size="11.00" fill="#000000">[table]</text>
<polygon fill="none" stroke="#000000" points="459.5,-341.2 459.5,-360.2 562.5,-360.2 562.5,-341.2 459.5,-341.2"/>
<text text-anchor="start" x="462.5" y="-347.3" font-family="Helvetica,sans-Serif" font-size="11.00" fill="#000000">...</text>
<polygon fill="#ffffff" stroke="transparent" points="459.5,-322.2 459.5,-341.2 509.5,-341.2 509.5,-322.2 459.5,-322.2"/>
<polygon fill="none" stroke="#000000" points="459.5,-322.2 459.5,-341.2 509.5,-341.2 509.5,-322.2 459.5,-322.2"/>
<text text-anchor="start" x="462.5" y="-328.3" font-family="Helvetica,sans-Serif" font-size="11.00" fill="#000000">&lt; 2</text>
<polygon fill="#ffffff" stroke="transparent" points="509.5,-322.2 509.5,-341.2 535.5,-341.2 535.5,-322.2 509.5,-322.2"/>
<polygon fill="none" stroke="#000000" points="509.5,-322.2 509.5,-341.2 535.5,-341.2 535.5,-322.2 509.5,-322.2"/>
<text text-anchor="start" x="526.3862" y="-328.3" font-family="Helvetica,sans-Serif" font-size="11.00" fill="#000000"> &#160;</text>
<polygon fill="#ffffff" stroke="transparent" points="535.5,-322.2 535.5,-341.2 562.5,-341.2 562.5,-322.2 535.5,-322.2"/>
<polygon fill="none" stroke="#000000" points="535.5,-322.2 535.5,-341.2 562.5,-341.2 562.5,-322.2 535.5,-322.2"/>
<text text-anchor="start" x="553.3862" y="-328.3" font-family="Helvetica,sans-Serif" font-size="11.00" fill="#000000"> &#160;</text>
</a>
</g>
</g>
<!-- stop_times&#45;&gt;trips -->
<g id="edge2" class="edge">
<title>stop_times:w&#45;&gt;trips:e</title>
<path fill="none" stroke="#000000" d="M445.3456,-354.5877C431.1224,-365.1646 430.592,-391.2 407,-391.2"/>
<polygon fill="#000000" stroke="#000000" points="451.8587,-352.5688 460.5659,-353.6386 455.6794,-351.3844 459.5,-350.2 459.5,-350.2 459.5,-350.2 455.6794,-351.3844 458.4341,-346.7614 451.8587,-352.5688 451.8587,-352.5688"/>
<ellipse fill="none" stroke="#000000" cx="448.8022" cy="-353.5163" rx="3.2" ry="3.2"/>
</g>
</g>
</svg>
