<?xml version="1.0" encoding="UTF-8" standalone="no"?>
<!DOCTYPE svg PUBLIC "-//W3C//DTD SVG 1.1//EN"
 "http://www.w3.org/Graphics/SVG/1.1/DTD/svg11.dtd">
<!-- Generated by graphviz version 2.40.1 (20161225.0304)
 -->
<!-- Title: oneDegreeRelationshipsDiagram Pages: 1 -->
<svg width="423pt" height="315pt"
 viewBox="0.00 0.00 423.00 314.70" xmlns="http://www.w3.org/2000/svg" xmlns:xlink="http://www.w3.org/1999/xlink">
<g id="graph0" class="graph" transform="scale(1 1) rotate(0) translate(4 310.7)">
<title>oneDegreeRelationshipsDiagram</title>
<polygon fill="#ffffff" stroke="transparent" points="-4,4 -4,-310.7 419,-310.7 419,4 -4,4"/>
<text text-anchor="middle" x="72.4936" y="-7.3" font-family="Helvetica,sans-Serif" font-size="11.00" fill="#000000">Generated by SchemaSpy</text>
<!-- trips -->
<g id="node1" class="node">
<title>trips</title>
<g id="a_node1"><a xlink:href="../../tables/trips.html" xlink:title="trips" target="_top">
<polygon fill="#ffffff" stroke="transparent" points="255,-109.7 255,-302.7 407,-302.7 407,-109.7 255,-109.7"/>
<polygon fill="#f5f5f5" stroke="transparent" points="255,-279.2 255,-302.2 407,-302.2 407,-279.2 255,-279.2"/>
<polygon fill="none" stroke="#000000" points="255,-279.2 255,-302.2 407,-302.2 407,-279.2 255,-279.2"/>
<text text-anchor="start" x="260" y="-287.8" font-family="Helvetica,sans-Serif" font-weight="bold" font-size="11.00" fill="#000000">trips</text>
<text text-anchor="start" x="372.0437" y="-287.3" font-family="Helvetica,sans-Serif" font-size="11.00" fill="#000000">[table]</text>
<polygon fill="none" stroke="#000000" points="255,-257.2 255,-279.2 407,-279.2 407,-257.2 255,-257.2"/>
<image xlink:href="../../images/primaryKeys.png" width="11px" height="12px" preserveAspectRatio="xMinYMin meet" x="260" y="-274.2"/>
<text text-anchor="start" x="275" y="-264.3" font-family="Helvetica,sans-Serif" font-size="11.00" fill="#000000">trip_id</text>
<polygon fill="none" stroke="#000000" points="255,-235.2 255,-257.2 407,-257.2 407,-235.2 255,-235.2"/>
<image xlink:href="../../images/foreignKeys.png" width="11px" height="12px" preserveAspectRatio="xMinYMin meet" x="260" y="-252.2"/>
<text text-anchor="start" x="275" y="-242.3" font-family="Helvetica,sans-Serif" font-size="11.00" fill="#000000">route_id</text>
<polygon fill="none" stroke="#000000" points="255,-213.2 255,-235.2 407,-235.2 407,-213.2 255,-213.2"/>
<image xlink:href="../../images/foreignKeys.png" width="11px" height="12px" preserveAspectRatio="xMinYMin meet" x="260" y="-230.2"/>
<text text-anchor="start" x="275" y="-220.3" font-family="Helvetica,sans-Serif" font-size="11.00" fill="#000000">service_id</text>
<polygon fill="none" stroke="#000000" points="255,-191.2 255,-213.2 407,-213.2 407,-191.2 255,-191.2"/>
<image xlink:href="../../images/foreignKeys.png" width="11px" height="12px" preserveAspectRatio="xMinYMin meet" x="260" y="-208.2"/>
<text text-anchor="start" x="275" y="-198.3" font-family="Helvetica,sans-Serif" font-size="11.00" fill="#000000">shape_id</text>
<polygon fill="none" stroke="#000000" points="255,-169.2 255,-191.2 407,-191.2 407,-169.2 255,-169.2"/>
<image xlink:href="../../images/foreignKeys.png" width="11px" height="12px" preserveAspectRatio="xMinYMin meet" x="260" y="-186.2"/>
<text text-anchor="start" x="275" y="-176.3" font-family="Helvetica,sans-Serif" font-size="11.00" fill="#000000">jp_office_id</text>
<polygon fill="none" stroke="#000000" points="255,-147.2 255,-169.2 407,-169.2 407,-147.2 255,-147.2"/>
<image xlink:href="../../images/foreignKeys.png" width="11px" height="12px" preserveAspectRatio="xMinYMin meet" x="260" y="-164.2"/>
<text text-anchor="start" x="275" y="-154.3" font-family="Helvetica,sans-Serif" font-size="11.00" fill="#000000">jp_pattern_id</text>
<polygon fill="none" stroke="#000000" points="255,-128.2 255,-147.2 407,-147.2 407,-128.2 255,-128.2"/>
<text text-anchor="start" x="258" y="-134.3" font-family="Helvetica,sans-Serif" font-size="11.00" fill="#000000">...</text>
<polygon fill="#ffffff" stroke="transparent" points="255,-109.2 255,-128.2 325,-128.2 325,-109.2 255,-109.2"/>
<polygon fill="none" stroke="#000000" points="255,-109.2 255,-128.2 325,-128.2 325,-109.2 255,-109.2"/>
<text text-anchor="start" x="258" y="-115.3" font-family="Helvetica,sans-Serif" font-size="11.00" fill="#000000">&lt; 5</text>
<polygon fill="#ffffff" stroke="transparent" points="325,-109.2 325,-128.2 361,-128.2 361,-109.2 325,-109.2"/>
<polygon fill="none" stroke="#000000" points="325,-109.2 325,-128.2 361,-128.2 361,-109.2 325,-109.2"/>
<text text-anchor="start" x="351.8862" y="-115.3" font-family="Helvetica,sans-Serif" font-size="11.00" fill="#000000"> &#160;</text>
<polygon fill="#ffffff" stroke="transparent" points="361,-109.2 361,-128.2 407,-128.2 407,-109.2 361,-109.2"/>
<polygon fill="none" stroke="#000000" points="361,-109.2 361,-128.2 407,-128.2 407,-109.2 361,-109.2"/>
<text text-anchor="start" x="388.4053" y="-115.3" font-family="Helvetica,sans-Serif" font-size="11.00" fill="#000000">2 &gt;</text>
</a>
</g>
</g>
<!-- pattern_jp -->
<g id="node2" class="node">
<title>pattern_jp</title>
<g id="a_node2"><a xlink:href="../../tables/pattern_jp.html" xlink:title="pattern_jp" target="_top">
<polygon fill="#ffffff" stroke="transparent" points="8,-38.2 8,-194.2 206,-194.2 206,-38.2 8,-38.2"/>
<polygon fill="#f5f5f5" stroke="transparent" points="10,-169.2 10,-192.2 204,-192.2 204,-169.2 10,-169.2"/>
<polygon fill="none" stroke="#000000" points="10,-169.2 10,-192.2 204,-192.2 204,-169.2 10,-169.2"/>
<text text-anchor="start" x="15" y="-177.8" font-family="Helvetica,sans-Serif" font-weight="bold" font-size="11.00" fill="#000000">pattern_jp</text>
<text text-anchor="start" x="169.0437" y="-177.3" font-family="Helvetica,sans-Serif" font-size="11.00" fill="#000000">[table]</text>
<polygon fill="none" stroke="#000000" points="10,-147.2 10,-169.2 143,-169.2 143,-147.2 10,-147.2"/>
<image xlink:href="../../images/primaryKeys.png" width="11px" height="12px" preserveAspectRatio="xMinYMin meet" x="15" y="-164.2"/>
<text text-anchor="start" x="30" y="-154.3" font-family="Helvetica,sans-Serif" font-size="11.00" fill="#000000">jp_pattern_id</text>
<polygon fill="none" stroke="#000000" points="143,-147.2 143,-169.2 204,-169.2 204,-147.2 143,-147.2"/>
<text text-anchor="start" x="145.994" y="-154.9" font-family="Helvetica,sans-Serif" font-size="11.00" fill="#000000">varchar[64]</text>
<polygon fill="none" stroke="#000000" points="10,-125.2 10,-147.2 143,-147.2 143,-125.2 10,-125.2"/>
<text text-anchor="start" x="30" y="-132.3" font-family="Helvetica,sans-Serif" font-size="11.00" fill="#000000">route_update_date</text>
<polygon fill="none" stroke="#000000" points="143,-125.2 143,-147.2 204,-147.2 204,-125.2 143,-125.2"/>
<text text-anchor="start" x="146" y="-132.9" font-family="Helvetica,sans-Serif" font-size="11.00" fill="#000000">date[13]</text>
<polygon fill="none" stroke="#000000" points="10,-103.2 10,-125.2 143,-125.2 143,-103.2 10,-103.2"/>
<text text-anchor="start" x="30" y="-110.3" font-family="Helvetica,sans-Serif" font-size="11.00" fill="#000000">origin_stop</text>
<polygon fill="none" stroke="#000000" points="143,-103.2 143,-125.2 204,-125.2 204,-103.2 143,-103.2"/>
<text text-anchor="start" x="145.994" y="-110.9" font-family="Helvetica,sans-Serif" font-size="11.00" fill="#000000">varchar[64]</text>
<polygon fill="none" stroke="#000000" points="10,-81.2 10,-103.2 143,-103.2 143,-81.2 10,-81.2"/>
<text text-anchor="start" x="30" y="-88.3" font-family="Helvetica,sans-Serif" font-size="11.00" fill="#000000">via_stop</text>
<polygon fill="none" stroke="#000000" points="143,-81.2 143,-103.2 204,-103.2 204,-81.2 143,-81.2"/>
<text text-anchor="start" x="145.994" y="-88.9" font-family="Helvetica,sans-Serif" font-size="11.00" fill="#000000">varchar[64]</text>
<polygon fill="none" stroke="#000000" points="10,-59.2 10,-81.2 143,-81.2 143,-59.2 10,-59.2"/>
<text text-anchor="start" x="30" y="-66.3" font-family="Helvetica,sans-Serif" font-size="11.00" fill="#000000">destination_stop</text>
<polygon fill="none" stroke="#000000" points="143,-59.2 143,-81.2 204,-81.2 204,-59.2 143,-59.2"/>
<text text-anchor="start" x="145.994" y="-66.9" font-family="Helvetica,sans-Serif" font-size="11.00" fill="#000000">varchar[64]</text>
<polygon fill="#ffffff" stroke="transparent" points="10,-40.2 10,-59.2 81,-59.2 81,-40.2 10,-40.2"/>
<polygon fill="none" stroke="#000000" points="10,-40.2 10,-59.2 81,-59.2 81,-40.2 10,-40.2"/>
<text text-anchor="start" x="13" y="-46.3" font-family="Helvetica,sans-Serif" font-size="11.00" fill="#000000">&lt; 0</text>
<polygon fill="#ffffff" stroke="transparent" points="81,-40.2 81,-59.2 143,-59.2 143,-40.2 81,-40.2"/>
<polygon fill="none" stroke="#000000" points="81,-40.2 81,-59.2 143,-59.2 143,-40.2 81,-40.2"/>
<text text-anchor="start" x="133.8862" y="-46.3" font-family="Helvetica,sans-Serif" font-size="11.00" fill="#000000"> &#160;</text>
<polygon fill="#ffffff" stroke="transparent" points="143,-40.2 143,-59.2 204,-59.2 204,-40.2 143,-40.2"/>
<polygon fill="none" stroke="#000000" points="143,-40.2 143,-59.2 204,-59.2 204,-40.2 143,-40.2"/>
<text text-anchor="start" x="185.4053" y="-46.3" font-family="Helvetica,sans-Serif" font-size="11.00" fill="#000000">1 &gt;</text>
<polygon fill="none" stroke="#000000" stroke-width="2" points="9,-39.2 9,-193.2 205,-193.2 205,-39.2 9,-39.2"/>
</a>
</g>
</g>
<!-- trips&#45;&gt;pattern_jp -->
<g id="edge1" class="edge">
<title>trips:w&#45;&gt;pattern_jp:e</title>
<path fill="none" stroke="#000000" d="M240.276,-158.2C228.2815,-158.2 220.8229,-158.2 204,-158.2"/>
<polygon fill="#000000" stroke="#000000" points="247,-158.2001 255,-161.8 251,-158.2 255,-158.2 255,-158.2 255,-158.2 251,-158.2 255,-154.6 247,-158.2001 247,-158.2001"/>
<ellipse fill="none" stroke="#000000" cx="243.8" cy="-158.2001" rx="3.2" ry="3.2"/>
</g>
</g>
</svg>
