<?xml version="1.0" encoding="UTF-8" standalone="no"?>
<!DOCTYPE svg PUBLIC "-//W3C//DTD SVG 1.1//EN"
 "http://www.w3.org/Graphics/SVG/1.1/DTD/svg11.dtd">
<!-- Generated by graphviz version 2.40.1 (20161225.0304)
 -->
<!-- Title: twoDegreesRelationshipsDiagram Pages: 1 -->
<svg width="780pt" height="727pt"
 viewBox="0.00 0.00 780.00 727.20" xmlns="http://www.w3.org/2000/svg" xmlns:xlink="http://www.w3.org/1999/xlink">
<g id="graph0" class="graph" transform="scale(1 1) rotate(0) translate(4 723.2)">
<title>twoDegreesRelationshipsDiagram</title>
<polygon fill="#ffffff" stroke="transparent" points="-4,4 -4,-723.2 776,-723.2 776,4 -4,4"/>
<text text-anchor="middle" x="72.4936" y="-7.3" font-family="Helvetica,sans-Serif" font-size="11.00" fill="#000000">Generated by SchemaSpy</text>
<!-- agency_jp -->
<g id="node1" class="node">
<title>agency_jp</title>
<g id="a_node1"><a xlink:href="../../tables/agency_jp.html" xlink:title="agency_jp" target="_top">
<polygon fill="#ffffff" stroke="transparent" points="244,-654.2 244,-715.2 341,-715.2 341,-654.2 244,-654.2"/>
<polygon fill="#f5f5f5" stroke="transparent" points="244.5,-691.7 244.5,-714.7 341.5,-714.7 341.5,-691.7 244.5,-691.7"/>
<polygon fill="none" stroke="#000000" points="244.5,-691.7 244.5,-714.7 341.5,-714.7 341.5,-691.7 244.5,-691.7"/>
<text text-anchor="start" x="249.5" y="-700.3" font-family="Helvetica,sans-Serif" font-weight="bold" font-size="11.00" fill="#000000">agency_jp</text>
<text text-anchor="start" x="307.0219" y="-699.8" font-family="Helvetica,sans-Serif" font-size="11.00" fill="#000000">[table]</text>
<polygon fill="none" stroke="#000000" points="244.5,-672.7 244.5,-691.7 341.5,-691.7 341.5,-672.7 244.5,-672.7"/>
<text text-anchor="start" x="247.5" y="-678.8" font-family="Helvetica,sans-Serif" font-size="11.00" fill="#000000">...</text>
<polygon fill="#ffffff" stroke="transparent" points="244.5,-653.7 244.5,-672.7 291.5,-672.7 291.5,-653.7 244.5,-653.7"/>
<polygon fill="none" stroke="#000000" points="244.5,-653.7 244.5,-672.7 291.5,-672.7 291.5,-653.7 244.5,-653.7"/>
<text text-anchor="start" x="247.5" y="-659.8" font-family="Helvetica,sans-Serif" font-size="11.00" fill="#000000">&lt; 1</text>
<polygon fill="#ffffff" stroke="transparent" points="291.5,-653.7 291.5,-672.7 316.5,-672.7 316.5,-653.7 291.5,-653.7"/>
<polygon fill="none" stroke="#000000" points="291.5,-653.7 291.5,-672.7 316.5,-672.7 316.5,-653.7 291.5,-653.7"/>
<text text-anchor="start" x="307.3862" y="-659.8" font-family="Helvetica,sans-Serif" font-size="11.00" fill="#000000"> &#160;</text>
<polygon fill="#ffffff" stroke="transparent" points="316.5,-653.7 316.5,-672.7 341.5,-672.7 341.5,-653.7 316.5,-653.7"/>
<polygon fill="none" stroke="#000000" points="316.5,-653.7 316.5,-672.7 341.5,-672.7 341.5,-653.7 316.5,-653.7"/>
<text text-anchor="start" x="332.3862" y="-659.8" font-family="Helvetica,sans-Serif" font-size="11.00" fill="#000000"> &#160;</text>
</a>
</g>
</g>
<!-- agency -->
<g id="node2" class="node">
<title>agency</title>
<g id="a_node2"><a xlink:href="../../tables/agency.html" xlink:title="agency" target="_top">
<polygon fill="#ffffff" stroke="transparent" points="8,-579.2 8,-662.2 131,-662.2 131,-579.2 8,-579.2"/>
<polygon fill="#f5f5f5" stroke="transparent" points="8.5,-638.7 8.5,-661.7 131.5,-661.7 131.5,-638.7 8.5,-638.7"/>
<polygon fill="none" stroke="#000000" points="8.5,-638.7 8.5,-661.7 131.5,-661.7 131.5,-638.7 8.5,-638.7"/>
<text text-anchor="start" x="13.5" y="-647.3" font-family="Helvetica,sans-Serif" font-weight="bold" font-size="11.00" fill="#000000">agency</text>
<text text-anchor="start" x="96.5437" y="-646.8" font-family="Helvetica,sans-Serif" font-size="11.00" fill="#000000">[table]</text>
<polygon fill="none" stroke="#000000" points="8.5,-616.7 8.5,-638.7 131.5,-638.7 131.5,-616.7 8.5,-616.7"/>
<image xlink:href="../../images/primaryKeys.png" width="11px" height="12px" preserveAspectRatio="xMinYMin meet" x="13.5" y="-633.7"/>
<text text-anchor="start" x="28.5" y="-623.8" font-family="Helvetica,sans-Serif" font-size="11.00" fill="#000000">agency_id</text>
<polygon fill="none" stroke="#000000" points="8.5,-597.7 8.5,-616.7 131.5,-616.7 131.5,-597.7 8.5,-597.7"/>
<text text-anchor="start" x="11.5" y="-603.8" font-family="Helvetica,sans-Serif" font-size="11.00" fill="#000000">...</text>
<polygon fill="#ffffff" stroke="transparent" points="8.5,-578.7 8.5,-597.7 59.5,-597.7 59.5,-578.7 8.5,-578.7"/>
<polygon fill="none" stroke="#000000" points="8.5,-578.7 8.5,-597.7 59.5,-597.7 59.5,-578.7 8.5,-578.7"/>
<text text-anchor="start" x="11.5" y="-584.8" font-family="Helvetica,sans-Serif" font-size="11.00" fill="#000000"> &#160;</text>
<polygon fill="#ffffff" stroke="transparent" points="59.5,-578.7 59.5,-597.7 90.5,-597.7 90.5,-578.7 59.5,-578.7"/>
<polygon fill="none" stroke="#000000" points="59.5,-578.7 59.5,-597.7 90.5,-597.7 90.5,-578.7 59.5,-578.7"/>
<text text-anchor="start" x="81.3862" y="-584.8" font-family="Helvetica,sans-Serif" font-size="11.00" fill="#000000"> &#160;</text>
<polygon fill="#ffffff" stroke="transparent" points="90.5,-578.7 90.5,-597.7 131.5,-597.7 131.5,-578.7 90.5,-578.7"/>
<polygon fill="none" stroke="#000000" points="90.5,-578.7 90.5,-597.7 131.5,-597.7 131.5,-578.7 90.5,-578.7"/>
<text text-anchor="start" x="112.9053" y="-584.8" font-family="Helvetica,sans-Serif" font-size="11.00" fill="#000000">2 &gt;</text>
</a>
</g>
</g>
<!-- agency_jp&#45;&gt;agency -->
<g id="edge1" class="edge">
<title>agency_jp:w&#45;&gt;agency:e</title>
<path fill="none" stroke="#000000" d="M233.9916,-679.7781C204.057,-670.1586 156.1783,-627.7 131.5,-627.7"/>
<polygon fill="#000000" stroke="#000000" points="244.4327,-677.6213 242.9934,-685.4908 241.4195,-685.2029 242.8588,-677.3335 244.4327,-677.6213"/>
<polyline fill="none" stroke="#000000" points="244.5,-681.7 240.5653,-680.9803 "/>
<ellipse fill="none" stroke="#000000" cx="237.4175" cy="-680.4046" rx="3.2" ry="3.2"/>
</g>
<!-- fare_rules -->
<g id="node3" class="node">
<title>fare_rules</title>
<g id="a_node3"><a xlink:href="../../tables/fare_rules.html" xlink:title="fare_rules" target="_top">
<polygon fill="#ffffff" stroke="transparent" points="656.5,-491.2 656.5,-640.2 762.5,-640.2 762.5,-491.2 656.5,-491.2"/>
<polygon fill="#f5f5f5" stroke="transparent" points="656.5,-616.7 656.5,-639.7 762.5,-639.7 762.5,-616.7 656.5,-616.7"/>
<polygon fill="none" stroke="#000000" points="656.5,-616.7 656.5,-639.7 762.5,-639.7 762.5,-616.7 656.5,-616.7"/>
<text text-anchor="start" x="661.5" y="-625.3" font-family="Helvetica,sans-Serif" font-weight="bold" font-size="11.00" fill="#000000">fare_rules</text>
<text text-anchor="start" x="727.5437" y="-624.8" font-family="Helvetica,sans-Serif" font-size="11.00" fill="#000000">[table]</text>
<polygon fill="none" stroke="#000000" points="656.5,-594.7 656.5,-616.7 762.5,-616.7 762.5,-594.7 656.5,-594.7"/>
<image xlink:href="../../images/foreignKeys.png" width="11px" height="12px" preserveAspectRatio="xMinYMin meet" x="661.5" y="-611.7"/>
<text text-anchor="start" x="676.5" y="-601.8" font-family="Helvetica,sans-Serif" font-size="11.00" fill="#000000">fare_id</text>
<polygon fill="none" stroke="#000000" points="656.5,-572.7 656.5,-594.7 762.5,-594.7 762.5,-572.7 656.5,-572.7"/>
<image xlink:href="../../images/foreignKeys.png" width="11px" height="12px" preserveAspectRatio="xMinYMin meet" x="661.5" y="-589.7"/>
<text text-anchor="start" x="676.5" y="-579.8" font-family="Helvetica,sans-Serif" font-size="11.00" fill="#000000">route_id</text>
<polygon fill="none" stroke="#000000" points="656.5,-550.7 656.5,-572.7 762.5,-572.7 762.5,-550.7 656.5,-550.7"/>
<image xlink:href="../../images/foreignKeys.png" width="11px" height="12px" preserveAspectRatio="xMinYMin meet" x="661.5" y="-567.7"/>
<text text-anchor="start" x="676.5" y="-557.8" font-family="Helvetica,sans-Serif" font-size="11.00" fill="#000000">origin_id</text>
<polygon fill="none" stroke="#000000" points="656.5,-528.7 656.5,-550.7 762.5,-550.7 762.5,-528.7 656.5,-528.7"/>
<image xlink:href="../../images/foreignKeys.png" width="11px" height="12px" preserveAspectRatio="xMinYMin meet" x="661.5" y="-545.7"/>
<text text-anchor="start" x="676.5" y="-535.8" font-family="Helvetica,sans-Serif" font-size="11.00" fill="#000000">destination_id</text>
<polygon fill="none" stroke="#000000" points="656.5,-509.7 656.5,-528.7 762.5,-528.7 762.5,-509.7 656.5,-509.7"/>
<text text-anchor="start" x="659.5" y="-515.8" font-family="Helvetica,sans-Serif" font-size="11.00" fill="#000000">...</text>
<polygon fill="#ffffff" stroke="transparent" points="656.5,-490.7 656.5,-509.7 707.5,-509.7 707.5,-490.7 656.5,-490.7"/>
<polygon fill="none" stroke="#000000" points="656.5,-490.7 656.5,-509.7 707.5,-509.7 707.5,-490.7 656.5,-490.7"/>
<text text-anchor="start" x="659.5" y="-496.8" font-family="Helvetica,sans-Serif" font-size="11.00" fill="#000000">&lt; 4</text>
<polygon fill="#ffffff" stroke="transparent" points="707.5,-490.7 707.5,-509.7 734.5,-509.7 734.5,-490.7 707.5,-490.7"/>
<polygon fill="none" stroke="#000000" points="707.5,-490.7 707.5,-509.7 734.5,-509.7 734.5,-490.7 707.5,-490.7"/>
<text text-anchor="start" x="725.3862" y="-496.8" font-family="Helvetica,sans-Serif" font-size="11.00" fill="#000000"> &#160;</text>
<polygon fill="#ffffff" stroke="transparent" points="734.5,-490.7 734.5,-509.7 762.5,-509.7 762.5,-490.7 734.5,-490.7"/>
<polygon fill="none" stroke="#000000" points="734.5,-490.7 734.5,-509.7 762.5,-509.7 762.5,-490.7 734.5,-490.7"/>
<text text-anchor="start" x="753.3862" y="-496.8" font-family="Helvetica,sans-Serif" font-size="11.00" fill="#000000"> &#160;</text>
</a>
</g>
</g>
<!-- stops -->
<g id="node4" class="node">
<title>stops</title>
<g id="a_node4"><a xlink:href="../../tables/stops.html" xlink:title="stops" target="_top">
<polygon fill="#ffffff" stroke="transparent" points="494.5,-505.2 494.5,-566.2 565.5,-566.2 565.5,-505.2 494.5,-505.2"/>
<polygon fill="#f5f5f5" stroke="transparent" points="495,-542.7 495,-565.7 566,-565.7 566,-542.7 495,-542.7"/>
<polygon fill="none" stroke="#000000" points="495,-542.7 495,-565.7 566,-565.7 566,-542.7 495,-542.7"/>
<text text-anchor="start" x="500" y="-551.3" font-family="Helvetica,sans-Serif" font-weight="bold" font-size="11.00" fill="#000000">stops</text>
<text text-anchor="start" x="531.5219" y="-550.8" font-family="Helvetica,sans-Serif" font-size="11.00" fill="#000000">[table]</text>
<polygon fill="none" stroke="#000000" points="495,-523.7 495,-542.7 566,-542.7 566,-523.7 495,-523.7"/>
<text text-anchor="start" x="498" y="-529.8" font-family="Helvetica,sans-Serif" font-size="11.00" fill="#000000">...</text>
<polygon fill="#ffffff" stroke="transparent" points="495,-504.7 495,-523.7 520,-523.7 520,-504.7 495,-504.7"/>
<polygon fill="none" stroke="#000000" points="495,-504.7 495,-523.7 520,-523.7 520,-504.7 495,-504.7"/>
<text text-anchor="start" x="498" y="-510.8" font-family="Helvetica,sans-Serif" font-size="11.00" fill="#000000"> &#160;</text>
<polygon fill="#ffffff" stroke="transparent" points="520,-504.7 520,-523.7 538,-523.7 538,-504.7 520,-504.7"/>
<polygon fill="none" stroke="#000000" points="520,-504.7 520,-523.7 538,-523.7 538,-504.7 520,-504.7"/>
<text text-anchor="start" x="528.8862" y="-510.8" font-family="Helvetica,sans-Serif" font-size="11.00" fill="#000000"> &#160;</text>
<polygon fill="#ffffff" stroke="transparent" points="538,-504.7 538,-523.7 566,-523.7 566,-504.7 538,-504.7"/>
<polygon fill="none" stroke="#000000" points="538,-504.7 538,-523.7 566,-523.7 566,-504.7 538,-504.7"/>
<text text-anchor="start" x="547.4053" y="-510.8" font-family="Helvetica,sans-Serif" font-size="11.00" fill="#000000">5 &gt;</text>
</a>
</g>
</g>
<!-- fare_rules&#45;&gt;stops -->
<g id="edge2" class="edge">
<title>fare_rules:w&#45;&gt;stops:e</title>
<path fill="none" stroke="#000000" d="M641.8985,-539.3624C613.012,-537.9641 600.9844,-532.7 566,-532.7"/>
<polygon fill="#000000" stroke="#000000" points="648.5021,-539.515 656.4168,-543.299 652.5011,-539.6075 656.5,-539.7 656.5,-539.7 656.5,-539.7 652.5011,-539.6075 656.5832,-536.101 648.5021,-539.515 648.5021,-539.515"/>
<ellipse fill="none" stroke="#000000" cx="645.303" cy="-539.441" rx="3.2" ry="3.2"/>
</g>
<!-- fare_rules&#45;&gt;stops -->
<g id="edge4" class="edge">
<title>fare_rules:w&#45;&gt;stops:e</title>
<path fill="none" stroke="#000000" d="M641.8162,-560.3786C612.1078,-554.7053 602.7922,-532.7 566,-532.7"/>
<polygon fill="#000000" stroke="#000000" points="648.5322,-560.9829 656.1773,-565.2855 652.5161,-561.3415 656.5,-561.7 656.5,-561.7 656.5,-561.7 652.5161,-561.3415 656.8227,-558.1145 648.5322,-560.9829 648.5322,-560.9829"/>
<ellipse fill="none" stroke="#000000" cx="645.3451" cy="-560.6961" rx="3.2" ry="3.2"/>
</g>
<!-- fare_attributes -->
<g id="node5" class="node">
<title>fare_attributes</title>
<g id="a_node5"><a xlink:href="../../tables/fare_attributes.html" xlink:title="fare_attributes" target="_top">
<polygon fill="#ffffff" stroke="transparent" points="466,-615.2 466,-676.2 594,-676.2 594,-615.2 466,-615.2"/>
<polygon fill="#f5f5f5" stroke="transparent" points="466,-652.7 466,-675.7 594,-675.7 594,-652.7 466,-652.7"/>
<polygon fill="none" stroke="#000000" points="466,-652.7 466,-675.7 594,-675.7 594,-652.7 466,-652.7"/>
<text text-anchor="start" x="471" y="-661.3" font-family="Helvetica,sans-Serif" font-weight="bold" font-size="11.00" fill="#000000">fare_attributes</text>
<text text-anchor="start" x="559.5219" y="-660.8" font-family="Helvetica,sans-Serif" font-size="11.00" fill="#000000">[table]</text>
<polygon fill="none" stroke="#000000" points="466,-633.7 466,-652.7 594,-652.7 594,-633.7 466,-633.7"/>
<text text-anchor="start" x="469" y="-639.8" font-family="Helvetica,sans-Serif" font-size="11.00" fill="#000000">...</text>
<polygon fill="#ffffff" stroke="transparent" points="466,-614.7 466,-633.7 519,-633.7 519,-614.7 466,-614.7"/>
<polygon fill="none" stroke="#000000" points="466,-614.7 466,-633.7 519,-633.7 519,-614.7 466,-614.7"/>
<text text-anchor="start" x="469" y="-620.8" font-family="Helvetica,sans-Serif" font-size="11.00" fill="#000000"> &#160;</text>
<polygon fill="#ffffff" stroke="transparent" points="519,-614.7 519,-633.7 552,-633.7 552,-614.7 519,-614.7"/>
<polygon fill="none" stroke="#000000" points="519,-614.7 519,-633.7 552,-633.7 552,-614.7 519,-614.7"/>
<text text-anchor="start" x="542.8862" y="-620.8" font-family="Helvetica,sans-Serif" font-size="11.00" fill="#000000"> &#160;</text>
<polygon fill="#ffffff" stroke="transparent" points="552,-614.7 552,-633.7 594,-633.7 594,-614.7 552,-614.7"/>
<polygon fill="none" stroke="#000000" points="552,-614.7 552,-633.7 594,-633.7 594,-614.7 552,-614.7"/>
<text text-anchor="start" x="575.4053" y="-620.8" font-family="Helvetica,sans-Serif" font-size="11.00" fill="#000000">1 &gt;</text>
</a>
</g>
</g>
<!-- fare_rules&#45;&gt;fare_attributes -->
<g id="edge3" class="edge">
<title>fare_rules:w&#45;&gt;fare_attributes:e</title>
<path fill="none" stroke="#000000" d="M642.2874,-608.7279C623.883,-617.5645 620.6061,-642.7 594,-642.7"/>
<polygon fill="#000000" stroke="#000000" points="648.6756,-607.367 657.2501,-609.221 652.5878,-606.5335 656.5,-605.7 656.5,-605.7 656.5,-605.7 652.5878,-606.5335 655.7499,-602.179 648.6756,-607.367 648.6756,-607.367"/>
<ellipse fill="none" stroke="#000000" cx="645.5458" cy="-608.0338" rx="3.2" ry="3.2"/>
</g>
<!-- routes -->
<g id="node6" class="node">
<title>routes</title>
<g id="a_node6"><a xlink:href="../../tables/routes.html" xlink:title="routes" target="_top">
<polygon fill="#ffffff" stroke="transparent" points="180,-366.7 180,-632.7 405,-632.7 405,-366.7 180,-366.7"/>
<polygon fill="#f5f5f5" stroke="transparent" points="182.5,-607.7 182.5,-630.7 403.5,-630.7 403.5,-607.7 182.5,-607.7"/>
<polygon fill="none" stroke="#000000" points="182.5,-607.7 182.5,-630.7 403.5,-630.7 403.5,-607.7 182.5,-607.7"/>
<text text-anchor="start" x="187.5" y="-616.3" font-family="Helvetica,sans-Serif" font-weight="bold" font-size="11.00" fill="#000000">routes</text>
<text text-anchor="start" x="368.5437" y="-615.8" font-family="Helvetica,sans-Serif" font-size="11.00" fill="#000000">[table]</text>
<polygon fill="none" stroke="#000000" points="182.5,-585.7 182.5,-607.7 313.5,-607.7 313.5,-585.7 182.5,-585.7"/>
<image xlink:href="../../images/primaryKeys.png" width="11px" height="12px" preserveAspectRatio="xMinYMin meet" x="187.5" y="-602.7"/>
<text text-anchor="start" x="202.5" y="-592.8" font-family="Helvetica,sans-Serif" font-size="11.00" fill="#000000">route_id</text>
<polygon fill="none" stroke="#000000" points="313.5,-585.7 313.5,-607.7 403.5,-607.7 403.5,-585.7 313.5,-585.7"/>
<text text-anchor="start" x="316.5" y="-593.4" font-family="Helvetica,sans-Serif" font-size="11.00" fill="#000000">varchar[64]</text>
<polygon fill="none" stroke="#000000" points="182.5,-563.7 182.5,-585.7 313.5,-585.7 313.5,-563.7 182.5,-563.7"/>
<image xlink:href="../../images/foreignKeys.png" width="11px" height="12px" preserveAspectRatio="xMinYMin meet" x="187.5" y="-580.7"/>
<text text-anchor="start" x="202.5" y="-570.8" font-family="Helvetica,sans-Serif" font-size="11.00" fill="#000000">agency_id</text>
<polygon fill="none" stroke="#000000" points="313.5,-563.7 313.5,-585.7 403.5,-585.7 403.5,-563.7 313.5,-563.7"/>
<text text-anchor="start" x="316.5" y="-571.4" font-family="Helvetica,sans-Serif" font-size="11.00" fill="#000000">varchar[64]</text>
<polygon fill="none" stroke="#000000" points="182.5,-541.7 182.5,-563.7 313.5,-563.7 313.5,-541.7 182.5,-541.7"/>
<text text-anchor="start" x="202.5" y="-548.8" font-family="Helvetica,sans-Serif" font-size="11.00" fill="#000000">route_short_name</text>
<polygon fill="none" stroke="#000000" points="313.5,-541.7 313.5,-563.7 403.5,-563.7 403.5,-541.7 313.5,-541.7"/>
<text text-anchor="start" x="316.5" y="-549.4" font-family="Helvetica,sans-Serif" font-size="11.00" fill="#000000">varchar[64]</text>
<polygon fill="none" stroke="#000000" points="182.5,-519.7 182.5,-541.7 313.5,-541.7 313.5,-519.7 182.5,-519.7"/>
<text text-anchor="start" x="202.5" y="-526.8" font-family="Helvetica,sans-Serif" font-size="11.00" fill="#000000">route_long_name</text>
<polygon fill="none" stroke="#000000" points="313.5,-519.7 313.5,-541.7 403.5,-541.7 403.5,-519.7 313.5,-519.7"/>
<text text-anchor="start" x="316.0043" y="-527.4" font-family="Helvetica,sans-Serif" font-size="11.00" fill="#000000">text[2147483647]</text>
<polygon fill="none" stroke="#000000" points="182.5,-497.7 182.5,-519.7 313.5,-519.7 313.5,-497.7 182.5,-497.7"/>
<text text-anchor="start" x="202.5" y="-504.8" font-family="Helvetica,sans-Serif" font-size="11.00" fill="#000000">route_desc</text>
<polygon fill="none" stroke="#000000" points="313.5,-497.7 313.5,-519.7 403.5,-519.7 403.5,-497.7 313.5,-497.7"/>
<text text-anchor="start" x="316.0043" y="-505.4" font-family="Helvetica,sans-Serif" font-size="11.00" fill="#000000">text[2147483647]</text>
<polygon fill="none" stroke="#000000" points="182.5,-475.7 182.5,-497.7 313.5,-497.7 313.5,-475.7 182.5,-475.7"/>
<text text-anchor="start" x="202.5" y="-482.8" font-family="Helvetica,sans-Serif" font-size="11.00" fill="#000000">route_type</text>
<polygon fill="none" stroke="#000000" points="313.5,-475.7 313.5,-497.7 403.5,-497.7 403.5,-475.7 313.5,-475.7"/>
<text text-anchor="start" x="316.5" y="-483.4" font-family="Helvetica,sans-Serif" font-size="11.00" fill="#000000">int2[5]</text>
<polygon fill="none" stroke="#000000" points="182.5,-453.7 182.5,-475.7 313.5,-475.7 313.5,-453.7 182.5,-453.7"/>
<text text-anchor="start" x="202.5" y="-460.8" font-family="Helvetica,sans-Serif" font-size="11.00" fill="#000000">route_url</text>
<polygon fill="none" stroke="#000000" points="313.5,-453.7 313.5,-475.7 403.5,-475.7 403.5,-453.7 313.5,-453.7"/>
<text text-anchor="start" x="316.0043" y="-461.4" font-family="Helvetica,sans-Serif" font-size="11.00" fill="#000000">text[2147483647]</text>
<polygon fill="none" stroke="#000000" points="182.5,-431.7 182.5,-453.7 313.5,-453.7 313.5,-431.7 182.5,-431.7"/>
<text text-anchor="start" x="202.5" y="-438.8" font-family="Helvetica,sans-Serif" font-size="11.00" fill="#000000">route_color</text>
<polygon fill="none" stroke="#000000" points="313.5,-431.7 313.5,-453.7 403.5,-453.7 403.5,-431.7 313.5,-431.7"/>
<text text-anchor="start" x="316.5" y="-439.4" font-family="Helvetica,sans-Serif" font-size="11.00" fill="#000000">varchar[6]</text>
<polygon fill="none" stroke="#000000" points="182.5,-409.7 182.5,-431.7 313.5,-431.7 313.5,-409.7 182.5,-409.7"/>
<text text-anchor="start" x="202.5" y="-416.8" font-family="Helvetica,sans-Serif" font-size="11.00" fill="#000000">route_text_color</text>
<polygon fill="none" stroke="#000000" points="313.5,-409.7 313.5,-431.7 403.5,-431.7 403.5,-409.7 313.5,-409.7"/>
<text text-anchor="start" x="316.5" y="-417.4" font-family="Helvetica,sans-Serif" font-size="11.00" fill="#000000">varchar[6]</text>
<polygon fill="none" stroke="#000000" points="182.5,-387.7 182.5,-409.7 313.5,-409.7 313.5,-387.7 182.5,-387.7"/>
<text text-anchor="start" x="202.5" y="-394.8" font-family="Helvetica,sans-Serif" font-size="11.00" fill="#000000">jp_parent_route_id</text>
<polygon fill="none" stroke="#000000" points="313.5,-387.7 313.5,-409.7 403.5,-409.7 403.5,-387.7 313.5,-387.7"/>
<text text-anchor="start" x="316.5" y="-395.4" font-family="Helvetica,sans-Serif" font-size="11.00" fill="#000000">varchar[64]</text>
<polygon fill="#ffffff" stroke="transparent" points="182.5,-368.7 182.5,-387.7 252.5,-387.7 252.5,-368.7 182.5,-368.7"/>
<polygon fill="none" stroke="#000000" points="182.5,-368.7 182.5,-387.7 252.5,-387.7 252.5,-368.7 182.5,-368.7"/>
<text text-anchor="start" x="185.5" y="-374.8" font-family="Helvetica,sans-Serif" font-size="11.00" fill="#000000">&lt; 1</text>
<polygon fill="#ffffff" stroke="transparent" points="252.5,-368.7 252.5,-387.7 313.5,-387.7 313.5,-368.7 252.5,-368.7"/>
<polygon fill="none" stroke="#000000" points="252.5,-368.7 252.5,-387.7 313.5,-387.7 313.5,-368.7 252.5,-368.7"/>
<text text-anchor="start" x="304.3862" y="-374.8" font-family="Helvetica,sans-Serif" font-size="11.00" fill="#000000"> &#160;</text>
<polygon fill="#ffffff" stroke="transparent" points="313.5,-368.7 313.5,-387.7 403.5,-387.7 403.5,-368.7 313.5,-368.7"/>
<polygon fill="none" stroke="#000000" points="313.5,-368.7 313.5,-387.7 403.5,-387.7 403.5,-368.7 313.5,-368.7"/>
<text text-anchor="start" x="384.9053" y="-374.8" font-family="Helvetica,sans-Serif" font-size="11.00" fill="#000000">2 &gt;</text>
<polygon fill="none" stroke="#000000" stroke-width="2" points="181,-367.7 181,-631.7 404,-631.7 404,-367.7 181,-367.7"/>
</a>
</g>
</g>
<!-- fare_rules&#45;&gt;routes -->
<g id="edge5" class="edge">
<title>fare_rules:w&#45;&gt;routes:e</title>
<path fill="none" stroke="#000000" d="M641.8242,-583.7763C541.2372,-584.8417 511.0349,-596.7 403.5,-596.7"/>
<polygon fill="#000000" stroke="#000000" points="648.5001,-583.7417 656.5188,-587.3 652.5001,-583.7208 656.5,-583.7 656.5,-583.7 656.5,-583.7 652.5001,-583.7208 656.4812,-580.1 648.5001,-583.7417 648.5001,-583.7417"/>
<ellipse fill="none" stroke="#000000" cx="645.3002" cy="-583.7583" rx="3.2" ry="3.2"/>
</g>
<!-- routes&#45;&gt;agency -->
<g id="edge7" class="edge">
<title>routes:w&#45;&gt;agency:e</title>
<path fill="none" stroke="#000000" d="M168.4557,-579.5911C153.5477,-592.7117 158.0607,-627.7 131.5,-627.7"/>
<polygon fill="#000000" stroke="#000000" points="174.945,-577.3311 183.684,-578.0997 178.7225,-576.0156 182.5,-574.7 182.5,-574.7 182.5,-574.7 178.7225,-576.0156 181.316,-571.3003 174.945,-577.3311 174.945,-577.3311"/>
<ellipse fill="none" stroke="#000000" cx="171.9231" cy="-578.3836" rx="3.2" ry="3.2"/>
</g>
<!-- frequencies -->
<g id="node7" class="node">
<title>frequencies</title>
<g id="a_node7"><a xlink:href="../../tables/frequencies.html" xlink:title="frequencies" target="_top">
<polygon fill="#ffffff" stroke="transparent" points="655,-273.2 655,-334.2 764,-334.2 764,-273.2 655,-273.2"/>
<polygon fill="#f5f5f5" stroke="transparent" points="655.5,-310.7 655.5,-333.7 764.5,-333.7 764.5,-310.7 655.5,-310.7"/>
<polygon fill="none" stroke="#000000" points="655.5,-310.7 655.5,-333.7 764.5,-333.7 764.5,-310.7 655.5,-310.7"/>
<text text-anchor="start" x="660.5" y="-319.3" font-family="Helvetica,sans-Serif" font-weight="bold" font-size="11.00" fill="#000000">frequencies</text>
<text text-anchor="start" x="730.0219" y="-318.8" font-family="Helvetica,sans-Serif" font-size="11.00" fill="#000000">[table]</text>
<polygon fill="none" stroke="#000000" points="655.5,-291.7 655.5,-310.7 764.5,-310.7 764.5,-291.7 655.5,-291.7"/>
<text text-anchor="start" x="658.5" y="-297.8" font-family="Helvetica,sans-Serif" font-size="11.00" fill="#000000">...</text>
<polygon fill="#ffffff" stroke="transparent" points="655.5,-272.7 655.5,-291.7 708.5,-291.7 708.5,-272.7 655.5,-272.7"/>
<polygon fill="none" stroke="#000000" points="655.5,-272.7 655.5,-291.7 708.5,-291.7 708.5,-272.7 655.5,-272.7"/>
<text text-anchor="start" x="658.5" y="-278.8" font-family="Helvetica,sans-Serif" font-size="11.00" fill="#000000">&lt; 1</text>
<polygon fill="#ffffff" stroke="transparent" points="708.5,-272.7 708.5,-291.7 736.5,-291.7 736.5,-272.7 708.5,-272.7"/>
<polygon fill="none" stroke="#000000" points="708.5,-272.7 708.5,-291.7 736.5,-291.7 736.5,-272.7 708.5,-272.7"/>
<text text-anchor="start" x="727.3862" y="-278.8" font-family="Helvetica,sans-Serif" font-size="11.00" fill="#000000"> &#160;</text>
<polygon fill="#ffffff" stroke="transparent" points="736.5,-272.7 736.5,-291.7 764.5,-291.7 764.5,-272.7 736.5,-272.7"/>
<polygon fill="none" stroke="#000000" points="736.5,-272.7 736.5,-291.7 764.5,-291.7 764.5,-272.7 736.5,-272.7"/>
<text text-anchor="start" x="755.3862" y="-278.8" font-family="Helvetica,sans-Serif" font-size="11.00" fill="#000000"> &#160;</text>
</a>
</g>
</g>
<!-- trips -->
<g id="node8" class="node">
<title>trips</title>
<g id="a_node8"><a xlink:href="../../tables/trips.html" xlink:title="trips" target="_top">
<polygon fill="#ffffff" stroke="transparent" points="454,-142.2 454,-335.2 606,-335.2 606,-142.2 454,-142.2"/>
<polygon fill="#f5f5f5" stroke="transparent" points="454,-311.7 454,-334.7 606,-334.7 606,-311.7 454,-311.7"/>
<polygon fill="none" stroke="#000000" points="454,-311.7 454,-334.7 606,-334.7 606,-311.7 454,-311.7"/>
<text text-anchor="start" x="459" y="-320.3" font-family="Helvetica,sans-Serif" font-weight="bold" font-size="11.00" fill="#000000">trips</text>
<text text-anchor="start" x="571.0437" y="-319.8" font-family="Helvetica,sans-Serif" font-size="11.00" fill="#000000">[table]</text>
<polygon fill="none" stroke="#000000" points="454,-289.7 454,-311.7 606,-311.7 606,-289.7 454,-289.7"/>
<image xlink:href="../../images/primaryKeys.png" width="11px" height="12px" preserveAspectRatio="xMinYMin meet" x="459" y="-306.7"/>
<text text-anchor="start" x="474" y="-296.8" font-family="Helvetica,sans-Serif" font-size="11.00" fill="#000000">trip_id</text>
<polygon fill="none" stroke="#000000" points="454,-267.7 454,-289.7 606,-289.7 606,-267.7 454,-267.7"/>
<image xlink:href="../../images/foreignKeys.png" width="11px" height="12px" preserveAspectRatio="xMinYMin meet" x="459" y="-284.7"/>
<text text-anchor="start" x="474" y="-274.8" font-family="Helvetica,sans-Serif" font-size="11.00" fill="#000000">route_id</text>
<polygon fill="none" stroke="#000000" points="454,-245.7 454,-267.7 606,-267.7 606,-245.7 454,-245.7"/>
<image xlink:href="../../images/foreignKeys.png" width="11px" height="12px" preserveAspectRatio="xMinYMin meet" x="459" y="-262.7"/>
<text text-anchor="start" x="474" y="-252.8" font-family="Helvetica,sans-Serif" font-size="11.00" fill="#000000">service_id</text>
<polygon fill="none" stroke="#000000" points="454,-223.7 454,-245.7 606,-245.7 606,-223.7 454,-223.7"/>
<image xlink:href="../../images/foreignKeys.png" width="11px" height="12px" preserveAspectRatio="xMinYMin meet" x="459" y="-240.7"/>
<text text-anchor="start" x="474" y="-230.8" font-family="Helvetica,sans-Serif" font-size="11.00" fill="#000000">shape_id</text>
<polygon fill="none" stroke="#000000" points="454,-201.7 454,-223.7 606,-223.7 606,-201.7 454,-201.7"/>
<image xlink:href="../../images/foreignKeys.png" width="11px" height="12px" preserveAspectRatio="xMinYMin meet" x="459" y="-218.7"/>
<text text-anchor="start" x="474" y="-208.8" font-family="Helvetica,sans-Serif" font-size="11.00" fill="#000000">jp_office_id</text>
<polygon fill="none" stroke="#000000" points="454,-179.7 454,-201.7 606,-201.7 606,-179.7 454,-179.7"/>
<image xlink:href="../../images/foreignKeys.png" width="11px" height="12px" preserveAspectRatio="xMinYMin meet" x="459" y="-196.7"/>
<text text-anchor="start" x="474" y="-186.8" font-family="Helvetica,sans-Serif" font-size="11.00" fill="#000000">jp_pattern_id</text>
<polygon fill="none" stroke="#000000" points="454,-160.7 454,-179.7 606,-179.7 606,-160.7 454,-160.7"/>
<text text-anchor="start" x="457" y="-166.8" font-family="Helvetica,sans-Serif" font-size="11.00" fill="#000000">...</text>
<polygon fill="#ffffff" stroke="transparent" points="454,-141.7 454,-160.7 524,-160.7 524,-141.7 454,-141.7"/>
<polygon fill="none" stroke="#000000" points="454,-141.7 454,-160.7 524,-160.7 524,-141.7 454,-141.7"/>
<text text-anchor="start" x="457" y="-147.8" font-family="Helvetica,sans-Serif" font-size="11.00" fill="#000000">&lt; 5</text>
<polygon fill="#ffffff" stroke="transparent" points="524,-141.7 524,-160.7 560,-160.7 560,-141.7 524,-141.7"/>
<polygon fill="none" stroke="#000000" points="524,-141.7 524,-160.7 560,-160.7 560,-141.7 524,-141.7"/>
<text text-anchor="start" x="550.8862" y="-147.8" font-family="Helvetica,sans-Serif" font-size="11.00" fill="#000000"> &#160;</text>
<polygon fill="#ffffff" stroke="transparent" points="560,-141.7 560,-160.7 606,-160.7 606,-141.7 560,-141.7"/>
<polygon fill="none" stroke="#000000" points="560,-141.7 560,-160.7 606,-160.7 606,-141.7 560,-141.7"/>
<text text-anchor="start" x="587.4053" y="-147.8" font-family="Helvetica,sans-Serif" font-size="11.00" fill="#000000">2 &gt;</text>
</a>
</g>
</g>
<!-- frequencies&#45;&gt;trips -->
<g id="edge6" class="edge">
<title>frequencies:w&#45;&gt;trips:e</title>
<path fill="none" stroke="#000000" d="M640.8428,-300.7C629.4139,-300.7 622.1563,-300.7 606,-300.7"/>
<polygon fill="#000000" stroke="#000000" points="647.5,-300.7001 655.5,-304.3 651.5,-300.7 655.5,-300.7 655.5,-300.7 655.5,-300.7 651.5,-300.7 655.5,-297.1 647.5,-300.7001 647.5,-300.7001"/>
<ellipse fill="none" stroke="#000000" cx="644.3" cy="-300.7001" rx="3.2" ry="3.2"/>
</g>
<!-- trips&#45;&gt;routes -->
<g id="edge12" class="edge">
<title>trips:w&#45;&gt;routes:e</title>
<path fill="none" stroke="#000000" d="M440.3615,-283.9542C395.603,-325.3002 469.6019,-596.7 403.5,-596.7"/>
<polygon fill="#000000" stroke="#000000" points="446.5348,-281.576 455.2942,-282.0593 450.2674,-280.138 454,-278.7 454,-278.7 454,-278.7 450.2674,-280.138 452.7058,-275.3407 446.5348,-281.576 446.5348,-281.576"/>
<ellipse fill="none" stroke="#000000" cx="443.5487" cy="-282.7263" rx="3.2" ry="3.2"/>
</g>
<!-- office_jp -->
<g id="node10" class="node">
<title>office_jp</title>
<g id="a_node10"><a xlink:href="../../tables/office_jp.html" xlink:title="office_jp" target="_top">
<polygon fill="#ffffff" stroke="transparent" points="248.5,-120.2 248.5,-181.2 336.5,-181.2 336.5,-120.2 248.5,-120.2"/>
<polygon fill="#f5f5f5" stroke="transparent" points="248.5,-157.7 248.5,-180.7 336.5,-180.7 336.5,-157.7 248.5,-157.7"/>
<polygon fill="none" stroke="#000000" points="248.5,-157.7 248.5,-180.7 336.5,-180.7 336.5,-157.7 248.5,-157.7"/>
<text text-anchor="start" x="253.5" y="-166.3" font-family="Helvetica,sans-Serif" font-weight="bold" font-size="11.00" fill="#000000">office_jp</text>
<text text-anchor="start" x="302.0219" y="-165.8" font-family="Helvetica,sans-Serif" font-size="11.00" fill="#000000">[table]</text>
<polygon fill="none" stroke="#000000" points="248.5,-138.7 248.5,-157.7 336.5,-157.7 336.5,-138.7 248.5,-138.7"/>
<text text-anchor="start" x="251.5" y="-144.8" font-family="Helvetica,sans-Serif" font-size="11.00" fill="#000000">...</text>
<polygon fill="#ffffff" stroke="transparent" points="248.5,-119.7 248.5,-138.7 281.5,-138.7 281.5,-119.7 248.5,-119.7"/>
<polygon fill="none" stroke="#000000" points="248.5,-119.7 248.5,-138.7 281.5,-138.7 281.5,-119.7 248.5,-119.7"/>
<text text-anchor="start" x="251.5" y="-125.8" font-family="Helvetica,sans-Serif" font-size="11.00" fill="#000000"> &#160;</text>
<polygon fill="#ffffff" stroke="transparent" points="281.5,-119.7 281.5,-138.7 304.5,-138.7 304.5,-119.7 281.5,-119.7"/>
<polygon fill="none" stroke="#000000" points="281.5,-119.7 281.5,-138.7 304.5,-138.7 304.5,-119.7 281.5,-119.7"/>
<text text-anchor="start" x="295.3862" y="-125.8" font-family="Helvetica,sans-Serif" font-size="11.00" fill="#000000"> &#160;</text>
<polygon fill="#ffffff" stroke="transparent" points="304.5,-119.7 304.5,-138.7 336.5,-138.7 336.5,-119.7 304.5,-119.7"/>
<polygon fill="none" stroke="#000000" points="304.5,-119.7 304.5,-138.7 336.5,-138.7 336.5,-119.7 304.5,-119.7"/>
<text text-anchor="start" x="317.9053" y="-125.8" font-family="Helvetica,sans-Serif" font-size="11.00" fill="#000000">1 &gt;</text>
</a>
</g>
</g>
<!-- trips&#45;&gt;office_jp -->
<g id="edge10" class="edge">
<title>trips:w&#45;&gt;office_jp:e</title>
<path fill="none" stroke="#000000" d="M440.1794,-207.3808C410.5096,-191.8569 348.7974,-147.7 336.5,-147.7"/>
<polygon fill="#000000" stroke="#000000" points="446.5339,-209.8264 452.7069,-216.0598 450.2669,-211.2632 454,-212.7 454,-212.7 454,-212.7 450.2669,-211.2632 455.2931,-209.3402 446.5339,-209.8264 446.5339,-209.8264"/>
<ellipse fill="none" stroke="#000000" cx="443.5474" cy="-208.677" rx="3.2" ry="3.2"/>
</g>
<!-- pattern_jp -->
<g id="node11" class="node">
<title>pattern_jp</title>
<g id="a_node11"><a xlink:href="../../tables/pattern_jp.html" xlink:title="pattern_jp" target="_top">
<polygon fill="#ffffff" stroke="transparent" points="242.5,-38.2 242.5,-99.2 342.5,-99.2 342.5,-38.2 242.5,-38.2"/>
<polygon fill="#f5f5f5" stroke="transparent" points="242.5,-75.7 242.5,-98.7 342.5,-98.7 342.5,-75.7 242.5,-75.7"/>
<polygon fill="none" stroke="#000000" points="242.5,-75.7 242.5,-98.7 342.5,-98.7 342.5,-75.7 242.5,-75.7"/>
<text text-anchor="start" x="247.5" y="-84.3" font-family="Helvetica,sans-Serif" font-weight="bold" font-size="11.00" fill="#000000">pattern_jp</text>
<text text-anchor="start" x="308.0219" y="-83.8" font-family="Helvetica,sans-Serif" font-size="11.00" fill="#000000">[table]</text>
<polygon fill="none" stroke="#000000" points="242.5,-56.7 242.5,-75.7 342.5,-75.7 342.5,-56.7 242.5,-56.7"/>
<text text-anchor="start" x="245.5" y="-62.8" font-family="Helvetica,sans-Serif" font-size="11.00" fill="#000000">...</text>
<polygon fill="#ffffff" stroke="transparent" points="242.5,-37.7 242.5,-56.7 281.5,-56.7 281.5,-37.7 242.5,-37.7"/>
<polygon fill="none" stroke="#000000" points="242.5,-37.7 242.5,-56.7 281.5,-56.7 281.5,-37.7 242.5,-37.7"/>
<text text-anchor="start" x="245.5" y="-43.8" font-family="Helvetica,sans-Serif" font-size="11.00" fill="#000000"> &#160;</text>
<polygon fill="#ffffff" stroke="transparent" points="281.5,-37.7 281.5,-56.7 307.5,-56.7 307.5,-37.7 281.5,-37.7"/>
<polygon fill="none" stroke="#000000" points="281.5,-37.7 281.5,-56.7 307.5,-56.7 307.5,-37.7 281.5,-37.7"/>
<text text-anchor="start" x="298.3862" y="-43.8" font-family="Helvetica,sans-Serif" font-size="11.00" fill="#000000"> &#160;</text>
<polygon fill="#ffffff" stroke="transparent" points="307.5,-37.7 307.5,-56.7 342.5,-56.7 342.5,-37.7 307.5,-37.7"/>
<polygon fill="none" stroke="#000000" points="307.5,-37.7 307.5,-56.7 342.5,-56.7 342.5,-37.7 307.5,-37.7"/>
<text text-anchor="start" x="323.9053" y="-43.8" font-family="Helvetica,sans-Serif" font-size="11.00" fill="#000000">1 &gt;</text>
</a>
</g>
</g>
<!-- trips&#45;&gt;pattern_jp -->
<g id="edge11" class="edge">
<title>trips:w&#45;&gt;pattern_jp:e</title>
<path fill="none" stroke="#000000" d="M439.7921,-187.3905C420.4998,-175.5908 436.0799,-134.941 413,-109.7 388.0759,-82.4422 379.435,-65.7 342.5,-65.7"/>
<polygon fill="#000000" stroke="#000000" points="446.2086,-188.8851 453.1833,-194.2061 450.1043,-189.7925 454,-190.7 454,-190.7 454,-190.7 450.1043,-189.7925 454.8167,-187.1939 446.2086,-188.8851 446.2086,-188.8851"/>
<ellipse fill="none" stroke="#000000" cx="443.092" cy="-188.1591" rx="3.2" ry="3.2"/>
</g>
<!-- calendar -->
<g id="node12" class="node">
<title>calendar</title>
<g id="a_node12"><a xlink:href="../../tables/calendar.html" xlink:title="calendar" target="_top">
<polygon fill="#ffffff" stroke="transparent" points="247,-284.2 247,-345.2 338,-345.2 338,-284.2 247,-284.2"/>
<polygon fill="#f5f5f5" stroke="transparent" points="247.5,-321.7 247.5,-344.7 338.5,-344.7 338.5,-321.7 247.5,-321.7"/>
<polygon fill="none" stroke="#000000" points="247.5,-321.7 247.5,-344.7 338.5,-344.7 338.5,-321.7 247.5,-321.7"/>
<text text-anchor="start" x="252.5" y="-330.3" font-family="Helvetica,sans-Serif" font-weight="bold" font-size="11.00" fill="#000000">calendar</text>
<text text-anchor="start" x="304.0219" y="-329.8" font-family="Helvetica,sans-Serif" font-size="11.00" fill="#000000">[table]</text>
<polygon fill="none" stroke="#000000" points="247.5,-302.7 247.5,-321.7 338.5,-321.7 338.5,-302.7 247.5,-302.7"/>
<text text-anchor="start" x="250.5" y="-308.8" font-family="Helvetica,sans-Serif" font-size="11.00" fill="#000000">...</text>
<polygon fill="#ffffff" stroke="transparent" points="247.5,-283.7 247.5,-302.7 282.5,-302.7 282.5,-283.7 247.5,-283.7"/>
<polygon fill="none" stroke="#000000" points="247.5,-283.7 247.5,-302.7 282.5,-302.7 282.5,-283.7 247.5,-283.7"/>
<text text-anchor="start" x="250.5" y="-289.8" font-family="Helvetica,sans-Serif" font-size="11.00" fill="#000000"> &#160;</text>
<polygon fill="#ffffff" stroke="transparent" points="282.5,-283.7 282.5,-302.7 305.5,-302.7 305.5,-283.7 282.5,-283.7"/>
<polygon fill="none" stroke="#000000" points="282.5,-283.7 282.5,-302.7 305.5,-302.7 305.5,-283.7 282.5,-283.7"/>
<text text-anchor="start" x="296.3862" y="-289.8" font-family="Helvetica,sans-Serif" font-size="11.00" fill="#000000"> &#160;</text>
<polygon fill="#ffffff" stroke="transparent" points="305.5,-283.7 305.5,-302.7 338.5,-302.7 338.5,-283.7 305.5,-283.7"/>
<polygon fill="none" stroke="#000000" points="305.5,-283.7 305.5,-302.7 338.5,-302.7 338.5,-283.7 305.5,-283.7"/>
<text text-anchor="start" x="319.9053" y="-289.8" font-family="Helvetica,sans-Serif" font-size="11.00" fill="#000000">1 &gt;</text>
</a>
</g>
</g>
<!-- trips&#45;&gt;calendar -->
<g id="edge13" class="edge">
<title>trips:w&#45;&gt;calendar:e</title>
<path fill="none" stroke="#000000" d="M439.541,-259.9758C408.8278,-271.8163 362.7084,-311.7 338.5,-311.7"/>
<polygon fill="#000000" stroke="#000000" points="446.1977,-258.4677 454.7955,-260.211 450.0989,-257.5838 454,-256.7 454,-256.7 454,-256.7 450.0989,-257.5838 453.2045,-253.189 446.1977,-258.4677 446.1977,-258.4677"/>
<ellipse fill="none" stroke="#000000" cx="443.0768" cy="-259.1748" rx="3.2" ry="3.2"/>
</g>
<!-- shapes -->
<g id="node13" class="node">
<title>shapes</title>
<g id="a_node13"><a xlink:href="../../tables/shapes.html" xlink:title="shapes" target="_top">
<polygon fill="#ffffff" stroke="transparent" points="252.5,-202.2 252.5,-263.2 332.5,-263.2 332.5,-202.2 252.5,-202.2"/>
<polygon fill="#f5f5f5" stroke="transparent" points="252.5,-239.7 252.5,-262.7 332.5,-262.7 332.5,-239.7 252.5,-239.7"/>
<polygon fill="none" stroke="#000000" points="252.5,-239.7 252.5,-262.7 332.5,-262.7 332.5,-239.7 252.5,-239.7"/>
<text text-anchor="start" x="257.5" y="-248.3" font-family="Helvetica,sans-Serif" font-weight="bold" font-size="11.00" fill="#000000">shapes</text>
<text text-anchor="start" x="298.0219" y="-247.8" font-family="Helvetica,sans-Serif" font-size="11.00" fill="#000000">[table]</text>
<polygon fill="none" stroke="#000000" points="252.5,-220.7 252.5,-239.7 332.5,-239.7 332.5,-220.7 252.5,-220.7"/>
<text text-anchor="start" x="255.5" y="-226.8" font-family="Helvetica,sans-Serif" font-size="11.00" fill="#000000">...</text>
<polygon fill="#ffffff" stroke="transparent" points="252.5,-201.7 252.5,-220.7 281.5,-220.7 281.5,-201.7 252.5,-201.7"/>
<polygon fill="none" stroke="#000000" points="252.5,-201.7 252.5,-220.7 281.5,-220.7 281.5,-201.7 252.5,-201.7"/>
<text text-anchor="start" x="255.5" y="-207.8" font-family="Helvetica,sans-Serif" font-size="11.00" fill="#000000"> &#160;</text>
<polygon fill="#ffffff" stroke="transparent" points="281.5,-201.7 281.5,-220.7 302.5,-220.7 302.5,-201.7 281.5,-201.7"/>
<polygon fill="none" stroke="#000000" points="281.5,-201.7 281.5,-220.7 302.5,-220.7 302.5,-201.7 281.5,-201.7"/>
<text text-anchor="start" x="293.3862" y="-207.8" font-family="Helvetica,sans-Serif" font-size="11.00" fill="#000000"> &#160;</text>
<polygon fill="#ffffff" stroke="transparent" points="302.5,-201.7 302.5,-220.7 332.5,-220.7 332.5,-201.7 302.5,-201.7"/>
<polygon fill="none" stroke="#000000" points="302.5,-201.7 302.5,-220.7 332.5,-220.7 332.5,-201.7 302.5,-201.7"/>
<text text-anchor="start" x="313.9053" y="-207.8" font-family="Helvetica,sans-Serif" font-size="11.00" fill="#000000">1 &gt;</text>
</a>
</g>
</g>
<!-- trips&#45;&gt;shapes -->
<g id="edge14" class="edge">
<title>trips:w&#45;&gt;shapes:e</title>
<path fill="none" stroke="#000000" d="M439.5283,-234.5714C397.0156,-233.7888 381.3734,-229.7 332.5,-229.7"/>
<polygon fill="#000000" stroke="#000000" points="446.0003,-234.6288 453.968,-238.2999 450.0002,-234.6644 454,-234.7 454,-234.7 454,-234.7 450.0002,-234.6644 454.032,-231.1001 446.0003,-234.6288 446.0003,-234.6288"/>
<ellipse fill="none" stroke="#000000" cx="442.8004" cy="-234.6004" rx="3.2" ry="3.2"/>
</g>
<!-- stop_times -->
<g id="node9" class="node">
<title>stop_times</title>
<g id="a_node9"><a xlink:href="../../tables/stop_times.html" xlink:title="stop_times" target="_top">
<polygon fill="#ffffff" stroke="transparent" points="658,-391.2 658,-452.2 761,-452.2 761,-391.2 658,-391.2"/>
<polygon fill="#f5f5f5" stroke="transparent" points="658.5,-428.7 658.5,-451.7 761.5,-451.7 761.5,-428.7 658.5,-428.7"/>
<polygon fill="none" stroke="#000000" points="658.5,-428.7 658.5,-451.7 761.5,-451.7 761.5,-428.7 658.5,-428.7"/>
<text text-anchor="start" x="663.5" y="-437.3" font-family="Helvetica,sans-Serif" font-weight="bold" font-size="11.00" fill="#000000">stop_times</text>
<text text-anchor="start" x="727.0219" y="-436.8" font-family="Helvetica,sans-Serif" font-size="11.00" fill="#000000">[table]</text>
<polygon fill="none" stroke="#000000" points="658.5,-409.7 658.5,-428.7 761.5,-428.7 761.5,-409.7 658.5,-409.7"/>
<text text-anchor="start" x="661.5" y="-415.8" font-family="Helvetica,sans-Serif" font-size="11.00" fill="#000000">...</text>
<polygon fill="#ffffff" stroke="transparent" points="658.5,-390.7 658.5,-409.7 708.5,-409.7 708.5,-390.7 658.5,-390.7"/>
<polygon fill="none" stroke="#000000" points="658.5,-390.7 658.5,-409.7 708.5,-409.7 708.5,-390.7 658.5,-390.7"/>
<text text-anchor="start" x="661.5" y="-396.8" font-family="Helvetica,sans-Serif" font-size="11.00" fill="#000000">&lt; 2</text>
<polygon fill="#ffffff" stroke="transparent" points="708.5,-390.7 708.5,-409.7 734.5,-409.7 734.5,-390.7 708.5,-390.7"/>
<polygon fill="none" stroke="#000000" points="708.5,-390.7 708.5,-409.7 734.5,-409.7 734.5,-390.7 708.5,-390.7"/>
<text text-anchor="start" x="725.3862" y="-396.8" font-family="Helvetica,sans-Serif" font-size="11.00" fill="#000000"> &#160;</text>
<polygon fill="#ffffff" stroke="transparent" points="734.5,-390.7 734.5,-409.7 761.5,-409.7 761.5,-390.7 734.5,-390.7"/>
<polygon fill="none" stroke="#000000" points="734.5,-390.7 734.5,-409.7 761.5,-409.7 761.5,-390.7 734.5,-390.7"/>
<text text-anchor="start" x="752.3862" y="-396.8" font-family="Helvetica,sans-Serif" font-size="11.00" fill="#000000"> &#160;</text>
</a>
</g>
</g>
<!-- stop_times&#45;&gt;stops -->
<g id="edge8" class="edge">
<title>stop_times:w&#45;&gt;stops:e</title>
<path fill="none" stroke="#000000" d="M644.123,-420.9772C598.9063,-437.0444 625.7677,-532.7 566,-532.7"/>
<polygon fill="#000000" stroke="#000000" points="650.5985,-419.9516 659.0632,-422.2557 654.5493,-419.3258 658.5,-418.7 658.5,-418.7 658.5,-418.7 654.5493,-419.3258 657.9368,-415.1443 650.5985,-419.9516 650.5985,-419.9516"/>
<ellipse fill="none" stroke="#000000" cx="647.4379" cy="-420.4522" rx="3.2" ry="3.2"/>
</g>
<!-- stop_times&#45;&gt;trips -->
<g id="edge9" class="edge">
<title>stop_times:w&#45;&gt;trips:e</title>
<path fill="none" stroke="#000000" d="M644.464,-415.2957C612.5194,-395.9484 657.5711,-300.7 606,-300.7"/>
<polygon fill="#000000" stroke="#000000" points="650.7254,-416.8143 657.6514,-422.1986 654.6127,-417.7572 658.5,-418.7 658.5,-418.7 658.5,-418.7 654.6127,-417.7572 659.3486,-415.2014 650.7254,-416.8143 650.7254,-416.8143"/>
<ellipse fill="none" stroke="#000000" cx="647.6156" cy="-416.0601" rx="3.2" ry="3.2"/>
</g>
</g>
</svg>
