<?xml version="1.0" encoding="UTF-8" standalone="no"?>
<!DOCTYPE svg PUBLIC "-//W3C//DTD SVG 1.1//EN"
 "http://www.w3.org/Graphics/SVG/1.1/DTD/svg11.dtd">
<!-- Generated by graphviz version 2.40.1 (20161225.0304)
 -->
<!-- Title: oneDegreeRelationshipsDiagram Pages: 1 -->
<svg width="622pt" height="422pt"
 viewBox="0.00 0.00 622.00 421.70" xmlns="http://www.w3.org/2000/svg" xmlns:xlink="http://www.w3.org/1999/xlink">
<g id="graph0" class="graph" transform="scale(1 1) rotate(0) translate(4 417.7)">
<title>oneDegreeRelationshipsDiagram</title>
<polygon fill="#ffffff" stroke="transparent" points="-4,4 -4,-417.7 618,-417.7 618,4 -4,4"/>
<text text-anchor="middle" x="72.4936" y="-7.3" font-family="Helvetica,sans-Serif" font-size="11.00" fill="#000000">Generated by SchemaSpy</text>
<!-- fare_rules -->
<g id="node1" class="node">
<title>fare_rules</title>
<g id="a_node1"><a xlink:href="../../tables/fare_rules.html" xlink:title="fare_rules" target="_top">
<polygon fill="#ffffff" stroke="transparent" points="477,-260.7 477,-409.7 583,-409.7 583,-260.7 477,-260.7"/>
<polygon fill="#f5f5f5" stroke="transparent" points="477,-386.2 477,-409.2 583,-409.2 583,-386.2 477,-386.2"/>
<polygon fill="none" stroke="#000000" points="477,-386.2 477,-409.2 583,-409.2 583,-386.2 477,-386.2"/>
<text text-anchor="start" x="482" y="-394.8" font-family="Helvetica,sans-Serif" font-weight="bold" font-size="11.00" fill="#000000">fare_rules</text>
<text text-anchor="start" x="548.0437" y="-394.3" font-family="Helvetica,sans-Serif" font-size="11.00" fill="#000000">[table]</text>
<polygon fill="none" stroke="#000000" points="477,-364.2 477,-386.2 583,-386.2 583,-364.2 477,-364.2"/>
<image xlink:href="../../images/foreignKeys.png" width="11px" height="12px" preserveAspectRatio="xMinYMin meet" x="482" y="-381.2"/>
<text text-anchor="start" x="497" y="-371.3" font-family="Helvetica,sans-Serif" font-size="11.00" fill="#000000">fare_id</text>
<polygon fill="none" stroke="#000000" points="477,-342.2 477,-364.2 583,-364.2 583,-342.2 477,-342.2"/>
<image xlink:href="../../images/foreignKeys.png" width="11px" height="12px" preserveAspectRatio="xMinYMin meet" x="482" y="-359.2"/>
<text text-anchor="start" x="497" y="-349.3" font-family="Helvetica,sans-Serif" font-size="11.00" fill="#000000">route_id</text>
<polygon fill="none" stroke="#000000" points="477,-320.2 477,-342.2 583,-342.2 583,-320.2 477,-320.2"/>
<image xlink:href="../../images/foreignKeys.png" width="11px" height="12px" preserveAspectRatio="xMinYMin meet" x="482" y="-337.2"/>
<text text-anchor="start" x="497" y="-327.3" font-family="Helvetica,sans-Serif" font-size="11.00" fill="#000000">origin_id</text>
<polygon fill="none" stroke="#000000" points="477,-298.2 477,-320.2 583,-320.2 583,-298.2 477,-298.2"/>
<image xlink:href="../../images/foreignKeys.png" width="11px" height="12px" preserveAspectRatio="xMinYMin meet" x="482" y="-315.2"/>
<text text-anchor="start" x="497" y="-305.3" font-family="Helvetica,sans-Serif" font-size="11.00" fill="#000000">destination_id</text>
<polygon fill="none" stroke="#000000" points="477,-279.2 477,-298.2 583,-298.2 583,-279.2 477,-279.2"/>
<text text-anchor="start" x="480" y="-285.3" font-family="Helvetica,sans-Serif" font-size="11.00" fill="#000000">...</text>
<polygon fill="#ffffff" stroke="transparent" points="477,-260.2 477,-279.2 528,-279.2 528,-260.2 477,-260.2"/>
<polygon fill="none" stroke="#000000" points="477,-260.2 477,-279.2 528,-279.2 528,-260.2 477,-260.2"/>
<text text-anchor="start" x="480" y="-266.3" font-family="Helvetica,sans-Serif" font-size="11.00" fill="#000000">&lt; 4</text>
<polygon fill="#ffffff" stroke="transparent" points="528,-260.2 528,-279.2 555,-279.2 555,-260.2 528,-260.2"/>
<polygon fill="none" stroke="#000000" points="528,-260.2 528,-279.2 555,-279.2 555,-260.2 528,-260.2"/>
<text text-anchor="start" x="545.8862" y="-266.3" font-family="Helvetica,sans-Serif" font-size="11.00" fill="#000000"> &#160;</text>
<polygon fill="#ffffff" stroke="transparent" points="555,-260.2 555,-279.2 583,-279.2 583,-260.2 555,-260.2"/>
<polygon fill="none" stroke="#000000" points="555,-260.2 555,-279.2 583,-279.2 583,-260.2 555,-260.2"/>
<text text-anchor="start" x="573.8862" y="-266.3" font-family="Helvetica,sans-Serif" font-size="11.00" fill="#000000"> &#160;</text>
</a>
</g>
</g>
<!-- routes -->
<g id="node2" class="node">
<title>routes</title>
<g id="a_node2"><a xlink:href="../../tables/routes.html" xlink:title="routes" target="_top">
<polygon fill="#ffffff" stroke="transparent" points="180,-38.2 180,-304.2 405,-304.2 405,-38.2 180,-38.2"/>
<polygon fill="#f5f5f5" stroke="transparent" points="182.5,-279.2 182.5,-302.2 403.5,-302.2 403.5,-279.2 182.5,-279.2"/>
<polygon fill="none" stroke="#000000" points="182.5,-279.2 182.5,-302.2 403.5,-302.2 403.5,-279.2 182.5,-279.2"/>
<text text-anchor="start" x="187.5" y="-287.8" font-family="Helvetica,sans-Serif" font-weight="bold" font-size="11.00" fill="#000000">routes</text>
<text text-anchor="start" x="368.5437" y="-287.3" font-family="Helvetica,sans-Serif" font-size="11.00" fill="#000000">[table]</text>
<polygon fill="none" stroke="#000000" points="182.5,-257.2 182.5,-279.2 313.5,-279.2 313.5,-257.2 182.5,-257.2"/>
<image xlink:href="../../images/primaryKeys.png" width="11px" height="12px" preserveAspectRatio="xMinYMin meet" x="187.5" y="-274.2"/>
<text text-anchor="start" x="202.5" y="-264.3" font-family="Helvetica,sans-Serif" font-size="11.00" fill="#000000">route_id</text>
<polygon fill="none" stroke="#000000" points="313.5,-257.2 313.5,-279.2 403.5,-279.2 403.5,-257.2 313.5,-257.2"/>
<text text-anchor="start" x="316.5" y="-264.9" font-family="Helvetica,sans-Serif" font-size="11.00" fill="#000000">varchar[64]</text>
<polygon fill="none" stroke="#000000" points="182.5,-235.2 182.5,-257.2 313.5,-257.2 313.5,-235.2 182.5,-235.2"/>
<image xlink:href="../../images/foreignKeys.png" width="11px" height="12px" preserveAspectRatio="xMinYMin meet" x="187.5" y="-252.2"/>
<text text-anchor="start" x="202.5" y="-242.3" font-family="Helvetica,sans-Serif" font-size="11.00" fill="#000000">agency_id</text>
<polygon fill="none" stroke="#000000" points="313.5,-235.2 313.5,-257.2 403.5,-257.2 403.5,-235.2 313.5,-235.2"/>
<text text-anchor="start" x="316.5" y="-242.9" font-family="Helvetica,sans-Serif" font-size="11.00" fill="#000000">varchar[64]</text>
<polygon fill="none" stroke="#000000" points="182.5,-213.2 182.5,-235.2 313.5,-235.2 313.5,-213.2 182.5,-213.2"/>
<text text-anchor="start" x="202.5" y="-220.3" font-family="Helvetica,sans-Serif" font-size="11.00" fill="#000000">route_short_name</text>
<polygon fill="none" stroke="#000000" points="313.5,-213.2 313.5,-235.2 403.5,-235.2 403.5,-213.2 313.5,-213.2"/>
<text text-anchor="start" x="316.5" y="-220.9" font-family="Helvetica,sans-Serif" font-size="11.00" fill="#000000">varchar[64]</text>
<polygon fill="none" stroke="#000000" points="182.5,-191.2 182.5,-213.2 313.5,-213.2 313.5,-191.2 182.5,-191.2"/>
<text text-anchor="start" x="202.5" y="-198.3" font-family="Helvetica,sans-Serif" font-size="11.00" fill="#000000">route_long_name</text>
<polygon fill="none" stroke="#000000" points="313.5,-191.2 313.5,-213.2 403.5,-213.2 403.5,-191.2 313.5,-191.2"/>
<text text-anchor="start" x="316.0043" y="-198.9" font-family="Helvetica,sans-Serif" font-size="11.00" fill="#000000">text[2147483647]</text>
<polygon fill="none" stroke="#000000" points="182.5,-169.2 182.5,-191.2 313.5,-191.2 313.5,-169.2 182.5,-169.2"/>
<text text-anchor="start" x="202.5" y="-176.3" font-family="Helvetica,sans-Serif" font-size="11.00" fill="#000000">route_desc</text>
<polygon fill="none" stroke="#000000" points="313.5,-169.2 313.5,-191.2 403.5,-191.2 403.5,-169.2 313.5,-169.2"/>
<text text-anchor="start" x="316.0043" y="-176.9" font-family="Helvetica,sans-Serif" font-size="11.00" fill="#000000">text[2147483647]</text>
<polygon fill="none" stroke="#000000" points="182.5,-147.2 182.5,-169.2 313.5,-169.2 313.5,-147.2 182.5,-147.2"/>
<text text-anchor="start" x="202.5" y="-154.3" font-family="Helvetica,sans-Serif" font-size="11.00" fill="#000000">route_type</text>
<polygon fill="none" stroke="#000000" points="313.5,-147.2 313.5,-169.2 403.5,-169.2 403.5,-147.2 313.5,-147.2"/>
<text text-anchor="start" x="316.5" y="-154.9" font-family="Helvetica,sans-Serif" font-size="11.00" fill="#000000">int2[5]</text>
<polygon fill="none" stroke="#000000" points="182.5,-125.2 182.5,-147.2 313.5,-147.2 313.5,-125.2 182.5,-125.2"/>
<text text-anchor="start" x="202.5" y="-132.3" font-family="Helvetica,sans-Serif" font-size="11.00" fill="#000000">route_url</text>
<polygon fill="none" stroke="#000000" points="313.5,-125.2 313.5,-147.2 403.5,-147.2 403.5,-125.2 313.5,-125.2"/>
<text text-anchor="start" x="316.0043" y="-132.9" font-family="Helvetica,sans-Serif" font-size="11.00" fill="#000000">text[2147483647]</text>
<polygon fill="none" stroke="#000000" points="182.5,-103.2 182.5,-125.2 313.5,-125.2 313.5,-103.2 182.5,-103.2"/>
<text text-anchor="start" x="202.5" y="-110.3" font-family="Helvetica,sans-Serif" font-size="11.00" fill="#000000">route_color</text>
<polygon fill="none" stroke="#000000" points="313.5,-103.2 313.5,-125.2 403.5,-125.2 403.5,-103.2 313.5,-103.2"/>
<text text-anchor="start" x="316.5" y="-110.9" font-family="Helvetica,sans-Serif" font-size="11.00" fill="#000000">varchar[6]</text>
<polygon fill="none" stroke="#000000" points="182.5,-81.2 182.5,-103.2 313.5,-103.2 313.5,-81.2 182.5,-81.2"/>
<text text-anchor="start" x="202.5" y="-88.3" font-family="Helvetica,sans-Serif" font-size="11.00" fill="#000000">route_text_color</text>
<polygon fill="none" stroke="#000000" points="313.5,-81.2 313.5,-103.2 403.5,-103.2 403.5,-81.2 313.5,-81.2"/>
<text text-anchor="start" x="316.5" y="-88.9" font-family="Helvetica,sans-Serif" font-size="11.00" fill="#000000">varchar[6]</text>
<polygon fill="none" stroke="#000000" points="182.5,-59.2 182.5,-81.2 313.5,-81.2 313.5,-59.2 182.5,-59.2"/>
<text text-anchor="start" x="202.5" y="-66.3" font-family="Helvetica,sans-Serif" font-size="11.00" fill="#000000">jp_parent_route_id</text>
<polygon fill="none" stroke="#000000" points="313.5,-59.2 313.5,-81.2 403.5,-81.2 403.5,-59.2 313.5,-59.2"/>
<text text-anchor="start" x="316.5" y="-66.9" font-family="Helvetica,sans-Serif" font-size="11.00" fill="#000000">varchar[64]</text>
<polygon fill="#ffffff" stroke="transparent" points="182.5,-40.2 182.5,-59.2 252.5,-59.2 252.5,-40.2 182.5,-40.2"/>
<polygon fill="none" stroke="#000000" points="182.5,-40.2 182.5,-59.2 252.5,-59.2 252.5,-40.2 182.5,-40.2"/>
<text text-anchor="start" x="185.5" y="-46.3" font-family="Helvetica,sans-Serif" font-size="11.00" fill="#000000">&lt; 1</text>
<polygon fill="#ffffff" stroke="transparent" points="252.5,-40.2 252.5,-59.2 313.5,-59.2 313.5,-40.2 252.5,-40.2"/>
<polygon fill="none" stroke="#000000" points="252.5,-40.2 252.5,-59.2 313.5,-59.2 313.5,-40.2 252.5,-40.2"/>
<text text-anchor="start" x="304.3862" y="-46.3" font-family="Helvetica,sans-Serif" font-size="11.00" fill="#000000"> &#160;</text>
<polygon fill="#ffffff" stroke="transparent" points="313.5,-40.2 313.5,-59.2 403.5,-59.2 403.5,-40.2 313.5,-40.2"/>
<polygon fill="none" stroke="#000000" points="313.5,-40.2 313.5,-59.2 403.5,-59.2 403.5,-40.2 313.5,-40.2"/>
<text text-anchor="start" x="384.9053" y="-46.3" font-family="Helvetica,sans-Serif" font-size="11.00" fill="#000000">2 &gt;</text>
<polygon fill="none" stroke="#000000" stroke-width="2" points="181,-39.2 181,-303.2 404,-303.2 404,-39.2 181,-39.2"/>
</a>
</g>
</g>
<!-- fare_rules&#45;&gt;routes -->
<g id="edge1" class="edge">
<title>fare_rules:w&#45;&gt;routes:e</title>
<path fill="none" stroke="#000000" d="M462.7438,-350.1748C432.0558,-335.033 447.7851,-268.2 403.5,-268.2"/>
<polygon fill="#000000" stroke="#000000" points="469.1743,-351.5393 476.2527,-356.7216 473.0871,-352.3697 477,-353.2 477,-353.2 477,-353.2 473.0871,-352.3697 477.7473,-349.6784 469.1743,-351.5393 469.1743,-351.5393"/>
<ellipse fill="none" stroke="#000000" cx="466.044" cy="-350.875" rx="3.2" ry="3.2"/>
</g>
<!-- agency -->
<g id="node3" class="node">
<title>agency</title>
<g id="a_node3"><a xlink:href="../../tables/agency.html" xlink:title="agency" target="_top">
<polygon fill="#ffffff" stroke="transparent" points="8,-197.7 8,-280.7 131,-280.7 131,-197.7 8,-197.7"/>
<polygon fill="#f5f5f5" stroke="transparent" points="8.5,-257.2 8.5,-280.2 131.5,-280.2 131.5,-257.2 8.5,-257.2"/>
<polygon fill="none" stroke="#000000" points="8.5,-257.2 8.5,-280.2 131.5,-280.2 131.5,-257.2 8.5,-257.2"/>
<text text-anchor="start" x="13.5" y="-265.8" font-family="Helvetica,sans-Serif" font-weight="bold" font-size="11.00" fill="#000000">agency</text>
<text text-anchor="start" x="96.5437" y="-265.3" font-family="Helvetica,sans-Serif" font-size="11.00" fill="#000000">[table]</text>
<polygon fill="none" stroke="#000000" points="8.5,-235.2 8.5,-257.2 131.5,-257.2 131.5,-235.2 8.5,-235.2"/>
<image xlink:href="../../images/primaryKeys.png" width="11px" height="12px" preserveAspectRatio="xMinYMin meet" x="13.5" y="-252.2"/>
<text text-anchor="start" x="28.5" y="-242.3" font-family="Helvetica,sans-Serif" font-size="11.00" fill="#000000">agency_id</text>
<polygon fill="none" stroke="#000000" points="8.5,-216.2 8.5,-235.2 131.5,-235.2 131.5,-216.2 8.5,-216.2"/>
<text text-anchor="start" x="11.5" y="-222.3" font-family="Helvetica,sans-Serif" font-size="11.00" fill="#000000">...</text>
<polygon fill="#ffffff" stroke="transparent" points="8.5,-197.2 8.5,-216.2 59.5,-216.2 59.5,-197.2 8.5,-197.2"/>
<polygon fill="none" stroke="#000000" points="8.5,-197.2 8.5,-216.2 59.5,-216.2 59.5,-197.2 8.5,-197.2"/>
<text text-anchor="start" x="11.5" y="-203.3" font-family="Helvetica,sans-Serif" font-size="11.00" fill="#000000"> &#160;</text>
<polygon fill="#ffffff" stroke="transparent" points="59.5,-197.2 59.5,-216.2 90.5,-216.2 90.5,-197.2 59.5,-197.2"/>
<polygon fill="none" stroke="#000000" points="59.5,-197.2 59.5,-216.2 90.5,-216.2 90.5,-197.2 59.5,-197.2"/>
<text text-anchor="start" x="81.3862" y="-203.3" font-family="Helvetica,sans-Serif" font-size="11.00" fill="#000000"> &#160;</text>
<polygon fill="#ffffff" stroke="transparent" points="90.5,-197.2 90.5,-216.2 131.5,-216.2 131.5,-197.2 90.5,-197.2"/>
<polygon fill="none" stroke="#000000" points="90.5,-197.2 90.5,-216.2 131.5,-216.2 131.5,-197.2 90.5,-197.2"/>
<text text-anchor="start" x="112.9053" y="-203.3" font-family="Helvetica,sans-Serif" font-size="11.00" fill="#000000">2 &gt;</text>
</a>
</g>
</g>
<!-- routes&#45;&gt;agency -->
<g id="edge2" class="edge">
<title>routes:w&#45;&gt;agency:e</title>
<path fill="none" stroke="#000000" d="M167.776,-246.2C155.7815,-246.2 148.3229,-246.2 131.5,-246.2"/>
<polygon fill="#000000" stroke="#000000" points="174.5,-246.2001 182.5,-249.8 178.5,-246.2 182.5,-246.2 182.5,-246.2 182.5,-246.2 178.5,-246.2 182.5,-242.6 174.5,-246.2001 174.5,-246.2001"/>
<ellipse fill="none" stroke="#000000" cx="171.3" cy="-246.2001" rx="3.2" ry="3.2"/>
</g>
<!-- trips -->
<g id="node4" class="node">
<title>trips</title>
<g id="a_node4"><a xlink:href="../../tables/trips.html" xlink:title="trips" target="_top">
<polygon fill="#ffffff" stroke="transparent" points="454,-46.7 454,-239.7 606,-239.7 606,-46.7 454,-46.7"/>
<polygon fill="#f5f5f5" stroke="transparent" points="454,-216.2 454,-239.2 606,-239.2 606,-216.2 454,-216.2"/>
<polygon fill="none" stroke="#000000" points="454,-216.2 454,-239.2 606,-239.2 606,-216.2 454,-216.2"/>
<text text-anchor="start" x="459" y="-224.8" font-family="Helvetica,sans-Serif" font-weight="bold" font-size="11.00" fill="#000000">trips</text>
<text text-anchor="start" x="571.0437" y="-224.3" font-family="Helvetica,sans-Serif" font-size="11.00" fill="#000000">[table]</text>
<polygon fill="none" stroke="#000000" points="454,-194.2 454,-216.2 606,-216.2 606,-194.2 454,-194.2"/>
<image xlink:href="../../images/primaryKeys.png" width="11px" height="12px" preserveAspectRatio="xMinYMin meet" x="459" y="-211.2"/>
<text text-anchor="start" x="474" y="-201.3" font-family="Helvetica,sans-Serif" font-size="11.00" fill="#000000">trip_id</text>
<polygon fill="none" stroke="#000000" points="454,-172.2 454,-194.2 606,-194.2 606,-172.2 454,-172.2"/>
<image xlink:href="../../images/foreignKeys.png" width="11px" height="12px" preserveAspectRatio="xMinYMin meet" x="459" y="-189.2"/>
<text text-anchor="start" x="474" y="-179.3" font-family="Helvetica,sans-Serif" font-size="11.00" fill="#000000">route_id</text>
<polygon fill="none" stroke="#000000" points="454,-150.2 454,-172.2 606,-172.2 606,-150.2 454,-150.2"/>
<image xlink:href="../../images/foreignKeys.png" width="11px" height="12px" preserveAspectRatio="xMinYMin meet" x="459" y="-167.2"/>
<text text-anchor="start" x="474" y="-157.3" font-family="Helvetica,sans-Serif" font-size="11.00" fill="#000000">service_id</text>
<polygon fill="none" stroke="#000000" points="454,-128.2 454,-150.2 606,-150.2 606,-128.2 454,-128.2"/>
<image xlink:href="../../images/foreignKeys.png" width="11px" height="12px" preserveAspectRatio="xMinYMin meet" x="459" y="-145.2"/>
<text text-anchor="start" x="474" y="-135.3" font-family="Helvetica,sans-Serif" font-size="11.00" fill="#000000">shape_id</text>
<polygon fill="none" stroke="#000000" points="454,-106.2 454,-128.2 606,-128.2 606,-106.2 454,-106.2"/>
<image xlink:href="../../images/foreignKeys.png" width="11px" height="12px" preserveAspectRatio="xMinYMin meet" x="459" y="-123.2"/>
<text text-anchor="start" x="474" y="-113.3" font-family="Helvetica,sans-Serif" font-size="11.00" fill="#000000">jp_office_id</text>
<polygon fill="none" stroke="#000000" points="454,-84.2 454,-106.2 606,-106.2 606,-84.2 454,-84.2"/>
<image xlink:href="../../images/foreignKeys.png" width="11px" height="12px" preserveAspectRatio="xMinYMin meet" x="459" y="-101.2"/>
<text text-anchor="start" x="474" y="-91.3" font-family="Helvetica,sans-Serif" font-size="11.00" fill="#000000">jp_pattern_id</text>
<polygon fill="none" stroke="#000000" points="454,-65.2 454,-84.2 606,-84.2 606,-65.2 454,-65.2"/>
<text text-anchor="start" x="457" y="-71.3" font-family="Helvetica,sans-Serif" font-size="11.00" fill="#000000">...</text>
<polygon fill="#ffffff" stroke="transparent" points="454,-46.2 454,-65.2 524,-65.2 524,-46.2 454,-46.2"/>
<polygon fill="none" stroke="#000000" points="454,-46.2 454,-65.2 524,-65.2 524,-46.2 454,-46.2"/>
<text text-anchor="start" x="457" y="-52.3" font-family="Helvetica,sans-Serif" font-size="11.00" fill="#000000">&lt; 5</text>
<polygon fill="#ffffff" stroke="transparent" points="524,-46.2 524,-65.2 560,-65.2 560,-46.2 524,-46.2"/>
<polygon fill="none" stroke="#000000" points="524,-46.2 524,-65.2 560,-65.2 560,-46.2 524,-46.2"/>
<text text-anchor="start" x="550.8862" y="-52.3" font-family="Helvetica,sans-Serif" font-size="11.00" fill="#000000"> &#160;</text>
<polygon fill="#ffffff" stroke="transparent" points="560,-46.2 560,-65.2 606,-65.2 606,-46.2 560,-46.2"/>
<polygon fill="none" stroke="#000000" points="560,-46.2 560,-65.2 606,-65.2 606,-46.2 560,-46.2"/>
<text text-anchor="start" x="587.4053" y="-52.3" font-family="Helvetica,sans-Serif" font-size="11.00" fill="#000000">2 &gt;</text>
</a>
</g>
</g>
<!-- trips&#45;&gt;routes -->
<g id="edge3" class="edge">
<title>trips:w&#45;&gt;routes:e</title>
<path fill="none" stroke="#000000" d="M440.1216,-187.532C418.76,-204.8534 441.4344,-268.2 403.5,-268.2"/>
<polygon fill="#000000" stroke="#000000" points="446.3634,-185.5837 455.0727,-186.6365 450.1817,-184.3919 454,-183.2 454,-183.2 454,-183.2 450.1817,-184.3919 452.9273,-179.7635 446.3634,-185.5837 446.3634,-185.5837"/>
<ellipse fill="none" stroke="#000000" cx="443.3087" cy="-186.5372" rx="3.2" ry="3.2"/>
</g>
</g>
</svg>
