<?xml version="1.0" encoding="UTF-8" standalone="no"?>
<!DOCTYPE svg PUBLIC "-//W3C//DTD SVG 1.1//EN"
 "http://www.w3.org/Graphics/SVG/1.1/DTD/svg11.dtd">
<!-- Generated by graphviz version 2.40.1 (20161225.0304)
 -->
<!-- Title: oneDegreeRelationshipsDiagram Pages: 1 -->
<svg width="434pt" height="271pt"
 viewBox="0.00 0.00 434.00 270.70" xmlns="http://www.w3.org/2000/svg" xmlns:xlink="http://www.w3.org/1999/xlink">
<g id="graph0" class="graph" transform="scale(1 1) rotate(0) translate(4 266.7)">
<title>oneDegreeRelationshipsDiagram</title>
<polygon fill="#ffffff" stroke="transparent" points="-4,4 -4,-266.7 430,-266.7 430,4 -4,4"/>
<text text-anchor="middle" x="72.4936" y="-7.3" font-family="Helvetica,sans-Serif" font-size="11.00" fill="#000000">Generated by SchemaSpy</text>
<!-- trips -->
<g id="node1" class="node">
<title>trips</title>
<g id="a_node1"><a xlink:href="../../tables/trips.html" xlink:title="trips" target="_top">
<polygon fill="#ffffff" stroke="transparent" points="266,-65.7 266,-258.7 418,-258.7 418,-65.7 266,-65.7"/>
<polygon fill="#f5f5f5" stroke="transparent" points="266,-235.2 266,-258.2 418,-258.2 418,-235.2 266,-235.2"/>
<polygon fill="none" stroke="#000000" points="266,-235.2 266,-258.2 418,-258.2 418,-235.2 266,-235.2"/>
<text text-anchor="start" x="271" y="-243.8" font-family="Helvetica,sans-Serif" font-weight="bold" font-size="11.00" fill="#000000">trips</text>
<text text-anchor="start" x="383.0437" y="-243.3" font-family="Helvetica,sans-Serif" font-size="11.00" fill="#000000">[table]</text>
<polygon fill="none" stroke="#000000" points="266,-213.2 266,-235.2 418,-235.2 418,-213.2 266,-213.2"/>
<image xlink:href="../../images/primaryKeys.png" width="11px" height="12px" preserveAspectRatio="xMinYMin meet" x="271" y="-230.2"/>
<text text-anchor="start" x="286" y="-220.3" font-family="Helvetica,sans-Serif" font-size="11.00" fill="#000000">trip_id</text>
<polygon fill="none" stroke="#000000" points="266,-191.2 266,-213.2 418,-213.2 418,-191.2 266,-191.2"/>
<image xlink:href="../../images/foreignKeys.png" width="11px" height="12px" preserveAspectRatio="xMinYMin meet" x="271" y="-208.2"/>
<text text-anchor="start" x="286" y="-198.3" font-family="Helvetica,sans-Serif" font-size="11.00" fill="#000000">route_id</text>
<polygon fill="none" stroke="#000000" points="266,-169.2 266,-191.2 418,-191.2 418,-169.2 266,-169.2"/>
<image xlink:href="../../images/foreignKeys.png" width="11px" height="12px" preserveAspectRatio="xMinYMin meet" x="271" y="-186.2"/>
<text text-anchor="start" x="286" y="-176.3" font-family="Helvetica,sans-Serif" font-size="11.00" fill="#000000">service_id</text>
<polygon fill="none" stroke="#000000" points="266,-147.2 266,-169.2 418,-169.2 418,-147.2 266,-147.2"/>
<image xlink:href="../../images/foreignKeys.png" width="11px" height="12px" preserveAspectRatio="xMinYMin meet" x="271" y="-164.2"/>
<text text-anchor="start" x="286" y="-154.3" font-family="Helvetica,sans-Serif" font-size="11.00" fill="#000000">shape_id</text>
<polygon fill="none" stroke="#000000" points="266,-125.2 266,-147.2 418,-147.2 418,-125.2 266,-125.2"/>
<image xlink:href="../../images/foreignKeys.png" width="11px" height="12px" preserveAspectRatio="xMinYMin meet" x="271" y="-142.2"/>
<text text-anchor="start" x="286" y="-132.3" font-family="Helvetica,sans-Serif" font-size="11.00" fill="#000000">jp_office_id</text>
<polygon fill="none" stroke="#000000" points="266,-103.2 266,-125.2 418,-125.2 418,-103.2 266,-103.2"/>
<image xlink:href="../../images/foreignKeys.png" width="11px" height="12px" preserveAspectRatio="xMinYMin meet" x="271" y="-120.2"/>
<text text-anchor="start" x="286" y="-110.3" font-family="Helvetica,sans-Serif" font-size="11.00" fill="#000000">jp_pattern_id</text>
<polygon fill="none" stroke="#000000" points="266,-84.2 266,-103.2 418,-103.2 418,-84.2 266,-84.2"/>
<text text-anchor="start" x="269" y="-90.3" font-family="Helvetica,sans-Serif" font-size="11.00" fill="#000000">...</text>
<polygon fill="#ffffff" stroke="transparent" points="266,-65.2 266,-84.2 336,-84.2 336,-65.2 266,-65.2"/>
<polygon fill="none" stroke="#000000" points="266,-65.2 266,-84.2 336,-84.2 336,-65.2 266,-65.2"/>
<text text-anchor="start" x="269" y="-71.3" font-family="Helvetica,sans-Serif" font-size="11.00" fill="#000000">&lt; 5</text>
<polygon fill="#ffffff" stroke="transparent" points="336,-65.2 336,-84.2 372,-84.2 372,-65.2 336,-65.2"/>
<polygon fill="none" stroke="#000000" points="336,-65.2 336,-84.2 372,-84.2 372,-65.2 336,-65.2"/>
<text text-anchor="start" x="362.8862" y="-71.3" font-family="Helvetica,sans-Serif" font-size="11.00" fill="#000000"> &#160;</text>
<polygon fill="#ffffff" stroke="transparent" points="372,-65.2 372,-84.2 418,-84.2 418,-65.2 372,-65.2"/>
<polygon fill="none" stroke="#000000" points="372,-65.2 372,-84.2 418,-84.2 418,-65.2 372,-65.2"/>
<text text-anchor="start" x="399.4053" y="-71.3" font-family="Helvetica,sans-Serif" font-size="11.00" fill="#000000">2 &gt;</text>
</a>
</g>
</g>
<!-- shapes -->
<g id="node2" class="node">
<title>shapes</title>
<g id="a_node2"><a xlink:href="../../tables/shapes.html" xlink:title="shapes" target="_top">
<polygon fill="#ffffff" stroke="transparent" points="8,-38.2 8,-194.2 217,-194.2 217,-38.2 8,-38.2"/>
<polygon fill="#f5f5f5" stroke="transparent" points="10.5,-169.2 10.5,-192.2 215.5,-192.2 215.5,-169.2 10.5,-169.2"/>
<polygon fill="none" stroke="#000000" points="10.5,-169.2 10.5,-192.2 215.5,-192.2 215.5,-169.2 10.5,-169.2"/>
<text text-anchor="start" x="15.5" y="-177.8" font-family="Helvetica,sans-Serif" font-weight="bold" font-size="11.00" fill="#000000">shapes</text>
<text text-anchor="start" x="180.5437" y="-177.3" font-family="Helvetica,sans-Serif" font-size="11.00" fill="#000000">[table]</text>
<polygon fill="none" stroke="#000000" points="10.5,-147.2 10.5,-169.2 149.5,-169.2 149.5,-147.2 10.5,-147.2"/>
<image xlink:href="../../images/primaryKeys.png" width="11px" height="12px" preserveAspectRatio="xMinYMin meet" x="15.5" y="-164.2"/>
<text text-anchor="start" x="30.5" y="-154.3" font-family="Helvetica,sans-Serif" font-size="11.00" fill="#000000">shape_id</text>
<polygon fill="none" stroke="#000000" points="149.5,-147.2 149.5,-169.2 215.5,-169.2 215.5,-147.2 149.5,-147.2"/>
<text text-anchor="start" x="152.5" y="-154.9" font-family="Helvetica,sans-Serif" font-size="11.00" fill="#000000">varchar[64]</text>
<polygon fill="none" stroke="#000000" points="10.5,-125.2 10.5,-147.2 149.5,-147.2 149.5,-125.2 10.5,-125.2"/>
<text text-anchor="start" x="30.5" y="-132.3" font-family="Helvetica,sans-Serif" font-size="11.00" fill="#000000">shape_pt_lat</text>
<polygon fill="none" stroke="#000000" points="149.5,-125.2 149.5,-147.2 215.5,-147.2 215.5,-125.2 149.5,-125.2"/>
<text text-anchor="start" x="152.2352" y="-132.9" font-family="Helvetica,sans-Serif" font-size="11.00" fill="#000000">float8[17,17]</text>
<polygon fill="none" stroke="#000000" points="10.5,-103.2 10.5,-125.2 149.5,-125.2 149.5,-103.2 10.5,-103.2"/>
<text text-anchor="start" x="30.5" y="-110.3" font-family="Helvetica,sans-Serif" font-size="11.00" fill="#000000">shape_pt_lon</text>
<polygon fill="none" stroke="#000000" points="149.5,-103.2 149.5,-125.2 215.5,-125.2 215.5,-103.2 149.5,-103.2"/>
<text text-anchor="start" x="152.2352" y="-110.9" font-family="Helvetica,sans-Serif" font-size="11.00" fill="#000000">float8[17,17]</text>
<polygon fill="none" stroke="#000000" points="10.5,-81.2 10.5,-103.2 149.5,-103.2 149.5,-81.2 10.5,-81.2"/>
<text text-anchor="start" x="30.5" y="-88.3" font-family="Helvetica,sans-Serif" font-size="11.00" fill="#000000">shape_pt_sequence</text>
<polygon fill="none" stroke="#000000" points="149.5,-81.2 149.5,-103.2 215.5,-103.2 215.5,-81.2 149.5,-81.2"/>
<text text-anchor="start" x="152.5" y="-88.9" font-family="Helvetica,sans-Serif" font-size="11.00" fill="#000000">int4[10]</text>
<polygon fill="none" stroke="#000000" points="10.5,-59.2 10.5,-81.2 149.5,-81.2 149.5,-59.2 10.5,-59.2"/>
<text text-anchor="start" x="30.5" y="-66.3" font-family="Helvetica,sans-Serif" font-size="11.00" fill="#000000">shape_dist_traveled</text>
<polygon fill="none" stroke="#000000" points="149.5,-59.2 149.5,-81.2 215.5,-81.2 215.5,-59.2 149.5,-59.2"/>
<text text-anchor="start" x="152.2352" y="-66.9" font-family="Helvetica,sans-Serif" font-size="11.00" fill="#000000">float8[17,17]</text>
<polygon fill="#ffffff" stroke="transparent" points="10.5,-40.2 10.5,-59.2 84.5,-59.2 84.5,-40.2 10.5,-40.2"/>
<polygon fill="none" stroke="#000000" points="10.5,-40.2 10.5,-59.2 84.5,-59.2 84.5,-40.2 10.5,-40.2"/>
<text text-anchor="start" x="13.5" y="-46.3" font-family="Helvetica,sans-Serif" font-size="11.00" fill="#000000">&lt; 0</text>
<polygon fill="#ffffff" stroke="transparent" points="84.5,-40.2 84.5,-59.2 149.5,-59.2 149.5,-40.2 84.5,-40.2"/>
<polygon fill="none" stroke="#000000" points="84.5,-40.2 84.5,-59.2 149.5,-59.2 149.5,-40.2 84.5,-40.2"/>
<text text-anchor="start" x="140.3862" y="-46.3" font-family="Helvetica,sans-Serif" font-size="11.00" fill="#000000"> &#160;</text>
<polygon fill="#ffffff" stroke="transparent" points="149.5,-40.2 149.5,-59.2 215.5,-59.2 215.5,-40.2 149.5,-40.2"/>
<polygon fill="none" stroke="#000000" points="149.5,-40.2 149.5,-59.2 215.5,-59.2 215.5,-40.2 149.5,-40.2"/>
<text text-anchor="start" x="196.9053" y="-46.3" font-family="Helvetica,sans-Serif" font-size="11.00" fill="#000000">1 &gt;</text>
<polygon fill="none" stroke="#000000" stroke-width="2" points="9,-39.2 9,-193.2 216,-193.2 216,-39.2 9,-39.2"/>
</a>
</g>
</g>
<!-- trips&#45;&gt;shapes -->
<g id="edge1" class="edge">
<title>trips:w&#45;&gt;shapes:e</title>
<path fill="none" stroke="#000000" d="M251.4203,-158.2C239.5435,-158.2 232.158,-158.2 215.5,-158.2"/>
<polygon fill="#000000" stroke="#000000" points="258,-158.2001 266,-161.8 262,-158.2 266,-158.2 266,-158.2 266,-158.2 262,-158.2 266,-154.6 258,-158.2001 258,-158.2001"/>
<ellipse fill="none" stroke="#000000" cx="254.8" cy="-158.2001" rx="3.2" ry="3.2"/>
</g>
</g>
</svg>
