<?xml version="1.0" encoding="UTF-8" standalone="no"?>
<!DOCTYPE svg PUBLIC "-//W3C//DTD SVG 1.1//EN"
 "http://www.w3.org/Graphics/SVG/1.1/DTD/svg11.dtd">
<!-- Generated by graphviz version 2.40.1 (20161225.0304)
 -->
<!-- Title: twoDegreesRelationshipsDiagram Pages: 1 -->
<svg width="592pt" height="535pt"
 viewBox="0.00 0.00 592.00 535.20" xmlns="http://www.w3.org/2000/svg" xmlns:xlink="http://www.w3.org/1999/xlink">
<g id="graph0" class="graph" transform="scale(1 1) rotate(0) translate(4 531.2)">
<title>twoDegreesRelationshipsDiagram</title>
<polygon fill="#ffffff" stroke="transparent" points="-4,4 -4,-531.2 588,-531.2 588,4 -4,4"/>
<text text-anchor="middle" x="72.4936" y="-7.3" font-family="Helvetica,sans-Serif" font-size="11.00" fill="#000000">Generated by SchemaSpy</text>
<!-- frequencies -->
<g id="node1" class="node">
<title>frequencies</title>
<g id="a_node1"><a xlink:href="../../tables/frequencies.html" xlink:title="frequencies" target="_top">
<polygon fill="#ffffff" stroke="transparent" points="467,-402.2 467,-463.2 576,-463.2 576,-402.2 467,-402.2"/>
<polygon fill="#f5f5f5" stroke="transparent" points="467.5,-439.7 467.5,-462.7 576.5,-462.7 576.5,-439.7 467.5,-439.7"/>
<polygon fill="none" stroke="#000000" points="467.5,-439.7 467.5,-462.7 576.5,-462.7 576.5,-439.7 467.5,-439.7"/>
<text text-anchor="start" x="472.5" y="-448.3" font-family="Helvetica,sans-Serif" font-weight="bold" font-size="11.00" fill="#000000">frequencies</text>
<text text-anchor="start" x="542.0219" y="-447.8" font-family="Helvetica,sans-Serif" font-size="11.00" fill="#000000">[table]</text>
<polygon fill="none" stroke="#000000" points="467.5,-420.7 467.5,-439.7 576.5,-439.7 576.5,-420.7 467.5,-420.7"/>
<text text-anchor="start" x="470.5" y="-426.8" font-family="Helvetica,sans-Serif" font-size="11.00" fill="#000000">...</text>
<polygon fill="#ffffff" stroke="transparent" points="467.5,-401.7 467.5,-420.7 520.5,-420.7 520.5,-401.7 467.5,-401.7"/>
<polygon fill="none" stroke="#000000" points="467.5,-401.7 467.5,-420.7 520.5,-420.7 520.5,-401.7 467.5,-401.7"/>
<text text-anchor="start" x="470.5" y="-407.8" font-family="Helvetica,sans-Serif" font-size="11.00" fill="#000000">&lt; 1</text>
<polygon fill="#ffffff" stroke="transparent" points="520.5,-401.7 520.5,-420.7 548.5,-420.7 548.5,-401.7 520.5,-401.7"/>
<polygon fill="none" stroke="#000000" points="520.5,-401.7 520.5,-420.7 548.5,-420.7 548.5,-401.7 520.5,-401.7"/>
<text text-anchor="start" x="539.3862" y="-407.8" font-family="Helvetica,sans-Serif" font-size="11.00" fill="#000000"> &#160;</text>
<polygon fill="#ffffff" stroke="transparent" points="548.5,-401.7 548.5,-420.7 576.5,-420.7 576.5,-401.7 548.5,-401.7"/>
<polygon fill="none" stroke="#000000" points="548.5,-401.7 548.5,-420.7 576.5,-420.7 576.5,-401.7 548.5,-401.7"/>
<text text-anchor="start" x="567.3862" y="-407.8" font-family="Helvetica,sans-Serif" font-size="11.00" fill="#000000"> &#160;</text>
</a>
</g>
</g>
<!-- trips -->
<g id="node2" class="node">
<title>trips</title>
<g id="a_node2"><a xlink:href="../../tables/trips.html" xlink:title="trips" target="_top">
<polygon fill="#ffffff" stroke="transparent" points="266,-230.2 266,-423.2 418,-423.2 418,-230.2 266,-230.2"/>
<polygon fill="#f5f5f5" stroke="transparent" points="266,-399.7 266,-422.7 418,-422.7 418,-399.7 266,-399.7"/>
<polygon fill="none" stroke="#000000" points="266,-399.7 266,-422.7 418,-422.7 418,-399.7 266,-399.7"/>
<text text-anchor="start" x="271" y="-408.3" font-family="Helvetica,sans-Serif" font-weight="bold" font-size="11.00" fill="#000000">trips</text>
<text text-anchor="start" x="383.0437" y="-407.8" font-family="Helvetica,sans-Serif" font-size="11.00" fill="#000000">[table]</text>
<polygon fill="none" stroke="#000000" points="266,-377.7 266,-399.7 418,-399.7 418,-377.7 266,-377.7"/>
<image xlink:href="../../images/primaryKeys.png" width="11px" height="12px" preserveAspectRatio="xMinYMin meet" x="271" y="-394.7"/>
<text text-anchor="start" x="286" y="-384.8" font-family="Helvetica,sans-Serif" font-size="11.00" fill="#000000">trip_id</text>
<polygon fill="none" stroke="#000000" points="266,-355.7 266,-377.7 418,-377.7 418,-355.7 266,-355.7"/>
<image xlink:href="../../images/foreignKeys.png" width="11px" height="12px" preserveAspectRatio="xMinYMin meet" x="271" y="-372.7"/>
<text text-anchor="start" x="286" y="-362.8" font-family="Helvetica,sans-Serif" font-size="11.00" fill="#000000">route_id</text>
<polygon fill="none" stroke="#000000" points="266,-333.7 266,-355.7 418,-355.7 418,-333.7 266,-333.7"/>
<image xlink:href="../../images/foreignKeys.png" width="11px" height="12px" preserveAspectRatio="xMinYMin meet" x="271" y="-350.7"/>
<text text-anchor="start" x="286" y="-340.8" font-family="Helvetica,sans-Serif" font-size="11.00" fill="#000000">service_id</text>
<polygon fill="none" stroke="#000000" points="266,-311.7 266,-333.7 418,-333.7 418,-311.7 266,-311.7"/>
<image xlink:href="../../images/foreignKeys.png" width="11px" height="12px" preserveAspectRatio="xMinYMin meet" x="271" y="-328.7"/>
<text text-anchor="start" x="286" y="-318.8" font-family="Helvetica,sans-Serif" font-size="11.00" fill="#000000">shape_id</text>
<polygon fill="none" stroke="#000000" points="266,-289.7 266,-311.7 418,-311.7 418,-289.7 266,-289.7"/>
<image xlink:href="../../images/foreignKeys.png" width="11px" height="12px" preserveAspectRatio="xMinYMin meet" x="271" y="-306.7"/>
<text text-anchor="start" x="286" y="-296.8" font-family="Helvetica,sans-Serif" font-size="11.00" fill="#000000">jp_office_id</text>
<polygon fill="none" stroke="#000000" points="266,-267.7 266,-289.7 418,-289.7 418,-267.7 266,-267.7"/>
<image xlink:href="../../images/foreignKeys.png" width="11px" height="12px" preserveAspectRatio="xMinYMin meet" x="271" y="-284.7"/>
<text text-anchor="start" x="286" y="-274.8" font-family="Helvetica,sans-Serif" font-size="11.00" fill="#000000">jp_pattern_id</text>
<polygon fill="none" stroke="#000000" points="266,-248.7 266,-267.7 418,-267.7 418,-248.7 266,-248.7"/>
<text text-anchor="start" x="269" y="-254.8" font-family="Helvetica,sans-Serif" font-size="11.00" fill="#000000">...</text>
<polygon fill="#ffffff" stroke="transparent" points="266,-229.7 266,-248.7 336,-248.7 336,-229.7 266,-229.7"/>
<polygon fill="none" stroke="#000000" points="266,-229.7 266,-248.7 336,-248.7 336,-229.7 266,-229.7"/>
<text text-anchor="start" x="269" y="-235.8" font-family="Helvetica,sans-Serif" font-size="11.00" fill="#000000">&lt; 5</text>
<polygon fill="#ffffff" stroke="transparent" points="336,-229.7 336,-248.7 372,-248.7 372,-229.7 336,-229.7"/>
<polygon fill="none" stroke="#000000" points="336,-229.7 336,-248.7 372,-248.7 372,-229.7 336,-229.7"/>
<text text-anchor="start" x="362.8862" y="-235.8" font-family="Helvetica,sans-Serif" font-size="11.00" fill="#000000"> &#160;</text>
<polygon fill="#ffffff" stroke="transparent" points="372,-229.7 372,-248.7 418,-248.7 418,-229.7 372,-229.7"/>
<polygon fill="none" stroke="#000000" points="372,-229.7 372,-248.7 418,-248.7 418,-229.7 372,-229.7"/>
<text text-anchor="start" x="399.4053" y="-235.8" font-family="Helvetica,sans-Serif" font-size="11.00" fill="#000000">2 &gt;</text>
</a>
</g>
</g>
<!-- frequencies&#45;&gt;trips -->
<g id="edge1" class="edge">
<title>frequencies:w&#45;&gt;trips:e</title>
<path fill="none" stroke="#000000" d="M453.5753,-424.9968C440.543,-414.2274 440.5408,-388.7 418,-388.7"/>
<polygon fill="#000000" stroke="#000000" points="459.9207,-427.14 466.348,-433.1107 463.7103,-428.42 467.5,-429.7 467.5,-429.7 467.5,-429.7 463.7103,-428.42 468.652,-426.2893 459.9207,-427.14 459.9207,-427.14"/>
<ellipse fill="none" stroke="#000000" cx="456.8889" cy="-426.1159" rx="3.2" ry="3.2"/>
</g>
<!-- office_jp -->
<g id="node4" class="node">
<title>office_jp</title>
<g id="a_node4"><a xlink:href="../../tables/office_jp.html" xlink:title="office_jp" target="_top">
<polygon fill="#ffffff" stroke="transparent" points="68.5,-120.2 68.5,-181.2 156.5,-181.2 156.5,-120.2 68.5,-120.2"/>
<polygon fill="#f5f5f5" stroke="transparent" points="68.5,-157.7 68.5,-180.7 156.5,-180.7 156.5,-157.7 68.5,-157.7"/>
<polygon fill="none" stroke="#000000" points="68.5,-157.7 68.5,-180.7 156.5,-180.7 156.5,-157.7 68.5,-157.7"/>
<text text-anchor="start" x="73.5" y="-166.3" font-family="Helvetica,sans-Serif" font-weight="bold" font-size="11.00" fill="#000000">office_jp</text>
<text text-anchor="start" x="122.0219" y="-165.8" font-family="Helvetica,sans-Serif" font-size="11.00" fill="#000000">[table]</text>
<polygon fill="none" stroke="#000000" points="68.5,-138.7 68.5,-157.7 156.5,-157.7 156.5,-138.7 68.5,-138.7"/>
<text text-anchor="start" x="71.5" y="-144.8" font-family="Helvetica,sans-Serif" font-size="11.00" fill="#000000">...</text>
<polygon fill="#ffffff" stroke="transparent" points="68.5,-119.7 68.5,-138.7 101.5,-138.7 101.5,-119.7 68.5,-119.7"/>
<polygon fill="none" stroke="#000000" points="68.5,-119.7 68.5,-138.7 101.5,-138.7 101.5,-119.7 68.5,-119.7"/>
<text text-anchor="start" x="71.5" y="-125.8" font-family="Helvetica,sans-Serif" font-size="11.00" fill="#000000"> &#160;</text>
<polygon fill="#ffffff" stroke="transparent" points="101.5,-119.7 101.5,-138.7 124.5,-138.7 124.5,-119.7 101.5,-119.7"/>
<polygon fill="none" stroke="#000000" points="101.5,-119.7 101.5,-138.7 124.5,-138.7 124.5,-119.7 101.5,-119.7"/>
<text text-anchor="start" x="115.3862" y="-125.8" font-family="Helvetica,sans-Serif" font-size="11.00" fill="#000000"> &#160;</text>
<polygon fill="#ffffff" stroke="transparent" points="124.5,-119.7 124.5,-138.7 156.5,-138.7 156.5,-119.7 124.5,-119.7"/>
<polygon fill="none" stroke="#000000" points="124.5,-119.7 124.5,-138.7 156.5,-138.7 156.5,-119.7 124.5,-119.7"/>
<text text-anchor="start" x="137.9053" y="-125.8" font-family="Helvetica,sans-Serif" font-size="11.00" fill="#000000">1 &gt;</text>
</a>
</g>
</g>
<!-- trips&#45;&gt;office_jp -->
<g id="edge3" class="edge">
<title>trips:w&#45;&gt;office_jp:e</title>
<path fill="none" stroke="#000000" d="M251.4448,-298.0242C223.3477,-284.9786 253.7243,-227.2352 225,-191.7 202.2533,-163.5598 192.684,-147.7 156.5,-147.7"/>
<polygon fill="#000000" stroke="#000000" points="258.1319,-299.2535 265.3491,-304.2407 262.0659,-299.9767 266,-300.7 266,-300.7 266,-300.7 262.0659,-299.9767 266.6509,-297.1593 258.1319,-299.2535 258.1319,-299.2535"/>
<ellipse fill="none" stroke="#000000" cx="254.9846" cy="-298.6749" rx="3.2" ry="3.2"/>
</g>
<!-- pattern_jp -->
<g id="node5" class="node">
<title>pattern_jp</title>
<g id="a_node5"><a xlink:href="../../tables/pattern_jp.html" xlink:title="pattern_jp" target="_top">
<polygon fill="#ffffff" stroke="transparent" points="62.5,-38.2 62.5,-99.2 162.5,-99.2 162.5,-38.2 62.5,-38.2"/>
<polygon fill="#f5f5f5" stroke="transparent" points="62.5,-75.7 62.5,-98.7 162.5,-98.7 162.5,-75.7 62.5,-75.7"/>
<polygon fill="none" stroke="#000000" points="62.5,-75.7 62.5,-98.7 162.5,-98.7 162.5,-75.7 62.5,-75.7"/>
<text text-anchor="start" x="67.5" y="-84.3" font-family="Helvetica,sans-Serif" font-weight="bold" font-size="11.00" fill="#000000">pattern_jp</text>
<text text-anchor="start" x="128.0219" y="-83.8" font-family="Helvetica,sans-Serif" font-size="11.00" fill="#000000">[table]</text>
<polygon fill="none" stroke="#000000" points="62.5,-56.7 62.5,-75.7 162.5,-75.7 162.5,-56.7 62.5,-56.7"/>
<text text-anchor="start" x="65.5" y="-62.8" font-family="Helvetica,sans-Serif" font-size="11.00" fill="#000000">...</text>
<polygon fill="#ffffff" stroke="transparent" points="62.5,-37.7 62.5,-56.7 101.5,-56.7 101.5,-37.7 62.5,-37.7"/>
<polygon fill="none" stroke="#000000" points="62.5,-37.7 62.5,-56.7 101.5,-56.7 101.5,-37.7 62.5,-37.7"/>
<text text-anchor="start" x="65.5" y="-43.8" font-family="Helvetica,sans-Serif" font-size="11.00" fill="#000000"> &#160;</text>
<polygon fill="#ffffff" stroke="transparent" points="101.5,-37.7 101.5,-56.7 127.5,-56.7 127.5,-37.7 101.5,-37.7"/>
<polygon fill="none" stroke="#000000" points="101.5,-37.7 101.5,-56.7 127.5,-56.7 127.5,-37.7 101.5,-37.7"/>
<text text-anchor="start" x="118.3862" y="-43.8" font-family="Helvetica,sans-Serif" font-size="11.00" fill="#000000"> &#160;</text>
<polygon fill="#ffffff" stroke="transparent" points="127.5,-37.7 127.5,-56.7 162.5,-56.7 162.5,-37.7 127.5,-37.7"/>
<polygon fill="none" stroke="#000000" points="127.5,-37.7 127.5,-56.7 162.5,-56.7 162.5,-37.7 127.5,-37.7"/>
<text text-anchor="start" x="143.9053" y="-43.8" font-family="Helvetica,sans-Serif" font-size="11.00" fill="#000000">1 &gt;</text>
</a>
</g>
</g>
<!-- trips&#45;&gt;pattern_jp -->
<g id="edge4" class="edge">
<title>trips:w&#45;&gt;pattern_jp:e</title>
<path fill="none" stroke="#000000" d="M251.5989,-277.1085C199.5976,-263.7236 265.3511,-168.9733 225,-109.7 205.8832,-81.6185 196.4709,-65.7 162.5,-65.7"/>
<polygon fill="#000000" stroke="#000000" points="258.0484,-277.8212 265.6045,-282.2782 262.0242,-278.2606 266,-278.7 266,-278.7 266,-278.7 262.0242,-278.2606 266.3955,-275.1218 258.0484,-277.8212 258.0484,-277.8212"/>
<ellipse fill="none" stroke="#000000" cx="254.8678" cy="-277.4697" rx="3.2" ry="3.2"/>
</g>
<!-- routes -->
<g id="node6" class="node">
<title>routes</title>
<g id="a_node6"><a xlink:href="../../tables/routes.html" xlink:title="routes" target="_top">
<polygon fill="#ffffff" stroke="transparent" points="73.5,-462.2 73.5,-523.2 151.5,-523.2 151.5,-462.2 73.5,-462.2"/>
<polygon fill="#f5f5f5" stroke="transparent" points="73.5,-499.7 73.5,-522.7 151.5,-522.7 151.5,-499.7 73.5,-499.7"/>
<polygon fill="none" stroke="#000000" points="73.5,-499.7 73.5,-522.7 151.5,-522.7 151.5,-499.7 73.5,-499.7"/>
<text text-anchor="start" x="78.5" y="-508.3" font-family="Helvetica,sans-Serif" font-weight="bold" font-size="11.00" fill="#000000">routes</text>
<text text-anchor="start" x="117.0219" y="-507.8" font-family="Helvetica,sans-Serif" font-size="11.00" fill="#000000">[table]</text>
<polygon fill="none" stroke="#000000" points="73.5,-480.7 73.5,-499.7 151.5,-499.7 151.5,-480.7 73.5,-480.7"/>
<text text-anchor="start" x="76.5" y="-486.8" font-family="Helvetica,sans-Serif" font-size="11.00" fill="#000000">...</text>
<polygon fill="#ffffff" stroke="transparent" points="73.5,-461.7 73.5,-480.7 106.5,-480.7 106.5,-461.7 73.5,-461.7"/>
<polygon fill="none" stroke="#000000" points="73.5,-461.7 73.5,-480.7 106.5,-480.7 106.5,-461.7 73.5,-461.7"/>
<text text-anchor="start" x="76.5" y="-467.8" font-family="Helvetica,sans-Serif" font-size="11.00" fill="#000000">&lt; 1</text>
<polygon fill="#ffffff" stroke="transparent" points="106.5,-461.7 106.5,-480.7 124.5,-480.7 124.5,-461.7 106.5,-461.7"/>
<polygon fill="none" stroke="#000000" points="106.5,-461.7 106.5,-480.7 124.5,-480.7 124.5,-461.7 106.5,-461.7"/>
<text text-anchor="start" x="115.3862" y="-467.8" font-family="Helvetica,sans-Serif" font-size="11.00" fill="#000000"> &#160;</text>
<polygon fill="#ffffff" stroke="transparent" points="124.5,-461.7 124.5,-480.7 151.5,-480.7 151.5,-461.7 124.5,-461.7"/>
<polygon fill="none" stroke="#000000" points="124.5,-461.7 124.5,-480.7 151.5,-480.7 151.5,-461.7 124.5,-461.7"/>
<text text-anchor="start" x="132.9053" y="-467.8" font-family="Helvetica,sans-Serif" font-size="11.00" fill="#000000">2 &gt;</text>
</a>
</g>
</g>
<!-- trips&#45;&gt;routes -->
<g id="edge5" class="edge">
<title>trips:w&#45;&gt;routes:e</title>
<path fill="none" stroke="#000000" d="M251.9368,-369.9016C231.5415,-382.0598 250.0174,-425.9791 225,-451.7 199.3597,-478.0613 188.2743,-489.7 151.5,-489.7"/>
<polygon fill="#000000" stroke="#000000" points="258.1996,-368.4759 266.7992,-370.2102 262.0998,-367.5879 266,-366.7 266,-366.7 266,-366.7 262.0998,-367.5879 265.2008,-363.1898 258.1996,-368.4759 258.1996,-368.4759"/>
<ellipse fill="none" stroke="#000000" cx="255.0794" cy="-369.1862" rx="3.2" ry="3.2"/>
</g>
<!-- calendar -->
<g id="node7" class="node">
<title>calendar</title>
<g id="a_node7"><a xlink:href="../../tables/calendar.html" xlink:title="calendar" target="_top">
<polygon fill="#ffffff" stroke="transparent" points="67,-380.2 67,-441.2 158,-441.2 158,-380.2 67,-380.2"/>
<polygon fill="#f5f5f5" stroke="transparent" points="67.5,-417.7 67.5,-440.7 158.5,-440.7 158.5,-417.7 67.5,-417.7"/>
<polygon fill="none" stroke="#000000" points="67.5,-417.7 67.5,-440.7 158.5,-440.7 158.5,-417.7 67.5,-417.7"/>
<text text-anchor="start" x="72.5" y="-426.3" font-family="Helvetica,sans-Serif" font-weight="bold" font-size="11.00" fill="#000000">calendar</text>
<text text-anchor="start" x="124.0219" y="-425.8" font-family="Helvetica,sans-Serif" font-size="11.00" fill="#000000">[table]</text>
<polygon fill="none" stroke="#000000" points="67.5,-398.7 67.5,-417.7 158.5,-417.7 158.5,-398.7 67.5,-398.7"/>
<text text-anchor="start" x="70.5" y="-404.8" font-family="Helvetica,sans-Serif" font-size="11.00" fill="#000000">...</text>
<polygon fill="#ffffff" stroke="transparent" points="67.5,-379.7 67.5,-398.7 102.5,-398.7 102.5,-379.7 67.5,-379.7"/>
<polygon fill="none" stroke="#000000" points="67.5,-379.7 67.5,-398.7 102.5,-398.7 102.5,-379.7 67.5,-379.7"/>
<text text-anchor="start" x="70.5" y="-385.8" font-family="Helvetica,sans-Serif" font-size="11.00" fill="#000000"> &#160;</text>
<polygon fill="#ffffff" stroke="transparent" points="102.5,-379.7 102.5,-398.7 125.5,-398.7 125.5,-379.7 102.5,-379.7"/>
<polygon fill="none" stroke="#000000" points="102.5,-379.7 102.5,-398.7 125.5,-398.7 125.5,-379.7 102.5,-379.7"/>
<text text-anchor="start" x="116.3862" y="-385.8" font-family="Helvetica,sans-Serif" font-size="11.00" fill="#000000"> &#160;</text>
<polygon fill="#ffffff" stroke="transparent" points="125.5,-379.7 125.5,-398.7 158.5,-398.7 158.5,-379.7 125.5,-379.7"/>
<polygon fill="none" stroke="#000000" points="125.5,-379.7 125.5,-398.7 158.5,-398.7 158.5,-379.7 125.5,-379.7"/>
<text text-anchor="start" x="139.9053" y="-385.8" font-family="Helvetica,sans-Serif" font-size="11.00" fill="#000000">1 &gt;</text>
</a>
</g>
</g>
<!-- trips&#45;&gt;calendar -->
<g id="edge6" class="edge">
<title>trips:w&#45;&gt;calendar:e</title>
<path fill="none" stroke="#000000" d="M251.6237,-347.8253C242.4891,-352.6043 238.0658,-361.9855 225,-369.7 195.6874,-387.0071 192.5406,-407.7 158.5,-407.7"/>
<polygon fill="#000000" stroke="#000000" points="258.1826,-346.3995 266.7648,-348.2178 262.0913,-345.5498 266,-344.7 266,-344.7 266,-344.7 262.0913,-345.5498 265.2352,-341.1822 258.1826,-346.3995 258.1826,-346.3995"/>
<ellipse fill="none" stroke="#000000" cx="255.0556" cy="-347.0793" rx="3.2" ry="3.2"/>
</g>
<!-- shapes -->
<g id="node8" class="node">
<title>shapes</title>
<g id="a_node8"><a xlink:href="../../tables/shapes.html" xlink:title="shapes" target="_top">
<polygon fill="#ffffff" stroke="transparent" points="8,-202.7 8,-358.7 217,-358.7 217,-202.7 8,-202.7"/>
<polygon fill="#f5f5f5" stroke="transparent" points="10.5,-333.7 10.5,-356.7 215.5,-356.7 215.5,-333.7 10.5,-333.7"/>
<polygon fill="none" stroke="#000000" points="10.5,-333.7 10.5,-356.7 215.5,-356.7 215.5,-333.7 10.5,-333.7"/>
<text text-anchor="start" x="15.5" y="-342.3" font-family="Helvetica,sans-Serif" font-weight="bold" font-size="11.00" fill="#000000">shapes</text>
<text text-anchor="start" x="180.5437" y="-341.8" font-family="Helvetica,sans-Serif" font-size="11.00" fill="#000000">[table]</text>
<polygon fill="none" stroke="#000000" points="10.5,-311.7 10.5,-333.7 149.5,-333.7 149.5,-311.7 10.5,-311.7"/>
<image xlink:href="../../images/primaryKeys.png" width="11px" height="12px" preserveAspectRatio="xMinYMin meet" x="15.5" y="-328.7"/>
<text text-anchor="start" x="30.5" y="-318.8" font-family="Helvetica,sans-Serif" font-size="11.00" fill="#000000">shape_id</text>
<polygon fill="none" stroke="#000000" points="149.5,-311.7 149.5,-333.7 215.5,-333.7 215.5,-311.7 149.5,-311.7"/>
<text text-anchor="start" x="152.5" y="-319.4" font-family="Helvetica,sans-Serif" font-size="11.00" fill="#000000">varchar[64]</text>
<polygon fill="none" stroke="#000000" points="10.5,-289.7 10.5,-311.7 149.5,-311.7 149.5,-289.7 10.5,-289.7"/>
<text text-anchor="start" x="30.5" y="-296.8" font-family="Helvetica,sans-Serif" font-size="11.00" fill="#000000">shape_pt_lat</text>
<polygon fill="none" stroke="#000000" points="149.5,-289.7 149.5,-311.7 215.5,-311.7 215.5,-289.7 149.5,-289.7"/>
<text text-anchor="start" x="152.2352" y="-297.4" font-family="Helvetica,sans-Serif" font-size="11.00" fill="#000000">float8[17,17]</text>
<polygon fill="none" stroke="#000000" points="10.5,-267.7 10.5,-289.7 149.5,-289.7 149.5,-267.7 10.5,-267.7"/>
<text text-anchor="start" x="30.5" y="-274.8" font-family="Helvetica,sans-Serif" font-size="11.00" fill="#000000">shape_pt_lon</text>
<polygon fill="none" stroke="#000000" points="149.5,-267.7 149.5,-289.7 215.5,-289.7 215.5,-267.7 149.5,-267.7"/>
<text text-anchor="start" x="152.2352" y="-275.4" font-family="Helvetica,sans-Serif" font-size="11.00" fill="#000000">float8[17,17]</text>
<polygon fill="none" stroke="#000000" points="10.5,-245.7 10.5,-267.7 149.5,-267.7 149.5,-245.7 10.5,-245.7"/>
<text text-anchor="start" x="30.5" y="-252.8" font-family="Helvetica,sans-Serif" font-size="11.00" fill="#000000">shape_pt_sequence</text>
<polygon fill="none" stroke="#000000" points="149.5,-245.7 149.5,-267.7 215.5,-267.7 215.5,-245.7 149.5,-245.7"/>
<text text-anchor="start" x="152.5" y="-253.4" font-family="Helvetica,sans-Serif" font-size="11.00" fill="#000000">int4[10]</text>
<polygon fill="none" stroke="#000000" points="10.5,-223.7 10.5,-245.7 149.5,-245.7 149.5,-223.7 10.5,-223.7"/>
<text text-anchor="start" x="30.5" y="-230.8" font-family="Helvetica,sans-Serif" font-size="11.00" fill="#000000">shape_dist_traveled</text>
<polygon fill="none" stroke="#000000" points="149.5,-223.7 149.5,-245.7 215.5,-245.7 215.5,-223.7 149.5,-223.7"/>
<text text-anchor="start" x="152.2352" y="-231.4" font-family="Helvetica,sans-Serif" font-size="11.00" fill="#000000">float8[17,17]</text>
<polygon fill="#ffffff" stroke="transparent" points="10.5,-204.7 10.5,-223.7 84.5,-223.7 84.5,-204.7 10.5,-204.7"/>
<polygon fill="none" stroke="#000000" points="10.5,-204.7 10.5,-223.7 84.5,-223.7 84.5,-204.7 10.5,-204.7"/>
<text text-anchor="start" x="13.5" y="-210.8" font-family="Helvetica,sans-Serif" font-size="11.00" fill="#000000">&lt; 0</text>
<polygon fill="#ffffff" stroke="transparent" points="84.5,-204.7 84.5,-223.7 149.5,-223.7 149.5,-204.7 84.5,-204.7"/>
<polygon fill="none" stroke="#000000" points="84.5,-204.7 84.5,-223.7 149.5,-223.7 149.5,-204.7 84.5,-204.7"/>
<text text-anchor="start" x="140.3862" y="-210.8" font-family="Helvetica,sans-Serif" font-size="11.00" fill="#000000"> &#160;</text>
<polygon fill="#ffffff" stroke="transparent" points="149.5,-204.7 149.5,-223.7 215.5,-223.7 215.5,-204.7 149.5,-204.7"/>
<polygon fill="none" stroke="#000000" points="149.5,-204.7 149.5,-223.7 215.5,-223.7 215.5,-204.7 149.5,-204.7"/>
<text text-anchor="start" x="196.9053" y="-210.8" font-family="Helvetica,sans-Serif" font-size="11.00" fill="#000000">1 &gt;</text>
<polygon fill="none" stroke="#000000" stroke-width="2" points="9,-203.7 9,-357.7 216,-357.7 216,-203.7 9,-203.7"/>
</a>
</g>
</g>
<!-- trips&#45;&gt;shapes -->
<g id="edge7" class="edge">
<title>trips:w&#45;&gt;shapes:e</title>
<path fill="none" stroke="#000000" d="M251.4203,-322.7C239.5435,-322.7 232.158,-322.7 215.5,-322.7"/>
<polygon fill="#000000" stroke="#000000" points="258,-322.7001 266,-326.3 262,-322.7 266,-322.7 266,-322.7 266,-322.7 262,-322.7 266,-319.1 258,-322.7001 258,-322.7001"/>
<ellipse fill="none" stroke="#000000" cx="254.8" cy="-322.7001" rx="3.2" ry="3.2"/>
</g>
<!-- stop_times -->
<g id="node3" class="node">
<title>stop_times</title>
<g id="a_node3"><a xlink:href="../../tables/stop_times.html" xlink:title="stop_times" target="_top">
<polygon fill="#ffffff" stroke="transparent" points="470,-320.2 470,-381.2 573,-381.2 573,-320.2 470,-320.2"/>
<polygon fill="#f5f5f5" stroke="transparent" points="470.5,-357.7 470.5,-380.7 573.5,-380.7 573.5,-357.7 470.5,-357.7"/>
<polygon fill="none" stroke="#000000" points="470.5,-357.7 470.5,-380.7 573.5,-380.7 573.5,-357.7 470.5,-357.7"/>
<text text-anchor="start" x="475.5" y="-366.3" font-family="Helvetica,sans-Serif" font-weight="bold" font-size="11.00" fill="#000000">stop_times</text>
<text text-anchor="start" x="539.0219" y="-365.8" font-family="Helvetica,sans-Serif" font-size="11.00" fill="#000000">[table]</text>
<polygon fill="none" stroke="#000000" points="470.5,-338.7 470.5,-357.7 573.5,-357.7 573.5,-338.7 470.5,-338.7"/>
<text text-anchor="start" x="473.5" y="-344.8" font-family="Helvetica,sans-Serif" font-size="11.00" fill="#000000">...</text>
<polygon fill="#ffffff" stroke="transparent" points="470.5,-319.7 470.5,-338.7 520.5,-338.7 520.5,-319.7 470.5,-319.7"/>
<polygon fill="none" stroke="#000000" points="470.5,-319.7 470.5,-338.7 520.5,-338.7 520.5,-319.7 470.5,-319.7"/>
<text text-anchor="start" x="473.5" y="-325.8" font-family="Helvetica,sans-Serif" font-size="11.00" fill="#000000">&lt; 2</text>
<polygon fill="#ffffff" stroke="transparent" points="520.5,-319.7 520.5,-338.7 546.5,-338.7 546.5,-319.7 520.5,-319.7"/>
<polygon fill="none" stroke="#000000" points="520.5,-319.7 520.5,-338.7 546.5,-338.7 546.5,-319.7 520.5,-319.7"/>
<text text-anchor="start" x="537.3862" y="-325.8" font-family="Helvetica,sans-Serif" font-size="11.00" fill="#000000"> &#160;</text>
<polygon fill="#ffffff" stroke="transparent" points="546.5,-319.7 546.5,-338.7 573.5,-338.7 573.5,-319.7 546.5,-319.7"/>
<polygon fill="none" stroke="#000000" points="546.5,-319.7 546.5,-338.7 573.5,-338.7 573.5,-319.7 546.5,-319.7"/>
<text text-anchor="start" x="564.3862" y="-325.8" font-family="Helvetica,sans-Serif" font-size="11.00" fill="#000000"> &#160;</text>
</a>
</g>
</g>
<!-- stop_times&#45;&gt;trips -->
<g id="edge2" class="edge">
<title>stop_times:w&#45;&gt;trips:e</title>
<path fill="none" stroke="#000000" d="M456.3456,-352.0877C442.1224,-362.6646 441.592,-388.7 418,-388.7"/>
<polygon fill="#000000" stroke="#000000" points="462.8587,-350.0688 471.5659,-351.1386 466.6794,-348.8844 470.5,-347.7 470.5,-347.7 470.5,-347.7 466.6794,-348.8844 469.4341,-344.2614 462.8587,-350.0688 462.8587,-350.0688"/>
<ellipse fill="none" stroke="#000000" cx="459.8022" cy="-351.0163" rx="3.2" ry="3.2"/>
</g>
</g>
</svg>
