<?xml version="1.0" encoding="UTF-8" standalone="no"?>
<!DOCTYPE svg PUBLIC "-//W3C//DTD SVG 1.1//EN"
 "http://www.w3.org/Graphics/SVG/1.1/DTD/svg11.dtd">
<!-- Generated by graphviz version 2.40.1 (20161225.0304)
 -->
<!-- Title: oneDegreeRelationshipsDiagram Pages: 1 -->
<svg width="458pt" height="389pt"
 viewBox="0.00 0.00 458.00 388.70" xmlns="http://www.w3.org/2000/svg" xmlns:xlink="http://www.w3.org/1999/xlink">
<g id="graph0" class="graph" transform="scale(1 1) rotate(0) translate(4 384.7)">
<title>oneDegreeRelationshipsDiagram</title>
<polygon fill="#ffffff" stroke="transparent" points="-4,4 -4,-384.7 454,-384.7 454,4 -4,4"/>
<text text-anchor="middle" x="72.4936" y="-7.3" font-family="Helvetica,sans-Serif" font-size="11.00" fill="#000000">Generated by SchemaSpy</text>
<!-- stop_times -->
<g id="node1" class="node">
<title>stop_times</title>
<g id="a_node1"><a xlink:href="../../tables/stop_times.html" xlink:title="stop_times" target="_top">
<polygon fill="#ffffff" stroke="transparent" points="209,-38.2 209,-304.2 442,-304.2 442,-38.2 209,-38.2"/>
<polygon fill="#f5f5f5" stroke="transparent" points="211.5,-279.2 211.5,-302.2 440.5,-302.2 440.5,-279.2 211.5,-279.2"/>
<polygon fill="none" stroke="#000000" points="211.5,-279.2 211.5,-302.2 440.5,-302.2 440.5,-279.2 211.5,-279.2"/>
<text text-anchor="start" x="216.5" y="-287.8" font-family="Helvetica,sans-Serif" font-weight="bold" font-size="11.00" fill="#000000">stop_times</text>
<text text-anchor="start" x="405.5437" y="-287.3" font-family="Helvetica,sans-Serif" font-size="11.00" fill="#000000">[table]</text>
<polygon fill="none" stroke="#000000" points="211.5,-257.2 211.5,-279.2 350.5,-279.2 350.5,-257.2 211.5,-257.2"/>
<image xlink:href="../../images/primaryKeys.png" width="11px" height="12px" preserveAspectRatio="xMinYMin meet" x="216.5" y="-274.2"/>
<text text-anchor="start" x="231.5" y="-264.3" font-family="Helvetica,sans-Serif" font-size="11.00" fill="#000000">trip_id</text>
<polygon fill="none" stroke="#000000" points="350.5,-257.2 350.5,-279.2 440.5,-279.2 440.5,-257.2 350.5,-257.2"/>
<text text-anchor="start" x="353.5" y="-264.9" font-family="Helvetica,sans-Serif" font-size="11.00" fill="#000000">varchar[64]</text>
<polygon fill="none" stroke="#000000" points="211.5,-235.2 211.5,-257.2 350.5,-257.2 350.5,-235.2 211.5,-235.2"/>
<text text-anchor="start" x="231.5" y="-242.3" font-family="Helvetica,sans-Serif" font-size="11.00" fill="#000000">arrival_time</text>
<polygon fill="none" stroke="#000000" points="350.5,-235.2 350.5,-257.2 440.5,-257.2 440.5,-235.2 350.5,-235.2"/>
<text text-anchor="start" x="353.5" y="-242.9" font-family="Helvetica,sans-Serif" font-size="11.00" fill="#000000">varchar[8]</text>
<polygon fill="none" stroke="#000000" points="211.5,-213.2 211.5,-235.2 350.5,-235.2 350.5,-213.2 211.5,-213.2"/>
<text text-anchor="start" x="231.5" y="-220.3" font-family="Helvetica,sans-Serif" font-size="11.00" fill="#000000">departure_time</text>
<polygon fill="none" stroke="#000000" points="350.5,-213.2 350.5,-235.2 440.5,-235.2 440.5,-213.2 350.5,-213.2"/>
<text text-anchor="start" x="353.5" y="-220.9" font-family="Helvetica,sans-Serif" font-size="11.00" fill="#000000">varchar[8]</text>
<polygon fill="none" stroke="#000000" points="211.5,-191.2 211.5,-213.2 350.5,-213.2 350.5,-191.2 211.5,-191.2"/>
<image xlink:href="../../images/foreignKeys.png" width="11px" height="12px" preserveAspectRatio="xMinYMin meet" x="216.5" y="-208.2"/>
<text text-anchor="start" x="231.5" y="-198.3" font-family="Helvetica,sans-Serif" font-size="11.00" fill="#000000">stop_id</text>
<polygon fill="none" stroke="#000000" points="350.5,-191.2 350.5,-213.2 440.5,-213.2 440.5,-191.2 350.5,-191.2"/>
<text text-anchor="start" x="353.5" y="-198.9" font-family="Helvetica,sans-Serif" font-size="11.00" fill="#000000">varchar[64]</text>
<polygon fill="none" stroke="#000000" points="211.5,-169.2 211.5,-191.2 350.5,-191.2 350.5,-169.2 211.5,-169.2"/>
<image xlink:href="../../images/primaryKeys.png" width="11px" height="12px" preserveAspectRatio="xMinYMin meet" x="216.5" y="-186.2"/>
<text text-anchor="start" x="231.5" y="-176.3" font-family="Helvetica,sans-Serif" font-size="11.00" fill="#000000">stop_sequence</text>
<polygon fill="none" stroke="#000000" points="350.5,-169.2 350.5,-191.2 440.5,-191.2 440.5,-169.2 350.5,-169.2"/>
<text text-anchor="start" x="353.5" y="-176.9" font-family="Helvetica,sans-Serif" font-size="11.00" fill="#000000">int4[10]</text>
<polygon fill="none" stroke="#000000" points="211.5,-147.2 211.5,-169.2 350.5,-169.2 350.5,-147.2 211.5,-147.2"/>
<text text-anchor="start" x="231.5" y="-154.3" font-family="Helvetica,sans-Serif" font-size="11.00" fill="#000000">stop_headsign</text>
<polygon fill="none" stroke="#000000" points="350.5,-147.2 350.5,-169.2 440.5,-169.2 440.5,-147.2 350.5,-147.2"/>
<text text-anchor="start" x="353.0043" y="-154.9" font-family="Helvetica,sans-Serif" font-size="11.00" fill="#000000">text[2147483647]</text>
<polygon fill="none" stroke="#000000" points="211.5,-125.2 211.5,-147.2 350.5,-147.2 350.5,-125.2 211.5,-125.2"/>
<text text-anchor="start" x="231.5" y="-132.3" font-family="Helvetica,sans-Serif" font-size="11.00" fill="#000000">pickup_type</text>
<polygon fill="none" stroke="#000000" points="350.5,-125.2 350.5,-147.2 440.5,-147.2 440.5,-125.2 350.5,-125.2"/>
<text text-anchor="start" x="353.5" y="-132.9" font-family="Helvetica,sans-Serif" font-size="11.00" fill="#000000">int2[5]</text>
<polygon fill="none" stroke="#000000" points="211.5,-103.2 211.5,-125.2 350.5,-125.2 350.5,-103.2 211.5,-103.2"/>
<text text-anchor="start" x="231.5" y="-110.3" font-family="Helvetica,sans-Serif" font-size="11.00" fill="#000000">drop_off_type</text>
<polygon fill="none" stroke="#000000" points="350.5,-103.2 350.5,-125.2 440.5,-125.2 440.5,-103.2 350.5,-103.2"/>
<text text-anchor="start" x="353.5" y="-110.9" font-family="Helvetica,sans-Serif" font-size="11.00" fill="#000000">int2[5]</text>
<polygon fill="none" stroke="#000000" points="211.5,-81.2 211.5,-103.2 350.5,-103.2 350.5,-81.2 211.5,-81.2"/>
<text text-anchor="start" x="231.5" y="-88.3" font-family="Helvetica,sans-Serif" font-size="11.00" fill="#000000">shape_dist_traveled</text>
<polygon fill="none" stroke="#000000" points="350.5,-81.2 350.5,-103.2 440.5,-103.2 440.5,-81.2 350.5,-81.2"/>
<text text-anchor="start" x="353.5" y="-88.9" font-family="Helvetica,sans-Serif" font-size="11.00" fill="#000000">float8[17,17]</text>
<polygon fill="none" stroke="#000000" points="211.5,-59.2 211.5,-81.2 350.5,-81.2 350.5,-59.2 211.5,-59.2"/>
<text text-anchor="start" x="231.5" y="-66.3" font-family="Helvetica,sans-Serif" font-size="11.00" fill="#000000">timepoint</text>
<polygon fill="none" stroke="#000000" points="350.5,-59.2 350.5,-81.2 440.5,-81.2 440.5,-59.2 350.5,-59.2"/>
<text text-anchor="start" x="353.5" y="-66.9" font-family="Helvetica,sans-Serif" font-size="11.00" fill="#000000">int2[5]</text>
<polygon fill="#ffffff" stroke="transparent" points="211.5,-40.2 211.5,-59.2 285.5,-59.2 285.5,-40.2 211.5,-40.2"/>
<polygon fill="none" stroke="#000000" points="211.5,-40.2 211.5,-59.2 285.5,-59.2 285.5,-40.2 211.5,-40.2"/>
<text text-anchor="start" x="214.5" y="-46.3" font-family="Helvetica,sans-Serif" font-size="11.00" fill="#000000">&lt; 2</text>
<polygon fill="#ffffff" stroke="transparent" points="285.5,-40.2 285.5,-59.2 350.5,-59.2 350.5,-40.2 285.5,-40.2"/>
<polygon fill="none" stroke="#000000" points="285.5,-40.2 285.5,-59.2 350.5,-59.2 350.5,-40.2 285.5,-40.2"/>
<text text-anchor="start" x="341.3862" y="-46.3" font-family="Helvetica,sans-Serif" font-size="11.00" fill="#000000"> &#160;</text>
<polygon fill="#ffffff" stroke="transparent" points="350.5,-40.2 350.5,-59.2 440.5,-59.2 440.5,-40.2 350.5,-40.2"/>
<polygon fill="none" stroke="#000000" points="350.5,-40.2 350.5,-59.2 440.5,-59.2 440.5,-40.2 350.5,-40.2"/>
<text text-anchor="start" x="421.9053" y="-46.3" font-family="Helvetica,sans-Serif" font-size="11.00" fill="#000000">0 &gt;</text>
<polygon fill="none" stroke="#000000" stroke-width="2" points="210,-39.2 210,-303.2 441,-303.2 441,-39.2 210,-39.2"/>
</a>
</g>
</g>
<!-- stops -->
<g id="node2" class="node">
<title>stops</title>
<g id="a_node2"><a xlink:href="../../tables/stops.html" xlink:title="stops" target="_top">
<polygon fill="#ffffff" stroke="transparent" points="11.5,-79.7 11.5,-162.7 156.5,-162.7 156.5,-79.7 11.5,-79.7"/>
<polygon fill="#f5f5f5" stroke="transparent" points="12,-139.2 12,-162.2 157,-162.2 157,-139.2 12,-139.2"/>
<polygon fill="none" stroke="#000000" points="12,-139.2 12,-162.2 157,-162.2 157,-139.2 12,-139.2"/>
<text text-anchor="start" x="17" y="-147.8" font-family="Helvetica,sans-Serif" font-weight="bold" font-size="11.00" fill="#000000">stops</text>
<text text-anchor="start" x="122.0437" y="-147.3" font-family="Helvetica,sans-Serif" font-size="11.00" fill="#000000">[table]</text>
<polygon fill="none" stroke="#000000" points="12,-117.2 12,-139.2 157,-139.2 157,-117.2 12,-117.2"/>
<image xlink:href="../../images/primaryKeys.png" width="11px" height="12px" preserveAspectRatio="xMinYMin meet" x="17" y="-134.2"/>
<text text-anchor="start" x="32" y="-124.3" font-family="Helvetica,sans-Serif" font-size="11.00" fill="#000000">stop_id</text>
<polygon fill="none" stroke="#000000" points="12,-98.2 12,-117.2 157,-117.2 157,-98.2 12,-98.2"/>
<text text-anchor="start" x="15" y="-104.3" font-family="Helvetica,sans-Serif" font-size="11.00" fill="#000000">...</text>
<polygon fill="#ffffff" stroke="transparent" points="12,-79.2 12,-98.2 74,-98.2 74,-79.2 12,-79.2"/>
<polygon fill="none" stroke="#000000" points="12,-79.2 12,-98.2 74,-98.2 74,-79.2 12,-79.2"/>
<text text-anchor="start" x="15" y="-85.3" font-family="Helvetica,sans-Serif" font-size="11.00" fill="#000000"> &#160;</text>
<polygon fill="#ffffff" stroke="transparent" points="74,-79.2 74,-98.2 111,-98.2 111,-79.2 74,-79.2"/>
<polygon fill="none" stroke="#000000" points="74,-79.2 74,-98.2 111,-98.2 111,-79.2 74,-79.2"/>
<text text-anchor="start" x="101.8862" y="-85.3" font-family="Helvetica,sans-Serif" font-size="11.00" fill="#000000"> &#160;</text>
<polygon fill="#ffffff" stroke="transparent" points="111,-79.2 111,-98.2 157,-98.2 157,-79.2 111,-79.2"/>
<polygon fill="none" stroke="#000000" points="111,-79.2 111,-98.2 157,-98.2 157,-79.2 111,-79.2"/>
<text text-anchor="start" x="138.4053" y="-85.3" font-family="Helvetica,sans-Serif" font-size="11.00" fill="#000000">5 &gt;</text>
</a>
</g>
</g>
<!-- stop_times&#45;&gt;stops -->
<g id="edge1" class="edge">
<title>stop_times:w&#45;&gt;stops:e</title>
<path fill="none" stroke="#000000" d="M197.6424,-198.0094C177.0929,-182.3552 191.9425,-128.2 157,-128.2"/>
<polygon fill="#000000" stroke="#000000" points="203.8425,-199.8843 210.4579,-205.6459 207.6712,-201.0421 211.5,-202.2 211.5,-202.2 211.5,-202.2 207.6712,-201.0421 212.5421,-198.7541 203.8425,-199.8843 203.8425,-199.8843"/>
<ellipse fill="none" stroke="#000000" cx="200.7795" cy="-198.958" rx="3.2" ry="3.2"/>
</g>
<!-- trips -->
<g id="node3" class="node">
<title>trips</title>
<g id="a_node3"><a xlink:href="../../tables/trips.html" xlink:title="trips" target="_top">
<polygon fill="#ffffff" stroke="transparent" points="8,-183.7 8,-376.7 160,-376.7 160,-183.7 8,-183.7"/>
<polygon fill="#f5f5f5" stroke="transparent" points="8,-353.2 8,-376.2 160,-376.2 160,-353.2 8,-353.2"/>
<polygon fill="none" stroke="#000000" points="8,-353.2 8,-376.2 160,-376.2 160,-353.2 8,-353.2"/>
<text text-anchor="start" x="13" y="-361.8" font-family="Helvetica,sans-Serif" font-weight="bold" font-size="11.00" fill="#000000">trips</text>
<text text-anchor="start" x="125.0437" y="-361.3" font-family="Helvetica,sans-Serif" font-size="11.00" fill="#000000">[table]</text>
<polygon fill="none" stroke="#000000" points="8,-331.2 8,-353.2 160,-353.2 160,-331.2 8,-331.2"/>
<image xlink:href="../../images/primaryKeys.png" width="11px" height="12px" preserveAspectRatio="xMinYMin meet" x="13" y="-348.2"/>
<text text-anchor="start" x="28" y="-338.3" font-family="Helvetica,sans-Serif" font-size="11.00" fill="#000000">trip_id</text>
<polygon fill="none" stroke="#000000" points="8,-309.2 8,-331.2 160,-331.2 160,-309.2 8,-309.2"/>
<image xlink:href="../../images/foreignKeys.png" width="11px" height="12px" preserveAspectRatio="xMinYMin meet" x="13" y="-326.2"/>
<text text-anchor="start" x="28" y="-316.3" font-family="Helvetica,sans-Serif" font-size="11.00" fill="#000000">route_id</text>
<polygon fill="none" stroke="#000000" points="8,-287.2 8,-309.2 160,-309.2 160,-287.2 8,-287.2"/>
<image xlink:href="../../images/foreignKeys.png" width="11px" height="12px" preserveAspectRatio="xMinYMin meet" x="13" y="-304.2"/>
<text text-anchor="start" x="28" y="-294.3" font-family="Helvetica,sans-Serif" font-size="11.00" fill="#000000">service_id</text>
<polygon fill="none" stroke="#000000" points="8,-265.2 8,-287.2 160,-287.2 160,-265.2 8,-265.2"/>
<image xlink:href="../../images/foreignKeys.png" width="11px" height="12px" preserveAspectRatio="xMinYMin meet" x="13" y="-282.2"/>
<text text-anchor="start" x="28" y="-272.3" font-family="Helvetica,sans-Serif" font-size="11.00" fill="#000000">shape_id</text>
<polygon fill="none" stroke="#000000" points="8,-243.2 8,-265.2 160,-265.2 160,-243.2 8,-243.2"/>
<image xlink:href="../../images/foreignKeys.png" width="11px" height="12px" preserveAspectRatio="xMinYMin meet" x="13" y="-260.2"/>
<text text-anchor="start" x="28" y="-250.3" font-family="Helvetica,sans-Serif" font-size="11.00" fill="#000000">jp_office_id</text>
<polygon fill="none" stroke="#000000" points="8,-221.2 8,-243.2 160,-243.2 160,-221.2 8,-221.2"/>
<image xlink:href="../../images/foreignKeys.png" width="11px" height="12px" preserveAspectRatio="xMinYMin meet" x="13" y="-238.2"/>
<text text-anchor="start" x="28" y="-228.3" font-family="Helvetica,sans-Serif" font-size="11.00" fill="#000000">jp_pattern_id</text>
<polygon fill="none" stroke="#000000" points="8,-202.2 8,-221.2 160,-221.2 160,-202.2 8,-202.2"/>
<text text-anchor="start" x="11" y="-208.3" font-family="Helvetica,sans-Serif" font-size="11.00" fill="#000000">...</text>
<polygon fill="#ffffff" stroke="transparent" points="8,-183.2 8,-202.2 78,-202.2 78,-183.2 8,-183.2"/>
<polygon fill="none" stroke="#000000" points="8,-183.2 8,-202.2 78,-202.2 78,-183.2 8,-183.2"/>
<text text-anchor="start" x="11" y="-189.3" font-family="Helvetica,sans-Serif" font-size="11.00" fill="#000000">&lt; 5</text>
<polygon fill="#ffffff" stroke="transparent" points="78,-183.2 78,-202.2 114,-202.2 114,-183.2 78,-183.2"/>
<polygon fill="none" stroke="#000000" points="78,-183.2 78,-202.2 114,-202.2 114,-183.2 78,-183.2"/>
<text text-anchor="start" x="104.8862" y="-189.3" font-family="Helvetica,sans-Serif" font-size="11.00" fill="#000000"> &#160;</text>
<polygon fill="#ffffff" stroke="transparent" points="114,-183.2 114,-202.2 160,-202.2 160,-183.2 114,-183.2"/>
<polygon fill="none" stroke="#000000" points="114,-183.2 114,-202.2 160,-202.2 160,-183.2 114,-183.2"/>
<text text-anchor="start" x="141.4053" y="-189.3" font-family="Helvetica,sans-Serif" font-size="11.00" fill="#000000">2 &gt;</text>
</a>
</g>
</g>
<!-- stop_times&#45;&gt;trips -->
<g id="edge2" class="edge">
<title>stop_times:w&#45;&gt;trips:e</title>
<path fill="none" stroke="#000000" d="M197.7488,-272.6074C178.4187,-288.5383 194.1218,-342.2 160,-342.2"/>
<polygon fill="#000000" stroke="#000000" points="203.8817,-270.6418 212.5988,-271.6282 207.6909,-269.4209 211.5,-268.2 211.5,-268.2 211.5,-268.2 207.6909,-269.4209 210.4012,-264.7718 203.8817,-270.6418 203.8817,-270.6418"/>
<ellipse fill="none" stroke="#000000" cx="200.8344" cy="-271.6185" rx="3.2" ry="3.2"/>
</g>
</g>
</svg>
