<?xml version="1.0" encoding="UTF-8" standalone="no"?>
<!DOCTYPE svg PUBLIC "-//W3C//DTD SVG 1.1//EN"
 "http://www.w3.org/Graphics/SVG/1.1/DTD/svg11.dtd">
<!-- Generated by graphviz version 2.40.1 (20161225.0304)
 -->
<!-- Title: oneDegreeRelationshipsDiagram Pages: 1 -->
<svg width="451pt" height="595pt"
 viewBox="0.00 0.00 451.00 594.70" xmlns="http://www.w3.org/2000/svg" xmlns:xlink="http://www.w3.org/1999/xlink">
<g id="graph0" class="graph" transform="scale(1 1) rotate(0) translate(4 590.7)">
<title>oneDegreeRelationshipsDiagram</title>
<polygon fill="#ffffff" stroke="transparent" points="-4,4 -4,-590.7 447,-590.7 447,4 -4,4"/>
<text text-anchor="middle" x="72.4936" y="-7.3" font-family="Helvetica,sans-Serif" font-size="11.00" fill="#000000">Generated by SchemaSpy</text>
<!-- fare_rules -->
<g id="node1" class="node">
<title>fare_rules</title>
<g id="a_node1"><a xlink:href="../../tables/fare_rules.html" xlink:title="fare_rules" target="_top">
<polygon fill="#ffffff" stroke="transparent" points="312.5,-433.7 312.5,-582.7 418.5,-582.7 418.5,-433.7 312.5,-433.7"/>
<polygon fill="#f5f5f5" stroke="transparent" points="312.5,-559.2 312.5,-582.2 418.5,-582.2 418.5,-559.2 312.5,-559.2"/>
<polygon fill="none" stroke="#000000" points="312.5,-559.2 312.5,-582.2 418.5,-582.2 418.5,-559.2 312.5,-559.2"/>
<text text-anchor="start" x="317.5" y="-567.8" font-family="Helvetica,sans-Serif" font-weight="bold" font-size="11.00" fill="#000000">fare_rules</text>
<text text-anchor="start" x="383.5437" y="-567.3" font-family="Helvetica,sans-Serif" font-size="11.00" fill="#000000">[table]</text>
<polygon fill="none" stroke="#000000" points="312.5,-537.2 312.5,-559.2 418.5,-559.2 418.5,-537.2 312.5,-537.2"/>
<image xlink:href="../../images/foreignKeys.png" width="11px" height="12px" preserveAspectRatio="xMinYMin meet" x="317.5" y="-554.2"/>
<text text-anchor="start" x="332.5" y="-544.3" font-family="Helvetica,sans-Serif" font-size="11.00" fill="#000000">fare_id</text>
<polygon fill="none" stroke="#000000" points="312.5,-515.2 312.5,-537.2 418.5,-537.2 418.5,-515.2 312.5,-515.2"/>
<image xlink:href="../../images/foreignKeys.png" width="11px" height="12px" preserveAspectRatio="xMinYMin meet" x="317.5" y="-532.2"/>
<text text-anchor="start" x="332.5" y="-522.3" font-family="Helvetica,sans-Serif" font-size="11.00" fill="#000000">route_id</text>
<polygon fill="none" stroke="#000000" points="312.5,-493.2 312.5,-515.2 418.5,-515.2 418.5,-493.2 312.5,-493.2"/>
<image xlink:href="../../images/foreignKeys.png" width="11px" height="12px" preserveAspectRatio="xMinYMin meet" x="317.5" y="-510.2"/>
<text text-anchor="start" x="332.5" y="-500.3" font-family="Helvetica,sans-Serif" font-size="11.00" fill="#000000">origin_id</text>
<polygon fill="none" stroke="#000000" points="312.5,-471.2 312.5,-493.2 418.5,-493.2 418.5,-471.2 312.5,-471.2"/>
<image xlink:href="../../images/foreignKeys.png" width="11px" height="12px" preserveAspectRatio="xMinYMin meet" x="317.5" y="-488.2"/>
<text text-anchor="start" x="332.5" y="-478.3" font-family="Helvetica,sans-Serif" font-size="11.00" fill="#000000">destination_id</text>
<polygon fill="none" stroke="#000000" points="312.5,-452.2 312.5,-471.2 418.5,-471.2 418.5,-452.2 312.5,-452.2"/>
<text text-anchor="start" x="315.5" y="-458.3" font-family="Helvetica,sans-Serif" font-size="11.00" fill="#000000">...</text>
<polygon fill="#ffffff" stroke="transparent" points="312.5,-433.2 312.5,-452.2 363.5,-452.2 363.5,-433.2 312.5,-433.2"/>
<polygon fill="none" stroke="#000000" points="312.5,-433.2 312.5,-452.2 363.5,-452.2 363.5,-433.2 312.5,-433.2"/>
<text text-anchor="start" x="315.5" y="-439.3" font-family="Helvetica,sans-Serif" font-size="11.00" fill="#000000">&lt; 4</text>
<polygon fill="#ffffff" stroke="transparent" points="363.5,-433.2 363.5,-452.2 390.5,-452.2 390.5,-433.2 363.5,-433.2"/>
<polygon fill="none" stroke="#000000" points="363.5,-433.2 363.5,-452.2 390.5,-452.2 390.5,-433.2 363.5,-433.2"/>
<text text-anchor="start" x="381.3862" y="-439.3" font-family="Helvetica,sans-Serif" font-size="11.00" fill="#000000"> &#160;</text>
<polygon fill="#ffffff" stroke="transparent" points="390.5,-433.2 390.5,-452.2 418.5,-452.2 418.5,-433.2 390.5,-433.2"/>
<polygon fill="none" stroke="#000000" points="390.5,-433.2 390.5,-452.2 418.5,-452.2 418.5,-433.2 390.5,-433.2"/>
<text text-anchor="start" x="409.3862" y="-439.3" font-family="Helvetica,sans-Serif" font-size="11.00" fill="#000000"> &#160;</text>
</a>
</g>
</g>
<!-- stops -->
<g id="node2" class="node">
<title>stops</title>
<g id="a_node2"><a xlink:href="../../tables/stops.html" xlink:title="stops" target="_top">
<polygon fill="#ffffff" stroke="transparent" points="8,-38.2 8,-392.2 247,-392.2 247,-38.2 8,-38.2"/>
<polygon fill="#f5f5f5" stroke="transparent" points="10.5,-367.2 10.5,-390.2 245.5,-390.2 245.5,-367.2 10.5,-367.2"/>
<polygon fill="none" stroke="#000000" points="10.5,-367.2 10.5,-390.2 245.5,-390.2 245.5,-367.2 10.5,-367.2"/>
<text text-anchor="start" x="15.5" y="-375.8" font-family="Helvetica,sans-Serif" font-weight="bold" font-size="11.00" fill="#000000">stops</text>
<text text-anchor="start" x="210.5437" y="-375.3" font-family="Helvetica,sans-Serif" font-size="11.00" fill="#000000">[table]</text>
<polygon fill="none" stroke="#000000" points="10.5,-345.2 10.5,-367.2 155.5,-367.2 155.5,-345.2 10.5,-345.2"/>
<image xlink:href="../../images/primaryKeys.png" width="11px" height="12px" preserveAspectRatio="xMinYMin meet" x="15.5" y="-362.2"/>
<text text-anchor="start" x="30.5" y="-352.3" font-family="Helvetica,sans-Serif" font-size="11.00" fill="#000000">stop_id</text>
<polygon fill="none" stroke="#000000" points="155.5,-345.2 155.5,-367.2 245.5,-367.2 245.5,-345.2 155.5,-345.2"/>
<text text-anchor="start" x="158.5" y="-352.9" font-family="Helvetica,sans-Serif" font-size="11.00" fill="#000000">varchar[64]</text>
<polygon fill="none" stroke="#000000" points="10.5,-323.2 10.5,-345.2 155.5,-345.2 155.5,-323.2 10.5,-323.2"/>
<text text-anchor="start" x="30.5" y="-330.3" font-family="Helvetica,sans-Serif" font-size="11.00" fill="#000000">stop_code</text>
<polygon fill="none" stroke="#000000" points="155.5,-323.2 155.5,-345.2 245.5,-345.2 245.5,-323.2 155.5,-323.2"/>
<text text-anchor="start" x="158.5" y="-330.9" font-family="Helvetica,sans-Serif" font-size="11.00" fill="#000000">varchar[64]</text>
<polygon fill="none" stroke="#000000" points="10.5,-301.2 10.5,-323.2 155.5,-323.2 155.5,-301.2 10.5,-301.2"/>
<text text-anchor="start" x="30.5" y="-308.3" font-family="Helvetica,sans-Serif" font-size="11.00" fill="#000000">stop_name</text>
<polygon fill="none" stroke="#000000" points="155.5,-301.2 155.5,-323.2 245.5,-323.2 245.5,-301.2 155.5,-301.2"/>
<text text-anchor="start" x="158.0042" y="-308.9" font-family="Helvetica,sans-Serif" font-size="11.00" fill="#000000">text[2147483647]</text>
<polygon fill="none" stroke="#000000" points="10.5,-279.2 10.5,-301.2 155.5,-301.2 155.5,-279.2 10.5,-279.2"/>
<text text-anchor="start" x="30.5" y="-286.3" font-family="Helvetica,sans-Serif" font-size="11.00" fill="#000000">stop_desc</text>
<polygon fill="none" stroke="#000000" points="155.5,-279.2 155.5,-301.2 245.5,-301.2 245.5,-279.2 155.5,-279.2"/>
<text text-anchor="start" x="158.0042" y="-286.9" font-family="Helvetica,sans-Serif" font-size="11.00" fill="#000000">text[2147483647]</text>
<polygon fill="none" stroke="#000000" points="10.5,-257.2 10.5,-279.2 155.5,-279.2 155.5,-257.2 10.5,-257.2"/>
<text text-anchor="start" x="30.5" y="-264.3" font-family="Helvetica,sans-Serif" font-size="11.00" fill="#000000">agency_address</text>
<polygon fill="none" stroke="#000000" points="155.5,-257.2 155.5,-279.2 245.5,-279.2 245.5,-257.2 155.5,-257.2"/>
<text text-anchor="start" x="158.0042" y="-264.9" font-family="Helvetica,sans-Serif" font-size="11.00" fill="#000000">text[2147483647]</text>
<polygon fill="none" stroke="#000000" points="10.5,-235.2 10.5,-257.2 155.5,-257.2 155.5,-235.2 10.5,-235.2"/>
<text text-anchor="start" x="30.5" y="-242.3" font-family="Helvetica,sans-Serif" font-size="11.00" fill="#000000">stop_lat</text>
<polygon fill="none" stroke="#000000" points="155.5,-235.2 155.5,-257.2 245.5,-257.2 245.5,-235.2 155.5,-235.2"/>
<text text-anchor="start" x="158.5" y="-242.9" font-family="Helvetica,sans-Serif" font-size="11.00" fill="#000000">float8[17,17]</text>
<polygon fill="none" stroke="#000000" points="10.5,-213.2 10.5,-235.2 155.5,-235.2 155.5,-213.2 10.5,-213.2"/>
<text text-anchor="start" x="30.5" y="-220.3" font-family="Helvetica,sans-Serif" font-size="11.00" fill="#000000">stop_lon</text>
<polygon fill="none" stroke="#000000" points="155.5,-213.2 155.5,-235.2 245.5,-235.2 245.5,-213.2 155.5,-213.2"/>
<text text-anchor="start" x="158.5" y="-220.9" font-family="Helvetica,sans-Serif" font-size="11.00" fill="#000000">float8[17,17]</text>
<polygon fill="none" stroke="#000000" points="10.5,-191.2 10.5,-213.2 155.5,-213.2 155.5,-191.2 10.5,-191.2"/>
<text text-anchor="start" x="30.5" y="-198.3" font-family="Helvetica,sans-Serif" font-size="11.00" fill="#000000">zone_id</text>
<polygon fill="none" stroke="#000000" points="155.5,-191.2 155.5,-213.2 245.5,-213.2 245.5,-191.2 155.5,-191.2"/>
<text text-anchor="start" x="158.5" y="-198.9" font-family="Helvetica,sans-Serif" font-size="11.00" fill="#000000">varchar[64]</text>
<polygon fill="none" stroke="#000000" points="10.5,-169.2 10.5,-191.2 155.5,-191.2 155.5,-169.2 10.5,-169.2"/>
<text text-anchor="start" x="30.5" y="-176.3" font-family="Helvetica,sans-Serif" font-size="11.00" fill="#000000">stop_url</text>
<polygon fill="none" stroke="#000000" points="155.5,-169.2 155.5,-191.2 245.5,-191.2 245.5,-169.2 155.5,-169.2"/>
<text text-anchor="start" x="158.0042" y="-176.9" font-family="Helvetica,sans-Serif" font-size="11.00" fill="#000000">text[2147483647]</text>
<polygon fill="none" stroke="#000000" points="10.5,-147.2 10.5,-169.2 155.5,-169.2 155.5,-147.2 10.5,-147.2"/>
<text text-anchor="start" x="30.5" y="-154.3" font-family="Helvetica,sans-Serif" font-size="11.00" fill="#000000">location_type</text>
<polygon fill="none" stroke="#000000" points="155.5,-147.2 155.5,-169.2 245.5,-169.2 245.5,-147.2 155.5,-147.2"/>
<text text-anchor="start" x="158.5" y="-154.9" font-family="Helvetica,sans-Serif" font-size="11.00" fill="#000000">int2[5]</text>
<polygon fill="none" stroke="#000000" points="10.5,-125.2 10.5,-147.2 155.5,-147.2 155.5,-125.2 10.5,-125.2"/>
<text text-anchor="start" x="30.5" y="-132.3" font-family="Helvetica,sans-Serif" font-size="11.00" fill="#000000">parent_station</text>
<polygon fill="none" stroke="#000000" points="155.5,-125.2 155.5,-147.2 245.5,-147.2 245.5,-125.2 155.5,-125.2"/>
<text text-anchor="start" x="158.5" y="-132.9" font-family="Helvetica,sans-Serif" font-size="11.00" fill="#000000">varchar[64]</text>
<polygon fill="none" stroke="#000000" points="10.5,-103.2 10.5,-125.2 155.5,-125.2 155.5,-103.2 10.5,-103.2"/>
<text text-anchor="start" x="30.5" y="-110.3" font-family="Helvetica,sans-Serif" font-size="11.00" fill="#000000">stop_timezone</text>
<polygon fill="none" stroke="#000000" points="155.5,-103.2 155.5,-125.2 245.5,-125.2 245.5,-103.2 155.5,-103.2"/>
<text text-anchor="start" x="158.5" y="-110.9" font-family="Helvetica,sans-Serif" font-size="11.00" fill="#000000">varchar[32]</text>
<polygon fill="none" stroke="#000000" points="10.5,-81.2 10.5,-103.2 155.5,-103.2 155.5,-81.2 10.5,-81.2"/>
<text text-anchor="start" x="30.5" y="-88.3" font-family="Helvetica,sans-Serif" font-size="11.00" fill="#000000">wheelchair_boarding</text>
<polygon fill="none" stroke="#000000" points="155.5,-81.2 155.5,-103.2 245.5,-103.2 245.5,-81.2 155.5,-81.2"/>
<text text-anchor="start" x="158.0042" y="-88.9" font-family="Helvetica,sans-Serif" font-size="11.00" fill="#000000">text[2147483647]</text>
<polygon fill="none" stroke="#000000" points="10.5,-59.2 10.5,-81.2 155.5,-81.2 155.5,-59.2 10.5,-59.2"/>
<text text-anchor="start" x="30.5" y="-66.3" font-family="Helvetica,sans-Serif" font-size="11.00" fill="#000000">platform_code</text>
<polygon fill="none" stroke="#000000" points="155.5,-59.2 155.5,-81.2 245.5,-81.2 245.5,-59.2 155.5,-59.2"/>
<text text-anchor="start" x="158.5" y="-66.9" font-family="Helvetica,sans-Serif" font-size="11.00" fill="#000000">varchar[64]</text>
<polygon fill="#ffffff" stroke="transparent" points="10.5,-40.2 10.5,-59.2 87.5,-59.2 87.5,-40.2 10.5,-40.2"/>
<polygon fill="none" stroke="#000000" points="10.5,-40.2 10.5,-59.2 87.5,-59.2 87.5,-40.2 10.5,-40.2"/>
<text text-anchor="start" x="13.5" y="-46.3" font-family="Helvetica,sans-Serif" font-size="11.00" fill="#000000">&lt; 0</text>
<polygon fill="#ffffff" stroke="transparent" points="87.5,-40.2 87.5,-59.2 155.5,-59.2 155.5,-40.2 87.5,-40.2"/>
<polygon fill="none" stroke="#000000" points="87.5,-40.2 87.5,-59.2 155.5,-59.2 155.5,-40.2 87.5,-40.2"/>
<text text-anchor="start" x="146.3862" y="-46.3" font-family="Helvetica,sans-Serif" font-size="11.00" fill="#000000"> &#160;</text>
<polygon fill="#ffffff" stroke="transparent" points="155.5,-40.2 155.5,-59.2 245.5,-59.2 245.5,-40.2 155.5,-40.2"/>
<polygon fill="none" stroke="#000000" points="155.5,-40.2 155.5,-59.2 245.5,-59.2 245.5,-40.2 155.5,-40.2"/>
<text text-anchor="start" x="226.9053" y="-46.3" font-family="Helvetica,sans-Serif" font-size="11.00" fill="#000000">5 &gt;</text>
<polygon fill="none" stroke="#000000" stroke-width="2" points="9,-39.2 9,-391.2 246,-391.2 246,-39.2 9,-39.2"/>
</a>
</g>
</g>
<!-- fare_rules&#45;&gt;stops -->
<g id="edge1" class="edge">
<title>fare_rules:w&#45;&gt;stops:e</title>
<path fill="none" stroke="#000000" d="M298.2114,-479.3316C258.8343,-460.5764 303.2266,-356.2 245.5,-356.2"/>
<polygon fill="#000000" stroke="#000000" points="304.6565,-480.6254 311.7914,-485.7296 308.5782,-481.4127 312.5,-482.2 312.5,-482.2 312.5,-482.2 308.5782,-481.4127 313.2086,-478.6704 304.6565,-480.6254 304.6565,-480.6254"/>
<ellipse fill="none" stroke="#000000" cx="301.5191" cy="-479.9955" rx="3.2" ry="3.2"/>
</g>
<!-- fare_rules&#45;&gt;stops -->
<g id="edge2" class="edge">
<title>fare_rules:w&#45;&gt;stops:e</title>
<path fill="none" stroke="#000000" d="M298.174,-501.6312C251.4778,-481.9783 312.0632,-356.2 245.5,-356.2"/>
<polygon fill="#000000" stroke="#000000" points="304.6256,-502.788 311.8646,-507.7435 308.5628,-503.494 312.5,-504.2 312.5,-504.2 312.5,-504.2 308.5628,-503.494 313.1354,-500.6565 304.6256,-502.788 304.6256,-502.788"/>
<ellipse fill="none" stroke="#000000" cx="301.4758" cy="-502.2232" rx="3.2" ry="3.2"/>
</g>
<!-- stop_times -->
<g id="node3" class="node">
<title>stop_times</title>
<g id="a_node3"><a xlink:href="../../tables/stop_times.html" xlink:title="stop_times" target="_top">
<polygon fill="#ffffff" stroke="transparent" points="296,-307.7 296,-412.7 435,-412.7 435,-307.7 296,-307.7"/>
<polygon fill="#f5f5f5" stroke="transparent" points="296.5,-389.2 296.5,-412.2 435.5,-412.2 435.5,-389.2 296.5,-389.2"/>
<polygon fill="none" stroke="#000000" points="296.5,-389.2 296.5,-412.2 435.5,-412.2 435.5,-389.2 296.5,-389.2"/>
<text text-anchor="start" x="301.5" y="-397.8" font-family="Helvetica,sans-Serif" font-weight="bold" font-size="11.00" fill="#000000">stop_times</text>
<text text-anchor="start" x="400.5437" y="-397.3" font-family="Helvetica,sans-Serif" font-size="11.00" fill="#000000">[table]</text>
<polygon fill="none" stroke="#000000" points="296.5,-367.2 296.5,-389.2 435.5,-389.2 435.5,-367.2 296.5,-367.2"/>
<image xlink:href="../../images/foreignKeys.png" width="11px" height="12px" preserveAspectRatio="xMinYMin meet" x="301.5" y="-384.2"/>
<text text-anchor="start" x="316.5" y="-374.3" font-family="Helvetica,sans-Serif" font-size="11.00" fill="#000000">trip_id</text>
<polygon fill="none" stroke="#000000" points="296.5,-345.2 296.5,-367.2 435.5,-367.2 435.5,-345.2 296.5,-345.2"/>
<image xlink:href="../../images/foreignKeys.png" width="11px" height="12px" preserveAspectRatio="xMinYMin meet" x="301.5" y="-362.2"/>
<text text-anchor="start" x="316.5" y="-352.3" font-family="Helvetica,sans-Serif" font-size="11.00" fill="#000000">stop_id</text>
<polygon fill="none" stroke="#000000" points="296.5,-326.2 296.5,-345.2 435.5,-345.2 435.5,-326.2 296.5,-326.2"/>
<text text-anchor="start" x="299.5" y="-332.3" font-family="Helvetica,sans-Serif" font-size="11.00" fill="#000000">...</text>
<polygon fill="#ffffff" stroke="transparent" points="296.5,-307.2 296.5,-326.2 364.5,-326.2 364.5,-307.2 296.5,-307.2"/>
<polygon fill="none" stroke="#000000" points="296.5,-307.2 296.5,-326.2 364.5,-326.2 364.5,-307.2 296.5,-307.2"/>
<text text-anchor="start" x="299.5" y="-313.3" font-family="Helvetica,sans-Serif" font-size="11.00" fill="#000000">&lt; 2</text>
<polygon fill="#ffffff" stroke="transparent" points="364.5,-307.2 364.5,-326.2 399.5,-326.2 399.5,-307.2 364.5,-307.2"/>
<polygon fill="none" stroke="#000000" points="364.5,-307.2 364.5,-326.2 399.5,-326.2 399.5,-307.2 364.5,-307.2"/>
<text text-anchor="start" x="390.3862" y="-313.3" font-family="Helvetica,sans-Serif" font-size="11.00" fill="#000000"> &#160;</text>
<polygon fill="#ffffff" stroke="transparent" points="399.5,-307.2 399.5,-326.2 435.5,-326.2 435.5,-307.2 399.5,-307.2"/>
<polygon fill="none" stroke="#000000" points="399.5,-307.2 399.5,-326.2 435.5,-326.2 435.5,-307.2 399.5,-307.2"/>
<text text-anchor="start" x="426.3862" y="-313.3" font-family="Helvetica,sans-Serif" font-size="11.00" fill="#000000"> &#160;</text>
</a>
</g>
</g>
<!-- stop_times&#45;&gt;stops -->
<g id="edge3" class="edge">
<title>stop_times:w&#45;&gt;stops:e</title>
<path fill="none" stroke="#000000" d="M281.776,-356.2C269.7815,-356.2 262.3229,-356.2 245.5,-356.2"/>
<polygon fill="#000000" stroke="#000000" points="288.5,-356.2001 296.5,-359.8 292.5,-356.2 296.5,-356.2 296.5,-356.2 296.5,-356.2 292.5,-356.2 296.5,-352.6 288.5,-356.2001 288.5,-356.2001"/>
<ellipse fill="none" stroke="#000000" cx="285.3" cy="-356.2001" rx="3.2" ry="3.2"/>
</g>
<!-- transfers -->
<g id="node4" class="node">
<title>transfers</title>
<g id="a_node4"><a xlink:href="../../tables/transfers.html" xlink:title="transfers" target="_top">
<polygon fill="#ffffff" stroke="transparent" points="300.5,-181.7 300.5,-286.7 430.5,-286.7 430.5,-181.7 300.5,-181.7"/>
<polygon fill="#f5f5f5" stroke="transparent" points="300.5,-263.2 300.5,-286.2 430.5,-286.2 430.5,-263.2 300.5,-263.2"/>
<polygon fill="none" stroke="#000000" points="300.5,-263.2 300.5,-286.2 430.5,-286.2 430.5,-263.2 300.5,-263.2"/>
<text text-anchor="start" x="305.5" y="-271.8" font-family="Helvetica,sans-Serif" font-weight="bold" font-size="11.00" fill="#000000">transfers</text>
<text text-anchor="start" x="395.5437" y="-271.3" font-family="Helvetica,sans-Serif" font-size="11.00" fill="#000000">[table]</text>
<polygon fill="none" stroke="#000000" points="300.5,-241.2 300.5,-263.2 430.5,-263.2 430.5,-241.2 300.5,-241.2"/>
<image xlink:href="../../images/foreignKeys.png" width="11px" height="12px" preserveAspectRatio="xMinYMin meet" x="305.5" y="-258.2"/>
<text text-anchor="start" x="320.5" y="-248.3" font-family="Helvetica,sans-Serif" font-size="11.00" fill="#000000">from_stop_id</text>
<polygon fill="none" stroke="#000000" points="300.5,-219.2 300.5,-241.2 430.5,-241.2 430.5,-219.2 300.5,-219.2"/>
<image xlink:href="../../images/foreignKeys.png" width="11px" height="12px" preserveAspectRatio="xMinYMin meet" x="305.5" y="-236.2"/>
<text text-anchor="start" x="320.5" y="-226.3" font-family="Helvetica,sans-Serif" font-size="11.00" fill="#000000">to_stop_id</text>
<polygon fill="none" stroke="#000000" points="300.5,-200.2 300.5,-219.2 430.5,-219.2 430.5,-200.2 300.5,-200.2"/>
<text text-anchor="start" x="303.5" y="-206.3" font-family="Helvetica,sans-Serif" font-size="11.00" fill="#000000">...</text>
<polygon fill="#ffffff" stroke="transparent" points="300.5,-181.2 300.5,-200.2 363.5,-200.2 363.5,-181.2 300.5,-181.2"/>
<polygon fill="none" stroke="#000000" points="300.5,-181.2 300.5,-200.2 363.5,-200.2 363.5,-181.2 300.5,-181.2"/>
<text text-anchor="start" x="303.5" y="-187.3" font-family="Helvetica,sans-Serif" font-size="11.00" fill="#000000">&lt; 2</text>
<polygon fill="#ffffff" stroke="transparent" points="363.5,-181.2 363.5,-200.2 396.5,-200.2 396.5,-181.2 363.5,-181.2"/>
<polygon fill="none" stroke="#000000" points="363.5,-181.2 363.5,-200.2 396.5,-200.2 396.5,-181.2 363.5,-181.2"/>
<text text-anchor="start" x="387.3862" y="-187.3" font-family="Helvetica,sans-Serif" font-size="11.00" fill="#000000"> &#160;</text>
<polygon fill="#ffffff" stroke="transparent" points="396.5,-181.2 396.5,-200.2 430.5,-200.2 430.5,-181.2 396.5,-181.2"/>
<polygon fill="none" stroke="#000000" points="396.5,-181.2 396.5,-200.2 430.5,-200.2 430.5,-181.2 396.5,-181.2"/>
<text text-anchor="start" x="421.3862" y="-187.3" font-family="Helvetica,sans-Serif" font-size="11.00" fill="#000000"> &#160;</text>
</a>
</g>
</g>
<!-- transfers&#45;&gt;stops -->
<g id="edge4" class="edge">
<title>transfers:w&#45;&gt;stops:e</title>
<path fill="none" stroke="#000000" d="M286.3557,-255.9014C258.1369,-274.4279 291.8647,-356.2 245.5,-356.2"/>
<polygon fill="#000000" stroke="#000000" points="292.7606,-254.2254 301.4114,-255.6827 296.6303,-253.2127 300.5,-252.2 300.5,-252.2 300.5,-252.2 296.6303,-253.2127 299.5886,-248.7173 292.7606,-254.2254 292.7606,-254.2254"/>
<ellipse fill="none" stroke="#000000" cx="289.6649" cy="-255.0355" rx="3.2" ry="3.2"/>
</g>
<!-- transfers&#45;&gt;stops -->
<g id="edge5" class="edge">
<title>transfers:w&#45;&gt;stops:e</title>
<path fill="none" stroke="#000000" d="M286.0308,-233.5702C251.2998,-253.6077 300.6356,-356.2 245.5,-356.2"/>
<polygon fill="#000000" stroke="#000000" points="292.7086,-232.0148 301.3167,-233.7061 296.6043,-231.1074 300.5,-230.2 300.5,-230.2 300.5,-230.2 296.6043,-231.1074 299.6833,-226.6939 292.7086,-232.0148 292.7086,-232.0148"/>
<ellipse fill="none" stroke="#000000" cx="289.592" cy="-232.7408" rx="3.2" ry="3.2"/>
</g>
</g>
</svg>
