<?xml version="1.0" encoding="UTF-8" standalone="no"?>
<!DOCTYPE svg PUBLIC "-//W3C//DTD SVG 1.1//EN"
 "http://www.w3.org/Graphics/SVG/1.1/DTD/svg11.dtd">
<!-- Generated by graphviz version 2.40.1 (20161225.0304)
 -->
<!-- Title: twoDegreesRelationshipsDiagram Pages: 1 -->
<svg width="578pt" height="596pt"
 viewBox="0.00 0.00 578.00 596.20" xmlns="http://www.w3.org/2000/svg" xmlns:xlink="http://www.w3.org/1999/xlink">
<g id="graph0" class="graph" transform="scale(1 1) rotate(0) translate(4 592.2)">
<title>twoDegreesRelationshipsDiagram</title>
<polygon fill="#ffffff" stroke="transparent" points="-4,4 -4,-592.2 574,-592.2 574,4 -4,4"/>
<text text-anchor="middle" x="72.4936" y="-7.3" font-family="Helvetica,sans-Serif" font-size="11.00" fill="#000000">Generated by SchemaSpy</text>
<!-- fare_rules -->
<g id="node1" class="node">
<title>fare_rules</title>
<g id="a_node1"><a xlink:href="../../tables/fare_rules.html" xlink:title="fare_rules" target="_top">
<polygon fill="#ffffff" stroke="transparent" points="439.5,-421.2 439.5,-570.2 545.5,-570.2 545.5,-421.2 439.5,-421.2"/>
<polygon fill="#f5f5f5" stroke="transparent" points="439.5,-546.7 439.5,-569.7 545.5,-569.7 545.5,-546.7 439.5,-546.7"/>
<polygon fill="none" stroke="#000000" points="439.5,-546.7 439.5,-569.7 545.5,-569.7 545.5,-546.7 439.5,-546.7"/>
<text text-anchor="start" x="444.5" y="-555.3" font-family="Helvetica,sans-Serif" font-weight="bold" font-size="11.00" fill="#000000">fare_rules</text>
<text text-anchor="start" x="510.5437" y="-554.8" font-family="Helvetica,sans-Serif" font-size="11.00" fill="#000000">[table]</text>
<polygon fill="none" stroke="#000000" points="439.5,-524.7 439.5,-546.7 545.5,-546.7 545.5,-524.7 439.5,-524.7"/>
<image xlink:href="../../images/foreignKeys.png" width="11px" height="12px" preserveAspectRatio="xMinYMin meet" x="444.5" y="-541.7"/>
<text text-anchor="start" x="459.5" y="-531.8" font-family="Helvetica,sans-Serif" font-size="11.00" fill="#000000">fare_id</text>
<polygon fill="none" stroke="#000000" points="439.5,-502.7 439.5,-524.7 545.5,-524.7 545.5,-502.7 439.5,-502.7"/>
<image xlink:href="../../images/foreignKeys.png" width="11px" height="12px" preserveAspectRatio="xMinYMin meet" x="444.5" y="-519.7"/>
<text text-anchor="start" x="459.5" y="-509.8" font-family="Helvetica,sans-Serif" font-size="11.00" fill="#000000">route_id</text>
<polygon fill="none" stroke="#000000" points="439.5,-480.7 439.5,-502.7 545.5,-502.7 545.5,-480.7 439.5,-480.7"/>
<image xlink:href="../../images/foreignKeys.png" width="11px" height="12px" preserveAspectRatio="xMinYMin meet" x="444.5" y="-497.7"/>
<text text-anchor="start" x="459.5" y="-487.8" font-family="Helvetica,sans-Serif" font-size="11.00" fill="#000000">origin_id</text>
<polygon fill="none" stroke="#000000" points="439.5,-458.7 439.5,-480.7 545.5,-480.7 545.5,-458.7 439.5,-458.7"/>
<image xlink:href="../../images/foreignKeys.png" width="11px" height="12px" preserveAspectRatio="xMinYMin meet" x="444.5" y="-475.7"/>
<text text-anchor="start" x="459.5" y="-465.8" font-family="Helvetica,sans-Serif" font-size="11.00" fill="#000000">destination_id</text>
<polygon fill="none" stroke="#000000" points="439.5,-439.7 439.5,-458.7 545.5,-458.7 545.5,-439.7 439.5,-439.7"/>
<text text-anchor="start" x="442.5" y="-445.8" font-family="Helvetica,sans-Serif" font-size="11.00" fill="#000000">...</text>
<polygon fill="#ffffff" stroke="transparent" points="439.5,-420.7 439.5,-439.7 490.5,-439.7 490.5,-420.7 439.5,-420.7"/>
<polygon fill="none" stroke="#000000" points="439.5,-420.7 439.5,-439.7 490.5,-439.7 490.5,-420.7 439.5,-420.7"/>
<text text-anchor="start" x="442.5" y="-426.8" font-family="Helvetica,sans-Serif" font-size="11.00" fill="#000000">&lt; 4</text>
<polygon fill="#ffffff" stroke="transparent" points="490.5,-420.7 490.5,-439.7 517.5,-439.7 517.5,-420.7 490.5,-420.7"/>
<polygon fill="none" stroke="#000000" points="490.5,-420.7 490.5,-439.7 517.5,-439.7 517.5,-420.7 490.5,-420.7"/>
<text text-anchor="start" x="508.3862" y="-426.8" font-family="Helvetica,sans-Serif" font-size="11.00" fill="#000000"> &#160;</text>
<polygon fill="#ffffff" stroke="transparent" points="517.5,-420.7 517.5,-439.7 545.5,-439.7 545.5,-420.7 517.5,-420.7"/>
<polygon fill="none" stroke="#000000" points="517.5,-420.7 517.5,-439.7 545.5,-439.7 545.5,-420.7 517.5,-420.7"/>
<text text-anchor="start" x="536.3862" y="-426.8" font-family="Helvetica,sans-Serif" font-size="11.00" fill="#000000"> &#160;</text>
</a>
</g>
</g>
<!-- stops -->
<g id="node2" class="node">
<title>stops</title>
<g id="a_node2"><a xlink:href="../../tables/stops.html" xlink:title="stops" target="_top">
<polygon fill="#ffffff" stroke="transparent" points="135,-120.7 135,-474.7 374,-474.7 374,-120.7 135,-120.7"/>
<polygon fill="#f5f5f5" stroke="transparent" points="137.5,-449.7 137.5,-472.7 372.5,-472.7 372.5,-449.7 137.5,-449.7"/>
<polygon fill="none" stroke="#000000" points="137.5,-449.7 137.5,-472.7 372.5,-472.7 372.5,-449.7 137.5,-449.7"/>
<text text-anchor="start" x="142.5" y="-458.3" font-family="Helvetica,sans-Serif" font-weight="bold" font-size="11.00" fill="#000000">stops</text>
<text text-anchor="start" x="337.5437" y="-457.8" font-family="Helvetica,sans-Serif" font-size="11.00" fill="#000000">[table]</text>
<polygon fill="none" stroke="#000000" points="137.5,-427.7 137.5,-449.7 282.5,-449.7 282.5,-427.7 137.5,-427.7"/>
<image xlink:href="../../images/primaryKeys.png" width="11px" height="12px" preserveAspectRatio="xMinYMin meet" x="142.5" y="-444.7"/>
<text text-anchor="start" x="157.5" y="-434.8" font-family="Helvetica,sans-Serif" font-size="11.00" fill="#000000">stop_id</text>
<polygon fill="none" stroke="#000000" points="282.5,-427.7 282.5,-449.7 372.5,-449.7 372.5,-427.7 282.5,-427.7"/>
<text text-anchor="start" x="285.5" y="-435.4" font-family="Helvetica,sans-Serif" font-size="11.00" fill="#000000">varchar[64]</text>
<polygon fill="none" stroke="#000000" points="137.5,-405.7 137.5,-427.7 282.5,-427.7 282.5,-405.7 137.5,-405.7"/>
<text text-anchor="start" x="157.5" y="-412.8" font-family="Helvetica,sans-Serif" font-size="11.00" fill="#000000">stop_code</text>
<polygon fill="none" stroke="#000000" points="282.5,-405.7 282.5,-427.7 372.5,-427.7 372.5,-405.7 282.5,-405.7"/>
<text text-anchor="start" x="285.5" y="-413.4" font-family="Helvetica,sans-Serif" font-size="11.00" fill="#000000">varchar[64]</text>
<polygon fill="none" stroke="#000000" points="137.5,-383.7 137.5,-405.7 282.5,-405.7 282.5,-383.7 137.5,-383.7"/>
<text text-anchor="start" x="157.5" y="-390.8" font-family="Helvetica,sans-Serif" font-size="11.00" fill="#000000">stop_name</text>
<polygon fill="none" stroke="#000000" points="282.5,-383.7 282.5,-405.7 372.5,-405.7 372.5,-383.7 282.5,-383.7"/>
<text text-anchor="start" x="285.0043" y="-391.4" font-family="Helvetica,sans-Serif" font-size="11.00" fill="#000000">text[2147483647]</text>
<polygon fill="none" stroke="#000000" points="137.5,-361.7 137.5,-383.7 282.5,-383.7 282.5,-361.7 137.5,-361.7"/>
<text text-anchor="start" x="157.5" y="-368.8" font-family="Helvetica,sans-Serif" font-size="11.00" fill="#000000">stop_desc</text>
<polygon fill="none" stroke="#000000" points="282.5,-361.7 282.5,-383.7 372.5,-383.7 372.5,-361.7 282.5,-361.7"/>
<text text-anchor="start" x="285.0043" y="-369.4" font-family="Helvetica,sans-Serif" font-size="11.00" fill="#000000">text[2147483647]</text>
<polygon fill="none" stroke="#000000" points="137.5,-339.7 137.5,-361.7 282.5,-361.7 282.5,-339.7 137.5,-339.7"/>
<text text-anchor="start" x="157.5" y="-346.8" font-family="Helvetica,sans-Serif" font-size="11.00" fill="#000000">agency_address</text>
<polygon fill="none" stroke="#000000" points="282.5,-339.7 282.5,-361.7 372.5,-361.7 372.5,-339.7 282.5,-339.7"/>
<text text-anchor="start" x="285.0043" y="-347.4" font-family="Helvetica,sans-Serif" font-size="11.00" fill="#000000">text[2147483647]</text>
<polygon fill="none" stroke="#000000" points="137.5,-317.7 137.5,-339.7 282.5,-339.7 282.5,-317.7 137.5,-317.7"/>
<text text-anchor="start" x="157.5" y="-324.8" font-family="Helvetica,sans-Serif" font-size="11.00" fill="#000000">stop_lat</text>
<polygon fill="none" stroke="#000000" points="282.5,-317.7 282.5,-339.7 372.5,-339.7 372.5,-317.7 282.5,-317.7"/>
<text text-anchor="start" x="285.5" y="-325.4" font-family="Helvetica,sans-Serif" font-size="11.00" fill="#000000">float8[17,17]</text>
<polygon fill="none" stroke="#000000" points="137.5,-295.7 137.5,-317.7 282.5,-317.7 282.5,-295.7 137.5,-295.7"/>
<text text-anchor="start" x="157.5" y="-302.8" font-family="Helvetica,sans-Serif" font-size="11.00" fill="#000000">stop_lon</text>
<polygon fill="none" stroke="#000000" points="282.5,-295.7 282.5,-317.7 372.5,-317.7 372.5,-295.7 282.5,-295.7"/>
<text text-anchor="start" x="285.5" y="-303.4" font-family="Helvetica,sans-Serif" font-size="11.00" fill="#000000">float8[17,17]</text>
<polygon fill="none" stroke="#000000" points="137.5,-273.7 137.5,-295.7 282.5,-295.7 282.5,-273.7 137.5,-273.7"/>
<text text-anchor="start" x="157.5" y="-280.8" font-family="Helvetica,sans-Serif" font-size="11.00" fill="#000000">zone_id</text>
<polygon fill="none" stroke="#000000" points="282.5,-273.7 282.5,-295.7 372.5,-295.7 372.5,-273.7 282.5,-273.7"/>
<text text-anchor="start" x="285.5" y="-281.4" font-family="Helvetica,sans-Serif" font-size="11.00" fill="#000000">varchar[64]</text>
<polygon fill="none" stroke="#000000" points="137.5,-251.7 137.5,-273.7 282.5,-273.7 282.5,-251.7 137.5,-251.7"/>
<text text-anchor="start" x="157.5" y="-258.8" font-family="Helvetica,sans-Serif" font-size="11.00" fill="#000000">stop_url</text>
<polygon fill="none" stroke="#000000" points="282.5,-251.7 282.5,-273.7 372.5,-273.7 372.5,-251.7 282.5,-251.7"/>
<text text-anchor="start" x="285.0043" y="-259.4" font-family="Helvetica,sans-Serif" font-size="11.00" fill="#000000">text[2147483647]</text>
<polygon fill="none" stroke="#000000" points="137.5,-229.7 137.5,-251.7 282.5,-251.7 282.5,-229.7 137.5,-229.7"/>
<text text-anchor="start" x="157.5" y="-236.8" font-family="Helvetica,sans-Serif" font-size="11.00" fill="#000000">location_type</text>
<polygon fill="none" stroke="#000000" points="282.5,-229.7 282.5,-251.7 372.5,-251.7 372.5,-229.7 282.5,-229.7"/>
<text text-anchor="start" x="285.5" y="-237.4" font-family="Helvetica,sans-Serif" font-size="11.00" fill="#000000">int2[5]</text>
<polygon fill="none" stroke="#000000" points="137.5,-207.7 137.5,-229.7 282.5,-229.7 282.5,-207.7 137.5,-207.7"/>
<text text-anchor="start" x="157.5" y="-214.8" font-family="Helvetica,sans-Serif" font-size="11.00" fill="#000000">parent_station</text>
<polygon fill="none" stroke="#000000" points="282.5,-207.7 282.5,-229.7 372.5,-229.7 372.5,-207.7 282.5,-207.7"/>
<text text-anchor="start" x="285.5" y="-215.4" font-family="Helvetica,sans-Serif" font-size="11.00" fill="#000000">varchar[64]</text>
<polygon fill="none" stroke="#000000" points="137.5,-185.7 137.5,-207.7 282.5,-207.7 282.5,-185.7 137.5,-185.7"/>
<text text-anchor="start" x="157.5" y="-192.8" font-family="Helvetica,sans-Serif" font-size="11.00" fill="#000000">stop_timezone</text>
<polygon fill="none" stroke="#000000" points="282.5,-185.7 282.5,-207.7 372.5,-207.7 372.5,-185.7 282.5,-185.7"/>
<text text-anchor="start" x="285.5" y="-193.4" font-family="Helvetica,sans-Serif" font-size="11.00" fill="#000000">varchar[32]</text>
<polygon fill="none" stroke="#000000" points="137.5,-163.7 137.5,-185.7 282.5,-185.7 282.5,-163.7 137.5,-163.7"/>
<text text-anchor="start" x="157.5" y="-170.8" font-family="Helvetica,sans-Serif" font-size="11.00" fill="#000000">wheelchair_boarding</text>
<polygon fill="none" stroke="#000000" points="282.5,-163.7 282.5,-185.7 372.5,-185.7 372.5,-163.7 282.5,-163.7"/>
<text text-anchor="start" x="285.0043" y="-171.4" font-family="Helvetica,sans-Serif" font-size="11.00" fill="#000000">text[2147483647]</text>
<polygon fill="none" stroke="#000000" points="137.5,-141.7 137.5,-163.7 282.5,-163.7 282.5,-141.7 137.5,-141.7"/>
<text text-anchor="start" x="157.5" y="-148.8" font-family="Helvetica,sans-Serif" font-size="11.00" fill="#000000">platform_code</text>
<polygon fill="none" stroke="#000000" points="282.5,-141.7 282.5,-163.7 372.5,-163.7 372.5,-141.7 282.5,-141.7"/>
<text text-anchor="start" x="285.5" y="-149.4" font-family="Helvetica,sans-Serif" font-size="11.00" fill="#000000">varchar[64]</text>
<polygon fill="#ffffff" stroke="transparent" points="137.5,-122.7 137.5,-141.7 214.5,-141.7 214.5,-122.7 137.5,-122.7"/>
<polygon fill="none" stroke="#000000" points="137.5,-122.7 137.5,-141.7 214.5,-141.7 214.5,-122.7 137.5,-122.7"/>
<text text-anchor="start" x="140.5" y="-128.8" font-family="Helvetica,sans-Serif" font-size="11.00" fill="#000000">&lt; 0</text>
<polygon fill="#ffffff" stroke="transparent" points="214.5,-122.7 214.5,-141.7 282.5,-141.7 282.5,-122.7 214.5,-122.7"/>
<polygon fill="none" stroke="#000000" points="214.5,-122.7 214.5,-141.7 282.5,-141.7 282.5,-122.7 214.5,-122.7"/>
<text text-anchor="start" x="273.3862" y="-128.8" font-family="Helvetica,sans-Serif" font-size="11.00" fill="#000000"> &#160;</text>
<polygon fill="#ffffff" stroke="transparent" points="282.5,-122.7 282.5,-141.7 372.5,-141.7 372.5,-122.7 282.5,-122.7"/>
<polygon fill="none" stroke="#000000" points="282.5,-122.7 282.5,-141.7 372.5,-141.7 372.5,-122.7 282.5,-122.7"/>
<text text-anchor="start" x="353.9053" y="-128.8" font-family="Helvetica,sans-Serif" font-size="11.00" fill="#000000">5 &gt;</text>
<polygon fill="none" stroke="#000000" stroke-width="2" points="136,-121.7 136,-473.7 373,-473.7 373,-121.7 136,-121.7"/>
</a>
</g>
</g>
<!-- fare_rules&#45;&gt;stops -->
<g id="edge1" class="edge">
<title>fare_rules:w&#45;&gt;stops:e</title>
<path fill="none" stroke="#000000" d="M425.0484,-467.2675C405.2869,-459.9595 399.6714,-438.7 372.5,-438.7"/>
<polygon fill="#000000" stroke="#000000" points="431.611,-468.3721 438.9024,-473.2501 435.5555,-469.036 439.5,-469.7 439.5,-469.7 439.5,-469.7 435.5555,-469.036 440.0976,-466.1499 431.611,-468.3721 431.611,-468.3721"/>
<ellipse fill="none" stroke="#000000" cx="428.4554" cy="-467.8409" rx="3.2" ry="3.2"/>
</g>
<!-- fare_rules&#45;&gt;stops -->
<g id="edge3" class="edge">
<title>fare_rules:w&#45;&gt;stops:e</title>
<path fill="none" stroke="#000000" d="M425.3859,-488.5433C403.1513,-477.1334 404.8323,-438.7 372.5,-438.7"/>
<polygon fill="#000000" stroke="#000000" points="431.6929,-489.9539 438.7142,-495.2132 435.5964,-490.8269 439.5,-491.7 439.5,-491.7 439.5,-491.7 435.5964,-490.8269 440.2858,-488.1868 431.6929,-489.9539 431.6929,-489.9539"/>
<ellipse fill="none" stroke="#000000" cx="428.57" cy="-489.2554" rx="3.2" ry="3.2"/>
</g>
<!-- fare_attributes -->
<g id="node3" class="node">
<title>fare_attributes</title>
<g id="a_node3"><a xlink:href="../../tables/fare_attributes.html" xlink:title="fare_attributes" target="_top">
<polygon fill="#ffffff" stroke="transparent" points="190.5,-523.2 190.5,-584.2 318.5,-584.2 318.5,-523.2 190.5,-523.2"/>
<polygon fill="#f5f5f5" stroke="transparent" points="190.5,-560.7 190.5,-583.7 318.5,-583.7 318.5,-560.7 190.5,-560.7"/>
<polygon fill="none" stroke="#000000" points="190.5,-560.7 190.5,-583.7 318.5,-583.7 318.5,-560.7 190.5,-560.7"/>
<text text-anchor="start" x="195.5" y="-569.3" font-family="Helvetica,sans-Serif" font-weight="bold" font-size="11.00" fill="#000000">fare_attributes</text>
<text text-anchor="start" x="284.0219" y="-568.8" font-family="Helvetica,sans-Serif" font-size="11.00" fill="#000000">[table]</text>
<polygon fill="none" stroke="#000000" points="190.5,-541.7 190.5,-560.7 318.5,-560.7 318.5,-541.7 190.5,-541.7"/>
<text text-anchor="start" x="193.5" y="-547.8" font-family="Helvetica,sans-Serif" font-size="11.00" fill="#000000">...</text>
<polygon fill="#ffffff" stroke="transparent" points="190.5,-522.7 190.5,-541.7 243.5,-541.7 243.5,-522.7 190.5,-522.7"/>
<polygon fill="none" stroke="#000000" points="190.5,-522.7 190.5,-541.7 243.5,-541.7 243.5,-522.7 190.5,-522.7"/>
<text text-anchor="start" x="193.5" y="-528.8" font-family="Helvetica,sans-Serif" font-size="11.00" fill="#000000"> &#160;</text>
<polygon fill="#ffffff" stroke="transparent" points="243.5,-522.7 243.5,-541.7 276.5,-541.7 276.5,-522.7 243.5,-522.7"/>
<polygon fill="none" stroke="#000000" points="243.5,-522.7 243.5,-541.7 276.5,-541.7 276.5,-522.7 243.5,-522.7"/>
<text text-anchor="start" x="267.3862" y="-528.8" font-family="Helvetica,sans-Serif" font-size="11.00" fill="#000000"> &#160;</text>
<polygon fill="#ffffff" stroke="transparent" points="276.5,-522.7 276.5,-541.7 318.5,-541.7 318.5,-522.7 276.5,-522.7"/>
<polygon fill="none" stroke="#000000" points="276.5,-522.7 276.5,-541.7 318.5,-541.7 318.5,-522.7 276.5,-522.7"/>
<text text-anchor="start" x="299.9053" y="-528.8" font-family="Helvetica,sans-Serif" font-size="11.00" fill="#000000">1 &gt;</text>
</a>
</g>
</g>
<!-- fare_rules&#45;&gt;fare_attributes -->
<g id="edge2" class="edge">
<title>fare_rules:w&#45;&gt;fare_attributes:e</title>
<path fill="none" stroke="#000000" d="M425.011,-536.0859C382.5141,-538.4337 367.5033,-550.7 318.5,-550.7"/>
<polygon fill="#000000" stroke="#000000" points="431.5028,-535.913 439.5959,-539.2987 435.5014,-535.8065 439.5,-535.7 439.5,-535.7 439.5,-535.7 435.5014,-535.8065 439.4041,-532.1013 431.5028,-535.913 431.5028,-535.913"/>
<ellipse fill="none" stroke="#000000" cx="428.304" cy="-535.9982" rx="3.2" ry="3.2"/>
</g>
<!-- routes -->
<g id="node4" class="node">
<title>routes</title>
<g id="a_node4"><a xlink:href="../../tables/routes.html" xlink:title="routes" target="_top">
<polygon fill="#ffffff" stroke="transparent" points="8,-254.2 8,-315.2 86,-315.2 86,-254.2 8,-254.2"/>
<polygon fill="#f5f5f5" stroke="transparent" points="8,-291.7 8,-314.7 86,-314.7 86,-291.7 8,-291.7"/>
<polygon fill="none" stroke="#000000" points="8,-291.7 8,-314.7 86,-314.7 86,-291.7 8,-291.7"/>
<text text-anchor="start" x="13" y="-300.3" font-family="Helvetica,sans-Serif" font-weight="bold" font-size="11.00" fill="#000000">routes</text>
<text text-anchor="start" x="51.5219" y="-299.8" font-family="Helvetica,sans-Serif" font-size="11.00" fill="#000000">[table]</text>
<polygon fill="none" stroke="#000000" points="8,-272.7 8,-291.7 86,-291.7 86,-272.7 8,-272.7"/>
<text text-anchor="start" x="11" y="-278.8" font-family="Helvetica,sans-Serif" font-size="11.00" fill="#000000">...</text>
<polygon fill="#ffffff" stroke="transparent" points="8,-253.7 8,-272.7 41,-272.7 41,-253.7 8,-253.7"/>
<polygon fill="none" stroke="#000000" points="8,-253.7 8,-272.7 41,-272.7 41,-253.7 8,-253.7"/>
<text text-anchor="start" x="11" y="-259.8" font-family="Helvetica,sans-Serif" font-size="11.00" fill="#000000">&lt; 1</text>
<polygon fill="#ffffff" stroke="transparent" points="41,-253.7 41,-272.7 59,-272.7 59,-253.7 41,-253.7"/>
<polygon fill="none" stroke="#000000" points="41,-253.7 41,-272.7 59,-272.7 59,-253.7 41,-253.7"/>
<text text-anchor="start" x="49.8862" y="-259.8" font-family="Helvetica,sans-Serif" font-size="11.00" fill="#000000"> &#160;</text>
<polygon fill="#ffffff" stroke="transparent" points="59,-253.7 59,-272.7 86,-272.7 86,-253.7 59,-253.7"/>
<polygon fill="none" stroke="#000000" points="59,-253.7 59,-272.7 86,-272.7 86,-253.7 59,-253.7"/>
<text text-anchor="start" x="67.4053" y="-259.8" font-family="Helvetica,sans-Serif" font-size="11.00" fill="#000000">2 &gt;</text>
</a>
</g>
</g>
<!-- fare_rules&#45;&gt;routes -->
<g id="edge4" class="edge">
<title>fare_rules:w&#45;&gt;routes:e</title>
<path fill="none" stroke="#000000" d="M424.7606,-513.5698C360.3335,-512.6756 150.5739,-506.8353 127,-485.7 58.1426,-423.9654 178.4797,-281.7 86,-281.7"/>
<polygon fill="#000000" stroke="#000000" points="431.5003,-513.6293 439.4682,-517.2999 435.5002,-513.6646 439.5,-513.7 439.5,-513.7 439.5,-513.7 435.5002,-513.6646 439.5318,-510.1001 431.5003,-513.6293 431.5003,-513.6293"/>
<ellipse fill="none" stroke="#000000" cx="428.3004" cy="-513.601" rx="3.2" ry="3.2"/>
</g>
<!-- stop_times -->
<g id="node5" class="node">
<title>stop_times</title>
<g id="a_node5"><a xlink:href="../../tables/stop_times.html" xlink:title="stop_times" target="_top">
<polygon fill="#ffffff" stroke="transparent" points="423,-90.2 423,-195.2 562,-195.2 562,-90.2 423,-90.2"/>
<polygon fill="#f5f5f5" stroke="transparent" points="423.5,-171.7 423.5,-194.7 562.5,-194.7 562.5,-171.7 423.5,-171.7"/>
<polygon fill="none" stroke="#000000" points="423.5,-171.7 423.5,-194.7 562.5,-194.7 562.5,-171.7 423.5,-171.7"/>
<text text-anchor="start" x="428.5" y="-180.3" font-family="Helvetica,sans-Serif" font-weight="bold" font-size="11.00" fill="#000000">stop_times</text>
<text text-anchor="start" x="527.5437" y="-179.8" font-family="Helvetica,sans-Serif" font-size="11.00" fill="#000000">[table]</text>
<polygon fill="none" stroke="#000000" points="423.5,-149.7 423.5,-171.7 562.5,-171.7 562.5,-149.7 423.5,-149.7"/>
<image xlink:href="../../images/foreignKeys.png" width="11px" height="12px" preserveAspectRatio="xMinYMin meet" x="428.5" y="-166.7"/>
<text text-anchor="start" x="443.5" y="-156.8" font-family="Helvetica,sans-Serif" font-size="11.00" fill="#000000">trip_id</text>
<polygon fill="none" stroke="#000000" points="423.5,-127.7 423.5,-149.7 562.5,-149.7 562.5,-127.7 423.5,-127.7"/>
<image xlink:href="../../images/foreignKeys.png" width="11px" height="12px" preserveAspectRatio="xMinYMin meet" x="428.5" y="-144.7"/>
<text text-anchor="start" x="443.5" y="-134.8" font-family="Helvetica,sans-Serif" font-size="11.00" fill="#000000">stop_id</text>
<polygon fill="none" stroke="#000000" points="423.5,-108.7 423.5,-127.7 562.5,-127.7 562.5,-108.7 423.5,-108.7"/>
<text text-anchor="start" x="426.5" y="-114.8" font-family="Helvetica,sans-Serif" font-size="11.00" fill="#000000">...</text>
<polygon fill="#ffffff" stroke="transparent" points="423.5,-89.7 423.5,-108.7 491.5,-108.7 491.5,-89.7 423.5,-89.7"/>
<polygon fill="none" stroke="#000000" points="423.5,-89.7 423.5,-108.7 491.5,-108.7 491.5,-89.7 423.5,-89.7"/>
<text text-anchor="start" x="426.5" y="-95.8" font-family="Helvetica,sans-Serif" font-size="11.00" fill="#000000">&lt; 2</text>
<polygon fill="#ffffff" stroke="transparent" points="491.5,-89.7 491.5,-108.7 526.5,-108.7 526.5,-89.7 491.5,-89.7"/>
<polygon fill="none" stroke="#000000" points="491.5,-89.7 491.5,-108.7 526.5,-108.7 526.5,-89.7 491.5,-89.7"/>
<text text-anchor="start" x="517.3862" y="-95.8" font-family="Helvetica,sans-Serif" font-size="11.00" fill="#000000"> &#160;</text>
<polygon fill="#ffffff" stroke="transparent" points="526.5,-89.7 526.5,-108.7 562.5,-108.7 562.5,-89.7 526.5,-89.7"/>
<polygon fill="none" stroke="#000000" points="526.5,-89.7 526.5,-108.7 562.5,-108.7 562.5,-89.7 526.5,-89.7"/>
<text text-anchor="start" x="553.3862" y="-95.8" font-family="Helvetica,sans-Serif" font-size="11.00" fill="#000000"> &#160;</text>
</a>
</g>
</g>
<!-- stop_times&#45;&gt;stops -->
<g id="edge5" class="edge">
<title>stop_times:w&#45;&gt;stops:e</title>
<path fill="none" stroke="#000000" d="M410.0202,-144.1632C368.3956,-184.8231 434.708,-438.7 372.5,-438.7"/>
<polygon fill="#000000" stroke="#000000" points="416.0858,-141.7049 424.8522,-142.0364 419.7929,-140.2025 423.5,-138.7 423.5,-138.7 423.5,-138.7 419.7929,-140.2025 422.1478,-135.3636 416.0858,-141.7049 416.0858,-141.7049"/>
<ellipse fill="none" stroke="#000000" cx="413.1201" cy="-142.9069" rx="3.2" ry="3.2"/>
</g>
<!-- trips -->
<g id="node6" class="node">
<title>trips</title>
<g id="a_node6"><a xlink:href="../../tables/trips.html" xlink:title="trips" target="_top">
<polygon fill="#ffffff" stroke="transparent" points="221.5,-38.2 221.5,-99.2 287.5,-99.2 287.5,-38.2 221.5,-38.2"/>
<polygon fill="#f5f5f5" stroke="transparent" points="221.5,-75.7 221.5,-98.7 287.5,-98.7 287.5,-75.7 221.5,-75.7"/>
<polygon fill="none" stroke="#000000" points="221.5,-75.7 221.5,-98.7 287.5,-98.7 287.5,-75.7 221.5,-75.7"/>
<text text-anchor="start" x="226.5" y="-84.3" font-family="Helvetica,sans-Serif" font-weight="bold" font-size="11.00" fill="#000000">trips</text>
<text text-anchor="start" x="253.0219" y="-83.8" font-family="Helvetica,sans-Serif" font-size="11.00" fill="#000000">[table]</text>
<polygon fill="none" stroke="#000000" points="221.5,-56.7 221.5,-75.7 287.5,-75.7 287.5,-56.7 221.5,-56.7"/>
<text text-anchor="start" x="224.5" y="-62.8" font-family="Helvetica,sans-Serif" font-size="11.00" fill="#000000">...</text>
<polygon fill="#ffffff" stroke="transparent" points="221.5,-37.7 221.5,-56.7 248.5,-56.7 248.5,-37.7 221.5,-37.7"/>
<polygon fill="none" stroke="#000000" points="221.5,-37.7 221.5,-56.7 248.5,-56.7 248.5,-37.7 221.5,-37.7"/>
<text text-anchor="start" x="224.5" y="-43.8" font-family="Helvetica,sans-Serif" font-size="11.00" fill="#000000">&lt; 5</text>
<polygon fill="#ffffff" stroke="transparent" points="248.5,-37.7 248.5,-56.7 263.5,-56.7 263.5,-37.7 248.5,-37.7"/>
<polygon fill="none" stroke="#000000" points="248.5,-37.7 248.5,-56.7 263.5,-56.7 263.5,-37.7 248.5,-37.7"/>
<text text-anchor="start" x="254.3862" y="-43.8" font-family="Helvetica,sans-Serif" font-size="11.00" fill="#000000"> &#160;</text>
<polygon fill="#ffffff" stroke="transparent" points="263.5,-37.7 263.5,-56.7 287.5,-56.7 287.5,-37.7 263.5,-37.7"/>
<polygon fill="none" stroke="#000000" points="263.5,-37.7 263.5,-56.7 287.5,-56.7 287.5,-37.7 263.5,-37.7"/>
<text text-anchor="start" x="268.9053" y="-43.8" font-family="Helvetica,sans-Serif" font-size="11.00" fill="#000000">2 &gt;</text>
</a>
</g>
</g>
<!-- stop_times&#45;&gt;trips -->
<g id="edge6" class="edge">
<title>stop_times:w&#45;&gt;trips:e</title>
<path fill="none" stroke="#000000" d="M409.6538,-156.7411C397.3185,-147.4314 400.1914,-123.8695 382,-109.7 345.4498,-81.2306 333.8295,-65.7 287.5,-65.7"/>
<polygon fill="#000000" stroke="#000000" points="415.8082,-158.5007 422.5103,-164.1613 419.6541,-159.6004 423.5,-160.7 423.5,-160.7 423.5,-160.7 419.6541,-159.6004 424.4897,-157.2387 415.8082,-158.5007 415.8082,-158.5007"/>
<ellipse fill="none" stroke="#000000" cx="412.7315" cy="-157.621" rx="3.2" ry="3.2"/>
</g>
<!-- trips&#45;&gt;routes -->
<g id="edge9" class="edge">
<title>trips:w&#45;&gt;routes:e</title>
<path fill="none" stroke="#000000" d="M206.7571,-66.0407C170.7602,-67.8934 152.9758,-77.8735 127,-109.7 77.3097,-170.5825 164.5863,-281.7 86,-281.7"/>
<polygon fill="#000000" stroke="#000000" points="213.5021,-65.8849 221.5832,-69.299 217.5011,-65.7924 221.5,-65.7 221.5,-65.7 221.5,-65.7 217.5011,-65.7924 221.4168,-62.101 213.5021,-65.8849 213.5021,-65.8849"/>
<ellipse fill="none" stroke="#000000" cx="210.303" cy="-65.9589" rx="3.2" ry="3.2"/>
</g>
<!-- transfers -->
<g id="node7" class="node">
<title>transfers</title>
<g id="a_node7"><a xlink:href="../../tables/transfers.html" xlink:title="transfers" target="_top">
<polygon fill="#ffffff" stroke="transparent" points="427.5,-295.2 427.5,-400.2 557.5,-400.2 557.5,-295.2 427.5,-295.2"/>
<polygon fill="#f5f5f5" stroke="transparent" points="427.5,-376.7 427.5,-399.7 557.5,-399.7 557.5,-376.7 427.5,-376.7"/>
<polygon fill="none" stroke="#000000" points="427.5,-376.7 427.5,-399.7 557.5,-399.7 557.5,-376.7 427.5,-376.7"/>
<text text-anchor="start" x="432.5" y="-385.3" font-family="Helvetica,sans-Serif" font-weight="bold" font-size="11.00" fill="#000000">transfers</text>
<text text-anchor="start" x="522.5437" y="-384.8" font-family="Helvetica,sans-Serif" font-size="11.00" fill="#000000">[table]</text>
<polygon fill="none" stroke="#000000" points="427.5,-354.7 427.5,-376.7 557.5,-376.7 557.5,-354.7 427.5,-354.7"/>
<image xlink:href="../../images/foreignKeys.png" width="11px" height="12px" preserveAspectRatio="xMinYMin meet" x="432.5" y="-371.7"/>
<text text-anchor="start" x="447.5" y="-361.8" font-family="Helvetica,sans-Serif" font-size="11.00" fill="#000000">from_stop_id</text>
<polygon fill="none" stroke="#000000" points="427.5,-332.7 427.5,-354.7 557.5,-354.7 557.5,-332.7 427.5,-332.7"/>
<image xlink:href="../../images/foreignKeys.png" width="11px" height="12px" preserveAspectRatio="xMinYMin meet" x="432.5" y="-349.7"/>
<text text-anchor="start" x="447.5" y="-339.8" font-family="Helvetica,sans-Serif" font-size="11.00" fill="#000000">to_stop_id</text>
<polygon fill="none" stroke="#000000" points="427.5,-313.7 427.5,-332.7 557.5,-332.7 557.5,-313.7 427.5,-313.7"/>
<text text-anchor="start" x="430.5" y="-319.8" font-family="Helvetica,sans-Serif" font-size="11.00" fill="#000000">...</text>
<polygon fill="#ffffff" stroke="transparent" points="427.5,-294.7 427.5,-313.7 490.5,-313.7 490.5,-294.7 427.5,-294.7"/>
<polygon fill="none" stroke="#000000" points="427.5,-294.7 427.5,-313.7 490.5,-313.7 490.5,-294.7 427.5,-294.7"/>
<text text-anchor="start" x="430.5" y="-300.8" font-family="Helvetica,sans-Serif" font-size="11.00" fill="#000000">&lt; 2</text>
<polygon fill="#ffffff" stroke="transparent" points="490.5,-294.7 490.5,-313.7 523.5,-313.7 523.5,-294.7 490.5,-294.7"/>
<polygon fill="none" stroke="#000000" points="490.5,-294.7 490.5,-313.7 523.5,-313.7 523.5,-294.7 490.5,-294.7"/>
<text text-anchor="start" x="514.3862" y="-300.8" font-family="Helvetica,sans-Serif" font-size="11.00" fill="#000000"> &#160;</text>
<polygon fill="#ffffff" stroke="transparent" points="523.5,-294.7 523.5,-313.7 557.5,-313.7 557.5,-294.7 523.5,-294.7"/>
<polygon fill="none" stroke="#000000" points="523.5,-294.7 523.5,-313.7 557.5,-313.7 557.5,-294.7 523.5,-294.7"/>
<text text-anchor="start" x="548.3862" y="-300.8" font-family="Helvetica,sans-Serif" font-size="11.00" fill="#000000"> &#160;</text>
</a>
</g>
</g>
<!-- transfers&#45;&gt;stops -->
<g id="edge7" class="edge">
<title>transfers:w&#45;&gt;stops:e</title>
<path fill="none" stroke="#000000" d="M413.6731,-369.834C393.0672,-385.2766 407.2511,-438.7 372.5,-438.7"/>
<polygon fill="#000000" stroke="#000000" points="419.8352,-367.9916 428.5312,-369.1491 423.6676,-366.8458 427.5,-365.7 427.5,-365.7 427.5,-365.7 423.6676,-366.8458 426.4688,-362.2509 419.8352,-367.9916 419.8352,-367.9916"/>
<ellipse fill="none" stroke="#000000" cx="416.7693" cy="-368.9083" rx="3.2" ry="3.2"/>
</g>
<!-- transfers&#45;&gt;stops -->
<g id="edge8" class="edge">
<title>transfers:w&#45;&gt;stops:e</title>
<path fill="none" stroke="#000000" d="M413.471,-347.5418C387.6838,-365.3148 415.3799,-438.7 372.5,-438.7"/>
<polygon fill="#000000" stroke="#000000" points="419.7841,-345.813 428.4509,-347.1722 423.642,-344.7565 427.5,-343.7 427.5,-343.7 427.5,-343.7 423.642,-344.7565 426.5491,-340.2278 419.7841,-345.813 419.7841,-345.813"/>
<ellipse fill="none" stroke="#000000" cx="416.6977" cy="-346.6582" rx="3.2" ry="3.2"/>
</g>
</g>
</svg>
