<?xml version="1.0" encoding="UTF-8" standalone="no"?>
<!DOCTYPE svg PUBLIC "-//W3C//DTD SVG 1.1//EN"
 "http://www.w3.org/Graphics/SVG/1.1/DTD/svg11.dtd">
<!-- Generated by graphviz version 2.40.1 (20161225.0304)
 -->
<!-- Title: oneDegreeRelationshipsDiagram Pages: 1 -->
<svg width="451pt" height="573pt"
 viewBox="0.00 0.00 451.00 572.70" xmlns="http://www.w3.org/2000/svg" xmlns:xlink="http://www.w3.org/1999/xlink">
<g id="graph0" class="graph" transform="scale(1 1) rotate(0) translate(4 568.7)">
<title>oneDegreeRelationshipsDiagram</title>
<polygon fill="#ffffff" stroke="transparent" points="-4,4 -4,-568.7 447,-568.7 447,4 -4,4"/>
<text text-anchor="middle" x="72.4936" y="-7.3" font-family="Helvetica,sans-Serif" font-size="11.00" fill="#000000">Generated by SchemaSpy</text>
<!-- fare_rules -->
<g id="node1" class="node">
<title>fare_rules</title>
<g id="a_node1"><a xlink:href="../../tables/fare_rules.html" xlink:title="fare_rules" target="_top">
<polygon fill="#ffffff" stroke="transparent" points="312.5,-411.7 312.5,-560.7 418.5,-560.7 418.5,-411.7 312.5,-411.7"/>
<polygon fill="#f5f5f5" stroke="transparent" points="312.5,-537.2 312.5,-560.2 418.5,-560.2 418.5,-537.2 312.5,-537.2"/>
<polygon fill="none" stroke="#000000" points="312.5,-537.2 312.5,-560.2 418.5,-560.2 418.5,-537.2 312.5,-537.2"/>
<text text-anchor="start" x="317.5" y="-545.8" font-family="Helvetica,sans-Serif" font-weight="bold" font-size="11.00" fill="#000000">fare_rules</text>
<text text-anchor="start" x="383.5437" y="-545.3" font-family="Helvetica,sans-Serif" font-size="11.00" fill="#000000">[table]</text>
<polygon fill="none" stroke="#000000" points="312.5,-515.2 312.5,-537.2 418.5,-537.2 418.5,-515.2 312.5,-515.2"/>
<image xlink:href="../../images/primaryKeys.png" width="11px" height="12px" preserveAspectRatio="xMinYMin meet" x="317.5" y="-532.2"/>
<text text-anchor="start" x="332.5" y="-522.3" font-family="Helvetica,sans-Serif" font-size="11.00" fill="#000000">fare_id</text>
<polygon fill="none" stroke="#000000" points="312.5,-493.2 312.5,-515.2 418.5,-515.2 418.5,-493.2 312.5,-493.2"/>
<image xlink:href="../../images/foreignKeys.png" width="11px" height="12px" preserveAspectRatio="xMinYMin meet" x="317.5" y="-510.2"/>
<text text-anchor="start" x="332.5" y="-500.3" font-family="Helvetica,sans-Serif" font-size="11.00" fill="#000000">route_id</text>
<polygon fill="none" stroke="#000000" points="312.5,-471.2 312.5,-493.2 418.5,-493.2 418.5,-471.2 312.5,-471.2"/>
<image xlink:href="../../images/foreignKeys.png" width="11px" height="12px" preserveAspectRatio="xMinYMin meet" x="317.5" y="-488.2"/>
<text text-anchor="start" x="332.5" y="-478.3" font-family="Helvetica,sans-Serif" font-size="11.00" fill="#000000">origin_id</text>
<polygon fill="none" stroke="#000000" points="312.5,-449.2 312.5,-471.2 418.5,-471.2 418.5,-449.2 312.5,-449.2"/>
<image xlink:href="../../images/foreignKeys.png" width="11px" height="12px" preserveAspectRatio="xMinYMin meet" x="317.5" y="-466.2"/>
<text text-anchor="start" x="332.5" y="-456.3" font-family="Helvetica,sans-Serif" font-size="11.00" fill="#000000">destination_id</text>
<polygon fill="none" stroke="#000000" points="312.5,-430.2 312.5,-449.2 418.5,-449.2 418.5,-430.2 312.5,-430.2"/>
<text text-anchor="start" x="315.5" y="-436.3" font-family="Helvetica,sans-Serif" font-size="11.00" fill="#000000">...</text>
<polygon fill="#ffffff" stroke="transparent" points="312.5,-411.2 312.5,-430.2 363.5,-430.2 363.5,-411.2 312.5,-411.2"/>
<polygon fill="none" stroke="#000000" points="312.5,-411.2 312.5,-430.2 363.5,-430.2 363.5,-411.2 312.5,-411.2"/>
<text text-anchor="start" x="315.5" y="-417.3" font-family="Helvetica,sans-Serif" font-size="11.00" fill="#000000">&lt; 4</text>
<polygon fill="#ffffff" stroke="transparent" points="363.5,-411.2 363.5,-430.2 390.5,-430.2 390.5,-411.2 363.5,-411.2"/>
<polygon fill="none" stroke="#000000" points="363.5,-411.2 363.5,-430.2 390.5,-430.2 390.5,-411.2 363.5,-411.2"/>
<text text-anchor="start" x="381.3862" y="-417.3" font-family="Helvetica,sans-Serif" font-size="11.00" fill="#000000"> &#160;</text>
<polygon fill="#ffffff" stroke="transparent" points="390.5,-411.2 390.5,-430.2 418.5,-430.2 418.5,-411.2 390.5,-411.2"/>
<polygon fill="none" stroke="#000000" points="390.5,-411.2 390.5,-430.2 418.5,-430.2 418.5,-411.2 390.5,-411.2"/>
<text text-anchor="start" x="409.3862" y="-417.3" font-family="Helvetica,sans-Serif" font-size="11.00" fill="#000000"> &#160;</text>
</a>
</g>
</g>
<!-- stops -->
<g id="node2" class="node">
<title>stops</title>
<g id="a_node2"><a xlink:href="../../tables/stops.html" xlink:title="stops" target="_top">
<polygon fill="#ffffff" stroke="transparent" points="8,-38.2 8,-370.2 247,-370.2 247,-38.2 8,-38.2"/>
<polygon fill="#f5f5f5" stroke="transparent" points="10.5,-345.2 10.5,-368.2 245.5,-368.2 245.5,-345.2 10.5,-345.2"/>
<polygon fill="none" stroke="#000000" points="10.5,-345.2 10.5,-368.2 245.5,-368.2 245.5,-345.2 10.5,-345.2"/>
<text text-anchor="start" x="15.5" y="-353.8" font-family="Helvetica,sans-Serif" font-weight="bold" font-size="11.00" fill="#000000">stops</text>
<text text-anchor="start" x="210.5437" y="-353.3" font-family="Helvetica,sans-Serif" font-size="11.00" fill="#000000">[table]</text>
<polygon fill="none" stroke="#000000" points="10.5,-323.2 10.5,-345.2 155.5,-345.2 155.5,-323.2 10.5,-323.2"/>
<image xlink:href="../../images/primaryKeys.png" width="11px" height="12px" preserveAspectRatio="xMinYMin meet" x="15.5" y="-340.2"/>
<text text-anchor="start" x="30.5" y="-330.3" font-family="Helvetica,sans-Serif" font-size="11.00" fill="#000000">stop_id</text>
<polygon fill="none" stroke="#000000" points="155.5,-323.2 155.5,-345.2 245.5,-345.2 245.5,-323.2 155.5,-323.2"/>
<text text-anchor="start" x="158.5" y="-330.9" font-family="Helvetica,sans-Serif" font-size="11.00" fill="#000000">varchar[64]</text>
<polygon fill="none" stroke="#000000" points="10.5,-301.2 10.5,-323.2 155.5,-323.2 155.5,-301.2 10.5,-301.2"/>
<text text-anchor="start" x="30.5" y="-308.3" font-family="Helvetica,sans-Serif" font-size="11.00" fill="#000000">stop_code</text>
<polygon fill="none" stroke="#000000" points="155.5,-301.2 155.5,-323.2 245.5,-323.2 245.5,-301.2 155.5,-301.2"/>
<text text-anchor="start" x="158.5" y="-308.9" font-family="Helvetica,sans-Serif" font-size="11.00" fill="#000000">varchar[64]</text>
<polygon fill="none" stroke="#000000" points="10.5,-279.2 10.5,-301.2 155.5,-301.2 155.5,-279.2 10.5,-279.2"/>
<text text-anchor="start" x="30.5" y="-286.3" font-family="Helvetica,sans-Serif" font-size="11.00" fill="#000000">stop_name</text>
<polygon fill="none" stroke="#000000" points="155.5,-279.2 155.5,-301.2 245.5,-301.2 245.5,-279.2 155.5,-279.2"/>
<text text-anchor="start" x="158.0042" y="-286.9" font-family="Helvetica,sans-Serif" font-size="11.00" fill="#000000">text[2147483647]</text>
<polygon fill="none" stroke="#000000" points="10.5,-257.2 10.5,-279.2 155.5,-279.2 155.5,-257.2 10.5,-257.2"/>
<text text-anchor="start" x="30.5" y="-264.3" font-family="Helvetica,sans-Serif" font-size="11.00" fill="#000000">stop_desc</text>
<polygon fill="none" stroke="#000000" points="155.5,-257.2 155.5,-279.2 245.5,-279.2 245.5,-257.2 155.5,-257.2"/>
<text text-anchor="start" x="158.0042" y="-264.9" font-family="Helvetica,sans-Serif" font-size="11.00" fill="#000000">text[2147483647]</text>
<polygon fill="none" stroke="#000000" points="10.5,-235.2 10.5,-257.2 155.5,-257.2 155.5,-235.2 10.5,-235.2"/>
<text text-anchor="start" x="30.5" y="-242.3" font-family="Helvetica,sans-Serif" font-size="11.00" fill="#000000">stop_lat</text>
<polygon fill="none" stroke="#000000" points="155.5,-235.2 155.5,-257.2 245.5,-257.2 245.5,-235.2 155.5,-235.2"/>
<text text-anchor="start" x="158.5" y="-242.9" font-family="Helvetica,sans-Serif" font-size="11.00" fill="#000000">float8[17,17]</text>
<polygon fill="none" stroke="#000000" points="10.5,-213.2 10.5,-235.2 155.5,-235.2 155.5,-213.2 10.5,-213.2"/>
<text text-anchor="start" x="30.5" y="-220.3" font-family="Helvetica,sans-Serif" font-size="11.00" fill="#000000">stop_lon</text>
<polygon fill="none" stroke="#000000" points="155.5,-213.2 155.5,-235.2 245.5,-235.2 245.5,-213.2 155.5,-213.2"/>
<text text-anchor="start" x="158.5" y="-220.9" font-family="Helvetica,sans-Serif" font-size="11.00" fill="#000000">float8[17,17]</text>
<polygon fill="none" stroke="#000000" points="10.5,-191.2 10.5,-213.2 155.5,-213.2 155.5,-191.2 10.5,-191.2"/>
<text text-anchor="start" x="30.5" y="-198.3" font-family="Helvetica,sans-Serif" font-size="11.00" fill="#000000">zone_id</text>
<polygon fill="none" stroke="#000000" points="155.5,-191.2 155.5,-213.2 245.5,-213.2 245.5,-191.2 155.5,-191.2"/>
<text text-anchor="start" x="158.5" y="-198.9" font-family="Helvetica,sans-Serif" font-size="11.00" fill="#000000">varchar[64]</text>
<polygon fill="none" stroke="#000000" points="10.5,-169.2 10.5,-191.2 155.5,-191.2 155.5,-169.2 10.5,-169.2"/>
<text text-anchor="start" x="30.5" y="-176.3" font-family="Helvetica,sans-Serif" font-size="11.00" fill="#000000">stop_url</text>
<polygon fill="none" stroke="#000000" points="155.5,-169.2 155.5,-191.2 245.5,-191.2 245.5,-169.2 155.5,-169.2"/>
<text text-anchor="start" x="158.0042" y="-176.9" font-family="Helvetica,sans-Serif" font-size="11.00" fill="#000000">text[2147483647]</text>
<polygon fill="none" stroke="#000000" points="10.5,-147.2 10.5,-169.2 155.5,-169.2 155.5,-147.2 10.5,-147.2"/>
<text text-anchor="start" x="30.5" y="-154.3" font-family="Helvetica,sans-Serif" font-size="11.00" fill="#000000">location_type</text>
<polygon fill="none" stroke="#000000" points="155.5,-147.2 155.5,-169.2 245.5,-169.2 245.5,-147.2 155.5,-147.2"/>
<text text-anchor="start" x="158.5" y="-154.9" font-family="Helvetica,sans-Serif" font-size="11.00" fill="#000000">int2[5]</text>
<polygon fill="none" stroke="#000000" points="10.5,-125.2 10.5,-147.2 155.5,-147.2 155.5,-125.2 10.5,-125.2"/>
<text text-anchor="start" x="30.5" y="-132.3" font-family="Helvetica,sans-Serif" font-size="11.00" fill="#000000">parent_station</text>
<polygon fill="none" stroke="#000000" points="155.5,-125.2 155.5,-147.2 245.5,-147.2 245.5,-125.2 155.5,-125.2"/>
<text text-anchor="start" x="158.5" y="-132.9" font-family="Helvetica,sans-Serif" font-size="11.00" fill="#000000">varchar[64]</text>
<polygon fill="none" stroke="#000000" points="10.5,-103.2 10.5,-125.2 155.5,-125.2 155.5,-103.2 10.5,-103.2"/>
<text text-anchor="start" x="30.5" y="-110.3" font-family="Helvetica,sans-Serif" font-size="11.00" fill="#000000">stop_timezone</text>
<polygon fill="none" stroke="#000000" points="155.5,-103.2 155.5,-125.2 245.5,-125.2 245.5,-103.2 155.5,-103.2"/>
<text text-anchor="start" x="158.5" y="-110.9" font-family="Helvetica,sans-Serif" font-size="11.00" fill="#000000">varchar[16]</text>
<polygon fill="none" stroke="#000000" points="10.5,-81.2 10.5,-103.2 155.5,-103.2 155.5,-81.2 10.5,-81.2"/>
<text text-anchor="start" x="30.5" y="-88.3" font-family="Helvetica,sans-Serif" font-size="11.00" fill="#000000">wheelchair_boarding</text>
<polygon fill="none" stroke="#000000" points="155.5,-81.2 155.5,-103.2 245.5,-103.2 245.5,-81.2 155.5,-81.2"/>
<text text-anchor="start" x="158.0042" y="-88.9" font-family="Helvetica,sans-Serif" font-size="11.00" fill="#000000">text[2147483647]</text>
<polygon fill="none" stroke="#000000" points="10.5,-59.2 10.5,-81.2 155.5,-81.2 155.5,-59.2 10.5,-59.2"/>
<text text-anchor="start" x="30.5" y="-66.3" font-family="Helvetica,sans-Serif" font-size="11.00" fill="#000000">platform_code</text>
<polygon fill="none" stroke="#000000" points="155.5,-59.2 155.5,-81.2 245.5,-81.2 245.5,-59.2 155.5,-59.2"/>
<text text-anchor="start" x="158.5" y="-66.9" font-family="Helvetica,sans-Serif" font-size="11.00" fill="#000000">varchar[64]</text>
<polygon fill="#ffffff" stroke="transparent" points="10.5,-40.2 10.5,-59.2 87.5,-59.2 87.5,-40.2 10.5,-40.2"/>
<polygon fill="none" stroke="#000000" points="10.5,-40.2 10.5,-59.2 87.5,-59.2 87.5,-40.2 10.5,-40.2"/>
<text text-anchor="start" x="13.5" y="-46.3" font-family="Helvetica,sans-Serif" font-size="11.00" fill="#000000">&lt; 0</text>
<polygon fill="#ffffff" stroke="transparent" points="87.5,-40.2 87.5,-59.2 155.5,-59.2 155.5,-40.2 87.5,-40.2"/>
<polygon fill="none" stroke="#000000" points="87.5,-40.2 87.5,-59.2 155.5,-59.2 155.5,-40.2 87.5,-40.2"/>
<text text-anchor="start" x="146.3862" y="-46.3" font-family="Helvetica,sans-Serif" font-size="11.00" fill="#000000"> &#160;</text>
<polygon fill="#ffffff" stroke="transparent" points="155.5,-40.2 155.5,-59.2 245.5,-59.2 245.5,-40.2 155.5,-40.2"/>
<polygon fill="none" stroke="#000000" points="155.5,-40.2 155.5,-59.2 245.5,-59.2 245.5,-40.2 155.5,-40.2"/>
<text text-anchor="start" x="226.9053" y="-46.3" font-family="Helvetica,sans-Serif" font-size="11.00" fill="#000000">5 &gt;</text>
<polygon fill="none" stroke="#000000" stroke-width="2" points="9,-39.2 9,-369.2 246,-369.2 246,-39.2 9,-39.2"/>
</a>
</g>
</g>
<!-- fare_rules&#45;&gt;stops -->
<g id="edge1" class="edge">
<title>fare_rules:w&#45;&gt;stops:e</title>
<path fill="none" stroke="#000000" d="M298.2114,-457.3316C258.8343,-438.5764 303.2266,-334.2 245.5,-334.2"/>
<polygon fill="#000000" stroke="#000000" points="304.6565,-458.6254 311.7914,-463.7296 308.5782,-459.4127 312.5,-460.2 312.5,-460.2 312.5,-460.2 308.5782,-459.4127 313.2086,-456.6704 304.6565,-458.6254 304.6565,-458.6254"/>
<ellipse fill="none" stroke="#000000" cx="301.5191" cy="-457.9955" rx="3.2" ry="3.2"/>
</g>
<!-- fare_rules&#45;&gt;stops -->
<g id="edge2" class="edge">
<title>fare_rules:w&#45;&gt;stops:e</title>
<path fill="none" stroke="#000000" d="M298.174,-479.6312C251.4778,-459.9783 312.0632,-334.2 245.5,-334.2"/>
<polygon fill="#000000" stroke="#000000" points="304.6256,-480.788 311.8646,-485.7435 308.5628,-481.494 312.5,-482.2 312.5,-482.2 312.5,-482.2 308.5628,-481.494 313.1354,-478.6565 304.6256,-480.788 304.6256,-480.788"/>
<ellipse fill="none" stroke="#000000" cx="301.4758" cy="-480.2232" rx="3.2" ry="3.2"/>
</g>
<!-- stop_times -->
<g id="node3" class="node">
<title>stop_times</title>
<g id="a_node3"><a xlink:href="../../tables/stop_times.html" xlink:title="stop_times" target="_top">
<polygon fill="#ffffff" stroke="transparent" points="296,-263.7 296,-390.7 435,-390.7 435,-263.7 296,-263.7"/>
<polygon fill="#f5f5f5" stroke="transparent" points="296.5,-367.2 296.5,-390.2 435.5,-390.2 435.5,-367.2 296.5,-367.2"/>
<polygon fill="none" stroke="#000000" points="296.5,-367.2 296.5,-390.2 435.5,-390.2 435.5,-367.2 296.5,-367.2"/>
<text text-anchor="start" x="301.5" y="-375.8" font-family="Helvetica,sans-Serif" font-weight="bold" font-size="11.00" fill="#000000">stop_times</text>
<text text-anchor="start" x="400.5437" y="-375.3" font-family="Helvetica,sans-Serif" font-size="11.00" fill="#000000">[table]</text>
<polygon fill="none" stroke="#000000" points="296.5,-345.2 296.5,-367.2 435.5,-367.2 435.5,-345.2 296.5,-345.2"/>
<image xlink:href="../../images/primaryKeys.png" width="11px" height="12px" preserveAspectRatio="xMinYMin meet" x="301.5" y="-362.2"/>
<text text-anchor="start" x="316.5" y="-352.3" font-family="Helvetica,sans-Serif" font-size="11.00" fill="#000000">trip_id</text>
<polygon fill="none" stroke="#000000" points="296.5,-323.2 296.5,-345.2 435.5,-345.2 435.5,-323.2 296.5,-323.2"/>
<image xlink:href="../../images/foreignKeys.png" width="11px" height="12px" preserveAspectRatio="xMinYMin meet" x="301.5" y="-340.2"/>
<text text-anchor="start" x="316.5" y="-330.3" font-family="Helvetica,sans-Serif" font-size="11.00" fill="#000000">stop_id</text>
<polygon fill="none" stroke="#000000" points="296.5,-301.2 296.5,-323.2 435.5,-323.2 435.5,-301.2 296.5,-301.2"/>
<image xlink:href="../../images/primaryKeys.png" width="11px" height="12px" preserveAspectRatio="xMinYMin meet" x="301.5" y="-318.2"/>
<text text-anchor="start" x="316.5" y="-308.3" font-family="Helvetica,sans-Serif" font-size="11.00" fill="#000000">stop_sequence</text>
<polygon fill="none" stroke="#000000" points="296.5,-282.2 296.5,-301.2 435.5,-301.2 435.5,-282.2 296.5,-282.2"/>
<text text-anchor="start" x="299.5" y="-288.3" font-family="Helvetica,sans-Serif" font-size="11.00" fill="#000000">...</text>
<polygon fill="#ffffff" stroke="transparent" points="296.5,-263.2 296.5,-282.2 364.5,-282.2 364.5,-263.2 296.5,-263.2"/>
<polygon fill="none" stroke="#000000" points="296.5,-263.2 296.5,-282.2 364.5,-282.2 364.5,-263.2 296.5,-263.2"/>
<text text-anchor="start" x="299.5" y="-269.3" font-family="Helvetica,sans-Serif" font-size="11.00" fill="#000000">&lt; 2</text>
<polygon fill="#ffffff" stroke="transparent" points="364.5,-263.2 364.5,-282.2 399.5,-282.2 399.5,-263.2 364.5,-263.2"/>
<polygon fill="none" stroke="#000000" points="364.5,-263.2 364.5,-282.2 399.5,-282.2 399.5,-263.2 364.5,-263.2"/>
<text text-anchor="start" x="390.3862" y="-269.3" font-family="Helvetica,sans-Serif" font-size="11.00" fill="#000000"> &#160;</text>
<polygon fill="#ffffff" stroke="transparent" points="399.5,-263.2 399.5,-282.2 435.5,-282.2 435.5,-263.2 399.5,-263.2"/>
<polygon fill="none" stroke="#000000" points="399.5,-263.2 399.5,-282.2 435.5,-282.2 435.5,-263.2 399.5,-263.2"/>
<text text-anchor="start" x="426.3862" y="-269.3" font-family="Helvetica,sans-Serif" font-size="11.00" fill="#000000"> &#160;</text>
</a>
</g>
</g>
<!-- stop_times&#45;&gt;stops -->
<g id="edge3" class="edge">
<title>stop_times:w&#45;&gt;stops:e</title>
<path fill="none" stroke="#000000" d="M281.776,-334.2C269.7815,-334.2 262.3229,-334.2 245.5,-334.2"/>
<polygon fill="#000000" stroke="#000000" points="288.5,-334.2001 296.5,-337.8 292.5,-334.2 296.5,-334.2 296.5,-334.2 296.5,-334.2 292.5,-334.2 296.5,-330.6 288.5,-334.2001 288.5,-334.2001"/>
<ellipse fill="none" stroke="#000000" cx="285.3" cy="-334.2001" rx="3.2" ry="3.2"/>
</g>
<!-- transfers -->
<g id="node4" class="node">
<title>transfers</title>
<g id="a_node4"><a xlink:href="../../tables/transfers.html" xlink:title="transfers" target="_top">
<polygon fill="#ffffff" stroke="transparent" points="300.5,-137.7 300.5,-242.7 430.5,-242.7 430.5,-137.7 300.5,-137.7"/>
<polygon fill="#f5f5f5" stroke="transparent" points="300.5,-219.2 300.5,-242.2 430.5,-242.2 430.5,-219.2 300.5,-219.2"/>
<polygon fill="none" stroke="#000000" points="300.5,-219.2 300.5,-242.2 430.5,-242.2 430.5,-219.2 300.5,-219.2"/>
<text text-anchor="start" x="305.5" y="-227.8" font-family="Helvetica,sans-Serif" font-weight="bold" font-size="11.00" fill="#000000">transfers</text>
<text text-anchor="start" x="395.5437" y="-227.3" font-family="Helvetica,sans-Serif" font-size="11.00" fill="#000000">[table]</text>
<polygon fill="none" stroke="#000000" points="300.5,-197.2 300.5,-219.2 430.5,-219.2 430.5,-197.2 300.5,-197.2"/>
<image xlink:href="../../images/primaryKeys.png" width="11px" height="12px" preserveAspectRatio="xMinYMin meet" x="305.5" y="-214.2"/>
<text text-anchor="start" x="320.5" y="-204.3" font-family="Helvetica,sans-Serif" font-size="11.00" fill="#000000">from_stop_id</text>
<polygon fill="none" stroke="#000000" points="300.5,-175.2 300.5,-197.2 430.5,-197.2 430.5,-175.2 300.5,-175.2"/>
<image xlink:href="../../images/primaryKeys.png" width="11px" height="12px" preserveAspectRatio="xMinYMin meet" x="305.5" y="-192.2"/>
<text text-anchor="start" x="320.5" y="-182.3" font-family="Helvetica,sans-Serif" font-size="11.00" fill="#000000">to_stop_id</text>
<polygon fill="none" stroke="#000000" points="300.5,-156.2 300.5,-175.2 430.5,-175.2 430.5,-156.2 300.5,-156.2"/>
<text text-anchor="start" x="303.5" y="-162.3" font-family="Helvetica,sans-Serif" font-size="11.00" fill="#000000">...</text>
<polygon fill="#ffffff" stroke="transparent" points="300.5,-137.2 300.5,-156.2 363.5,-156.2 363.5,-137.2 300.5,-137.2"/>
<polygon fill="none" stroke="#000000" points="300.5,-137.2 300.5,-156.2 363.5,-156.2 363.5,-137.2 300.5,-137.2"/>
<text text-anchor="start" x="303.5" y="-143.3" font-family="Helvetica,sans-Serif" font-size="11.00" fill="#000000">&lt; 2</text>
<polygon fill="#ffffff" stroke="transparent" points="363.5,-137.2 363.5,-156.2 396.5,-156.2 396.5,-137.2 363.5,-137.2"/>
<polygon fill="none" stroke="#000000" points="363.5,-137.2 363.5,-156.2 396.5,-156.2 396.5,-137.2 363.5,-137.2"/>
<text text-anchor="start" x="387.3862" y="-143.3" font-family="Helvetica,sans-Serif" font-size="11.00" fill="#000000"> &#160;</text>
<polygon fill="#ffffff" stroke="transparent" points="396.5,-137.2 396.5,-156.2 430.5,-156.2 430.5,-137.2 396.5,-137.2"/>
<polygon fill="none" stroke="#000000" points="396.5,-137.2 396.5,-156.2 430.5,-156.2 430.5,-137.2 396.5,-137.2"/>
<text text-anchor="start" x="421.3862" y="-143.3" font-family="Helvetica,sans-Serif" font-size="11.00" fill="#000000"> &#160;</text>
</a>
</g>
</g>
<!-- transfers&#45;&gt;stops -->
<g id="edge4" class="edge">
<title>transfers:w&#45;&gt;stops:e</title>
<path fill="none" stroke="#000000" d="M286.0308,-211.5702C251.2998,-231.6077 300.6356,-334.2 245.5,-334.2"/>
<polygon fill="#000000" stroke="#000000" points="292.7086,-210.0148 301.3167,-211.7061 296.6043,-209.1074 300.5,-208.2 300.5,-208.2 300.5,-208.2 296.6043,-209.1074 299.6833,-204.6939 292.7086,-210.0148 292.7086,-210.0148"/>
<ellipse fill="none" stroke="#000000" cx="289.592" cy="-210.7408" rx="3.2" ry="3.2"/>
</g>
<!-- transfers&#45;&gt;stops -->
<g id="edge5" class="edge">
<title>transfers:w&#45;&gt;stops:e</title>
<path fill="none" stroke="#000000" d="M286.1987,-189.0243C243.2826,-209.4853 309.9166,-334.2 245.5,-334.2"/>
<polygon fill="#000000" stroke="#000000" points="292.6516,-187.75 301.1975,-189.7318 296.5758,-186.975 300.5,-186.2 300.5,-186.2 300.5,-186.2 296.5758,-186.975 299.8025,-182.6682 292.6516,-187.75 292.6516,-187.75"/>
<ellipse fill="none" stroke="#000000" cx="289.5122" cy="-188.37" rx="3.2" ry="3.2"/>
</g>
</g>
</svg>
