<?xml version="1.0" encoding="UTF-8" standalone="no"?>
<!DOCTYPE svg PUBLIC "-//W3C//DTD SVG 1.1//EN"
 "http://www.w3.org/Graphics/SVG/1.1/DTD/svg11.dtd">
<!-- Generated by graphviz version 2.40.1 (20161225.0304)
 -->
<!-- Title: twoDegreesRelationshipsDiagram Pages: 1 -->
<svg width="607pt" height="563pt"
 viewBox="0.00 0.00 607.00 563.20" xmlns="http://www.w3.org/2000/svg" xmlns:xlink="http://www.w3.org/1999/xlink">
<g id="graph0" class="graph" transform="scale(1 1) rotate(0) translate(4 559.2)">
<title>twoDegreesRelationshipsDiagram</title>
<polygon fill="#ffffff" stroke="transparent" points="-4,4 -4,-559.2 603,-559.2 603,4 -4,4"/>
<text text-anchor="middle" x="72.4936" y="-7.3" font-family="Helvetica,sans-Serif" font-size="11.00" fill="#000000">Generated by SchemaSpy</text>
<!-- fare_rules -->
<g id="node1" class="node">
<title>fare_rules</title>
<g id="a_node1"><a xlink:href="../../tables/fare_rules.html" xlink:title="fare_rules" target="_top">
<polygon fill="#ffffff" stroke="transparent" points="425.5,-490.2 425.5,-551.2 523.5,-551.2 523.5,-490.2 425.5,-490.2"/>
<polygon fill="#f5f5f5" stroke="transparent" points="425.5,-527.7 425.5,-550.7 523.5,-550.7 523.5,-527.7 425.5,-527.7"/>
<polygon fill="none" stroke="#000000" points="425.5,-527.7 425.5,-550.7 523.5,-550.7 523.5,-527.7 425.5,-527.7"/>
<text text-anchor="start" x="430.5" y="-536.3" font-family="Helvetica,sans-Serif" font-weight="bold" font-size="11.00" fill="#000000">fare_rules</text>
<text text-anchor="start" x="489.0219" y="-535.8" font-family="Helvetica,sans-Serif" font-size="11.00" fill="#000000">[table]</text>
<polygon fill="none" stroke="#000000" points="425.5,-508.7 425.5,-527.7 523.5,-527.7 523.5,-508.7 425.5,-508.7"/>
<text text-anchor="start" x="428.5" y="-514.8" font-family="Helvetica,sans-Serif" font-size="11.00" fill="#000000">...</text>
<polygon fill="#ffffff" stroke="transparent" points="425.5,-489.7 425.5,-508.7 472.5,-508.7 472.5,-489.7 425.5,-489.7"/>
<polygon fill="none" stroke="#000000" points="425.5,-489.7 425.5,-508.7 472.5,-508.7 472.5,-489.7 425.5,-489.7"/>
<text text-anchor="start" x="428.5" y="-495.8" font-family="Helvetica,sans-Serif" font-size="11.00" fill="#000000">&lt; 4</text>
<polygon fill="#ffffff" stroke="transparent" points="472.5,-489.7 472.5,-508.7 497.5,-508.7 497.5,-489.7 472.5,-489.7"/>
<polygon fill="none" stroke="#000000" points="472.5,-489.7 472.5,-508.7 497.5,-508.7 497.5,-489.7 472.5,-489.7"/>
<text text-anchor="start" x="488.3862" y="-495.8" font-family="Helvetica,sans-Serif" font-size="11.00" fill="#000000"> &#160;</text>
<polygon fill="#ffffff" stroke="transparent" points="497.5,-489.7 497.5,-508.7 523.5,-508.7 523.5,-489.7 497.5,-489.7"/>
<polygon fill="none" stroke="#000000" points="497.5,-489.7 497.5,-508.7 523.5,-508.7 523.5,-489.7 497.5,-489.7"/>
<text text-anchor="start" x="514.3862" y="-495.8" font-family="Helvetica,sans-Serif" font-size="11.00" fill="#000000"> &#160;</text>
</a>
</g>
</g>
<!-- stops -->
<g id="node2" class="node">
<title>stops</title>
<g id="a_node2"><a xlink:href="../../tables/stops.html" xlink:title="stops" target="_top">
<polygon fill="#ffffff" stroke="transparent" points="160.5,-393.2 160.5,-476.2 305.5,-476.2 305.5,-393.2 160.5,-393.2"/>
<polygon fill="#f5f5f5" stroke="transparent" points="161,-452.7 161,-475.7 306,-475.7 306,-452.7 161,-452.7"/>
<polygon fill="none" stroke="#000000" points="161,-452.7 161,-475.7 306,-475.7 306,-452.7 161,-452.7"/>
<text text-anchor="start" x="166" y="-461.3" font-family="Helvetica,sans-Serif" font-weight="bold" font-size="11.00" fill="#000000">stops</text>
<text text-anchor="start" x="271.0437" y="-460.8" font-family="Helvetica,sans-Serif" font-size="11.00" fill="#000000">[table]</text>
<polygon fill="none" stroke="#000000" points="161,-430.7 161,-452.7 306,-452.7 306,-430.7 161,-430.7"/>
<image xlink:href="../../images/primaryKeys.png" width="11px" height="12px" preserveAspectRatio="xMinYMin meet" x="166" y="-447.7"/>
<text text-anchor="start" x="181" y="-437.8" font-family="Helvetica,sans-Serif" font-size="11.00" fill="#000000">stop_id</text>
<polygon fill="none" stroke="#000000" points="161,-411.7 161,-430.7 306,-430.7 306,-411.7 161,-411.7"/>
<text text-anchor="start" x="164" y="-417.8" font-family="Helvetica,sans-Serif" font-size="11.00" fill="#000000">...</text>
<polygon fill="#ffffff" stroke="transparent" points="161,-392.7 161,-411.7 223,-411.7 223,-392.7 161,-392.7"/>
<polygon fill="none" stroke="#000000" points="161,-392.7 161,-411.7 223,-411.7 223,-392.7 161,-392.7"/>
<text text-anchor="start" x="164" y="-398.8" font-family="Helvetica,sans-Serif" font-size="11.00" fill="#000000"> &#160;</text>
<polygon fill="#ffffff" stroke="transparent" points="223,-392.7 223,-411.7 260,-411.7 260,-392.7 223,-392.7"/>
<polygon fill="none" stroke="#000000" points="223,-392.7 223,-411.7 260,-411.7 260,-392.7 223,-392.7"/>
<text text-anchor="start" x="250.8862" y="-398.8" font-family="Helvetica,sans-Serif" font-size="11.00" fill="#000000"> &#160;</text>
<polygon fill="#ffffff" stroke="transparent" points="260,-392.7 260,-411.7 306,-411.7 306,-392.7 260,-392.7"/>
<polygon fill="none" stroke="#000000" points="260,-392.7 260,-411.7 306,-411.7 306,-392.7 260,-392.7"/>
<text text-anchor="start" x="287.4053" y="-398.8" font-family="Helvetica,sans-Serif" font-size="11.00" fill="#000000">5 &gt;</text>
</a>
</g>
</g>
<!-- fare_rules&#45;&gt;stops -->
<g id="edge1" class="edge">
<title>fare_rules:w&#45;&gt;stops:e</title>
<path fill="none" stroke="#000000" d="M411.3287,-514.5295C385.5633,-506.8105 376.8377,-491.6431 350,-473.7 328.5196,-459.3387 331.839,-435.7 306,-441.7"/>
<polygon fill="#000000" stroke="#000000" points="417.693,-515.9533 424.714,-521.2131 421.5965,-516.8267 425.5,-517.7 425.5,-517.7 425.5,-517.7 421.5965,-516.8267 426.286,-514.1869 417.693,-515.9533 417.693,-515.9533"/>
<ellipse fill="none" stroke="#000000" cx="414.5702" cy="-515.2546" rx="3.2" ry="3.2"/>
</g>
<!-- fare_rules&#45;&gt;stops -->
<g id="edge2" class="edge">
<title>fare_rules:w&#45;&gt;stops:e</title>
<path fill="none" stroke="#000000" d="M410.9784,-519.285C385.4836,-519.6725 376.7157,-504.5615 350,-486.7 328.5196,-472.3387 331.839,-448.7 306,-441.7"/>
<polygon fill="#000000" stroke="#000000" points="417.5472,-518.5681 425.8906,-521.2787 421.5236,-518.134 425.5,-517.7 425.5,-517.7 425.5,-517.7 421.5236,-518.134 425.1094,-514.1213 417.5472,-518.5681 417.5472,-518.5681"/>
<ellipse fill="none" stroke="#000000" cx="414.3661" cy="-518.9153" rx="3.2" ry="3.2"/>
</g>
<!-- routes -->
<g id="node3" class="node">
<title>routes</title>
<g id="a_node3"><a xlink:href="../../tables/routes.html" xlink:title="routes" target="_top">
<polygon fill="#ffffff" stroke="transparent" points="19,-461.2 19,-522.2 97,-522.2 97,-461.2 19,-461.2"/>
<polygon fill="#f5f5f5" stroke="transparent" points="19,-498.7 19,-521.7 97,-521.7 97,-498.7 19,-498.7"/>
<polygon fill="none" stroke="#000000" points="19,-498.7 19,-521.7 97,-521.7 97,-498.7 19,-498.7"/>
<text text-anchor="start" x="24" y="-507.3" font-family="Helvetica,sans-Serif" font-weight="bold" font-size="11.00" fill="#000000">routes</text>
<text text-anchor="start" x="62.5219" y="-506.8" font-family="Helvetica,sans-Serif" font-size="11.00" fill="#000000">[table]</text>
<polygon fill="none" stroke="#000000" points="19,-479.7 19,-498.7 97,-498.7 97,-479.7 19,-479.7"/>
<text text-anchor="start" x="22" y="-485.8" font-family="Helvetica,sans-Serif" font-size="11.00" fill="#000000">...</text>
<polygon fill="#ffffff" stroke="transparent" points="19,-460.7 19,-479.7 52,-479.7 52,-460.7 19,-460.7"/>
<polygon fill="none" stroke="#000000" points="19,-460.7 19,-479.7 52,-479.7 52,-460.7 19,-460.7"/>
<text text-anchor="start" x="22" y="-466.8" font-family="Helvetica,sans-Serif" font-size="11.00" fill="#000000">&lt; 1</text>
<polygon fill="#ffffff" stroke="transparent" points="52,-460.7 52,-479.7 70,-479.7 70,-460.7 52,-460.7"/>
<polygon fill="none" stroke="#000000" points="52,-460.7 52,-479.7 70,-479.7 70,-460.7 52,-460.7"/>
<text text-anchor="start" x="60.8862" y="-466.8" font-family="Helvetica,sans-Serif" font-size="11.00" fill="#000000"> &#160;</text>
<polygon fill="#ffffff" stroke="transparent" points="70,-460.7 70,-479.7 97,-479.7 97,-460.7 70,-460.7"/>
<polygon fill="none" stroke="#000000" points="70,-460.7 70,-479.7 97,-479.7 97,-460.7 70,-460.7"/>
<text text-anchor="start" x="78.4053" y="-466.8" font-family="Helvetica,sans-Serif" font-size="11.00" fill="#000000">2 &gt;</text>
</a>
</g>
</g>
<!-- fare_rules&#45;&gt;routes -->
<g id="edge3" class="edge">
<title>fare_rules:w&#45;&gt;routes:e</title>
<path fill="none" stroke="#000000" d="M410.8519,-517.6007C276.3848,-515.7515 238.5582,-488.7 97,-488.7"/>
<polygon fill="#000000" stroke="#000000" points="417.5002,-517.6457 425.4756,-521.2999 421.5001,-517.6729 425.5,-517.7 425.5,-517.7 425.5,-517.7 421.5001,-517.6729 425.5244,-514.1001 417.5002,-517.6457 417.5002,-517.6457"/>
<ellipse fill="none" stroke="#000000" cx="414.3003" cy="-517.624" rx="3.2" ry="3.2"/>
</g>
<!-- frequencies -->
<g id="node4" class="node">
<title>frequencies</title>
<g id="a_node4"><a xlink:href="../../tables/frequencies.html" xlink:title="frequencies" target="_top">
<polygon fill="#ffffff" stroke="transparent" points="420,-38.2 420,-99.2 529,-99.2 529,-38.2 420,-38.2"/>
<polygon fill="#f5f5f5" stroke="transparent" points="420.5,-75.7 420.5,-98.7 529.5,-98.7 529.5,-75.7 420.5,-75.7"/>
<polygon fill="none" stroke="#000000" points="420.5,-75.7 420.5,-98.7 529.5,-98.7 529.5,-75.7 420.5,-75.7"/>
<text text-anchor="start" x="425.5" y="-84.3" font-family="Helvetica,sans-Serif" font-weight="bold" font-size="11.00" fill="#000000">frequencies</text>
<text text-anchor="start" x="495.0219" y="-83.8" font-family="Helvetica,sans-Serif" font-size="11.00" fill="#000000">[table]</text>
<polygon fill="none" stroke="#000000" points="420.5,-56.7 420.5,-75.7 529.5,-75.7 529.5,-56.7 420.5,-56.7"/>
<text text-anchor="start" x="423.5" y="-62.8" font-family="Helvetica,sans-Serif" font-size="11.00" fill="#000000">...</text>
<polygon fill="#ffffff" stroke="transparent" points="420.5,-37.7 420.5,-56.7 473.5,-56.7 473.5,-37.7 420.5,-37.7"/>
<polygon fill="none" stroke="#000000" points="420.5,-37.7 420.5,-56.7 473.5,-56.7 473.5,-37.7 420.5,-37.7"/>
<text text-anchor="start" x="423.5" y="-43.8" font-family="Helvetica,sans-Serif" font-size="11.00" fill="#000000">&lt; 1</text>
<polygon fill="#ffffff" stroke="transparent" points="473.5,-37.7 473.5,-56.7 501.5,-56.7 501.5,-37.7 473.5,-37.7"/>
<polygon fill="none" stroke="#000000" points="473.5,-37.7 473.5,-56.7 501.5,-56.7 501.5,-37.7 473.5,-37.7"/>
<text text-anchor="start" x="492.3862" y="-43.8" font-family="Helvetica,sans-Serif" font-size="11.00" fill="#000000"> &#160;</text>
<polygon fill="#ffffff" stroke="transparent" points="501.5,-37.7 501.5,-56.7 529.5,-56.7 529.5,-37.7 501.5,-37.7"/>
<polygon fill="none" stroke="#000000" points="501.5,-37.7 501.5,-56.7 529.5,-56.7 529.5,-37.7 501.5,-37.7"/>
<text text-anchor="start" x="520.3862" y="-43.8" font-family="Helvetica,sans-Serif" font-size="11.00" fill="#000000"> &#160;</text>
</a>
</g>
</g>
<!-- trips -->
<g id="node5" class="node">
<title>trips</title>
<g id="a_node5"><a xlink:href="../../tables/trips.html" xlink:title="trips" target="_top">
<polygon fill="#ffffff" stroke="transparent" points="157,-179.2 157,-372.2 309,-372.2 309,-179.2 157,-179.2"/>
<polygon fill="#f5f5f5" stroke="transparent" points="157,-348.7 157,-371.7 309,-371.7 309,-348.7 157,-348.7"/>
<polygon fill="none" stroke="#000000" points="157,-348.7 157,-371.7 309,-371.7 309,-348.7 157,-348.7"/>
<text text-anchor="start" x="162" y="-357.3" font-family="Helvetica,sans-Serif" font-weight="bold" font-size="11.00" fill="#000000">trips</text>
<text text-anchor="start" x="274.0437" y="-356.8" font-family="Helvetica,sans-Serif" font-size="11.00" fill="#000000">[table]</text>
<polygon fill="none" stroke="#000000" points="157,-326.7 157,-348.7 309,-348.7 309,-326.7 157,-326.7"/>
<image xlink:href="../../images/primaryKeys.png" width="11px" height="12px" preserveAspectRatio="xMinYMin meet" x="162" y="-343.7"/>
<text text-anchor="start" x="177" y="-333.8" font-family="Helvetica,sans-Serif" font-size="11.00" fill="#000000">trip_id</text>
<polygon fill="none" stroke="#000000" points="157,-304.7 157,-326.7 309,-326.7 309,-304.7 157,-304.7"/>
<image xlink:href="../../images/foreignKeys.png" width="11px" height="12px" preserveAspectRatio="xMinYMin meet" x="162" y="-321.7"/>
<text text-anchor="start" x="177" y="-311.8" font-family="Helvetica,sans-Serif" font-size="11.00" fill="#000000">route_id</text>
<polygon fill="none" stroke="#000000" points="157,-282.7 157,-304.7 309,-304.7 309,-282.7 157,-282.7"/>
<image xlink:href="../../images/foreignKeys.png" width="11px" height="12px" preserveAspectRatio="xMinYMin meet" x="162" y="-299.7"/>
<text text-anchor="start" x="177" y="-289.8" font-family="Helvetica,sans-Serif" font-size="11.00" fill="#000000">service_id</text>
<polygon fill="none" stroke="#000000" points="157,-260.7 157,-282.7 309,-282.7 309,-260.7 157,-260.7"/>
<image xlink:href="../../images/foreignKeys.png" width="11px" height="12px" preserveAspectRatio="xMinYMin meet" x="162" y="-277.7"/>
<text text-anchor="start" x="177" y="-267.8" font-family="Helvetica,sans-Serif" font-size="11.00" fill="#000000">shape_id</text>
<polygon fill="none" stroke="#000000" points="157,-238.7 157,-260.7 309,-260.7 309,-238.7 157,-238.7"/>
<image xlink:href="../../images/foreignKeys.png" width="11px" height="12px" preserveAspectRatio="xMinYMin meet" x="162" y="-255.7"/>
<text text-anchor="start" x="177" y="-245.8" font-family="Helvetica,sans-Serif" font-size="11.00" fill="#000000">jp_office_id</text>
<polygon fill="none" stroke="#000000" points="157,-216.7 157,-238.7 309,-238.7 309,-216.7 157,-216.7"/>
<image xlink:href="../../images/foreignKeys.png" width="11px" height="12px" preserveAspectRatio="xMinYMin meet" x="162" y="-233.7"/>
<text text-anchor="start" x="177" y="-223.8" font-family="Helvetica,sans-Serif" font-size="11.00" fill="#000000">jp_pattern_id</text>
<polygon fill="none" stroke="#000000" points="157,-197.7 157,-216.7 309,-216.7 309,-197.7 157,-197.7"/>
<text text-anchor="start" x="160" y="-203.8" font-family="Helvetica,sans-Serif" font-size="11.00" fill="#000000">...</text>
<polygon fill="#ffffff" stroke="transparent" points="157,-178.7 157,-197.7 227,-197.7 227,-178.7 157,-178.7"/>
<polygon fill="none" stroke="#000000" points="157,-178.7 157,-197.7 227,-197.7 227,-178.7 157,-178.7"/>
<text text-anchor="start" x="160" y="-184.8" font-family="Helvetica,sans-Serif" font-size="11.00" fill="#000000">&lt; 5</text>
<polygon fill="#ffffff" stroke="transparent" points="227,-178.7 227,-197.7 263,-197.7 263,-178.7 227,-178.7"/>
<polygon fill="none" stroke="#000000" points="227,-178.7 227,-197.7 263,-197.7 263,-178.7 227,-178.7"/>
<text text-anchor="start" x="253.8862" y="-184.8" font-family="Helvetica,sans-Serif" font-size="11.00" fill="#000000"> &#160;</text>
<polygon fill="#ffffff" stroke="transparent" points="263,-178.7 263,-197.7 309,-197.7 309,-178.7 263,-178.7"/>
<polygon fill="none" stroke="#000000" points="263,-178.7 263,-197.7 309,-197.7 309,-178.7 263,-178.7"/>
<text text-anchor="start" x="290.4053" y="-184.8" font-family="Helvetica,sans-Serif" font-size="11.00" fill="#000000">2 &gt;</text>
</a>
</g>
</g>
<!-- frequencies&#45;&gt;trips -->
<g id="edge4" class="edge">
<title>frequencies:w&#45;&gt;trips:e</title>
<path fill="none" stroke="#000000" d="M405.898,-66.5523C379.686,-69.9377 367.7202,-83.5399 350,-109.7 321.1292,-152.3216 360.4793,-337.7 309,-337.7"/>
<polygon fill="#000000" stroke="#000000" points="412.5136,-66.1662 420.7098,-69.2939 416.5068,-65.9331 420.5,-65.7 420.5,-65.7 420.5,-65.7 416.5068,-65.9331 420.2902,-62.1061 412.5136,-66.1662 412.5136,-66.1662"/>
<ellipse fill="none" stroke="#000000" cx="409.319" cy="-66.3527" rx="3.2" ry="3.2"/>
</g>
<!-- trips&#45;&gt;routes -->
<g id="edge11" class="edge">
<title>trips:w&#45;&gt;routes:e</title>
<path fill="none" stroke="#000000" d="M142.7742,-318.0148C88.8073,-338.5439 172.8187,-488.7 97,-488.7"/>
<polygon fill="#000000" stroke="#000000" points="149.1038,-316.9849 157.5782,-319.2533 153.0519,-316.3424 157,-315.7 157,-315.7 157,-315.7 153.0519,-316.3424 156.4218,-312.1467 149.1038,-316.9849 149.1038,-316.9849"/>
<ellipse fill="none" stroke="#000000" cx="145.9454" cy="-317.4988" rx="3.2" ry="3.2"/>
</g>
<!-- office_jp -->
<g id="node8" class="node">
<title>office_jp</title>
<g id="a_node8"><a xlink:href="../../tables/office_jp.html" xlink:title="office_jp" target="_top">
<polygon fill="#ffffff" stroke="transparent" points="14,-192.2 14,-253.2 102,-253.2 102,-192.2 14,-192.2"/>
<polygon fill="#f5f5f5" stroke="transparent" points="14,-229.7 14,-252.7 102,-252.7 102,-229.7 14,-229.7"/>
<polygon fill="none" stroke="#000000" points="14,-229.7 14,-252.7 102,-252.7 102,-229.7 14,-229.7"/>
<text text-anchor="start" x="19" y="-238.3" font-family="Helvetica,sans-Serif" font-weight="bold" font-size="11.00" fill="#000000">office_jp</text>
<text text-anchor="start" x="67.5219" y="-237.8" font-family="Helvetica,sans-Serif" font-size="11.00" fill="#000000">[table]</text>
<polygon fill="none" stroke="#000000" points="14,-210.7 14,-229.7 102,-229.7 102,-210.7 14,-210.7"/>
<text text-anchor="start" x="17" y="-216.8" font-family="Helvetica,sans-Serif" font-size="11.00" fill="#000000">...</text>
<polygon fill="#ffffff" stroke="transparent" points="14,-191.7 14,-210.7 47,-210.7 47,-191.7 14,-191.7"/>
<polygon fill="none" stroke="#000000" points="14,-191.7 14,-210.7 47,-210.7 47,-191.7 14,-191.7"/>
<text text-anchor="start" x="17" y="-197.8" font-family="Helvetica,sans-Serif" font-size="11.00" fill="#000000"> &#160;</text>
<polygon fill="#ffffff" stroke="transparent" points="47,-191.7 47,-210.7 70,-210.7 70,-191.7 47,-191.7"/>
<polygon fill="none" stroke="#000000" points="47,-191.7 47,-210.7 70,-210.7 70,-191.7 47,-191.7"/>
<text text-anchor="start" x="60.8862" y="-197.8" font-family="Helvetica,sans-Serif" font-size="11.00" fill="#000000"> &#160;</text>
<polygon fill="#ffffff" stroke="transparent" points="70,-191.7 70,-210.7 102,-210.7 102,-191.7 70,-191.7"/>
<polygon fill="none" stroke="#000000" points="70,-191.7 70,-210.7 102,-210.7 102,-191.7 70,-191.7"/>
<text text-anchor="start" x="83.4053" y="-197.8" font-family="Helvetica,sans-Serif" font-size="11.00" fill="#000000">1 &gt;</text>
</a>
</g>
</g>
<!-- trips&#45;&gt;office_jp -->
<g id="edge9" class="edge">
<title>trips:w&#45;&gt;office_jp:e</title>
<path fill="none" stroke="#000000" d="M142.6528,-246.2586C128.1766,-238.3786 123.9709,-219.7 102,-219.7"/>
<polygon fill="#000000" stroke="#000000" points="149.2207,-247.834 156.1603,-253.2007 153.1103,-248.767 157,-249.7 157,-249.7 157,-249.7 153.1103,-248.767 157.8397,-246.1993 149.2207,-247.834 149.2207,-247.834"/>
<ellipse fill="none" stroke="#000000" cx="146.1089" cy="-247.0876" rx="3.2" ry="3.2"/>
</g>
<!-- pattern_jp -->
<g id="node9" class="node">
<title>pattern_jp</title>
<g id="a_node9"><a xlink:href="../../tables/pattern_jp.html" xlink:title="pattern_jp" target="_top">
<polygon fill="#ffffff" stroke="transparent" points="8,-110.2 8,-171.2 108,-171.2 108,-110.2 8,-110.2"/>
<polygon fill="#f5f5f5" stroke="transparent" points="8,-147.7 8,-170.7 108,-170.7 108,-147.7 8,-147.7"/>
<polygon fill="none" stroke="#000000" points="8,-147.7 8,-170.7 108,-170.7 108,-147.7 8,-147.7"/>
<text text-anchor="start" x="13" y="-156.3" font-family="Helvetica,sans-Serif" font-weight="bold" font-size="11.00" fill="#000000">pattern_jp</text>
<text text-anchor="start" x="73.5219" y="-155.8" font-family="Helvetica,sans-Serif" font-size="11.00" fill="#000000">[table]</text>
<polygon fill="none" stroke="#000000" points="8,-128.7 8,-147.7 108,-147.7 108,-128.7 8,-128.7"/>
<text text-anchor="start" x="11" y="-134.8" font-family="Helvetica,sans-Serif" font-size="11.00" fill="#000000">...</text>
<polygon fill="#ffffff" stroke="transparent" points="8,-109.7 8,-128.7 47,-128.7 47,-109.7 8,-109.7"/>
<polygon fill="none" stroke="#000000" points="8,-109.7 8,-128.7 47,-128.7 47,-109.7 8,-109.7"/>
<text text-anchor="start" x="11" y="-115.8" font-family="Helvetica,sans-Serif" font-size="11.00" fill="#000000"> &#160;</text>
<polygon fill="#ffffff" stroke="transparent" points="47,-109.7 47,-128.7 73,-128.7 73,-109.7 47,-109.7"/>
<polygon fill="none" stroke="#000000" points="47,-109.7 47,-128.7 73,-128.7 73,-109.7 47,-109.7"/>
<text text-anchor="start" x="63.8862" y="-115.8" font-family="Helvetica,sans-Serif" font-size="11.00" fill="#000000"> &#160;</text>
<polygon fill="#ffffff" stroke="transparent" points="73,-109.7 73,-128.7 108,-128.7 108,-109.7 73,-109.7"/>
<polygon fill="none" stroke="#000000" points="73,-109.7 73,-128.7 108,-128.7 108,-109.7 73,-109.7"/>
<text text-anchor="start" x="89.4053" y="-115.8" font-family="Helvetica,sans-Serif" font-size="11.00" fill="#000000">1 &gt;</text>
</a>
</g>
</g>
<!-- trips&#45;&gt;pattern_jp -->
<g id="edge10" class="edge">
<title>trips:w&#45;&gt;pattern_jp:e</title>
<path fill="none" stroke="#000000" d="M143.0802,-223.3591C121.0898,-205.3813 147.4953,-137.7 108,-137.7"/>
<polygon fill="#000000" stroke="#000000" points="149.3627,-225.3183 155.9282,-231.1368 153.1814,-226.5091 157,-227.7 157,-227.7 157,-227.7 153.1814,-226.5091 158.0718,-224.2632 149.3627,-225.3183 149.3627,-225.3183"/>
<ellipse fill="none" stroke="#000000" cx="146.3078" cy="-224.3656" rx="3.2" ry="3.2"/>
</g>
<!-- calendar -->
<g id="node10" class="node">
<title>calendar</title>
<g id="a_node10"><a xlink:href="../../tables/calendar.html" xlink:title="calendar" target="_top">
<polygon fill="#ffffff" stroke="transparent" points="12.5,-356.2 12.5,-417.2 103.5,-417.2 103.5,-356.2 12.5,-356.2"/>
<polygon fill="#f5f5f5" stroke="transparent" points="13,-393.7 13,-416.7 104,-416.7 104,-393.7 13,-393.7"/>
<polygon fill="none" stroke="#000000" points="13,-393.7 13,-416.7 104,-416.7 104,-393.7 13,-393.7"/>
<text text-anchor="start" x="18" y="-402.3" font-family="Helvetica,sans-Serif" font-weight="bold" font-size="11.00" fill="#000000">calendar</text>
<text text-anchor="start" x="69.5219" y="-401.8" font-family="Helvetica,sans-Serif" font-size="11.00" fill="#000000">[table]</text>
<polygon fill="none" stroke="#000000" points="13,-374.7 13,-393.7 104,-393.7 104,-374.7 13,-374.7"/>
<text text-anchor="start" x="16" y="-380.8" font-family="Helvetica,sans-Serif" font-size="11.00" fill="#000000">...</text>
<polygon fill="#ffffff" stroke="transparent" points="13,-355.7 13,-374.7 48,-374.7 48,-355.7 13,-355.7"/>
<polygon fill="none" stroke="#000000" points="13,-355.7 13,-374.7 48,-374.7 48,-355.7 13,-355.7"/>
<text text-anchor="start" x="16" y="-361.8" font-family="Helvetica,sans-Serif" font-size="11.00" fill="#000000"> &#160;</text>
<polygon fill="#ffffff" stroke="transparent" points="48,-355.7 48,-374.7 71,-374.7 71,-355.7 48,-355.7"/>
<polygon fill="none" stroke="#000000" points="48,-355.7 48,-374.7 71,-374.7 71,-355.7 48,-355.7"/>
<text text-anchor="start" x="61.8862" y="-361.8" font-family="Helvetica,sans-Serif" font-size="11.00" fill="#000000"> &#160;</text>
<polygon fill="#ffffff" stroke="transparent" points="71,-355.7 71,-374.7 104,-374.7 104,-355.7 71,-355.7"/>
<polygon fill="none" stroke="#000000" points="71,-355.7 71,-374.7 104,-374.7 104,-355.7 71,-355.7"/>
<text text-anchor="start" x="85.4053" y="-361.8" font-family="Helvetica,sans-Serif" font-size="11.00" fill="#000000">1 &gt;</text>
</a>
</g>
</g>
<!-- trips&#45;&gt;calendar -->
<g id="edge12" class="edge">
<title>trips:w&#45;&gt;calendar:e</title>
<path fill="none" stroke="#000000" d="M142.9789,-297.801C119.4176,-315.4076 144.4366,-383.7 104,-383.7"/>
<polygon fill="#000000" stroke="#000000" points="149.3217,-295.9458 158.0106,-297.1552 153.1608,-294.8229 157,-293.7 157,-293.7 157,-293.7 153.1608,-294.8229 155.9894,-290.2448 149.3217,-295.9458 149.3217,-295.9458"/>
<ellipse fill="none" stroke="#000000" cx="146.2504" cy="-296.8442" rx="3.2" ry="3.2"/>
</g>
<!-- shapes -->
<g id="node11" class="node">
<title>shapes</title>
<g id="a_node11"><a xlink:href="../../tables/shapes.html" xlink:title="shapes" target="_top">
<polygon fill="#ffffff" stroke="transparent" points="18,-274.2 18,-335.2 98,-335.2 98,-274.2 18,-274.2"/>
<polygon fill="#f5f5f5" stroke="transparent" points="18,-311.7 18,-334.7 98,-334.7 98,-311.7 18,-311.7"/>
<polygon fill="none" stroke="#000000" points="18,-311.7 18,-334.7 98,-334.7 98,-311.7 18,-311.7"/>
<text text-anchor="start" x="23" y="-320.3" font-family="Helvetica,sans-Serif" font-weight="bold" font-size="11.00" fill="#000000">shapes</text>
<text text-anchor="start" x="63.5219" y="-319.8" font-family="Helvetica,sans-Serif" font-size="11.00" fill="#000000">[table]</text>
<polygon fill="none" stroke="#000000" points="18,-292.7 18,-311.7 98,-311.7 98,-292.7 18,-292.7"/>
<text text-anchor="start" x="21" y="-298.8" font-family="Helvetica,sans-Serif" font-size="11.00" fill="#000000">...</text>
<polygon fill="#ffffff" stroke="transparent" points="18,-273.7 18,-292.7 47,-292.7 47,-273.7 18,-273.7"/>
<polygon fill="none" stroke="#000000" points="18,-273.7 18,-292.7 47,-292.7 47,-273.7 18,-273.7"/>
<text text-anchor="start" x="21" y="-279.8" font-family="Helvetica,sans-Serif" font-size="11.00" fill="#000000"> &#160;</text>
<polygon fill="#ffffff" stroke="transparent" points="47,-273.7 47,-292.7 68,-292.7 68,-273.7 47,-273.7"/>
<polygon fill="none" stroke="#000000" points="47,-273.7 47,-292.7 68,-292.7 68,-273.7 47,-273.7"/>
<text text-anchor="start" x="58.8862" y="-279.8" font-family="Helvetica,sans-Serif" font-size="11.00" fill="#000000"> &#160;</text>
<polygon fill="#ffffff" stroke="transparent" points="68,-273.7 68,-292.7 98,-292.7 98,-273.7 68,-273.7"/>
<polygon fill="none" stroke="#000000" points="68,-273.7 68,-292.7 98,-292.7 98,-273.7 68,-273.7"/>
<text text-anchor="start" x="79.4053" y="-279.8" font-family="Helvetica,sans-Serif" font-size="11.00" fill="#000000">1 &gt;</text>
</a>
</g>
</g>
<!-- trips&#45;&gt;shapes -->
<g id="edge13" class="edge">
<title>trips:w&#45;&gt;shapes:e</title>
<path fill="none" stroke="#000000" d="M142.675,-274.6862C126.4022,-282.2743 121.6718,-301.7 98,-301.7"/>
<polygon fill="#000000" stroke="#000000" points="149.1684,-273.3326 157.7347,-275.2242 153.0842,-272.5163 157,-271.7 157,-271.7 157,-271.7 153.0842,-272.5163 156.2653,-268.1758 149.1684,-273.3326 149.1684,-273.3326"/>
<ellipse fill="none" stroke="#000000" cx="146.0357" cy="-273.9857" rx="3.2" ry="3.2"/>
</g>
<!-- stop_times -->
<g id="node6" class="node">
<title>stop_times</title>
<g id="a_node6"><a xlink:href="../../tables/stop_times.html" xlink:title="stop_times" target="_top">
<polygon fill="#ffffff" stroke="transparent" points="358,-120.7 358,-386.7 591,-386.7 591,-120.7 358,-120.7"/>
<polygon fill="#f5f5f5" stroke="transparent" points="360.5,-361.7 360.5,-384.7 589.5,-384.7 589.5,-361.7 360.5,-361.7"/>
<polygon fill="none" stroke="#000000" points="360.5,-361.7 360.5,-384.7 589.5,-384.7 589.5,-361.7 360.5,-361.7"/>
<text text-anchor="start" x="365.5" y="-370.3" font-family="Helvetica,sans-Serif" font-weight="bold" font-size="11.00" fill="#000000">stop_times</text>
<text text-anchor="start" x="554.5437" y="-369.8" font-family="Helvetica,sans-Serif" font-size="11.00" fill="#000000">[table]</text>
<polygon fill="none" stroke="#000000" points="360.5,-339.7 360.5,-361.7 499.5,-361.7 499.5,-339.7 360.5,-339.7"/>
<image xlink:href="../../images/foreignKeys.png" width="11px" height="12px" preserveAspectRatio="xMinYMin meet" x="365.5" y="-356.7"/>
<text text-anchor="start" x="380.5" y="-346.8" font-family="Helvetica,sans-Serif" font-size="11.00" fill="#000000">trip_id</text>
<polygon fill="none" stroke="#000000" points="499.5,-339.7 499.5,-361.7 589.5,-361.7 589.5,-339.7 499.5,-339.7"/>
<text text-anchor="start" x="502.5" y="-347.4" font-family="Helvetica,sans-Serif" font-size="11.00" fill="#000000">varchar[64]</text>
<polygon fill="none" stroke="#000000" points="360.5,-317.7 360.5,-339.7 499.5,-339.7 499.5,-317.7 360.5,-317.7"/>
<text text-anchor="start" x="380.5" y="-324.8" font-family="Helvetica,sans-Serif" font-size="11.00" fill="#000000">arrival_time</text>
<polygon fill="none" stroke="#000000" points="499.5,-317.7 499.5,-339.7 589.5,-339.7 589.5,-317.7 499.5,-317.7"/>
<text text-anchor="start" x="502.5" y="-325.4" font-family="Helvetica,sans-Serif" font-size="11.00" fill="#000000">varchar[8]</text>
<polygon fill="none" stroke="#000000" points="360.5,-295.7 360.5,-317.7 499.5,-317.7 499.5,-295.7 360.5,-295.7"/>
<text text-anchor="start" x="380.5" y="-302.8" font-family="Helvetica,sans-Serif" font-size="11.00" fill="#000000">departure_time</text>
<polygon fill="none" stroke="#000000" points="499.5,-295.7 499.5,-317.7 589.5,-317.7 589.5,-295.7 499.5,-295.7"/>
<text text-anchor="start" x="502.5" y="-303.4" font-family="Helvetica,sans-Serif" font-size="11.00" fill="#000000">varchar[8]</text>
<polygon fill="none" stroke="#000000" points="360.5,-273.7 360.5,-295.7 499.5,-295.7 499.5,-273.7 360.5,-273.7"/>
<image xlink:href="../../images/foreignKeys.png" width="11px" height="12px" preserveAspectRatio="xMinYMin meet" x="365.5" y="-290.7"/>
<text text-anchor="start" x="380.5" y="-280.8" font-family="Helvetica,sans-Serif" font-size="11.00" fill="#000000">stop_id</text>
<polygon fill="none" stroke="#000000" points="499.5,-273.7 499.5,-295.7 589.5,-295.7 589.5,-273.7 499.5,-273.7"/>
<text text-anchor="start" x="502.5" y="-281.4" font-family="Helvetica,sans-Serif" font-size="11.00" fill="#000000">varchar[64]</text>
<polygon fill="none" stroke="#000000" points="360.5,-251.7 360.5,-273.7 499.5,-273.7 499.5,-251.7 360.5,-251.7"/>
<text text-anchor="start" x="380.5" y="-258.8" font-family="Helvetica,sans-Serif" font-size="11.00" fill="#000000">stop_sequence</text>
<polygon fill="none" stroke="#000000" points="499.5,-251.7 499.5,-273.7 589.5,-273.7 589.5,-251.7 499.5,-251.7"/>
<text text-anchor="start" x="502.5" y="-259.4" font-family="Helvetica,sans-Serif" font-size="11.00" fill="#000000">int4[10]</text>
<polygon fill="none" stroke="#000000" points="360.5,-229.7 360.5,-251.7 499.5,-251.7 499.5,-229.7 360.5,-229.7"/>
<text text-anchor="start" x="380.5" y="-236.8" font-family="Helvetica,sans-Serif" font-size="11.00" fill="#000000">stop_headsign</text>
<polygon fill="none" stroke="#000000" points="499.5,-229.7 499.5,-251.7 589.5,-251.7 589.5,-229.7 499.5,-229.7"/>
<text text-anchor="start" x="502.0043" y="-237.4" font-family="Helvetica,sans-Serif" font-size="11.00" fill="#000000">text[2147483647]</text>
<polygon fill="none" stroke="#000000" points="360.5,-207.7 360.5,-229.7 499.5,-229.7 499.5,-207.7 360.5,-207.7"/>
<text text-anchor="start" x="380.5" y="-214.8" font-family="Helvetica,sans-Serif" font-size="11.00" fill="#000000">pickup_type</text>
<polygon fill="none" stroke="#000000" points="499.5,-207.7 499.5,-229.7 589.5,-229.7 589.5,-207.7 499.5,-207.7"/>
<text text-anchor="start" x="502.5" y="-215.4" font-family="Helvetica,sans-Serif" font-size="11.00" fill="#000000">int2[5]</text>
<polygon fill="none" stroke="#000000" points="360.5,-185.7 360.5,-207.7 499.5,-207.7 499.5,-185.7 360.5,-185.7"/>
<text text-anchor="start" x="380.5" y="-192.8" font-family="Helvetica,sans-Serif" font-size="11.00" fill="#000000">drop_off_type</text>
<polygon fill="none" stroke="#000000" points="499.5,-185.7 499.5,-207.7 589.5,-207.7 589.5,-185.7 499.5,-185.7"/>
<text text-anchor="start" x="502.5" y="-193.4" font-family="Helvetica,sans-Serif" font-size="11.00" fill="#000000">int2[5]</text>
<polygon fill="none" stroke="#000000" points="360.5,-163.7 360.5,-185.7 499.5,-185.7 499.5,-163.7 360.5,-163.7"/>
<text text-anchor="start" x="380.5" y="-170.8" font-family="Helvetica,sans-Serif" font-size="11.00" fill="#000000">shape_dist_traveled</text>
<polygon fill="none" stroke="#000000" points="499.5,-163.7 499.5,-185.7 589.5,-185.7 589.5,-163.7 499.5,-163.7"/>
<text text-anchor="start" x="502.5" y="-171.4" font-family="Helvetica,sans-Serif" font-size="11.00" fill="#000000">float8[17,17]</text>
<polygon fill="none" stroke="#000000" points="360.5,-141.7 360.5,-163.7 499.5,-163.7 499.5,-141.7 360.5,-141.7"/>
<text text-anchor="start" x="380.5" y="-148.8" font-family="Helvetica,sans-Serif" font-size="11.00" fill="#000000">timepoint</text>
<polygon fill="none" stroke="#000000" points="499.5,-141.7 499.5,-163.7 589.5,-163.7 589.5,-141.7 499.5,-141.7"/>
<text text-anchor="start" x="502.5" y="-149.4" font-family="Helvetica,sans-Serif" font-size="11.00" fill="#000000">int2[5]</text>
<polygon fill="#ffffff" stroke="transparent" points="360.5,-122.7 360.5,-141.7 434.5,-141.7 434.5,-122.7 360.5,-122.7"/>
<polygon fill="none" stroke="#000000" points="360.5,-122.7 360.5,-141.7 434.5,-141.7 434.5,-122.7 360.5,-122.7"/>
<text text-anchor="start" x="363.5" y="-128.8" font-family="Helvetica,sans-Serif" font-size="11.00" fill="#000000">&lt; 2</text>
<polygon fill="#ffffff" stroke="transparent" points="434.5,-122.7 434.5,-141.7 499.5,-141.7 499.5,-122.7 434.5,-122.7"/>
<polygon fill="none" stroke="#000000" points="434.5,-122.7 434.5,-141.7 499.5,-141.7 499.5,-122.7 434.5,-122.7"/>
<text text-anchor="start" x="490.3862" y="-128.8" font-family="Helvetica,sans-Serif" font-size="11.00" fill="#000000"> &#160;</text>
<polygon fill="#ffffff" stroke="transparent" points="499.5,-122.7 499.5,-141.7 589.5,-141.7 589.5,-122.7 499.5,-122.7"/>
<polygon fill="none" stroke="#000000" points="499.5,-122.7 499.5,-141.7 589.5,-141.7 589.5,-122.7 499.5,-122.7"/>
<text text-anchor="start" x="570.9053" y="-128.8" font-family="Helvetica,sans-Serif" font-size="11.00" fill="#000000">0 &gt;</text>
<polygon fill="none" stroke="#000000" stroke-width="2" points="359,-121.7 359,-385.7 590,-385.7 590,-121.7 359,-121.7"/>
</a>
</g>
</g>
<!-- stop_times&#45;&gt;stops -->
<g id="edge5" class="edge">
<title>stop_times:w&#45;&gt;stops:e</title>
<path fill="none" stroke="#000000" d="M346.0886,-287.425C300.1842,-308.273 374.0919,-441.7 306,-441.7"/>
<polygon fill="#000000" stroke="#000000" points="352.6393,-286.1864 361.1689,-288.2373 356.5696,-285.4432 360.5,-284.7 360.5,-284.7 360.5,-284.7 356.5696,-285.4432 359.8311,-281.1627 352.6393,-286.1864 352.6393,-286.1864"/>
<ellipse fill="none" stroke="#000000" cx="349.495" cy="-286.781" rx="3.2" ry="3.2"/>
</g>
<!-- stop_times&#45;&gt;trips -->
<g id="edge6" class="edge">
<title>stop_times:w&#45;&gt;trips:e</title>
<path fill="none" stroke="#000000" d="M346.199,-348.7818C333.6837,-345.1656 326.8896,-337.7 309,-337.7"/>
<polygon fill="#000000" stroke="#000000" points="352.571,-349.6364 360.0214,-354.268 356.5355,-350.1682 360.5,-350.7 360.5,-350.7 360.5,-350.7 356.5355,-350.1682 360.9786,-347.132 352.571,-349.6364 352.571,-349.6364"/>
<ellipse fill="none" stroke="#000000" cx="349.3994" cy="-349.211" rx="3.2" ry="3.2"/>
</g>
<!-- transfers -->
<g id="node7" class="node">
<title>transfers</title>
<g id="a_node7"><a xlink:href="../../tables/transfers.html" xlink:title="transfers" target="_top">
<polygon fill="#ffffff" stroke="transparent" points="428,-408.2 428,-469.2 521,-469.2 521,-408.2 428,-408.2"/>
<polygon fill="#f5f5f5" stroke="transparent" points="428.5,-445.7 428.5,-468.7 521.5,-468.7 521.5,-445.7 428.5,-445.7"/>
<polygon fill="none" stroke="#000000" points="428.5,-445.7 428.5,-468.7 521.5,-468.7 521.5,-445.7 428.5,-445.7"/>
<text text-anchor="start" x="433.5" y="-454.3" font-family="Helvetica,sans-Serif" font-weight="bold" font-size="11.00" fill="#000000">transfers</text>
<text text-anchor="start" x="487.0219" y="-453.8" font-family="Helvetica,sans-Serif" font-size="11.00" fill="#000000">[table]</text>
<polygon fill="none" stroke="#000000" points="428.5,-426.7 428.5,-445.7 521.5,-445.7 521.5,-426.7 428.5,-426.7"/>
<text text-anchor="start" x="431.5" y="-432.8" font-family="Helvetica,sans-Serif" font-size="11.00" fill="#000000">...</text>
<polygon fill="#ffffff" stroke="transparent" points="428.5,-407.7 428.5,-426.7 473.5,-426.7 473.5,-407.7 428.5,-407.7"/>
<polygon fill="none" stroke="#000000" points="428.5,-407.7 428.5,-426.7 473.5,-426.7 473.5,-407.7 428.5,-407.7"/>
<text text-anchor="start" x="431.5" y="-413.8" font-family="Helvetica,sans-Serif" font-size="11.00" fill="#000000">&lt; 2</text>
<polygon fill="#ffffff" stroke="transparent" points="473.5,-407.7 473.5,-426.7 497.5,-426.7 497.5,-407.7 473.5,-407.7"/>
<polygon fill="none" stroke="#000000" points="473.5,-407.7 473.5,-426.7 497.5,-426.7 497.5,-407.7 473.5,-407.7"/>
<text text-anchor="start" x="488.3862" y="-413.8" font-family="Helvetica,sans-Serif" font-size="11.00" fill="#000000"> &#160;</text>
<polygon fill="#ffffff" stroke="transparent" points="497.5,-407.7 497.5,-426.7 521.5,-426.7 521.5,-407.7 497.5,-407.7"/>
<polygon fill="none" stroke="#000000" points="497.5,-407.7 497.5,-426.7 521.5,-426.7 521.5,-407.7 497.5,-407.7"/>
<text text-anchor="start" x="512.3862" y="-413.8" font-family="Helvetica,sans-Serif" font-size="11.00" fill="#000000"> &#160;</text>
</a>
</g>
</g>
<!-- transfers&#45;&gt;stops -->
<g id="edge7" class="edge">
<title>transfers:w&#45;&gt;stops:e</title>
<path fill="none" stroke="#000000" d="M413.9052,-434.2966C371.0342,-430.8484 355.293,-436.2742 306,-441.7"/>
<polygon fill="#000000" stroke="#000000" points="420.5367,-434.9342 428.1554,-439.2835 424.5184,-435.3171 428.5,-435.7 428.5,-435.7 428.5,-435.7 424.5184,-435.3171 428.8446,-432.1165 420.5367,-434.9342 420.5367,-434.9342"/>
<ellipse fill="none" stroke="#000000" cx="417.3514" cy="-434.6279" rx="3.2" ry="3.2"/>
</g>
<!-- transfers&#45;&gt;stops -->
<g id="edge8" class="edge">
<title>transfers:w&#45;&gt;stops:e</title>
<path fill="none" stroke="#000000" d="M414.1834,-437.6325C371.1021,-443.7107 355.3994,-448.0438 306,-441.7"/>
<polygon fill="#000000" stroke="#000000" points="420.5719,-436.7702 428.9816,-439.2676 424.5359,-436.2351 428.5,-435.7 428.5,-435.7 428.5,-435.7 424.5359,-436.2351 428.0184,-432.1324 420.5719,-436.7702 420.5719,-436.7702"/>
<ellipse fill="none" stroke="#000000" cx="417.4007" cy="-437.1983" rx="3.2" ry="3.2"/>
</g>
</g>
</svg>
