<?xml version="1.0" encoding="UTF-8" standalone="no"?>
<!DOCTYPE svg PUBLIC "-//W3C//DTD SVG 1.1//EN"
 "http://www.w3.org/Graphics/SVG/1.1/DTD/svg11.dtd">
<!-- Generated by graphviz version 2.40.1 (20161225.0304)
 -->
<!-- Title: twoDegreesRelationshipsDiagram Pages: 1 -->
<svg width="578pt" height="574pt"
 viewBox="0.00 0.00 578.00 574.20" xmlns="http://www.w3.org/2000/svg" xmlns:xlink="http://www.w3.org/1999/xlink">
<g id="graph0" class="graph" transform="scale(1 1) rotate(0) translate(4 570.2)">
<title>twoDegreesRelationshipsDiagram</title>
<polygon fill="#ffffff" stroke="transparent" points="-4,4 -4,-570.2 574,-570.2 574,4 -4,4"/>
<text text-anchor="middle" x="72.4936" y="-7.3" font-family="Helvetica,sans-Serif" font-size="11.00" fill="#000000">Generated by SchemaSpy</text>
<!-- fare_rules -->
<g id="node1" class="node">
<title>fare_rules</title>
<g id="a_node1"><a xlink:href="../../tables/fare_rules.html" xlink:title="fare_rules" target="_top">
<polygon fill="#ffffff" stroke="transparent" points="439.5,-399.2 439.5,-548.2 545.5,-548.2 545.5,-399.2 439.5,-399.2"/>
<polygon fill="#f5f5f5" stroke="transparent" points="439.5,-524.7 439.5,-547.7 545.5,-547.7 545.5,-524.7 439.5,-524.7"/>
<polygon fill="none" stroke="#000000" points="439.5,-524.7 439.5,-547.7 545.5,-547.7 545.5,-524.7 439.5,-524.7"/>
<text text-anchor="start" x="444.5" y="-533.3" font-family="Helvetica,sans-Serif" font-weight="bold" font-size="11.00" fill="#000000">fare_rules</text>
<text text-anchor="start" x="510.5437" y="-532.8" font-family="Helvetica,sans-Serif" font-size="11.00" fill="#000000">[table]</text>
<polygon fill="none" stroke="#000000" points="439.5,-502.7 439.5,-524.7 545.5,-524.7 545.5,-502.7 439.5,-502.7"/>
<image xlink:href="../../images/primaryKeys.png" width="11px" height="12px" preserveAspectRatio="xMinYMin meet" x="444.5" y="-519.7"/>
<text text-anchor="start" x="459.5" y="-509.8" font-family="Helvetica,sans-Serif" font-size="11.00" fill="#000000">fare_id</text>
<polygon fill="none" stroke="#000000" points="439.5,-480.7 439.5,-502.7 545.5,-502.7 545.5,-480.7 439.5,-480.7"/>
<image xlink:href="../../images/foreignKeys.png" width="11px" height="12px" preserveAspectRatio="xMinYMin meet" x="444.5" y="-497.7"/>
<text text-anchor="start" x="459.5" y="-487.8" font-family="Helvetica,sans-Serif" font-size="11.00" fill="#000000">route_id</text>
<polygon fill="none" stroke="#000000" points="439.5,-458.7 439.5,-480.7 545.5,-480.7 545.5,-458.7 439.5,-458.7"/>
<image xlink:href="../../images/foreignKeys.png" width="11px" height="12px" preserveAspectRatio="xMinYMin meet" x="444.5" y="-475.7"/>
<text text-anchor="start" x="459.5" y="-465.8" font-family="Helvetica,sans-Serif" font-size="11.00" fill="#000000">origin_id</text>
<polygon fill="none" stroke="#000000" points="439.5,-436.7 439.5,-458.7 545.5,-458.7 545.5,-436.7 439.5,-436.7"/>
<image xlink:href="../../images/foreignKeys.png" width="11px" height="12px" preserveAspectRatio="xMinYMin meet" x="444.5" y="-453.7"/>
<text text-anchor="start" x="459.5" y="-443.8" font-family="Helvetica,sans-Serif" font-size="11.00" fill="#000000">destination_id</text>
<polygon fill="none" stroke="#000000" points="439.5,-417.7 439.5,-436.7 545.5,-436.7 545.5,-417.7 439.5,-417.7"/>
<text text-anchor="start" x="442.5" y="-423.8" font-family="Helvetica,sans-Serif" font-size="11.00" fill="#000000">...</text>
<polygon fill="#ffffff" stroke="transparent" points="439.5,-398.7 439.5,-417.7 490.5,-417.7 490.5,-398.7 439.5,-398.7"/>
<polygon fill="none" stroke="#000000" points="439.5,-398.7 439.5,-417.7 490.5,-417.7 490.5,-398.7 439.5,-398.7"/>
<text text-anchor="start" x="442.5" y="-404.8" font-family="Helvetica,sans-Serif" font-size="11.00" fill="#000000">&lt; 4</text>
<polygon fill="#ffffff" stroke="transparent" points="490.5,-398.7 490.5,-417.7 517.5,-417.7 517.5,-398.7 490.5,-398.7"/>
<polygon fill="none" stroke="#000000" points="490.5,-398.7 490.5,-417.7 517.5,-417.7 517.5,-398.7 490.5,-398.7"/>
<text text-anchor="start" x="508.3862" y="-404.8" font-family="Helvetica,sans-Serif" font-size="11.00" fill="#000000"> &#160;</text>
<polygon fill="#ffffff" stroke="transparent" points="517.5,-398.7 517.5,-417.7 545.5,-417.7 545.5,-398.7 517.5,-398.7"/>
<polygon fill="none" stroke="#000000" points="517.5,-398.7 517.5,-417.7 545.5,-417.7 545.5,-398.7 517.5,-398.7"/>
<text text-anchor="start" x="536.3862" y="-404.8" font-family="Helvetica,sans-Serif" font-size="11.00" fill="#000000"> &#160;</text>
</a>
</g>
</g>
<!-- stops -->
<g id="node2" class="node">
<title>stops</title>
<g id="a_node2"><a xlink:href="../../tables/stops.html" xlink:title="stops" target="_top">
<polygon fill="#ffffff" stroke="transparent" points="135,-120.7 135,-452.7 374,-452.7 374,-120.7 135,-120.7"/>
<polygon fill="#f5f5f5" stroke="transparent" points="137.5,-427.7 137.5,-450.7 372.5,-450.7 372.5,-427.7 137.5,-427.7"/>
<polygon fill="none" stroke="#000000" points="137.5,-427.7 137.5,-450.7 372.5,-450.7 372.5,-427.7 137.5,-427.7"/>
<text text-anchor="start" x="142.5" y="-436.3" font-family="Helvetica,sans-Serif" font-weight="bold" font-size="11.00" fill="#000000">stops</text>
<text text-anchor="start" x="337.5437" y="-435.8" font-family="Helvetica,sans-Serif" font-size="11.00" fill="#000000">[table]</text>
<polygon fill="none" stroke="#000000" points="137.5,-405.7 137.5,-427.7 282.5,-427.7 282.5,-405.7 137.5,-405.7"/>
<image xlink:href="../../images/primaryKeys.png" width="11px" height="12px" preserveAspectRatio="xMinYMin meet" x="142.5" y="-422.7"/>
<text text-anchor="start" x="157.5" y="-412.8" font-family="Helvetica,sans-Serif" font-size="11.00" fill="#000000">stop_id</text>
<polygon fill="none" stroke="#000000" points="282.5,-405.7 282.5,-427.7 372.5,-427.7 372.5,-405.7 282.5,-405.7"/>
<text text-anchor="start" x="285.5" y="-413.4" font-family="Helvetica,sans-Serif" font-size="11.00" fill="#000000">varchar[64]</text>
<polygon fill="none" stroke="#000000" points="137.5,-383.7 137.5,-405.7 282.5,-405.7 282.5,-383.7 137.5,-383.7"/>
<text text-anchor="start" x="157.5" y="-390.8" font-family="Helvetica,sans-Serif" font-size="11.00" fill="#000000">stop_code</text>
<polygon fill="none" stroke="#000000" points="282.5,-383.7 282.5,-405.7 372.5,-405.7 372.5,-383.7 282.5,-383.7"/>
<text text-anchor="start" x="285.5" y="-391.4" font-family="Helvetica,sans-Serif" font-size="11.00" fill="#000000">varchar[64]</text>
<polygon fill="none" stroke="#000000" points="137.5,-361.7 137.5,-383.7 282.5,-383.7 282.5,-361.7 137.5,-361.7"/>
<text text-anchor="start" x="157.5" y="-368.8" font-family="Helvetica,sans-Serif" font-size="11.00" fill="#000000">stop_name</text>
<polygon fill="none" stroke="#000000" points="282.5,-361.7 282.5,-383.7 372.5,-383.7 372.5,-361.7 282.5,-361.7"/>
<text text-anchor="start" x="285.0043" y="-369.4" font-family="Helvetica,sans-Serif" font-size="11.00" fill="#000000">text[2147483647]</text>
<polygon fill="none" stroke="#000000" points="137.5,-339.7 137.5,-361.7 282.5,-361.7 282.5,-339.7 137.5,-339.7"/>
<text text-anchor="start" x="157.5" y="-346.8" font-family="Helvetica,sans-Serif" font-size="11.00" fill="#000000">stop_desc</text>
<polygon fill="none" stroke="#000000" points="282.5,-339.7 282.5,-361.7 372.5,-361.7 372.5,-339.7 282.5,-339.7"/>
<text text-anchor="start" x="285.0043" y="-347.4" font-family="Helvetica,sans-Serif" font-size="11.00" fill="#000000">text[2147483647]</text>
<polygon fill="none" stroke="#000000" points="137.5,-317.7 137.5,-339.7 282.5,-339.7 282.5,-317.7 137.5,-317.7"/>
<text text-anchor="start" x="157.5" y="-324.8" font-family="Helvetica,sans-Serif" font-size="11.00" fill="#000000">stop_lat</text>
<polygon fill="none" stroke="#000000" points="282.5,-317.7 282.5,-339.7 372.5,-339.7 372.5,-317.7 282.5,-317.7"/>
<text text-anchor="start" x="285.5" y="-325.4" font-family="Helvetica,sans-Serif" font-size="11.00" fill="#000000">float8[17,17]</text>
<polygon fill="none" stroke="#000000" points="137.5,-295.7 137.5,-317.7 282.5,-317.7 282.5,-295.7 137.5,-295.7"/>
<text text-anchor="start" x="157.5" y="-302.8" font-family="Helvetica,sans-Serif" font-size="11.00" fill="#000000">stop_lon</text>
<polygon fill="none" stroke="#000000" points="282.5,-295.7 282.5,-317.7 372.5,-317.7 372.5,-295.7 282.5,-295.7"/>
<text text-anchor="start" x="285.5" y="-303.4" font-family="Helvetica,sans-Serif" font-size="11.00" fill="#000000">float8[17,17]</text>
<polygon fill="none" stroke="#000000" points="137.5,-273.7 137.5,-295.7 282.5,-295.7 282.5,-273.7 137.5,-273.7"/>
<text text-anchor="start" x="157.5" y="-280.8" font-family="Helvetica,sans-Serif" font-size="11.00" fill="#000000">zone_id</text>
<polygon fill="none" stroke="#000000" points="282.5,-273.7 282.5,-295.7 372.5,-295.7 372.5,-273.7 282.5,-273.7"/>
<text text-anchor="start" x="285.5" y="-281.4" font-family="Helvetica,sans-Serif" font-size="11.00" fill="#000000">varchar[64]</text>
<polygon fill="none" stroke="#000000" points="137.5,-251.7 137.5,-273.7 282.5,-273.7 282.5,-251.7 137.5,-251.7"/>
<text text-anchor="start" x="157.5" y="-258.8" font-family="Helvetica,sans-Serif" font-size="11.00" fill="#000000">stop_url</text>
<polygon fill="none" stroke="#000000" points="282.5,-251.7 282.5,-273.7 372.5,-273.7 372.5,-251.7 282.5,-251.7"/>
<text text-anchor="start" x="285.0043" y="-259.4" font-family="Helvetica,sans-Serif" font-size="11.00" fill="#000000">text[2147483647]</text>
<polygon fill="none" stroke="#000000" points="137.5,-229.7 137.5,-251.7 282.5,-251.7 282.5,-229.7 137.5,-229.7"/>
<text text-anchor="start" x="157.5" y="-236.8" font-family="Helvetica,sans-Serif" font-size="11.00" fill="#000000">location_type</text>
<polygon fill="none" stroke="#000000" points="282.5,-229.7 282.5,-251.7 372.5,-251.7 372.5,-229.7 282.5,-229.7"/>
<text text-anchor="start" x="285.5" y="-237.4" font-family="Helvetica,sans-Serif" font-size="11.00" fill="#000000">int2[5]</text>
<polygon fill="none" stroke="#000000" points="137.5,-207.7 137.5,-229.7 282.5,-229.7 282.5,-207.7 137.5,-207.7"/>
<text text-anchor="start" x="157.5" y="-214.8" font-family="Helvetica,sans-Serif" font-size="11.00" fill="#000000">parent_station</text>
<polygon fill="none" stroke="#000000" points="282.5,-207.7 282.5,-229.7 372.5,-229.7 372.5,-207.7 282.5,-207.7"/>
<text text-anchor="start" x="285.5" y="-215.4" font-family="Helvetica,sans-Serif" font-size="11.00" fill="#000000">varchar[64]</text>
<polygon fill="none" stroke="#000000" points="137.5,-185.7 137.5,-207.7 282.5,-207.7 282.5,-185.7 137.5,-185.7"/>
<text text-anchor="start" x="157.5" y="-192.8" font-family="Helvetica,sans-Serif" font-size="11.00" fill="#000000">stop_timezone</text>
<polygon fill="none" stroke="#000000" points="282.5,-185.7 282.5,-207.7 372.5,-207.7 372.5,-185.7 282.5,-185.7"/>
<text text-anchor="start" x="285.5" y="-193.4" font-family="Helvetica,sans-Serif" font-size="11.00" fill="#000000">varchar[16]</text>
<polygon fill="none" stroke="#000000" points="137.5,-163.7 137.5,-185.7 282.5,-185.7 282.5,-163.7 137.5,-163.7"/>
<text text-anchor="start" x="157.5" y="-170.8" font-family="Helvetica,sans-Serif" font-size="11.00" fill="#000000">wheelchair_boarding</text>
<polygon fill="none" stroke="#000000" points="282.5,-163.7 282.5,-185.7 372.5,-185.7 372.5,-163.7 282.5,-163.7"/>
<text text-anchor="start" x="285.0043" y="-171.4" font-family="Helvetica,sans-Serif" font-size="11.00" fill="#000000">text[2147483647]</text>
<polygon fill="none" stroke="#000000" points="137.5,-141.7 137.5,-163.7 282.5,-163.7 282.5,-141.7 137.5,-141.7"/>
<text text-anchor="start" x="157.5" y="-148.8" font-family="Helvetica,sans-Serif" font-size="11.00" fill="#000000">platform_code</text>
<polygon fill="none" stroke="#000000" points="282.5,-141.7 282.5,-163.7 372.5,-163.7 372.5,-141.7 282.5,-141.7"/>
<text text-anchor="start" x="285.5" y="-149.4" font-family="Helvetica,sans-Serif" font-size="11.00" fill="#000000">varchar[64]</text>
<polygon fill="#ffffff" stroke="transparent" points="137.5,-122.7 137.5,-141.7 214.5,-141.7 214.5,-122.7 137.5,-122.7"/>
<polygon fill="none" stroke="#000000" points="137.5,-122.7 137.5,-141.7 214.5,-141.7 214.5,-122.7 137.5,-122.7"/>
<text text-anchor="start" x="140.5" y="-128.8" font-family="Helvetica,sans-Serif" font-size="11.00" fill="#000000">&lt; 0</text>
<polygon fill="#ffffff" stroke="transparent" points="214.5,-122.7 214.5,-141.7 282.5,-141.7 282.5,-122.7 214.5,-122.7"/>
<polygon fill="none" stroke="#000000" points="214.5,-122.7 214.5,-141.7 282.5,-141.7 282.5,-122.7 214.5,-122.7"/>
<text text-anchor="start" x="273.3862" y="-128.8" font-family="Helvetica,sans-Serif" font-size="11.00" fill="#000000"> &#160;</text>
<polygon fill="#ffffff" stroke="transparent" points="282.5,-122.7 282.5,-141.7 372.5,-141.7 372.5,-122.7 282.5,-122.7"/>
<polygon fill="none" stroke="#000000" points="282.5,-122.7 282.5,-141.7 372.5,-141.7 372.5,-122.7 282.5,-122.7"/>
<text text-anchor="start" x="353.9053" y="-128.8" font-family="Helvetica,sans-Serif" font-size="11.00" fill="#000000">5 &gt;</text>
<polygon fill="none" stroke="#000000" stroke-width="2" points="136,-121.7 136,-451.7 373,-451.7 373,-121.7 136,-121.7"/>
</a>
</g>
</g>
<!-- fare_rules&#45;&gt;stops -->
<g id="edge1" class="edge">
<title>fare_rules:w&#45;&gt;stops:e</title>
<path fill="none" stroke="#000000" d="M425.0484,-445.2675C405.2869,-437.9595 399.6714,-416.7 372.5,-416.7"/>
<polygon fill="#000000" stroke="#000000" points="431.611,-446.3721 438.9024,-451.2501 435.5555,-447.036 439.5,-447.7 439.5,-447.7 439.5,-447.7 435.5555,-447.036 440.0976,-444.1499 431.611,-446.3721 431.611,-446.3721"/>
<ellipse fill="none" stroke="#000000" cx="428.4554" cy="-445.8409" rx="3.2" ry="3.2"/>
</g>
<!-- fare_rules&#45;&gt;stops -->
<g id="edge3" class="edge">
<title>fare_rules:w&#45;&gt;stops:e</title>
<path fill="none" stroke="#000000" d="M425.3859,-466.5433C403.1513,-455.1334 404.8323,-416.7 372.5,-416.7"/>
<polygon fill="#000000" stroke="#000000" points="431.6929,-467.9539 438.7142,-473.2132 435.5964,-468.8269 439.5,-469.7 439.5,-469.7 439.5,-469.7 435.5964,-468.8269 440.2858,-466.1868 431.6929,-467.9539 431.6929,-467.9539"/>
<ellipse fill="none" stroke="#000000" cx="428.57" cy="-467.2554" rx="3.2" ry="3.2"/>
</g>
<!-- fare_attributes -->
<g id="node3" class="node">
<title>fare_attributes</title>
<g id="a_node3"><a xlink:href="../../tables/fare_attributes.html" xlink:title="fare_attributes" target="_top">
<polygon fill="#ffffff" stroke="transparent" points="190.5,-501.2 190.5,-562.2 318.5,-562.2 318.5,-501.2 190.5,-501.2"/>
<polygon fill="#f5f5f5" stroke="transparent" points="190.5,-538.7 190.5,-561.7 318.5,-561.7 318.5,-538.7 190.5,-538.7"/>
<polygon fill="none" stroke="#000000" points="190.5,-538.7 190.5,-561.7 318.5,-561.7 318.5,-538.7 190.5,-538.7"/>
<text text-anchor="start" x="195.5" y="-547.3" font-family="Helvetica,sans-Serif" font-weight="bold" font-size="11.00" fill="#000000">fare_attributes</text>
<text text-anchor="start" x="284.0219" y="-546.8" font-family="Helvetica,sans-Serif" font-size="11.00" fill="#000000">[table]</text>
<polygon fill="none" stroke="#000000" points="190.5,-519.7 190.5,-538.7 318.5,-538.7 318.5,-519.7 190.5,-519.7"/>
<text text-anchor="start" x="193.5" y="-525.8" font-family="Helvetica,sans-Serif" font-size="11.00" fill="#000000">...</text>
<polygon fill="#ffffff" stroke="transparent" points="190.5,-500.7 190.5,-519.7 243.5,-519.7 243.5,-500.7 190.5,-500.7"/>
<polygon fill="none" stroke="#000000" points="190.5,-500.7 190.5,-519.7 243.5,-519.7 243.5,-500.7 190.5,-500.7"/>
<text text-anchor="start" x="193.5" y="-506.8" font-family="Helvetica,sans-Serif" font-size="11.00" fill="#000000"> &#160;</text>
<polygon fill="#ffffff" stroke="transparent" points="243.5,-500.7 243.5,-519.7 276.5,-519.7 276.5,-500.7 243.5,-500.7"/>
<polygon fill="none" stroke="#000000" points="243.5,-500.7 243.5,-519.7 276.5,-519.7 276.5,-500.7 243.5,-500.7"/>
<text text-anchor="start" x="267.3862" y="-506.8" font-family="Helvetica,sans-Serif" font-size="11.00" fill="#000000"> &#160;</text>
<polygon fill="#ffffff" stroke="transparent" points="276.5,-500.7 276.5,-519.7 318.5,-519.7 318.5,-500.7 276.5,-500.7"/>
<polygon fill="none" stroke="#000000" points="276.5,-500.7 276.5,-519.7 318.5,-519.7 318.5,-500.7 276.5,-500.7"/>
<text text-anchor="start" x="299.9053" y="-506.8" font-family="Helvetica,sans-Serif" font-size="11.00" fill="#000000">1 &gt;</text>
</a>
</g>
</g>
<!-- fare_rules&#45;&gt;fare_attributes -->
<g id="edge2" class="edge">
<title>fare_rules:w&#45;&gt;fare_attributes:e</title>
<path fill="none" stroke="#000000" d="M428.9431,-513.9007C383.3908,-515.6807 368.9851,-528.7 318.5,-528.7"/>
<polygon fill="#000000" stroke="#000000" points="438.6241,-509.7159 438.7762,-517.7145 437.1765,-517.7449 437.0244,-509.7464 438.6241,-509.7159"/>
<polyline fill="none" stroke="#000000" points="439.5,-513.7 435.5007,-513.7761 "/>
<ellipse fill="none" stroke="#000000" cx="432.3013" cy="-513.8369" rx="3.2" ry="3.2"/>
</g>
<!-- routes -->
<g id="node4" class="node">
<title>routes</title>
<g id="a_node4"><a xlink:href="../../tables/routes.html" xlink:title="routes" target="_top">
<polygon fill="#ffffff" stroke="transparent" points="8,-243.2 8,-304.2 86,-304.2 86,-243.2 8,-243.2"/>
<polygon fill="#f5f5f5" stroke="transparent" points="8,-280.7 8,-303.7 86,-303.7 86,-280.7 8,-280.7"/>
<polygon fill="none" stroke="#000000" points="8,-280.7 8,-303.7 86,-303.7 86,-280.7 8,-280.7"/>
<text text-anchor="start" x="13" y="-289.3" font-family="Helvetica,sans-Serif" font-weight="bold" font-size="11.00" fill="#000000">routes</text>
<text text-anchor="start" x="51.5219" y="-288.8" font-family="Helvetica,sans-Serif" font-size="11.00" fill="#000000">[table]</text>
<polygon fill="none" stroke="#000000" points="8,-261.7 8,-280.7 86,-280.7 86,-261.7 8,-261.7"/>
<text text-anchor="start" x="11" y="-267.8" font-family="Helvetica,sans-Serif" font-size="11.00" fill="#000000">...</text>
<polygon fill="#ffffff" stroke="transparent" points="8,-242.7 8,-261.7 41,-261.7 41,-242.7 8,-242.7"/>
<polygon fill="none" stroke="#000000" points="8,-242.7 8,-261.7 41,-261.7 41,-242.7 8,-242.7"/>
<text text-anchor="start" x="11" y="-248.8" font-family="Helvetica,sans-Serif" font-size="11.00" fill="#000000">&lt; 1</text>
<polygon fill="#ffffff" stroke="transparent" points="41,-242.7 41,-261.7 59,-261.7 59,-242.7 41,-242.7"/>
<polygon fill="none" stroke="#000000" points="41,-242.7 41,-261.7 59,-261.7 59,-242.7 41,-242.7"/>
<text text-anchor="start" x="49.8862" y="-248.8" font-family="Helvetica,sans-Serif" font-size="11.00" fill="#000000"> &#160;</text>
<polygon fill="#ffffff" stroke="transparent" points="59,-242.7 59,-261.7 86,-261.7 86,-242.7 59,-242.7"/>
<polygon fill="none" stroke="#000000" points="59,-242.7 59,-261.7 86,-261.7 86,-242.7 59,-242.7"/>
<text text-anchor="start" x="67.4053" y="-248.8" font-family="Helvetica,sans-Serif" font-size="11.00" fill="#000000">2 &gt;</text>
</a>
</g>
</g>
<!-- fare_rules&#45;&gt;routes -->
<g id="edge4" class="edge">
<title>fare_rules:w&#45;&gt;routes:e</title>
<path fill="none" stroke="#000000" d="M424.7635,-491.5665C360.3548,-490.6518 150.6896,-484.7055 127,-463.7 61.3869,-405.521 173.6919,-270.7 86,-270.7"/>
<polygon fill="#000000" stroke="#000000" points="431.5003,-491.6275 439.4674,-495.2999 435.5002,-491.6637 439.5,-491.7 439.5,-491.7 439.5,-491.7 435.5002,-491.6637 439.5326,-488.1001 431.5003,-491.6275 431.5003,-491.6275"/>
<ellipse fill="none" stroke="#000000" cx="428.3005" cy="-491.5985" rx="3.2" ry="3.2"/>
</g>
<!-- stop_times -->
<g id="node5" class="node">
<title>stop_times</title>
<g id="a_node5"><a xlink:href="../../tables/stop_times.html" xlink:title="stop_times" target="_top">
<polygon fill="#ffffff" stroke="transparent" points="423,-57.2 423,-184.2 562,-184.2 562,-57.2 423,-57.2"/>
<polygon fill="#f5f5f5" stroke="transparent" points="423.5,-160.7 423.5,-183.7 562.5,-183.7 562.5,-160.7 423.5,-160.7"/>
<polygon fill="none" stroke="#000000" points="423.5,-160.7 423.5,-183.7 562.5,-183.7 562.5,-160.7 423.5,-160.7"/>
<text text-anchor="start" x="428.5" y="-169.3" font-family="Helvetica,sans-Serif" font-weight="bold" font-size="11.00" fill="#000000">stop_times</text>
<text text-anchor="start" x="527.5437" y="-168.8" font-family="Helvetica,sans-Serif" font-size="11.00" fill="#000000">[table]</text>
<polygon fill="none" stroke="#000000" points="423.5,-138.7 423.5,-160.7 562.5,-160.7 562.5,-138.7 423.5,-138.7"/>
<image xlink:href="../../images/primaryKeys.png" width="11px" height="12px" preserveAspectRatio="xMinYMin meet" x="428.5" y="-155.7"/>
<text text-anchor="start" x="443.5" y="-145.8" font-family="Helvetica,sans-Serif" font-size="11.00" fill="#000000">trip_id</text>
<polygon fill="none" stroke="#000000" points="423.5,-116.7 423.5,-138.7 562.5,-138.7 562.5,-116.7 423.5,-116.7"/>
<image xlink:href="../../images/foreignKeys.png" width="11px" height="12px" preserveAspectRatio="xMinYMin meet" x="428.5" y="-133.7"/>
<text text-anchor="start" x="443.5" y="-123.8" font-family="Helvetica,sans-Serif" font-size="11.00" fill="#000000">stop_id</text>
<polygon fill="none" stroke="#000000" points="423.5,-94.7 423.5,-116.7 562.5,-116.7 562.5,-94.7 423.5,-94.7"/>
<image xlink:href="../../images/primaryKeys.png" width="11px" height="12px" preserveAspectRatio="xMinYMin meet" x="428.5" y="-111.7"/>
<text text-anchor="start" x="443.5" y="-101.8" font-family="Helvetica,sans-Serif" font-size="11.00" fill="#000000">stop_sequence</text>
<polygon fill="none" stroke="#000000" points="423.5,-75.7 423.5,-94.7 562.5,-94.7 562.5,-75.7 423.5,-75.7"/>
<text text-anchor="start" x="426.5" y="-81.8" font-family="Helvetica,sans-Serif" font-size="11.00" fill="#000000">...</text>
<polygon fill="#ffffff" stroke="transparent" points="423.5,-56.7 423.5,-75.7 491.5,-75.7 491.5,-56.7 423.5,-56.7"/>
<polygon fill="none" stroke="#000000" points="423.5,-56.7 423.5,-75.7 491.5,-75.7 491.5,-56.7 423.5,-56.7"/>
<text text-anchor="start" x="426.5" y="-62.8" font-family="Helvetica,sans-Serif" font-size="11.00" fill="#000000">&lt; 2</text>
<polygon fill="#ffffff" stroke="transparent" points="491.5,-56.7 491.5,-75.7 526.5,-75.7 526.5,-56.7 491.5,-56.7"/>
<polygon fill="none" stroke="#000000" points="491.5,-56.7 491.5,-75.7 526.5,-75.7 526.5,-56.7 491.5,-56.7"/>
<text text-anchor="start" x="517.3862" y="-62.8" font-family="Helvetica,sans-Serif" font-size="11.00" fill="#000000"> &#160;</text>
<polygon fill="#ffffff" stroke="transparent" points="526.5,-56.7 526.5,-75.7 562.5,-75.7 562.5,-56.7 526.5,-56.7"/>
<polygon fill="none" stroke="#000000" points="526.5,-56.7 526.5,-75.7 562.5,-75.7 562.5,-56.7 526.5,-56.7"/>
<text text-anchor="start" x="553.3862" y="-62.8" font-family="Helvetica,sans-Serif" font-size="11.00" fill="#000000"> &#160;</text>
</a>
</g>
</g>
<!-- stop_times&#45;&gt;stops -->
<g id="edge5" class="edge">
<title>stop_times:w&#45;&gt;stops:e</title>
<path fill="none" stroke="#000000" d="M409.9583,-133.4729C370.6068,-174.2045 432.2376,-416.7 372.5,-416.7"/>
<polygon fill="#000000" stroke="#000000" points="416.1408,-130.8373 424.9118,-131.0116 419.8204,-129.2686 423.5,-127.7 423.5,-127.7 423.5,-127.7 419.8204,-129.2686 422.0882,-124.3884 416.1408,-130.8373 416.1408,-130.8373"/>
<ellipse fill="none" stroke="#000000" cx="413.1971" cy="-132.0922" rx="3.2" ry="3.2"/>
</g>
<!-- trips -->
<g id="node6" class="node">
<title>trips</title>
<g id="a_node6"><a xlink:href="../../tables/trips.html" xlink:title="trips" target="_top">
<polygon fill="#ffffff" stroke="transparent" points="221.5,-38.2 221.5,-99.2 287.5,-99.2 287.5,-38.2 221.5,-38.2"/>
<polygon fill="#f5f5f5" stroke="transparent" points="221.5,-75.7 221.5,-98.7 287.5,-98.7 287.5,-75.7 221.5,-75.7"/>
<polygon fill="none" stroke="#000000" points="221.5,-75.7 221.5,-98.7 287.5,-98.7 287.5,-75.7 221.5,-75.7"/>
<text text-anchor="start" x="226.5" y="-84.3" font-family="Helvetica,sans-Serif" font-weight="bold" font-size="11.00" fill="#000000">trips</text>
<text text-anchor="start" x="253.0219" y="-83.8" font-family="Helvetica,sans-Serif" font-size="11.00" fill="#000000">[table]</text>
<polygon fill="none" stroke="#000000" points="221.5,-56.7 221.5,-75.7 287.5,-75.7 287.5,-56.7 221.5,-56.7"/>
<text text-anchor="start" x="224.5" y="-62.8" font-family="Helvetica,sans-Serif" font-size="11.00" fill="#000000">...</text>
<polygon fill="#ffffff" stroke="transparent" points="221.5,-37.7 221.5,-56.7 248.5,-56.7 248.5,-37.7 221.5,-37.7"/>
<polygon fill="none" stroke="#000000" points="221.5,-37.7 221.5,-56.7 248.5,-56.7 248.5,-37.7 221.5,-37.7"/>
<text text-anchor="start" x="224.5" y="-43.8" font-family="Helvetica,sans-Serif" font-size="11.00" fill="#000000">&lt; 5</text>
<polygon fill="#ffffff" stroke="transparent" points="248.5,-37.7 248.5,-56.7 263.5,-56.7 263.5,-37.7 248.5,-37.7"/>
<polygon fill="none" stroke="#000000" points="248.5,-37.7 248.5,-56.7 263.5,-56.7 263.5,-37.7 248.5,-37.7"/>
<text text-anchor="start" x="254.3862" y="-43.8" font-family="Helvetica,sans-Serif" font-size="11.00" fill="#000000"> &#160;</text>
<polygon fill="#ffffff" stroke="transparent" points="263.5,-37.7 263.5,-56.7 287.5,-56.7 287.5,-37.7 263.5,-37.7"/>
<polygon fill="none" stroke="#000000" points="263.5,-37.7 263.5,-56.7 287.5,-56.7 287.5,-37.7 263.5,-37.7"/>
<text text-anchor="start" x="268.9053" y="-43.8" font-family="Helvetica,sans-Serif" font-size="11.00" fill="#000000">2 &gt;</text>
</a>
</g>
</g>
<!-- stop_times&#45;&gt;trips -->
<g id="edge6" class="edge">
<title>stop_times:w&#45;&gt;trips:e</title>
<path fill="none" stroke="#000000" d="M409.5044,-145.7306C398.8746,-137.9913 398.0072,-120.6835 382,-109.7 343.7987,-83.4878 333.8295,-65.7 287.5,-65.7"/>
<polygon fill="#000000" stroke="#000000" points="415.8036,-147.5171 422.5177,-153.1634 419.6518,-148.6085 423.5,-149.7 423.5,-149.7 423.5,-149.7 419.6518,-148.6085 424.4823,-146.2366 415.8036,-147.5171 415.8036,-147.5171"/>
<ellipse fill="none" stroke="#000000" cx="412.725" cy="-146.6439" rx="3.2" ry="3.2"/>
</g>
<!-- trips&#45;&gt;routes -->
<g id="edge9" class="edge">
<title>trips:w&#45;&gt;routes:e</title>
<path fill="none" stroke="#000000" d="M206.7664,-66.0484C170.8154,-67.9388 153.2193,-78.0738 127,-109.7 79.8734,-166.5448 159.8393,-270.7 86,-270.7"/>
<polygon fill="#000000" stroke="#000000" points="213.5022,-65.8892 221.5851,-69.299 217.5011,-65.7946 221.5,-65.7 221.5,-65.7 221.5,-65.7 217.5011,-65.7946 221.4149,-62.101 213.5022,-65.8892 213.5022,-65.8892"/>
<ellipse fill="none" stroke="#000000" cx="210.3031" cy="-65.9649" rx="3.2" ry="3.2"/>
</g>
<!-- transfers -->
<g id="node7" class="node">
<title>transfers</title>
<g id="a_node7"><a xlink:href="../../tables/transfers.html" xlink:title="transfers" target="_top">
<polygon fill="#ffffff" stroke="transparent" points="427.5,-273.2 427.5,-378.2 557.5,-378.2 557.5,-273.2 427.5,-273.2"/>
<polygon fill="#f5f5f5" stroke="transparent" points="427.5,-354.7 427.5,-377.7 557.5,-377.7 557.5,-354.7 427.5,-354.7"/>
<polygon fill="none" stroke="#000000" points="427.5,-354.7 427.5,-377.7 557.5,-377.7 557.5,-354.7 427.5,-354.7"/>
<text text-anchor="start" x="432.5" y="-363.3" font-family="Helvetica,sans-Serif" font-weight="bold" font-size="11.00" fill="#000000">transfers</text>
<text text-anchor="start" x="522.5437" y="-362.8" font-family="Helvetica,sans-Serif" font-size="11.00" fill="#000000">[table]</text>
<polygon fill="none" stroke="#000000" points="427.5,-332.7 427.5,-354.7 557.5,-354.7 557.5,-332.7 427.5,-332.7"/>
<image xlink:href="../../images/primaryKeys.png" width="11px" height="12px" preserveAspectRatio="xMinYMin meet" x="432.5" y="-349.7"/>
<text text-anchor="start" x="447.5" y="-339.8" font-family="Helvetica,sans-Serif" font-size="11.00" fill="#000000">from_stop_id</text>
<polygon fill="none" stroke="#000000" points="427.5,-310.7 427.5,-332.7 557.5,-332.7 557.5,-310.7 427.5,-310.7"/>
<image xlink:href="../../images/primaryKeys.png" width="11px" height="12px" preserveAspectRatio="xMinYMin meet" x="432.5" y="-327.7"/>
<text text-anchor="start" x="447.5" y="-317.8" font-family="Helvetica,sans-Serif" font-size="11.00" fill="#000000">to_stop_id</text>
<polygon fill="none" stroke="#000000" points="427.5,-291.7 427.5,-310.7 557.5,-310.7 557.5,-291.7 427.5,-291.7"/>
<text text-anchor="start" x="430.5" y="-297.8" font-family="Helvetica,sans-Serif" font-size="11.00" fill="#000000">...</text>
<polygon fill="#ffffff" stroke="transparent" points="427.5,-272.7 427.5,-291.7 490.5,-291.7 490.5,-272.7 427.5,-272.7"/>
<polygon fill="none" stroke="#000000" points="427.5,-272.7 427.5,-291.7 490.5,-291.7 490.5,-272.7 427.5,-272.7"/>
<text text-anchor="start" x="430.5" y="-278.8" font-family="Helvetica,sans-Serif" font-size="11.00" fill="#000000">&lt; 2</text>
<polygon fill="#ffffff" stroke="transparent" points="490.5,-272.7 490.5,-291.7 523.5,-291.7 523.5,-272.7 490.5,-272.7"/>
<polygon fill="none" stroke="#000000" points="490.5,-272.7 490.5,-291.7 523.5,-291.7 523.5,-272.7 490.5,-272.7"/>
<text text-anchor="start" x="514.3862" y="-278.8" font-family="Helvetica,sans-Serif" font-size="11.00" fill="#000000"> &#160;</text>
<polygon fill="#ffffff" stroke="transparent" points="523.5,-272.7 523.5,-291.7 557.5,-291.7 557.5,-272.7 523.5,-272.7"/>
<polygon fill="none" stroke="#000000" points="523.5,-272.7 523.5,-291.7 557.5,-291.7 557.5,-272.7 523.5,-272.7"/>
<text text-anchor="start" x="548.3862" y="-278.8" font-family="Helvetica,sans-Serif" font-size="11.00" fill="#000000"> &#160;</text>
</a>
</g>
</g>
<!-- transfers&#45;&gt;stops -->
<g id="edge7" class="edge">
<title>transfers:w&#45;&gt;stops:e</title>
<path fill="none" stroke="#000000" d="M413.6731,-347.834C393.0672,-363.2766 407.2511,-416.7 372.5,-416.7"/>
<polygon fill="#000000" stroke="#000000" points="419.8352,-345.9916 428.5312,-347.1491 423.6676,-344.8458 427.5,-343.7 427.5,-343.7 427.5,-343.7 423.6676,-344.8458 426.4688,-340.2509 419.8352,-345.9916 419.8352,-345.9916"/>
<ellipse fill="none" stroke="#000000" cx="416.7693" cy="-346.9083" rx="3.2" ry="3.2"/>
</g>
<!-- transfers&#45;&gt;stops -->
<g id="edge8" class="edge">
<title>transfers:w&#45;&gt;stops:e</title>
<path fill="none" stroke="#000000" d="M413.471,-325.5418C387.6838,-343.3148 415.3799,-416.7 372.5,-416.7"/>
<polygon fill="#000000" stroke="#000000" points="419.7841,-323.813 428.4509,-325.1722 423.642,-322.7565 427.5,-321.7 427.5,-321.7 427.5,-321.7 423.642,-322.7565 426.5491,-318.2278 419.7841,-323.813 419.7841,-323.813"/>
<ellipse fill="none" stroke="#000000" cx="416.6977" cy="-324.6582" rx="3.2" ry="3.2"/>
</g>
</g>
</svg>
