<?xml version="1.0" encoding="UTF-8" standalone="no"?>
<!DOCTYPE svg PUBLIC "-//W3C//DTD SVG 1.1//EN"
 "http://www.w3.org/Graphics/SVG/1.1/DTD/svg11.dtd">
<!-- Generated by graphviz version 2.40.1 (20161225.0304)
 -->
<!-- Title: oneDegreeRelationshipsDiagram Pages: 1 -->
<svg width="413pt" height="184pt"
 viewBox="0.00 0.00 413.00 184.20" xmlns="http://www.w3.org/2000/svg" xmlns:xlink="http://www.w3.org/1999/xlink">
<g id="graph0" class="graph" transform="scale(1 1) rotate(0) translate(4 180.2)">
<title>oneDegreeRelationshipsDiagram</title>
<polygon fill="#ffffff" stroke="transparent" points="-4,4 -4,-180.2 409,-180.2 409,4 -4,4"/>
<text text-anchor="middle" x="72.4936" y="-7.3" font-family="Helvetica,sans-Serif" font-size="11.00" fill="#000000">Generated by SchemaSpy</text>
<!-- transfers -->
<g id="node1" class="node">
<title>transfers</title>
<g id="a_node1"><a xlink:href="../../tables/transfers.html" xlink:title="transfers" target="_top">
<polygon fill="#ffffff" stroke="transparent" points="202,-38.2 202,-172.2 397,-172.2 397,-38.2 202,-38.2"/>
<polygon fill="#f5f5f5" stroke="transparent" points="204.5,-147.2 204.5,-170.2 395.5,-170.2 395.5,-147.2 204.5,-147.2"/>
<polygon fill="none" stroke="#000000" points="204.5,-147.2 204.5,-170.2 395.5,-170.2 395.5,-147.2 204.5,-147.2"/>
<text text-anchor="start" x="209.5" y="-155.8" font-family="Helvetica,sans-Serif" font-weight="bold" font-size="11.00" fill="#000000">transfers</text>
<text text-anchor="start" x="360.5437" y="-155.3" font-family="Helvetica,sans-Serif" font-size="11.00" fill="#000000">[table]</text>
<polygon fill="none" stroke="#000000" points="204.5,-125.2 204.5,-147.2 334.5,-147.2 334.5,-125.2 204.5,-125.2"/>
<image xlink:href="../../images/primaryKeys.png" width="11px" height="12px" preserveAspectRatio="xMinYMin meet" x="209.5" y="-142.2"/>
<text text-anchor="start" x="224.5" y="-132.3" font-family="Helvetica,sans-Serif" font-size="11.00" fill="#000000">from_stop_id</text>
<polygon fill="none" stroke="#000000" points="334.5,-125.2 334.5,-147.2 395.5,-147.2 395.5,-125.2 334.5,-125.2"/>
<text text-anchor="start" x="337.494" y="-132.9" font-family="Helvetica,sans-Serif" font-size="11.00" fill="#000000">varchar[64]</text>
<polygon fill="none" stroke="#000000" points="204.5,-103.2 204.5,-125.2 334.5,-125.2 334.5,-103.2 204.5,-103.2"/>
<image xlink:href="../../images/primaryKeys.png" width="11px" height="12px" preserveAspectRatio="xMinYMin meet" x="209.5" y="-120.2"/>
<text text-anchor="start" x="224.5" y="-110.3" font-family="Helvetica,sans-Serif" font-size="11.00" fill="#000000">to_stop_id</text>
<polygon fill="none" stroke="#000000" points="334.5,-103.2 334.5,-125.2 395.5,-125.2 395.5,-103.2 334.5,-103.2"/>
<text text-anchor="start" x="337.494" y="-110.9" font-family="Helvetica,sans-Serif" font-size="11.00" fill="#000000">varchar[64]</text>
<polygon fill="none" stroke="#000000" points="204.5,-81.2 204.5,-103.2 334.5,-103.2 334.5,-81.2 204.5,-81.2"/>
<text text-anchor="start" x="224.5" y="-88.3" font-family="Helvetica,sans-Serif" font-size="11.00" fill="#000000">transfer_type</text>
<polygon fill="none" stroke="#000000" points="334.5,-81.2 334.5,-103.2 395.5,-103.2 395.5,-81.2 334.5,-81.2"/>
<text text-anchor="start" x="337.5" y="-88.9" font-family="Helvetica,sans-Serif" font-size="11.00" fill="#000000">int2[5]</text>
<polygon fill="none" stroke="#000000" points="204.5,-59.2 204.5,-81.2 334.5,-81.2 334.5,-59.2 204.5,-59.2"/>
<text text-anchor="start" x="224.5" y="-66.3" font-family="Helvetica,sans-Serif" font-size="11.00" fill="#000000">min_transfer_time</text>
<polygon fill="none" stroke="#000000" points="334.5,-59.2 334.5,-81.2 395.5,-81.2 395.5,-59.2 334.5,-59.2"/>
<text text-anchor="start" x="337.5" y="-66.9" font-family="Helvetica,sans-Serif" font-size="11.00" fill="#000000">int4[10]</text>
<polygon fill="#ffffff" stroke="transparent" points="204.5,-40.2 204.5,-59.2 273.5,-59.2 273.5,-40.2 204.5,-40.2"/>
<polygon fill="none" stroke="#000000" points="204.5,-40.2 204.5,-59.2 273.5,-59.2 273.5,-40.2 204.5,-40.2"/>
<text text-anchor="start" x="207.5" y="-46.3" font-family="Helvetica,sans-Serif" font-size="11.00" fill="#000000">&lt; 2</text>
<polygon fill="#ffffff" stroke="transparent" points="273.5,-40.2 273.5,-59.2 334.5,-59.2 334.5,-40.2 273.5,-40.2"/>
<polygon fill="none" stroke="#000000" points="273.5,-40.2 273.5,-59.2 334.5,-59.2 334.5,-40.2 273.5,-40.2"/>
<text text-anchor="start" x="325.3862" y="-46.3" font-family="Helvetica,sans-Serif" font-size="11.00" fill="#000000"> &#160;</text>
<polygon fill="#ffffff" stroke="transparent" points="334.5,-40.2 334.5,-59.2 395.5,-59.2 395.5,-40.2 334.5,-40.2"/>
<polygon fill="none" stroke="#000000" points="334.5,-40.2 334.5,-59.2 395.5,-59.2 395.5,-40.2 334.5,-40.2"/>
<text text-anchor="start" x="376.9053" y="-46.3" font-family="Helvetica,sans-Serif" font-size="11.00" fill="#000000">0 &gt;</text>
<polygon fill="none" stroke="#000000" stroke-width="2" points="203,-39.2 203,-171.2 396,-171.2 396,-39.2 203,-39.2"/>
</a>
</g>
</g>
<!-- stops -->
<g id="node2" class="node">
<title>stops</title>
<g id="a_node2"><a xlink:href="../../tables/stops.html" xlink:title="stops" target="_top">
<polygon fill="#ffffff" stroke="transparent" points="8,-76.7 8,-159.7 153,-159.7 153,-76.7 8,-76.7"/>
<polygon fill="#f5f5f5" stroke="transparent" points="8.5,-136.2 8.5,-159.2 153.5,-159.2 153.5,-136.2 8.5,-136.2"/>
<polygon fill="none" stroke="#000000" points="8.5,-136.2 8.5,-159.2 153.5,-159.2 153.5,-136.2 8.5,-136.2"/>
<text text-anchor="start" x="13.5" y="-144.8" font-family="Helvetica,sans-Serif" font-weight="bold" font-size="11.00" fill="#000000">stops</text>
<text text-anchor="start" x="118.5437" y="-144.3" font-family="Helvetica,sans-Serif" font-size="11.00" fill="#000000">[table]</text>
<polygon fill="none" stroke="#000000" points="8.5,-114.2 8.5,-136.2 153.5,-136.2 153.5,-114.2 8.5,-114.2"/>
<image xlink:href="../../images/primaryKeys.png" width="11px" height="12px" preserveAspectRatio="xMinYMin meet" x="13.5" y="-131.2"/>
<text text-anchor="start" x="28.5" y="-121.3" font-family="Helvetica,sans-Serif" font-size="11.00" fill="#000000">stop_id</text>
<polygon fill="none" stroke="#000000" points="8.5,-95.2 8.5,-114.2 153.5,-114.2 153.5,-95.2 8.5,-95.2"/>
<text text-anchor="start" x="11.5" y="-101.3" font-family="Helvetica,sans-Serif" font-size="11.00" fill="#000000">...</text>
<polygon fill="#ffffff" stroke="transparent" points="8.5,-76.2 8.5,-95.2 70.5,-95.2 70.5,-76.2 8.5,-76.2"/>
<polygon fill="none" stroke="#000000" points="8.5,-76.2 8.5,-95.2 70.5,-95.2 70.5,-76.2 8.5,-76.2"/>
<text text-anchor="start" x="11.5" y="-82.3" font-family="Helvetica,sans-Serif" font-size="11.00" fill="#000000"> &#160;</text>
<polygon fill="#ffffff" stroke="transparent" points="70.5,-76.2 70.5,-95.2 107.5,-95.2 107.5,-76.2 70.5,-76.2"/>
<polygon fill="none" stroke="#000000" points="70.5,-76.2 70.5,-95.2 107.5,-95.2 107.5,-76.2 70.5,-76.2"/>
<text text-anchor="start" x="98.3862" y="-82.3" font-family="Helvetica,sans-Serif" font-size="11.00" fill="#000000"> &#160;</text>
<polygon fill="#ffffff" stroke="transparent" points="107.5,-76.2 107.5,-95.2 153.5,-95.2 153.5,-76.2 107.5,-76.2"/>
<polygon fill="none" stroke="#000000" points="107.5,-76.2 107.5,-95.2 153.5,-95.2 153.5,-76.2 107.5,-76.2"/>
<text text-anchor="start" x="134.9053" y="-82.3" font-family="Helvetica,sans-Serif" font-size="11.00" fill="#000000">5 &gt;</text>
</a>
</g>
</g>
<!-- transfers&#45;&gt;stops -->
<g id="edge1" class="edge">
<title>transfers:w&#45;&gt;stops:e</title>
<path fill="none" stroke="#000000" d="M190.0097,-134.4813C177.8398,-131.3875 170.8909,-125.2 153.5,-125.2"/>
<polygon fill="#000000" stroke="#000000" points="196.5557,-135.2576 204.0759,-139.7749 200.5278,-135.7288 204.5,-136.2 204.5,-136.2 204.5,-136.2 200.5278,-135.7288 204.9241,-132.6251 196.5557,-135.2576 196.5557,-135.2576"/>
<ellipse fill="none" stroke="#000000" cx="193.378" cy="-134.8807" rx="3.2" ry="3.2"/>
</g>
<!-- transfers&#45;&gt;stops -->
<g id="edge2" class="edge">
<title>transfers:w&#45;&gt;stops:e</title>
<path fill="none" stroke="#000000" d="M190.0097,-115.9188C177.8398,-119.0125 170.8909,-125.2 153.5,-125.2"/>
<polygon fill="#000000" stroke="#000000" points="196.5557,-115.1424 204.9241,-117.7749 200.5278,-114.6712 204.5,-114.2 204.5,-114.2 204.5,-114.2 200.5278,-114.6712 204.0759,-110.6251 196.5557,-115.1424 196.5557,-115.1424"/>
<ellipse fill="none" stroke="#000000" cx="193.378" cy="-115.5193" rx="3.2" ry="3.2"/>
</g>
</g>
</svg>
