<?xml version="1.0" encoding="UTF-8" standalone="no"?>
<!DOCTYPE svg PUBLIC "-//W3C//DTD SVG 1.1//EN"
 "http://www.w3.org/Graphics/SVG/1.1/DTD/svg11.dtd">
<!-- Generated by graphviz version 2.40.1 (20161225.0304)
 -->
<!-- Title: twoDegreesRelationshipsDiagram Pages: 1 -->
<svg width="413pt" height="349pt"
 viewBox="0.00 0.00 413.00 348.70" xmlns="http://www.w3.org/2000/svg" xmlns:xlink="http://www.w3.org/1999/xlink">
<g id="graph0" class="graph" transform="scale(1 1) rotate(0) translate(4 344.7)">
<title>twoDegreesRelationshipsDiagram</title>
<polygon fill="#ffffff" stroke="transparent" points="-4,4 -4,-344.7 409,-344.7 409,4 -4,4"/>
<text text-anchor="middle" x="72.4936" y="-7.3" font-family="Helvetica,sans-Serif" font-size="11.00" fill="#000000">Generated by SchemaSpy</text>
<!-- fare_rules -->
<g id="node1" class="node">
<title>fare_rules</title>
<g id="a_node1"><a xlink:href="../../tables/fare_rules.html" xlink:title="fare_rules" target="_top">
<polygon fill="#ffffff" stroke="transparent" points="250.5,-275.7 250.5,-336.7 348.5,-336.7 348.5,-275.7 250.5,-275.7"/>
<polygon fill="#f5f5f5" stroke="transparent" points="250.5,-313.2 250.5,-336.2 348.5,-336.2 348.5,-313.2 250.5,-313.2"/>
<polygon fill="none" stroke="#000000" points="250.5,-313.2 250.5,-336.2 348.5,-336.2 348.5,-313.2 250.5,-313.2"/>
<text text-anchor="start" x="255.5" y="-321.8" font-family="Helvetica,sans-Serif" font-weight="bold" font-size="11.00" fill="#000000">fare_rules</text>
<text text-anchor="start" x="314.0219" y="-321.3" font-family="Helvetica,sans-Serif" font-size="11.00" fill="#000000">[table]</text>
<polygon fill="none" stroke="#000000" points="250.5,-294.2 250.5,-313.2 348.5,-313.2 348.5,-294.2 250.5,-294.2"/>
<text text-anchor="start" x="253.5" y="-300.3" font-family="Helvetica,sans-Serif" font-size="11.00" fill="#000000">...</text>
<polygon fill="#ffffff" stroke="transparent" points="250.5,-275.2 250.5,-294.2 297.5,-294.2 297.5,-275.2 250.5,-275.2"/>
<polygon fill="none" stroke="#000000" points="250.5,-275.2 250.5,-294.2 297.5,-294.2 297.5,-275.2 250.5,-275.2"/>
<text text-anchor="start" x="253.5" y="-281.3" font-family="Helvetica,sans-Serif" font-size="11.00" fill="#000000">&lt; 4</text>
<polygon fill="#ffffff" stroke="transparent" points="297.5,-275.2 297.5,-294.2 322.5,-294.2 322.5,-275.2 297.5,-275.2"/>
<polygon fill="none" stroke="#000000" points="297.5,-275.2 297.5,-294.2 322.5,-294.2 322.5,-275.2 297.5,-275.2"/>
<text text-anchor="start" x="313.3862" y="-281.3" font-family="Helvetica,sans-Serif" font-size="11.00" fill="#000000"> &#160;</text>
<polygon fill="#ffffff" stroke="transparent" points="322.5,-275.2 322.5,-294.2 348.5,-294.2 348.5,-275.2 322.5,-275.2"/>
<polygon fill="none" stroke="#000000" points="322.5,-275.2 322.5,-294.2 348.5,-294.2 348.5,-275.2 322.5,-275.2"/>
<text text-anchor="start" x="339.3862" y="-281.3" font-family="Helvetica,sans-Serif" font-size="11.00" fill="#000000"> &#160;</text>
</a>
</g>
</g>
<!-- stops -->
<g id="node2" class="node">
<title>stops</title>
<g id="a_node2"><a xlink:href="../../tables/stops.html" xlink:title="stops" target="_top">
<polygon fill="#ffffff" stroke="transparent" points="8,-172.7 8,-255.7 153,-255.7 153,-172.7 8,-172.7"/>
<polygon fill="#f5f5f5" stroke="transparent" points="8.5,-232.2 8.5,-255.2 153.5,-255.2 153.5,-232.2 8.5,-232.2"/>
<polygon fill="none" stroke="#000000" points="8.5,-232.2 8.5,-255.2 153.5,-255.2 153.5,-232.2 8.5,-232.2"/>
<text text-anchor="start" x="13.5" y="-240.8" font-family="Helvetica,sans-Serif" font-weight="bold" font-size="11.00" fill="#000000">stops</text>
<text text-anchor="start" x="118.5437" y="-240.3" font-family="Helvetica,sans-Serif" font-size="11.00" fill="#000000">[table]</text>
<polygon fill="none" stroke="#000000" points="8.5,-210.2 8.5,-232.2 153.5,-232.2 153.5,-210.2 8.5,-210.2"/>
<image xlink:href="../../images/primaryKeys.png" width="11px" height="12px" preserveAspectRatio="xMinYMin meet" x="13.5" y="-227.2"/>
<text text-anchor="start" x="28.5" y="-217.3" font-family="Helvetica,sans-Serif" font-size="11.00" fill="#000000">stop_id</text>
<polygon fill="none" stroke="#000000" points="8.5,-191.2 8.5,-210.2 153.5,-210.2 153.5,-191.2 8.5,-191.2"/>
<text text-anchor="start" x="11.5" y="-197.3" font-family="Helvetica,sans-Serif" font-size="11.00" fill="#000000">...</text>
<polygon fill="#ffffff" stroke="transparent" points="8.5,-172.2 8.5,-191.2 70.5,-191.2 70.5,-172.2 8.5,-172.2"/>
<polygon fill="none" stroke="#000000" points="8.5,-172.2 8.5,-191.2 70.5,-191.2 70.5,-172.2 8.5,-172.2"/>
<text text-anchor="start" x="11.5" y="-178.3" font-family="Helvetica,sans-Serif" font-size="11.00" fill="#000000"> &#160;</text>
<polygon fill="#ffffff" stroke="transparent" points="70.5,-172.2 70.5,-191.2 107.5,-191.2 107.5,-172.2 70.5,-172.2"/>
<polygon fill="none" stroke="#000000" points="70.5,-172.2 70.5,-191.2 107.5,-191.2 107.5,-172.2 70.5,-172.2"/>
<text text-anchor="start" x="98.3862" y="-178.3" font-family="Helvetica,sans-Serif" font-size="11.00" fill="#000000"> &#160;</text>
<polygon fill="#ffffff" stroke="transparent" points="107.5,-172.2 107.5,-191.2 153.5,-191.2 153.5,-172.2 107.5,-172.2"/>
<polygon fill="none" stroke="#000000" points="107.5,-172.2 107.5,-191.2 153.5,-191.2 153.5,-172.2 107.5,-172.2"/>
<text text-anchor="start" x="134.9053" y="-178.3" font-family="Helvetica,sans-Serif" font-size="11.00" fill="#000000">5 &gt;</text>
</a>
</g>
</g>
<!-- fare_rules&#45;&gt;stops -->
<g id="edge1" class="edge">
<title>fare_rules:w&#45;&gt;stops:e</title>
<path fill="none" stroke="#000000" d="M236.5299,-298.8385C218.4246,-290.5821 212.8351,-275.3708 194,-259.2 173.8341,-241.8866 180.0786,-215.2 153.5,-221.2"/>
<polygon fill="#000000" stroke="#000000" points="242.8635,-300.8158 249.4271,-306.6364 246.6818,-302.0079 250.5,-303.2 250.5,-303.2 250.5,-303.2 246.6818,-302.0079 251.5729,-299.7636 242.8635,-300.8158 242.8635,-300.8158"/>
<ellipse fill="none" stroke="#000000" cx="239.8089" cy="-299.8622" rx="3.2" ry="3.2"/>
</g>
<!-- fare_rules&#45;&gt;stops -->
<g id="edge2" class="edge">
<title>fare_rules:w&#45;&gt;stops:e</title>
<path fill="none" stroke="#000000" d="M236.016,-304.6278C218.3169,-303.2922 212.6557,-288.2168 194,-272.2 173.8341,-254.8866 180.0786,-228.2 153.5,-221.2"/>
<polygon fill="#000000" stroke="#000000" points="242.5386,-303.9849 250.8532,-306.7826 246.5193,-303.5924 250.5,-303.2 250.5,-303.2 250.5,-303.2 246.5193,-303.5924 250.1468,-299.6174 242.5386,-303.9849 242.5386,-303.9849"/>
<ellipse fill="none" stroke="#000000" cx="239.354" cy="-304.2988" rx="3.2" ry="3.2"/>
</g>
<!-- stop_times -->
<g id="node3" class="node">
<title>stop_times</title>
<g id="a_node3"><a xlink:href="../../tables/stop_times.html" xlink:title="stop_times" target="_top">
<polygon fill="#ffffff" stroke="transparent" points="248,-193.7 248,-254.7 351,-254.7 351,-193.7 248,-193.7"/>
<polygon fill="#f5f5f5" stroke="transparent" points="248.5,-231.2 248.5,-254.2 351.5,-254.2 351.5,-231.2 248.5,-231.2"/>
<polygon fill="none" stroke="#000000" points="248.5,-231.2 248.5,-254.2 351.5,-254.2 351.5,-231.2 248.5,-231.2"/>
<text text-anchor="start" x="253.5" y="-239.8" font-family="Helvetica,sans-Serif" font-weight="bold" font-size="11.00" fill="#000000">stop_times</text>
<text text-anchor="start" x="317.0219" y="-239.3" font-family="Helvetica,sans-Serif" font-size="11.00" fill="#000000">[table]</text>
<polygon fill="none" stroke="#000000" points="248.5,-212.2 248.5,-231.2 351.5,-231.2 351.5,-212.2 248.5,-212.2"/>
<text text-anchor="start" x="251.5" y="-218.3" font-family="Helvetica,sans-Serif" font-size="11.00" fill="#000000">...</text>
<polygon fill="#ffffff" stroke="transparent" points="248.5,-193.2 248.5,-212.2 298.5,-212.2 298.5,-193.2 248.5,-193.2"/>
<polygon fill="none" stroke="#000000" points="248.5,-193.2 248.5,-212.2 298.5,-212.2 298.5,-193.2 248.5,-193.2"/>
<text text-anchor="start" x="251.5" y="-199.3" font-family="Helvetica,sans-Serif" font-size="11.00" fill="#000000">&lt; 2</text>
<polygon fill="#ffffff" stroke="transparent" points="298.5,-193.2 298.5,-212.2 324.5,-212.2 324.5,-193.2 298.5,-193.2"/>
<polygon fill="none" stroke="#000000" points="298.5,-193.2 298.5,-212.2 324.5,-212.2 324.5,-193.2 298.5,-193.2"/>
<text text-anchor="start" x="315.3862" y="-199.3" font-family="Helvetica,sans-Serif" font-size="11.00" fill="#000000"> &#160;</text>
<polygon fill="#ffffff" stroke="transparent" points="324.5,-193.2 324.5,-212.2 351.5,-212.2 351.5,-193.2 324.5,-193.2"/>
<polygon fill="none" stroke="#000000" points="324.5,-193.2 324.5,-212.2 351.5,-212.2 351.5,-193.2 324.5,-193.2"/>
<text text-anchor="start" x="342.3862" y="-199.3" font-family="Helvetica,sans-Serif" font-size="11.00" fill="#000000"> &#160;</text>
</a>
</g>
</g>
<!-- stop_times&#45;&gt;stops -->
<g id="edge3" class="edge">
<title>stop_times:w&#45;&gt;stops:e</title>
<path fill="none" stroke="#000000" d="M234.0273,-221.2C203.1441,-221.2 190.4444,-221.2 153.5,-221.2"/>
<polygon fill="#000000" stroke="#000000" points="240.5,-221.2001 248.5,-224.8 244.5,-221.2 248.5,-221.2 248.5,-221.2 248.5,-221.2 244.5,-221.2 248.5,-217.6 240.5,-221.2001 240.5,-221.2001"/>
<ellipse fill="none" stroke="#000000" cx="237.3" cy="-221.2001" rx="3.2" ry="3.2"/>
</g>
<!-- transfers -->
<g id="node4" class="node">
<title>transfers</title>
<g id="a_node4"><a xlink:href="../../tables/transfers.html" xlink:title="transfers" target="_top">
<polygon fill="#ffffff" stroke="transparent" points="202,-38.2 202,-172.2 397,-172.2 397,-38.2 202,-38.2"/>
<polygon fill="#f5f5f5" stroke="transparent" points="204.5,-147.2 204.5,-170.2 395.5,-170.2 395.5,-147.2 204.5,-147.2"/>
<polygon fill="none" stroke="#000000" points="204.5,-147.2 204.5,-170.2 395.5,-170.2 395.5,-147.2 204.5,-147.2"/>
<text text-anchor="start" x="209.5" y="-155.8" font-family="Helvetica,sans-Serif" font-weight="bold" font-size="11.00" fill="#000000">transfers</text>
<text text-anchor="start" x="360.5437" y="-155.3" font-family="Helvetica,sans-Serif" font-size="11.00" fill="#000000">[table]</text>
<polygon fill="none" stroke="#000000" points="204.5,-125.2 204.5,-147.2 334.5,-147.2 334.5,-125.2 204.5,-125.2"/>
<image xlink:href="../../images/primaryKeys.png" width="11px" height="12px" preserveAspectRatio="xMinYMin meet" x="209.5" y="-142.2"/>
<text text-anchor="start" x="224.5" y="-132.3" font-family="Helvetica,sans-Serif" font-size="11.00" fill="#000000">from_stop_id</text>
<polygon fill="none" stroke="#000000" points="334.5,-125.2 334.5,-147.2 395.5,-147.2 395.5,-125.2 334.5,-125.2"/>
<text text-anchor="start" x="337.494" y="-132.9" font-family="Helvetica,sans-Serif" font-size="11.00" fill="#000000">varchar[64]</text>
<polygon fill="none" stroke="#000000" points="204.5,-103.2 204.5,-125.2 334.5,-125.2 334.5,-103.2 204.5,-103.2"/>
<image xlink:href="../../images/primaryKeys.png" width="11px" height="12px" preserveAspectRatio="xMinYMin meet" x="209.5" y="-120.2"/>
<text text-anchor="start" x="224.5" y="-110.3" font-family="Helvetica,sans-Serif" font-size="11.00" fill="#000000">to_stop_id</text>
<polygon fill="none" stroke="#000000" points="334.5,-103.2 334.5,-125.2 395.5,-125.2 395.5,-103.2 334.5,-103.2"/>
<text text-anchor="start" x="337.494" y="-110.9" font-family="Helvetica,sans-Serif" font-size="11.00" fill="#000000">varchar[64]</text>
<polygon fill="none" stroke="#000000" points="204.5,-81.2 204.5,-103.2 334.5,-103.2 334.5,-81.2 204.5,-81.2"/>
<text text-anchor="start" x="224.5" y="-88.3" font-family="Helvetica,sans-Serif" font-size="11.00" fill="#000000">transfer_type</text>
<polygon fill="none" stroke="#000000" points="334.5,-81.2 334.5,-103.2 395.5,-103.2 395.5,-81.2 334.5,-81.2"/>
<text text-anchor="start" x="337.5" y="-88.9" font-family="Helvetica,sans-Serif" font-size="11.00" fill="#000000">int2[5]</text>
<polygon fill="none" stroke="#000000" points="204.5,-59.2 204.5,-81.2 334.5,-81.2 334.5,-59.2 204.5,-59.2"/>
<text text-anchor="start" x="224.5" y="-66.3" font-family="Helvetica,sans-Serif" font-size="11.00" fill="#000000">min_transfer_time</text>
<polygon fill="none" stroke="#000000" points="334.5,-59.2 334.5,-81.2 395.5,-81.2 395.5,-59.2 334.5,-59.2"/>
<text text-anchor="start" x="337.5" y="-66.9" font-family="Helvetica,sans-Serif" font-size="11.00" fill="#000000">int4[10]</text>
<polygon fill="#ffffff" stroke="transparent" points="204.5,-40.2 204.5,-59.2 273.5,-59.2 273.5,-40.2 204.5,-40.2"/>
<polygon fill="none" stroke="#000000" points="204.5,-40.2 204.5,-59.2 273.5,-59.2 273.5,-40.2 204.5,-40.2"/>
<text text-anchor="start" x="207.5" y="-46.3" font-family="Helvetica,sans-Serif" font-size="11.00" fill="#000000">&lt; 2</text>
<polygon fill="#ffffff" stroke="transparent" points="273.5,-40.2 273.5,-59.2 334.5,-59.2 334.5,-40.2 273.5,-40.2"/>
<polygon fill="none" stroke="#000000" points="273.5,-40.2 273.5,-59.2 334.5,-59.2 334.5,-40.2 273.5,-40.2"/>
<text text-anchor="start" x="325.3862" y="-46.3" font-family="Helvetica,sans-Serif" font-size="11.00" fill="#000000"> &#160;</text>
<polygon fill="#ffffff" stroke="transparent" points="334.5,-40.2 334.5,-59.2 395.5,-59.2 395.5,-40.2 334.5,-40.2"/>
<polygon fill="none" stroke="#000000" points="334.5,-40.2 334.5,-59.2 395.5,-59.2 395.5,-40.2 334.5,-40.2"/>
<text text-anchor="start" x="376.9053" y="-46.3" font-family="Helvetica,sans-Serif" font-size="11.00" fill="#000000">0 &gt;</text>
<polygon fill="none" stroke="#000000" stroke-width="2" points="203,-39.2 203,-171.2 396,-171.2 396,-39.2 203,-39.2"/>
</a>
</g>
</g>
<!-- transfers&#45;&gt;stops -->
<g id="edge4" class="edge">
<title>transfers:w&#45;&gt;stops:e</title>
<path fill="none" stroke="#000000" d="M190.5669,-140.532C169.0746,-157.8534 191.5328,-221.2 153.5,-221.2"/>
<polygon fill="#000000" stroke="#000000" points="196.8607,-138.5752 205.5688,-139.6377 200.6804,-137.3876 204.5,-136.2 204.5,-136.2 204.5,-136.2 200.6804,-137.3876 203.4312,-132.7623 196.8607,-138.5752 196.8607,-138.5752"/>
<ellipse fill="none" stroke="#000000" cx="193.805" cy="-139.5253" rx="3.2" ry="3.2"/>
</g>
<!-- transfers&#45;&gt;stops -->
<g id="edge5" class="edge">
<title>transfers:w&#45;&gt;stops:e</title>
<path fill="none" stroke="#000000" d="M190.4064,-118.0082C162.7616,-137.0691 200.2134,-221.2 153.5,-221.2"/>
<polygon fill="#000000" stroke="#000000" points="196.777,-116.2869 205.4391,-117.6754 200.6385,-115.2434 204.5,-114.2 204.5,-114.2 204.5,-114.2 200.6385,-115.2434 203.5609,-110.7246 196.777,-116.2869 196.777,-116.2869"/>
<ellipse fill="none" stroke="#000000" cx="193.6878" cy="-117.1216" rx="3.2" ry="3.2"/>
</g>
</g>
</svg>
