<?xml version="1.0" encoding="UTF-8" standalone="no"?>
<!DOCTYPE svg PUBLIC "-//W3C//DTD SVG 1.1//EN"
 "http://www.w3.org/Graphics/SVG/1.1/DTD/svg11.dtd">
<!-- Generated by graphviz version 2.40.1 (20161225.0304)
 -->
<!-- Title: twoDegreesRelationshipsDiagram Pages: 1 -->
<svg width="776pt" height="611pt"
 viewBox="0.00 0.00 776.00 611.20" xmlns="http://www.w3.org/2000/svg" xmlns:xlink="http://www.w3.org/1999/xlink">
<g id="graph0" class="graph" transform="scale(1 1) rotate(0) translate(4 607.2)">
<title>twoDegreesRelationshipsDiagram</title>
<polygon fill="#ffffff" stroke="transparent" points="-4,4 -4,-607.2 772,-607.2 772,4 -4,4"/>
<text text-anchor="middle" x="72.4936" y="-7.3" font-family="Helvetica,sans-Serif" font-size="11.00" fill="#000000">Generated by SchemaSpy</text>
<!-- fare_rules -->
<g id="node1" class="node">
<title>fare_rules</title>
<g id="a_node1"><a xlink:href="../../tables/fare_rules.html" xlink:title="fare_rules" target="_top">
<polygon fill="#ffffff" stroke="transparent" points="641.5,-538.2 641.5,-599.2 739.5,-599.2 739.5,-538.2 641.5,-538.2"/>
<polygon fill="#f5f5f5" stroke="transparent" points="641.5,-575.7 641.5,-598.7 739.5,-598.7 739.5,-575.7 641.5,-575.7"/>
<polygon fill="none" stroke="#000000" points="641.5,-575.7 641.5,-598.7 739.5,-598.7 739.5,-575.7 641.5,-575.7"/>
<text text-anchor="start" x="646.5" y="-584.3" font-family="Helvetica,sans-Serif" font-weight="bold" font-size="11.00" fill="#000000">fare_rules</text>
<text text-anchor="start" x="705.0219" y="-583.8" font-family="Helvetica,sans-Serif" font-size="11.00" fill="#000000">[table]</text>
<polygon fill="none" stroke="#000000" points="641.5,-556.7 641.5,-575.7 739.5,-575.7 739.5,-556.7 641.5,-556.7"/>
<text text-anchor="start" x="644.5" y="-562.8" font-family="Helvetica,sans-Serif" font-size="11.00" fill="#000000">...</text>
<polygon fill="#ffffff" stroke="transparent" points="641.5,-537.7 641.5,-556.7 688.5,-556.7 688.5,-537.7 641.5,-537.7"/>
<polygon fill="none" stroke="#000000" points="641.5,-537.7 641.5,-556.7 688.5,-556.7 688.5,-537.7 641.5,-537.7"/>
<text text-anchor="start" x="644.5" y="-543.8" font-family="Helvetica,sans-Serif" font-size="11.00" fill="#000000">&lt; 4</text>
<polygon fill="#ffffff" stroke="transparent" points="688.5,-537.7 688.5,-556.7 713.5,-556.7 713.5,-537.7 688.5,-537.7"/>
<polygon fill="none" stroke="#000000" points="688.5,-537.7 688.5,-556.7 713.5,-556.7 713.5,-537.7 688.5,-537.7"/>
<text text-anchor="start" x="704.3862" y="-543.8" font-family="Helvetica,sans-Serif" font-size="11.00" fill="#000000"> &#160;</text>
<polygon fill="#ffffff" stroke="transparent" points="713.5,-537.7 713.5,-556.7 739.5,-556.7 739.5,-537.7 713.5,-537.7"/>
<polygon fill="none" stroke="#000000" points="713.5,-537.7 713.5,-556.7 739.5,-556.7 739.5,-537.7 713.5,-537.7"/>
<text text-anchor="start" x="730.3862" y="-543.8" font-family="Helvetica,sans-Serif" font-size="11.00" fill="#000000"> &#160;</text>
</a>
</g>
</g>
<!-- stops -->
<g id="node2" class="node">
<title>stops</title>
<g id="a_node2"><a xlink:href="../../tables/stops.html" xlink:title="stops" target="_top">
<polygon fill="#ffffff" stroke="transparent" points="413.5,-509.2 413.5,-570.2 484.5,-570.2 484.5,-509.2 413.5,-509.2"/>
<polygon fill="#f5f5f5" stroke="transparent" points="414,-546.7 414,-569.7 485,-569.7 485,-546.7 414,-546.7"/>
<polygon fill="none" stroke="#000000" points="414,-546.7 414,-569.7 485,-569.7 485,-546.7 414,-546.7"/>
<text text-anchor="start" x="419" y="-555.3" font-family="Helvetica,sans-Serif" font-weight="bold" font-size="11.00" fill="#000000">stops</text>
<text text-anchor="start" x="450.5219" y="-554.8" font-family="Helvetica,sans-Serif" font-size="11.00" fill="#000000">[table]</text>
<polygon fill="none" stroke="#000000" points="414,-527.7 414,-546.7 485,-546.7 485,-527.7 414,-527.7"/>
<text text-anchor="start" x="417" y="-533.8" font-family="Helvetica,sans-Serif" font-size="11.00" fill="#000000">...</text>
<polygon fill="#ffffff" stroke="transparent" points="414,-508.7 414,-527.7 439,-527.7 439,-508.7 414,-508.7"/>
<polygon fill="none" stroke="#000000" points="414,-508.7 414,-527.7 439,-527.7 439,-508.7 414,-508.7"/>
<text text-anchor="start" x="417" y="-514.8" font-family="Helvetica,sans-Serif" font-size="11.00" fill="#000000"> &#160;</text>
<polygon fill="#ffffff" stroke="transparent" points="439,-508.7 439,-527.7 457,-527.7 457,-508.7 439,-508.7"/>
<polygon fill="none" stroke="#000000" points="439,-508.7 439,-527.7 457,-527.7 457,-508.7 439,-508.7"/>
<text text-anchor="start" x="447.8862" y="-514.8" font-family="Helvetica,sans-Serif" font-size="11.00" fill="#000000"> &#160;</text>
<polygon fill="#ffffff" stroke="transparent" points="457,-508.7 457,-527.7 485,-527.7 485,-508.7 457,-508.7"/>
<polygon fill="none" stroke="#000000" points="457,-508.7 457,-527.7 485,-527.7 485,-508.7 457,-508.7"/>
<text text-anchor="start" x="466.4053" y="-514.8" font-family="Helvetica,sans-Serif" font-size="11.00" fill="#000000">5 &gt;</text>
</a>
</g>
</g>
<!-- fare_rules&#45;&gt;stops -->
<g id="edge1" class="edge">
<title>fare_rules:w&#45;&gt;stops:e</title>
<path fill="none" stroke="#000000" d="M626.9948,-564.0608C568.2984,-555.6914 550.6276,-531.1336 485,-536.7"/>
<polygon fill="#000000" stroke="#000000" points="633.5506,-564.8016 641.0957,-569.2772 637.5253,-565.2508 641.5,-565.7 641.5,-565.7 641.5,-565.7 637.5253,-565.2508 641.9043,-562.1228 633.5506,-564.8016 633.5506,-564.8016"/>
<ellipse fill="none" stroke="#000000" cx="630.3708" cy="-564.4422" rx="3.2" ry="3.2"/>
</g>
<!-- fare_rules&#45;&gt;stops -->
<g id="edge2" class="edge">
<title>fare_rules:w&#45;&gt;stops:e</title>
<path fill="none" stroke="#000000" d="M626.9948,-566.6755C568.2984,-568.6235 550.6276,-543.1941 485,-536.7"/>
<polygon fill="#000000" stroke="#000000" points="633.518,-566.2368 641.7416,-569.2919 637.509,-565.9684 641.5,-565.7 641.5,-565.7 641.5,-565.7 637.509,-565.9684 641.2584,-562.1081 633.518,-566.2368 633.518,-566.2368"/>
<ellipse fill="none" stroke="#000000" cx="630.3252" cy="-566.4516" rx="3.2" ry="3.2"/>
</g>
<!-- routes -->
<g id="node3" class="node">
<title>routes</title>
<g id="a_node3"><a xlink:href="../../tables/routes.html" xlink:title="routes" target="_top">
<polygon fill="#ffffff" stroke="transparent" points="142,-494.2 142,-599.2 273,-599.2 273,-494.2 142,-494.2"/>
<polygon fill="#f5f5f5" stroke="transparent" points="142.5,-575.7 142.5,-598.7 273.5,-598.7 273.5,-575.7 142.5,-575.7"/>
<polygon fill="none" stroke="#000000" points="142.5,-575.7 142.5,-598.7 273.5,-598.7 273.5,-575.7 142.5,-575.7"/>
<text text-anchor="start" x="147.5" y="-584.3" font-family="Helvetica,sans-Serif" font-weight="bold" font-size="11.00" fill="#000000">routes</text>
<text text-anchor="start" x="238.5437" y="-583.8" font-family="Helvetica,sans-Serif" font-size="11.00" fill="#000000">[table]</text>
<polygon fill="none" stroke="#000000" points="142.5,-553.7 142.5,-575.7 273.5,-575.7 273.5,-553.7 142.5,-553.7"/>
<image xlink:href="../../images/primaryKeys.png" width="11px" height="12px" preserveAspectRatio="xMinYMin meet" x="147.5" y="-570.7"/>
<text text-anchor="start" x="162.5" y="-560.8" font-family="Helvetica,sans-Serif" font-size="11.00" fill="#000000">route_id</text>
<polygon fill="none" stroke="#000000" points="142.5,-531.7 142.5,-553.7 273.5,-553.7 273.5,-531.7 142.5,-531.7"/>
<image xlink:href="../../images/foreignKeys.png" width="11px" height="12px" preserveAspectRatio="xMinYMin meet" x="147.5" y="-548.7"/>
<text text-anchor="start" x="162.5" y="-538.8" font-family="Helvetica,sans-Serif" font-size="11.00" fill="#000000">agency_id</text>
<polygon fill="none" stroke="#000000" points="142.5,-512.7 142.5,-531.7 273.5,-531.7 273.5,-512.7 142.5,-512.7"/>
<text text-anchor="start" x="145.5" y="-518.8" font-family="Helvetica,sans-Serif" font-size="11.00" fill="#000000">...</text>
<polygon fill="#ffffff" stroke="transparent" points="142.5,-493.7 142.5,-512.7 201.5,-512.7 201.5,-493.7 142.5,-493.7"/>
<polygon fill="none" stroke="#000000" points="142.5,-493.7 142.5,-512.7 201.5,-512.7 201.5,-493.7 142.5,-493.7"/>
<text text-anchor="start" x="145.5" y="-499.8" font-family="Helvetica,sans-Serif" font-size="11.00" fill="#000000">&lt; 1</text>
<polygon fill="#ffffff" stroke="transparent" points="201.5,-493.7 201.5,-512.7 232.5,-512.7 232.5,-493.7 201.5,-493.7"/>
<polygon fill="none" stroke="#000000" points="201.5,-493.7 201.5,-512.7 232.5,-512.7 232.5,-493.7 201.5,-493.7"/>
<text text-anchor="start" x="223.3862" y="-499.8" font-family="Helvetica,sans-Serif" font-size="11.00" fill="#000000"> &#160;</text>
<polygon fill="#ffffff" stroke="transparent" points="232.5,-493.7 232.5,-512.7 273.5,-512.7 273.5,-493.7 232.5,-493.7"/>
<polygon fill="none" stroke="#000000" points="232.5,-493.7 232.5,-512.7 273.5,-512.7 273.5,-493.7 232.5,-493.7"/>
<text text-anchor="start" x="254.9053" y="-499.8" font-family="Helvetica,sans-Serif" font-size="11.00" fill="#000000">2 &gt;</text>
</a>
</g>
</g>
<!-- fare_rules&#45;&gt;routes -->
<g id="edge3" class="edge">
<title>fare_rules:w&#45;&gt;routes:e</title>
<path fill="none" stroke="#000000" d="M626.7868,-566.9741C610.2303,-570.088 602.2596,-578.0246 580,-580.7 464.3876,-594.5954 432.7147,-600.6962 318,-580.7 297.2949,-577.0908 294.5173,-564.7 273.5,-564.7"/>
<polygon fill="#000000" stroke="#000000" points="633.5298,-566.3902 641.8106,-569.2866 637.5149,-566.0451 641.5,-565.7 641.5,-565.7 641.5,-565.7 637.5149,-566.0451 641.1894,-562.1134 633.5298,-566.3902 633.5298,-566.3902"/>
<ellipse fill="none" stroke="#000000" cx="630.3418" cy="-566.6663" rx="3.2" ry="3.2"/>
</g>
<!-- agency -->
<g id="node6" class="node">
<title>agency</title>
<g id="a_node6"><a xlink:href="../../tables/agency.html" xlink:title="agency" target="_top">
<polygon fill="#ffffff" stroke="transparent" points="8,-515.2 8,-576.2 89,-576.2 89,-515.2 8,-515.2"/>
<polygon fill="#f5f5f5" stroke="transparent" points="8.5,-552.7 8.5,-575.7 89.5,-575.7 89.5,-552.7 8.5,-552.7"/>
<polygon fill="none" stroke="#000000" points="8.5,-552.7 8.5,-575.7 89.5,-575.7 89.5,-552.7 8.5,-552.7"/>
<text text-anchor="start" x="13.5" y="-561.3" font-family="Helvetica,sans-Serif" font-weight="bold" font-size="11.00" fill="#000000">agency</text>
<text text-anchor="start" x="55.0219" y="-560.8" font-family="Helvetica,sans-Serif" font-size="11.00" fill="#000000">[table]</text>
<polygon fill="none" stroke="#000000" points="8.5,-533.7 8.5,-552.7 89.5,-552.7 89.5,-533.7 8.5,-533.7"/>
<text text-anchor="start" x="11.5" y="-539.8" font-family="Helvetica,sans-Serif" font-size="11.00" fill="#000000">...</text>
<polygon fill="#ffffff" stroke="transparent" points="8.5,-514.7 8.5,-533.7 38.5,-533.7 38.5,-514.7 8.5,-514.7"/>
<polygon fill="none" stroke="#000000" points="8.5,-514.7 8.5,-533.7 38.5,-533.7 38.5,-514.7 8.5,-514.7"/>
<text text-anchor="start" x="11.5" y="-520.8" font-family="Helvetica,sans-Serif" font-size="11.00" fill="#000000"> &#160;</text>
<polygon fill="#ffffff" stroke="transparent" points="38.5,-514.7 38.5,-533.7 59.5,-533.7 59.5,-514.7 38.5,-514.7"/>
<polygon fill="none" stroke="#000000" points="38.5,-514.7 38.5,-533.7 59.5,-533.7 59.5,-514.7 38.5,-514.7"/>
<text text-anchor="start" x="50.3862" y="-520.8" font-family="Helvetica,sans-Serif" font-size="11.00" fill="#000000"> &#160;</text>
<polygon fill="#ffffff" stroke="transparent" points="59.5,-514.7 59.5,-533.7 89.5,-533.7 89.5,-514.7 59.5,-514.7"/>
<polygon fill="none" stroke="#000000" points="59.5,-514.7 59.5,-533.7 89.5,-533.7 89.5,-514.7 59.5,-514.7"/>
<text text-anchor="start" x="70.9053" y="-520.8" font-family="Helvetica,sans-Serif" font-size="11.00" fill="#000000">2 &gt;</text>
</a>
</g>
</g>
<!-- routes&#45;&gt;agency -->
<g id="edge5" class="edge">
<title>routes:w&#45;&gt;agency:e</title>
<path fill="none" stroke="#000000" d="M127.9922,-542.7C115.0558,-542.7 107.3507,-542.7 89.5,-542.7"/>
<polygon fill="#000000" stroke="#000000" points="134.5,-542.7001 142.5,-546.3 138.5,-542.7 142.5,-542.7 142.5,-542.7 142.5,-542.7 138.5,-542.7 142.5,-539.1 134.5,-542.7001 134.5,-542.7001"/>
<ellipse fill="none" stroke="#000000" cx="131.3" cy="-542.7001" rx="3.2" ry="3.2"/>
</g>
<!-- frequencies -->
<g id="node4" class="node">
<title>frequencies</title>
<g id="a_node4"><a xlink:href="../../tables/frequencies.html" xlink:title="frequencies" target="_top">
<polygon fill="#ffffff" stroke="transparent" points="636,-286.2 636,-369.2 745,-369.2 745,-286.2 636,-286.2"/>
<polygon fill="#f5f5f5" stroke="transparent" points="636.5,-345.7 636.5,-368.7 745.5,-368.7 745.5,-345.7 636.5,-345.7"/>
<polygon fill="none" stroke="#000000" points="636.5,-345.7 636.5,-368.7 745.5,-368.7 745.5,-345.7 636.5,-345.7"/>
<text text-anchor="start" x="641.5" y="-354.3" font-family="Helvetica,sans-Serif" font-weight="bold" font-size="11.00" fill="#000000">frequencies</text>
<text text-anchor="start" x="711.0219" y="-353.8" font-family="Helvetica,sans-Serif" font-size="11.00" fill="#000000">[table]</text>
<polygon fill="none" stroke="#000000" points="636.5,-323.7 636.5,-345.7 745.5,-345.7 745.5,-323.7 636.5,-323.7"/>
<image xlink:href="../../images/foreignKeys.png" width="11px" height="12px" preserveAspectRatio="xMinYMin meet" x="641.5" y="-340.7"/>
<text text-anchor="start" x="658.5" y="-330.8" font-family="Helvetica,sans-Serif" font-size="11.00" fill="#000000">trip_id</text>
<polygon fill="none" stroke="#000000" points="636.5,-304.7 636.5,-323.7 745.5,-323.7 745.5,-304.7 636.5,-304.7"/>
<text text-anchor="start" x="639.5" y="-310.8" font-family="Helvetica,sans-Serif" font-size="11.00" fill="#000000">...</text>
<polygon fill="#ffffff" stroke="transparent" points="636.5,-285.7 636.5,-304.7 689.5,-304.7 689.5,-285.7 636.5,-285.7"/>
<polygon fill="none" stroke="#000000" points="636.5,-285.7 636.5,-304.7 689.5,-304.7 689.5,-285.7 636.5,-285.7"/>
<text text-anchor="start" x="639.5" y="-291.8" font-family="Helvetica,sans-Serif" font-size="11.00" fill="#000000">&lt; 1</text>
<polygon fill="#ffffff" stroke="transparent" points="689.5,-285.7 689.5,-304.7 717.5,-304.7 717.5,-285.7 689.5,-285.7"/>
<polygon fill="none" stroke="#000000" points="689.5,-285.7 689.5,-304.7 717.5,-304.7 717.5,-285.7 689.5,-285.7"/>
<text text-anchor="start" x="708.3862" y="-291.8" font-family="Helvetica,sans-Serif" font-size="11.00" fill="#000000"> &#160;</text>
<polygon fill="#ffffff" stroke="transparent" points="717.5,-285.7 717.5,-304.7 745.5,-304.7 745.5,-285.7 717.5,-285.7"/>
<polygon fill="none" stroke="#000000" points="717.5,-285.7 717.5,-304.7 745.5,-304.7 745.5,-285.7 717.5,-285.7"/>
<text text-anchor="start" x="736.3862" y="-291.8" font-family="Helvetica,sans-Serif" font-size="11.00" fill="#000000"> &#160;</text>
</a>
</g>
</g>
<!-- trips -->
<g id="node5" class="node">
<title>trips</title>
<g id="a_node5"><a xlink:href="../../tables/trips.html" xlink:title="trips" target="_top">
<polygon fill="#ffffff" stroke="transparent" points="326,-133.7 326,-487.7 572,-487.7 572,-133.7 326,-133.7"/>
<polygon fill="#f5f5f5" stroke="transparent" points="328,-462.7 328,-485.7 570,-485.7 570,-462.7 328,-462.7"/>
<polygon fill="none" stroke="#000000" points="328,-462.7 328,-485.7 570,-485.7 570,-462.7 328,-462.7"/>
<text text-anchor="start" x="333" y="-471.3" font-family="Helvetica,sans-Serif" font-weight="bold" font-size="11.00" fill="#000000">trips</text>
<text text-anchor="start" x="535.0437" y="-470.8" font-family="Helvetica,sans-Serif" font-size="11.00" fill="#000000">[table]</text>
<polygon fill="none" stroke="#000000" points="328,-440.7 328,-462.7 480,-462.7 480,-440.7 328,-440.7"/>
<image xlink:href="../../images/primaryKeys.png" width="11px" height="12px" preserveAspectRatio="xMinYMin meet" x="333" y="-457.7"/>
<text text-anchor="start" x="348" y="-447.8" font-family="Helvetica,sans-Serif" font-size="11.00" fill="#000000">trip_id</text>
<polygon fill="none" stroke="#000000" points="480,-440.7 480,-462.7 570,-462.7 570,-440.7 480,-440.7"/>
<text text-anchor="start" x="483" y="-448.4" font-family="Helvetica,sans-Serif" font-size="11.00" fill="#000000">varchar[64]</text>
<polygon fill="none" stroke="#000000" points="328,-418.7 328,-440.7 480,-440.7 480,-418.7 328,-418.7"/>
<image xlink:href="../../images/foreignKeys.png" width="11px" height="12px" preserveAspectRatio="xMinYMin meet" x="333" y="-435.7"/>
<text text-anchor="start" x="348" y="-425.8" font-family="Helvetica,sans-Serif" font-size="11.00" fill="#000000">route_id</text>
<polygon fill="none" stroke="#000000" points="480,-418.7 480,-440.7 570,-440.7 570,-418.7 480,-418.7"/>
<text text-anchor="start" x="483" y="-426.4" font-family="Helvetica,sans-Serif" font-size="11.00" fill="#000000">varchar[64]</text>
<polygon fill="none" stroke="#000000" points="328,-396.7 328,-418.7 480,-418.7 480,-396.7 328,-396.7"/>
<image xlink:href="../../images/foreignKeys.png" width="11px" height="12px" preserveAspectRatio="xMinYMin meet" x="333" y="-413.7"/>
<text text-anchor="start" x="348" y="-403.8" font-family="Helvetica,sans-Serif" font-size="11.00" fill="#000000">service_id</text>
<polygon fill="none" stroke="#000000" points="480,-396.7 480,-418.7 570,-418.7 570,-396.7 480,-396.7"/>
<text text-anchor="start" x="483" y="-404.4" font-family="Helvetica,sans-Serif" font-size="11.00" fill="#000000">varchar[64]</text>
<polygon fill="none" stroke="#000000" points="328,-374.7 328,-396.7 480,-396.7 480,-374.7 328,-374.7"/>
<text text-anchor="start" x="348" y="-381.8" font-family="Helvetica,sans-Serif" font-size="11.00" fill="#000000">trip_headsign</text>
<polygon fill="none" stroke="#000000" points="480,-374.7 480,-396.7 570,-396.7 570,-374.7 480,-374.7"/>
<text text-anchor="start" x="482.5043" y="-382.4" font-family="Helvetica,sans-Serif" font-size="11.00" fill="#000000">text[2147483647]</text>
<polygon fill="none" stroke="#000000" points="328,-352.7 328,-374.7 480,-374.7 480,-352.7 328,-352.7"/>
<text text-anchor="start" x="348" y="-359.8" font-family="Helvetica,sans-Serif" font-size="11.00" fill="#000000">trip_short_name</text>
<polygon fill="none" stroke="#000000" points="480,-352.7 480,-374.7 570,-374.7 570,-352.7 480,-352.7"/>
<text text-anchor="start" x="483" y="-360.4" font-family="Helvetica,sans-Serif" font-size="11.00" fill="#000000">varchar[64]</text>
<polygon fill="none" stroke="#000000" points="328,-330.7 328,-352.7 480,-352.7 480,-330.7 328,-330.7"/>
<text text-anchor="start" x="348" y="-337.8" font-family="Helvetica,sans-Serif" font-size="11.00" fill="#000000">direction_id</text>
<polygon fill="none" stroke="#000000" points="480,-330.7 480,-352.7 570,-352.7 570,-330.7 480,-330.7"/>
<text text-anchor="start" x="483" y="-338.4" font-family="Helvetica,sans-Serif" font-size="11.00" fill="#000000">int2[5]</text>
<polygon fill="none" stroke="#000000" points="328,-308.7 328,-330.7 480,-330.7 480,-308.7 328,-308.7"/>
<text text-anchor="start" x="348" y="-315.8" font-family="Helvetica,sans-Serif" font-size="11.00" fill="#000000">block_id</text>
<polygon fill="none" stroke="#000000" points="480,-308.7 480,-330.7 570,-330.7 570,-308.7 480,-308.7"/>
<text text-anchor="start" x="483" y="-316.4" font-family="Helvetica,sans-Serif" font-size="11.00" fill="#000000">varchar[64]</text>
<polygon fill="none" stroke="#000000" points="328,-286.7 328,-308.7 480,-308.7 480,-286.7 328,-286.7"/>
<image xlink:href="../../images/foreignKeys.png" width="11px" height="12px" preserveAspectRatio="xMinYMin meet" x="333" y="-303.7"/>
<text text-anchor="start" x="348" y="-293.8" font-family="Helvetica,sans-Serif" font-size="11.00" fill="#000000">shape_id</text>
<polygon fill="none" stroke="#000000" points="480,-286.7 480,-308.7 570,-308.7 570,-286.7 480,-286.7"/>
<text text-anchor="start" x="483" y="-294.4" font-family="Helvetica,sans-Serif" font-size="11.00" fill="#000000">varchar[64]</text>
<polygon fill="none" stroke="#000000" points="328,-264.7 328,-286.7 480,-286.7 480,-264.7 328,-264.7"/>
<text text-anchor="start" x="348" y="-271.8" font-family="Helvetica,sans-Serif" font-size="11.00" fill="#000000">wheelchair_accessible</text>
<polygon fill="none" stroke="#000000" points="480,-264.7 480,-286.7 570,-286.7 570,-264.7 480,-264.7"/>
<text text-anchor="start" x="483" y="-272.4" font-family="Helvetica,sans-Serif" font-size="11.00" fill="#000000">int2[5]</text>
<polygon fill="none" stroke="#000000" points="328,-242.7 328,-264.7 480,-264.7 480,-242.7 328,-242.7"/>
<text text-anchor="start" x="348" y="-249.8" font-family="Helvetica,sans-Serif" font-size="11.00" fill="#000000">bikes_allowed</text>
<polygon fill="none" stroke="#000000" points="480,-242.7 480,-264.7 570,-264.7 570,-242.7 480,-242.7"/>
<text text-anchor="start" x="483" y="-250.4" font-family="Helvetica,sans-Serif" font-size="11.00" fill="#000000">int2[5]</text>
<polygon fill="none" stroke="#000000" points="328,-220.7 328,-242.7 480,-242.7 480,-220.7 328,-220.7"/>
<text text-anchor="start" x="348" y="-227.8" font-family="Helvetica,sans-Serif" font-size="11.00" fill="#000000">jp_trip_desc</text>
<polygon fill="none" stroke="#000000" points="480,-220.7 480,-242.7 570,-242.7 570,-220.7 480,-220.7"/>
<text text-anchor="start" x="482.5043" y="-228.4" font-family="Helvetica,sans-Serif" font-size="11.00" fill="#000000">text[2147483647]</text>
<polygon fill="none" stroke="#000000" points="328,-198.7 328,-220.7 480,-220.7 480,-198.7 328,-198.7"/>
<text text-anchor="start" x="348" y="-205.8" font-family="Helvetica,sans-Serif" font-size="11.00" fill="#000000">jp_trip_desc_symbol</text>
<polygon fill="none" stroke="#000000" points="480,-198.7 480,-220.7 570,-220.7 570,-198.7 480,-198.7"/>
<text text-anchor="start" x="482.5043" y="-206.4" font-family="Helvetica,sans-Serif" font-size="11.00" fill="#000000">text[2147483647]</text>
<polygon fill="none" stroke="#000000" points="328,-176.7 328,-198.7 480,-198.7 480,-176.7 328,-176.7"/>
<image xlink:href="../../images/foreignKeys.png" width="11px" height="12px" preserveAspectRatio="xMinYMin meet" x="333" y="-193.7"/>
<text text-anchor="start" x="348" y="-183.8" font-family="Helvetica,sans-Serif" font-size="11.00" fill="#000000">jp_office_id</text>
<polygon fill="none" stroke="#000000" points="480,-176.7 480,-198.7 570,-198.7 570,-176.7 480,-176.7"/>
<text text-anchor="start" x="483" y="-184.4" font-family="Helvetica,sans-Serif" font-size="11.00" fill="#000000">varchar[64]</text>
<polygon fill="none" stroke="#000000" points="328,-154.7 328,-176.7 480,-176.7 480,-154.7 328,-154.7"/>
<image xlink:href="../../images/foreignKeys.png" width="11px" height="12px" preserveAspectRatio="xMinYMin meet" x="333" y="-171.7"/>
<text text-anchor="start" x="348" y="-161.8" font-family="Helvetica,sans-Serif" font-size="11.00" fill="#000000">jp_pattern_id</text>
<polygon fill="none" stroke="#000000" points="480,-154.7 480,-176.7 570,-176.7 570,-154.7 480,-154.7"/>
<text text-anchor="start" x="483" y="-162.4" font-family="Helvetica,sans-Serif" font-size="11.00" fill="#000000">varchar[64]</text>
<polygon fill="#ffffff" stroke="transparent" points="328,-135.7 328,-154.7 408,-154.7 408,-135.7 328,-135.7"/>
<polygon fill="none" stroke="#000000" points="328,-135.7 328,-154.7 408,-154.7 408,-135.7 328,-135.7"/>
<text text-anchor="start" x="331" y="-141.8" font-family="Helvetica,sans-Serif" font-size="11.00" fill="#000000">&lt; 5</text>
<polygon fill="#ffffff" stroke="transparent" points="408,-135.7 408,-154.7 480,-154.7 480,-135.7 408,-135.7"/>
<polygon fill="none" stroke="#000000" points="408,-135.7 408,-154.7 480,-154.7 480,-135.7 408,-135.7"/>
<text text-anchor="start" x="470.8862" y="-141.8" font-family="Helvetica,sans-Serif" font-size="11.00" fill="#000000"> &#160;</text>
<polygon fill="#ffffff" stroke="transparent" points="480,-135.7 480,-154.7 570,-154.7 570,-135.7 480,-135.7"/>
<polygon fill="none" stroke="#000000" points="480,-135.7 480,-154.7 570,-154.7 570,-135.7 480,-135.7"/>
<text text-anchor="start" x="551.4053" y="-141.8" font-family="Helvetica,sans-Serif" font-size="11.00" fill="#000000">2 &gt;</text>
<polygon fill="none" stroke="#000000" stroke-width="2" points="327,-134.7 327,-486.7 571,-486.7 571,-134.7 327,-134.7"/>
</a>
</g>
</g>
<!-- frequencies&#45;&gt;trips -->
<g id="edge4" class="edge">
<title>frequencies:w&#45;&gt;trips:e</title>
<path fill="none" stroke="#000000" d="M621.9976,-337.8295C585.9864,-356.4358 623.9714,-451.7 570,-451.7"/>
<polygon fill="#000000" stroke="#000000" points="628.68,-336.3875 637.2594,-338.219 632.59,-335.5438 636.5,-334.7 636.5,-334.7 636.5,-334.7 632.59,-335.5438 635.7406,-331.181 628.68,-336.3875 628.68,-336.3875"/>
<ellipse fill="none" stroke="#000000" cx="625.552" cy="-337.0625" rx="3.2" ry="3.2"/>
</g>
<!-- trips&#45;&gt;routes -->
<g id="edge10" class="edge">
<title>trips:w&#45;&gt;routes:e</title>
<path fill="none" stroke="#000000" d="M313.7384,-432.7733C275.6285,-452.8681 332.3915,-564.7 273.5,-564.7"/>
<polygon fill="#000000" stroke="#000000" points="320.1795,-431.3853 328.7584,-433.2192 324.0898,-430.5427 328,-429.7 328,-429.7 328,-429.7 324.0898,-430.5427 327.2416,-426.1808 320.1795,-431.3853 320.1795,-431.3853"/>
<ellipse fill="none" stroke="#000000" cx="317.0513" cy="-432.0594" rx="3.2" ry="3.2"/>
</g>
<!-- office_jp -->
<g id="node8" class="node">
<title>office_jp</title>
<g id="a_node8"><a xlink:href="../../tables/office_jp.html" xlink:title="office_jp" target="_top">
<polygon fill="#ffffff" stroke="transparent" points="159,-142.2 159,-225.2 256,-225.2 256,-142.2 159,-142.2"/>
<polygon fill="#f5f5f5" stroke="transparent" points="159.5,-201.7 159.5,-224.7 256.5,-224.7 256.5,-201.7 159.5,-201.7"/>
<polygon fill="none" stroke="#000000" points="159.5,-201.7 159.5,-224.7 256.5,-224.7 256.5,-201.7 159.5,-201.7"/>
<text text-anchor="start" x="164.5" y="-210.3" font-family="Helvetica,sans-Serif" font-weight="bold" font-size="11.00" fill="#000000">office_jp</text>
<text text-anchor="start" x="221.5437" y="-209.8" font-family="Helvetica,sans-Serif" font-size="11.00" fill="#000000">[table]</text>
<polygon fill="none" stroke="#000000" points="159.5,-179.7 159.5,-201.7 256.5,-201.7 256.5,-179.7 159.5,-179.7"/>
<image xlink:href="../../images/primaryKeys.png" width="11px" height="12px" preserveAspectRatio="xMinYMin meet" x="164.5" y="-196.7"/>
<text text-anchor="start" x="179.5" y="-186.8" font-family="Helvetica,sans-Serif" font-size="11.00" fill="#000000">office_id</text>
<polygon fill="none" stroke="#000000" points="159.5,-160.7 159.5,-179.7 256.5,-179.7 256.5,-160.7 159.5,-160.7"/>
<text text-anchor="start" x="162.5" y="-166.8" font-family="Helvetica,sans-Serif" font-size="11.00" fill="#000000">...</text>
<polygon fill="#ffffff" stroke="transparent" points="159.5,-141.7 159.5,-160.7 197.5,-160.7 197.5,-141.7 159.5,-141.7"/>
<polygon fill="none" stroke="#000000" points="159.5,-141.7 159.5,-160.7 197.5,-160.7 197.5,-141.7 159.5,-141.7"/>
<text text-anchor="start" x="162.5" y="-147.8" font-family="Helvetica,sans-Serif" font-size="11.00" fill="#000000"> &#160;</text>
<polygon fill="#ffffff" stroke="transparent" points="197.5,-141.7 197.5,-160.7 222.5,-160.7 222.5,-141.7 197.5,-141.7"/>
<polygon fill="none" stroke="#000000" points="197.5,-141.7 197.5,-160.7 222.5,-160.7 222.5,-141.7 197.5,-141.7"/>
<text text-anchor="start" x="213.3862" y="-147.8" font-family="Helvetica,sans-Serif" font-size="11.00" fill="#000000"> &#160;</text>
<polygon fill="#ffffff" stroke="transparent" points="222.5,-141.7 222.5,-160.7 256.5,-160.7 256.5,-141.7 222.5,-141.7"/>
<polygon fill="none" stroke="#000000" points="222.5,-141.7 222.5,-160.7 256.5,-160.7 256.5,-141.7 222.5,-141.7"/>
<text text-anchor="start" x="237.9053" y="-147.8" font-family="Helvetica,sans-Serif" font-size="11.00" fill="#000000">1 &gt;</text>
</a>
</g>
</g>
<!-- trips&#45;&gt;office_jp -->
<g id="edge8" class="edge">
<title>trips:w&#45;&gt;office_jp:e</title>
<path fill="none" stroke="#000000" d="M313.4769,-187.9354C292.776,-188.6426 282.8391,-190.7 256.5,-190.7"/>
<polygon fill="#000000" stroke="#000000" points="320.0011,-187.8297 328.0584,-191.2995 324.0005,-187.7649 328,-187.7 328,-187.7 328,-187.7 324.0005,-187.7649 327.9416,-184.1005 320.0011,-187.8297 320.0011,-187.8297"/>
<ellipse fill="none" stroke="#000000" cx="316.8015" cy="-187.8816" rx="3.2" ry="3.2"/>
</g>
<!-- pattern_jp -->
<g id="node9" class="node">
<title>pattern_jp</title>
<g id="a_node9"><a xlink:href="../../tables/pattern_jp.html" xlink:title="pattern_jp" target="_top">
<polygon fill="#ffffff" stroke="transparent" points="141,-38.2 141,-121.2 274,-121.2 274,-38.2 141,-38.2"/>
<polygon fill="#f5f5f5" stroke="transparent" points="141.5,-97.7 141.5,-120.7 274.5,-120.7 274.5,-97.7 141.5,-97.7"/>
<polygon fill="none" stroke="#000000" points="141.5,-97.7 141.5,-120.7 274.5,-120.7 274.5,-97.7 141.5,-97.7"/>
<text text-anchor="start" x="146.5" y="-106.3" font-family="Helvetica,sans-Serif" font-weight="bold" font-size="11.00" fill="#000000">pattern_jp</text>
<text text-anchor="start" x="239.5437" y="-105.8" font-family="Helvetica,sans-Serif" font-size="11.00" fill="#000000">[table]</text>
<polygon fill="none" stroke="#000000" points="141.5,-75.7 141.5,-97.7 274.5,-97.7 274.5,-75.7 141.5,-75.7"/>
<image xlink:href="../../images/primaryKeys.png" width="11px" height="12px" preserveAspectRatio="xMinYMin meet" x="146.5" y="-92.7"/>
<text text-anchor="start" x="161.5" y="-82.8" font-family="Helvetica,sans-Serif" font-size="11.00" fill="#000000">jp_pattern_id</text>
<polygon fill="none" stroke="#000000" points="141.5,-56.7 141.5,-75.7 274.5,-75.7 274.5,-56.7 141.5,-56.7"/>
<text text-anchor="start" x="144.5" y="-62.8" font-family="Helvetica,sans-Serif" font-size="11.00" fill="#000000">...</text>
<polygon fill="#ffffff" stroke="transparent" points="141.5,-37.7 141.5,-56.7 197.5,-56.7 197.5,-37.7 141.5,-37.7"/>
<polygon fill="none" stroke="#000000" points="141.5,-37.7 141.5,-56.7 197.5,-56.7 197.5,-37.7 141.5,-37.7"/>
<text text-anchor="start" x="144.5" y="-43.8" font-family="Helvetica,sans-Serif" font-size="11.00" fill="#000000"> &#160;</text>
<polygon fill="#ffffff" stroke="transparent" points="197.5,-37.7 197.5,-56.7 231.5,-56.7 231.5,-37.7 197.5,-37.7"/>
<polygon fill="none" stroke="#000000" points="197.5,-37.7 197.5,-56.7 231.5,-56.7 231.5,-37.7 197.5,-37.7"/>
<text text-anchor="start" x="222.3862" y="-43.8" font-family="Helvetica,sans-Serif" font-size="11.00" fill="#000000"> &#160;</text>
<polygon fill="#ffffff" stroke="transparent" points="231.5,-37.7 231.5,-56.7 274.5,-56.7 274.5,-37.7 231.5,-37.7"/>
<polygon fill="none" stroke="#000000" points="231.5,-37.7 231.5,-56.7 274.5,-56.7 274.5,-37.7 231.5,-37.7"/>
<text text-anchor="start" x="255.9053" y="-43.8" font-family="Helvetica,sans-Serif" font-size="11.00" fill="#000000">1 &gt;</text>
</a>
</g>
</g>
<!-- trips&#45;&gt;pattern_jp -->
<g id="edge9" class="edge">
<title>trips:w&#45;&gt;pattern_jp:e</title>
<path fill="none" stroke="#000000" d="M314.0737,-161.4526C292.9433,-145.0435 310.9417,-86.7 274.5,-86.7"/>
<polygon fill="#000000" stroke="#000000" points="320.348,-163.3662 326.9498,-169.1434 324.174,-164.5331 328,-165.7 328,-165.7 328,-165.7 324.174,-164.5331 329.0502,-162.2566 320.348,-163.3662 320.348,-163.3662"/>
<ellipse fill="none" stroke="#000000" cx="317.2872" cy="-162.4326" rx="3.2" ry="3.2"/>
</g>
<!-- calendar -->
<g id="node10" class="node">
<title>calendar</title>
<g id="a_node10"><a xlink:href="../../tables/calendar.html" xlink:title="calendar" target="_top">
<polygon fill="#ffffff" stroke="transparent" points="162,-359.2 162,-442.2 253,-442.2 253,-359.2 162,-359.2"/>
<polygon fill="#f5f5f5" stroke="transparent" points="162.5,-418.7 162.5,-441.7 253.5,-441.7 253.5,-418.7 162.5,-418.7"/>
<polygon fill="none" stroke="#000000" points="162.5,-418.7 162.5,-441.7 253.5,-441.7 253.5,-418.7 162.5,-418.7"/>
<text text-anchor="start" x="167.5" y="-427.3" font-family="Helvetica,sans-Serif" font-weight="bold" font-size="11.00" fill="#000000">calendar</text>
<text text-anchor="start" x="219.0219" y="-426.8" font-family="Helvetica,sans-Serif" font-size="11.00" fill="#000000">[table]</text>
<polygon fill="none" stroke="#000000" points="162.5,-396.7 162.5,-418.7 253.5,-418.7 253.5,-396.7 162.5,-396.7"/>
<image xlink:href="../../images/primaryKeys.png" width="11px" height="12px" preserveAspectRatio="xMinYMin meet" x="167.5" y="-413.7"/>
<text text-anchor="start" x="184.5" y="-403.8" font-family="Helvetica,sans-Serif" font-size="11.00" fill="#000000">service_id</text>
<polygon fill="none" stroke="#000000" points="162.5,-377.7 162.5,-396.7 253.5,-396.7 253.5,-377.7 162.5,-377.7"/>
<text text-anchor="start" x="165.5" y="-383.8" font-family="Helvetica,sans-Serif" font-size="11.00" fill="#000000">...</text>
<polygon fill="#ffffff" stroke="transparent" points="162.5,-358.7 162.5,-377.7 197.5,-377.7 197.5,-358.7 162.5,-358.7"/>
<polygon fill="none" stroke="#000000" points="162.5,-358.7 162.5,-377.7 197.5,-377.7 197.5,-358.7 162.5,-358.7"/>
<text text-anchor="start" x="165.5" y="-364.8" font-family="Helvetica,sans-Serif" font-size="11.00" fill="#000000"> &#160;</text>
<polygon fill="#ffffff" stroke="transparent" points="197.5,-358.7 197.5,-377.7 220.5,-377.7 220.5,-358.7 197.5,-358.7"/>
<polygon fill="none" stroke="#000000" points="197.5,-358.7 197.5,-377.7 220.5,-377.7 220.5,-358.7 197.5,-358.7"/>
<text text-anchor="start" x="211.3862" y="-364.8" font-family="Helvetica,sans-Serif" font-size="11.00" fill="#000000"> &#160;</text>
<polygon fill="#ffffff" stroke="transparent" points="220.5,-358.7 220.5,-377.7 253.5,-377.7 253.5,-358.7 220.5,-358.7"/>
<polygon fill="none" stroke="#000000" points="220.5,-358.7 220.5,-377.7 253.5,-377.7 253.5,-358.7 220.5,-358.7"/>
<text text-anchor="start" x="234.9053" y="-364.8" font-family="Helvetica,sans-Serif" font-size="11.00" fill="#000000">1 &gt;</text>
</a>
</g>
</g>
<!-- trips&#45;&gt;calendar -->
<g id="edge11" class="edge">
<title>trips:w&#45;&gt;calendar:e</title>
<path fill="none" stroke="#000000" d="M313.4891,-407.7C291.5043,-407.7 281.1788,-407.7 253.5,-407.7"/>
<polygon fill="#000000" stroke="#000000" points="320,-407.7001 328,-411.3 324,-407.7 328,-407.7 328,-407.7 328,-407.7 324,-407.7 328,-404.1 320,-407.7001 320,-407.7001"/>
<ellipse fill="none" stroke="#000000" cx="316.8" cy="-407.7001" rx="3.2" ry="3.2"/>
</g>
<!-- shapes -->
<g id="node11" class="node">
<title>shapes</title>
<g id="a_node11"><a xlink:href="../../tables/shapes.html" xlink:title="shapes" target="_top">
<polygon fill="#ffffff" stroke="transparent" points="138,-249.2 138,-332.2 277,-332.2 277,-249.2 138,-249.2"/>
<polygon fill="#f5f5f5" stroke="transparent" points="138.5,-308.7 138.5,-331.7 277.5,-331.7 277.5,-308.7 138.5,-308.7"/>
<polygon fill="none" stroke="#000000" points="138.5,-308.7 138.5,-331.7 277.5,-331.7 277.5,-308.7 138.5,-308.7"/>
<text text-anchor="start" x="143.5" y="-317.3" font-family="Helvetica,sans-Serif" font-weight="bold" font-size="11.00" fill="#000000">shapes</text>
<text text-anchor="start" x="242.5437" y="-316.8" font-family="Helvetica,sans-Serif" font-size="11.00" fill="#000000">[table]</text>
<polygon fill="none" stroke="#000000" points="138.5,-286.7 138.5,-308.7 277.5,-308.7 277.5,-286.7 138.5,-286.7"/>
<image xlink:href="../../images/primaryKeys.png" width="11px" height="12px" preserveAspectRatio="xMinYMin meet" x="143.5" y="-303.7"/>
<text text-anchor="start" x="158.5" y="-293.8" font-family="Helvetica,sans-Serif" font-size="11.00" fill="#000000">shape_id</text>
<polygon fill="none" stroke="#000000" points="138.5,-267.7 138.5,-286.7 277.5,-286.7 277.5,-267.7 138.5,-267.7"/>
<text text-anchor="start" x="141.5" y="-273.8" font-family="Helvetica,sans-Serif" font-size="11.00" fill="#000000">...</text>
<polygon fill="#ffffff" stroke="transparent" points="138.5,-248.7 138.5,-267.7 197.5,-267.7 197.5,-248.7 138.5,-248.7"/>
<polygon fill="none" stroke="#000000" points="138.5,-248.7 138.5,-267.7 197.5,-267.7 197.5,-248.7 138.5,-248.7"/>
<text text-anchor="start" x="141.5" y="-254.8" font-family="Helvetica,sans-Serif" font-size="11.00" fill="#000000"> &#160;</text>
<polygon fill="#ffffff" stroke="transparent" points="197.5,-248.7 197.5,-267.7 232.5,-267.7 232.5,-248.7 197.5,-248.7"/>
<polygon fill="none" stroke="#000000" points="197.5,-248.7 197.5,-267.7 232.5,-267.7 232.5,-248.7 197.5,-248.7"/>
<text text-anchor="start" x="223.3862" y="-254.8" font-family="Helvetica,sans-Serif" font-size="11.00" fill="#000000"> &#160;</text>
<polygon fill="#ffffff" stroke="transparent" points="232.5,-248.7 232.5,-267.7 277.5,-267.7 277.5,-248.7 232.5,-248.7"/>
<polygon fill="none" stroke="#000000" points="232.5,-248.7 232.5,-267.7 277.5,-267.7 277.5,-248.7 232.5,-248.7"/>
<text text-anchor="start" x="258.9053" y="-254.8" font-family="Helvetica,sans-Serif" font-size="11.00" fill="#000000">1 &gt;</text>
</a>
</g>
</g>
<!-- trips&#45;&gt;shapes -->
<g id="edge12" class="edge">
<title>trips:w&#45;&gt;shapes:e</title>
<path fill="none" stroke="#000000" d="M313.4203,-297.7C301.5435,-297.7 294.158,-297.7 277.5,-297.7"/>
<polygon fill="#000000" stroke="#000000" points="320,-297.7001 328,-301.3 324,-297.7 328,-297.7 328,-297.7 328,-297.7 324,-297.7 328,-294.1 320,-297.7001 320,-297.7001"/>
<ellipse fill="none" stroke="#000000" cx="316.8" cy="-297.7001" rx="3.2" ry="3.2"/>
</g>
<!-- stop_times -->
<g id="node7" class="node">
<title>stop_times</title>
<g id="a_node7"><a xlink:href="../../tables/stop_times.html" xlink:title="stop_times" target="_top">
<polygon fill="#ffffff" stroke="transparent" points="621,-390.2 621,-517.2 760,-517.2 760,-390.2 621,-390.2"/>
<polygon fill="#f5f5f5" stroke="transparent" points="621.5,-493.7 621.5,-516.7 760.5,-516.7 760.5,-493.7 621.5,-493.7"/>
<polygon fill="none" stroke="#000000" points="621.5,-493.7 621.5,-516.7 760.5,-516.7 760.5,-493.7 621.5,-493.7"/>
<text text-anchor="start" x="626.5" y="-502.3" font-family="Helvetica,sans-Serif" font-weight="bold" font-size="11.00" fill="#000000">stop_times</text>
<text text-anchor="start" x="725.5437" y="-501.8" font-family="Helvetica,sans-Serif" font-size="11.00" fill="#000000">[table]</text>
<polygon fill="none" stroke="#000000" points="621.5,-471.7 621.5,-493.7 760.5,-493.7 760.5,-471.7 621.5,-471.7"/>
<image xlink:href="../../images/primaryKeys.png" width="11px" height="12px" preserveAspectRatio="xMinYMin meet" x="626.5" y="-488.7"/>
<text text-anchor="start" x="641.5" y="-478.8" font-family="Helvetica,sans-Serif" font-size="11.00" fill="#000000">trip_id</text>
<polygon fill="none" stroke="#000000" points="621.5,-449.7 621.5,-471.7 760.5,-471.7 760.5,-449.7 621.5,-449.7"/>
<image xlink:href="../../images/foreignKeys.png" width="11px" height="12px" preserveAspectRatio="xMinYMin meet" x="626.5" y="-466.7"/>
<text text-anchor="start" x="641.5" y="-456.8" font-family="Helvetica,sans-Serif" font-size="11.00" fill="#000000">stop_id</text>
<polygon fill="none" stroke="#000000" points="621.5,-427.7 621.5,-449.7 760.5,-449.7 760.5,-427.7 621.5,-427.7"/>
<image xlink:href="../../images/primaryKeys.png" width="11px" height="12px" preserveAspectRatio="xMinYMin meet" x="626.5" y="-444.7"/>
<text text-anchor="start" x="641.5" y="-434.8" font-family="Helvetica,sans-Serif" font-size="11.00" fill="#000000">stop_sequence</text>
<polygon fill="none" stroke="#000000" points="621.5,-408.7 621.5,-427.7 760.5,-427.7 760.5,-408.7 621.5,-408.7"/>
<text text-anchor="start" x="624.5" y="-414.8" font-family="Helvetica,sans-Serif" font-size="11.00" fill="#000000">...</text>
<polygon fill="#ffffff" stroke="transparent" points="621.5,-389.7 621.5,-408.7 689.5,-408.7 689.5,-389.7 621.5,-389.7"/>
<polygon fill="none" stroke="#000000" points="621.5,-389.7 621.5,-408.7 689.5,-408.7 689.5,-389.7 621.5,-389.7"/>
<text text-anchor="start" x="624.5" y="-395.8" font-family="Helvetica,sans-Serif" font-size="11.00" fill="#000000">&lt; 2</text>
<polygon fill="#ffffff" stroke="transparent" points="689.5,-389.7 689.5,-408.7 724.5,-408.7 724.5,-389.7 689.5,-389.7"/>
<polygon fill="none" stroke="#000000" points="689.5,-389.7 689.5,-408.7 724.5,-408.7 724.5,-389.7 689.5,-389.7"/>
<text text-anchor="start" x="715.3862" y="-395.8" font-family="Helvetica,sans-Serif" font-size="11.00" fill="#000000"> &#160;</text>
<polygon fill="#ffffff" stroke="transparent" points="724.5,-389.7 724.5,-408.7 760.5,-408.7 760.5,-389.7 724.5,-389.7"/>
<polygon fill="none" stroke="#000000" points="724.5,-389.7 724.5,-408.7 760.5,-408.7 760.5,-389.7 724.5,-389.7"/>
<text text-anchor="start" x="751.3862" y="-395.8" font-family="Helvetica,sans-Serif" font-size="11.00" fill="#000000"> &#160;</text>
</a>
</g>
</g>
<!-- stop_times&#45;&gt;stops -->
<g id="edge6" class="edge">
<title>stop_times:w&#45;&gt;stops:e</title>
<path fill="none" stroke="#000000" d="M607.5371,-464.6388C597.3008,-471.9744 595.7136,-487.8737 580,-497.7 541.3018,-521.8994 530.6417,-536.7 485,-536.7"/>
<polygon fill="#000000" stroke="#000000" points="613.8005,-462.872 622.4774,-464.1648 617.6502,-461.786 621.5,-460.7 621.5,-460.7 621.5,-460.7 617.6502,-461.786 620.5226,-457.2352 613.8005,-462.872 613.8005,-462.872"/>
<ellipse fill="none" stroke="#000000" cx="610.7207" cy="-463.7408" rx="3.2" ry="3.2"/>
</g>
<!-- stop_times&#45;&gt;trips -->
<g id="edge7" class="edge">
<title>stop_times:w&#45;&gt;trips:e</title>
<path fill="none" stroke="#000000" d="M607.4805,-478.8988C594.2585,-470.6209 590.8716,-451.7 570,-451.7"/>
<polygon fill="#000000" stroke="#000000" points="613.7788,-480.6064 620.5579,-486.1745 617.6394,-481.6532 621.5,-482.7 621.5,-482.7 621.5,-482.7 617.6394,-481.6532 622.4421,-479.2255 613.7788,-480.6064 613.7788,-480.6064"/>
<ellipse fill="none" stroke="#000000" cx="610.6903" cy="-479.769" rx="3.2" ry="3.2"/>
</g>
</g>
</svg>
