<?xml version="1.0" encoding="UTF-8" standalone="no"?>
<!DOCTYPE svg PUBLIC "-//W3C//DTD SVG 1.1//EN"
 "http://www.w3.org/Graphics/SVG/1.1/DTD/svg11.dtd">
<!-- Generated by graphviz version 2.40.1 (20161225.0304)
 -->
<!-- Title: oneDegreeRelationshipsDiagram Pages: 1 -->
<svg width="646pt" height="577pt"
 viewBox="0.00 0.00 646.00 577.20" xmlns="http://www.w3.org/2000/svg" xmlns:xlink="http://www.w3.org/1999/xlink">
<g id="graph0" class="graph" transform="scale(1 1) rotate(0) translate(4 573.2)">
<title>oneDegreeRelationshipsDiagram</title>
<polygon fill="#ffffff" stroke="transparent" points="-4,4 -4,-573.2 642,-573.2 642,4 -4,4"/>
<text text-anchor="middle" x="72.4936" y="-7.3" font-family="Helvetica,sans-Serif" font-size="11.00" fill="#000000">Generated by SchemaSpy</text>
<!-- frequencies -->
<g id="node1" class="node">
<title>frequencies</title>
<g id="a_node1"><a xlink:href="../../tables/frequencies.html" xlink:title="frequencies" target="_top">
<polygon fill="#ffffff" stroke="transparent" points="506,-455.2 506,-538.2 615,-538.2 615,-455.2 506,-455.2"/>
<polygon fill="#f5f5f5" stroke="transparent" points="506.5,-514.7 506.5,-537.7 615.5,-537.7 615.5,-514.7 506.5,-514.7"/>
<polygon fill="none" stroke="#000000" points="506.5,-514.7 506.5,-537.7 615.5,-537.7 615.5,-514.7 506.5,-514.7"/>
<text text-anchor="start" x="511.5" y="-523.3" font-family="Helvetica,sans-Serif" font-weight="bold" font-size="11.00" fill="#000000">frequencies</text>
<text text-anchor="start" x="581.0219" y="-522.8" font-family="Helvetica,sans-Serif" font-size="11.00" fill="#000000">[table]</text>
<polygon fill="none" stroke="#000000" points="506.5,-492.7 506.5,-514.7 615.5,-514.7 615.5,-492.7 506.5,-492.7"/>
<image xlink:href="../../images/foreignKeys.png" width="11px" height="12px" preserveAspectRatio="xMinYMin meet" x="511.5" y="-509.7"/>
<text text-anchor="start" x="528.5" y="-499.8" font-family="Helvetica,sans-Serif" font-size="11.00" fill="#000000">trip_id</text>
<polygon fill="none" stroke="#000000" points="506.5,-473.7 506.5,-492.7 615.5,-492.7 615.5,-473.7 506.5,-473.7"/>
<text text-anchor="start" x="509.5" y="-479.8" font-family="Helvetica,sans-Serif" font-size="11.00" fill="#000000">...</text>
<polygon fill="#ffffff" stroke="transparent" points="506.5,-454.7 506.5,-473.7 559.5,-473.7 559.5,-454.7 506.5,-454.7"/>
<polygon fill="none" stroke="#000000" points="506.5,-454.7 506.5,-473.7 559.5,-473.7 559.5,-454.7 506.5,-454.7"/>
<text text-anchor="start" x="509.5" y="-460.8" font-family="Helvetica,sans-Serif" font-size="11.00" fill="#000000">&lt; 1</text>
<polygon fill="#ffffff" stroke="transparent" points="559.5,-454.7 559.5,-473.7 587.5,-473.7 587.5,-454.7 559.5,-454.7"/>
<polygon fill="none" stroke="#000000" points="559.5,-454.7 559.5,-473.7 587.5,-473.7 587.5,-454.7 559.5,-454.7"/>
<text text-anchor="start" x="578.3862" y="-460.8" font-family="Helvetica,sans-Serif" font-size="11.00" fill="#000000"> &#160;</text>
<polygon fill="#ffffff" stroke="transparent" points="587.5,-454.7 587.5,-473.7 615.5,-473.7 615.5,-454.7 587.5,-454.7"/>
<polygon fill="none" stroke="#000000" points="587.5,-454.7 587.5,-473.7 615.5,-473.7 615.5,-454.7 587.5,-454.7"/>
<text text-anchor="start" x="606.3862" y="-460.8" font-family="Helvetica,sans-Serif" font-size="11.00" fill="#000000"> &#160;</text>
</a>
</g>
</g>
<!-- trips -->
<g id="node2" class="node">
<title>trips</title>
<g id="a_node2"><a xlink:href="../../tables/trips.html" xlink:title="trips" target="_top">
<polygon fill="#ffffff" stroke="transparent" points="196,-133.7 196,-487.7 442,-487.7 442,-133.7 196,-133.7"/>
<polygon fill="#f5f5f5" stroke="transparent" points="198,-462.7 198,-485.7 440,-485.7 440,-462.7 198,-462.7"/>
<polygon fill="none" stroke="#000000" points="198,-462.7 198,-485.7 440,-485.7 440,-462.7 198,-462.7"/>
<text text-anchor="start" x="203" y="-471.3" font-family="Helvetica,sans-Serif" font-weight="bold" font-size="11.00" fill="#000000">trips</text>
<text text-anchor="start" x="405.0437" y="-470.8" font-family="Helvetica,sans-Serif" font-size="11.00" fill="#000000">[table]</text>
<polygon fill="none" stroke="#000000" points="198,-440.7 198,-462.7 350,-462.7 350,-440.7 198,-440.7"/>
<image xlink:href="../../images/primaryKeys.png" width="11px" height="12px" preserveAspectRatio="xMinYMin meet" x="203" y="-457.7"/>
<text text-anchor="start" x="218" y="-447.8" font-family="Helvetica,sans-Serif" font-size="11.00" fill="#000000">trip_id</text>
<polygon fill="none" stroke="#000000" points="350,-440.7 350,-462.7 440,-462.7 440,-440.7 350,-440.7"/>
<text text-anchor="start" x="353" y="-448.4" font-family="Helvetica,sans-Serif" font-size="11.00" fill="#000000">varchar[64]</text>
<polygon fill="none" stroke="#000000" points="198,-418.7 198,-440.7 350,-440.7 350,-418.7 198,-418.7"/>
<image xlink:href="../../images/foreignKeys.png" width="11px" height="12px" preserveAspectRatio="xMinYMin meet" x="203" y="-435.7"/>
<text text-anchor="start" x="218" y="-425.8" font-family="Helvetica,sans-Serif" font-size="11.00" fill="#000000">route_id</text>
<polygon fill="none" stroke="#000000" points="350,-418.7 350,-440.7 440,-440.7 440,-418.7 350,-418.7"/>
<text text-anchor="start" x="353" y="-426.4" font-family="Helvetica,sans-Serif" font-size="11.00" fill="#000000">varchar[64]</text>
<polygon fill="none" stroke="#000000" points="198,-396.7 198,-418.7 350,-418.7 350,-396.7 198,-396.7"/>
<image xlink:href="../../images/foreignKeys.png" width="11px" height="12px" preserveAspectRatio="xMinYMin meet" x="203" y="-413.7"/>
<text text-anchor="start" x="218" y="-403.8" font-family="Helvetica,sans-Serif" font-size="11.00" fill="#000000">service_id</text>
<polygon fill="none" stroke="#000000" points="350,-396.7 350,-418.7 440,-418.7 440,-396.7 350,-396.7"/>
<text text-anchor="start" x="353" y="-404.4" font-family="Helvetica,sans-Serif" font-size="11.00" fill="#000000">varchar[64]</text>
<polygon fill="none" stroke="#000000" points="198,-374.7 198,-396.7 350,-396.7 350,-374.7 198,-374.7"/>
<text text-anchor="start" x="218" y="-381.8" font-family="Helvetica,sans-Serif" font-size="11.00" fill="#000000">trip_headsign</text>
<polygon fill="none" stroke="#000000" points="350,-374.7 350,-396.7 440,-396.7 440,-374.7 350,-374.7"/>
<text text-anchor="start" x="352.5043" y="-382.4" font-family="Helvetica,sans-Serif" font-size="11.00" fill="#000000">text[2147483647]</text>
<polygon fill="none" stroke="#000000" points="198,-352.7 198,-374.7 350,-374.7 350,-352.7 198,-352.7"/>
<text text-anchor="start" x="218" y="-359.8" font-family="Helvetica,sans-Serif" font-size="11.00" fill="#000000">trip_short_name</text>
<polygon fill="none" stroke="#000000" points="350,-352.7 350,-374.7 440,-374.7 440,-352.7 350,-352.7"/>
<text text-anchor="start" x="353" y="-360.4" font-family="Helvetica,sans-Serif" font-size="11.00" fill="#000000">varchar[64]</text>
<polygon fill="none" stroke="#000000" points="198,-330.7 198,-352.7 350,-352.7 350,-330.7 198,-330.7"/>
<text text-anchor="start" x="218" y="-337.8" font-family="Helvetica,sans-Serif" font-size="11.00" fill="#000000">direction_id</text>
<polygon fill="none" stroke="#000000" points="350,-330.7 350,-352.7 440,-352.7 440,-330.7 350,-330.7"/>
<text text-anchor="start" x="353" y="-338.4" font-family="Helvetica,sans-Serif" font-size="11.00" fill="#000000">int2[5]</text>
<polygon fill="none" stroke="#000000" points="198,-308.7 198,-330.7 350,-330.7 350,-308.7 198,-308.7"/>
<text text-anchor="start" x="218" y="-315.8" font-family="Helvetica,sans-Serif" font-size="11.00" fill="#000000">block_id</text>
<polygon fill="none" stroke="#000000" points="350,-308.7 350,-330.7 440,-330.7 440,-308.7 350,-308.7"/>
<text text-anchor="start" x="353" y="-316.4" font-family="Helvetica,sans-Serif" font-size="11.00" fill="#000000">varchar[64]</text>
<polygon fill="none" stroke="#000000" points="198,-286.7 198,-308.7 350,-308.7 350,-286.7 198,-286.7"/>
<image xlink:href="../../images/foreignKeys.png" width="11px" height="12px" preserveAspectRatio="xMinYMin meet" x="203" y="-303.7"/>
<text text-anchor="start" x="218" y="-293.8" font-family="Helvetica,sans-Serif" font-size="11.00" fill="#000000">shape_id</text>
<polygon fill="none" stroke="#000000" points="350,-286.7 350,-308.7 440,-308.7 440,-286.7 350,-286.7"/>
<text text-anchor="start" x="353" y="-294.4" font-family="Helvetica,sans-Serif" font-size="11.00" fill="#000000">varchar[64]</text>
<polygon fill="none" stroke="#000000" points="198,-264.7 198,-286.7 350,-286.7 350,-264.7 198,-264.7"/>
<text text-anchor="start" x="218" y="-271.8" font-family="Helvetica,sans-Serif" font-size="11.00" fill="#000000">wheelchair_accessible</text>
<polygon fill="none" stroke="#000000" points="350,-264.7 350,-286.7 440,-286.7 440,-264.7 350,-264.7"/>
<text text-anchor="start" x="353" y="-272.4" font-family="Helvetica,sans-Serif" font-size="11.00" fill="#000000">int2[5]</text>
<polygon fill="none" stroke="#000000" points="198,-242.7 198,-264.7 350,-264.7 350,-242.7 198,-242.7"/>
<text text-anchor="start" x="218" y="-249.8" font-family="Helvetica,sans-Serif" font-size="11.00" fill="#000000">bikes_allowed</text>
<polygon fill="none" stroke="#000000" points="350,-242.7 350,-264.7 440,-264.7 440,-242.7 350,-242.7"/>
<text text-anchor="start" x="353" y="-250.4" font-family="Helvetica,sans-Serif" font-size="11.00" fill="#000000">int2[5]</text>
<polygon fill="none" stroke="#000000" points="198,-220.7 198,-242.7 350,-242.7 350,-220.7 198,-220.7"/>
<text text-anchor="start" x="218" y="-227.8" font-family="Helvetica,sans-Serif" font-size="11.00" fill="#000000">jp_trip_desc</text>
<polygon fill="none" stroke="#000000" points="350,-220.7 350,-242.7 440,-242.7 440,-220.7 350,-220.7"/>
<text text-anchor="start" x="352.5043" y="-228.4" font-family="Helvetica,sans-Serif" font-size="11.00" fill="#000000">text[2147483647]</text>
<polygon fill="none" stroke="#000000" points="198,-198.7 198,-220.7 350,-220.7 350,-198.7 198,-198.7"/>
<text text-anchor="start" x="218" y="-205.8" font-family="Helvetica,sans-Serif" font-size="11.00" fill="#000000">jp_trip_desc_symbol</text>
<polygon fill="none" stroke="#000000" points="350,-198.7 350,-220.7 440,-220.7 440,-198.7 350,-198.7"/>
<text text-anchor="start" x="352.5043" y="-206.4" font-family="Helvetica,sans-Serif" font-size="11.00" fill="#000000">text[2147483647]</text>
<polygon fill="none" stroke="#000000" points="198,-176.7 198,-198.7 350,-198.7 350,-176.7 198,-176.7"/>
<image xlink:href="../../images/foreignKeys.png" width="11px" height="12px" preserveAspectRatio="xMinYMin meet" x="203" y="-193.7"/>
<text text-anchor="start" x="218" y="-183.8" font-family="Helvetica,sans-Serif" font-size="11.00" fill="#000000">jp_office_id</text>
<polygon fill="none" stroke="#000000" points="350,-176.7 350,-198.7 440,-198.7 440,-176.7 350,-176.7"/>
<text text-anchor="start" x="353" y="-184.4" font-family="Helvetica,sans-Serif" font-size="11.00" fill="#000000">varchar[64]</text>
<polygon fill="none" stroke="#000000" points="198,-154.7 198,-176.7 350,-176.7 350,-154.7 198,-154.7"/>
<image xlink:href="../../images/foreignKeys.png" width="11px" height="12px" preserveAspectRatio="xMinYMin meet" x="203" y="-171.7"/>
<text text-anchor="start" x="218" y="-161.8" font-family="Helvetica,sans-Serif" font-size="11.00" fill="#000000">jp_pattern_id</text>
<polygon fill="none" stroke="#000000" points="350,-154.7 350,-176.7 440,-176.7 440,-154.7 350,-154.7"/>
<text text-anchor="start" x="353" y="-162.4" font-family="Helvetica,sans-Serif" font-size="11.00" fill="#000000">varchar[64]</text>
<polygon fill="#ffffff" stroke="transparent" points="198,-135.7 198,-154.7 278,-154.7 278,-135.7 198,-135.7"/>
<polygon fill="none" stroke="#000000" points="198,-135.7 198,-154.7 278,-154.7 278,-135.7 198,-135.7"/>
<text text-anchor="start" x="201" y="-141.8" font-family="Helvetica,sans-Serif" font-size="11.00" fill="#000000">&lt; 5</text>
<polygon fill="#ffffff" stroke="transparent" points="278,-135.7 278,-154.7 350,-154.7 350,-135.7 278,-135.7"/>
<polygon fill="none" stroke="#000000" points="278,-135.7 278,-154.7 350,-154.7 350,-135.7 278,-135.7"/>
<text text-anchor="start" x="340.8862" y="-141.8" font-family="Helvetica,sans-Serif" font-size="11.00" fill="#000000"> &#160;</text>
<polygon fill="#ffffff" stroke="transparent" points="350,-135.7 350,-154.7 440,-154.7 440,-135.7 350,-135.7"/>
<polygon fill="none" stroke="#000000" points="350,-135.7 350,-154.7 440,-154.7 440,-135.7 350,-135.7"/>
<text text-anchor="start" x="421.4053" y="-141.8" font-family="Helvetica,sans-Serif" font-size="11.00" fill="#000000">2 &gt;</text>
<polygon fill="none" stroke="#000000" stroke-width="2" points="197,-134.7 197,-486.7 441,-486.7 441,-134.7 197,-134.7"/>
</a>
</g>
</g>
<!-- frequencies&#45;&gt;trips -->
<g id="edge1" class="edge">
<title>frequencies:w&#45;&gt;trips:e</title>
<path fill="none" stroke="#000000" d="M492.2338,-500.4472C470.5136,-489.0631 471.803,-451.7 440,-451.7"/>
<polygon fill="#000000" stroke="#000000" points="498.7002,-501.9215 505.6997,-507.2099 502.6001,-502.8108 506.5,-503.7 506.5,-503.7 506.5,-503.7 502.6001,-502.8108 507.3003,-500.1901 498.7002,-501.9215 498.7002,-501.9215"/>
<ellipse fill="none" stroke="#000000" cx="495.5803" cy="-501.2101" rx="3.2" ry="3.2"/>
</g>
<!-- office_jp -->
<g id="node4" class="node">
<title>office_jp</title>
<g id="a_node4"><a xlink:href="../../tables/office_jp.html" xlink:title="office_jp" target="_top">
<polygon fill="#ffffff" stroke="transparent" points="29,-142.2 29,-225.2 126,-225.2 126,-142.2 29,-142.2"/>
<polygon fill="#f5f5f5" stroke="transparent" points="29.5,-201.7 29.5,-224.7 126.5,-224.7 126.5,-201.7 29.5,-201.7"/>
<polygon fill="none" stroke="#000000" points="29.5,-201.7 29.5,-224.7 126.5,-224.7 126.5,-201.7 29.5,-201.7"/>
<text text-anchor="start" x="34.5" y="-210.3" font-family="Helvetica,sans-Serif" font-weight="bold" font-size="11.00" fill="#000000">office_jp</text>
<text text-anchor="start" x="91.5437" y="-209.8" font-family="Helvetica,sans-Serif" font-size="11.00" fill="#000000">[table]</text>
<polygon fill="none" stroke="#000000" points="29.5,-179.7 29.5,-201.7 126.5,-201.7 126.5,-179.7 29.5,-179.7"/>
<image xlink:href="../../images/primaryKeys.png" width="11px" height="12px" preserveAspectRatio="xMinYMin meet" x="34.5" y="-196.7"/>
<text text-anchor="start" x="49.5" y="-186.8" font-family="Helvetica,sans-Serif" font-size="11.00" fill="#000000">office_id</text>
<polygon fill="none" stroke="#000000" points="29.5,-160.7 29.5,-179.7 126.5,-179.7 126.5,-160.7 29.5,-160.7"/>
<text text-anchor="start" x="32.5" y="-166.8" font-family="Helvetica,sans-Serif" font-size="11.00" fill="#000000">...</text>
<polygon fill="#ffffff" stroke="transparent" points="29.5,-141.7 29.5,-160.7 67.5,-160.7 67.5,-141.7 29.5,-141.7"/>
<polygon fill="none" stroke="#000000" points="29.5,-141.7 29.5,-160.7 67.5,-160.7 67.5,-141.7 29.5,-141.7"/>
<text text-anchor="start" x="32.5" y="-147.8" font-family="Helvetica,sans-Serif" font-size="11.00" fill="#000000"> &#160;</text>
<polygon fill="#ffffff" stroke="transparent" points="67.5,-141.7 67.5,-160.7 92.5,-160.7 92.5,-141.7 67.5,-141.7"/>
<polygon fill="none" stroke="#000000" points="67.5,-141.7 67.5,-160.7 92.5,-160.7 92.5,-141.7 67.5,-141.7"/>
<text text-anchor="start" x="83.3862" y="-147.8" font-family="Helvetica,sans-Serif" font-size="11.00" fill="#000000"> &#160;</text>
<polygon fill="#ffffff" stroke="transparent" points="92.5,-141.7 92.5,-160.7 126.5,-160.7 126.5,-141.7 92.5,-141.7"/>
<polygon fill="none" stroke="#000000" points="92.5,-141.7 92.5,-160.7 126.5,-160.7 126.5,-141.7 92.5,-141.7"/>
<text text-anchor="start" x="107.9053" y="-147.8" font-family="Helvetica,sans-Serif" font-size="11.00" fill="#000000">1 &gt;</text>
</a>
</g>
</g>
<!-- trips&#45;&gt;office_jp -->
<g id="edge3" class="edge">
<title>trips:w&#45;&gt;office_jp:e</title>
<path fill="none" stroke="#000000" d="M183.4769,-187.9354C162.776,-188.6426 152.8391,-190.7 126.5,-190.7"/>
<polygon fill="#000000" stroke="#000000" points="190.0011,-187.8297 198.0584,-191.2995 194.0005,-187.7649 198,-187.7 198,-187.7 198,-187.7 194.0005,-187.7649 197.9416,-184.1005 190.0011,-187.8297 190.0011,-187.8297"/>
<ellipse fill="none" stroke="#000000" cx="186.8015" cy="-187.8816" rx="3.2" ry="3.2"/>
</g>
<!-- pattern_jp -->
<g id="node5" class="node">
<title>pattern_jp</title>
<g id="a_node5"><a xlink:href="../../tables/pattern_jp.html" xlink:title="pattern_jp" target="_top">
<polygon fill="#ffffff" stroke="transparent" points="11,-38.2 11,-121.2 144,-121.2 144,-38.2 11,-38.2"/>
<polygon fill="#f5f5f5" stroke="transparent" points="11.5,-97.7 11.5,-120.7 144.5,-120.7 144.5,-97.7 11.5,-97.7"/>
<polygon fill="none" stroke="#000000" points="11.5,-97.7 11.5,-120.7 144.5,-120.7 144.5,-97.7 11.5,-97.7"/>
<text text-anchor="start" x="16.5" y="-106.3" font-family="Helvetica,sans-Serif" font-weight="bold" font-size="11.00" fill="#000000">pattern_jp</text>
<text text-anchor="start" x="109.5437" y="-105.8" font-family="Helvetica,sans-Serif" font-size="11.00" fill="#000000">[table]</text>
<polygon fill="none" stroke="#000000" points="11.5,-75.7 11.5,-97.7 144.5,-97.7 144.5,-75.7 11.5,-75.7"/>
<image xlink:href="../../images/primaryKeys.png" width="11px" height="12px" preserveAspectRatio="xMinYMin meet" x="16.5" y="-92.7"/>
<text text-anchor="start" x="31.5" y="-82.8" font-family="Helvetica,sans-Serif" font-size="11.00" fill="#000000">jp_pattern_id</text>
<polygon fill="none" stroke="#000000" points="11.5,-56.7 11.5,-75.7 144.5,-75.7 144.5,-56.7 11.5,-56.7"/>
<text text-anchor="start" x="14.5" y="-62.8" font-family="Helvetica,sans-Serif" font-size="11.00" fill="#000000">...</text>
<polygon fill="#ffffff" stroke="transparent" points="11.5,-37.7 11.5,-56.7 67.5,-56.7 67.5,-37.7 11.5,-37.7"/>
<polygon fill="none" stroke="#000000" points="11.5,-37.7 11.5,-56.7 67.5,-56.7 67.5,-37.7 11.5,-37.7"/>
<text text-anchor="start" x="14.5" y="-43.8" font-family="Helvetica,sans-Serif" font-size="11.00" fill="#000000"> &#160;</text>
<polygon fill="#ffffff" stroke="transparent" points="67.5,-37.7 67.5,-56.7 101.5,-56.7 101.5,-37.7 67.5,-37.7"/>
<polygon fill="none" stroke="#000000" points="67.5,-37.7 67.5,-56.7 101.5,-56.7 101.5,-37.7 67.5,-37.7"/>
<text text-anchor="start" x="92.3862" y="-43.8" font-family="Helvetica,sans-Serif" font-size="11.00" fill="#000000"> &#160;</text>
<polygon fill="#ffffff" stroke="transparent" points="101.5,-37.7 101.5,-56.7 144.5,-56.7 144.5,-37.7 101.5,-37.7"/>
<polygon fill="none" stroke="#000000" points="101.5,-37.7 101.5,-56.7 144.5,-56.7 144.5,-37.7 101.5,-37.7"/>
<text text-anchor="start" x="125.9053" y="-43.8" font-family="Helvetica,sans-Serif" font-size="11.00" fill="#000000">1 &gt;</text>
</a>
</g>
</g>
<!-- trips&#45;&gt;pattern_jp -->
<g id="edge4" class="edge">
<title>trips:w&#45;&gt;pattern_jp:e</title>
<path fill="none" stroke="#000000" d="M184.0737,-161.4526C162.9433,-145.0435 180.9417,-86.7 144.5,-86.7"/>
<polygon fill="#000000" stroke="#000000" points="190.348,-163.3662 196.9498,-169.1434 194.174,-164.5331 198,-165.7 198,-165.7 198,-165.7 194.174,-164.5331 199.0502,-162.2566 190.348,-163.3662 190.348,-163.3662"/>
<ellipse fill="none" stroke="#000000" cx="187.2872" cy="-162.4326" rx="3.2" ry="3.2"/>
</g>
<!-- routes -->
<g id="node6" class="node">
<title>routes</title>
<g id="a_node6"><a xlink:href="../../tables/routes.html" xlink:title="routes" target="_top">
<polygon fill="#ffffff" stroke="transparent" points="12,-460.2 12,-565.2 143,-565.2 143,-460.2 12,-460.2"/>
<polygon fill="#f5f5f5" stroke="transparent" points="12.5,-541.7 12.5,-564.7 143.5,-564.7 143.5,-541.7 12.5,-541.7"/>
<polygon fill="none" stroke="#000000" points="12.5,-541.7 12.5,-564.7 143.5,-564.7 143.5,-541.7 12.5,-541.7"/>
<text text-anchor="start" x="17.5" y="-550.3" font-family="Helvetica,sans-Serif" font-weight="bold" font-size="11.00" fill="#000000">routes</text>
<text text-anchor="start" x="108.5437" y="-549.8" font-family="Helvetica,sans-Serif" font-size="11.00" fill="#000000">[table]</text>
<polygon fill="none" stroke="#000000" points="12.5,-519.7 12.5,-541.7 143.5,-541.7 143.5,-519.7 12.5,-519.7"/>
<image xlink:href="../../images/primaryKeys.png" width="11px" height="12px" preserveAspectRatio="xMinYMin meet" x="17.5" y="-536.7"/>
<text text-anchor="start" x="32.5" y="-526.8" font-family="Helvetica,sans-Serif" font-size="11.00" fill="#000000">route_id</text>
<polygon fill="none" stroke="#000000" points="12.5,-497.7 12.5,-519.7 143.5,-519.7 143.5,-497.7 12.5,-497.7"/>
<image xlink:href="../../images/foreignKeys.png" width="11px" height="12px" preserveAspectRatio="xMinYMin meet" x="17.5" y="-514.7"/>
<text text-anchor="start" x="32.5" y="-504.8" font-family="Helvetica,sans-Serif" font-size="11.00" fill="#000000">agency_id</text>
<polygon fill="none" stroke="#000000" points="12.5,-478.7 12.5,-497.7 143.5,-497.7 143.5,-478.7 12.5,-478.7"/>
<text text-anchor="start" x="15.5" y="-484.8" font-family="Helvetica,sans-Serif" font-size="11.00" fill="#000000">...</text>
<polygon fill="#ffffff" stroke="transparent" points="12.5,-459.7 12.5,-478.7 71.5,-478.7 71.5,-459.7 12.5,-459.7"/>
<polygon fill="none" stroke="#000000" points="12.5,-459.7 12.5,-478.7 71.5,-478.7 71.5,-459.7 12.5,-459.7"/>
<text text-anchor="start" x="15.5" y="-465.8" font-family="Helvetica,sans-Serif" font-size="11.00" fill="#000000">&lt; 1</text>
<polygon fill="#ffffff" stroke="transparent" points="71.5,-459.7 71.5,-478.7 102.5,-478.7 102.5,-459.7 71.5,-459.7"/>
<polygon fill="none" stroke="#000000" points="71.5,-459.7 71.5,-478.7 102.5,-478.7 102.5,-459.7 71.5,-459.7"/>
<text text-anchor="start" x="93.3862" y="-465.8" font-family="Helvetica,sans-Serif" font-size="11.00" fill="#000000"> &#160;</text>
<polygon fill="#ffffff" stroke="transparent" points="102.5,-459.7 102.5,-478.7 143.5,-478.7 143.5,-459.7 102.5,-459.7"/>
<polygon fill="none" stroke="#000000" points="102.5,-459.7 102.5,-478.7 143.5,-478.7 143.5,-459.7 102.5,-459.7"/>
<text text-anchor="start" x="124.9053" y="-465.8" font-family="Helvetica,sans-Serif" font-size="11.00" fill="#000000">2 &gt;</text>
</a>
</g>
</g>
<!-- trips&#45;&gt;routes -->
<g id="edge5" class="edge">
<title>trips:w&#45;&gt;routes:e</title>
<path fill="none" stroke="#000000" d="M183.8097,-433.536C156.776,-451.9849 188.5297,-530.7 143.5,-530.7"/>
<polygon fill="#000000" stroke="#000000" points="190.2772,-431.7877 198.9395,-433.1753 194.1386,-430.7438 198,-429.7 198,-429.7 198,-429.7 194.1386,-430.7438 197.0605,-426.2247 190.2772,-431.7877 190.2772,-431.7877"/>
<ellipse fill="none" stroke="#000000" cx="187.1881" cy="-432.6228" rx="3.2" ry="3.2"/>
</g>
<!-- calendar -->
<g id="node7" class="node">
<title>calendar</title>
<g id="a_node7"><a xlink:href="../../tables/calendar.html" xlink:title="calendar" target="_top">
<polygon fill="#ffffff" stroke="transparent" points="32,-356.2 32,-439.2 123,-439.2 123,-356.2 32,-356.2"/>
<polygon fill="#f5f5f5" stroke="transparent" points="32.5,-415.7 32.5,-438.7 123.5,-438.7 123.5,-415.7 32.5,-415.7"/>
<polygon fill="none" stroke="#000000" points="32.5,-415.7 32.5,-438.7 123.5,-438.7 123.5,-415.7 32.5,-415.7"/>
<text text-anchor="start" x="37.5" y="-424.3" font-family="Helvetica,sans-Serif" font-weight="bold" font-size="11.00" fill="#000000">calendar</text>
<text text-anchor="start" x="89.0219" y="-423.8" font-family="Helvetica,sans-Serif" font-size="11.00" fill="#000000">[table]</text>
<polygon fill="none" stroke="#000000" points="32.5,-393.7 32.5,-415.7 123.5,-415.7 123.5,-393.7 32.5,-393.7"/>
<image xlink:href="../../images/primaryKeys.png" width="11px" height="12px" preserveAspectRatio="xMinYMin meet" x="37.5" y="-410.7"/>
<text text-anchor="start" x="54.5" y="-400.8" font-family="Helvetica,sans-Serif" font-size="11.00" fill="#000000">service_id</text>
<polygon fill="none" stroke="#000000" points="32.5,-374.7 32.5,-393.7 123.5,-393.7 123.5,-374.7 32.5,-374.7"/>
<text text-anchor="start" x="35.5" y="-380.8" font-family="Helvetica,sans-Serif" font-size="11.00" fill="#000000">...</text>
<polygon fill="#ffffff" stroke="transparent" points="32.5,-355.7 32.5,-374.7 67.5,-374.7 67.5,-355.7 32.5,-355.7"/>
<polygon fill="none" stroke="#000000" points="32.5,-355.7 32.5,-374.7 67.5,-374.7 67.5,-355.7 32.5,-355.7"/>
<text text-anchor="start" x="35.5" y="-361.8" font-family="Helvetica,sans-Serif" font-size="11.00" fill="#000000"> &#160;</text>
<polygon fill="#ffffff" stroke="transparent" points="67.5,-355.7 67.5,-374.7 90.5,-374.7 90.5,-355.7 67.5,-355.7"/>
<polygon fill="none" stroke="#000000" points="67.5,-355.7 67.5,-374.7 90.5,-374.7 90.5,-355.7 67.5,-355.7"/>
<text text-anchor="start" x="81.3862" y="-361.8" font-family="Helvetica,sans-Serif" font-size="11.00" fill="#000000"> &#160;</text>
<polygon fill="#ffffff" stroke="transparent" points="90.5,-355.7 90.5,-374.7 123.5,-374.7 123.5,-355.7 90.5,-355.7"/>
<polygon fill="none" stroke="#000000" points="90.5,-355.7 90.5,-374.7 123.5,-374.7 123.5,-355.7 90.5,-355.7"/>
<text text-anchor="start" x="104.9053" y="-361.8" font-family="Helvetica,sans-Serif" font-size="11.00" fill="#000000">1 &gt;</text>
</a>
</g>
</g>
<!-- trips&#45;&gt;calendar -->
<g id="edge6" class="edge">
<title>trips:w&#45;&gt;calendar:e</title>
<path fill="none" stroke="#000000" d="M183.4817,-407.4842C161.4929,-406.7964 151.2013,-404.7 123.5,-404.7"/>
<polygon fill="#000000" stroke="#000000" points="190.0009,-407.5811 197.9465,-411.2996 194.0004,-407.6405 198,-407.7 198,-407.7 198,-407.7 194.0004,-407.6405 198.0535,-404.1004 190.0009,-407.5811 190.0009,-407.5811"/>
<ellipse fill="none" stroke="#000000" cx="186.8012" cy="-407.5335" rx="3.2" ry="3.2"/>
</g>
<!-- shapes -->
<g id="node8" class="node">
<title>shapes</title>
<g id="a_node8"><a xlink:href="../../tables/shapes.html" xlink:title="shapes" target="_top">
<polygon fill="#ffffff" stroke="transparent" points="8,-249.2 8,-332.2 147,-332.2 147,-249.2 8,-249.2"/>
<polygon fill="#f5f5f5" stroke="transparent" points="8.5,-308.7 8.5,-331.7 147.5,-331.7 147.5,-308.7 8.5,-308.7"/>
<polygon fill="none" stroke="#000000" points="8.5,-308.7 8.5,-331.7 147.5,-331.7 147.5,-308.7 8.5,-308.7"/>
<text text-anchor="start" x="13.5" y="-317.3" font-family="Helvetica,sans-Serif" font-weight="bold" font-size="11.00" fill="#000000">shapes</text>
<text text-anchor="start" x="112.5437" y="-316.8" font-family="Helvetica,sans-Serif" font-size="11.00" fill="#000000">[table]</text>
<polygon fill="none" stroke="#000000" points="8.5,-286.7 8.5,-308.7 147.5,-308.7 147.5,-286.7 8.5,-286.7"/>
<image xlink:href="../../images/primaryKeys.png" width="11px" height="12px" preserveAspectRatio="xMinYMin meet" x="13.5" y="-303.7"/>
<text text-anchor="start" x="28.5" y="-293.8" font-family="Helvetica,sans-Serif" font-size="11.00" fill="#000000">shape_id</text>
<polygon fill="none" stroke="#000000" points="8.5,-267.7 8.5,-286.7 147.5,-286.7 147.5,-267.7 8.5,-267.7"/>
<text text-anchor="start" x="11.5" y="-273.8" font-family="Helvetica,sans-Serif" font-size="11.00" fill="#000000">...</text>
<polygon fill="#ffffff" stroke="transparent" points="8.5,-248.7 8.5,-267.7 67.5,-267.7 67.5,-248.7 8.5,-248.7"/>
<polygon fill="none" stroke="#000000" points="8.5,-248.7 8.5,-267.7 67.5,-267.7 67.5,-248.7 8.5,-248.7"/>
<text text-anchor="start" x="11.5" y="-254.8" font-family="Helvetica,sans-Serif" font-size="11.00" fill="#000000"> &#160;</text>
<polygon fill="#ffffff" stroke="transparent" points="67.5,-248.7 67.5,-267.7 102.5,-267.7 102.5,-248.7 67.5,-248.7"/>
<polygon fill="none" stroke="#000000" points="67.5,-248.7 67.5,-267.7 102.5,-267.7 102.5,-248.7 67.5,-248.7"/>
<text text-anchor="start" x="93.3862" y="-254.8" font-family="Helvetica,sans-Serif" font-size="11.00" fill="#000000"> &#160;</text>
<polygon fill="#ffffff" stroke="transparent" points="102.5,-248.7 102.5,-267.7 147.5,-267.7 147.5,-248.7 102.5,-248.7"/>
<polygon fill="none" stroke="#000000" points="102.5,-248.7 102.5,-267.7 147.5,-267.7 147.5,-248.7 102.5,-248.7"/>
<text text-anchor="start" x="128.9053" y="-254.8" font-family="Helvetica,sans-Serif" font-size="11.00" fill="#000000">1 &gt;</text>
</a>
</g>
</g>
<!-- trips&#45;&gt;shapes -->
<g id="edge7" class="edge">
<title>trips:w&#45;&gt;shapes:e</title>
<path fill="none" stroke="#000000" d="M183.4203,-297.7C171.5435,-297.7 164.158,-297.7 147.5,-297.7"/>
<polygon fill="#000000" stroke="#000000" points="190,-297.7001 198,-301.3 194,-297.7 198,-297.7 198,-297.7 198,-297.7 194,-297.7 198,-294.1 190,-297.7001 190,-297.7001"/>
<ellipse fill="none" stroke="#000000" cx="186.8" cy="-297.7001" rx="3.2" ry="3.2"/>
</g>
<!-- stop_times -->
<g id="node3" class="node">
<title>stop_times</title>
<g id="a_node3"><a xlink:href="../../tables/stop_times.html" xlink:title="stop_times" target="_top">
<polygon fill="#ffffff" stroke="transparent" points="491,-329.2 491,-434.2 630,-434.2 630,-329.2 491,-329.2"/>
<polygon fill="#f5f5f5" stroke="transparent" points="491.5,-410.7 491.5,-433.7 630.5,-433.7 630.5,-410.7 491.5,-410.7"/>
<polygon fill="none" stroke="#000000" points="491.5,-410.7 491.5,-433.7 630.5,-433.7 630.5,-410.7 491.5,-410.7"/>
<text text-anchor="start" x="496.5" y="-419.3" font-family="Helvetica,sans-Serif" font-weight="bold" font-size="11.00" fill="#000000">stop_times</text>
<text text-anchor="start" x="595.5437" y="-418.8" font-family="Helvetica,sans-Serif" font-size="11.00" fill="#000000">[table]</text>
<polygon fill="none" stroke="#000000" points="491.5,-388.7 491.5,-410.7 630.5,-410.7 630.5,-388.7 491.5,-388.7"/>
<image xlink:href="../../images/foreignKeys.png" width="11px" height="12px" preserveAspectRatio="xMinYMin meet" x="496.5" y="-405.7"/>
<text text-anchor="start" x="511.5" y="-395.8" font-family="Helvetica,sans-Serif" font-size="11.00" fill="#000000">trip_id</text>
<polygon fill="none" stroke="#000000" points="491.5,-366.7 491.5,-388.7 630.5,-388.7 630.5,-366.7 491.5,-366.7"/>
<image xlink:href="../../images/foreignKeys.png" width="11px" height="12px" preserveAspectRatio="xMinYMin meet" x="496.5" y="-383.7"/>
<text text-anchor="start" x="511.5" y="-373.8" font-family="Helvetica,sans-Serif" font-size="11.00" fill="#000000">stop_id</text>
<polygon fill="none" stroke="#000000" points="491.5,-347.7 491.5,-366.7 630.5,-366.7 630.5,-347.7 491.5,-347.7"/>
<text text-anchor="start" x="494.5" y="-353.8" font-family="Helvetica,sans-Serif" font-size="11.00" fill="#000000">...</text>
<polygon fill="#ffffff" stroke="transparent" points="491.5,-328.7 491.5,-347.7 559.5,-347.7 559.5,-328.7 491.5,-328.7"/>
<polygon fill="none" stroke="#000000" points="491.5,-328.7 491.5,-347.7 559.5,-347.7 559.5,-328.7 491.5,-328.7"/>
<text text-anchor="start" x="494.5" y="-334.8" font-family="Helvetica,sans-Serif" font-size="11.00" fill="#000000">&lt; 2</text>
<polygon fill="#ffffff" stroke="transparent" points="559.5,-328.7 559.5,-347.7 594.5,-347.7 594.5,-328.7 559.5,-328.7"/>
<polygon fill="none" stroke="#000000" points="559.5,-328.7 559.5,-347.7 594.5,-347.7 594.5,-328.7 559.5,-328.7"/>
<text text-anchor="start" x="585.3862" y="-334.8" font-family="Helvetica,sans-Serif" font-size="11.00" fill="#000000"> &#160;</text>
<polygon fill="#ffffff" stroke="transparent" points="594.5,-328.7 594.5,-347.7 630.5,-347.7 630.5,-328.7 594.5,-328.7"/>
<polygon fill="none" stroke="#000000" points="594.5,-328.7 594.5,-347.7 630.5,-347.7 630.5,-328.7 594.5,-328.7"/>
<text text-anchor="start" x="621.3862" y="-334.8" font-family="Helvetica,sans-Serif" font-size="11.00" fill="#000000"> &#160;</text>
</a>
</g>
</g>
<!-- stop_times&#45;&gt;trips -->
<g id="edge2" class="edge">
<title>stop_times:w&#45;&gt;trips:e</title>
<path fill="none" stroke="#000000" d="M477.4561,-404.4988C462.4356,-417.3719 466.4284,-451.7 440,-451.7"/>
<polygon fill="#000000" stroke="#000000" points="483.9297,-402.2868 492.6641,-403.1066 487.7149,-400.9934 491.5,-399.7 491.5,-399.7 491.5,-399.7 487.7149,-400.9934 490.3359,-396.2934 483.9297,-402.2868 483.9297,-402.2868"/>
<ellipse fill="none" stroke="#000000" cx="480.9016" cy="-403.3215" rx="3.2" ry="3.2"/>
</g>
</g>
</svg>
