<?xml version="1.0" encoding="UTF-8" standalone="no"?>
<!DOCTYPE svg PUBLIC "-//W3C//DTD SVG 1.1//EN"
 "http://www.w3.org/Graphics/SVG/1.1/DTD/svg11.dtd">
<!-- Generated by graphviz version 2.40.1 (20161225.0304)
 -->
<!-- Title: compactRelationshipsDiagram Pages: 1 -->
<svg width="749pt" height="748pt"
 viewBox="0.00 0.00 749.00 748.20" xmlns="http://www.w3.org/2000/svg" xmlns:xlink="http://www.w3.org/1999/xlink">
<g id="graph0" class="graph" transform="scale(1 1) rotate(0) translate(4 744.2)">
<title>compactRelationshipsDiagram</title>
<polygon fill="#ffffff" stroke="transparent" points="-4,4 -4,-744.2 745,-744.2 745,4 -4,4"/>
<text text-anchor="middle" x="72.4936" y="-7.3" font-family="Helvetica,sans-Serif" font-size="11.00" fill="#000000">Generated by SchemaSpy</text>
<!-- frequencies -->
<g id="node1" class="node">
<title>frequencies</title>
<g id="a_node1"><a xlink:href="../../tables/frequencies.html" xlink:title="frequencies" target="_top">
<polygon fill="#ffffff" stroke="transparent" points="609,-653.2 609,-736.2 718,-736.2 718,-653.2 609,-653.2"/>
<polygon fill="#f5f5f5" stroke="transparent" points="609.5,-712.7 609.5,-735.7 718.5,-735.7 718.5,-712.7 609.5,-712.7"/>
<polygon fill="none" stroke="#000000" points="609.5,-712.7 609.5,-735.7 718.5,-735.7 718.5,-712.7 609.5,-712.7"/>
<text text-anchor="start" x="614.5" y="-721.3" font-family="Helvetica,sans-Serif" font-weight="bold" font-size="11.00" fill="#000000">frequencies</text>
<text text-anchor="start" x="684.0219" y="-720.8" font-family="Helvetica,sans-Serif" font-size="11.00" fill="#000000">[table]</text>
<polygon fill="none" stroke="#000000" points="609.5,-690.7 609.5,-712.7 718.5,-712.7 718.5,-690.7 609.5,-690.7"/>
<image xlink:href="../../images/foreignKeys.png" width="11px" height="12px" preserveAspectRatio="xMinYMin meet" x="614.5" y="-707.7"/>
<text text-anchor="start" x="631.5" y="-697.8" font-family="Helvetica,sans-Serif" font-size="11.00" fill="#000000">trip_id</text>
<polygon fill="none" stroke="#000000" points="609.5,-671.7 609.5,-690.7 718.5,-690.7 718.5,-671.7 609.5,-671.7"/>
<text text-anchor="start" x="612.5" y="-677.8" font-family="Helvetica,sans-Serif" font-size="11.00" fill="#000000">...</text>
<polygon fill="#ffffff" stroke="transparent" points="609.5,-652.7 609.5,-671.7 662.5,-671.7 662.5,-652.7 609.5,-652.7"/>
<polygon fill="none" stroke="#000000" points="609.5,-652.7 609.5,-671.7 662.5,-671.7 662.5,-652.7 609.5,-652.7"/>
<text text-anchor="start" x="612.5" y="-658.8" font-family="Helvetica,sans-Serif" font-size="11.00" fill="#000000">&lt; 1</text>
<polygon fill="#ffffff" stroke="transparent" points="662.5,-652.7 662.5,-671.7 690.5,-671.7 690.5,-652.7 662.5,-652.7"/>
<polygon fill="none" stroke="#000000" points="662.5,-652.7 662.5,-671.7 690.5,-671.7 690.5,-652.7 662.5,-652.7"/>
<text text-anchor="start" x="681.3862" y="-658.8" font-family="Helvetica,sans-Serif" font-size="11.00" fill="#000000"> &#160;</text>
<polygon fill="#ffffff" stroke="transparent" points="690.5,-652.7 690.5,-671.7 718.5,-671.7 718.5,-652.7 690.5,-652.7"/>
<polygon fill="none" stroke="#000000" points="690.5,-652.7 690.5,-671.7 718.5,-671.7 718.5,-652.7 690.5,-652.7"/>
<text text-anchor="start" x="709.3862" y="-658.8" font-family="Helvetica,sans-Serif" font-size="11.00" fill="#000000"> &#160;</text>
</a>
</g>
</g>
<!-- trips -->
<g id="node4" class="node">
<title>trips</title>
<g id="a_node4"><a xlink:href="../../tables/trips.html" xlink:title="trips" target="_top">
<polygon fill="#ffffff" stroke="transparent" points="393,-347.2 393,-540.2 545,-540.2 545,-347.2 393,-347.2"/>
<polygon fill="#f5f5f5" stroke="transparent" points="393,-516.7 393,-539.7 545,-539.7 545,-516.7 393,-516.7"/>
<polygon fill="none" stroke="#000000" points="393,-516.7 393,-539.7 545,-539.7 545,-516.7 393,-516.7"/>
<text text-anchor="start" x="398" y="-525.3" font-family="Helvetica,sans-Serif" font-weight="bold" font-size="11.00" fill="#000000">trips</text>
<text text-anchor="start" x="510.0437" y="-524.8" font-family="Helvetica,sans-Serif" font-size="11.00" fill="#000000">[table]</text>
<polygon fill="none" stroke="#000000" points="393,-494.7 393,-516.7 545,-516.7 545,-494.7 393,-494.7"/>
<image xlink:href="../../images/primaryKeys.png" width="11px" height="12px" preserveAspectRatio="xMinYMin meet" x="398" y="-511.7"/>
<text text-anchor="start" x="413" y="-501.8" font-family="Helvetica,sans-Serif" font-size="11.00" fill="#000000">trip_id</text>
<polygon fill="none" stroke="#000000" points="393,-472.7 393,-494.7 545,-494.7 545,-472.7 393,-472.7"/>
<image xlink:href="../../images/foreignKeys.png" width="11px" height="12px" preserveAspectRatio="xMinYMin meet" x="398" y="-489.7"/>
<text text-anchor="start" x="413" y="-479.8" font-family="Helvetica,sans-Serif" font-size="11.00" fill="#000000">route_id</text>
<polygon fill="none" stroke="#000000" points="393,-450.7 393,-472.7 545,-472.7 545,-450.7 393,-450.7"/>
<image xlink:href="../../images/foreignKeys.png" width="11px" height="12px" preserveAspectRatio="xMinYMin meet" x="398" y="-467.7"/>
<text text-anchor="start" x="413" y="-457.8" font-family="Helvetica,sans-Serif" font-size="11.00" fill="#000000">service_id</text>
<polygon fill="none" stroke="#000000" points="393,-428.7 393,-450.7 545,-450.7 545,-428.7 393,-428.7"/>
<image xlink:href="../../images/foreignKeys.png" width="11px" height="12px" preserveAspectRatio="xMinYMin meet" x="398" y="-445.7"/>
<text text-anchor="start" x="413" y="-435.8" font-family="Helvetica,sans-Serif" font-size="11.00" fill="#000000">shape_id</text>
<polygon fill="none" stroke="#000000" points="393,-406.7 393,-428.7 545,-428.7 545,-406.7 393,-406.7"/>
<image xlink:href="../../images/foreignKeys.png" width="11px" height="12px" preserveAspectRatio="xMinYMin meet" x="398" y="-423.7"/>
<text text-anchor="start" x="413" y="-413.8" font-family="Helvetica,sans-Serif" font-size="11.00" fill="#000000">jp_office_id</text>
<polygon fill="none" stroke="#000000" points="393,-384.7 393,-406.7 545,-406.7 545,-384.7 393,-384.7"/>
<image xlink:href="../../images/foreignKeys.png" width="11px" height="12px" preserveAspectRatio="xMinYMin meet" x="398" y="-401.7"/>
<text text-anchor="start" x="413" y="-391.8" font-family="Helvetica,sans-Serif" font-size="11.00" fill="#000000">jp_pattern_id</text>
<polygon fill="none" stroke="#000000" points="393,-365.7 393,-384.7 545,-384.7 545,-365.7 393,-365.7"/>
<text text-anchor="start" x="396" y="-371.8" font-family="Helvetica,sans-Serif" font-size="11.00" fill="#000000">...</text>
<polygon fill="#ffffff" stroke="transparent" points="393,-346.7 393,-365.7 463,-365.7 463,-346.7 393,-346.7"/>
<polygon fill="none" stroke="#000000" points="393,-346.7 393,-365.7 463,-365.7 463,-346.7 393,-346.7"/>
<text text-anchor="start" x="396" y="-352.8" font-family="Helvetica,sans-Serif" font-size="11.00" fill="#000000">&lt; 5</text>
<polygon fill="#ffffff" stroke="transparent" points="463,-346.7 463,-365.7 499,-365.7 499,-346.7 463,-346.7"/>
<polygon fill="none" stroke="#000000" points="463,-346.7 463,-365.7 499,-365.7 499,-346.7 463,-346.7"/>
<text text-anchor="start" x="489.8862" y="-352.8" font-family="Helvetica,sans-Serif" font-size="11.00" fill="#000000"> &#160;</text>
<polygon fill="#ffffff" stroke="transparent" points="499,-346.7 499,-365.7 545,-365.7 545,-346.7 499,-346.7"/>
<polygon fill="none" stroke="#000000" points="499,-346.7 499,-365.7 545,-365.7 545,-346.7 499,-346.7"/>
<text text-anchor="start" x="526.4053" y="-352.8" font-family="Helvetica,sans-Serif" font-size="11.00" fill="#000000">2 &gt;</text>
</a>
</g>
</g>
<!-- frequencies&#45;&gt;trips -->
<g id="edge6" class="edge">
<title>frequencies:w&#45;&gt;trips:e</title>
<path fill="none" stroke="#000000" d="M595.0652,-699.6314C531.4208,-678.6841 631.1542,-505.7 545,-505.7"/>
<polygon fill="#000000" stroke="#000000" points="601.5809,-700.5651 608.9893,-705.2636 605.5404,-701.1326 609.5,-701.7 609.5,-701.7 609.5,-701.7 605.5404,-701.1326 610.0107,-698.1364 601.5809,-700.5651 601.5809,-700.5651"/>
<ellipse fill="none" stroke="#000000" cx="598.4133" cy="-700.1112" rx="3.2" ry="3.2"/>
</g>
<!-- routes -->
<g id="node2" class="node">
<title>routes</title>
<g id="a_node2"><a xlink:href="../../tables/routes.html" xlink:title="routes" target="_top">
<polygon fill="#ffffff" stroke="transparent" points="196.5,-558.2 196.5,-663.2 327.5,-663.2 327.5,-558.2 196.5,-558.2"/>
<polygon fill="#f5f5f5" stroke="transparent" points="197,-639.7 197,-662.7 328,-662.7 328,-639.7 197,-639.7"/>
<polygon fill="none" stroke="#000000" points="197,-639.7 197,-662.7 328,-662.7 328,-639.7 197,-639.7"/>
<text text-anchor="start" x="202" y="-648.3" font-family="Helvetica,sans-Serif" font-weight="bold" font-size="11.00" fill="#000000">routes</text>
<text text-anchor="start" x="293.0437" y="-647.8" font-family="Helvetica,sans-Serif" font-size="11.00" fill="#000000">[table]</text>
<polygon fill="none" stroke="#000000" points="197,-617.7 197,-639.7 328,-639.7 328,-617.7 197,-617.7"/>
<image xlink:href="../../images/primaryKeys.png" width="11px" height="12px" preserveAspectRatio="xMinYMin meet" x="202" y="-634.7"/>
<text text-anchor="start" x="217" y="-624.8" font-family="Helvetica,sans-Serif" font-size="11.00" fill="#000000">route_id</text>
<polygon fill="none" stroke="#000000" points="197,-595.7 197,-617.7 328,-617.7 328,-595.7 197,-595.7"/>
<image xlink:href="../../images/foreignKeys.png" width="11px" height="12px" preserveAspectRatio="xMinYMin meet" x="202" y="-612.7"/>
<text text-anchor="start" x="217" y="-602.8" font-family="Helvetica,sans-Serif" font-size="11.00" fill="#000000">agency_id</text>
<polygon fill="none" stroke="#000000" points="197,-576.7 197,-595.7 328,-595.7 328,-576.7 197,-576.7"/>
<text text-anchor="start" x="200" y="-582.8" font-family="Helvetica,sans-Serif" font-size="11.00" fill="#000000">...</text>
<polygon fill="#ffffff" stroke="transparent" points="197,-557.7 197,-576.7 256,-576.7 256,-557.7 197,-557.7"/>
<polygon fill="none" stroke="#000000" points="197,-557.7 197,-576.7 256,-576.7 256,-557.7 197,-557.7"/>
<text text-anchor="start" x="200" y="-563.8" font-family="Helvetica,sans-Serif" font-size="11.00" fill="#000000">&lt; 1</text>
<polygon fill="#ffffff" stroke="transparent" points="256,-557.7 256,-576.7 287,-576.7 287,-557.7 256,-557.7"/>
<polygon fill="none" stroke="#000000" points="256,-557.7 256,-576.7 287,-576.7 287,-557.7 256,-557.7"/>
<text text-anchor="start" x="277.8862" y="-563.8" font-family="Helvetica,sans-Serif" font-size="11.00" fill="#000000"> &#160;</text>
<polygon fill="#ffffff" stroke="transparent" points="287,-557.7 287,-576.7 328,-576.7 328,-557.7 287,-557.7"/>
<polygon fill="none" stroke="#000000" points="287,-557.7 287,-576.7 328,-576.7 328,-557.7 287,-557.7"/>
<text text-anchor="start" x="309.4053" y="-563.8" font-family="Helvetica,sans-Serif" font-size="11.00" fill="#000000">2 &gt;</text>
</a>
</g>
</g>
<!-- agency -->
<g id="node8" class="node">
<title>agency</title>
<g id="a_node8"><a xlink:href="../../tables/agency.html" xlink:title="agency" target="_top">
<polygon fill="#ffffff" stroke="transparent" points="8,-298.2 8,-381.2 131,-381.2 131,-298.2 8,-298.2"/>
<polygon fill="#f5f5f5" stroke="transparent" points="8.5,-357.7 8.5,-380.7 131.5,-380.7 131.5,-357.7 8.5,-357.7"/>
<polygon fill="none" stroke="#000000" points="8.5,-357.7 8.5,-380.7 131.5,-380.7 131.5,-357.7 8.5,-357.7"/>
<text text-anchor="start" x="13.5" y="-366.3" font-family="Helvetica,sans-Serif" font-weight="bold" font-size="11.00" fill="#000000">agency</text>
<text text-anchor="start" x="96.5437" y="-365.8" font-family="Helvetica,sans-Serif" font-size="11.00" fill="#000000">[table]</text>
<polygon fill="none" stroke="#000000" points="8.5,-335.7 8.5,-357.7 131.5,-357.7 131.5,-335.7 8.5,-335.7"/>
<image xlink:href="../../images/primaryKeys.png" width="11px" height="12px" preserveAspectRatio="xMinYMin meet" x="13.5" y="-352.7"/>
<text text-anchor="start" x="28.5" y="-342.8" font-family="Helvetica,sans-Serif" font-size="11.00" fill="#000000">agency_id</text>
<polygon fill="none" stroke="#000000" points="8.5,-316.7 8.5,-335.7 131.5,-335.7 131.5,-316.7 8.5,-316.7"/>
<text text-anchor="start" x="11.5" y="-322.8" font-family="Helvetica,sans-Serif" font-size="11.00" fill="#000000">...</text>
<polygon fill="#ffffff" stroke="transparent" points="8.5,-297.7 8.5,-316.7 59.5,-316.7 59.5,-297.7 8.5,-297.7"/>
<polygon fill="none" stroke="#000000" points="8.5,-297.7 8.5,-316.7 59.5,-316.7 59.5,-297.7 8.5,-297.7"/>
<text text-anchor="start" x="11.5" y="-303.8" font-family="Helvetica,sans-Serif" font-size="11.00" fill="#000000"> &#160;</text>
<polygon fill="#ffffff" stroke="transparent" points="59.5,-297.7 59.5,-316.7 90.5,-316.7 90.5,-297.7 59.5,-297.7"/>
<polygon fill="none" stroke="#000000" points="59.5,-297.7 59.5,-316.7 90.5,-316.7 90.5,-297.7 59.5,-297.7"/>
<text text-anchor="start" x="81.3862" y="-303.8" font-family="Helvetica,sans-Serif" font-size="11.00" fill="#000000"> &#160;</text>
<polygon fill="#ffffff" stroke="transparent" points="90.5,-297.7 90.5,-316.7 131.5,-316.7 131.5,-297.7 90.5,-297.7"/>
<polygon fill="none" stroke="#000000" points="90.5,-297.7 90.5,-316.7 131.5,-316.7 131.5,-297.7 90.5,-297.7"/>
<text text-anchor="start" x="112.9053" y="-303.8" font-family="Helvetica,sans-Serif" font-size="11.00" fill="#000000">2 &gt;</text>
</a>
</g>
</g>
<!-- routes&#45;&gt;agency -->
<g id="edge7" class="edge">
<title>routes:w&#45;&gt;agency:e</title>
<path fill="none" stroke="#000000" d="M183.5187,-600.781C146.146,-562.0799 185.7299,-346.7 131.5,-346.7"/>
<polygon fill="#000000" stroke="#000000" points="189.6749,-603.4839 195.5528,-609.9963 193.3375,-605.0919 197,-606.7 197,-606.7 197,-606.7 193.3375,-605.0919 198.4472,-603.4037 189.6749,-603.4839 189.6749,-603.4839"/>
<ellipse fill="none" stroke="#000000" cx="186.7449" cy="-602.1975" rx="3.2" ry="3.2"/>
</g>
<!-- shapes -->
<g id="node3" class="node">
<title>shapes</title>
<g id="a_node3"><a xlink:href="../../tables/shapes.html" xlink:title="shapes" target="_top">
<polygon fill="#ffffff" stroke="transparent" points="192.5,-350.2 192.5,-433.2 331.5,-433.2 331.5,-350.2 192.5,-350.2"/>
<polygon fill="#f5f5f5" stroke="transparent" points="193,-409.7 193,-432.7 332,-432.7 332,-409.7 193,-409.7"/>
<polygon fill="none" stroke="#000000" points="193,-409.7 193,-432.7 332,-432.7 332,-409.7 193,-409.7"/>
<text text-anchor="start" x="198" y="-418.3" font-family="Helvetica,sans-Serif" font-weight="bold" font-size="11.00" fill="#000000">shapes</text>
<text text-anchor="start" x="297.0437" y="-417.8" font-family="Helvetica,sans-Serif" font-size="11.00" fill="#000000">[table]</text>
<polygon fill="none" stroke="#000000" points="193,-387.7 193,-409.7 332,-409.7 332,-387.7 193,-387.7"/>
<image xlink:href="../../images/primaryKeys.png" width="11px" height="12px" preserveAspectRatio="xMinYMin meet" x="198" y="-404.7"/>
<text text-anchor="start" x="213" y="-394.8" font-family="Helvetica,sans-Serif" font-size="11.00" fill="#000000">shape_id</text>
<polygon fill="none" stroke="#000000" points="193,-368.7 193,-387.7 332,-387.7 332,-368.7 193,-368.7"/>
<text text-anchor="start" x="196" y="-374.8" font-family="Helvetica,sans-Serif" font-size="11.00" fill="#000000">...</text>
<polygon fill="#ffffff" stroke="transparent" points="193,-349.7 193,-368.7 252,-368.7 252,-349.7 193,-349.7"/>
<polygon fill="none" stroke="#000000" points="193,-349.7 193,-368.7 252,-368.7 252,-349.7 193,-349.7"/>
<text text-anchor="start" x="196" y="-355.8" font-family="Helvetica,sans-Serif" font-size="11.00" fill="#000000"> &#160;</text>
<polygon fill="#ffffff" stroke="transparent" points="252,-349.7 252,-368.7 287,-368.7 287,-349.7 252,-349.7"/>
<polygon fill="none" stroke="#000000" points="252,-349.7 252,-368.7 287,-368.7 287,-349.7 252,-349.7"/>
<text text-anchor="start" x="277.8862" y="-355.8" font-family="Helvetica,sans-Serif" font-size="11.00" fill="#000000"> &#160;</text>
<polygon fill="#ffffff" stroke="transparent" points="287,-349.7 287,-368.7 332,-368.7 332,-349.7 287,-349.7"/>
<polygon fill="none" stroke="#000000" points="287,-349.7 287,-368.7 332,-368.7 332,-349.7 287,-349.7"/>
<text text-anchor="start" x="313.4053" y="-355.8" font-family="Helvetica,sans-Serif" font-size="11.00" fill="#000000">1 &gt;</text>
</a>
</g>
</g>
<!-- trips&#45;&gt;routes -->
<g id="edge14" class="edge">
<title>trips:w&#45;&gt;routes:e</title>
<path fill="none" stroke="#000000" d="M378.7084,-486.3405C333.6462,-505.9928 392.9679,-628.7 328,-628.7"/>
<polygon fill="#000000" stroke="#000000" points="385.1331,-485.1535 393.6541,-487.2401 389.0666,-484.4268 393,-483.7 393,-483.7 393,-483.7 389.0666,-484.4268 392.3459,-480.1599 385.1331,-485.1535 385.1331,-485.1535"/>
<ellipse fill="none" stroke="#000000" cx="381.9864" cy="-485.7349" rx="3.2" ry="3.2"/>
</g>
<!-- trips&#45;&gt;shapes -->
<g id="edge16" class="edge">
<title>trips:w&#45;&gt;shapes:e</title>
<path fill="none" stroke="#000000" d="M378.8015,-436.3448C360.7138,-426.5528 358.9239,-398.7 332,-398.7"/>
<polygon fill="#000000" stroke="#000000" points="385.2144,-437.8602 392.1721,-443.2035 389.1072,-438.7801 393,-439.7 393,-439.7 393,-439.7 389.1072,-438.7801 393.8279,-436.1965 385.2144,-437.8602 385.2144,-437.8602"/>
<ellipse fill="none" stroke="#000000" cx="382.1002" cy="-437.1242" rx="3.2" ry="3.2"/>
</g>
<!-- office_jp -->
<g id="node7" class="node">
<title>office_jp</title>
<g id="a_node7"><a xlink:href="../../tables/office_jp.html" xlink:title="office_jp" target="_top">
<polygon fill="#ffffff" stroke="transparent" points="213.5,-246.2 213.5,-329.2 310.5,-329.2 310.5,-246.2 213.5,-246.2"/>
<polygon fill="#f5f5f5" stroke="transparent" points="214,-305.7 214,-328.7 311,-328.7 311,-305.7 214,-305.7"/>
<polygon fill="none" stroke="#000000" points="214,-305.7 214,-328.7 311,-328.7 311,-305.7 214,-305.7"/>
<text text-anchor="start" x="219" y="-314.3" font-family="Helvetica,sans-Serif" font-weight="bold" font-size="11.00" fill="#000000">office_jp</text>
<text text-anchor="start" x="276.0437" y="-313.8" font-family="Helvetica,sans-Serif" font-size="11.00" fill="#000000">[table]</text>
<polygon fill="none" stroke="#000000" points="214,-283.7 214,-305.7 311,-305.7 311,-283.7 214,-283.7"/>
<image xlink:href="../../images/primaryKeys.png" width="11px" height="12px" preserveAspectRatio="xMinYMin meet" x="219" y="-300.7"/>
<text text-anchor="start" x="234" y="-290.8" font-family="Helvetica,sans-Serif" font-size="11.00" fill="#000000">office_id</text>
<polygon fill="none" stroke="#000000" points="214,-264.7 214,-283.7 311,-283.7 311,-264.7 214,-264.7"/>
<text text-anchor="start" x="217" y="-270.8" font-family="Helvetica,sans-Serif" font-size="11.00" fill="#000000">...</text>
<polygon fill="#ffffff" stroke="transparent" points="214,-245.7 214,-264.7 252,-264.7 252,-245.7 214,-245.7"/>
<polygon fill="none" stroke="#000000" points="214,-245.7 214,-264.7 252,-264.7 252,-245.7 214,-245.7"/>
<text text-anchor="start" x="217" y="-251.8" font-family="Helvetica,sans-Serif" font-size="11.00" fill="#000000"> &#160;</text>
<polygon fill="#ffffff" stroke="transparent" points="252,-245.7 252,-264.7 277,-264.7 277,-245.7 252,-245.7"/>
<polygon fill="none" stroke="#000000" points="252,-245.7 252,-264.7 277,-264.7 277,-245.7 252,-245.7"/>
<text text-anchor="start" x="267.8862" y="-251.8" font-family="Helvetica,sans-Serif" font-size="11.00" fill="#000000"> &#160;</text>
<polygon fill="#ffffff" stroke="transparent" points="277,-245.7 277,-264.7 311,-264.7 311,-245.7 277,-245.7"/>
<polygon fill="none" stroke="#000000" points="277,-245.7 277,-264.7 311,-264.7 311,-245.7 277,-245.7"/>
<text text-anchor="start" x="292.4053" y="-251.8" font-family="Helvetica,sans-Serif" font-size="11.00" fill="#000000">1 &gt;</text>
</a>
</g>
</g>
<!-- trips&#45;&gt;office_jp -->
<g id="edge12" class="edge">
<title>trips:w&#45;&gt;office_jp:e</title>
<path fill="none" stroke="#000000" d="M378.9012,-414.7134C359.1255,-404.027 371.0569,-366.8831 352,-339.7 336.4685,-317.5455 338.0564,-294.7 311,-294.7"/>
<polygon fill="#000000" stroke="#000000" points="385.1737,-416.0421 392.2539,-421.2218 389.0868,-416.871 393,-417.7 393,-417.7 393,-417.7 389.0868,-416.871 393.7461,-414.1782 385.1737,-416.0421 385.1737,-416.0421"/>
<ellipse fill="none" stroke="#000000" cx="382.0431" cy="-415.3789" rx="3.2" ry="3.2"/>
</g>
<!-- calendar -->
<g id="node12" class="node">
<title>calendar</title>
<g id="a_node12"><a xlink:href="../../tables/calendar.html" xlink:title="calendar" target="_top">
<polygon fill="#ffffff" stroke="transparent" points="216.5,-454.2 216.5,-537.2 307.5,-537.2 307.5,-454.2 216.5,-454.2"/>
<polygon fill="#f5f5f5" stroke="transparent" points="217,-513.7 217,-536.7 308,-536.7 308,-513.7 217,-513.7"/>
<polygon fill="none" stroke="#000000" points="217,-513.7 217,-536.7 308,-536.7 308,-513.7 217,-513.7"/>
<text text-anchor="start" x="222" y="-522.3" font-family="Helvetica,sans-Serif" font-weight="bold" font-size="11.00" fill="#000000">calendar</text>
<text text-anchor="start" x="273.5219" y="-521.8" font-family="Helvetica,sans-Serif" font-size="11.00" fill="#000000">[table]</text>
<polygon fill="none" stroke="#000000" points="217,-491.7 217,-513.7 308,-513.7 308,-491.7 217,-491.7"/>
<image xlink:href="../../images/primaryKeys.png" width="11px" height="12px" preserveAspectRatio="xMinYMin meet" x="222" y="-508.7"/>
<text text-anchor="start" x="239" y="-498.8" font-family="Helvetica,sans-Serif" font-size="11.00" fill="#000000">service_id</text>
<polygon fill="none" stroke="#000000" points="217,-472.7 217,-491.7 308,-491.7 308,-472.7 217,-472.7"/>
<text text-anchor="start" x="220" y="-478.8" font-family="Helvetica,sans-Serif" font-size="11.00" fill="#000000">...</text>
<polygon fill="#ffffff" stroke="transparent" points="217,-453.7 217,-472.7 252,-472.7 252,-453.7 217,-453.7"/>
<polygon fill="none" stroke="#000000" points="217,-453.7 217,-472.7 252,-472.7 252,-453.7 217,-453.7"/>
<text text-anchor="start" x="220" y="-459.8" font-family="Helvetica,sans-Serif" font-size="11.00" fill="#000000"> &#160;</text>
<polygon fill="#ffffff" stroke="transparent" points="252,-453.7 252,-472.7 275,-472.7 275,-453.7 252,-453.7"/>
<polygon fill="none" stroke="#000000" points="252,-453.7 252,-472.7 275,-472.7 275,-453.7 252,-453.7"/>
<text text-anchor="start" x="265.8862" y="-459.8" font-family="Helvetica,sans-Serif" font-size="11.00" fill="#000000"> &#160;</text>
<polygon fill="#ffffff" stroke="transparent" points="275,-453.7 275,-472.7 308,-472.7 308,-453.7 275,-453.7"/>
<polygon fill="none" stroke="#000000" points="275,-453.7 275,-472.7 308,-472.7 308,-453.7 275,-453.7"/>
<text text-anchor="start" x="289.4053" y="-459.8" font-family="Helvetica,sans-Serif" font-size="11.00" fill="#000000">1 &gt;</text>
</a>
</g>
</g>
<!-- trips&#45;&gt;calendar -->
<g id="edge15" class="edge">
<title>trips:w&#45;&gt;calendar:e</title>
<path fill="none" stroke="#000000" d="M378.6403,-463.5682C350.0914,-471.589 344.5362,-502.7 308,-502.7"/>
<polygon fill="#000000" stroke="#000000" points="385.0669,-462.7322 393.4645,-465.2699 389.0334,-462.2161 393,-461.7 393,-461.7 393,-461.7 389.0334,-462.2161 392.5355,-458.1301 385.0669,-462.7322 385.0669,-462.7322"/>
<ellipse fill="none" stroke="#000000" cx="381.8936" cy="-463.145" rx="3.2" ry="3.2"/>
</g>
<!-- pattern_jp -->
<g id="node13" class="node">
<title>pattern_jp</title>
<g id="a_node13"><a xlink:href="../../tables/pattern_jp.html" xlink:title="pattern_jp" target="_top">
<polygon fill="#ffffff" stroke="transparent" points="195.5,-142.2 195.5,-225.2 328.5,-225.2 328.5,-142.2 195.5,-142.2"/>
<polygon fill="#f5f5f5" stroke="transparent" points="196,-201.7 196,-224.7 329,-224.7 329,-201.7 196,-201.7"/>
<polygon fill="none" stroke="#000000" points="196,-201.7 196,-224.7 329,-224.7 329,-201.7 196,-201.7"/>
<text text-anchor="start" x="201" y="-210.3" font-family="Helvetica,sans-Serif" font-weight="bold" font-size="11.00" fill="#000000">pattern_jp</text>
<text text-anchor="start" x="294.0437" y="-209.8" font-family="Helvetica,sans-Serif" font-size="11.00" fill="#000000">[table]</text>
<polygon fill="none" stroke="#000000" points="196,-179.7 196,-201.7 329,-201.7 329,-179.7 196,-179.7"/>
<image xlink:href="../../images/primaryKeys.png" width="11px" height="12px" preserveAspectRatio="xMinYMin meet" x="201" y="-196.7"/>
<text text-anchor="start" x="216" y="-186.8" font-family="Helvetica,sans-Serif" font-size="11.00" fill="#000000">jp_pattern_id</text>
<polygon fill="none" stroke="#000000" points="196,-160.7 196,-179.7 329,-179.7 329,-160.7 196,-160.7"/>
<text text-anchor="start" x="199" y="-166.8" font-family="Helvetica,sans-Serif" font-size="11.00" fill="#000000">...</text>
<polygon fill="#ffffff" stroke="transparent" points="196,-141.7 196,-160.7 252,-160.7 252,-141.7 196,-141.7"/>
<polygon fill="none" stroke="#000000" points="196,-141.7 196,-160.7 252,-160.7 252,-141.7 196,-141.7"/>
<text text-anchor="start" x="199" y="-147.8" font-family="Helvetica,sans-Serif" font-size="11.00" fill="#000000"> &#160;</text>
<polygon fill="#ffffff" stroke="transparent" points="252,-141.7 252,-160.7 286,-160.7 286,-141.7 252,-141.7"/>
<polygon fill="none" stroke="#000000" points="252,-141.7 252,-160.7 286,-160.7 286,-141.7 252,-141.7"/>
<text text-anchor="start" x="276.8862" y="-147.8" font-family="Helvetica,sans-Serif" font-size="11.00" fill="#000000"> &#160;</text>
<polygon fill="#ffffff" stroke="transparent" points="286,-141.7 286,-160.7 329,-160.7 329,-141.7 286,-141.7"/>
<polygon fill="none" stroke="#000000" points="286,-141.7 286,-160.7 329,-160.7 329,-141.7 286,-141.7"/>
<text text-anchor="start" x="310.4053" y="-147.8" font-family="Helvetica,sans-Serif" font-size="11.00" fill="#000000">1 &gt;</text>
</a>
</g>
</g>
<!-- trips&#45;&gt;pattern_jp -->
<g id="edge13" class="edge">
<title>trips:w&#45;&gt;pattern_jp:e</title>
<path fill="none" stroke="#000000" d="M378.4226,-393.671C311.6593,-372.3804 418.8553,-190.7 329,-190.7"/>
<polygon fill="#000000" stroke="#000000" points="385.0764,-394.5971 392.5037,-399.2656 389.0382,-395.1485 393,-395.7 393,-395.7 393,-395.7 389.0382,-395.1485 393.4963,-392.1344 385.0764,-394.5971 385.0764,-394.5971"/>
<ellipse fill="none" stroke="#000000" cx="381.9069" cy="-394.1559" rx="3.2" ry="3.2"/>
</g>
<!-- stops -->
<g id="node5" class="node">
<title>stops</title>
<g id="a_node5"><a xlink:href="../../tables/stops.html" xlink:title="stops" target="_top">
<polygon fill="#ffffff" stroke="transparent" points="396.5,-243.2 396.5,-326.2 541.5,-326.2 541.5,-243.2 396.5,-243.2"/>
<polygon fill="#f5f5f5" stroke="transparent" points="397,-302.7 397,-325.7 542,-325.7 542,-302.7 397,-302.7"/>
<polygon fill="none" stroke="#000000" points="397,-302.7 397,-325.7 542,-325.7 542,-302.7 397,-302.7"/>
<text text-anchor="start" x="402" y="-311.3" font-family="Helvetica,sans-Serif" font-weight="bold" font-size="11.00" fill="#000000">stops</text>
<text text-anchor="start" x="507.0437" y="-310.8" font-family="Helvetica,sans-Serif" font-size="11.00" fill="#000000">[table]</text>
<polygon fill="none" stroke="#000000" points="397,-280.7 397,-302.7 542,-302.7 542,-280.7 397,-280.7"/>
<image xlink:href="../../images/primaryKeys.png" width="11px" height="12px" preserveAspectRatio="xMinYMin meet" x="402" y="-297.7"/>
<text text-anchor="start" x="417" y="-287.8" font-family="Helvetica,sans-Serif" font-size="11.00" fill="#000000">stop_id</text>
<polygon fill="none" stroke="#000000" points="397,-261.7 397,-280.7 542,-280.7 542,-261.7 397,-261.7"/>
<text text-anchor="start" x="400" y="-267.8" font-family="Helvetica,sans-Serif" font-size="11.00" fill="#000000">...</text>
<polygon fill="#ffffff" stroke="transparent" points="397,-242.7 397,-261.7 459,-261.7 459,-242.7 397,-242.7"/>
<polygon fill="none" stroke="#000000" points="397,-242.7 397,-261.7 459,-261.7 459,-242.7 397,-242.7"/>
<text text-anchor="start" x="400" y="-248.8" font-family="Helvetica,sans-Serif" font-size="11.00" fill="#000000"> &#160;</text>
<polygon fill="#ffffff" stroke="transparent" points="459,-242.7 459,-261.7 496,-261.7 496,-242.7 459,-242.7"/>
<polygon fill="none" stroke="#000000" points="459,-242.7 459,-261.7 496,-261.7 496,-242.7 459,-242.7"/>
<text text-anchor="start" x="486.8862" y="-248.8" font-family="Helvetica,sans-Serif" font-size="11.00" fill="#000000"> &#160;</text>
<polygon fill="#ffffff" stroke="transparent" points="496,-242.7 496,-261.7 542,-261.7 542,-242.7 496,-242.7"/>
<polygon fill="none" stroke="#000000" points="496,-242.7 496,-261.7 542,-261.7 542,-242.7 496,-242.7"/>
<text text-anchor="start" x="523.4053" y="-248.8" font-family="Helvetica,sans-Serif" font-size="11.00" fill="#000000">5 &gt;</text>
</a>
</g>
</g>
<!-- fare_rules -->
<g id="node6" class="node">
<title>fare_rules</title>
<g id="a_node6"><a xlink:href="../../tables/fare_rules.html" xlink:title="fare_rules" target="_top">
<polygon fill="#ffffff" stroke="transparent" points="610.5,-483.2 610.5,-632.2 716.5,-632.2 716.5,-483.2 610.5,-483.2"/>
<polygon fill="#f5f5f5" stroke="transparent" points="610.5,-608.7 610.5,-631.7 716.5,-631.7 716.5,-608.7 610.5,-608.7"/>
<polygon fill="none" stroke="#000000" points="610.5,-608.7 610.5,-631.7 716.5,-631.7 716.5,-608.7 610.5,-608.7"/>
<text text-anchor="start" x="615.5" y="-617.3" font-family="Helvetica,sans-Serif" font-weight="bold" font-size="11.00" fill="#000000">fare_rules</text>
<text text-anchor="start" x="681.5437" y="-616.8" font-family="Helvetica,sans-Serif" font-size="11.00" fill="#000000">[table]</text>
<polygon fill="none" stroke="#000000" points="610.5,-586.7 610.5,-608.7 716.5,-608.7 716.5,-586.7 610.5,-586.7"/>
<image xlink:href="../../images/primaryKeys.png" width="11px" height="12px" preserveAspectRatio="xMinYMin meet" x="615.5" y="-603.7"/>
<text text-anchor="start" x="630.5" y="-593.8" font-family="Helvetica,sans-Serif" font-size="11.00" fill="#000000">fare_id</text>
<polygon fill="none" stroke="#000000" points="610.5,-564.7 610.5,-586.7 716.5,-586.7 716.5,-564.7 610.5,-564.7"/>
<image xlink:href="../../images/foreignKeys.png" width="11px" height="12px" preserveAspectRatio="xMinYMin meet" x="615.5" y="-581.7"/>
<text text-anchor="start" x="630.5" y="-571.8" font-family="Helvetica,sans-Serif" font-size="11.00" fill="#000000">route_id</text>
<polygon fill="none" stroke="#000000" points="610.5,-542.7 610.5,-564.7 716.5,-564.7 716.5,-542.7 610.5,-542.7"/>
<image xlink:href="../../images/foreignKeys.png" width="11px" height="12px" preserveAspectRatio="xMinYMin meet" x="615.5" y="-559.7"/>
<text text-anchor="start" x="630.5" y="-549.8" font-family="Helvetica,sans-Serif" font-size="11.00" fill="#000000">origin_id</text>
<polygon fill="none" stroke="#000000" points="610.5,-520.7 610.5,-542.7 716.5,-542.7 716.5,-520.7 610.5,-520.7"/>
<image xlink:href="../../images/foreignKeys.png" width="11px" height="12px" preserveAspectRatio="xMinYMin meet" x="615.5" y="-537.7"/>
<text text-anchor="start" x="630.5" y="-527.8" font-family="Helvetica,sans-Serif" font-size="11.00" fill="#000000">destination_id</text>
<polygon fill="none" stroke="#000000" points="610.5,-501.7 610.5,-520.7 716.5,-520.7 716.5,-501.7 610.5,-501.7"/>
<text text-anchor="start" x="613.5" y="-507.8" font-family="Helvetica,sans-Serif" font-size="11.00" fill="#000000">...</text>
<polygon fill="#ffffff" stroke="transparent" points="610.5,-482.7 610.5,-501.7 661.5,-501.7 661.5,-482.7 610.5,-482.7"/>
<polygon fill="none" stroke="#000000" points="610.5,-482.7 610.5,-501.7 661.5,-501.7 661.5,-482.7 610.5,-482.7"/>
<text text-anchor="start" x="613.5" y="-488.8" font-family="Helvetica,sans-Serif" font-size="11.00" fill="#000000">&lt; 4</text>
<polygon fill="#ffffff" stroke="transparent" points="661.5,-482.7 661.5,-501.7 688.5,-501.7 688.5,-482.7 661.5,-482.7"/>
<polygon fill="none" stroke="#000000" points="661.5,-482.7 661.5,-501.7 688.5,-501.7 688.5,-482.7 661.5,-482.7"/>
<text text-anchor="start" x="679.3862" y="-488.8" font-family="Helvetica,sans-Serif" font-size="11.00" fill="#000000"> &#160;</text>
<polygon fill="#ffffff" stroke="transparent" points="688.5,-482.7 688.5,-501.7 716.5,-501.7 716.5,-482.7 688.5,-482.7"/>
<polygon fill="none" stroke="#000000" points="688.5,-482.7 688.5,-501.7 716.5,-501.7 716.5,-482.7 688.5,-482.7"/>
<text text-anchor="start" x="707.3862" y="-488.8" font-family="Helvetica,sans-Serif" font-size="11.00" fill="#000000"> &#160;</text>
</a>
</g>
</g>
<!-- fare_rules&#45;&gt;routes -->
<g id="edge5" class="edge">
<title>fare_rules:w&#45;&gt;routes:e</title>
<path fill="none" stroke="#000000" d="M596.003,-575.57C506.9236,-573.9708 475.2339,-558.689 385,-589.7 355.9709,-599.6765 358.6956,-628.7 328,-628.7"/>
<polygon fill="#000000" stroke="#000000" points="602.5003,-575.6282 610.4677,-579.2999 606.5002,-575.6641 610.5,-575.7 610.5,-575.7 610.5,-575.7 606.5002,-575.6641 610.5323,-572.1001 602.5003,-575.6282 602.5003,-575.6282"/>
<ellipse fill="none" stroke="#000000" cx="599.3005" cy="-575.5995" rx="3.2" ry="3.2"/>
</g>
<!-- fare_rules&#45;&gt;stops -->
<g id="edge2" class="edge">
<title>fare_rules:w&#45;&gt;stops:e</title>
<path fill="none" stroke="#000000" d="M596.0798,-530.0393C513.9195,-508.8347 647.51,-291.7 542,-291.7"/>
<polygon fill="#000000" stroke="#000000" points="602.5525,-530.7847 610.0881,-535.2764 606.5263,-531.2423 610.5,-531.7 610.5,-531.7 610.5,-531.7 606.5263,-531.2423 610.9119,-528.1236 602.5525,-530.7847 602.5525,-530.7847"/>
<ellipse fill="none" stroke="#000000" cx="599.3735" cy="-530.4185" rx="3.2" ry="3.2"/>
</g>
<!-- fare_rules&#45;&gt;stops -->
<g id="edge4" class="edge">
<title>fare_rules:w&#45;&gt;stops:e</title>
<path fill="none" stroke="#000000" d="M596.8304,-547.7355C558.7347,-508.7367 596.7725,-291.7 542,-291.7"/>
<polygon fill="#000000" stroke="#000000" points="603.1676,-550.5006 609.0603,-556.9996 606.8338,-552.1003 610.5,-553.7 610.5,-553.7 610.5,-553.7 606.8338,-552.1003 611.9397,-550.4004 603.1676,-550.5006 603.1676,-550.5006"/>
<ellipse fill="none" stroke="#000000" cx="600.2346" cy="-549.2208" rx="3.2" ry="3.2"/>
</g>
<!-- fare_attributes -->
<g id="node10" class="node">
<title>fare_attributes</title>
<g id="a_node10"><a xlink:href="../../tables/fare_attributes.html" xlink:title="fare_attributes" target="_top">
<polygon fill="#ffffff" stroke="transparent" points="405,-600.2 405,-683.2 533,-683.2 533,-600.2 405,-600.2"/>
<polygon fill="#f5f5f5" stroke="transparent" points="405,-659.7 405,-682.7 533,-682.7 533,-659.7 405,-659.7"/>
<polygon fill="none" stroke="#000000" points="405,-659.7 405,-682.7 533,-682.7 533,-659.7 405,-659.7"/>
<text text-anchor="start" x="410" y="-668.3" font-family="Helvetica,sans-Serif" font-weight="bold" font-size="11.00" fill="#000000">fare_attributes</text>
<text text-anchor="start" x="498.5219" y="-667.8" font-family="Helvetica,sans-Serif" font-size="11.00" fill="#000000">[table]</text>
<polygon fill="none" stroke="#000000" points="405,-637.7 405,-659.7 533,-659.7 533,-637.7 405,-637.7"/>
<image xlink:href="../../images/primaryKeys.png" width="11px" height="12px" preserveAspectRatio="xMinYMin meet" x="410" y="-654.7"/>
<text text-anchor="start" x="426" y="-644.8" font-family="Helvetica,sans-Serif" font-size="11.00" fill="#000000">fare_id</text>
<polygon fill="none" stroke="#000000" points="405,-618.7 405,-637.7 533,-637.7 533,-618.7 405,-618.7"/>
<text text-anchor="start" x="408" y="-624.8" font-family="Helvetica,sans-Serif" font-size="11.00" fill="#000000">...</text>
<polygon fill="#ffffff" stroke="transparent" points="405,-599.7 405,-618.7 458,-618.7 458,-599.7 405,-599.7"/>
<polygon fill="none" stroke="#000000" points="405,-599.7 405,-618.7 458,-618.7 458,-599.7 405,-599.7"/>
<text text-anchor="start" x="408" y="-605.8" font-family="Helvetica,sans-Serif" font-size="11.00" fill="#000000"> &#160;</text>
<polygon fill="#ffffff" stroke="transparent" points="458,-599.7 458,-618.7 491,-618.7 491,-599.7 458,-599.7"/>
<polygon fill="none" stroke="#000000" points="458,-599.7 458,-618.7 491,-618.7 491,-599.7 458,-599.7"/>
<text text-anchor="start" x="481.8862" y="-605.8" font-family="Helvetica,sans-Serif" font-size="11.00" fill="#000000"> &#160;</text>
<polygon fill="#ffffff" stroke="transparent" points="491,-599.7 491,-618.7 533,-618.7 533,-599.7 491,-599.7"/>
<polygon fill="none" stroke="#000000" points="491,-599.7 491,-618.7 533,-618.7 533,-599.7 491,-599.7"/>
<text text-anchor="start" x="514.4053" y="-605.8" font-family="Helvetica,sans-Serif" font-size="11.00" fill="#000000">1 &gt;</text>
</a>
</g>
</g>
<!-- fare_rules&#45;&gt;fare_attributes -->
<g id="edge3" class="edge">
<title>fare_rules:w&#45;&gt;fare_attributes:e</title>
<path fill="none" stroke="#000000" d="M600.0451,-598.9607C569.7918,-606.8143 570.3678,-648.7 533,-648.7"/>
<polygon fill="#000000" stroke="#000000" points="609.2269,-593.8245 610.1847,-601.767 608.5962,-601.9586 607.6384,-594.0161 609.2269,-593.8245"/>
<polyline fill="none" stroke="#000000" points="610.5,-597.7 606.5288,-598.1789 "/>
<ellipse fill="none" stroke="#000000" cx="603.3518" cy="-598.562" rx="3.2" ry="3.2"/>
</g>
<!-- agency_jp -->
<g id="node9" class="node">
<title>agency_jp</title>
<g id="a_node9"><a xlink:href="../../tables/agency_jp.html" xlink:title="agency_jp" target="_top">
<polygon fill="#ffffff" stroke="transparent" points="180,-38.2 180,-121.2 344,-121.2 344,-38.2 180,-38.2"/>
<polygon fill="#f5f5f5" stroke="transparent" points="180,-97.7 180,-120.7 344,-120.7 344,-97.7 180,-97.7"/>
<polygon fill="none" stroke="#000000" points="180,-97.7 180,-120.7 344,-120.7 344,-97.7 180,-97.7"/>
<text text-anchor="start" x="185" y="-106.3" font-family="Helvetica,sans-Serif" font-weight="bold" font-size="11.00" fill="#000000">agency_jp</text>
<text text-anchor="start" x="309.0437" y="-105.8" font-family="Helvetica,sans-Serif" font-size="11.00" fill="#000000">[table]</text>
<polygon fill="none" stroke="#000000" points="180,-75.7 180,-97.7 344,-97.7 344,-75.7 180,-75.7"/>
<image xlink:href="../../images/primaryKeys.png" width="11px" height="12px" preserveAspectRatio="xMinYMin meet" x="185" y="-92.7"/>
<text text-anchor="start" x="200" y="-82.8" font-family="Helvetica,sans-Serif" font-size="11.00" fill="#000000">agency_id</text>
<polygon fill="none" stroke="#000000" points="180,-56.7 180,-75.7 344,-75.7 344,-56.7 180,-56.7"/>
<text text-anchor="start" x="183" y="-62.8" font-family="Helvetica,sans-Serif" font-size="11.00" fill="#000000">...</text>
<polygon fill="#ffffff" stroke="transparent" points="180,-37.7 180,-56.7 260,-56.7 260,-37.7 180,-37.7"/>
<polygon fill="none" stroke="#000000" points="180,-37.7 180,-56.7 260,-56.7 260,-37.7 180,-37.7"/>
<text text-anchor="start" x="183" y="-43.8" font-family="Helvetica,sans-Serif" font-size="11.00" fill="#000000">&lt; 1</text>
<polygon fill="#ffffff" stroke="transparent" points="260,-37.7 260,-56.7 302,-56.7 302,-37.7 260,-37.7"/>
<polygon fill="none" stroke="#000000" points="260,-37.7 260,-56.7 302,-56.7 302,-37.7 260,-37.7"/>
<text text-anchor="start" x="292.8862" y="-43.8" font-family="Helvetica,sans-Serif" font-size="11.00" fill="#000000"> &#160;</text>
<polygon fill="#ffffff" stroke="transparent" points="302,-37.7 302,-56.7 344,-56.7 344,-37.7 302,-37.7"/>
<polygon fill="none" stroke="#000000" points="302,-37.7 302,-56.7 344,-56.7 344,-37.7 302,-37.7"/>
<text text-anchor="start" x="334.8862" y="-43.8" font-family="Helvetica,sans-Serif" font-size="11.00" fill="#000000"> &#160;</text>
</a>
</g>
</g>
<!-- agency_jp&#45;&gt;agency -->
<g id="edge1" class="edge">
<title>agency_jp:w&#45;&gt;agency:e</title>
<path fill="none" stroke="#000000" d="M169.9072,-89.9874C129.8325,-120.0847 186.3714,-346.7 131.5,-346.7"/>
<polygon fill="#000000" stroke="#000000" points="178.0005,-83.1444 180.4782,-90.7511 178.9568,-91.2466 176.4792,-83.64 178.0005,-83.1444"/>
<polyline fill="none" stroke="#000000" points="180,-86.7 176.1967,-87.9388 "/>
<ellipse fill="none" stroke="#000000" cx="173.154" cy="-88.9299" rx="3.2" ry="3.2"/>
</g>
<!-- stop_times -->
<g id="node11" class="node">
<title>stop_times</title>
<g id="a_node11"><a xlink:href="../../tables/stop_times.html" xlink:title="stop_times" target="_top">
<polygon fill="#ffffff" stroke="transparent" points="594,-335.2 594,-462.2 733,-462.2 733,-335.2 594,-335.2"/>
<polygon fill="#f5f5f5" stroke="transparent" points="594.5,-438.7 594.5,-461.7 733.5,-461.7 733.5,-438.7 594.5,-438.7"/>
<polygon fill="none" stroke="#000000" points="594.5,-438.7 594.5,-461.7 733.5,-461.7 733.5,-438.7 594.5,-438.7"/>
<text text-anchor="start" x="599.5" y="-447.3" font-family="Helvetica,sans-Serif" font-weight="bold" font-size="11.00" fill="#000000">stop_times</text>
<text text-anchor="start" x="698.5437" y="-446.8" font-family="Helvetica,sans-Serif" font-size="11.00" fill="#000000">[table]</text>
<polygon fill="none" stroke="#000000" points="594.5,-416.7 594.5,-438.7 733.5,-438.7 733.5,-416.7 594.5,-416.7"/>
<image xlink:href="../../images/primaryKeys.png" width="11px" height="12px" preserveAspectRatio="xMinYMin meet" x="599.5" y="-433.7"/>
<text text-anchor="start" x="614.5" y="-423.8" font-family="Helvetica,sans-Serif" font-size="11.00" fill="#000000">trip_id</text>
<polygon fill="none" stroke="#000000" points="594.5,-394.7 594.5,-416.7 733.5,-416.7 733.5,-394.7 594.5,-394.7"/>
<image xlink:href="../../images/foreignKeys.png" width="11px" height="12px" preserveAspectRatio="xMinYMin meet" x="599.5" y="-411.7"/>
<text text-anchor="start" x="614.5" y="-401.8" font-family="Helvetica,sans-Serif" font-size="11.00" fill="#000000">stop_id</text>
<polygon fill="none" stroke="#000000" points="594.5,-372.7 594.5,-394.7 733.5,-394.7 733.5,-372.7 594.5,-372.7"/>
<image xlink:href="../../images/primaryKeys.png" width="11px" height="12px" preserveAspectRatio="xMinYMin meet" x="599.5" y="-389.7"/>
<text text-anchor="start" x="614.5" y="-379.8" font-family="Helvetica,sans-Serif" font-size="11.00" fill="#000000">stop_sequence</text>
<polygon fill="none" stroke="#000000" points="594.5,-353.7 594.5,-372.7 733.5,-372.7 733.5,-353.7 594.5,-353.7"/>
<text text-anchor="start" x="597.5" y="-359.8" font-family="Helvetica,sans-Serif" font-size="11.00" fill="#000000">...</text>
<polygon fill="#ffffff" stroke="transparent" points="594.5,-334.7 594.5,-353.7 662.5,-353.7 662.5,-334.7 594.5,-334.7"/>
<polygon fill="none" stroke="#000000" points="594.5,-334.7 594.5,-353.7 662.5,-353.7 662.5,-334.7 594.5,-334.7"/>
<text text-anchor="start" x="597.5" y="-340.8" font-family="Helvetica,sans-Serif" font-size="11.00" fill="#000000">&lt; 2</text>
<polygon fill="#ffffff" stroke="transparent" points="662.5,-334.7 662.5,-353.7 697.5,-353.7 697.5,-334.7 662.5,-334.7"/>
<polygon fill="none" stroke="#000000" points="662.5,-334.7 662.5,-353.7 697.5,-353.7 697.5,-334.7 662.5,-334.7"/>
<text text-anchor="start" x="688.3862" y="-340.8" font-family="Helvetica,sans-Serif" font-size="11.00" fill="#000000"> &#160;</text>
<polygon fill="#ffffff" stroke="transparent" points="697.5,-334.7 697.5,-353.7 733.5,-353.7 733.5,-334.7 697.5,-334.7"/>
<polygon fill="none" stroke="#000000" points="697.5,-334.7 697.5,-353.7 733.5,-353.7 733.5,-334.7 697.5,-334.7"/>
<text text-anchor="start" x="724.3862" y="-340.8" font-family="Helvetica,sans-Serif" font-size="11.00" fill="#000000"> &#160;</text>
</a>
</g>
</g>
<!-- stop_times&#45;&gt;trips -->
<g id="edge9" class="edge">
<title>stop_times:w&#45;&gt;trips:e</title>
<path fill="none" stroke="#000000" d="M580.6043,-432.3457C561.5015,-449.1376 579.9636,-505.7 545,-505.7"/>
<polygon fill="#000000" stroke="#000000" points="586.9128,-430.2366 595.6415,-431.1142 590.7064,-428.9683 594.5,-427.7 594.5,-427.7 594.5,-427.7 590.7064,-428.9683 593.3585,-424.2858 586.9128,-430.2366 586.9128,-430.2366"/>
<ellipse fill="none" stroke="#000000" cx="583.8779" cy="-431.2513" rx="3.2" ry="3.2"/>
</g>
<!-- stop_times&#45;&gt;stops -->
<g id="edge8" class="edge">
<title>stop_times:w&#45;&gt;stops:e</title>
<path fill="none" stroke="#000000" d="M580.4134,-402.1632C549.8997,-382.9212 591.8981,-291.7 542,-291.7"/>
<polygon fill="#000000" stroke="#000000" points="586.7408,-403.7518 593.6233,-409.1916 590.6204,-404.7259 594.5,-405.7 594.5,-405.7 594.5,-405.7 590.6204,-404.7259 595.3767,-402.2084 586.7408,-403.7518 586.7408,-403.7518"/>
<ellipse fill="none" stroke="#000000" cx="583.6372" cy="-402.9725" rx="3.2" ry="3.2"/>
</g>
<!-- transfers -->
<g id="node14" class="node">
<title>transfers</title>
<g id="a_node14"><a xlink:href="../../tables/transfers.html" xlink:title="transfers" target="_top">
<polygon fill="#ffffff" stroke="transparent" points="598.5,-209.2 598.5,-314.2 728.5,-314.2 728.5,-209.2 598.5,-209.2"/>
<polygon fill="#f5f5f5" stroke="transparent" points="598.5,-290.7 598.5,-313.7 728.5,-313.7 728.5,-290.7 598.5,-290.7"/>
<polygon fill="none" stroke="#000000" points="598.5,-290.7 598.5,-313.7 728.5,-313.7 728.5,-290.7 598.5,-290.7"/>
<text text-anchor="start" x="603.5" y="-299.3" font-family="Helvetica,sans-Serif" font-weight="bold" font-size="11.00" fill="#000000">transfers</text>
<text text-anchor="start" x="693.5437" y="-298.8" font-family="Helvetica,sans-Serif" font-size="11.00" fill="#000000">[table]</text>
<polygon fill="none" stroke="#000000" points="598.5,-268.7 598.5,-290.7 728.5,-290.7 728.5,-268.7 598.5,-268.7"/>
<image xlink:href="../../images/primaryKeys.png" width="11px" height="12px" preserveAspectRatio="xMinYMin meet" x="603.5" y="-285.7"/>
<text text-anchor="start" x="618.5" y="-275.8" font-family="Helvetica,sans-Serif" font-size="11.00" fill="#000000">from_stop_id</text>
<polygon fill="none" stroke="#000000" points="598.5,-246.7 598.5,-268.7 728.5,-268.7 728.5,-246.7 598.5,-246.7"/>
<image xlink:href="../../images/primaryKeys.png" width="11px" height="12px" preserveAspectRatio="xMinYMin meet" x="603.5" y="-263.7"/>
<text text-anchor="start" x="618.5" y="-253.8" font-family="Helvetica,sans-Serif" font-size="11.00" fill="#000000">to_stop_id</text>
<polygon fill="none" stroke="#000000" points="598.5,-227.7 598.5,-246.7 728.5,-246.7 728.5,-227.7 598.5,-227.7"/>
<text text-anchor="start" x="601.5" y="-233.8" font-family="Helvetica,sans-Serif" font-size="11.00" fill="#000000">...</text>
<polygon fill="#ffffff" stroke="transparent" points="598.5,-208.7 598.5,-227.7 661.5,-227.7 661.5,-208.7 598.5,-208.7"/>
<polygon fill="none" stroke="#000000" points="598.5,-208.7 598.5,-227.7 661.5,-227.7 661.5,-208.7 598.5,-208.7"/>
<text text-anchor="start" x="601.5" y="-214.8" font-family="Helvetica,sans-Serif" font-size="11.00" fill="#000000">&lt; 2</text>
<polygon fill="#ffffff" stroke="transparent" points="661.5,-208.7 661.5,-227.7 694.5,-227.7 694.5,-208.7 661.5,-208.7"/>
<polygon fill="none" stroke="#000000" points="661.5,-208.7 661.5,-227.7 694.5,-227.7 694.5,-208.7 661.5,-208.7"/>
<text text-anchor="start" x="685.3862" y="-214.8" font-family="Helvetica,sans-Serif" font-size="11.00" fill="#000000"> &#160;</text>
<polygon fill="#ffffff" stroke="transparent" points="694.5,-208.7 694.5,-227.7 728.5,-227.7 728.5,-208.7 694.5,-208.7"/>
<polygon fill="none" stroke="#000000" points="694.5,-208.7 694.5,-227.7 728.5,-227.7 728.5,-208.7 694.5,-208.7"/>
<text text-anchor="start" x="719.3862" y="-214.8" font-family="Helvetica,sans-Serif" font-size="11.00" fill="#000000"> &#160;</text>
</a>
</g>
</g>
<!-- transfers&#45;&gt;stops -->
<g id="edge10" class="edge">
<title>transfers:w&#45;&gt;stops:e</title>
<path fill="none" stroke="#000000" d="M584.1686,-281.1714C569.5907,-284.3758 562.0557,-291.7 542,-291.7"/>
<polygon fill="#000000" stroke="#000000" points="590.5418,-280.5171 598.8677,-283.2812 594.5209,-280.1086 598.5,-279.7 598.5,-279.7 598.5,-279.7 594.5209,-280.1086 598.1323,-276.1188 590.5418,-280.5171 590.5418,-280.5171"/>
<ellipse fill="none" stroke="#000000" cx="587.3586" cy="-280.844" rx="3.2" ry="3.2"/>
</g>
<!-- transfers&#45;&gt;stops -->
<g id="edge11" class="edge">
<title>transfers:w&#45;&gt;stops:e</title>
<path fill="none" stroke="#000000" d="M584.4555,-261.0844C568.8201,-269.6843 565.5832,-291.7 542,-291.7"/>
<polygon fill="#000000" stroke="#000000" points="590.7226,-259.5742 599.3434,-261.1998 594.6113,-258.6371 598.5,-257.7 598.5,-257.7 598.5,-257.7 594.6113,-258.6371 597.6566,-254.2002 590.7226,-259.5742 590.7226,-259.5742"/>
<ellipse fill="none" stroke="#000000" cx="587.6117" cy="-260.3239" rx="3.2" ry="3.2"/>
</g>
</g>
</svg>
